  0
SECTION
  2
HEADER
  9
$ANGBASE
  50
0.0
  9
$ANGDIR
  70
1
  9
$MEASUREMENT
  70
1
  0
ENDSEC
  0
SECTION
  2
TABLES
  0
TABLE
  2
LTYPE
  70
4
  0
LTYPE
  5
40F
  2
CONTINUOUS
  70
0
  3
Solid line
  72
65
  73
0
  40
0.0
  0
LTYPE
  5
410
  2
DASHDOT
 70
0
  3
Dash Dot ____ _ ____ _
 72
65
 73
4
 40
2.0
 49
1.25
 49
-0.25
 49
0.25
 49
-0.25
  0
LTYPE
  5
411
  2
DASHED
 70
0
  3
Dashed __ __ __ __ __
 72
65
 73
2
 40
0.75
 49
0.5
 49
-0.25
  0
LTYPE
  5
43B
  2
DOTTED
 70
0
  3
Dotted .  .  .  .
 72
65
 73
2
 40
0.2
 49
0.0
 49
-0.2
  0
ENDTAB
  0
TABLE
  2
STYLE
  70
4
  0
STYLE
  2
KICAD
  70
0
  40
0
  41
1
  42
1
  50
0
  71
0
  3
isocp.shx
  0
STYLE
  2
KICADB
  70
0
  40
0
  41
1
  42
1
  50
0
  71
0
  3
isocp.shx
  0
STYLE
  2
KICADI
  70
0
  40
0
  41
1
  42
1
  50
15
  71
0
  3
isocp.shx
  0
STYLE
  2
KICADBI
  70
0
  40
0
  41
1
  42
1
  50
15
  71
0
  3
isocp.shx
  0
ENDTAB
  0
TABLE
  2
LAYER
  70
1
  0
LAYER
  2
BLACK
  70
0
  62
7
  6
CONTINUOUS
  0
ENDTAB
  0
ENDSEC
  0
SECTION
  2
ENTITIES
0
LINE
8
BLACK
6
CONTINUOUS
10
103.034
20
-98.1823
11
102.987
21
-98.3591
0
LINE
8
BLACK
6
CONTINUOUS
10
102.987
20
-98.3591
11
102.909
21
-98.525
0
LINE
8
BLACK
6
CONTINUOUS
10
102.909
20
-98.525
11
102.804
21
-98.6749
0
LINE
8
BLACK
6
CONTINUOUS
10
102.804
20
-98.6749
11
102.675
21
-98.8043
0
LINE
8
BLACK
6
CONTINUOUS
10
102.675
20
-98.8043
11
102.525
21
-98.9093
0
LINE
8
BLACK
6
CONTINUOUS
10
102.525
20
-98.9093
11
102.359
21
-98.9867
0
LINE
8
BLACK
6
CONTINUOUS
10
102.359
20
-98.9867
11
102.182
21
-99.034
0
LINE
8
BLACK
6
CONTINUOUS
10
102.182
20
-99.034
11
102
21
-99.05
0
LINE
8
BLACK
6
CONTINUOUS
10
102
20
-99.05
11
80
21
-99.05
0
LINE
8
BLACK
6
CONTINUOUS
10
80
20
-99.05
11
79.8177
21
-99.034
0
LINE
8
BLACK
6
CONTINUOUS
10
79.8177
20
-99.034
11
79.6409
21
-98.9867
0
LINE
8
BLACK
6
CONTINUOUS
10
79.6409
20
-98.9867
11
79.475
21
-98.9093
0
LINE
8
BLACK
6
CONTINUOUS
10
79.475
20
-98.9093
11
79.3251
21
-98.8043
0
LINE
8
BLACK
6
CONTINUOUS
10
79.3251
20
-98.8043
11
79.1957
21
-98.6749
0
LINE
8
BLACK
6
CONTINUOUS
10
79.1957
20
-98.6749
11
79.0907
21
-98.525
0
LINE
8
BLACK
6
CONTINUOUS
10
79.0907
20
-98.525
11
79.0133
21
-98.3591
0
LINE
8
BLACK
6
CONTINUOUS
10
79.0133
20
-98.3591
11
78.966
21
-98.1823
0
LINE
8
BLACK
6
CONTINUOUS
10
78.966
20
-98.1823
11
78.95
21
-98
0
LINE
8
BLACK
6
CONTINUOUS
10
78.95
20
-98
11
78.95
21
-70
0
LINE
8
BLACK
6
CONTINUOUS
10
78.95
20
-70
11
78.966
21
-69.8177
0
LINE
8
BLACK
6
CONTINUOUS
10
78.966
20
-69.8177
11
79.0133
21
-69.6409
0
LINE
8
BLACK
6
CONTINUOUS
10
79.0133
20
-69.6409
11
79.0907
21
-69.475
0
LINE
8
BLACK
6
CONTINUOUS
10
79.0907
20
-69.475
11
79.1957
21
-69.3251
0
LINE
8
BLACK
6
CONTINUOUS
10
79.1957
20
-69.3251
11
79.3251
21
-69.1957
0
LINE
8
BLACK
6
CONTINUOUS
10
79.3251
20
-69.1957
11
79.475
21
-69.0907
0
LINE
8
BLACK
6
CONTINUOUS
10
79.475
20
-69.0907
11
79.6409
21
-69.0133
0
LINE
8
BLACK
6
CONTINUOUS
10
79.6409
20
-69.0133
11
79.8177
21
-68.966
0
LINE
8
BLACK
6
CONTINUOUS
10
79.8177
20
-68.966
11
80
21
-68.95
0
LINE
8
BLACK
6
CONTINUOUS
10
80
20
-68.95
11
102
21
-68.95
0
LINE
8
BLACK
6
CONTINUOUS
10
102
20
-68.95
11
102.182
21
-68.966
0
LINE
8
BLACK
6
CONTINUOUS
10
102.182
20
-68.966
11
102.359
21
-69.0133
0
LINE
8
BLACK
6
CONTINUOUS
10
102.359
20
-69.0133
11
102.525
21
-69.0907
0
LINE
8
BLACK
6
CONTINUOUS
10
102.525
20
-69.0907
11
102.675
21
-69.1957
0
LINE
8
BLACK
6
CONTINUOUS
10
102.675
20
-69.1957
11
102.804
21
-69.3251
0
LINE
8
BLACK
6
CONTINUOUS
10
102.804
20
-69.3251
11
102.909
21
-69.475
0
LINE
8
BLACK
6
CONTINUOUS
10
102.909
20
-69.475
11
102.987
21
-69.6409
0
LINE
8
BLACK
6
CONTINUOUS
10
102.987
20
-69.6409
11
103.034
21
-69.8177
0
LINE
8
BLACK
6
CONTINUOUS
10
103.034
20
-69.8177
11
103.05
21
-70
0
LINE
8
BLACK
6
CONTINUOUS
10
103.05
20
-70
11
103.05
21
-98
0
LINE
8
BLACK
6
CONTINUOUS
10
103.05
20
-98
11
103.034
21
-98.1823
0
LINE
8
BLACK
6
CONTINUOUS
10
79.9928
20
-69.047
11
79.8344
21
-69.0609
0
LINE
8
BLACK
6
CONTINUOUS
10
79.8344
20
-69.0609
11
79.6738
21
-69.1039
0
LINE
8
BLACK
6
CONTINUOUS
10
79.6738
20
-69.1039
11
79.5232
21
-69.1741
0
LINE
8
BLACK
6
CONTINUOUS
10
79.5232
20
-69.1741
11
79.387
21
-69.2695
0
LINE
8
BLACK
6
CONTINUOUS
10
79.387
20
-69.2695
11
79.2695
21
-69.387
0
LINE
8
BLACK
6
CONTINUOUS
10
79.2695
20
-69.387
11
79.1741
21
-69.5232
0
LINE
8
BLACK
6
CONTINUOUS
10
79.1741
20
-69.5232
11
79.1039
21
-69.6738
0
LINE
8
BLACK
6
CONTINUOUS
10
79.1039
20
-69.6738
11
79.0609
21
-69.8344
0
LINE
8
BLACK
6
CONTINUOUS
10
79.0609
20
-69.8344
11
79.047
21
-69.9928
0
LINE
8
BLACK
6
CONTINUOUS
10
79.047
20
-69.9928
11
79.05
21
-70
0
LINE
8
BLACK
6
CONTINUOUS
10
79.05
20
-70
11
79.05
21
-98
0
LINE
8
BLACK
6
CONTINUOUS
10
79.05
20
-98
11
79.047
21
-98.0072
0
LINE
8
BLACK
6
CONTINUOUS
10
79.047
20
-98.0072
11
79.0609
21
-98.1656
0
LINE
8
BLACK
6
CONTINUOUS
10
79.0609
20
-98.1656
11
79.1039
21
-98.3262
0
LINE
8
BLACK
6
CONTINUOUS
10
79.1039
20
-98.3262
11
79.1741
21
-98.4768
0
LINE
8
BLACK
6
CONTINUOUS
10
79.1741
20
-98.4768
11
79.2695
21
-98.613
0
LINE
8
BLACK
6
CONTINUOUS
10
79.2695
20
-98.613
11
79.387
21
-98.7305
0
LINE
8
BLACK
6
CONTINUOUS
10
79.387
20
-98.7305
11
79.5232
21
-98.8259
0
LINE
8
BLACK
6
CONTINUOUS
10
79.5232
20
-98.8259
11
79.6738
21
-98.8961
0
LINE
8
BLACK
6
CONTINUOUS
10
79.6738
20
-98.8961
11
79.8344
21
-98.9391
0
LINE
8
BLACK
6
CONTINUOUS
10
79.8344
20
-98.9391
11
79.9928
21
-98.953
0
LINE
8
BLACK
6
CONTINUOUS
10
79.9928
20
-98.953
11
80
21
-98.95
0
LINE
8
BLACK
6
CONTINUOUS
10
80
20
-98.95
11
102
21
-98.95
0
LINE
8
BLACK
6
CONTINUOUS
10
102
20
-98.95
11
102.007
21
-98.953
0
LINE
8
BLACK
6
CONTINUOUS
10
102.007
20
-98.953
11
102.166
21
-98.9391
0
LINE
8
BLACK
6
CONTINUOUS
10
102.166
20
-98.9391
11
102.326
21
-98.8961
0
LINE
8
BLACK
6
CONTINUOUS
10
102.326
20
-98.8961
11
102.477
21
-98.8259
0
LINE
8
BLACK
6
CONTINUOUS
10
102.477
20
-98.8259
11
102.613
21
-98.7305
0
LINE
8
BLACK
6
CONTINUOUS
10
102.613
20
-98.7305
11
102.731
21
-98.613
0
LINE
8
BLACK
6
CONTINUOUS
10
102.731
20
-98.613
11
102.826
21
-98.4768
0
LINE
8
BLACK
6
CONTINUOUS
10
102.826
20
-98.4768
11
102.896
21
-98.3262
0
LINE
8
BLACK
6
CONTINUOUS
10
102.896
20
-98.3262
11
102.939
21
-98.1656
0
LINE
8
BLACK
6
CONTINUOUS
10
102.939
20
-98.1656
11
102.953
21
-98.0072
0
LINE
8
BLACK
6
CONTINUOUS
10
102.953
20
-98.0072
11
102.95
21
-98
0
LINE
8
BLACK
6
CONTINUOUS
10
102.95
20
-98
11
102.95
21
-70
0
LINE
8
BLACK
6
CONTINUOUS
10
102.95
20
-70
11
102.953
21
-69.9928
0
LINE
8
BLACK
6
CONTINUOUS
10
102.953
20
-69.9928
11
102.939
21
-69.8344
0
LINE
8
BLACK
6
CONTINUOUS
10
102.939
20
-69.8344
11
102.896
21
-69.6738
0
LINE
8
BLACK
6
CONTINUOUS
10
102.896
20
-69.6738
11
102.826
21
-69.5232
0
LINE
8
BLACK
6
CONTINUOUS
10
102.826
20
-69.5232
11
102.731
21
-69.387
0
LINE
8
BLACK
6
CONTINUOUS
10
102.731
20
-69.387
11
102.613
21
-69.2695
0
LINE
8
BLACK
6
CONTINUOUS
10
102.613
20
-69.2695
11
102.477
21
-69.1741
0
LINE
8
BLACK
6
CONTINUOUS
10
102.477
20
-69.1741
11
102.326
21
-69.1039
0
LINE
8
BLACK
6
CONTINUOUS
10
102.326
20
-69.1039
11
102.166
21
-69.0609
0
LINE
8
BLACK
6
CONTINUOUS
10
102.166
20
-69.0609
11
102.007
21
-69.047
0
LINE
8
BLACK
6
CONTINUOUS
10
102.007
20
-69.047
11
102
21
-69.05
0
LINE
8
BLACK
6
CONTINUOUS
10
102
20
-69.05
11
80
21
-69.05
0
LINE
8
BLACK
6
CONTINUOUS
10
80
20
-69.05
11
79.9928
21
-69.047
  0
ENDSEC
  0
EOF
