  0
SECTION
  2
HEADER
  9
$ANGBASE
  50
0.0
  9
$ANGDIR
  70
1
  9
$MEASUREMENT
  70
1
  0
ENDSEC
  0
SECTION
  2
TABLES
  0
TABLE
  2
LTYPE
  70
4
  0
LTYPE
  5
40F
  2
CONTINUOUS
  70
0
  3
Solid line
  72
65
  73
0
  40
0.0
  0
LTYPE
  5
410
  2
DASHDOT
 70
0
  3
Dash Dot ____ _ ____ _
 72
65
 73
4
 40
2.0
 49
1.25
 49
-0.25
 49
0.25
 49
-0.25
  0
LTYPE
  5
411
  2
DASHED
 70
0
  3
Dashed __ __ __ __ __
 72
65
 73
2
 40
0.75
 49
0.5
 49
-0.25
  0
LTYPE
  5
43B
  2
DOTTED
 70
0
  3
Dotted .  .  .  .
 72
65
 73
2
 40
0.2
 49
0.0
 49
-0.2
  0
ENDTAB
  0
TABLE
  2
STYLE
  70
4
  0
STYLE
  2
KICAD
  70
0
  40
0
  41
1
  42
1
  50
0
  71
0
  3
isocp.shx
  0
STYLE
  2
KICADB
  70
0
  40
0
  41
1
  42
1
  50
0
  71
0
  3
isocp.shx
  0
STYLE
  2
KICADI
  70
0
  40
0
  41
1
  42
1
  50
15
  71
0
  3
isocp.shx
  0
STYLE
  2
KICADBI
  70
0
  40
0
  41
1
  42
1
  50
15
  71
0
  3
isocp.shx
  0
ENDTAB
  0
TABLE
  2
LAYER
  70
1
  0
LAYER
  2
BLACK
  70
0
  62
7
  6
CONTINUOUS
  0
ENDTAB
  0
ENDSEC
  0
SECTION
  2
ENTITIES
0
LINE
8
BLACK
6
CONTINUOUS
10
99.33
20
-94.584
11
99.08
21
-94.584
0
LINE
8
BLACK
6
CONTINUOUS
10
99.08
20
-94.584
11
99.08
21
-94.084
0
LINE
8
BLACK
6
CONTINUOUS
10
99.08
20
-94.084
11
99.33
21
-94.084
0
LINE
8
BLACK
6
CONTINUOUS
10
99.33
20
-94.084
11
99.33
21
-94.584
0
LINE
8
BLACK
6
CONTINUOUS
10
90.67
20
-94.584
11
90.42
21
-94.584
0
LINE
8
BLACK
6
CONTINUOUS
10
90.42
20
-94.584
11
90.42
21
-94.084
0
LINE
8
BLACK
6
CONTINUOUS
10
90.42
20
-94.084
11
90.67
21
-94.084
0
LINE
8
BLACK
6
CONTINUOUS
10
90.67
20
-94.084
11
90.67
21
-94.584
0
LINE
8
BLACK
6
CONTINUOUS
10
90.17
20
-94.584
11
89.92
21
-94.584
0
LINE
8
BLACK
6
CONTINUOUS
10
89.92
20
-94.584
11
89.92
21
-94.084
0
LINE
8
BLACK
6
CONTINUOUS
10
89.92
20
-94.084
11
90.17
21
-94.084
0
LINE
8
BLACK
6
CONTINUOUS
10
90.17
20
-94.084
11
90.17
21
-94.584
0
LINE
8
BLACK
6
CONTINUOUS
10
94.25
20
-94.584
11
94
21
-94.584
0
LINE
8
BLACK
6
CONTINUOUS
10
94
20
-94.584
11
94
21
-94.084
0
LINE
8
BLACK
6
CONTINUOUS
10
94
20
-94.084
11
94.25
21
-94.084
0
LINE
8
BLACK
6
CONTINUOUS
10
94.25
20
-94.084
11
94.25
21
-94.584
0
LINE
8
BLACK
6
CONTINUOUS
10
94.75
20
-94.584
11
94.5
21
-94.584
0
LINE
8
BLACK
6
CONTINUOUS
10
94.5
20
-94.584
11
94.5
21
-94.084
0
LINE
8
BLACK
6
CONTINUOUS
10
94.5
20
-94.084
11
94.75
21
-94.084
0
LINE
8
BLACK
6
CONTINUOUS
10
94.75
20
-94.084
11
94.75
21
-94.584
0
LINE
8
BLACK
6
CONTINUOUS
10
95.25
20
-94.584
11
95
21
-94.584
0
LINE
8
BLACK
6
CONTINUOUS
10
95
20
-94.584
11
95
21
-94.084
0
LINE
8
BLACK
6
CONTINUOUS
10
95
20
-94.084
11
95.25
21
-94.084
0
LINE
8
BLACK
6
CONTINUOUS
10
95.25
20
-94.084
11
95.25
21
-94.584
0
LINE
8
BLACK
6
CONTINUOUS
10
95.75
20
-94.584
11
95.5
21
-94.584
0
LINE
8
BLACK
6
CONTINUOUS
10
95.5
20
-94.584
11
95.5
21
-94.084
0
LINE
8
BLACK
6
CONTINUOUS
10
95.5
20
-94.084
11
95.75
21
-94.084
0
LINE
8
BLACK
6
CONTINUOUS
10
95.75
20
-94.084
11
95.75
21
-94.584
0
LINE
8
BLACK
6
CONTINUOUS
10
89.67
20
-94.584
11
89.42
21
-94.584
0
LINE
8
BLACK
6
CONTINUOUS
10
89.42
20
-94.584
11
89.42
21
-94.084
0
LINE
8
BLACK
6
CONTINUOUS
10
89.42
20
-94.084
11
89.67
21
-94.084
0
LINE
8
BLACK
6
CONTINUOUS
10
89.67
20
-94.084
11
89.67
21
-94.584
0
LINE
8
BLACK
6
CONTINUOUS
10
89.17
20
-94.584
11
88.92
21
-94.584
0
LINE
8
BLACK
6
CONTINUOUS
10
88.92
20
-94.584
11
88.92
21
-94.084
0
LINE
8
BLACK
6
CONTINUOUS
10
88.92
20
-94.084
11
89.17
21
-94.084
0
LINE
8
BLACK
6
CONTINUOUS
10
89.17
20
-94.084
11
89.17
21
-94.584
0
LINE
8
BLACK
6
CONTINUOUS
10
99.83
20
-94.584
11
99.58
21
-94.584
0
LINE
8
BLACK
6
CONTINUOUS
10
99.58
20
-94.584
11
99.58
21
-94.084
0
LINE
8
BLACK
6
CONTINUOUS
10
99.58
20
-94.084
11
99.83
21
-94.084
0
LINE
8
BLACK
6
CONTINUOUS
10
99.83
20
-94.084
11
99.83
21
-94.584
0
LINE
8
BLACK
6
CONTINUOUS
10
100.33
20
-94.584
11
100.08
21
-94.584
0
LINE
8
BLACK
6
CONTINUOUS
10
100.08
20
-94.584
11
100.08
21
-94.084
0
LINE
8
BLACK
6
CONTINUOUS
10
100.08
20
-94.084
11
100.33
21
-94.084
0
LINE
8
BLACK
6
CONTINUOUS
10
100.33
20
-94.084
11
100.33
21
-94.584
0
LINE
8
BLACK
6
CONTINUOUS
10
100.83
20
-94.584
11
100.58
21
-94.584
0
LINE
8
BLACK
6
CONTINUOUS
10
100.58
20
-94.584
11
100.58
21
-94.084
0
LINE
8
BLACK
6
CONTINUOUS
10
100.58
20
-94.084
11
100.83
21
-94.084
0
LINE
8
BLACK
6
CONTINUOUS
10
100.83
20
-94.084
11
100.83
21
-94.584
0
LINE
8
BLACK
6
CONTINUOUS
10
94.8
20
-93.759
11
94.15
21
-93.759
0
LINE
8
BLACK
6
CONTINUOUS
10
94.15
20
-93.759
11
94.15
21
-93.009
0
LINE
8
BLACK
6
CONTINUOUS
10
94.15
20
-93.009
11
94.8
21
-93.009
0
LINE
8
BLACK
6
CONTINUOUS
10
94.8
20
-93.009
11
94.8
21
-93.759
0
LINE
8
BLACK
6
CONTINUOUS
10
95.6
20
-93.759
11
94.95
21
-93.759
0
LINE
8
BLACK
6
CONTINUOUS
10
94.95
20
-93.759
11
94.95
21
-93.009
0
LINE
8
BLACK
6
CONTINUOUS
10
94.95
20
-93.009
11
95.6
21
-93.009
0
LINE
8
BLACK
6
CONTINUOUS
10
95.6
20
-93.009
11
95.6
21
-93.759
0
LINE
8
BLACK
6
CONTINUOUS
10
90.52
20
-93.759
11
89.87
21
-93.759
0
LINE
8
BLACK
6
CONTINUOUS
10
89.87
20
-93.759
11
89.87
21
-93.009
0
LINE
8
BLACK
6
CONTINUOUS
10
89.87
20
-93.009
11
90.52
21
-93.009
0
LINE
8
BLACK
6
CONTINUOUS
10
90.52
20
-93.009
11
90.52
21
-93.759
0
LINE
8
BLACK
6
CONTINUOUS
10
99.88
20
-93.759
11
99.23
21
-93.759
0
LINE
8
BLACK
6
CONTINUOUS
10
99.23
20
-93.759
11
99.23
21
-93.009
0
LINE
8
BLACK
6
CONTINUOUS
10
99.23
20
-93.009
11
99.88
21
-93.009
0
LINE
8
BLACK
6
CONTINUOUS
10
99.88
20
-93.009
11
99.88
21
-93.759
0
LINE
8
BLACK
6
CONTINUOUS
10
100.68
20
-93.759
11
100.03
21
-93.759
0
LINE
8
BLACK
6
CONTINUOUS
10
100.03
20
-93.759
11
100.03
21
-93.009
0
LINE
8
BLACK
6
CONTINUOUS
10
100.03
20
-93.009
11
100.68
21
-93.009
0
LINE
8
BLACK
6
CONTINUOUS
10
100.68
20
-93.009
11
100.68
21
-93.759
0
LINE
8
BLACK
6
CONTINUOUS
10
89.72
20
-93.759
11
89.07
21
-93.759
0
LINE
8
BLACK
6
CONTINUOUS
10
89.07
20
-93.759
11
89.07
21
-93.009
0
LINE
8
BLACK
6
CONTINUOUS
10
89.07
20
-93.009
11
89.72
21
-93.009
0
LINE
8
BLACK
6
CONTINUOUS
10
89.72
20
-93.009
11
89.72
21
-93.759
0
LINE
8
BLACK
6
CONTINUOUS
10
92.3361
20
-91.8421
11
92.4091
21
-91.8909
0
LINE
8
BLACK
6
CONTINUOUS
10
92.4091
20
-91.8909
11
92.4579
21
-91.9639
0
LINE
8
BLACK
6
CONTINUOUS
10
92.4579
20
-91.9639
11
92.475
21
-92.05
0
LINE
8
BLACK
6
CONTINUOUS
10
92.475
20
-92.05
11
92.475
21
-92.5
0
LINE
8
BLACK
6
CONTINUOUS
10
92.475
20
-92.5
11
92.4579
21
-92.5861
0
LINE
8
BLACK
6
CONTINUOUS
10
92.4579
20
-92.5861
11
92.4091
21
-92.6591
0
LINE
8
BLACK
6
CONTINUOUS
10
92.4091
20
-92.6591
11
92.3361
21
-92.7079
0
LINE
8
BLACK
6
CONTINUOUS
10
92.3361
20
-92.7079
11
92.25
21
-92.725
0
LINE
8
BLACK
6
CONTINUOUS
10
92.25
20
-92.725
11
91.75
21
-92.725
0
LINE
8
BLACK
6
CONTINUOUS
10
91.75
20
-92.725
11
91.6639
21
-92.7079
0
LINE
8
BLACK
6
CONTINUOUS
10
91.6639
20
-92.7079
11
91.5909
21
-92.6591
0
LINE
8
BLACK
6
CONTINUOUS
10
91.5909
20
-92.6591
11
91.5421
21
-92.5861
0
LINE
8
BLACK
6
CONTINUOUS
10
91.5421
20
-92.5861
11
91.525
21
-92.5
0
LINE
8
BLACK
6
CONTINUOUS
10
91.525
20
-92.5
11
91.525
21
-92.05
0
LINE
8
BLACK
6
CONTINUOUS
10
91.525
20
-92.05
11
91.5421
21
-91.9639
0
LINE
8
BLACK
6
CONTINUOUS
10
91.5421
20
-91.9639
11
91.5909
21
-91.8909
0
LINE
8
BLACK
6
CONTINUOUS
10
91.5909
20
-91.8909
11
91.6639
21
-91.8421
0
LINE
8
BLACK
6
CONTINUOUS
10
91.6639
20
-91.8421
11
91.75
21
-91.825
0
LINE
8
BLACK
6
CONTINUOUS
10
91.75
20
-91.825
11
92.25
21
-91.825
0
LINE
8
BLACK
6
CONTINUOUS
10
92.25
20
-91.825
11
92.3361
21
-91.8421
0
LINE
8
BLACK
6
CONTINUOUS
10
97.3361
20
-91.8171
11
97.4091
21
-91.8659
0
LINE
8
BLACK
6
CONTINUOUS
10
97.4091
20
-91.8659
11
97.4579
21
-91.9389
0
LINE
8
BLACK
6
CONTINUOUS
10
97.4579
20
-91.9389
11
97.475
21
-92.025
0
LINE
8
BLACK
6
CONTINUOUS
10
97.475
20
-92.025
11
97.475
21
-92.475
0
LINE
8
BLACK
6
CONTINUOUS
10
97.475
20
-92.475
11
97.4579
21
-92.5611
0
LINE
8
BLACK
6
CONTINUOUS
10
97.4579
20
-92.5611
11
97.4091
21
-92.6341
0
LINE
8
BLACK
6
CONTINUOUS
10
97.4091
20
-92.6341
11
97.3361
21
-92.6829
0
LINE
8
BLACK
6
CONTINUOUS
10
97.3361
20
-92.6829
11
97.25
21
-92.7
0
LINE
8
BLACK
6
CONTINUOUS
10
97.25
20
-92.7
11
96.75
21
-92.7
0
LINE
8
BLACK
6
CONTINUOUS
10
96.75
20
-92.7
11
96.6639
21
-92.6829
0
LINE
8
BLACK
6
CONTINUOUS
10
96.6639
20
-92.6829
11
96.5909
21
-92.6341
0
LINE
8
BLACK
6
CONTINUOUS
10
96.5909
20
-92.6341
11
96.5421
21
-92.5611
0
LINE
8
BLACK
6
CONTINUOUS
10
96.5421
20
-92.5611
11
96.525
21
-92.475
0
LINE
8
BLACK
6
CONTINUOUS
10
96.525
20
-92.475
11
96.525
21
-92.025
0
LINE
8
BLACK
6
CONTINUOUS
10
96.525
20
-92.025
11
96.5421
21
-91.9389
0
LINE
8
BLACK
6
CONTINUOUS
10
96.5421
20
-91.9389
11
96.5909
21
-91.8659
0
LINE
8
BLACK
6
CONTINUOUS
10
96.5909
20
-91.8659
11
96.6639
21
-91.8171
0
LINE
8
BLACK
6
CONTINUOUS
10
96.6639
20
-91.8171
11
96.75
21
-91.8
0
LINE
8
BLACK
6
CONTINUOUS
10
96.75
20
-91.8
11
97.25
21
-91.8
0
LINE
8
BLACK
6
CONTINUOUS
10
97.25
20
-91.8
11
97.3361
21
-91.8171
0
LINE
8
BLACK
6
CONTINUOUS
10
100.83
20
-92.684
11
100.58
21
-92.684
0
LINE
8
BLACK
6
CONTINUOUS
10
100.58
20
-92.684
11
100.58
21
-92.184
0
LINE
8
BLACK
6
CONTINUOUS
10
100.58
20
-92.184
11
100.83
21
-92.184
0
LINE
8
BLACK
6
CONTINUOUS
10
100.83
20
-92.184
11
100.83
21
-92.684
0
LINE
8
BLACK
6
CONTINUOUS
10
100.33
20
-92.684
11
100.08
21
-92.684
0
LINE
8
BLACK
6
CONTINUOUS
10
100.08
20
-92.684
11
100.08
21
-92.184
0
LINE
8
BLACK
6
CONTINUOUS
10
100.08
20
-92.184
11
100.33
21
-92.184
0
LINE
8
BLACK
6
CONTINUOUS
10
100.33
20
-92.184
11
100.33
21
-92.684
0
LINE
8
BLACK
6
CONTINUOUS
10
99.83
20
-92.684
11
99.58
21
-92.684
0
LINE
8
BLACK
6
CONTINUOUS
10
99.58
20
-92.684
11
99.58
21
-92.184
0
LINE
8
BLACK
6
CONTINUOUS
10
99.58
20
-92.184
11
99.83
21
-92.184
0
LINE
8
BLACK
6
CONTINUOUS
10
99.83
20
-92.184
11
99.83
21
-92.684
0
LINE
8
BLACK
6
CONTINUOUS
10
95.75
20
-92.684
11
95.5
21
-92.684
0
LINE
8
BLACK
6
CONTINUOUS
10
95.5
20
-92.684
11
95.5
21
-92.184
0
LINE
8
BLACK
6
CONTINUOUS
10
95.5
20
-92.184
11
95.75
21
-92.184
0
LINE
8
BLACK
6
CONTINUOUS
10
95.75
20
-92.184
11
95.75
21
-92.684
0
LINE
8
BLACK
6
CONTINUOUS
10
95.25
20
-92.684
11
95
21
-92.684
0
LINE
8
BLACK
6
CONTINUOUS
10
95
20
-92.684
11
95
21
-92.184
0
LINE
8
BLACK
6
CONTINUOUS
10
95
20
-92.184
11
95.25
21
-92.184
0
LINE
8
BLACK
6
CONTINUOUS
10
95.25
20
-92.184
11
95.25
21
-92.684
0
LINE
8
BLACK
6
CONTINUOUS
10
94.75
20
-92.684
11
94.5
21
-92.684
0
LINE
8
BLACK
6
CONTINUOUS
10
94.5
20
-92.684
11
94.5
21
-92.184
0
LINE
8
BLACK
6
CONTINUOUS
10
94.5
20
-92.184
11
94.75
21
-92.184
0
LINE
8
BLACK
6
CONTINUOUS
10
94.75
20
-92.184
11
94.75
21
-92.684
0
LINE
8
BLACK
6
CONTINUOUS
10
94.25
20
-92.684
11
94
21
-92.684
0
LINE
8
BLACK
6
CONTINUOUS
10
94
20
-92.684
11
94
21
-92.184
0
LINE
8
BLACK
6
CONTINUOUS
10
94
20
-92.184
11
94.25
21
-92.184
0
LINE
8
BLACK
6
CONTINUOUS
10
94.25
20
-92.184
11
94.25
21
-92.684
0
LINE
8
BLACK
6
CONTINUOUS
10
99.33
20
-92.684
11
99.08
21
-92.684
0
LINE
8
BLACK
6
CONTINUOUS
10
99.08
20
-92.684
11
99.08
21
-92.184
0
LINE
8
BLACK
6
CONTINUOUS
10
99.08
20
-92.184
11
99.33
21
-92.184
0
LINE
8
BLACK
6
CONTINUOUS
10
99.33
20
-92.184
11
99.33
21
-92.684
0
LINE
8
BLACK
6
CONTINUOUS
10
90.67
20
-92.684
11
90.42
21
-92.684
0
LINE
8
BLACK
6
CONTINUOUS
10
90.42
20
-92.684
11
90.42
21
-92.184
0
LINE
8
BLACK
6
CONTINUOUS
10
90.42
20
-92.184
11
90.67
21
-92.184
0
LINE
8
BLACK
6
CONTINUOUS
10
90.67
20
-92.184
11
90.67
21
-92.684
0
LINE
8
BLACK
6
CONTINUOUS
10
90.17
20
-92.684
11
89.92
21
-92.684
0
LINE
8
BLACK
6
CONTINUOUS
10
89.92
20
-92.684
11
89.92
21
-92.184
0
LINE
8
BLACK
6
CONTINUOUS
10
89.92
20
-92.184
11
90.17
21
-92.184
0
LINE
8
BLACK
6
CONTINUOUS
10
90.17
20
-92.184
11
90.17
21
-92.684
0
LINE
8
BLACK
6
CONTINUOUS
10
89.67
20
-92.684
11
89.42
21
-92.684
0
LINE
8
BLACK
6
CONTINUOUS
10
89.42
20
-92.684
11
89.42
21
-92.184
0
LINE
8
BLACK
6
CONTINUOUS
10
89.42
20
-92.184
11
89.67
21
-92.184
0
LINE
8
BLACK
6
CONTINUOUS
10
89.67
20
-92.184
11
89.67
21
-92.684
0
LINE
8
BLACK
6
CONTINUOUS
10
89.17
20
-92.684
11
88.92
21
-92.684
0
LINE
8
BLACK
6
CONTINUOUS
10
88.92
20
-92.684
11
88.92
21
-92.184
0
LINE
8
BLACK
6
CONTINUOUS
10
88.92
20
-92.184
11
89.17
21
-92.184
0
LINE
8
BLACK
6
CONTINUOUS
10
89.17
20
-92.184
11
89.17
21
-92.684
0
LINE
8
BLACK
6
CONTINUOUS
10
102.086
20
-90.3171
11
102.159
21
-90.3659
0
LINE
8
BLACK
6
CONTINUOUS
10
102.159
20
-90.3659
11
102.208
21
-90.4389
0
LINE
8
BLACK
6
CONTINUOUS
10
102.208
20
-90.4389
11
102.225
21
-90.525
0
LINE
8
BLACK
6
CONTINUOUS
10
102.225
20
-90.525
11
102.225
21
-90.975
0
LINE
8
BLACK
6
CONTINUOUS
10
102.225
20
-90.975
11
102.208
21
-91.0611
0
LINE
8
BLACK
6
CONTINUOUS
10
102.208
20
-91.0611
11
102.159
21
-91.1341
0
LINE
8
BLACK
6
CONTINUOUS
10
102.159
20
-91.1341
11
102.086
21
-91.1829
0
LINE
8
BLACK
6
CONTINUOUS
10
102.086
20
-91.1829
11
102
21
-91.2
0
LINE
8
BLACK
6
CONTINUOUS
10
102
20
-91.2
11
101.5
21
-91.2
0
LINE
8
BLACK
6
CONTINUOUS
10
101.5
20
-91.2
11
101.414
21
-91.1829
0
LINE
8
BLACK
6
CONTINUOUS
10
101.414
20
-91.1829
11
101.341
21
-91.1341
0
LINE
8
BLACK
6
CONTINUOUS
10
101.341
20
-91.1341
11
101.292
21
-91.0611
0
LINE
8
BLACK
6
CONTINUOUS
10
101.292
20
-91.0611
11
101.275
21
-90.975
0
LINE
8
BLACK
6
CONTINUOUS
10
101.275
20
-90.975
11
101.275
21
-90.525
0
LINE
8
BLACK
6
CONTINUOUS
10
101.275
20
-90.525
11
101.292
21
-90.4389
0
LINE
8
BLACK
6
CONTINUOUS
10
101.292
20
-90.4389
11
101.341
21
-90.3659
0
LINE
8
BLACK
6
CONTINUOUS
10
101.341
20
-90.3659
11
101.414
21
-90.3171
0
LINE
8
BLACK
6
CONTINUOUS
10
101.414
20
-90.3171
11
101.5
21
-90.3
0
LINE
8
BLACK
6
CONTINUOUS
10
101.5
20
-90.3
11
102
21
-90.3
0
LINE
8
BLACK
6
CONTINUOUS
10
102
20
-90.3
11
102.086
21
-90.3171
0
LINE
8
BLACK
6
CONTINUOUS
10
92.3361
20
-90.2921
11
92.4091
21
-90.3409
0
LINE
8
BLACK
6
CONTINUOUS
10
92.4091
20
-90.3409
11
92.4579
21
-90.4139
0
LINE
8
BLACK
6
CONTINUOUS
10
92.4579
20
-90.4139
11
92.475
21
-90.5
0
LINE
8
BLACK
6
CONTINUOUS
10
92.475
20
-90.5
11
92.475
21
-90.95
0
LINE
8
BLACK
6
CONTINUOUS
10
92.475
20
-90.95
11
92.4579
21
-91.0361
0
LINE
8
BLACK
6
CONTINUOUS
10
92.4579
20
-91.0361
11
92.4091
21
-91.1091
0
LINE
8
BLACK
6
CONTINUOUS
10
92.4091
20
-91.1091
11
92.3361
21
-91.1579
0
LINE
8
BLACK
6
CONTINUOUS
10
92.3361
20
-91.1579
11
92.25
21
-91.175
0
LINE
8
BLACK
6
CONTINUOUS
10
92.25
20
-91.175
11
91.75
21
-91.175
0
LINE
8
BLACK
6
CONTINUOUS
10
91.75
20
-91.175
11
91.6639
21
-91.1579
0
LINE
8
BLACK
6
CONTINUOUS
10
91.6639
20
-91.1579
11
91.5909
21
-91.1091
0
LINE
8
BLACK
6
CONTINUOUS
10
91.5909
20
-91.1091
11
91.5421
21
-91.0361
0
LINE
8
BLACK
6
CONTINUOUS
10
91.5421
20
-91.0361
11
91.525
21
-90.95
0
LINE
8
BLACK
6
CONTINUOUS
10
91.525
20
-90.95
11
91.525
21
-90.5
0
LINE
8
BLACK
6
CONTINUOUS
10
91.525
20
-90.5
11
91.5421
21
-90.4139
0
LINE
8
BLACK
6
CONTINUOUS
10
91.5421
20
-90.4139
11
91.5909
21
-90.3409
0
LINE
8
BLACK
6
CONTINUOUS
10
91.5909
20
-90.3409
11
91.6639
21
-90.2921
0
LINE
8
BLACK
6
CONTINUOUS
10
91.6639
20
-90.2921
11
91.75
21
-90.275
0
LINE
8
BLACK
6
CONTINUOUS
10
91.75
20
-90.275
11
92.25
21
-90.275
0
LINE
8
BLACK
6
CONTINUOUS
10
92.25
20
-90.275
11
92.3361
21
-90.2921
0
LINE
8
BLACK
6
CONTINUOUS
10
97.3361
20
-90.2671
11
97.4091
21
-90.3159
0
LINE
8
BLACK
6
CONTINUOUS
10
97.4091
20
-90.3159
11
97.4579
21
-90.3889
0
LINE
8
BLACK
6
CONTINUOUS
10
97.4579
20
-90.3889
11
97.475
21
-90.475
0
LINE
8
BLACK
6
CONTINUOUS
10
97.475
20
-90.475
11
97.475
21
-90.925
0
LINE
8
BLACK
6
CONTINUOUS
10
97.475
20
-90.925
11
97.4579
21
-91.0111
0
LINE
8
BLACK
6
CONTINUOUS
10
97.4579
20
-91.0111
11
97.4091
21
-91.0841
0
LINE
8
BLACK
6
CONTINUOUS
10
97.4091
20
-91.0841
11
97.3361
21
-91.1329
0
LINE
8
BLACK
6
CONTINUOUS
10
97.3361
20
-91.1329
11
97.25
21
-91.15
0
LINE
8
BLACK
6
CONTINUOUS
10
97.25
20
-91.15
11
96.75
21
-91.15
0
LINE
8
BLACK
6
CONTINUOUS
10
96.75
20
-91.15
11
96.6639
21
-91.1329
0
LINE
8
BLACK
6
CONTINUOUS
10
96.6639
20
-91.1329
11
96.5909
21
-91.0841
0
LINE
8
BLACK
6
CONTINUOUS
10
96.5909
20
-91.0841
11
96.5421
21
-91.0111
0
LINE
8
BLACK
6
CONTINUOUS
10
96.5421
20
-91.0111
11
96.525
21
-90.925
0
LINE
8
BLACK
6
CONTINUOUS
10
96.525
20
-90.925
11
96.525
21
-90.475
0
LINE
8
BLACK
6
CONTINUOUS
10
96.525
20
-90.475
11
96.5421
21
-90.3889
0
LINE
8
BLACK
6
CONTINUOUS
10
96.5421
20
-90.3889
11
96.5909
21
-90.3159
0
LINE
8
BLACK
6
CONTINUOUS
10
96.5909
20
-90.3159
11
96.6639
21
-90.2671
0
LINE
8
BLACK
6
CONTINUOUS
10
96.6639
20
-90.2671
11
96.75
21
-90.25
0
LINE
8
BLACK
6
CONTINUOUS
10
96.75
20
-90.25
11
97.25
21
-90.25
0
LINE
8
BLACK
6
CONTINUOUS
10
97.25
20
-90.25
11
97.3361
21
-90.2671
0
LINE
8
BLACK
6
CONTINUOUS
10
102.086
20
-88.7671
11
102.159
21
-88.8159
0
LINE
8
BLACK
6
CONTINUOUS
10
102.159
20
-88.8159
11
102.208
21
-88.8889
0
LINE
8
BLACK
6
CONTINUOUS
10
102.208
20
-88.8889
11
102.225
21
-88.975
0
LINE
8
BLACK
6
CONTINUOUS
10
102.225
20
-88.975
11
102.225
21
-89.425
0
LINE
8
BLACK
6
CONTINUOUS
10
102.225
20
-89.425
11
102.208
21
-89.5111
0
LINE
8
BLACK
6
CONTINUOUS
10
102.208
20
-89.5111
11
102.159
21
-89.5841
0
LINE
8
BLACK
6
CONTINUOUS
10
102.159
20
-89.5841
11
102.086
21
-89.6329
0
LINE
8
BLACK
6
CONTINUOUS
10
102.086
20
-89.6329
11
102
21
-89.65
0
LINE
8
BLACK
6
CONTINUOUS
10
102
20
-89.65
11
101.5
21
-89.65
0
LINE
8
BLACK
6
CONTINUOUS
10
101.5
20
-89.65
11
101.414
21
-89.6329
0
LINE
8
BLACK
6
CONTINUOUS
10
101.414
20
-89.6329
11
101.341
21
-89.5841
0
LINE
8
BLACK
6
CONTINUOUS
10
101.341
20
-89.5841
11
101.292
21
-89.5111
0
LINE
8
BLACK
6
CONTINUOUS
10
101.292
20
-89.5111
11
101.275
21
-89.425
0
LINE
8
BLACK
6
CONTINUOUS
10
101.275
20
-89.425
11
101.275
21
-88.975
0
LINE
8
BLACK
6
CONTINUOUS
10
101.275
20
-88.975
11
101.292
21
-88.8889
0
LINE
8
BLACK
6
CONTINUOUS
10
101.292
20
-88.8889
11
101.341
21
-88.8159
0
LINE
8
BLACK
6
CONTINUOUS
10
101.341
20
-88.8159
11
101.414
21
-88.7671
0
LINE
8
BLACK
6
CONTINUOUS
10
101.414
20
-88.7671
11
101.5
21
-88.75
0
LINE
8
BLACK
6
CONTINUOUS
10
101.5
20
-88.75
11
102
21
-88.75
0
LINE
8
BLACK
6
CONTINUOUS
10
102
20
-88.75
11
102.086
21
-88.7671
0
LINE
8
BLACK
6
CONTINUOUS
10
92.7883
20
-88.2826
11
92.8207
21
-88.3043
0
LINE
8
BLACK
6
CONTINUOUS
10
92.8207
20
-88.3043
11
92.8424
21
-88.3367
0
LINE
8
BLACK
6
CONTINUOUS
10
92.8424
20
-88.3367
11
92.85
21
-88.375
0
LINE
8
BLACK
6
CONTINUOUS
10
92.85
20
-88.375
11
92.85
21
-88.575
0
LINE
8
BLACK
6
CONTINUOUS
10
92.85
20
-88.575
11
92.8424
21
-88.6133
0
LINE
8
BLACK
6
CONTINUOUS
10
92.8424
20
-88.6133
11
92.8207
21
-88.6457
0
LINE
8
BLACK
6
CONTINUOUS
10
92.8207
20
-88.6457
11
92.7883
21
-88.6674
0
LINE
8
BLACK
6
CONTINUOUS
10
92.7883
20
-88.6674
11
92.75
21
-88.675
0
LINE
8
BLACK
6
CONTINUOUS
10
92.75
20
-88.675
11
91.475
21
-88.675
0
LINE
8
BLACK
6
CONTINUOUS
10
91.475
20
-88.675
11
91.4367
21
-88.6674
0
LINE
8
BLACK
6
CONTINUOUS
10
91.4367
20
-88.6674
11
91.4043
21
-88.6457
0
LINE
8
BLACK
6
CONTINUOUS
10
91.4043
20
-88.6457
11
91.3826
21
-88.6133
0
LINE
8
BLACK
6
CONTINUOUS
10
91.3826
20
-88.6133
11
91.375
21
-88.575
0
LINE
8
BLACK
6
CONTINUOUS
10
91.375
20
-88.575
11
91.375
21
-88.375
0
LINE
8
BLACK
6
CONTINUOUS
10
91.375
20
-88.375
11
91.3826
21
-88.3367
0
LINE
8
BLACK
6
CONTINUOUS
10
91.3826
20
-88.3367
11
91.4043
21
-88.3043
0
LINE
8
BLACK
6
CONTINUOUS
10
91.4043
20
-88.3043
11
91.4367
21
-88.2826
0
LINE
8
BLACK
6
CONTINUOUS
10
91.4367
20
-88.2826
11
91.475
21
-88.275
0
LINE
8
BLACK
6
CONTINUOUS
10
91.475
20
-88.275
11
92.75
21
-88.275
0
LINE
8
BLACK
6
CONTINUOUS
10
92.75
20
-88.275
11
92.7883
21
-88.2826
0
LINE
8
BLACK
6
CONTINUOUS
10
87.0633
20
-88.2826
11
87.0957
21
-88.3043
0
LINE
8
BLACK
6
CONTINUOUS
10
87.0957
20
-88.3043
11
87.1174
21
-88.3367
0
LINE
8
BLACK
6
CONTINUOUS
10
87.1174
20
-88.3367
11
87.125
21
-88.375
0
LINE
8
BLACK
6
CONTINUOUS
10
87.125
20
-88.375
11
87.125
21
-88.575
0
LINE
8
BLACK
6
CONTINUOUS
10
87.125
20
-88.575
11
87.1174
21
-88.6133
0
LINE
8
BLACK
6
CONTINUOUS
10
87.1174
20
-88.6133
11
87.0957
21
-88.6457
0
LINE
8
BLACK
6
CONTINUOUS
10
87.0957
20
-88.6457
11
87.0633
21
-88.6674
0
LINE
8
BLACK
6
CONTINUOUS
10
87.0633
20
-88.6674
11
87.025
21
-88.675
0
LINE
8
BLACK
6
CONTINUOUS
10
87.025
20
-88.675
11
85.75
21
-88.675
0
LINE
8
BLACK
6
CONTINUOUS
10
85.75
20
-88.675
11
85.7117
21
-88.6674
0
LINE
8
BLACK
6
CONTINUOUS
10
85.7117
20
-88.6674
11
85.6793
21
-88.6457
0
LINE
8
BLACK
6
CONTINUOUS
10
85.6793
20
-88.6457
11
85.6576
21
-88.6133
0
LINE
8
BLACK
6
CONTINUOUS
10
85.6576
20
-88.6133
11
85.65
21
-88.575
0
LINE
8
BLACK
6
CONTINUOUS
10
85.65
20
-88.575
11
85.65
21
-88.375
0
LINE
8
BLACK
6
CONTINUOUS
10
85.65
20
-88.375
11
85.6576
21
-88.3367
0
LINE
8
BLACK
6
CONTINUOUS
10
85.6576
20
-88.3367
11
85.6793
21
-88.3043
0
LINE
8
BLACK
6
CONTINUOUS
10
85.6793
20
-88.3043
11
85.7117
21
-88.2826
0
LINE
8
BLACK
6
CONTINUOUS
10
85.7117
20
-88.2826
11
85.75
21
-88.275
0
LINE
8
BLACK
6
CONTINUOUS
10
85.75
20
-88.275
11
87.025
21
-88.275
0
LINE
8
BLACK
6
CONTINUOUS
10
87.025
20
-88.275
11
87.0633
21
-88.2826
0
LINE
8
BLACK
6
CONTINUOUS
10
87.0633
20
-87.6326
11
87.0957
21
-87.6543
0
LINE
8
BLACK
6
CONTINUOUS
10
87.0957
20
-87.6543
11
87.1174
21
-87.6867
0
LINE
8
BLACK
6
CONTINUOUS
10
87.1174
20
-87.6867
11
87.125
21
-87.725
0
LINE
8
BLACK
6
CONTINUOUS
10
87.125
20
-87.725
11
87.125
21
-87.925
0
LINE
8
BLACK
6
CONTINUOUS
10
87.125
20
-87.925
11
87.1174
21
-87.9633
0
LINE
8
BLACK
6
CONTINUOUS
10
87.1174
20
-87.9633
11
87.0957
21
-87.9957
0
LINE
8
BLACK
6
CONTINUOUS
10
87.0957
20
-87.9957
11
87.0633
21
-88.0174
0
LINE
8
BLACK
6
CONTINUOUS
10
87.0633
20
-88.0174
11
87.025
21
-88.025
0
LINE
8
BLACK
6
CONTINUOUS
10
87.025
20
-88.025
11
85.75
21
-88.025
0
LINE
8
BLACK
6
CONTINUOUS
10
85.75
20
-88.025
11
85.7117
21
-88.0174
0
LINE
8
BLACK
6
CONTINUOUS
10
85.7117
20
-88.0174
11
85.6793
21
-87.9957
0
LINE
8
BLACK
6
CONTINUOUS
10
85.6793
20
-87.9957
11
85.6576
21
-87.9633
0
LINE
8
BLACK
6
CONTINUOUS
10
85.6576
20
-87.9633
11
85.65
21
-87.925
0
LINE
8
BLACK
6
CONTINUOUS
10
85.65
20
-87.925
11
85.65
21
-87.725
0
LINE
8
BLACK
6
CONTINUOUS
10
85.65
20
-87.725
11
85.6576
21
-87.6867
0
LINE
8
BLACK
6
CONTINUOUS
10
85.6576
20
-87.6867
11
85.6793
21
-87.6543
0
LINE
8
BLACK
6
CONTINUOUS
10
85.6793
20
-87.6543
11
85.7117
21
-87.6326
0
LINE
8
BLACK
6
CONTINUOUS
10
85.7117
20
-87.6326
11
85.75
21
-87.625
0
LINE
8
BLACK
6
CONTINUOUS
10
85.75
20
-87.625
11
87.025
21
-87.625
0
LINE
8
BLACK
6
CONTINUOUS
10
87.025
20
-87.625
11
87.0633
21
-87.6326
0
LINE
8
BLACK
6
CONTINUOUS
10
92.7883
20
-87.6326
11
92.8207
21
-87.6543
0
LINE
8
BLACK
6
CONTINUOUS
10
92.8207
20
-87.6543
11
92.8424
21
-87.6867
0
LINE
8
BLACK
6
CONTINUOUS
10
92.8424
20
-87.6867
11
92.85
21
-87.725
0
LINE
8
BLACK
6
CONTINUOUS
10
92.85
20
-87.725
11
92.85
21
-87.925
0
LINE
8
BLACK
6
CONTINUOUS
10
92.85
20
-87.925
11
92.8424
21
-87.9633
0
LINE
8
BLACK
6
CONTINUOUS
10
92.8424
20
-87.9633
11
92.8207
21
-87.9957
0
LINE
8
BLACK
6
CONTINUOUS
10
92.8207
20
-87.9957
11
92.7883
21
-88.0174
0
LINE
8
BLACK
6
CONTINUOUS
10
92.7883
20
-88.0174
11
92.75
21
-88.025
0
LINE
8
BLACK
6
CONTINUOUS
10
92.75
20
-88.025
11
91.475
21
-88.025
0
LINE
8
BLACK
6
CONTINUOUS
10
91.475
20
-88.025
11
91.4367
21
-88.0174
0
LINE
8
BLACK
6
CONTINUOUS
10
91.4367
20
-88.0174
11
91.4043
21
-87.9957
0
LINE
8
BLACK
6
CONTINUOUS
10
91.4043
20
-87.9957
11
91.3826
21
-87.9633
0
LINE
8
BLACK
6
CONTINUOUS
10
91.3826
20
-87.9633
11
91.375
21
-87.925
0
LINE
8
BLACK
6
CONTINUOUS
10
91.375
20
-87.925
11
91.375
21
-87.725
0
LINE
8
BLACK
6
CONTINUOUS
10
91.375
20
-87.725
11
91.3826
21
-87.6867
0
LINE
8
BLACK
6
CONTINUOUS
10
91.3826
20
-87.6867
11
91.4043
21
-87.6543
0
LINE
8
BLACK
6
CONTINUOUS
10
91.4043
20
-87.6543
11
91.4367
21
-87.6326
0
LINE
8
BLACK
6
CONTINUOUS
10
91.4367
20
-87.6326
11
91.475
21
-87.625
0
LINE
8
BLACK
6
CONTINUOUS
10
91.475
20
-87.625
11
92.75
21
-87.625
0
LINE
8
BLACK
6
CONTINUOUS
10
92.75
20
-87.625
11
92.7883
21
-87.6326
0
LINE
8
BLACK
6
CONTINUOUS
10
81.0457
20
-86.219
11
81.1268
21
-86.2732
0
LINE
8
BLACK
6
CONTINUOUS
10
81.1268
20
-86.2732
11
81.181
21
-86.3543
0
LINE
8
BLACK
6
CONTINUOUS
10
81.181
20
-86.3543
11
81.2
21
-86.45
0
LINE
8
BLACK
6
CONTINUOUS
10
81.2
20
-86.45
11
81.2
21
-87.15
0
LINE
8
BLACK
6
CONTINUOUS
10
81.2
20
-87.15
11
81.181
21
-87.2457
0
LINE
8
BLACK
6
CONTINUOUS
10
81.181
20
-87.2457
11
81.1268
21
-87.3268
0
LINE
8
BLACK
6
CONTINUOUS
10
81.1268
20
-87.3268
11
81.0457
21
-87.381
0
LINE
8
BLACK
6
CONTINUOUS
10
81.0457
20
-87.381
11
80.95
21
-87.4
0
LINE
8
BLACK
6
CONTINUOUS
10
80.95
20
-87.4
11
79.65
21
-87.4
0
LINE
8
BLACK
6
CONTINUOUS
10
79.65
20
-87.4
11
79.5543
21
-87.381
0
LINE
8
BLACK
6
CONTINUOUS
10
79.5543
20
-87.381
11
79.4732
21
-87.3268
0
LINE
8
BLACK
6
CONTINUOUS
10
79.4732
20
-87.3268
11
79.419
21
-87.2457
0
LINE
8
BLACK
6
CONTINUOUS
10
79.419
20
-87.2457
11
79.4
21
-87.15
0
LINE
8
BLACK
6
CONTINUOUS
10
79.4
20
-87.15
11
79.4
21
-86.45
0
LINE
8
BLACK
6
CONTINUOUS
10
79.4
20
-86.45
11
79.419
21
-86.3543
0
LINE
8
BLACK
6
CONTINUOUS
10
79.419
20
-86.3543
11
79.4732
21
-86.2732
0
LINE
8
BLACK
6
CONTINUOUS
10
79.4732
20
-86.2732
11
79.5543
21
-86.219
0
LINE
8
BLACK
6
CONTINUOUS
10
79.5543
20
-86.219
11
79.65
21
-86.2
0
LINE
8
BLACK
6
CONTINUOUS
10
79.65
20
-86.2
11
80.95
21
-86.2
0
LINE
8
BLACK
6
CONTINUOUS
10
80.95
20
-86.2
11
81.0457
21
-86.219
0
LINE
8
BLACK
6
CONTINUOUS
10
92.7883
20
-86.9826
11
92.8207
21
-87.0043
0
LINE
8
BLACK
6
CONTINUOUS
10
92.8207
20
-87.0043
11
92.8424
21
-87.0367
0
LINE
8
BLACK
6
CONTINUOUS
10
92.8424
20
-87.0367
11
92.85
21
-87.075
0
LINE
8
BLACK
6
CONTINUOUS
10
92.85
20
-87.075
11
92.85
21
-87.275
0
LINE
8
BLACK
6
CONTINUOUS
10
92.85
20
-87.275
11
92.8424
21
-87.3133
0
LINE
8
BLACK
6
CONTINUOUS
10
92.8424
20
-87.3133
11
92.8207
21
-87.3457
0
LINE
8
BLACK
6
CONTINUOUS
10
92.8207
20
-87.3457
11
92.7883
21
-87.3674
0
LINE
8
BLACK
6
CONTINUOUS
10
92.7883
20
-87.3674
11
92.75
21
-87.375
0
LINE
8
BLACK
6
CONTINUOUS
10
92.75
20
-87.375
11
91.475
21
-87.375
0
LINE
8
BLACK
6
CONTINUOUS
10
91.475
20
-87.375
11
91.4367
21
-87.3674
0
LINE
8
BLACK
6
CONTINUOUS
10
91.4367
20
-87.3674
11
91.4043
21
-87.3457
0
LINE
8
BLACK
6
CONTINUOUS
10
91.4043
20
-87.3457
11
91.3826
21
-87.3133
0
LINE
8
BLACK
6
CONTINUOUS
10
91.3826
20
-87.3133
11
91.375
21
-87.275
0
LINE
8
BLACK
6
CONTINUOUS
10
91.375
20
-87.275
11
91.375
21
-87.075
0
LINE
8
BLACK
6
CONTINUOUS
10
91.375
20
-87.075
11
91.3826
21
-87.0367
0
LINE
8
BLACK
6
CONTINUOUS
10
91.3826
20
-87.0367
11
91.4043
21
-87.0043
0
LINE
8
BLACK
6
CONTINUOUS
10
91.4043
20
-87.0043
11
91.4367
21
-86.9826
0
LINE
8
BLACK
6
CONTINUOUS
10
91.4367
20
-86.9826
11
91.475
21
-86.975
0
LINE
8
BLACK
6
CONTINUOUS
10
91.475
20
-86.975
11
92.75
21
-86.975
0
LINE
8
BLACK
6
CONTINUOUS
10
92.75
20
-86.975
11
92.7883
21
-86.9826
0
LINE
8
BLACK
6
CONTINUOUS
10
87.0633
20
-86.9826
11
87.0957
21
-87.0043
0
LINE
8
BLACK
6
CONTINUOUS
10
87.0957
20
-87.0043
11
87.1174
21
-87.0367
0
LINE
8
BLACK
6
CONTINUOUS
10
87.1174
20
-87.0367
11
87.125
21
-87.075
0
LINE
8
BLACK
6
CONTINUOUS
10
87.125
20
-87.075
11
87.125
21
-87.275
0
LINE
8
BLACK
6
CONTINUOUS
10
87.125
20
-87.275
11
87.1174
21
-87.3133
0
LINE
8
BLACK
6
CONTINUOUS
10
87.1174
20
-87.3133
11
87.0957
21
-87.3457
0
LINE
8
BLACK
6
CONTINUOUS
10
87.0957
20
-87.3457
11
87.0633
21
-87.3674
0
LINE
8
BLACK
6
CONTINUOUS
10
87.0633
20
-87.3674
11
87.025
21
-87.375
0
LINE
8
BLACK
6
CONTINUOUS
10
87.025
20
-87.375
11
85.75
21
-87.375
0
LINE
8
BLACK
6
CONTINUOUS
10
85.75
20
-87.375
11
85.7117
21
-87.3674
0
LINE
8
BLACK
6
CONTINUOUS
10
85.7117
20
-87.3674
11
85.6793
21
-87.3457
0
LINE
8
BLACK
6
CONTINUOUS
10
85.6793
20
-87.3457
11
85.6576
21
-87.3133
0
LINE
8
BLACK
6
CONTINUOUS
10
85.6576
20
-87.3133
11
85.65
21
-87.275
0
LINE
8
BLACK
6
CONTINUOUS
10
85.65
20
-87.275
11
85.65
21
-87.075
0
LINE
8
BLACK
6
CONTINUOUS
10
85.65
20
-87.075
11
85.6576
21
-87.0367
0
LINE
8
BLACK
6
CONTINUOUS
10
85.6576
20
-87.0367
11
85.6793
21
-87.0043
0
LINE
8
BLACK
6
CONTINUOUS
10
85.6793
20
-87.0043
11
85.7117
21
-86.9826
0
LINE
8
BLACK
6
CONTINUOUS
10
85.7117
20
-86.9826
11
85.75
21
-86.975
0
LINE
8
BLACK
6
CONTINUOUS
10
85.75
20
-86.975
11
87.025
21
-86.975
0
LINE
8
BLACK
6
CONTINUOUS
10
87.025
20
-86.975
11
87.0633
21
-86.9826
0
LINE
8
BLACK
6
CONTINUOUS
10
101.852
20
-86.4402
11
101.916
21
-86.4836
0
LINE
8
BLACK
6
CONTINUOUS
10
101.916
20
-86.4836
11
101.96
21
-86.5485
0
LINE
8
BLACK
6
CONTINUOUS
10
101.96
20
-86.5485
11
101.975
21
-86.625
0
LINE
8
BLACK
6
CONTINUOUS
10
101.975
20
-86.625
11
101.975
21
-87.025
0
LINE
8
BLACK
6
CONTINUOUS
10
101.975
20
-87.025
11
101.96
21
-87.1015
0
LINE
8
BLACK
6
CONTINUOUS
10
101.96
20
-87.1015
11
101.916
21
-87.1664
0
LINE
8
BLACK
6
CONTINUOUS
10
101.916
20
-87.1664
11
101.852
21
-87.2098
0
LINE
8
BLACK
6
CONTINUOUS
10
101.852
20
-87.2098
11
101.775
21
-87.225
0
LINE
8
BLACK
6
CONTINUOUS
10
101.775
20
-87.225
11
101.225
21
-87.225
0
LINE
8
BLACK
6
CONTINUOUS
10
101.225
20
-87.225
11
101.148
21
-87.2098
0
LINE
8
BLACK
6
CONTINUOUS
10
101.148
20
-87.2098
11
101.084
21
-87.1664
0
LINE
8
BLACK
6
CONTINUOUS
10
101.084
20
-87.1664
11
101.04
21
-87.1015
0
LINE
8
BLACK
6
CONTINUOUS
10
101.04
20
-87.1015
11
101.025
21
-87.025
0
LINE
8
BLACK
6
CONTINUOUS
10
101.025
20
-87.025
11
101.025
21
-86.625
0
LINE
8
BLACK
6
CONTINUOUS
10
101.025
20
-86.625
11
101.04
21
-86.5485
0
LINE
8
BLACK
6
CONTINUOUS
10
101.04
20
-86.5485
11
101.084
21
-86.4836
0
LINE
8
BLACK
6
CONTINUOUS
10
101.084
20
-86.4836
11
101.148
21
-86.4402
0
LINE
8
BLACK
6
CONTINUOUS
10
101.148
20
-86.4402
11
101.225
21
-86.425
0
LINE
8
BLACK
6
CONTINUOUS
10
101.225
20
-86.425
11
101.775
21
-86.425
0
LINE
8
BLACK
6
CONTINUOUS
10
101.775
20
-86.425
11
101.852
21
-86.4402
0
LINE
8
BLACK
6
CONTINUOUS
10
98.4111
20
-85.7921
11
98.4841
21
-85.8409
0
LINE
8
BLACK
6
CONTINUOUS
10
98.4841
20
-85.8409
11
98.5329
21
-85.9139
0
LINE
8
BLACK
6
CONTINUOUS
10
98.5329
20
-85.9139
11
98.55
21
-86
0
LINE
8
BLACK
6
CONTINUOUS
10
98.55
20
-86
11
98.55
21
-86.5
0
LINE
8
BLACK
6
CONTINUOUS
10
98.55
20
-86.5
11
98.5329
21
-86.5861
0
LINE
8
BLACK
6
CONTINUOUS
10
98.5329
20
-86.5861
11
98.4841
21
-86.6591
0
LINE
8
BLACK
6
CONTINUOUS
10
98.4841
20
-86.6591
11
98.4111
21
-86.7079
0
LINE
8
BLACK
6
CONTINUOUS
10
98.4111
20
-86.7079
11
98.325
21
-86.725
0
LINE
8
BLACK
6
CONTINUOUS
10
98.325
20
-86.725
11
97.875
21
-86.725
0
LINE
8
BLACK
6
CONTINUOUS
10
97.875
20
-86.725
11
97.7889
21
-86.7079
0
LINE
8
BLACK
6
CONTINUOUS
10
97.7889
20
-86.7079
11
97.7159
21
-86.6591
0
LINE
8
BLACK
6
CONTINUOUS
10
97.7159
20
-86.6591
11
97.6671
21
-86.5861
0
LINE
8
BLACK
6
CONTINUOUS
10
97.6671
20
-86.5861
11
97.65
21
-86.5
0
LINE
8
BLACK
6
CONTINUOUS
10
97.65
20
-86.5
11
97.65
21
-86
0
LINE
8
BLACK
6
CONTINUOUS
10
97.65
20
-86
11
97.6671
21
-85.9139
0
LINE
8
BLACK
6
CONTINUOUS
10
97.6671
20
-85.9139
11
97.7159
21
-85.8409
0
LINE
8
BLACK
6
CONTINUOUS
10
97.7159
20
-85.8409
11
97.7889
21
-85.7921
0
LINE
8
BLACK
6
CONTINUOUS
10
97.7889
20
-85.7921
11
97.875
21
-85.775
0
LINE
8
BLACK
6
CONTINUOUS
10
97.875
20
-85.775
11
98.325
21
-85.775
0
LINE
8
BLACK
6
CONTINUOUS
10
98.325
20
-85.775
11
98.4111
21
-85.7921
0
LINE
8
BLACK
6
CONTINUOUS
10
96.4611
20
-85.7921
11
96.5341
21
-85.8409
0
LINE
8
BLACK
6
CONTINUOUS
10
96.5341
20
-85.8409
11
96.5829
21
-85.9139
0
LINE
8
BLACK
6
CONTINUOUS
10
96.5829
20
-85.9139
11
96.6
21
-86
0
LINE
8
BLACK
6
CONTINUOUS
10
96.6
20
-86
11
96.6
21
-86.5
0
LINE
8
BLACK
6
CONTINUOUS
10
96.6
20
-86.5
11
96.5829
21
-86.5861
0
LINE
8
BLACK
6
CONTINUOUS
10
96.5829
20
-86.5861
11
96.5341
21
-86.6591
0
LINE
8
BLACK
6
CONTINUOUS
10
96.5341
20
-86.6591
11
96.4611
21
-86.7079
0
LINE
8
BLACK
6
CONTINUOUS
10
96.4611
20
-86.7079
11
96.375
21
-86.725
0
LINE
8
BLACK
6
CONTINUOUS
10
96.375
20
-86.725
11
95.925
21
-86.725
0
LINE
8
BLACK
6
CONTINUOUS
10
95.925
20
-86.725
11
95.8389
21
-86.7079
0
LINE
8
BLACK
6
CONTINUOUS
10
95.8389
20
-86.7079
11
95.7659
21
-86.6591
0
LINE
8
BLACK
6
CONTINUOUS
10
95.7659
20
-86.6591
11
95.7171
21
-86.5861
0
LINE
8
BLACK
6
CONTINUOUS
10
95.7171
20
-86.5861
11
95.7
21
-86.5
0
LINE
8
BLACK
6
CONTINUOUS
10
95.7
20
-86.5
11
95.7
21
-86
0
LINE
8
BLACK
6
CONTINUOUS
10
95.7
20
-86
11
95.7171
21
-85.9139
0
LINE
8
BLACK
6
CONTINUOUS
10
95.7171
20
-85.9139
11
95.7659
21
-85.8409
0
LINE
8
BLACK
6
CONTINUOUS
10
95.7659
20
-85.8409
11
95.8389
21
-85.7921
0
LINE
8
BLACK
6
CONTINUOUS
10
95.8389
20
-85.7921
11
95.925
21
-85.775
0
LINE
8
BLACK
6
CONTINUOUS
10
95.925
20
-85.775
11
96.375
21
-85.775
0
LINE
8
BLACK
6
CONTINUOUS
10
96.375
20
-85.775
11
96.4611
21
-85.7921
0
LINE
8
BLACK
6
CONTINUOUS
10
92.7883
20
-86.3326
11
92.8207
21
-86.3543
0
LINE
8
BLACK
6
CONTINUOUS
10
92.8207
20
-86.3543
11
92.8424
21
-86.3867
0
LINE
8
BLACK
6
CONTINUOUS
10
92.8424
20
-86.3867
11
92.85
21
-86.425
0
LINE
8
BLACK
6
CONTINUOUS
10
92.85
20
-86.425
11
92.85
21
-86.625
0
LINE
8
BLACK
6
CONTINUOUS
10
92.85
20
-86.625
11
92.8424
21
-86.6633
0
LINE
8
BLACK
6
CONTINUOUS
10
92.8424
20
-86.6633
11
92.8207
21
-86.6957
0
LINE
8
BLACK
6
CONTINUOUS
10
92.8207
20
-86.6957
11
92.7883
21
-86.7174
0
LINE
8
BLACK
6
CONTINUOUS
10
92.7883
20
-86.7174
11
92.75
21
-86.725
0
LINE
8
BLACK
6
CONTINUOUS
10
92.75
20
-86.725
11
91.475
21
-86.725
0
LINE
8
BLACK
6
CONTINUOUS
10
91.475
20
-86.725
11
91.4367
21
-86.7174
0
LINE
8
BLACK
6
CONTINUOUS
10
91.4367
20
-86.7174
11
91.4043
21
-86.6957
0
LINE
8
BLACK
6
CONTINUOUS
10
91.4043
20
-86.6957
11
91.3826
21
-86.6633
0
LINE
8
BLACK
6
CONTINUOUS
10
91.3826
20
-86.6633
11
91.375
21
-86.625
0
LINE
8
BLACK
6
CONTINUOUS
10
91.375
20
-86.625
11
91.375
21
-86.425
0
LINE
8
BLACK
6
CONTINUOUS
10
91.375
20
-86.425
11
91.3826
21
-86.3867
0
LINE
8
BLACK
6
CONTINUOUS
10
91.3826
20
-86.3867
11
91.4043
21
-86.3543
0
LINE
8
BLACK
6
CONTINUOUS
10
91.4043
20
-86.3543
11
91.4367
21
-86.3326
0
LINE
8
BLACK
6
CONTINUOUS
10
91.4367
20
-86.3326
11
91.475
21
-86.325
0
LINE
8
BLACK
6
CONTINUOUS
10
91.475
20
-86.325
11
92.75
21
-86.325
0
LINE
8
BLACK
6
CONTINUOUS
10
92.75
20
-86.325
11
92.7883
21
-86.3326
0
LINE
8
BLACK
6
CONTINUOUS
10
94.9111
20
-85.7921
11
94.9841
21
-85.8409
0
LINE
8
BLACK
6
CONTINUOUS
10
94.9841
20
-85.8409
11
95.0329
21
-85.9139
0
LINE
8
BLACK
6
CONTINUOUS
10
95.0329
20
-85.9139
11
95.05
21
-86
0
LINE
8
BLACK
6
CONTINUOUS
10
95.05
20
-86
11
95.05
21
-86.5
0
LINE
8
BLACK
6
CONTINUOUS
10
95.05
20
-86.5
11
95.0329
21
-86.5861
0
LINE
8
BLACK
6
CONTINUOUS
10
95.0329
20
-86.5861
11
94.9841
21
-86.6591
0
LINE
8
BLACK
6
CONTINUOUS
10
94.9841
20
-86.6591
11
94.9111
21
-86.7079
0
LINE
8
BLACK
6
CONTINUOUS
10
94.9111
20
-86.7079
11
94.825
21
-86.725
0
LINE
8
BLACK
6
CONTINUOUS
10
94.825
20
-86.725
11
94.375
21
-86.725
0
LINE
8
BLACK
6
CONTINUOUS
10
94.375
20
-86.725
11
94.2889
21
-86.7079
0
LINE
8
BLACK
6
CONTINUOUS
10
94.2889
20
-86.7079
11
94.2159
21
-86.6591
0
LINE
8
BLACK
6
CONTINUOUS
10
94.2159
20
-86.6591
11
94.1671
21
-86.5861
0
LINE
8
BLACK
6
CONTINUOUS
10
94.1671
20
-86.5861
11
94.15
21
-86.5
0
LINE
8
BLACK
6
CONTINUOUS
10
94.15
20
-86.5
11
94.15
21
-86
0
LINE
8
BLACK
6
CONTINUOUS
10
94.15
20
-86
11
94.1671
21
-85.9139
0
LINE
8
BLACK
6
CONTINUOUS
10
94.1671
20
-85.9139
11
94.2159
21
-85.8409
0
LINE
8
BLACK
6
CONTINUOUS
10
94.2159
20
-85.8409
11
94.2889
21
-85.7921
0
LINE
8
BLACK
6
CONTINUOUS
10
94.2889
20
-85.7921
11
94.375
21
-85.775
0
LINE
8
BLACK
6
CONTINUOUS
10
94.375
20
-85.775
11
94.825
21
-85.775
0
LINE
8
BLACK
6
CONTINUOUS
10
94.825
20
-85.775
11
94.9111
21
-85.7921
0
LINE
8
BLACK
6
CONTINUOUS
10
99.9611
20
-85.7921
11
100.034
21
-85.8409
0
LINE
8
BLACK
6
CONTINUOUS
10
100.034
20
-85.8409
11
100.083
21
-85.9139
0
LINE
8
BLACK
6
CONTINUOUS
10
100.083
20
-85.9139
11
100.1
21
-86
0
LINE
8
BLACK
6
CONTINUOUS
10
100.1
20
-86
11
100.1
21
-86.5
0
LINE
8
BLACK
6
CONTINUOUS
10
100.1
20
-86.5
11
100.083
21
-86.5861
0
LINE
8
BLACK
6
CONTINUOUS
10
100.083
20
-86.5861
11
100.034
21
-86.6591
0
LINE
8
BLACK
6
CONTINUOUS
10
100.034
20
-86.6591
11
99.9611
21
-86.7079
0
LINE
8
BLACK
6
CONTINUOUS
10
99.9611
20
-86.7079
11
99.875
21
-86.725
0
LINE
8
BLACK
6
CONTINUOUS
10
99.875
20
-86.725
11
99.425
21
-86.725
0
LINE
8
BLACK
6
CONTINUOUS
10
99.425
20
-86.725
11
99.3389
21
-86.7079
0
LINE
8
BLACK
6
CONTINUOUS
10
99.3389
20
-86.7079
11
99.2659
21
-86.6591
0
LINE
8
BLACK
6
CONTINUOUS
10
99.2659
20
-86.6591
11
99.2171
21
-86.5861
0
LINE
8
BLACK
6
CONTINUOUS
10
99.2171
20
-86.5861
11
99.2
21
-86.5
0
LINE
8
BLACK
6
CONTINUOUS
10
99.2
20
-86.5
11
99.2
21
-86
0
LINE
8
BLACK
6
CONTINUOUS
10
99.2
20
-86
11
99.2171
21
-85.9139
0
LINE
8
BLACK
6
CONTINUOUS
10
99.2171
20
-85.9139
11
99.2659
21
-85.8409
0
LINE
8
BLACK
6
CONTINUOUS
10
99.2659
20
-85.8409
11
99.3389
21
-85.7921
0
LINE
8
BLACK
6
CONTINUOUS
10
99.3389
20
-85.7921
11
99.425
21
-85.775
0
LINE
8
BLACK
6
CONTINUOUS
10
99.425
20
-85.775
11
99.875
21
-85.775
0
LINE
8
BLACK
6
CONTINUOUS
10
99.875
20
-85.775
11
99.9611
21
-85.7921
0
LINE
8
BLACK
6
CONTINUOUS
10
87.0633
20
-86.3326
11
87.0957
21
-86.3543
0
LINE
8
BLACK
6
CONTINUOUS
10
87.0957
20
-86.3543
11
87.1174
21
-86.3867
0
LINE
8
BLACK
6
CONTINUOUS
10
87.1174
20
-86.3867
11
87.125
21
-86.425
0
LINE
8
BLACK
6
CONTINUOUS
10
87.125
20
-86.425
11
87.125
21
-86.625
0
LINE
8
BLACK
6
CONTINUOUS
10
87.125
20
-86.625
11
87.1174
21
-86.6633
0
LINE
8
BLACK
6
CONTINUOUS
10
87.1174
20
-86.6633
11
87.0957
21
-86.6957
0
LINE
8
BLACK
6
CONTINUOUS
10
87.0957
20
-86.6957
11
87.0633
21
-86.7174
0
LINE
8
BLACK
6
CONTINUOUS
10
87.0633
20
-86.7174
11
87.025
21
-86.725
0
LINE
8
BLACK
6
CONTINUOUS
10
87.025
20
-86.725
11
85.75
21
-86.725
0
LINE
8
BLACK
6
CONTINUOUS
10
85.75
20
-86.725
11
85.7117
21
-86.7174
0
LINE
8
BLACK
6
CONTINUOUS
10
85.7117
20
-86.7174
11
85.6793
21
-86.6957
0
LINE
8
BLACK
6
CONTINUOUS
10
85.6793
20
-86.6957
11
85.6576
21
-86.6633
0
LINE
8
BLACK
6
CONTINUOUS
10
85.6576
20
-86.6633
11
85.65
21
-86.625
0
LINE
8
BLACK
6
CONTINUOUS
10
85.65
20
-86.625
11
85.65
21
-86.425
0
LINE
8
BLACK
6
CONTINUOUS
10
85.65
20
-86.425
11
85.6576
21
-86.3867
0
LINE
8
BLACK
6
CONTINUOUS
10
85.6576
20
-86.3867
11
85.6793
21
-86.3543
0
LINE
8
BLACK
6
CONTINUOUS
10
85.6793
20
-86.3543
11
85.7117
21
-86.3326
0
LINE
8
BLACK
6
CONTINUOUS
10
85.7117
20
-86.3326
11
85.75
21
-86.325
0
LINE
8
BLACK
6
CONTINUOUS
10
85.75
20
-86.325
11
87.025
21
-86.325
0
LINE
8
BLACK
6
CONTINUOUS
10
87.025
20
-86.325
11
87.0633
21
-86.3326
0
LINE
8
BLACK
6
CONTINUOUS
10
92.7883
20
-85.6826
11
92.8207
21
-85.7043
0
LINE
8
BLACK
6
CONTINUOUS
10
92.8207
20
-85.7043
11
92.8424
21
-85.7367
0
LINE
8
BLACK
6
CONTINUOUS
10
92.8424
20
-85.7367
11
92.85
21
-85.775
0
LINE
8
BLACK
6
CONTINUOUS
10
92.85
20
-85.775
11
92.85
21
-85.975
0
LINE
8
BLACK
6
CONTINUOUS
10
92.85
20
-85.975
11
92.8424
21
-86.0133
0
LINE
8
BLACK
6
CONTINUOUS
10
92.8424
20
-86.0133
11
92.8207
21
-86.0457
0
LINE
8
BLACK
6
CONTINUOUS
10
92.8207
20
-86.0457
11
92.7883
21
-86.0674
0
LINE
8
BLACK
6
CONTINUOUS
10
92.7883
20
-86.0674
11
92.75
21
-86.075
0
LINE
8
BLACK
6
CONTINUOUS
10
92.75
20
-86.075
11
91.475
21
-86.075
0
LINE
8
BLACK
6
CONTINUOUS
10
91.475
20
-86.075
11
91.4367
21
-86.0674
0
LINE
8
BLACK
6
CONTINUOUS
10
91.4367
20
-86.0674
11
91.4043
21
-86.0457
0
LINE
8
BLACK
6
CONTINUOUS
10
91.4043
20
-86.0457
11
91.3826
21
-86.0133
0
LINE
8
BLACK
6
CONTINUOUS
10
91.3826
20
-86.0133
11
91.375
21
-85.975
0
LINE
8
BLACK
6
CONTINUOUS
10
91.375
20
-85.975
11
91.375
21
-85.775
0
LINE
8
BLACK
6
CONTINUOUS
10
91.375
20
-85.775
11
91.3826
21
-85.7367
0
LINE
8
BLACK
6
CONTINUOUS
10
91.3826
20
-85.7367
11
91.4043
21
-85.7043
0
LINE
8
BLACK
6
CONTINUOUS
10
91.4043
20
-85.7043
11
91.4367
21
-85.6826
0
LINE
8
BLACK
6
CONTINUOUS
10
91.4367
20
-85.6826
11
91.475
21
-85.675
0
LINE
8
BLACK
6
CONTINUOUS
10
91.475
20
-85.675
11
92.75
21
-85.675
0
LINE
8
BLACK
6
CONTINUOUS
10
92.75
20
-85.675
11
92.7883
21
-85.6826
0
LINE
8
BLACK
6
CONTINUOUS
10
87.0633
20
-85.6826
11
87.0957
21
-85.7043
0
LINE
8
BLACK
6
CONTINUOUS
10
87.0957
20
-85.7043
11
87.1174
21
-85.7367
0
LINE
8
BLACK
6
CONTINUOUS
10
87.1174
20
-85.7367
11
87.125
21
-85.775
0
LINE
8
BLACK
6
CONTINUOUS
10
87.125
20
-85.775
11
87.125
21
-85.975
0
LINE
8
BLACK
6
CONTINUOUS
10
87.125
20
-85.975
11
87.1174
21
-86.0133
0
LINE
8
BLACK
6
CONTINUOUS
10
87.1174
20
-86.0133
11
87.0957
21
-86.0457
0
LINE
8
BLACK
6
CONTINUOUS
10
87.0957
20
-86.0457
11
87.0633
21
-86.0674
0
LINE
8
BLACK
6
CONTINUOUS
10
87.0633
20
-86.0674
11
87.025
21
-86.075
0
LINE
8
BLACK
6
CONTINUOUS
10
87.025
20
-86.075
11
85.75
21
-86.075
0
LINE
8
BLACK
6
CONTINUOUS
10
85.75
20
-86.075
11
85.7117
21
-86.0674
0
LINE
8
BLACK
6
CONTINUOUS
10
85.7117
20
-86.0674
11
85.6793
21
-86.0457
0
LINE
8
BLACK
6
CONTINUOUS
10
85.6793
20
-86.0457
11
85.6576
21
-86.0133
0
LINE
8
BLACK
6
CONTINUOUS
10
85.6576
20
-86.0133
11
85.65
21
-85.975
0
LINE
8
BLACK
6
CONTINUOUS
10
85.65
20
-85.975
11
85.65
21
-85.775
0
LINE
8
BLACK
6
CONTINUOUS
10
85.65
20
-85.775
11
85.6576
21
-85.7367
0
LINE
8
BLACK
6
CONTINUOUS
10
85.6576
20
-85.7367
11
85.6793
21
-85.7043
0
LINE
8
BLACK
6
CONTINUOUS
10
85.6793
20
-85.7043
11
85.7117
21
-85.6826
0
LINE
8
BLACK
6
CONTINUOUS
10
85.7117
20
-85.6826
11
85.75
21
-85.675
0
LINE
8
BLACK
6
CONTINUOUS
10
85.75
20
-85.675
11
87.025
21
-85.675
0
LINE
8
BLACK
6
CONTINUOUS
10
87.025
20
-85.675
11
87.0633
21
-85.6826
0
LINE
8
BLACK
6
CONTINUOUS
10
83.5074
20
-85.2114
11
83.5561
21
-85.2439
0
LINE
8
BLACK
6
CONTINUOUS
10
83.5561
20
-85.2439
11
83.5886
21
-85.2926
0
LINE
8
BLACK
6
CONTINUOUS
10
83.5886
20
-85.2926
11
83.6
21
-85.35
0
LINE
8
BLACK
6
CONTINUOUS
10
83.6
20
-85.35
11
83.6
21
-85.65
0
LINE
8
BLACK
6
CONTINUOUS
10
83.6
20
-85.65
11
83.5886
21
-85.7074
0
LINE
8
BLACK
6
CONTINUOUS
10
83.5886
20
-85.7074
11
83.5561
21
-85.7561
0
LINE
8
BLACK
6
CONTINUOUS
10
83.5561
20
-85.7561
11
83.5074
21
-85.7886
0
LINE
8
BLACK
6
CONTINUOUS
10
83.5074
20
-85.7886
11
83.45
21
-85.8
0
LINE
8
BLACK
6
CONTINUOUS
10
83.45
20
-85.8
11
82.2
21
-85.8
0
LINE
8
BLACK
6
CONTINUOUS
10
82.2
20
-85.8
11
82.1426
21
-85.7886
0
LINE
8
BLACK
6
CONTINUOUS
10
82.1426
20
-85.7886
11
82.0939
21
-85.7561
0
LINE
8
BLACK
6
CONTINUOUS
10
82.0939
20
-85.7561
11
82.0614
21
-85.7074
0
LINE
8
BLACK
6
CONTINUOUS
10
82.0614
20
-85.7074
11
82.05
21
-85.65
0
LINE
8
BLACK
6
CONTINUOUS
10
82.05
20
-85.65
11
82.05
21
-85.35
0
LINE
8
BLACK
6
CONTINUOUS
10
82.05
20
-85.35
11
82.0614
21
-85.2926
0
LINE
8
BLACK
6
CONTINUOUS
10
82.0614
20
-85.2926
11
82.0939
21
-85.2439
0
LINE
8
BLACK
6
CONTINUOUS
10
82.0939
20
-85.2439
11
82.1426
21
-85.2114
0
LINE
8
BLACK
6
CONTINUOUS
10
82.1426
20
-85.2114
11
82.2
21
-85.2
0
LINE
8
BLACK
6
CONTINUOUS
10
82.2
20
-85.2
11
83.45
21
-85.2
0
LINE
8
BLACK
6
CONTINUOUS
10
83.45
20
-85.2
11
83.5074
21
-85.2114
0
LINE
8
BLACK
6
CONTINUOUS
10
101.852
20
-84.7902
11
101.916
21
-84.8336
0
LINE
8
BLACK
6
CONTINUOUS
10
101.916
20
-84.8336
11
101.96
21
-84.8985
0
LINE
8
BLACK
6
CONTINUOUS
10
101.96
20
-84.8985
11
101.975
21
-84.975
0
LINE
8
BLACK
6
CONTINUOUS
10
101.975
20
-84.975
11
101.975
21
-85.375
0
LINE
8
BLACK
6
CONTINUOUS
10
101.975
20
-85.375
11
101.96
21
-85.4515
0
LINE
8
BLACK
6
CONTINUOUS
10
101.96
20
-85.4515
11
101.916
21
-85.5164
0
LINE
8
BLACK
6
CONTINUOUS
10
101.916
20
-85.5164
11
101.852
21
-85.5598
0
LINE
8
BLACK
6
CONTINUOUS
10
101.852
20
-85.5598
11
101.775
21
-85.575
0
LINE
8
BLACK
6
CONTINUOUS
10
101.775
20
-85.575
11
101.225
21
-85.575
0
LINE
8
BLACK
6
CONTINUOUS
10
101.225
20
-85.575
11
101.148
21
-85.5598
0
LINE
8
BLACK
6
CONTINUOUS
10
101.148
20
-85.5598
11
101.084
21
-85.5164
0
LINE
8
BLACK
6
CONTINUOUS
10
101.084
20
-85.5164
11
101.04
21
-85.4515
0
LINE
8
BLACK
6
CONTINUOUS
10
101.04
20
-85.4515
11
101.025
21
-85.375
0
LINE
8
BLACK
6
CONTINUOUS
10
101.025
20
-85.375
11
101.025
21
-84.975
0
LINE
8
BLACK
6
CONTINUOUS
10
101.025
20
-84.975
11
101.04
21
-84.8985
0
LINE
8
BLACK
6
CONTINUOUS
10
101.04
20
-84.8985
11
101.084
21
-84.8336
0
LINE
8
BLACK
6
CONTINUOUS
10
101.084
20
-84.8336
11
101.148
21
-84.7902
0
LINE
8
BLACK
6
CONTINUOUS
10
101.148
20
-84.7902
11
101.225
21
-84.775
0
LINE
8
BLACK
6
CONTINUOUS
10
101.225
20
-84.775
11
101.775
21
-84.775
0
LINE
8
BLACK
6
CONTINUOUS
10
101.775
20
-84.775
11
101.852
21
-84.7902
0
LINE
8
BLACK
6
CONTINUOUS
10
92.7883
20
-85.0326
11
92.8207
21
-85.0543
0
LINE
8
BLACK
6
CONTINUOUS
10
92.8207
20
-85.0543
11
92.8424
21
-85.0867
0
LINE
8
BLACK
6
CONTINUOUS
10
92.8424
20
-85.0867
11
92.85
21
-85.125
0
LINE
8
BLACK
6
CONTINUOUS
10
92.85
20
-85.125
11
92.85
21
-85.325
0
LINE
8
BLACK
6
CONTINUOUS
10
92.85
20
-85.325
11
92.8424
21
-85.3633
0
LINE
8
BLACK
6
CONTINUOUS
10
92.8424
20
-85.3633
11
92.8207
21
-85.3957
0
LINE
8
BLACK
6
CONTINUOUS
10
92.8207
20
-85.3957
11
92.7883
21
-85.4174
0
LINE
8
BLACK
6
CONTINUOUS
10
92.7883
20
-85.4174
11
92.75
21
-85.425
0
LINE
8
BLACK
6
CONTINUOUS
10
92.75
20
-85.425
11
91.475
21
-85.425
0
LINE
8
BLACK
6
CONTINUOUS
10
91.475
20
-85.425
11
91.4367
21
-85.4174
0
LINE
8
BLACK
6
CONTINUOUS
10
91.4367
20
-85.4174
11
91.4043
21
-85.3957
0
LINE
8
BLACK
6
CONTINUOUS
10
91.4043
20
-85.3957
11
91.3826
21
-85.3633
0
LINE
8
BLACK
6
CONTINUOUS
10
91.3826
20
-85.3633
11
91.375
21
-85.325
0
LINE
8
BLACK
6
CONTINUOUS
10
91.375
20
-85.325
11
91.375
21
-85.125
0
LINE
8
BLACK
6
CONTINUOUS
10
91.375
20
-85.125
11
91.3826
21
-85.0867
0
LINE
8
BLACK
6
CONTINUOUS
10
91.3826
20
-85.0867
11
91.4043
21
-85.0543
0
LINE
8
BLACK
6
CONTINUOUS
10
91.4043
20
-85.0543
11
91.4367
21
-85.0326
0
LINE
8
BLACK
6
CONTINUOUS
10
91.4367
20
-85.0326
11
91.475
21
-85.025
0
LINE
8
BLACK
6
CONTINUOUS
10
91.475
20
-85.025
11
92.75
21
-85.025
0
LINE
8
BLACK
6
CONTINUOUS
10
92.75
20
-85.025
11
92.7883
21
-85.0326
0
LINE
8
BLACK
6
CONTINUOUS
10
87.0633
20
-85.0326
11
87.0957
21
-85.0543
0
LINE
8
BLACK
6
CONTINUOUS
10
87.0957
20
-85.0543
11
87.1174
21
-85.0867
0
LINE
8
BLACK
6
CONTINUOUS
10
87.1174
20
-85.0867
11
87.125
21
-85.125
0
LINE
8
BLACK
6
CONTINUOUS
10
87.125
20
-85.125
11
87.125
21
-85.325
0
LINE
8
BLACK
6
CONTINUOUS
10
87.125
20
-85.325
11
87.1174
21
-85.3633
0
LINE
8
BLACK
6
CONTINUOUS
10
87.1174
20
-85.3633
11
87.0957
21
-85.3957
0
LINE
8
BLACK
6
CONTINUOUS
10
87.0957
20
-85.3957
11
87.0633
21
-85.4174
0
LINE
8
BLACK
6
CONTINUOUS
10
87.0633
20
-85.4174
11
87.025
21
-85.425
0
LINE
8
BLACK
6
CONTINUOUS
10
87.025
20
-85.425
11
85.75
21
-85.425
0
LINE
8
BLACK
6
CONTINUOUS
10
85.75
20
-85.425
11
85.7117
21
-85.4174
0
LINE
8
BLACK
6
CONTINUOUS
10
85.7117
20
-85.4174
11
85.6793
21
-85.3957
0
LINE
8
BLACK
6
CONTINUOUS
10
85.6793
20
-85.3957
11
85.6576
21
-85.3633
0
LINE
8
BLACK
6
CONTINUOUS
10
85.6576
20
-85.3633
11
85.65
21
-85.325
0
LINE
8
BLACK
6
CONTINUOUS
10
85.65
20
-85.325
11
85.65
21
-85.125
0
LINE
8
BLACK
6
CONTINUOUS
10
85.65
20
-85.125
11
85.6576
21
-85.0867
0
LINE
8
BLACK
6
CONTINUOUS
10
85.6576
20
-85.0867
11
85.6793
21
-85.0543
0
LINE
8
BLACK
6
CONTINUOUS
10
85.6793
20
-85.0543
11
85.7117
21
-85.0326
0
LINE
8
BLACK
6
CONTINUOUS
10
85.7117
20
-85.0326
11
85.75
21
-85.025
0
LINE
8
BLACK
6
CONTINUOUS
10
85.75
20
-85.025
11
87.025
21
-85.025
0
LINE
8
BLACK
6
CONTINUOUS
10
87.025
20
-85.025
11
87.0633
21
-85.0326
0
LINE
8
BLACK
6
CONTINUOUS
10
83.5074
20
-84.2114
11
83.5561
21
-84.2439
0
LINE
8
BLACK
6
CONTINUOUS
10
83.5561
20
-84.2439
11
83.5886
21
-84.2926
0
LINE
8
BLACK
6
CONTINUOUS
10
83.5886
20
-84.2926
11
83.6
21
-84.35
0
LINE
8
BLACK
6
CONTINUOUS
10
83.6
20
-84.35
11
83.6
21
-84.65
0
LINE
8
BLACK
6
CONTINUOUS
10
83.6
20
-84.65
11
83.5886
21
-84.7074
0
LINE
8
BLACK
6
CONTINUOUS
10
83.5886
20
-84.7074
11
83.5561
21
-84.7561
0
LINE
8
BLACK
6
CONTINUOUS
10
83.5561
20
-84.7561
11
83.5074
21
-84.7886
0
LINE
8
BLACK
6
CONTINUOUS
10
83.5074
20
-84.7886
11
83.45
21
-84.8
0
LINE
8
BLACK
6
CONTINUOUS
10
83.45
20
-84.8
11
82.2
21
-84.8
0
LINE
8
BLACK
6
CONTINUOUS
10
82.2
20
-84.8
11
82.1426
21
-84.7886
0
LINE
8
BLACK
6
CONTINUOUS
10
82.1426
20
-84.7886
11
82.0939
21
-84.7561
0
LINE
8
BLACK
6
CONTINUOUS
10
82.0939
20
-84.7561
11
82.0614
21
-84.7074
0
LINE
8
BLACK
6
CONTINUOUS
10
82.0614
20
-84.7074
11
82.05
21
-84.65
0
LINE
8
BLACK
6
CONTINUOUS
10
82.05
20
-84.65
11
82.05
21
-84.35
0
LINE
8
BLACK
6
CONTINUOUS
10
82.05
20
-84.35
11
82.0614
21
-84.2926
0
LINE
8
BLACK
6
CONTINUOUS
10
82.0614
20
-84.2926
11
82.0939
21
-84.2439
0
LINE
8
BLACK
6
CONTINUOUS
10
82.0939
20
-84.2439
11
82.1426
21
-84.2114
0
LINE
8
BLACK
6
CONTINUOUS
10
82.1426
20
-84.2114
11
82.2
21
-84.2
0
LINE
8
BLACK
6
CONTINUOUS
10
82.2
20
-84.2
11
83.45
21
-84.2
0
LINE
8
BLACK
6
CONTINUOUS
10
83.45
20
-84.2
11
83.5074
21
-84.2114
0
LINE
8
BLACK
6
CONTINUOUS
10
87.0633
20
-84.3826
11
87.0957
21
-84.4043
0
LINE
8
BLACK
6
CONTINUOUS
10
87.0957
20
-84.4043
11
87.1174
21
-84.4367
0
LINE
8
BLACK
6
CONTINUOUS
10
87.1174
20
-84.4367
11
87.125
21
-84.475
0
LINE
8
BLACK
6
CONTINUOUS
10
87.125
20
-84.475
11
87.125
21
-84.675
0
LINE
8
BLACK
6
CONTINUOUS
10
87.125
20
-84.675
11
87.1174
21
-84.7133
0
LINE
8
BLACK
6
CONTINUOUS
10
87.1174
20
-84.7133
11
87.0957
21
-84.7457
0
LINE
8
BLACK
6
CONTINUOUS
10
87.0957
20
-84.7457
11
87.0633
21
-84.7674
0
LINE
8
BLACK
6
CONTINUOUS
10
87.0633
20
-84.7674
11
87.025
21
-84.775
0
LINE
8
BLACK
6
CONTINUOUS
10
87.025
20
-84.775
11
85.75
21
-84.775
0
LINE
8
BLACK
6
CONTINUOUS
10
85.75
20
-84.775
11
85.7117
21
-84.7674
0
LINE
8
BLACK
6
CONTINUOUS
10
85.7117
20
-84.7674
11
85.6793
21
-84.7457
0
LINE
8
BLACK
6
CONTINUOUS
10
85.6793
20
-84.7457
11
85.6576
21
-84.7133
0
LINE
8
BLACK
6
CONTINUOUS
10
85.6576
20
-84.7133
11
85.65
21
-84.675
0
LINE
8
BLACK
6
CONTINUOUS
10
85.65
20
-84.675
11
85.65
21
-84.475
0
LINE
8
BLACK
6
CONTINUOUS
10
85.65
20
-84.475
11
85.6576
21
-84.4367
0
LINE
8
BLACK
6
CONTINUOUS
10
85.6576
20
-84.4367
11
85.6793
21
-84.4043
0
LINE
8
BLACK
6
CONTINUOUS
10
85.6793
20
-84.4043
11
85.7117
21
-84.3826
0
LINE
8
BLACK
6
CONTINUOUS
10
85.7117
20
-84.3826
11
85.75
21
-84.375
0
LINE
8
BLACK
6
CONTINUOUS
10
85.75
20
-84.375
11
87.025
21
-84.375
0
LINE
8
BLACK
6
CONTINUOUS
10
87.025
20
-84.375
11
87.0633
21
-84.3826
0
LINE
8
BLACK
6
CONTINUOUS
10
92.7883
20
-84.3826
11
92.8207
21
-84.4043
0
LINE
8
BLACK
6
CONTINUOUS
10
92.8207
20
-84.4043
11
92.8424
21
-84.4367
0
LINE
8
BLACK
6
CONTINUOUS
10
92.8424
20
-84.4367
11
92.85
21
-84.475
0
LINE
8
BLACK
6
CONTINUOUS
10
92.85
20
-84.475
11
92.85
21
-84.675
0
LINE
8
BLACK
6
CONTINUOUS
10
92.85
20
-84.675
11
92.8424
21
-84.7133
0
LINE
8
BLACK
6
CONTINUOUS
10
92.8424
20
-84.7133
11
92.8207
21
-84.7457
0
LINE
8
BLACK
6
CONTINUOUS
10
92.8207
20
-84.7457
11
92.7883
21
-84.7674
0
LINE
8
BLACK
6
CONTINUOUS
10
92.7883
20
-84.7674
11
92.75
21
-84.775
0
LINE
8
BLACK
6
CONTINUOUS
10
92.75
20
-84.775
11
91.475
21
-84.775
0
LINE
8
BLACK
6
CONTINUOUS
10
91.475
20
-84.775
11
91.4367
21
-84.7674
0
LINE
8
BLACK
6
CONTINUOUS
10
91.4367
20
-84.7674
11
91.4043
21
-84.7457
0
LINE
8
BLACK
6
CONTINUOUS
10
91.4043
20
-84.7457
11
91.3826
21
-84.7133
0
LINE
8
BLACK
6
CONTINUOUS
10
91.3826
20
-84.7133
11
91.375
21
-84.675
0
LINE
8
BLACK
6
CONTINUOUS
10
91.375
20
-84.675
11
91.375
21
-84.475
0
LINE
8
BLACK
6
CONTINUOUS
10
91.375
20
-84.475
11
91.3826
21
-84.4367
0
LINE
8
BLACK
6
CONTINUOUS
10
91.3826
20
-84.4367
11
91.4043
21
-84.4043
0
LINE
8
BLACK
6
CONTINUOUS
10
91.4043
20
-84.4043
11
91.4367
21
-84.3826
0
LINE
8
BLACK
6
CONTINUOUS
10
91.4367
20
-84.3826
11
91.475
21
-84.375
0
LINE
8
BLACK
6
CONTINUOUS
10
91.475
20
-84.375
11
92.75
21
-84.375
0
LINE
8
BLACK
6
CONTINUOUS
10
92.75
20
-84.375
11
92.7883
21
-84.3826
0
LINE
8
BLACK
6
CONTINUOUS
10
98.4111
20
-83.7921
11
98.4841
21
-83.8409
0
LINE
8
BLACK
6
CONTINUOUS
10
98.4841
20
-83.8409
11
98.5329
21
-83.9139
0
LINE
8
BLACK
6
CONTINUOUS
10
98.5329
20
-83.9139
11
98.55
21
-84
0
LINE
8
BLACK
6
CONTINUOUS
10
98.55
20
-84
11
98.55
21
-84.5
0
LINE
8
BLACK
6
CONTINUOUS
10
98.55
20
-84.5
11
98.5329
21
-84.5861
0
LINE
8
BLACK
6
CONTINUOUS
10
98.5329
20
-84.5861
11
98.4841
21
-84.6591
0
LINE
8
BLACK
6
CONTINUOUS
10
98.4841
20
-84.6591
11
98.4111
21
-84.7079
0
LINE
8
BLACK
6
CONTINUOUS
10
98.4111
20
-84.7079
11
98.325
21
-84.725
0
LINE
8
BLACK
6
CONTINUOUS
10
98.325
20
-84.725
11
97.875
21
-84.725
0
LINE
8
BLACK
6
CONTINUOUS
10
97.875
20
-84.725
11
97.7889
21
-84.7079
0
LINE
8
BLACK
6
CONTINUOUS
10
97.7889
20
-84.7079
11
97.7159
21
-84.6591
0
LINE
8
BLACK
6
CONTINUOUS
10
97.7159
20
-84.6591
11
97.6671
21
-84.5861
0
LINE
8
BLACK
6
CONTINUOUS
10
97.6671
20
-84.5861
11
97.65
21
-84.5
0
LINE
8
BLACK
6
CONTINUOUS
10
97.65
20
-84.5
11
97.65
21
-84
0
LINE
8
BLACK
6
CONTINUOUS
10
97.65
20
-84
11
97.6671
21
-83.9139
0
LINE
8
BLACK
6
CONTINUOUS
10
97.6671
20
-83.9139
11
97.7159
21
-83.8409
0
LINE
8
BLACK
6
CONTINUOUS
10
97.7159
20
-83.8409
11
97.7889
21
-83.7921
0
LINE
8
BLACK
6
CONTINUOUS
10
97.7889
20
-83.7921
11
97.875
21
-83.775
0
LINE
8
BLACK
6
CONTINUOUS
10
97.875
20
-83.775
11
98.325
21
-83.775
0
LINE
8
BLACK
6
CONTINUOUS
10
98.325
20
-83.775
11
98.4111
21
-83.7921
0
LINE
8
BLACK
6
CONTINUOUS
10
96.4611
20
-83.7921
11
96.5341
21
-83.8409
0
LINE
8
BLACK
6
CONTINUOUS
10
96.5341
20
-83.8409
11
96.5829
21
-83.9139
0
LINE
8
BLACK
6
CONTINUOUS
10
96.5829
20
-83.9139
11
96.6
21
-84
0
LINE
8
BLACK
6
CONTINUOUS
10
96.6
20
-84
11
96.6
21
-84.5
0
LINE
8
BLACK
6
CONTINUOUS
10
96.6
20
-84.5
11
96.5829
21
-84.5861
0
LINE
8
BLACK
6
CONTINUOUS
10
96.5829
20
-84.5861
11
96.5341
21
-84.6591
0
LINE
8
BLACK
6
CONTINUOUS
10
96.5341
20
-84.6591
11
96.4611
21
-84.7079
0
LINE
8
BLACK
6
CONTINUOUS
10
96.4611
20
-84.7079
11
96.375
21
-84.725
0
LINE
8
BLACK
6
CONTINUOUS
10
96.375
20
-84.725
11
95.925
21
-84.725
0
LINE
8
BLACK
6
CONTINUOUS
10
95.925
20
-84.725
11
95.8389
21
-84.7079
0
LINE
8
BLACK
6
CONTINUOUS
10
95.8389
20
-84.7079
11
95.7659
21
-84.6591
0
LINE
8
BLACK
6
CONTINUOUS
10
95.7659
20
-84.6591
11
95.7171
21
-84.5861
0
LINE
8
BLACK
6
CONTINUOUS
10
95.7171
20
-84.5861
11
95.7
21
-84.5
0
LINE
8
BLACK
6
CONTINUOUS
10
95.7
20
-84.5
11
95.7
21
-84
0
LINE
8
BLACK
6
CONTINUOUS
10
95.7
20
-84
11
95.7171
21
-83.9139
0
LINE
8
BLACK
6
CONTINUOUS
10
95.7171
20
-83.9139
11
95.7659
21
-83.8409
0
LINE
8
BLACK
6
CONTINUOUS
10
95.7659
20
-83.8409
11
95.8389
21
-83.7921
0
LINE
8
BLACK
6
CONTINUOUS
10
95.8389
20
-83.7921
11
95.925
21
-83.775
0
LINE
8
BLACK
6
CONTINUOUS
10
95.925
20
-83.775
11
96.375
21
-83.775
0
LINE
8
BLACK
6
CONTINUOUS
10
96.375
20
-83.775
11
96.4611
21
-83.7921
0
LINE
8
BLACK
6
CONTINUOUS
10
94.9111
20
-83.7921
11
94.9841
21
-83.8409
0
LINE
8
BLACK
6
CONTINUOUS
10
94.9841
20
-83.8409
11
95.0329
21
-83.9139
0
LINE
8
BLACK
6
CONTINUOUS
10
95.0329
20
-83.9139
11
95.05
21
-84
0
LINE
8
BLACK
6
CONTINUOUS
10
95.05
20
-84
11
95.05
21
-84.5
0
LINE
8
BLACK
6
CONTINUOUS
10
95.05
20
-84.5
11
95.0329
21
-84.5861
0
LINE
8
BLACK
6
CONTINUOUS
10
95.0329
20
-84.5861
11
94.9841
21
-84.6591
0
LINE
8
BLACK
6
CONTINUOUS
10
94.9841
20
-84.6591
11
94.9111
21
-84.7079
0
LINE
8
BLACK
6
CONTINUOUS
10
94.9111
20
-84.7079
11
94.825
21
-84.725
0
LINE
8
BLACK
6
CONTINUOUS
10
94.825
20
-84.725
11
94.375
21
-84.725
0
LINE
8
BLACK
6
CONTINUOUS
10
94.375
20
-84.725
11
94.2889
21
-84.7079
0
LINE
8
BLACK
6
CONTINUOUS
10
94.2889
20
-84.7079
11
94.2159
21
-84.6591
0
LINE
8
BLACK
6
CONTINUOUS
10
94.2159
20
-84.6591
11
94.1671
21
-84.5861
0
LINE
8
BLACK
6
CONTINUOUS
10
94.1671
20
-84.5861
11
94.15
21
-84.5
0
LINE
8
BLACK
6
CONTINUOUS
10
94.15
20
-84.5
11
94.15
21
-84
0
LINE
8
BLACK
6
CONTINUOUS
10
94.15
20
-84
11
94.1671
21
-83.9139
0
LINE
8
BLACK
6
CONTINUOUS
10
94.1671
20
-83.9139
11
94.2159
21
-83.8409
0
LINE
8
BLACK
6
CONTINUOUS
10
94.2159
20
-83.8409
11
94.2889
21
-83.7921
0
LINE
8
BLACK
6
CONTINUOUS
10
94.2889
20
-83.7921
11
94.375
21
-83.775
0
LINE
8
BLACK
6
CONTINUOUS
10
94.375
20
-83.775
11
94.825
21
-83.775
0
LINE
8
BLACK
6
CONTINUOUS
10
94.825
20
-83.775
11
94.9111
21
-83.7921
0
LINE
8
BLACK
6
CONTINUOUS
10
99.9611
20
-83.7921
11
100.034
21
-83.8409
0
LINE
8
BLACK
6
CONTINUOUS
10
100.034
20
-83.8409
11
100.083
21
-83.9139
0
LINE
8
BLACK
6
CONTINUOUS
10
100.083
20
-83.9139
11
100.1
21
-84
0
LINE
8
BLACK
6
CONTINUOUS
10
100.1
20
-84
11
100.1
21
-84.5
0
LINE
8
BLACK
6
CONTINUOUS
10
100.1
20
-84.5
11
100.083
21
-84.5861
0
LINE
8
BLACK
6
CONTINUOUS
10
100.083
20
-84.5861
11
100.034
21
-84.6591
0
LINE
8
BLACK
6
CONTINUOUS
10
100.034
20
-84.6591
11
99.9611
21
-84.7079
0
LINE
8
BLACK
6
CONTINUOUS
10
99.9611
20
-84.7079
11
99.875
21
-84.725
0
LINE
8
BLACK
6
CONTINUOUS
10
99.875
20
-84.725
11
99.425
21
-84.725
0
LINE
8
BLACK
6
CONTINUOUS
10
99.425
20
-84.725
11
99.3389
21
-84.7079
0
LINE
8
BLACK
6
CONTINUOUS
10
99.3389
20
-84.7079
11
99.2659
21
-84.6591
0
LINE
8
BLACK
6
CONTINUOUS
10
99.2659
20
-84.6591
11
99.2171
21
-84.5861
0
LINE
8
BLACK
6
CONTINUOUS
10
99.2171
20
-84.5861
11
99.2
21
-84.5
0
LINE
8
BLACK
6
CONTINUOUS
10
99.2
20
-84.5
11
99.2
21
-84
0
LINE
8
BLACK
6
CONTINUOUS
10
99.2
20
-84
11
99.2171
21
-83.9139
0
LINE
8
BLACK
6
CONTINUOUS
10
99.2171
20
-83.9139
11
99.2659
21
-83.8409
0
LINE
8
BLACK
6
CONTINUOUS
10
99.2659
20
-83.8409
11
99.3389
21
-83.7921
0
LINE
8
BLACK
6
CONTINUOUS
10
99.3389
20
-83.7921
11
99.425
21
-83.775
0
LINE
8
BLACK
6
CONTINUOUS
10
99.425
20
-83.775
11
99.875
21
-83.775
0
LINE
8
BLACK
6
CONTINUOUS
10
99.875
20
-83.775
11
99.9611
21
-83.7921
0
LINE
8
BLACK
6
CONTINUOUS
10
87.0633
20
-83.7326
11
87.0957
21
-83.7543
0
LINE
8
BLACK
6
CONTINUOUS
10
87.0957
20
-83.7543
11
87.1174
21
-83.7867
0
LINE
8
BLACK
6
CONTINUOUS
10
87.1174
20
-83.7867
11
87.125
21
-83.825
0
LINE
8
BLACK
6
CONTINUOUS
10
87.125
20
-83.825
11
87.125
21
-84.025
0
LINE
8
BLACK
6
CONTINUOUS
10
87.125
20
-84.025
11
87.1174
21
-84.0633
0
LINE
8
BLACK
6
CONTINUOUS
10
87.1174
20
-84.0633
11
87.0957
21
-84.0957
0
LINE
8
BLACK
6
CONTINUOUS
10
87.0957
20
-84.0957
11
87.0633
21
-84.1174
0
LINE
8
BLACK
6
CONTINUOUS
10
87.0633
20
-84.1174
11
87.025
21
-84.125
0
LINE
8
BLACK
6
CONTINUOUS
10
87.025
20
-84.125
11
85.75
21
-84.125
0
LINE
8
BLACK
6
CONTINUOUS
10
85.75
20
-84.125
11
85.7117
21
-84.1174
0
LINE
8
BLACK
6
CONTINUOUS
10
85.7117
20
-84.1174
11
85.6793
21
-84.0957
0
LINE
8
BLACK
6
CONTINUOUS
10
85.6793
20
-84.0957
11
85.6576
21
-84.0633
0
LINE
8
BLACK
6
CONTINUOUS
10
85.6576
20
-84.0633
11
85.65
21
-84.025
0
LINE
8
BLACK
6
CONTINUOUS
10
85.65
20
-84.025
11
85.65
21
-83.825
0
LINE
8
BLACK
6
CONTINUOUS
10
85.65
20
-83.825
11
85.6576
21
-83.7867
0
LINE
8
BLACK
6
CONTINUOUS
10
85.6576
20
-83.7867
11
85.6793
21
-83.7543
0
LINE
8
BLACK
6
CONTINUOUS
10
85.6793
20
-83.7543
11
85.7117
21
-83.7326
0
LINE
8
BLACK
6
CONTINUOUS
10
85.7117
20
-83.7326
11
85.75
21
-83.725
0
LINE
8
BLACK
6
CONTINUOUS
10
85.75
20
-83.725
11
87.025
21
-83.725
0
LINE
8
BLACK
6
CONTINUOUS
10
87.025
20
-83.725
11
87.0633
21
-83.7326
0
LINE
8
BLACK
6
CONTINUOUS
10
92.7883
20
-83.7326
11
92.8207
21
-83.7543
0
LINE
8
BLACK
6
CONTINUOUS
10
92.8207
20
-83.7543
11
92.8424
21
-83.7867
0
LINE
8
BLACK
6
CONTINUOUS
10
92.8424
20
-83.7867
11
92.85
21
-83.825
0
LINE
8
BLACK
6
CONTINUOUS
10
92.85
20
-83.825
11
92.85
21
-84.025
0
LINE
8
BLACK
6
CONTINUOUS
10
92.85
20
-84.025
11
92.8424
21
-84.0633
0
LINE
8
BLACK
6
CONTINUOUS
10
92.8424
20
-84.0633
11
92.8207
21
-84.0957
0
LINE
8
BLACK
6
CONTINUOUS
10
92.8207
20
-84.0957
11
92.7883
21
-84.1174
0
LINE
8
BLACK
6
CONTINUOUS
10
92.7883
20
-84.1174
11
92.75
21
-84.125
0
LINE
8
BLACK
6
CONTINUOUS
10
92.75
20
-84.125
11
91.475
21
-84.125
0
LINE
8
BLACK
6
CONTINUOUS
10
91.475
20
-84.125
11
91.4367
21
-84.1174
0
LINE
8
BLACK
6
CONTINUOUS
10
91.4367
20
-84.1174
11
91.4043
21
-84.0957
0
LINE
8
BLACK
6
CONTINUOUS
10
91.4043
20
-84.0957
11
91.3826
21
-84.0633
0
LINE
8
BLACK
6
CONTINUOUS
10
91.3826
20
-84.0633
11
91.375
21
-84.025
0
LINE
8
BLACK
6
CONTINUOUS
10
91.375
20
-84.025
11
91.375
21
-83.825
0
LINE
8
BLACK
6
CONTINUOUS
10
91.375
20
-83.825
11
91.3826
21
-83.7867
0
LINE
8
BLACK
6
CONTINUOUS
10
91.3826
20
-83.7867
11
91.4043
21
-83.7543
0
LINE
8
BLACK
6
CONTINUOUS
10
91.4043
20
-83.7543
11
91.4367
21
-83.7326
0
LINE
8
BLACK
6
CONTINUOUS
10
91.4367
20
-83.7326
11
91.475
21
-83.725
0
LINE
8
BLACK
6
CONTINUOUS
10
91.475
20
-83.725
11
92.75
21
-83.725
0
LINE
8
BLACK
6
CONTINUOUS
10
92.75
20
-83.725
11
92.7883
21
-83.7326
0
LINE
8
BLACK
6
CONTINUOUS
10
83.5074
20
-83.2114
11
83.5561
21
-83.2439
0
LINE
8
BLACK
6
CONTINUOUS
10
83.5561
20
-83.2439
11
83.5886
21
-83.2926
0
LINE
8
BLACK
6
CONTINUOUS
10
83.5886
20
-83.2926
11
83.6
21
-83.35
0
LINE
8
BLACK
6
CONTINUOUS
10
83.6
20
-83.35
11
83.6
21
-83.65
0
LINE
8
BLACK
6
CONTINUOUS
10
83.6
20
-83.65
11
83.5886
21
-83.7074
0
LINE
8
BLACK
6
CONTINUOUS
10
83.5886
20
-83.7074
11
83.5561
21
-83.7561
0
LINE
8
BLACK
6
CONTINUOUS
10
83.5561
20
-83.7561
11
83.5074
21
-83.7886
0
LINE
8
BLACK
6
CONTINUOUS
10
83.5074
20
-83.7886
11
83.45
21
-83.8
0
LINE
8
BLACK
6
CONTINUOUS
10
83.45
20
-83.8
11
82.2
21
-83.8
0
LINE
8
BLACK
6
CONTINUOUS
10
82.2
20
-83.8
11
82.1426
21
-83.7886
0
LINE
8
BLACK
6
CONTINUOUS
10
82.1426
20
-83.7886
11
82.0939
21
-83.7561
0
LINE
8
BLACK
6
CONTINUOUS
10
82.0939
20
-83.7561
11
82.0614
21
-83.7074
0
LINE
8
BLACK
6
CONTINUOUS
10
82.0614
20
-83.7074
11
82.05
21
-83.65
0
LINE
8
BLACK
6
CONTINUOUS
10
82.05
20
-83.65
11
82.05
21
-83.35
0
LINE
8
BLACK
6
CONTINUOUS
10
82.05
20
-83.35
11
82.0614
21
-83.2926
0
LINE
8
BLACK
6
CONTINUOUS
10
82.0614
20
-83.2926
11
82.0939
21
-83.2439
0
LINE
8
BLACK
6
CONTINUOUS
10
82.0939
20
-83.2439
11
82.1426
21
-83.2114
0
LINE
8
BLACK
6
CONTINUOUS
10
82.1426
20
-83.2114
11
82.2
21
-83.2
0
LINE
8
BLACK
6
CONTINUOUS
10
82.2
20
-83.2
11
83.45
21
-83.2
0
LINE
8
BLACK
6
CONTINUOUS
10
83.45
20
-83.2
11
83.5074
21
-83.2114
0
LINE
8
BLACK
6
CONTINUOUS
10
101.852
20
-82.9402
11
101.916
21
-82.9836
0
LINE
8
BLACK
6
CONTINUOUS
10
101.916
20
-82.9836
11
101.96
21
-83.0485
0
LINE
8
BLACK
6
CONTINUOUS
10
101.96
20
-83.0485
11
101.975
21
-83.125
0
LINE
8
BLACK
6
CONTINUOUS
10
101.975
20
-83.125
11
101.975
21
-83.525
0
LINE
8
BLACK
6
CONTINUOUS
10
101.975
20
-83.525
11
101.96
21
-83.6015
0
LINE
8
BLACK
6
CONTINUOUS
10
101.96
20
-83.6015
11
101.916
21
-83.6664
0
LINE
8
BLACK
6
CONTINUOUS
10
101.916
20
-83.6664
11
101.852
21
-83.7098
0
LINE
8
BLACK
6
CONTINUOUS
10
101.852
20
-83.7098
11
101.775
21
-83.725
0
LINE
8
BLACK
6
CONTINUOUS
10
101.775
20
-83.725
11
101.225
21
-83.725
0
LINE
8
BLACK
6
CONTINUOUS
10
101.225
20
-83.725
11
101.148
21
-83.7098
0
LINE
8
BLACK
6
CONTINUOUS
10
101.148
20
-83.7098
11
101.084
21
-83.6664
0
LINE
8
BLACK
6
CONTINUOUS
10
101.084
20
-83.6664
11
101.04
21
-83.6015
0
LINE
8
BLACK
6
CONTINUOUS
10
101.04
20
-83.6015
11
101.025
21
-83.525
0
LINE
8
BLACK
6
CONTINUOUS
10
101.025
20
-83.525
11
101.025
21
-83.125
0
LINE
8
BLACK
6
CONTINUOUS
10
101.025
20
-83.125
11
101.04
21
-83.0485
0
LINE
8
BLACK
6
CONTINUOUS
10
101.04
20
-83.0485
11
101.084
21
-82.9836
0
LINE
8
BLACK
6
CONTINUOUS
10
101.084
20
-82.9836
11
101.148
21
-82.9402
0
LINE
8
BLACK
6
CONTINUOUS
10
101.148
20
-82.9402
11
101.225
21
-82.925
0
LINE
8
BLACK
6
CONTINUOUS
10
101.225
20
-82.925
11
101.775
21
-82.925
0
LINE
8
BLACK
6
CONTINUOUS
10
101.775
20
-82.925
11
101.852
21
-82.9402
0
LINE
8
BLACK
6
CONTINUOUS
10
92.7883
20
-83.0826
11
92.8207
21
-83.1043
0
LINE
8
BLACK
6
CONTINUOUS
10
92.8207
20
-83.1043
11
92.8424
21
-83.1367
0
LINE
8
BLACK
6
CONTINUOUS
10
92.8424
20
-83.1367
11
92.85
21
-83.175
0
LINE
8
BLACK
6
CONTINUOUS
10
92.85
20
-83.175
11
92.85
21
-83.375
0
LINE
8
BLACK
6
CONTINUOUS
10
92.85
20
-83.375
11
92.8424
21
-83.4133
0
LINE
8
BLACK
6
CONTINUOUS
10
92.8424
20
-83.4133
11
92.8207
21
-83.4457
0
LINE
8
BLACK
6
CONTINUOUS
10
92.8207
20
-83.4457
11
92.7883
21
-83.4674
0
LINE
8
BLACK
6
CONTINUOUS
10
92.7883
20
-83.4674
11
92.75
21
-83.475
0
LINE
8
BLACK
6
CONTINUOUS
10
92.75
20
-83.475
11
91.475
21
-83.475
0
LINE
8
BLACK
6
CONTINUOUS
10
91.475
20
-83.475
11
91.4367
21
-83.4674
0
LINE
8
BLACK
6
CONTINUOUS
10
91.4367
20
-83.4674
11
91.4043
21
-83.4457
0
LINE
8
BLACK
6
CONTINUOUS
10
91.4043
20
-83.4457
11
91.3826
21
-83.4133
0
LINE
8
BLACK
6
CONTINUOUS
10
91.3826
20
-83.4133
11
91.375
21
-83.375
0
LINE
8
BLACK
6
CONTINUOUS
10
91.375
20
-83.375
11
91.375
21
-83.175
0
LINE
8
BLACK
6
CONTINUOUS
10
91.375
20
-83.175
11
91.3826
21
-83.1367
0
LINE
8
BLACK
6
CONTINUOUS
10
91.3826
20
-83.1367
11
91.4043
21
-83.1043
0
LINE
8
BLACK
6
CONTINUOUS
10
91.4043
20
-83.1043
11
91.4367
21
-83.0826
0
LINE
8
BLACK
6
CONTINUOUS
10
91.4367
20
-83.0826
11
91.475
21
-83.075
0
LINE
8
BLACK
6
CONTINUOUS
10
91.475
20
-83.075
11
92.75
21
-83.075
0
LINE
8
BLACK
6
CONTINUOUS
10
92.75
20
-83.075
11
92.7883
21
-83.0826
0
LINE
8
BLACK
6
CONTINUOUS
10
87.0633
20
-83.0826
11
87.0957
21
-83.1043
0
LINE
8
BLACK
6
CONTINUOUS
10
87.0957
20
-83.1043
11
87.1174
21
-83.1367
0
LINE
8
BLACK
6
CONTINUOUS
10
87.1174
20
-83.1367
11
87.125
21
-83.175
0
LINE
8
BLACK
6
CONTINUOUS
10
87.125
20
-83.175
11
87.125
21
-83.375
0
LINE
8
BLACK
6
CONTINUOUS
10
87.125
20
-83.375
11
87.1174
21
-83.4133
0
LINE
8
BLACK
6
CONTINUOUS
10
87.1174
20
-83.4133
11
87.0957
21
-83.4457
0
LINE
8
BLACK
6
CONTINUOUS
10
87.0957
20
-83.4457
11
87.0633
21
-83.4674
0
LINE
8
BLACK
6
CONTINUOUS
10
87.0633
20
-83.4674
11
87.025
21
-83.475
0
LINE
8
BLACK
6
CONTINUOUS
10
87.025
20
-83.475
11
85.75
21
-83.475
0
LINE
8
BLACK
6
CONTINUOUS
10
85.75
20
-83.475
11
85.7117
21
-83.4674
0
LINE
8
BLACK
6
CONTINUOUS
10
85.7117
20
-83.4674
11
85.6793
21
-83.4457
0
LINE
8
BLACK
6
CONTINUOUS
10
85.6793
20
-83.4457
11
85.6576
21
-83.4133
0
LINE
8
BLACK
6
CONTINUOUS
10
85.6576
20
-83.4133
11
85.65
21
-83.375
0
LINE
8
BLACK
6
CONTINUOUS
10
85.65
20
-83.375
11
85.65
21
-83.175
0
LINE
8
BLACK
6
CONTINUOUS
10
85.65
20
-83.175
11
85.6576
21
-83.1367
0
LINE
8
BLACK
6
CONTINUOUS
10
85.6576
20
-83.1367
11
85.6793
21
-83.1043
0
LINE
8
BLACK
6
CONTINUOUS
10
85.6793
20
-83.1043
11
85.7117
21
-83.0826
0
LINE
8
BLACK
6
CONTINUOUS
10
85.7117
20
-83.0826
11
85.75
21
-83.075
0
LINE
8
BLACK
6
CONTINUOUS
10
85.75
20
-83.075
11
87.025
21
-83.075
0
LINE
8
BLACK
6
CONTINUOUS
10
87.025
20
-83.075
11
87.0633
21
-83.0826
0
LINE
8
BLACK
6
CONTINUOUS
10
97.75
20
-82.9
11
96.25
21
-82.9
0
LINE
8
BLACK
6
CONTINUOUS
10
96.25
20
-82.9
11
96.25
21
-80.9
0
LINE
8
BLACK
6
CONTINUOUS
10
96.25
20
-80.9
11
97.75
21
-80.9
0
LINE
8
BLACK
6
CONTINUOUS
10
97.75
20
-80.9
11
97.75
21
-82.9
0
LINE
8
BLACK
6
CONTINUOUS
10
100.05
20
-82.9
11
98.55
21
-82.9
0
LINE
8
BLACK
6
CONTINUOUS
10
98.55
20
-82.9
11
98.55
21
-80.9
0
LINE
8
BLACK
6
CONTINUOUS
10
98.55
20
-80.9
11
100.05
21
-80.9
0
LINE
8
BLACK
6
CONTINUOUS
10
100.05
20
-80.9
11
100.05
21
-82.9
0
LINE
8
BLACK
6
CONTINUOUS
10
95.45
20
-82.9
11
93.95
21
-82.9
0
LINE
8
BLACK
6
CONTINUOUS
10
93.95
20
-82.9
11
93.95
21
-80.9
0
LINE
8
BLACK
6
CONTINUOUS
10
93.95
20
-80.9
11
95.45
21
-80.9
0
LINE
8
BLACK
6
CONTINUOUS
10
95.45
20
-80.9
11
95.45
21
-82.9
0
LINE
8
BLACK
6
CONTINUOUS
10
87.0633
20
-82.4326
11
87.0957
21
-82.4543
0
LINE
8
BLACK
6
CONTINUOUS
10
87.0957
20
-82.4543
11
87.1174
21
-82.4867
0
LINE
8
BLACK
6
CONTINUOUS
10
87.1174
20
-82.4867
11
87.125
21
-82.525
0
LINE
8
BLACK
6
CONTINUOUS
10
87.125
20
-82.525
11
87.125
21
-82.725
0
LINE
8
BLACK
6
CONTINUOUS
10
87.125
20
-82.725
11
87.1174
21
-82.7633
0
LINE
8
BLACK
6
CONTINUOUS
10
87.1174
20
-82.7633
11
87.0957
21
-82.7957
0
LINE
8
BLACK
6
CONTINUOUS
10
87.0957
20
-82.7957
11
87.0633
21
-82.8174
0
LINE
8
BLACK
6
CONTINUOUS
10
87.0633
20
-82.8174
11
87.025
21
-82.825
0
LINE
8
BLACK
6
CONTINUOUS
10
87.025
20
-82.825
11
85.75
21
-82.825
0
LINE
8
BLACK
6
CONTINUOUS
10
85.75
20
-82.825
11
85.7117
21
-82.8174
0
LINE
8
BLACK
6
CONTINUOUS
10
85.7117
20
-82.8174
11
85.6793
21
-82.7957
0
LINE
8
BLACK
6
CONTINUOUS
10
85.6793
20
-82.7957
11
85.6576
21
-82.7633
0
LINE
8
BLACK
6
CONTINUOUS
10
85.6576
20
-82.7633
11
85.65
21
-82.725
0
LINE
8
BLACK
6
CONTINUOUS
10
85.65
20
-82.725
11
85.65
21
-82.525
0
LINE
8
BLACK
6
CONTINUOUS
10
85.65
20
-82.525
11
85.6576
21
-82.4867
0
LINE
8
BLACK
6
CONTINUOUS
10
85.6576
20
-82.4867
11
85.6793
21
-82.4543
0
LINE
8
BLACK
6
CONTINUOUS
10
85.6793
20
-82.4543
11
85.7117
21
-82.4326
0
LINE
8
BLACK
6
CONTINUOUS
10
85.7117
20
-82.4326
11
85.75
21
-82.425
0
LINE
8
BLACK
6
CONTINUOUS
10
85.75
20
-82.425
11
87.025
21
-82.425
0
LINE
8
BLACK
6
CONTINUOUS
10
87.025
20
-82.425
11
87.0633
21
-82.4326
0
LINE
8
BLACK
6
CONTINUOUS
10
92.7883
20
-82.4326
11
92.8207
21
-82.4543
0
LINE
8
BLACK
6
CONTINUOUS
10
92.8207
20
-82.4543
11
92.8424
21
-82.4867
0
LINE
8
BLACK
6
CONTINUOUS
10
92.8424
20
-82.4867
11
92.85
21
-82.525
0
LINE
8
BLACK
6
CONTINUOUS
10
92.85
20
-82.525
11
92.85
21
-82.725
0
LINE
8
BLACK
6
CONTINUOUS
10
92.85
20
-82.725
11
92.8424
21
-82.7633
0
LINE
8
BLACK
6
CONTINUOUS
10
92.8424
20
-82.7633
11
92.8207
21
-82.7957
0
LINE
8
BLACK
6
CONTINUOUS
10
92.8207
20
-82.7957
11
92.7883
21
-82.8174
0
LINE
8
BLACK
6
CONTINUOUS
10
92.7883
20
-82.8174
11
92.75
21
-82.825
0
LINE
8
BLACK
6
CONTINUOUS
10
92.75
20
-82.825
11
91.475
21
-82.825
0
LINE
8
BLACK
6
CONTINUOUS
10
91.475
20
-82.825
11
91.4367
21
-82.8174
0
LINE
8
BLACK
6
CONTINUOUS
10
91.4367
20
-82.8174
11
91.4043
21
-82.7957
0
LINE
8
BLACK
6
CONTINUOUS
10
91.4043
20
-82.7957
11
91.3826
21
-82.7633
0
LINE
8
BLACK
6
CONTINUOUS
10
91.3826
20
-82.7633
11
91.375
21
-82.725
0
LINE
8
BLACK
6
CONTINUOUS
10
91.375
20
-82.725
11
91.375
21
-82.525
0
LINE
8
BLACK
6
CONTINUOUS
10
91.375
20
-82.525
11
91.3826
21
-82.4867
0
LINE
8
BLACK
6
CONTINUOUS
10
91.3826
20
-82.4867
11
91.4043
21
-82.4543
0
LINE
8
BLACK
6
CONTINUOUS
10
91.4043
20
-82.4543
11
91.4367
21
-82.4326
0
LINE
8
BLACK
6
CONTINUOUS
10
91.4367
20
-82.4326
11
91.475
21
-82.425
0
LINE
8
BLACK
6
CONTINUOUS
10
91.475
20
-82.425
11
92.75
21
-82.425
0
LINE
8
BLACK
6
CONTINUOUS
10
92.75
20
-82.425
11
92.7883
21
-82.4326
0
LINE
8
BLACK
6
CONTINUOUS
10
83.5074
20
-82.2114
11
83.5561
21
-82.2439
0
LINE
8
BLACK
6
CONTINUOUS
10
83.5561
20
-82.2439
11
83.5886
21
-82.2926
0
LINE
8
BLACK
6
CONTINUOUS
10
83.5886
20
-82.2926
11
83.6
21
-82.35
0
LINE
8
BLACK
6
CONTINUOUS
10
83.6
20
-82.35
11
83.6
21
-82.65
0
LINE
8
BLACK
6
CONTINUOUS
10
83.6
20
-82.65
11
83.5886
21
-82.7074
0
LINE
8
BLACK
6
CONTINUOUS
10
83.5886
20
-82.7074
11
83.5561
21
-82.7561
0
LINE
8
BLACK
6
CONTINUOUS
10
83.5561
20
-82.7561
11
83.5074
21
-82.7886
0
LINE
8
BLACK
6
CONTINUOUS
10
83.5074
20
-82.7886
11
83.45
21
-82.8
0
LINE
8
BLACK
6
CONTINUOUS
10
83.45
20
-82.8
11
82.2
21
-82.8
0
LINE
8
BLACK
6
CONTINUOUS
10
82.2
20
-82.8
11
82.1426
21
-82.7886
0
LINE
8
BLACK
6
CONTINUOUS
10
82.1426
20
-82.7886
11
82.0939
21
-82.7561
0
LINE
8
BLACK
6
CONTINUOUS
10
82.0939
20
-82.7561
11
82.0614
21
-82.7074
0
LINE
8
BLACK
6
CONTINUOUS
10
82.0614
20
-82.7074
11
82.05
21
-82.65
0
LINE
8
BLACK
6
CONTINUOUS
10
82.05
20
-82.65
11
82.05
21
-82.35
0
LINE
8
BLACK
6
CONTINUOUS
10
82.05
20
-82.35
11
82.0614
21
-82.2926
0
LINE
8
BLACK
6
CONTINUOUS
10
82.0614
20
-82.2926
11
82.0939
21
-82.2439
0
LINE
8
BLACK
6
CONTINUOUS
10
82.0939
20
-82.2439
11
82.1426
21
-82.2114
0
LINE
8
BLACK
6
CONTINUOUS
10
82.1426
20
-82.2114
11
82.2
21
-82.2
0
LINE
8
BLACK
6
CONTINUOUS
10
82.2
20
-82.2
11
83.45
21
-82.2
0
LINE
8
BLACK
6
CONTINUOUS
10
83.45
20
-82.2
11
83.5074
21
-82.2114
0
LINE
8
BLACK
6
CONTINUOUS
10
87.0633
20
-81.7826
11
87.0957
21
-81.8043
0
LINE
8
BLACK
6
CONTINUOUS
10
87.0957
20
-81.8043
11
87.1174
21
-81.8367
0
LINE
8
BLACK
6
CONTINUOUS
10
87.1174
20
-81.8367
11
87.125
21
-81.875
0
LINE
8
BLACK
6
CONTINUOUS
10
87.125
20
-81.875
11
87.125
21
-82.075
0
LINE
8
BLACK
6
CONTINUOUS
10
87.125
20
-82.075
11
87.1174
21
-82.1133
0
LINE
8
BLACK
6
CONTINUOUS
10
87.1174
20
-82.1133
11
87.0957
21
-82.1457
0
LINE
8
BLACK
6
CONTINUOUS
10
87.0957
20
-82.1457
11
87.0633
21
-82.1674
0
LINE
8
BLACK
6
CONTINUOUS
10
87.0633
20
-82.1674
11
87.025
21
-82.175
0
LINE
8
BLACK
6
CONTINUOUS
10
87.025
20
-82.175
11
85.75
21
-82.175
0
LINE
8
BLACK
6
CONTINUOUS
10
85.75
20
-82.175
11
85.7117
21
-82.1674
0
LINE
8
BLACK
6
CONTINUOUS
10
85.7117
20
-82.1674
11
85.6793
21
-82.1457
0
LINE
8
BLACK
6
CONTINUOUS
10
85.6793
20
-82.1457
11
85.6576
21
-82.1133
0
LINE
8
BLACK
6
CONTINUOUS
10
85.6576
20
-82.1133
11
85.65
21
-82.075
0
LINE
8
BLACK
6
CONTINUOUS
10
85.65
20
-82.075
11
85.65
21
-81.875
0
LINE
8
BLACK
6
CONTINUOUS
10
85.65
20
-81.875
11
85.6576
21
-81.8367
0
LINE
8
BLACK
6
CONTINUOUS
10
85.6576
20
-81.8367
11
85.6793
21
-81.8043
0
LINE
8
BLACK
6
CONTINUOUS
10
85.6793
20
-81.8043
11
85.7117
21
-81.7826
0
LINE
8
BLACK
6
CONTINUOUS
10
85.7117
20
-81.7826
11
85.75
21
-81.775
0
LINE
8
BLACK
6
CONTINUOUS
10
85.75
20
-81.775
11
87.025
21
-81.775
0
LINE
8
BLACK
6
CONTINUOUS
10
87.025
20
-81.775
11
87.0633
21
-81.7826
0
LINE
8
BLACK
6
CONTINUOUS
10
92.7883
20
-81.7826
11
92.8207
21
-81.8043
0
LINE
8
BLACK
6
CONTINUOUS
10
92.8207
20
-81.8043
11
92.8424
21
-81.8367
0
LINE
8
BLACK
6
CONTINUOUS
10
92.8424
20
-81.8367
11
92.85
21
-81.875
0
LINE
8
BLACK
6
CONTINUOUS
10
92.85
20
-81.875
11
92.85
21
-82.075
0
LINE
8
BLACK
6
CONTINUOUS
10
92.85
20
-82.075
11
92.8424
21
-82.1133
0
LINE
8
BLACK
6
CONTINUOUS
10
92.8424
20
-82.1133
11
92.8207
21
-82.1457
0
LINE
8
BLACK
6
CONTINUOUS
10
92.8207
20
-82.1457
11
92.7883
21
-82.1674
0
LINE
8
BLACK
6
CONTINUOUS
10
92.7883
20
-82.1674
11
92.75
21
-82.175
0
LINE
8
BLACK
6
CONTINUOUS
10
92.75
20
-82.175
11
91.475
21
-82.175
0
LINE
8
BLACK
6
CONTINUOUS
10
91.475
20
-82.175
11
91.4367
21
-82.1674
0
LINE
8
BLACK
6
CONTINUOUS
10
91.4367
20
-82.1674
11
91.4043
21
-82.1457
0
LINE
8
BLACK
6
CONTINUOUS
10
91.4043
20
-82.1457
11
91.3826
21
-82.1133
0
LINE
8
BLACK
6
CONTINUOUS
10
91.3826
20
-82.1133
11
91.375
21
-82.075
0
LINE
8
BLACK
6
CONTINUOUS
10
91.375
20
-82.075
11
91.375
21
-81.875
0
LINE
8
BLACK
6
CONTINUOUS
10
91.375
20
-81.875
11
91.3826
21
-81.8367
0
LINE
8
BLACK
6
CONTINUOUS
10
91.3826
20
-81.8367
11
91.4043
21
-81.8043
0
LINE
8
BLACK
6
CONTINUOUS
10
91.4043
20
-81.8043
11
91.4367
21
-81.7826
0
LINE
8
BLACK
6
CONTINUOUS
10
91.4367
20
-81.7826
11
91.475
21
-81.775
0
LINE
8
BLACK
6
CONTINUOUS
10
91.475
20
-81.775
11
92.75
21
-81.775
0
LINE
8
BLACK
6
CONTINUOUS
10
92.75
20
-81.775
11
92.7883
21
-81.7826
0
LINE
8
BLACK
6
CONTINUOUS
10
101.852
20
-81.2902
11
101.916
21
-81.3336
0
LINE
8
BLACK
6
CONTINUOUS
10
101.916
20
-81.3336
11
101.96
21
-81.3985
0
LINE
8
BLACK
6
CONTINUOUS
10
101.96
20
-81.3985
11
101.975
21
-81.475
0
LINE
8
BLACK
6
CONTINUOUS
10
101.975
20
-81.475
11
101.975
21
-81.875
0
LINE
8
BLACK
6
CONTINUOUS
10
101.975
20
-81.875
11
101.96
21
-81.9515
0
LINE
8
BLACK
6
CONTINUOUS
10
101.96
20
-81.9515
11
101.916
21
-82.0164
0
LINE
8
BLACK
6
CONTINUOUS
10
101.916
20
-82.0164
11
101.852
21
-82.0598
0
LINE
8
BLACK
6
CONTINUOUS
10
101.852
20
-82.0598
11
101.775
21
-82.075
0
LINE
8
BLACK
6
CONTINUOUS
10
101.775
20
-82.075
11
101.225
21
-82.075
0
LINE
8
BLACK
6
CONTINUOUS
10
101.225
20
-82.075
11
101.148
21
-82.0598
0
LINE
8
BLACK
6
CONTINUOUS
10
101.148
20
-82.0598
11
101.084
21
-82.0164
0
LINE
8
BLACK
6
CONTINUOUS
10
101.084
20
-82.0164
11
101.04
21
-81.9515
0
LINE
8
BLACK
6
CONTINUOUS
10
101.04
20
-81.9515
11
101.025
21
-81.875
0
LINE
8
BLACK
6
CONTINUOUS
10
101.025
20
-81.875
11
101.025
21
-81.475
0
LINE
8
BLACK
6
CONTINUOUS
10
101.025
20
-81.475
11
101.04
21
-81.3985
0
LINE
8
BLACK
6
CONTINUOUS
10
101.04
20
-81.3985
11
101.084
21
-81.3336
0
LINE
8
BLACK
6
CONTINUOUS
10
101.084
20
-81.3336
11
101.148
21
-81.2902
0
LINE
8
BLACK
6
CONTINUOUS
10
101.148
20
-81.2902
11
101.225
21
-81.275
0
LINE
8
BLACK
6
CONTINUOUS
10
101.225
20
-81.275
11
101.775
21
-81.275
0
LINE
8
BLACK
6
CONTINUOUS
10
101.775
20
-81.275
11
101.852
21
-81.2902
0
LINE
8
BLACK
6
CONTINUOUS
10
81.0457
20
-80.619
11
81.1268
21
-80.6732
0
LINE
8
BLACK
6
CONTINUOUS
10
81.1268
20
-80.6732
11
81.181
21
-80.7543
0
LINE
8
BLACK
6
CONTINUOUS
10
81.181
20
-80.7543
11
81.2
21
-80.85
0
LINE
8
BLACK
6
CONTINUOUS
10
81.2
20
-80.85
11
81.2
21
-81.55
0
LINE
8
BLACK
6
CONTINUOUS
10
81.2
20
-81.55
11
81.181
21
-81.6457
0
LINE
8
BLACK
6
CONTINUOUS
10
81.181
20
-81.6457
11
81.1268
21
-81.7268
0
LINE
8
BLACK
6
CONTINUOUS
10
81.1268
20
-81.7268
11
81.0457
21
-81.781
0
LINE
8
BLACK
6
CONTINUOUS
10
81.0457
20
-81.781
11
80.95
21
-81.8
0
LINE
8
BLACK
6
CONTINUOUS
10
80.95
20
-81.8
11
79.65
21
-81.8
0
LINE
8
BLACK
6
CONTINUOUS
10
79.65
20
-81.8
11
79.5543
21
-81.781
0
LINE
8
BLACK
6
CONTINUOUS
10
79.5543
20
-81.781
11
79.4732
21
-81.7268
0
LINE
8
BLACK
6
CONTINUOUS
10
79.4732
20
-81.7268
11
79.419
21
-81.6457
0
LINE
8
BLACK
6
CONTINUOUS
10
79.419
20
-81.6457
11
79.4
21
-81.55
0
LINE
8
BLACK
6
CONTINUOUS
10
79.4
20
-81.55
11
79.4
21
-80.85
0
LINE
8
BLACK
6
CONTINUOUS
10
79.4
20
-80.85
11
79.419
21
-80.7543
0
LINE
8
BLACK
6
CONTINUOUS
10
79.419
20
-80.7543
11
79.4732
21
-80.6732
0
LINE
8
BLACK
6
CONTINUOUS
10
79.4732
20
-80.6732
11
79.5543
21
-80.619
0
LINE
8
BLACK
6
CONTINUOUS
10
79.5543
20
-80.619
11
79.65
21
-80.6
0
LINE
8
BLACK
6
CONTINUOUS
10
79.65
20
-80.6
11
80.95
21
-80.6
0
LINE
8
BLACK
6
CONTINUOUS
10
80.95
20
-80.6
11
81.0457
21
-80.619
0
LINE
8
BLACK
6
CONTINUOUS
10
87.0633
20
-81.1326
11
87.0957
21
-81.1543
0
LINE
8
BLACK
6
CONTINUOUS
10
87.0957
20
-81.1543
11
87.1174
21
-81.1867
0
LINE
8
BLACK
6
CONTINUOUS
10
87.1174
20
-81.1867
11
87.125
21
-81.225
0
LINE
8
BLACK
6
CONTINUOUS
10
87.125
20
-81.225
11
87.125
21
-81.425
0
LINE
8
BLACK
6
CONTINUOUS
10
87.125
20
-81.425
11
87.1174
21
-81.4633
0
LINE
8
BLACK
6
CONTINUOUS
10
87.1174
20
-81.4633
11
87.0957
21
-81.4957
0
LINE
8
BLACK
6
CONTINUOUS
10
87.0957
20
-81.4957
11
87.0633
21
-81.5174
0
LINE
8
BLACK
6
CONTINUOUS
10
87.0633
20
-81.5174
11
87.025
21
-81.525
0
LINE
8
BLACK
6
CONTINUOUS
10
87.025
20
-81.525
11
85.75
21
-81.525
0
LINE
8
BLACK
6
CONTINUOUS
10
85.75
20
-81.525
11
85.7117
21
-81.5174
0
LINE
8
BLACK
6
CONTINUOUS
10
85.7117
20
-81.5174
11
85.6793
21
-81.4957
0
LINE
8
BLACK
6
CONTINUOUS
10
85.6793
20
-81.4957
11
85.6576
21
-81.4633
0
LINE
8
BLACK
6
CONTINUOUS
10
85.6576
20
-81.4633
11
85.65
21
-81.425
0
LINE
8
BLACK
6
CONTINUOUS
10
85.65
20
-81.425
11
85.65
21
-81.225
0
LINE
8
BLACK
6
CONTINUOUS
10
85.65
20
-81.225
11
85.6576
21
-81.1867
0
LINE
8
BLACK
6
CONTINUOUS
10
85.6576
20
-81.1867
11
85.6793
21
-81.1543
0
LINE
8
BLACK
6
CONTINUOUS
10
85.6793
20
-81.1543
11
85.7117
21
-81.1326
0
LINE
8
BLACK
6
CONTINUOUS
10
85.7117
20
-81.1326
11
85.75
21
-81.125
0
LINE
8
BLACK
6
CONTINUOUS
10
85.75
20
-81.125
11
87.025
21
-81.125
0
LINE
8
BLACK
6
CONTINUOUS
10
87.025
20
-81.125
11
87.0633
21
-81.1326
0
LINE
8
BLACK
6
CONTINUOUS
10
92.7883
20
-81.1326
11
92.8207
21
-81.1543
0
LINE
8
BLACK
6
CONTINUOUS
10
92.8207
20
-81.1543
11
92.8424
21
-81.1867
0
LINE
8
BLACK
6
CONTINUOUS
10
92.8424
20
-81.1867
11
92.85
21
-81.225
0
LINE
8
BLACK
6
CONTINUOUS
10
92.85
20
-81.225
11
92.85
21
-81.425
0
LINE
8
BLACK
6
CONTINUOUS
10
92.85
20
-81.425
11
92.8424
21
-81.4633
0
LINE
8
BLACK
6
CONTINUOUS
10
92.8424
20
-81.4633
11
92.8207
21
-81.4957
0
LINE
8
BLACK
6
CONTINUOUS
10
92.8207
20
-81.4957
11
92.7883
21
-81.5174
0
LINE
8
BLACK
6
CONTINUOUS
10
92.7883
20
-81.5174
11
92.75
21
-81.525
0
LINE
8
BLACK
6
CONTINUOUS
10
92.75
20
-81.525
11
91.475
21
-81.525
0
LINE
8
BLACK
6
CONTINUOUS
10
91.475
20
-81.525
11
91.4367
21
-81.5174
0
LINE
8
BLACK
6
CONTINUOUS
10
91.4367
20
-81.5174
11
91.4043
21
-81.4957
0
LINE
8
BLACK
6
CONTINUOUS
10
91.4043
20
-81.4957
11
91.3826
21
-81.4633
0
LINE
8
BLACK
6
CONTINUOUS
10
91.3826
20
-81.4633
11
91.375
21
-81.425
0
LINE
8
BLACK
6
CONTINUOUS
10
91.375
20
-81.425
11
91.375
21
-81.225
0
LINE
8
BLACK
6
CONTINUOUS
10
91.375
20
-81.225
11
91.3826
21
-81.1867
0
LINE
8
BLACK
6
CONTINUOUS
10
91.3826
20
-81.1867
11
91.4043
21
-81.1543
0
LINE
8
BLACK
6
CONTINUOUS
10
91.4043
20
-81.1543
11
91.4367
21
-81.1326
0
LINE
8
BLACK
6
CONTINUOUS
10
91.4367
20
-81.1326
11
91.475
21
-81.125
0
LINE
8
BLACK
6
CONTINUOUS
10
91.475
20
-81.125
11
92.75
21
-81.125
0
LINE
8
BLACK
6
CONTINUOUS
10
92.75
20
-81.125
11
92.7883
21
-81.1326
0
LINE
8
BLACK
6
CONTINUOUS
10
87.0633
20
-80.4826
11
87.0957
21
-80.5043
0
LINE
8
BLACK
6
CONTINUOUS
10
87.0957
20
-80.5043
11
87.1174
21
-80.5367
0
LINE
8
BLACK
6
CONTINUOUS
10
87.1174
20
-80.5367
11
87.125
21
-80.575
0
LINE
8
BLACK
6
CONTINUOUS
10
87.125
20
-80.575
11
87.125
21
-80.775
0
LINE
8
BLACK
6
CONTINUOUS
10
87.125
20
-80.775
11
87.1174
21
-80.8133
0
LINE
8
BLACK
6
CONTINUOUS
10
87.1174
20
-80.8133
11
87.0957
21
-80.8457
0
LINE
8
BLACK
6
CONTINUOUS
10
87.0957
20
-80.8457
11
87.0633
21
-80.8674
0
LINE
8
BLACK
6
CONTINUOUS
10
87.0633
20
-80.8674
11
87.025
21
-80.875
0
LINE
8
BLACK
6
CONTINUOUS
10
87.025
20
-80.875
11
85.75
21
-80.875
0
LINE
8
BLACK
6
CONTINUOUS
10
85.75
20
-80.875
11
85.7117
21
-80.8674
0
LINE
8
BLACK
6
CONTINUOUS
10
85.7117
20
-80.8674
11
85.6793
21
-80.8457
0
LINE
8
BLACK
6
CONTINUOUS
10
85.6793
20
-80.8457
11
85.6576
21
-80.8133
0
LINE
8
BLACK
6
CONTINUOUS
10
85.6576
20
-80.8133
11
85.65
21
-80.775
0
LINE
8
BLACK
6
CONTINUOUS
10
85.65
20
-80.775
11
85.65
21
-80.575
0
LINE
8
BLACK
6
CONTINUOUS
10
85.65
20
-80.575
11
85.6576
21
-80.5367
0
LINE
8
BLACK
6
CONTINUOUS
10
85.6576
20
-80.5367
11
85.6793
21
-80.5043
0
LINE
8
BLACK
6
CONTINUOUS
10
85.6793
20
-80.5043
11
85.7117
21
-80.4826
0
LINE
8
BLACK
6
CONTINUOUS
10
85.7117
20
-80.4826
11
85.75
21
-80.475
0
LINE
8
BLACK
6
CONTINUOUS
10
85.75
20
-80.475
11
87.025
21
-80.475
0
LINE
8
BLACK
6
CONTINUOUS
10
87.025
20
-80.475
11
87.0633
21
-80.4826
0
LINE
8
BLACK
6
CONTINUOUS
10
92.7883
20
-80.4826
11
92.8207
21
-80.5043
0
LINE
8
BLACK
6
CONTINUOUS
10
92.8207
20
-80.5043
11
92.8424
21
-80.5367
0
LINE
8
BLACK
6
CONTINUOUS
10
92.8424
20
-80.5367
11
92.85
21
-80.575
0
LINE
8
BLACK
6
CONTINUOUS
10
92.85
20
-80.575
11
92.85
21
-80.775
0
LINE
8
BLACK
6
CONTINUOUS
10
92.85
20
-80.775
11
92.8424
21
-80.8133
0
LINE
8
BLACK
6
CONTINUOUS
10
92.8424
20
-80.8133
11
92.8207
21
-80.8457
0
LINE
8
BLACK
6
CONTINUOUS
10
92.8207
20
-80.8457
11
92.7883
21
-80.8674
0
LINE
8
BLACK
6
CONTINUOUS
10
92.7883
20
-80.8674
11
92.75
21
-80.875
0
LINE
8
BLACK
6
CONTINUOUS
10
92.75
20
-80.875
11
91.475
21
-80.875
0
LINE
8
BLACK
6
CONTINUOUS
10
91.475
20
-80.875
11
91.4367
21
-80.8674
0
LINE
8
BLACK
6
CONTINUOUS
10
91.4367
20
-80.8674
11
91.4043
21
-80.8457
0
LINE
8
BLACK
6
CONTINUOUS
10
91.4043
20
-80.8457
11
91.3826
21
-80.8133
0
LINE
8
BLACK
6
CONTINUOUS
10
91.3826
20
-80.8133
11
91.375
21
-80.775
0
LINE
8
BLACK
6
CONTINUOUS
10
91.375
20
-80.775
11
91.375
21
-80.575
0
LINE
8
BLACK
6
CONTINUOUS
10
91.375
20
-80.575
11
91.3826
21
-80.5367
0
LINE
8
BLACK
6
CONTINUOUS
10
91.3826
20
-80.5367
11
91.4043
21
-80.5043
0
LINE
8
BLACK
6
CONTINUOUS
10
91.4043
20
-80.5043
11
91.4367
21
-80.4826
0
LINE
8
BLACK
6
CONTINUOUS
10
91.4367
20
-80.4826
11
91.475
21
-80.475
0
LINE
8
BLACK
6
CONTINUOUS
10
91.475
20
-80.475
11
92.75
21
-80.475
0
LINE
8
BLACK
6
CONTINUOUS
10
92.75
20
-80.475
11
92.7883
21
-80.4826
0
LINE
8
BLACK
6
CONTINUOUS
10
92.7883
20
-79.8326
11
92.8207
21
-79.8543
0
LINE
8
BLACK
6
CONTINUOUS
10
92.8207
20
-79.8543
11
92.8424
21
-79.8867
0
LINE
8
BLACK
6
CONTINUOUS
10
92.8424
20
-79.8867
11
92.85
21
-79.925
0
LINE
8
BLACK
6
CONTINUOUS
10
92.85
20
-79.925
11
92.85
21
-80.125
0
LINE
8
BLACK
6
CONTINUOUS
10
92.85
20
-80.125
11
92.8424
21
-80.1633
0
LINE
8
BLACK
6
CONTINUOUS
10
92.8424
20
-80.1633
11
92.8207
21
-80.1957
0
LINE
8
BLACK
6
CONTINUOUS
10
92.8207
20
-80.1957
11
92.7883
21
-80.2174
0
LINE
8
BLACK
6
CONTINUOUS
10
92.7883
20
-80.2174
11
92.75
21
-80.225
0
LINE
8
BLACK
6
CONTINUOUS
10
92.75
20
-80.225
11
91.475
21
-80.225
0
LINE
8
BLACK
6
CONTINUOUS
10
91.475
20
-80.225
11
91.4367
21
-80.2174
0
LINE
8
BLACK
6
CONTINUOUS
10
91.4367
20
-80.2174
11
91.4043
21
-80.1957
0
LINE
8
BLACK
6
CONTINUOUS
10
91.4043
20
-80.1957
11
91.3826
21
-80.1633
0
LINE
8
BLACK
6
CONTINUOUS
10
91.3826
20
-80.1633
11
91.375
21
-80.125
0
LINE
8
BLACK
6
CONTINUOUS
10
91.375
20
-80.125
11
91.375
21
-79.925
0
LINE
8
BLACK
6
CONTINUOUS
10
91.375
20
-79.925
11
91.3826
21
-79.8867
0
LINE
8
BLACK
6
CONTINUOUS
10
91.3826
20
-79.8867
11
91.4043
21
-79.8543
0
LINE
8
BLACK
6
CONTINUOUS
10
91.4043
20
-79.8543
11
91.4367
21
-79.8326
0
LINE
8
BLACK
6
CONTINUOUS
10
91.4367
20
-79.8326
11
91.475
21
-79.825
0
LINE
8
BLACK
6
CONTINUOUS
10
91.475
20
-79.825
11
92.75
21
-79.825
0
LINE
8
BLACK
6
CONTINUOUS
10
92.75
20
-79.825
11
92.7883
21
-79.8326
0
LINE
8
BLACK
6
CONTINUOUS
10
87.0633
20
-79.8326
11
87.0957
21
-79.8543
0
LINE
8
BLACK
6
CONTINUOUS
10
87.0957
20
-79.8543
11
87.1174
21
-79.8867
0
LINE
8
BLACK
6
CONTINUOUS
10
87.1174
20
-79.8867
11
87.125
21
-79.925
0
LINE
8
BLACK
6
CONTINUOUS
10
87.125
20
-79.925
11
87.125
21
-80.125
0
LINE
8
BLACK
6
CONTINUOUS
10
87.125
20
-80.125
11
87.1174
21
-80.1633
0
LINE
8
BLACK
6
CONTINUOUS
10
87.1174
20
-80.1633
11
87.0957
21
-80.1957
0
LINE
8
BLACK
6
CONTINUOUS
10
87.0957
20
-80.1957
11
87.0633
21
-80.2174
0
LINE
8
BLACK
6
CONTINUOUS
10
87.0633
20
-80.2174
11
87.025
21
-80.225
0
LINE
8
BLACK
6
CONTINUOUS
10
87.025
20
-80.225
11
85.75
21
-80.225
0
LINE
8
BLACK
6
CONTINUOUS
10
85.75
20
-80.225
11
85.7117
21
-80.2174
0
LINE
8
BLACK
6
CONTINUOUS
10
85.7117
20
-80.2174
11
85.6793
21
-80.1957
0
LINE
8
BLACK
6
CONTINUOUS
10
85.6793
20
-80.1957
11
85.6576
21
-80.1633
0
LINE
8
BLACK
6
CONTINUOUS
10
85.6576
20
-80.1633
11
85.65
21
-80.125
0
LINE
8
BLACK
6
CONTINUOUS
10
85.65
20
-80.125
11
85.65
21
-79.925
0
LINE
8
BLACK
6
CONTINUOUS
10
85.65
20
-79.925
11
85.6576
21
-79.8867
0
LINE
8
BLACK
6
CONTINUOUS
10
85.6576
20
-79.8867
11
85.6793
21
-79.8543
0
LINE
8
BLACK
6
CONTINUOUS
10
85.6793
20
-79.8543
11
85.7117
21
-79.8326
0
LINE
8
BLACK
6
CONTINUOUS
10
85.7117
20
-79.8326
11
85.75
21
-79.825
0
LINE
8
BLACK
6
CONTINUOUS
10
85.75
20
-79.825
11
87.025
21
-79.825
0
LINE
8
BLACK
6
CONTINUOUS
10
87.025
20
-79.825
11
87.0633
21
-79.8326
0
LINE
8
BLACK
6
CONTINUOUS
10
101.852
20
-79.4402
11
101.916
21
-79.4836
0
LINE
8
BLACK
6
CONTINUOUS
10
101.916
20
-79.4836
11
101.96
21
-79.5485
0
LINE
8
BLACK
6
CONTINUOUS
10
101.96
20
-79.5485
11
101.975
21
-79.625
0
LINE
8
BLACK
6
CONTINUOUS
10
101.975
20
-79.625
11
101.975
21
-80.025
0
LINE
8
BLACK
6
CONTINUOUS
10
101.975
20
-80.025
11
101.96
21
-80.1015
0
LINE
8
BLACK
6
CONTINUOUS
10
101.96
20
-80.1015
11
101.916
21
-80.1664
0
LINE
8
BLACK
6
CONTINUOUS
10
101.916
20
-80.1664
11
101.852
21
-80.2098
0
LINE
8
BLACK
6
CONTINUOUS
10
101.852
20
-80.2098
11
101.775
21
-80.225
0
LINE
8
BLACK
6
CONTINUOUS
10
101.775
20
-80.225
11
101.225
21
-80.225
0
LINE
8
BLACK
6
CONTINUOUS
10
101.225
20
-80.225
11
101.148
21
-80.2098
0
LINE
8
BLACK
6
CONTINUOUS
10
101.148
20
-80.2098
11
101.084
21
-80.1664
0
LINE
8
BLACK
6
CONTINUOUS
10
101.084
20
-80.1664
11
101.04
21
-80.1015
0
LINE
8
BLACK
6
CONTINUOUS
10
101.04
20
-80.1015
11
101.025
21
-80.025
0
LINE
8
BLACK
6
CONTINUOUS
10
101.025
20
-80.025
11
101.025
21
-79.625
0
LINE
8
BLACK
6
CONTINUOUS
10
101.025
20
-79.625
11
101.04
21
-79.5485
0
LINE
8
BLACK
6
CONTINUOUS
10
101.04
20
-79.5485
11
101.084
21
-79.4836
0
LINE
8
BLACK
6
CONTINUOUS
10
101.084
20
-79.4836
11
101.148
21
-79.4402
0
LINE
8
BLACK
6
CONTINUOUS
10
101.148
20
-79.4402
11
101.225
21
-79.425
0
LINE
8
BLACK
6
CONTINUOUS
10
101.225
20
-79.425
11
101.775
21
-79.425
0
LINE
8
BLACK
6
CONTINUOUS
10
101.775
20
-79.425
11
101.852
21
-79.4402
0
LINE
8
BLACK
6
CONTINUOUS
10
101.852
20
-77.7902
11
101.916
21
-77.8336
0
LINE
8
BLACK
6
CONTINUOUS
10
101.916
20
-77.8336
11
101.96
21
-77.8985
0
LINE
8
BLACK
6
CONTINUOUS
10
101.96
20
-77.8985
11
101.975
21
-77.975
0
LINE
8
BLACK
6
CONTINUOUS
10
101.975
20
-77.975
11
101.975
21
-78.375
0
LINE
8
BLACK
6
CONTINUOUS
10
101.975
20
-78.375
11
101.96
21
-78.4515
0
LINE
8
BLACK
6
CONTINUOUS
10
101.96
20
-78.4515
11
101.916
21
-78.5164
0
LINE
8
BLACK
6
CONTINUOUS
10
101.916
20
-78.5164
11
101.852
21
-78.5598
0
LINE
8
BLACK
6
CONTINUOUS
10
101.852
20
-78.5598
11
101.775
21
-78.575
0
LINE
8
BLACK
6
CONTINUOUS
10
101.775
20
-78.575
11
101.225
21
-78.575
0
LINE
8
BLACK
6
CONTINUOUS
10
101.225
20
-78.575
11
101.148
21
-78.5598
0
LINE
8
BLACK
6
CONTINUOUS
10
101.148
20
-78.5598
11
101.084
21
-78.5164
0
LINE
8
BLACK
6
CONTINUOUS
10
101.084
20
-78.5164
11
101.04
21
-78.4515
0
LINE
8
BLACK
6
CONTINUOUS
10
101.04
20
-78.4515
11
101.025
21
-78.375
0
LINE
8
BLACK
6
CONTINUOUS
10
101.025
20
-78.375
11
101.025
21
-77.975
0
LINE
8
BLACK
6
CONTINUOUS
10
101.025
20
-77.975
11
101.04
21
-77.8985
0
LINE
8
BLACK
6
CONTINUOUS
10
101.04
20
-77.8985
11
101.084
21
-77.8336
0
LINE
8
BLACK
6
CONTINUOUS
10
101.084
20
-77.8336
11
101.148
21
-77.7902
0
LINE
8
BLACK
6
CONTINUOUS
10
101.148
20
-77.7902
11
101.225
21
-77.775
0
LINE
8
BLACK
6
CONTINUOUS
10
101.225
20
-77.775
11
101.775
21
-77.775
0
LINE
8
BLACK
6
CONTINUOUS
10
101.775
20
-77.775
11
101.852
21
-77.7902
0
LINE
8
BLACK
6
CONTINUOUS
10
90.6015
20
-77.4402
11
90.6664
21
-77.4836
0
LINE
8
BLACK
6
CONTINUOUS
10
90.6664
20
-77.4836
11
90.7098
21
-77.5485
0
LINE
8
BLACK
6
CONTINUOUS
10
90.7098
20
-77.5485
11
90.725
21
-77.625
0
LINE
8
BLACK
6
CONTINUOUS
10
90.725
20
-77.625
11
90.725
21
-78.025
0
LINE
8
BLACK
6
CONTINUOUS
10
90.725
20
-78.025
11
90.7098
21
-78.1015
0
LINE
8
BLACK
6
CONTINUOUS
10
90.7098
20
-78.1015
11
90.6664
21
-78.1664
0
LINE
8
BLACK
6
CONTINUOUS
10
90.6664
20
-78.1664
11
90.6015
21
-78.2098
0
LINE
8
BLACK
6
CONTINUOUS
10
90.6015
20
-78.2098
11
90.525
21
-78.225
0
LINE
8
BLACK
6
CONTINUOUS
10
90.525
20
-78.225
11
89.975
21
-78.225
0
LINE
8
BLACK
6
CONTINUOUS
10
89.975
20
-78.225
11
89.8985
21
-78.2098
0
LINE
8
BLACK
6
CONTINUOUS
10
89.8985
20
-78.2098
11
89.8336
21
-78.1664
0
LINE
8
BLACK
6
CONTINUOUS
10
89.8336
20
-78.1664
11
89.7902
21
-78.1015
0
LINE
8
BLACK
6
CONTINUOUS
10
89.7902
20
-78.1015
11
89.775
21
-78.025
0
LINE
8
BLACK
6
CONTINUOUS
10
89.775
20
-78.025
11
89.775
21
-77.625
0
LINE
8
BLACK
6
CONTINUOUS
10
89.775
20
-77.625
11
89.7902
21
-77.5485
0
LINE
8
BLACK
6
CONTINUOUS
10
89.7902
20
-77.5485
11
89.8336
21
-77.4836
0
LINE
8
BLACK
6
CONTINUOUS
10
89.8336
20
-77.4836
11
89.8985
21
-77.4402
0
LINE
8
BLACK
6
CONTINUOUS
10
89.8985
20
-77.4402
11
89.975
21
-77.425
0
LINE
8
BLACK
6
CONTINUOUS
10
89.975
20
-77.425
11
90.525
21
-77.425
0
LINE
8
BLACK
6
CONTINUOUS
10
90.525
20
-77.425
11
90.6015
21
-77.4402
0
LINE
8
BLACK
6
CONTINUOUS
10
84.6015
20
-77.4402
11
84.6664
21
-77.4836
0
LINE
8
BLACK
6
CONTINUOUS
10
84.6664
20
-77.4836
11
84.7098
21
-77.5485
0
LINE
8
BLACK
6
CONTINUOUS
10
84.7098
20
-77.5485
11
84.725
21
-77.625
0
LINE
8
BLACK
6
CONTINUOUS
10
84.725
20
-77.625
11
84.725
21
-78.025
0
LINE
8
BLACK
6
CONTINUOUS
10
84.725
20
-78.025
11
84.7098
21
-78.1015
0
LINE
8
BLACK
6
CONTINUOUS
10
84.7098
20
-78.1015
11
84.6664
21
-78.1664
0
LINE
8
BLACK
6
CONTINUOUS
10
84.6664
20
-78.1664
11
84.6015
21
-78.2098
0
LINE
8
BLACK
6
CONTINUOUS
10
84.6015
20
-78.2098
11
84.525
21
-78.225
0
LINE
8
BLACK
6
CONTINUOUS
10
84.525
20
-78.225
11
83.975
21
-78.225
0
LINE
8
BLACK
6
CONTINUOUS
10
83.975
20
-78.225
11
83.8985
21
-78.2098
0
LINE
8
BLACK
6
CONTINUOUS
10
83.8985
20
-78.2098
11
83.8336
21
-78.1664
0
LINE
8
BLACK
6
CONTINUOUS
10
83.8336
20
-78.1664
11
83.7902
21
-78.1015
0
LINE
8
BLACK
6
CONTINUOUS
10
83.7902
20
-78.1015
11
83.775
21
-78.025
0
LINE
8
BLACK
6
CONTINUOUS
10
83.775
20
-78.025
11
83.775
21
-77.625
0
LINE
8
BLACK
6
CONTINUOUS
10
83.775
20
-77.625
11
83.7902
21
-77.5485
0
LINE
8
BLACK
6
CONTINUOUS
10
83.7902
20
-77.5485
11
83.8336
21
-77.4836
0
LINE
8
BLACK
6
CONTINUOUS
10
83.8336
20
-77.4836
11
83.8985
21
-77.4402
0
LINE
8
BLACK
6
CONTINUOUS
10
83.8985
20
-77.4402
11
83.975
21
-77.425
0
LINE
8
BLACK
6
CONTINUOUS
10
83.975
20
-77.425
11
84.525
21
-77.425
0
LINE
8
BLACK
6
CONTINUOUS
10
84.525
20
-77.425
11
84.6015
21
-77.4402
0
LINE
8
BLACK
6
CONTINUOUS
10
92.5861
20
-77.3421
11
92.6591
21
-77.3909
0
LINE
8
BLACK
6
CONTINUOUS
10
92.6591
20
-77.3909
11
92.7079
21
-77.4639
0
LINE
8
BLACK
6
CONTINUOUS
10
92.7079
20
-77.4639
11
92.725
21
-77.55
0
LINE
8
BLACK
6
CONTINUOUS
10
92.725
20
-77.55
11
92.725
21
-78
0
LINE
8
BLACK
6
CONTINUOUS
10
92.725
20
-78
11
92.7079
21
-78.0861
0
LINE
8
BLACK
6
CONTINUOUS
10
92.7079
20
-78.0861
11
92.6591
21
-78.1591
0
LINE
8
BLACK
6
CONTINUOUS
10
92.6591
20
-78.1591
11
92.5861
21
-78.2079
0
LINE
8
BLACK
6
CONTINUOUS
10
92.5861
20
-78.2079
11
92.5
21
-78.225
0
LINE
8
BLACK
6
CONTINUOUS
10
92.5
20
-78.225
11
92
21
-78.225
0
LINE
8
BLACK
6
CONTINUOUS
10
92
20
-78.225
11
91.9139
21
-78.2079
0
LINE
8
BLACK
6
CONTINUOUS
10
91.9139
20
-78.2079
11
91.8409
21
-78.1591
0
LINE
8
BLACK
6
CONTINUOUS
10
91.8409
20
-78.1591
11
91.7921
21
-78.0861
0
LINE
8
BLACK
6
CONTINUOUS
10
91.7921
20
-78.0861
11
91.775
21
-78
0
LINE
8
BLACK
6
CONTINUOUS
10
91.775
20
-78
11
91.775
21
-77.55
0
LINE
8
BLACK
6
CONTINUOUS
10
91.775
20
-77.55
11
91.7921
21
-77.4639
0
LINE
8
BLACK
6
CONTINUOUS
10
91.7921
20
-77.4639
11
91.8409
21
-77.3909
0
LINE
8
BLACK
6
CONTINUOUS
10
91.8409
20
-77.3909
11
91.9139
21
-77.3421
0
LINE
8
BLACK
6
CONTINUOUS
10
91.9139
20
-77.3421
11
92
21
-77.325
0
LINE
8
BLACK
6
CONTINUOUS
10
92
20
-77.325
11
92.5
21
-77.325
0
LINE
8
BLACK
6
CONTINUOUS
10
92.5
20
-77.325
11
92.5861
21
-77.3421
0
LINE
8
BLACK
6
CONTINUOUS
10
88.6015
20
-77.4402
11
88.6664
21
-77.4836
0
LINE
8
BLACK
6
CONTINUOUS
10
88.6664
20
-77.4836
11
88.7098
21
-77.5485
0
LINE
8
BLACK
6
CONTINUOUS
10
88.7098
20
-77.5485
11
88.725
21
-77.625
0
LINE
8
BLACK
6
CONTINUOUS
10
88.725
20
-77.625
11
88.725
21
-78.025
0
LINE
8
BLACK
6
CONTINUOUS
10
88.725
20
-78.025
11
88.7098
21
-78.1015
0
LINE
8
BLACK
6
CONTINUOUS
10
88.7098
20
-78.1015
11
88.6664
21
-78.1664
0
LINE
8
BLACK
6
CONTINUOUS
10
88.6664
20
-78.1664
11
88.6015
21
-78.2098
0
LINE
8
BLACK
6
CONTINUOUS
10
88.6015
20
-78.2098
11
88.525
21
-78.225
0
LINE
8
BLACK
6
CONTINUOUS
10
88.525
20
-78.225
11
87.975
21
-78.225
0
LINE
8
BLACK
6
CONTINUOUS
10
87.975
20
-78.225
11
87.8985
21
-78.2098
0
LINE
8
BLACK
6
CONTINUOUS
10
87.8985
20
-78.2098
11
87.8336
21
-78.1664
0
LINE
8
BLACK
6
CONTINUOUS
10
87.8336
20
-78.1664
11
87.7902
21
-78.1015
0
LINE
8
BLACK
6
CONTINUOUS
10
87.7902
20
-78.1015
11
87.775
21
-78.025
0
LINE
8
BLACK
6
CONTINUOUS
10
87.775
20
-78.025
11
87.775
21
-77.625
0
LINE
8
BLACK
6
CONTINUOUS
10
87.775
20
-77.625
11
87.7902
21
-77.5485
0
LINE
8
BLACK
6
CONTINUOUS
10
87.7902
20
-77.5485
11
87.8336
21
-77.4836
0
LINE
8
BLACK
6
CONTINUOUS
10
87.8336
20
-77.4836
11
87.8985
21
-77.4402
0
LINE
8
BLACK
6
CONTINUOUS
10
87.8985
20
-77.4402
11
87.975
21
-77.425
0
LINE
8
BLACK
6
CONTINUOUS
10
87.975
20
-77.425
11
88.525
21
-77.425
0
LINE
8
BLACK
6
CONTINUOUS
10
88.525
20
-77.425
11
88.6015
21
-77.4402
0
LINE
8
BLACK
6
CONTINUOUS
10
86.6015
20
-77.4152
11
86.6664
21
-77.4586
0
LINE
8
BLACK
6
CONTINUOUS
10
86.6664
20
-77.4586
11
86.7098
21
-77.5235
0
LINE
8
BLACK
6
CONTINUOUS
10
86.7098
20
-77.5235
11
86.725
21
-77.6
0
LINE
8
BLACK
6
CONTINUOUS
10
86.725
20
-77.6
11
86.725
21
-78
0
LINE
8
BLACK
6
CONTINUOUS
10
86.725
20
-78
11
86.7098
21
-78.0765
0
LINE
8
BLACK
6
CONTINUOUS
10
86.7098
20
-78.0765
11
86.6664
21
-78.1414
0
LINE
8
BLACK
6
CONTINUOUS
10
86.6664
20
-78.1414
11
86.6015
21
-78.1848
0
LINE
8
BLACK
6
CONTINUOUS
10
86.6015
20
-78.1848
11
86.525
21
-78.2
0
LINE
8
BLACK
6
CONTINUOUS
10
86.525
20
-78.2
11
85.975
21
-78.2
0
LINE
8
BLACK
6
CONTINUOUS
10
85.975
20
-78.2
11
85.8985
21
-78.1848
0
LINE
8
BLACK
6
CONTINUOUS
10
85.8985
20
-78.1848
11
85.8336
21
-78.1414
0
LINE
8
BLACK
6
CONTINUOUS
10
85.8336
20
-78.1414
11
85.7902
21
-78.0765
0
LINE
8
BLACK
6
CONTINUOUS
10
85.7902
20
-78.0765
11
85.775
21
-78
0
LINE
8
BLACK
6
CONTINUOUS
10
85.775
20
-78
11
85.775
21
-77.6
0
LINE
8
BLACK
6
CONTINUOUS
10
85.775
20
-77.6
11
85.7902
21
-77.5235
0
LINE
8
BLACK
6
CONTINUOUS
10
85.7902
20
-77.5235
11
85.8336
21
-77.4586
0
LINE
8
BLACK
6
CONTINUOUS
10
85.8336
20
-77.4586
11
85.8985
21
-77.4152
0
LINE
8
BLACK
6
CONTINUOUS
10
85.8985
20
-77.4152
11
85.975
21
-77.4
0
LINE
8
BLACK
6
CONTINUOUS
10
85.975
20
-77.4
11
86.525
21
-77.4
0
LINE
8
BLACK
6
CONTINUOUS
10
86.525
20
-77.4
11
86.6015
21
-77.4152
0
LINE
8
BLACK
6
CONTINUOUS
10
101.852
20
-75.9402
11
101.916
21
-75.9836
0
LINE
8
BLACK
6
CONTINUOUS
10
101.916
20
-75.9836
11
101.96
21
-76.0485
0
LINE
8
BLACK
6
CONTINUOUS
10
101.96
20
-76.0485
11
101.975
21
-76.125
0
LINE
8
BLACK
6
CONTINUOUS
10
101.975
20
-76.125
11
101.975
21
-76.525
0
LINE
8
BLACK
6
CONTINUOUS
10
101.975
20
-76.525
11
101.96
21
-76.6015
0
LINE
8
BLACK
6
CONTINUOUS
10
101.96
20
-76.6015
11
101.916
21
-76.6664
0
LINE
8
BLACK
6
CONTINUOUS
10
101.916
20
-76.6664
11
101.852
21
-76.7098
0
LINE
8
BLACK
6
CONTINUOUS
10
101.852
20
-76.7098
11
101.775
21
-76.725
0
LINE
8
BLACK
6
CONTINUOUS
10
101.775
20
-76.725
11
101.225
21
-76.725
0
LINE
8
BLACK
6
CONTINUOUS
10
101.225
20
-76.725
11
101.148
21
-76.7098
0
LINE
8
BLACK
6
CONTINUOUS
10
101.148
20
-76.7098
11
101.084
21
-76.6664
0
LINE
8
BLACK
6
CONTINUOUS
10
101.084
20
-76.6664
11
101.04
21
-76.6015
0
LINE
8
BLACK
6
CONTINUOUS
10
101.04
20
-76.6015
11
101.025
21
-76.525
0
LINE
8
BLACK
6
CONTINUOUS
10
101.025
20
-76.525
11
101.025
21
-76.125
0
LINE
8
BLACK
6
CONTINUOUS
10
101.025
20
-76.125
11
101.04
21
-76.0485
0
LINE
8
BLACK
6
CONTINUOUS
10
101.04
20
-76.0485
11
101.084
21
-75.9836
0
LINE
8
BLACK
6
CONTINUOUS
10
101.084
20
-75.9836
11
101.148
21
-75.9402
0
LINE
8
BLACK
6
CONTINUOUS
10
101.148
20
-75.9402
11
101.225
21
-75.925
0
LINE
8
BLACK
6
CONTINUOUS
10
101.225
20
-75.925
11
101.775
21
-75.925
0
LINE
8
BLACK
6
CONTINUOUS
10
101.775
20
-75.925
11
101.852
21
-75.9402
0
LINE
8
BLACK
6
CONTINUOUS
10
92.5861
20
-75.7921
11
92.6591
21
-75.8409
0
LINE
8
BLACK
6
CONTINUOUS
10
92.6591
20
-75.8409
11
92.7079
21
-75.9139
0
LINE
8
BLACK
6
CONTINUOUS
10
92.7079
20
-75.9139
11
92.725
21
-76
0
LINE
8
BLACK
6
CONTINUOUS
10
92.725
20
-76
11
92.725
21
-76.45
0
LINE
8
BLACK
6
CONTINUOUS
10
92.725
20
-76.45
11
92.7079
21
-76.5361
0
LINE
8
BLACK
6
CONTINUOUS
10
92.7079
20
-76.5361
11
92.6591
21
-76.6091
0
LINE
8
BLACK
6
CONTINUOUS
10
92.6591
20
-76.6091
11
92.5861
21
-76.6579
0
LINE
8
BLACK
6
CONTINUOUS
10
92.5861
20
-76.6579
11
92.5
21
-76.675
0
LINE
8
BLACK
6
CONTINUOUS
10
92.5
20
-76.675
11
92
21
-76.675
0
LINE
8
BLACK
6
CONTINUOUS
10
92
20
-76.675
11
91.9139
21
-76.6579
0
LINE
8
BLACK
6
CONTINUOUS
10
91.9139
20
-76.6579
11
91.8409
21
-76.6091
0
LINE
8
BLACK
6
CONTINUOUS
10
91.8409
20
-76.6091
11
91.7921
21
-76.5361
0
LINE
8
BLACK
6
CONTINUOUS
10
91.7921
20
-76.5361
11
91.775
21
-76.45
0
LINE
8
BLACK
6
CONTINUOUS
10
91.775
20
-76.45
11
91.775
21
-76
0
LINE
8
BLACK
6
CONTINUOUS
10
91.775
20
-76
11
91.7921
21
-75.9139
0
LINE
8
BLACK
6
CONTINUOUS
10
91.7921
20
-75.9139
11
91.8409
21
-75.8409
0
LINE
8
BLACK
6
CONTINUOUS
10
91.8409
20
-75.8409
11
91.9139
21
-75.7921
0
LINE
8
BLACK
6
CONTINUOUS
10
91.9139
20
-75.7921
11
92
21
-75.775
0
LINE
8
BLACK
6
CONTINUOUS
10
92
20
-75.775
11
92.5
21
-75.775
0
LINE
8
BLACK
6
CONTINUOUS
10
92.5
20
-75.775
11
92.5861
21
-75.7921
0
LINE
8
BLACK
6
CONTINUOUS
10
98.9
20
-76.6
11
95.1
21
-76.6
0
LINE
8
BLACK
6
CONTINUOUS
10
95.1
20
-76.6
11
95.1
21
-74.6
0
LINE
8
BLACK
6
CONTINUOUS
10
95.1
20
-74.6
11
98.9
21
-74.6
0
LINE
8
BLACK
6
CONTINUOUS
10
98.9
20
-74.6
11
98.9
21
-76.6
0
LINE
8
BLACK
6
CONTINUOUS
10
90.6015
20
-75.7902
11
90.6664
21
-75.8336
0
LINE
8
BLACK
6
CONTINUOUS
10
90.6664
20
-75.8336
11
90.7098
21
-75.8985
0
LINE
8
BLACK
6
CONTINUOUS
10
90.7098
20
-75.8985
11
90.725
21
-75.975
0
LINE
8
BLACK
6
CONTINUOUS
10
90.725
20
-75.975
11
90.725
21
-76.375
0
LINE
8
BLACK
6
CONTINUOUS
10
90.725
20
-76.375
11
90.7098
21
-76.4515
0
LINE
8
BLACK
6
CONTINUOUS
10
90.7098
20
-76.4515
11
90.6664
21
-76.5164
0
LINE
8
BLACK
6
CONTINUOUS
10
90.6664
20
-76.5164
11
90.6015
21
-76.5598
0
LINE
8
BLACK
6
CONTINUOUS
10
90.6015
20
-76.5598
11
90.525
21
-76.575
0
LINE
8
BLACK
6
CONTINUOUS
10
90.525
20
-76.575
11
89.975
21
-76.575
0
LINE
8
BLACK
6
CONTINUOUS
10
89.975
20
-76.575
11
89.8985
21
-76.5598
0
LINE
8
BLACK
6
CONTINUOUS
10
89.8985
20
-76.5598
11
89.8336
21
-76.5164
0
LINE
8
BLACK
6
CONTINUOUS
10
89.8336
20
-76.5164
11
89.7902
21
-76.4515
0
LINE
8
BLACK
6
CONTINUOUS
10
89.7902
20
-76.4515
11
89.775
21
-76.375
0
LINE
8
BLACK
6
CONTINUOUS
10
89.775
20
-76.375
11
89.775
21
-75.975
0
LINE
8
BLACK
6
CONTINUOUS
10
89.775
20
-75.975
11
89.7902
21
-75.8985
0
LINE
8
BLACK
6
CONTINUOUS
10
89.7902
20
-75.8985
11
89.8336
21
-75.8336
0
LINE
8
BLACK
6
CONTINUOUS
10
89.8336
20
-75.8336
11
89.8985
21
-75.7902
0
LINE
8
BLACK
6
CONTINUOUS
10
89.8985
20
-75.7902
11
89.975
21
-75.775
0
LINE
8
BLACK
6
CONTINUOUS
10
89.975
20
-75.775
11
90.525
21
-75.775
0
LINE
8
BLACK
6
CONTINUOUS
10
90.525
20
-75.775
11
90.6015
21
-75.7902
0
LINE
8
BLACK
6
CONTINUOUS
10
84.6015
20
-75.7902
11
84.6664
21
-75.8336
0
LINE
8
BLACK
6
CONTINUOUS
10
84.6664
20
-75.8336
11
84.7098
21
-75.8985
0
LINE
8
BLACK
6
CONTINUOUS
10
84.7098
20
-75.8985
11
84.725
21
-75.975
0
LINE
8
BLACK
6
CONTINUOUS
10
84.725
20
-75.975
11
84.725
21
-76.375
0
LINE
8
BLACK
6
CONTINUOUS
10
84.725
20
-76.375
11
84.7098
21
-76.4515
0
LINE
8
BLACK
6
CONTINUOUS
10
84.7098
20
-76.4515
11
84.6664
21
-76.5164
0
LINE
8
BLACK
6
CONTINUOUS
10
84.6664
20
-76.5164
11
84.6015
21
-76.5598
0
LINE
8
BLACK
6
CONTINUOUS
10
84.6015
20
-76.5598
11
84.525
21
-76.575
0
LINE
8
BLACK
6
CONTINUOUS
10
84.525
20
-76.575
11
83.975
21
-76.575
0
LINE
8
BLACK
6
CONTINUOUS
10
83.975
20
-76.575
11
83.8985
21
-76.5598
0
LINE
8
BLACK
6
CONTINUOUS
10
83.8985
20
-76.5598
11
83.8336
21
-76.5164
0
LINE
8
BLACK
6
CONTINUOUS
10
83.8336
20
-76.5164
11
83.7902
21
-76.4515
0
LINE
8
BLACK
6
CONTINUOUS
10
83.7902
20
-76.4515
11
83.775
21
-76.375
0
LINE
8
BLACK
6
CONTINUOUS
10
83.775
20
-76.375
11
83.775
21
-75.975
0
LINE
8
BLACK
6
CONTINUOUS
10
83.775
20
-75.975
11
83.7902
21
-75.8985
0
LINE
8
BLACK
6
CONTINUOUS
10
83.7902
20
-75.8985
11
83.8336
21
-75.8336
0
LINE
8
BLACK
6
CONTINUOUS
10
83.8336
20
-75.8336
11
83.8985
21
-75.7902
0
LINE
8
BLACK
6
CONTINUOUS
10
83.8985
20
-75.7902
11
83.975
21
-75.775
0
LINE
8
BLACK
6
CONTINUOUS
10
83.975
20
-75.775
11
84.525
21
-75.775
0
LINE
8
BLACK
6
CONTINUOUS
10
84.525
20
-75.775
11
84.6015
21
-75.7902
0
LINE
8
BLACK
6
CONTINUOUS
10
88.6015
20
-75.7902
11
88.6664
21
-75.8336
0
LINE
8
BLACK
6
CONTINUOUS
10
88.6664
20
-75.8336
11
88.7098
21
-75.8985
0
LINE
8
BLACK
6
CONTINUOUS
10
88.7098
20
-75.8985
11
88.725
21
-75.975
0
LINE
8
BLACK
6
CONTINUOUS
10
88.725
20
-75.975
11
88.725
21
-76.375
0
LINE
8
BLACK
6
CONTINUOUS
10
88.725
20
-76.375
11
88.7098
21
-76.4515
0
LINE
8
BLACK
6
CONTINUOUS
10
88.7098
20
-76.4515
11
88.6664
21
-76.5164
0
LINE
8
BLACK
6
CONTINUOUS
10
88.6664
20
-76.5164
11
88.6015
21
-76.5598
0
LINE
8
BLACK
6
CONTINUOUS
10
88.6015
20
-76.5598
11
88.525
21
-76.575
0
LINE
8
BLACK
6
CONTINUOUS
10
88.525
20
-76.575
11
87.975
21
-76.575
0
LINE
8
BLACK
6
CONTINUOUS
10
87.975
20
-76.575
11
87.8985
21
-76.5598
0
LINE
8
BLACK
6
CONTINUOUS
10
87.8985
20
-76.5598
11
87.8336
21
-76.5164
0
LINE
8
BLACK
6
CONTINUOUS
10
87.8336
20
-76.5164
11
87.7902
21
-76.4515
0
LINE
8
BLACK
6
CONTINUOUS
10
87.7902
20
-76.4515
11
87.775
21
-76.375
0
LINE
8
BLACK
6
CONTINUOUS
10
87.775
20
-76.375
11
87.775
21
-75.975
0
LINE
8
BLACK
6
CONTINUOUS
10
87.775
20
-75.975
11
87.7902
21
-75.8985
0
LINE
8
BLACK
6
CONTINUOUS
10
87.7902
20
-75.8985
11
87.8336
21
-75.8336
0
LINE
8
BLACK
6
CONTINUOUS
10
87.8336
20
-75.8336
11
87.8985
21
-75.7902
0
LINE
8
BLACK
6
CONTINUOUS
10
87.8985
20
-75.7902
11
87.975
21
-75.775
0
LINE
8
BLACK
6
CONTINUOUS
10
87.975
20
-75.775
11
88.525
21
-75.775
0
LINE
8
BLACK
6
CONTINUOUS
10
88.525
20
-75.775
11
88.6015
21
-75.7902
0
LINE
8
BLACK
6
CONTINUOUS
10
86.6015
20
-75.7652
11
86.6664
21
-75.8086
0
LINE
8
BLACK
6
CONTINUOUS
10
86.6664
20
-75.8086
11
86.7098
21
-75.8735
0
LINE
8
BLACK
6
CONTINUOUS
10
86.7098
20
-75.8735
11
86.725
21
-75.95
0
LINE
8
BLACK
6
CONTINUOUS
10
86.725
20
-75.95
11
86.725
21
-76.35
0
LINE
8
BLACK
6
CONTINUOUS
10
86.725
20
-76.35
11
86.7098
21
-76.4265
0
LINE
8
BLACK
6
CONTINUOUS
10
86.7098
20
-76.4265
11
86.6664
21
-76.4914
0
LINE
8
BLACK
6
CONTINUOUS
10
86.6664
20
-76.4914
11
86.6015
21
-76.5348
0
LINE
8
BLACK
6
CONTINUOUS
10
86.6015
20
-76.5348
11
86.525
21
-76.55
0
LINE
8
BLACK
6
CONTINUOUS
10
86.525
20
-76.55
11
85.975
21
-76.55
0
LINE
8
BLACK
6
CONTINUOUS
10
85.975
20
-76.55
11
85.8985
21
-76.5348
0
LINE
8
BLACK
6
CONTINUOUS
10
85.8985
20
-76.5348
11
85.8336
21
-76.4914
0
LINE
8
BLACK
6
CONTINUOUS
10
85.8336
20
-76.4914
11
85.7902
21
-76.4265
0
LINE
8
BLACK
6
CONTINUOUS
10
85.7902
20
-76.4265
11
85.775
21
-76.35
0
LINE
8
BLACK
6
CONTINUOUS
10
85.775
20
-76.35
11
85.775
21
-75.95
0
LINE
8
BLACK
6
CONTINUOUS
10
85.775
20
-75.95
11
85.7902
21
-75.8735
0
LINE
8
BLACK
6
CONTINUOUS
10
85.7902
20
-75.8735
11
85.8336
21
-75.8086
0
LINE
8
BLACK
6
CONTINUOUS
10
85.8336
20
-75.8086
11
85.8985
21
-75.7652
0
LINE
8
BLACK
6
CONTINUOUS
10
85.8985
20
-75.7652
11
85.975
21
-75.75
0
LINE
8
BLACK
6
CONTINUOUS
10
85.975
20
-75.75
11
86.525
21
-75.75
0
LINE
8
BLACK
6
CONTINUOUS
10
86.525
20
-75.75
11
86.6015
21
-75.7652
0
LINE
8
BLACK
6
CONTINUOUS
10
101.852
20
-74.2902
11
101.916
21
-74.3336
0
LINE
8
BLACK
6
CONTINUOUS
10
101.916
20
-74.3336
11
101.96
21
-74.3985
0
LINE
8
BLACK
6
CONTINUOUS
10
101.96
20
-74.3985
11
101.975
21
-74.475
0
LINE
8
BLACK
6
CONTINUOUS
10
101.975
20
-74.475
11
101.975
21
-74.875
0
LINE
8
BLACK
6
CONTINUOUS
10
101.975
20
-74.875
11
101.96
21
-74.9515
0
LINE
8
BLACK
6
CONTINUOUS
10
101.96
20
-74.9515
11
101.916
21
-75.0164
0
LINE
8
BLACK
6
CONTINUOUS
10
101.916
20
-75.0164
11
101.852
21
-75.0598
0
LINE
8
BLACK
6
CONTINUOUS
10
101.852
20
-75.0598
11
101.775
21
-75.075
0
LINE
8
BLACK
6
CONTINUOUS
10
101.775
20
-75.075
11
101.225
21
-75.075
0
LINE
8
BLACK
6
CONTINUOUS
10
101.225
20
-75.075
11
101.148
21
-75.0598
0
LINE
8
BLACK
6
CONTINUOUS
10
101.148
20
-75.0598
11
101.084
21
-75.0164
0
LINE
8
BLACK
6
CONTINUOUS
10
101.084
20
-75.0164
11
101.04
21
-74.9515
0
LINE
8
BLACK
6
CONTINUOUS
10
101.04
20
-74.9515
11
101.025
21
-74.875
0
LINE
8
BLACK
6
CONTINUOUS
10
101.025
20
-74.875
11
101.025
21
-74.475
0
LINE
8
BLACK
6
CONTINUOUS
10
101.025
20
-74.475
11
101.04
21
-74.3985
0
LINE
8
BLACK
6
CONTINUOUS
10
101.04
20
-74.3985
11
101.084
21
-74.3336
0
LINE
8
BLACK
6
CONTINUOUS
10
101.084
20
-74.3336
11
101.148
21
-74.2902
0
LINE
8
BLACK
6
CONTINUOUS
10
101.148
20
-74.2902
11
101.225
21
-74.275
0
LINE
8
BLACK
6
CONTINUOUS
10
101.225
20
-74.275
11
101.775
21
-74.275
0
LINE
8
BLACK
6
CONTINUOUS
10
101.775
20
-74.275
11
101.852
21
-74.2902
0
LINE
8
BLACK
6
CONTINUOUS
10
85.375
20
-73.475
11
84.325
21
-73.475
0
LINE
8
BLACK
6
CONTINUOUS
10
84.325
20
-73.475
11
84.325
21
-72.825
0
LINE
8
BLACK
6
CONTINUOUS
10
84.325
20
-72.825
11
85.375
21
-72.825
0
LINE
8
BLACK
6
CONTINUOUS
10
85.375
20
-72.825
11
85.375
21
-73.475
0
LINE
8
BLACK
6
CONTINUOUS
10
89.525
20
-73.475
11
88.475
21
-73.475
0
LINE
8
BLACK
6
CONTINUOUS
10
88.475
20
-73.475
11
88.475
21
-72.825
0
LINE
8
BLACK
6
CONTINUOUS
10
88.475
20
-72.825
11
89.525
21
-72.825
0
LINE
8
BLACK
6
CONTINUOUS
10
89.525
20
-72.825
11
89.525
21
-73.475
0
LINE
8
BLACK
6
CONTINUOUS
10
91.8515
20
-72.4402
11
91.9164
21
-72.4836
0
LINE
8
BLACK
6
CONTINUOUS
10
91.9164
20
-72.4836
11
91.9598
21
-72.5485
0
LINE
8
BLACK
6
CONTINUOUS
10
91.9598
20
-72.5485
11
91.975
21
-72.625
0
LINE
8
BLACK
6
CONTINUOUS
10
91.975
20
-72.625
11
91.975
21
-73.025
0
LINE
8
BLACK
6
CONTINUOUS
10
91.975
20
-73.025
11
91.9598
21
-73.1015
0
LINE
8
BLACK
6
CONTINUOUS
10
91.9598
20
-73.1015
11
91.9164
21
-73.1664
0
LINE
8
BLACK
6
CONTINUOUS
10
91.9164
20
-73.1664
11
91.8515
21
-73.2098
0
LINE
8
BLACK
6
CONTINUOUS
10
91.8515
20
-73.2098
11
91.775
21
-73.225
0
LINE
8
BLACK
6
CONTINUOUS
10
91.775
20
-73.225
11
91.225
21
-73.225
0
LINE
8
BLACK
6
CONTINUOUS
10
91.225
20
-73.225
11
91.1485
21
-73.2098
0
LINE
8
BLACK
6
CONTINUOUS
10
91.1485
20
-73.2098
11
91.0836
21
-73.1664
0
LINE
8
BLACK
6
CONTINUOUS
10
91.0836
20
-73.1664
11
91.0402
21
-73.1015
0
LINE
8
BLACK
6
CONTINUOUS
10
91.0402
20
-73.1015
11
91.025
21
-73.025
0
LINE
8
BLACK
6
CONTINUOUS
10
91.025
20
-73.025
11
91.025
21
-72.625
0
LINE
8
BLACK
6
CONTINUOUS
10
91.025
20
-72.625
11
91.0402
21
-72.5485
0
LINE
8
BLACK
6
CONTINUOUS
10
91.0402
20
-72.5485
11
91.0836
21
-72.4836
0
LINE
8
BLACK
6
CONTINUOUS
10
91.0836
20
-72.4836
11
91.1485
21
-72.4402
0
LINE
8
BLACK
6
CONTINUOUS
10
91.1485
20
-72.4402
11
91.225
21
-72.425
0
LINE
8
BLACK
6
CONTINUOUS
10
91.225
20
-72.425
11
91.775
21
-72.425
0
LINE
8
BLACK
6
CONTINUOUS
10
91.775
20
-72.425
11
91.8515
21
-72.4402
0
LINE
8
BLACK
6
CONTINUOUS
10
93.8515
20
-72.4402
11
93.9164
21
-72.4836
0
LINE
8
BLACK
6
CONTINUOUS
10
93.9164
20
-72.4836
11
93.9598
21
-72.5485
0
LINE
8
BLACK
6
CONTINUOUS
10
93.9598
20
-72.5485
11
93.975
21
-72.625
0
LINE
8
BLACK
6
CONTINUOUS
10
93.975
20
-72.625
11
93.975
21
-73.025
0
LINE
8
BLACK
6
CONTINUOUS
10
93.975
20
-73.025
11
93.9598
21
-73.1015
0
LINE
8
BLACK
6
CONTINUOUS
10
93.9598
20
-73.1015
11
93.9164
21
-73.1664
0
LINE
8
BLACK
6
CONTINUOUS
10
93.9164
20
-73.1664
11
93.8515
21
-73.2098
0
LINE
8
BLACK
6
CONTINUOUS
10
93.8515
20
-73.2098
11
93.775
21
-73.225
0
LINE
8
BLACK
6
CONTINUOUS
10
93.775
20
-73.225
11
93.225
21
-73.225
0
LINE
8
BLACK
6
CONTINUOUS
10
93.225
20
-73.225
11
93.1485
21
-73.2098
0
LINE
8
BLACK
6
CONTINUOUS
10
93.1485
20
-73.2098
11
93.0836
21
-73.1664
0
LINE
8
BLACK
6
CONTINUOUS
10
93.0836
20
-73.1664
11
93.0402
21
-73.1015
0
LINE
8
BLACK
6
CONTINUOUS
10
93.0402
20
-73.1015
11
93.025
21
-73.025
0
LINE
8
BLACK
6
CONTINUOUS
10
93.025
20
-73.025
11
93.025
21
-72.625
0
LINE
8
BLACK
6
CONTINUOUS
10
93.025
20
-72.625
11
93.0402
21
-72.5485
0
LINE
8
BLACK
6
CONTINUOUS
10
93.0402
20
-72.5485
11
93.0836
21
-72.4836
0
LINE
8
BLACK
6
CONTINUOUS
10
93.0836
20
-72.4836
11
93.1485
21
-72.4402
0
LINE
8
BLACK
6
CONTINUOUS
10
93.1485
20
-72.4402
11
93.225
21
-72.425
0
LINE
8
BLACK
6
CONTINUOUS
10
93.225
20
-72.425
11
93.775
21
-72.425
0
LINE
8
BLACK
6
CONTINUOUS
10
93.775
20
-72.425
11
93.8515
21
-72.4402
0
LINE
8
BLACK
6
CONTINUOUS
10
95.8515
20
-72.4402
11
95.9164
21
-72.4836
0
LINE
8
BLACK
6
CONTINUOUS
10
95.9164
20
-72.4836
11
95.9598
21
-72.5485
0
LINE
8
BLACK
6
CONTINUOUS
10
95.9598
20
-72.5485
11
95.975
21
-72.625
0
LINE
8
BLACK
6
CONTINUOUS
10
95.975
20
-72.625
11
95.975
21
-73.025
0
LINE
8
BLACK
6
CONTINUOUS
10
95.975
20
-73.025
11
95.9598
21
-73.1015
0
LINE
8
BLACK
6
CONTINUOUS
10
95.9598
20
-73.1015
11
95.9164
21
-73.1664
0
LINE
8
BLACK
6
CONTINUOUS
10
95.9164
20
-73.1664
11
95.8515
21
-73.2098
0
LINE
8
BLACK
6
CONTINUOUS
10
95.8515
20
-73.2098
11
95.775
21
-73.225
0
LINE
8
BLACK
6
CONTINUOUS
10
95.775
20
-73.225
11
95.225
21
-73.225
0
LINE
8
BLACK
6
CONTINUOUS
10
95.225
20
-73.225
11
95.1485
21
-73.2098
0
LINE
8
BLACK
6
CONTINUOUS
10
95.1485
20
-73.2098
11
95.0836
21
-73.1664
0
LINE
8
BLACK
6
CONTINUOUS
10
95.0836
20
-73.1664
11
95.0402
21
-73.1015
0
LINE
8
BLACK
6
CONTINUOUS
10
95.0402
20
-73.1015
11
95.025
21
-73.025
0
LINE
8
BLACK
6
CONTINUOUS
10
95.025
20
-73.025
11
95.025
21
-72.625
0
LINE
8
BLACK
6
CONTINUOUS
10
95.025
20
-72.625
11
95.0402
21
-72.5485
0
LINE
8
BLACK
6
CONTINUOUS
10
95.0402
20
-72.5485
11
95.0836
21
-72.4836
0
LINE
8
BLACK
6
CONTINUOUS
10
95.0836
20
-72.4836
11
95.1485
21
-72.4402
0
LINE
8
BLACK
6
CONTINUOUS
10
95.1485
20
-72.4402
11
95.225
21
-72.425
0
LINE
8
BLACK
6
CONTINUOUS
10
95.225
20
-72.425
11
95.775
21
-72.425
0
LINE
8
BLACK
6
CONTINUOUS
10
95.775
20
-72.425
11
95.8515
21
-72.4402
0
LINE
8
BLACK
6
CONTINUOUS
10
101.84
20
-72.3667
11
101.911
21
-72.4141
0
LINE
8
BLACK
6
CONTINUOUS
10
101.911
20
-72.4141
11
101.958
21
-72.485
0
LINE
8
BLACK
6
CONTINUOUS
10
101.958
20
-72.485
11
101.975
21
-72.5687
0
LINE
8
BLACK
6
CONTINUOUS
10
101.975
20
-72.5687
11
101.975
21
-73.0062
0
LINE
8
BLACK
6
CONTINUOUS
10
101.975
20
-73.0062
11
101.958
21
-73.09
0
LINE
8
BLACK
6
CONTINUOUS
10
101.958
20
-73.09
11
101.911
21
-73.1609
0
LINE
8
BLACK
6
CONTINUOUS
10
101.911
20
-73.1609
11
101.84
21
-73.2083
0
LINE
8
BLACK
6
CONTINUOUS
10
101.84
20
-73.2083
11
101.756
21
-73.225
0
LINE
8
BLACK
6
CONTINUOUS
10
101.756
20
-73.225
11
101.244
21
-73.225
0
LINE
8
BLACK
6
CONTINUOUS
10
101.244
20
-73.225
11
101.16
21
-73.2083
0
LINE
8
BLACK
6
CONTINUOUS
10
101.16
20
-73.2083
11
101.089
21
-73.1609
0
LINE
8
BLACK
6
CONTINUOUS
10
101.089
20
-73.1609
11
101.042
21
-73.09
0
LINE
8
BLACK
6
CONTINUOUS
10
101.042
20
-73.09
11
101.025
21
-73.0062
0
LINE
8
BLACK
6
CONTINUOUS
10
101.025
20
-73.0062
11
101.025
21
-72.5687
0
LINE
8
BLACK
6
CONTINUOUS
10
101.025
20
-72.5687
11
101.042
21
-72.485
0
LINE
8
BLACK
6
CONTINUOUS
10
101.042
20
-72.485
11
101.089
21
-72.4141
0
LINE
8
BLACK
6
CONTINUOUS
10
101.089
20
-72.4141
11
101.16
21
-72.3667
0
LINE
8
BLACK
6
CONTINUOUS
10
101.16
20
-72.3667
11
101.244
21
-72.35
0
LINE
8
BLACK
6
CONTINUOUS
10
101.244
20
-72.35
11
101.756
21
-72.35
0
LINE
8
BLACK
6
CONTINUOUS
10
101.756
20
-72.35
11
101.84
21
-72.3667
0
LINE
8
BLACK
6
CONTINUOUS
10
101.84
20
-70.7917
11
101.911
21
-70.8391
0
LINE
8
BLACK
6
CONTINUOUS
10
101.911
20
-70.8391
11
101.958
21
-70.91
0
LINE
8
BLACK
6
CONTINUOUS
10
101.958
20
-70.91
11
101.975
21
-70.9937
0
LINE
8
BLACK
6
CONTINUOUS
10
101.975
20
-70.9937
11
101.975
21
-71.4312
0
LINE
8
BLACK
6
CONTINUOUS
10
101.975
20
-71.4312
11
101.958
21
-71.515
0
LINE
8
BLACK
6
CONTINUOUS
10
101.958
20
-71.515
11
101.911
21
-71.5859
0
LINE
8
BLACK
6
CONTINUOUS
10
101.911
20
-71.5859
11
101.84
21
-71.6333
0
LINE
8
BLACK
6
CONTINUOUS
10
101.84
20
-71.6333
11
101.756
21
-71.65
0
LINE
8
BLACK
6
CONTINUOUS
10
101.756
20
-71.65
11
101.244
21
-71.65
0
LINE
8
BLACK
6
CONTINUOUS
10
101.244
20
-71.65
11
101.16
21
-71.6333
0
LINE
8
BLACK
6
CONTINUOUS
10
101.16
20
-71.6333
11
101.089
21
-71.5859
0
LINE
8
BLACK
6
CONTINUOUS
10
101.089
20
-71.5859
11
101.042
21
-71.515
0
LINE
8
BLACK
6
CONTINUOUS
10
101.042
20
-71.515
11
101.025
21
-71.4312
0
LINE
8
BLACK
6
CONTINUOUS
10
101.025
20
-71.4312
11
101.025
21
-70.9937
0
LINE
8
BLACK
6
CONTINUOUS
10
101.025
20
-70.9937
11
101.042
21
-70.91
0
LINE
8
BLACK
6
CONTINUOUS
10
101.042
20
-70.91
11
101.089
21
-70.8391
0
LINE
8
BLACK
6
CONTINUOUS
10
101.089
20
-70.8391
11
101.16
21
-70.7917
0
LINE
8
BLACK
6
CONTINUOUS
10
101.16
20
-70.7917
11
101.244
21
-70.775
0
LINE
8
BLACK
6
CONTINUOUS
10
101.244
20
-70.775
11
101.756
21
-70.775
0
LINE
8
BLACK
6
CONTINUOUS
10
101.756
20
-70.775
11
101.84
21
-70.7917
0
LINE
8
BLACK
6
CONTINUOUS
10
93.8515
20
-70.7902
11
93.9164
21
-70.8336
0
LINE
8
BLACK
6
CONTINUOUS
10
93.9164
20
-70.8336
11
93.9598
21
-70.8985
0
LINE
8
BLACK
6
CONTINUOUS
10
93.9598
20
-70.8985
11
93.975
21
-70.975
0
LINE
8
BLACK
6
CONTINUOUS
10
93.975
20
-70.975
11
93.975
21
-71.375
0
LINE
8
BLACK
6
CONTINUOUS
10
93.975
20
-71.375
11
93.9598
21
-71.4515
0
LINE
8
BLACK
6
CONTINUOUS
10
93.9598
20
-71.4515
11
93.9164
21
-71.5164
0
LINE
8
BLACK
6
CONTINUOUS
10
93.9164
20
-71.5164
11
93.8515
21
-71.5598
0
LINE
8
BLACK
6
CONTINUOUS
10
93.8515
20
-71.5598
11
93.775
21
-71.575
0
LINE
8
BLACK
6
CONTINUOUS
10
93.775
20
-71.575
11
93.225
21
-71.575
0
LINE
8
BLACK
6
CONTINUOUS
10
93.225
20
-71.575
11
93.1485
21
-71.5598
0
LINE
8
BLACK
6
CONTINUOUS
10
93.1485
20
-71.5598
11
93.0836
21
-71.5164
0
LINE
8
BLACK
6
CONTINUOUS
10
93.0836
20
-71.5164
11
93.0402
21
-71.4515
0
LINE
8
BLACK
6
CONTINUOUS
10
93.0402
20
-71.4515
11
93.025
21
-71.375
0
LINE
8
BLACK
6
CONTINUOUS
10
93.025
20
-71.375
11
93.025
21
-70.975
0
LINE
8
BLACK
6
CONTINUOUS
10
93.025
20
-70.975
11
93.0402
21
-70.8985
0
LINE
8
BLACK
6
CONTINUOUS
10
93.0402
20
-70.8985
11
93.0836
21
-70.8336
0
LINE
8
BLACK
6
CONTINUOUS
10
93.0836
20
-70.8336
11
93.1485
21
-70.7902
0
LINE
8
BLACK
6
CONTINUOUS
10
93.1485
20
-70.7902
11
93.225
21
-70.775
0
LINE
8
BLACK
6
CONTINUOUS
10
93.225
20
-70.775
11
93.775
21
-70.775
0
LINE
8
BLACK
6
CONTINUOUS
10
93.775
20
-70.775
11
93.8515
21
-70.7902
0
LINE
8
BLACK
6
CONTINUOUS
10
95.8515
20
-70.7902
11
95.9164
21
-70.8336
0
LINE
8
BLACK
6
CONTINUOUS
10
95.9164
20
-70.8336
11
95.9598
21
-70.8985
0
LINE
8
BLACK
6
CONTINUOUS
10
95.9598
20
-70.8985
11
95.975
21
-70.975
0
LINE
8
BLACK
6
CONTINUOUS
10
95.975
20
-70.975
11
95.975
21
-71.375
0
LINE
8
BLACK
6
CONTINUOUS
10
95.975
20
-71.375
11
95.9598
21
-71.4515
0
LINE
8
BLACK
6
CONTINUOUS
10
95.9598
20
-71.4515
11
95.9164
21
-71.5164
0
LINE
8
BLACK
6
CONTINUOUS
10
95.9164
20
-71.5164
11
95.8515
21
-71.5598
0
LINE
8
BLACK
6
CONTINUOUS
10
95.8515
20
-71.5598
11
95.775
21
-71.575
0
LINE
8
BLACK
6
CONTINUOUS
10
95.775
20
-71.575
11
95.225
21
-71.575
0
LINE
8
BLACK
6
CONTINUOUS
10
95.225
20
-71.575
11
95.1485
21
-71.5598
0
LINE
8
BLACK
6
CONTINUOUS
10
95.1485
20
-71.5598
11
95.0836
21
-71.5164
0
LINE
8
BLACK
6
CONTINUOUS
10
95.0836
20
-71.5164
11
95.0402
21
-71.4515
0
LINE
8
BLACK
6
CONTINUOUS
10
95.0402
20
-71.4515
11
95.025
21
-71.375
0
LINE
8
BLACK
6
CONTINUOUS
10
95.025
20
-71.375
11
95.025
21
-70.975
0
LINE
8
BLACK
6
CONTINUOUS
10
95.025
20
-70.975
11
95.0402
21
-70.8985
0
LINE
8
BLACK
6
CONTINUOUS
10
95.0402
20
-70.8985
11
95.0836
21
-70.8336
0
LINE
8
BLACK
6
CONTINUOUS
10
95.0836
20
-70.8336
11
95.1485
21
-70.7902
0
LINE
8
BLACK
6
CONTINUOUS
10
95.1485
20
-70.7902
11
95.225
21
-70.775
0
LINE
8
BLACK
6
CONTINUOUS
10
95.225
20
-70.775
11
95.775
21
-70.775
0
LINE
8
BLACK
6
CONTINUOUS
10
95.775
20
-70.775
11
95.8515
21
-70.7902
0
LINE
8
BLACK
6
CONTINUOUS
10
91.8515
20
-70.7902
11
91.9164
21
-70.8336
0
LINE
8
BLACK
6
CONTINUOUS
10
91.9164
20
-70.8336
11
91.9598
21
-70.8985
0
LINE
8
BLACK
6
CONTINUOUS
10
91.9598
20
-70.8985
11
91.975
21
-70.975
0
LINE
8
BLACK
6
CONTINUOUS
10
91.975
20
-70.975
11
91.975
21
-71.375
0
LINE
8
BLACK
6
CONTINUOUS
10
91.975
20
-71.375
11
91.9598
21
-71.4515
0
LINE
8
BLACK
6
CONTINUOUS
10
91.9598
20
-71.4515
11
91.9164
21
-71.5164
0
LINE
8
BLACK
6
CONTINUOUS
10
91.9164
20
-71.5164
11
91.8515
21
-71.5598
0
LINE
8
BLACK
6
CONTINUOUS
10
91.8515
20
-71.5598
11
91.775
21
-71.575
0
LINE
8
BLACK
6
CONTINUOUS
10
91.775
20
-71.575
11
91.225
21
-71.575
0
LINE
8
BLACK
6
CONTINUOUS
10
91.225
20
-71.575
11
91.1485
21
-71.5598
0
LINE
8
BLACK
6
CONTINUOUS
10
91.1485
20
-71.5598
11
91.0836
21
-71.5164
0
LINE
8
BLACK
6
CONTINUOUS
10
91.0836
20
-71.5164
11
91.0402
21
-71.4515
0
LINE
8
BLACK
6
CONTINUOUS
10
91.0402
20
-71.4515
11
91.025
21
-71.375
0
LINE
8
BLACK
6
CONTINUOUS
10
91.025
20
-71.375
11
91.025
21
-70.975
0
LINE
8
BLACK
6
CONTINUOUS
10
91.025
20
-70.975
11
91.0402
21
-70.8985
0
LINE
8
BLACK
6
CONTINUOUS
10
91.0402
20
-70.8985
11
91.0836
21
-70.8336
0
LINE
8
BLACK
6
CONTINUOUS
10
91.0836
20
-70.8336
11
91.1485
21
-70.7902
0
LINE
8
BLACK
6
CONTINUOUS
10
91.1485
20
-70.7902
11
91.225
21
-70.775
0
LINE
8
BLACK
6
CONTINUOUS
10
91.225
20
-70.775
11
91.775
21
-70.775
0
LINE
8
BLACK
6
CONTINUOUS
10
91.775
20
-70.775
11
91.8515
21
-70.7902
0
LINE
8
BLACK
6
CONTINUOUS
10
89.525
20
-71.325
11
88.475
21
-71.325
0
LINE
8
BLACK
6
CONTINUOUS
10
88.475
20
-71.325
11
88.475
21
-70.675
0
LINE
8
BLACK
6
CONTINUOUS
10
88.475
20
-70.675
11
89.525
21
-70.675
0
LINE
8
BLACK
6
CONTINUOUS
10
89.525
20
-70.675
11
89.525
21
-71.325
0
LINE
8
BLACK
6
CONTINUOUS
10
85.375
20
-71.325
11
84.325
21
-71.325
0
LINE
8
BLACK
6
CONTINUOUS
10
84.325
20
-71.325
11
84.325
21
-70.675
0
LINE
8
BLACK
6
CONTINUOUS
10
84.325
20
-70.675
11
85.375
21
-70.675
0
LINE
8
BLACK
6
CONTINUOUS
10
85.375
20
-70.675
11
85.375
21
-71.325
  0
ENDSEC
  0
EOF
