%TF.GenerationSoftware,KiCad,Pcbnew,(6.0.2)*%
%TF.CreationDate,2022-09-28T21:47:16+01:00*%
%TF.ProjectId,m-link-lite,6d2d6c69-6e6b-42d6-9c69-74652e6b6963,rev?*%
%TF.SameCoordinates,Original*%
%TF.FileFunction,Soldermask,Bot*%
%TF.FilePolarity,Negative*%
%FSLAX46Y46*%
G04 Gerber Fmt 4.6, Leading zero omitted, Abs format (unit mm)*
G04 Created by KiCad (PCBNEW (6.0.2)) date 2022-09-28 21:47:16*
%MOMM*%
%LPD*%
G01*
G04 APERTURE LIST*
%ADD10O,1.700000X1.700000*%
%ADD11R,1.700000X1.700000*%
%ADD12R,1.200000X1.200000*%
%ADD13O,1.200000X1.200000*%
%ADD14R,2.500000X1.000000*%
%ADD15R,4.000000X1.000000*%
G04 APERTURE END LIST*
D10*
%TO.C,J3*%
X86360000Y-91440000D03*
X86360000Y-93980000D03*
D11*
X86360000Y-96520000D03*
D10*
X88900000Y-91440000D03*
X88900000Y-93980000D03*
D11*
X88900000Y-96520000D03*
D10*
X91440000Y-91440000D03*
X91440000Y-93980000D03*
D11*
X91440000Y-96520000D03*
D10*
X93980000Y-91440000D03*
X93980000Y-93980000D03*
D11*
X93980000Y-96520000D03*
D10*
X96520000Y-91440000D03*
X96520000Y-93980000D03*
D11*
X96520000Y-96520000D03*
D10*
X99060000Y-91440000D03*
X99060000Y-93980000D03*
D11*
X99060000Y-96520000D03*
%TD*%
D12*
%TO.C,J2*%
X81280000Y-71120000D03*
D13*
X81280000Y-73660000D03*
X81280000Y-76200000D03*
X81280000Y-78740000D03*
X81280000Y-81280000D03*
X81280000Y-83820000D03*
%TD*%
D11*
%TO.C,J1*%
X81280000Y-93980000D03*
D10*
X81280000Y-96520000D03*
%TD*%
D14*
%TO.C,U4*%
X100100000Y-71250000D03*
X100100000Y-73250000D03*
X100100000Y-75250000D03*
X100100000Y-77250000D03*
D15*
X100100000Y-79250000D03*
D14*
X100100000Y-81250000D03*
D15*
X100100000Y-83250000D03*
D14*
X100100000Y-85250000D03*
X84900000Y-85250000D03*
X84900000Y-83250000D03*
X84900000Y-81250000D03*
X84900000Y-79250000D03*
X84900000Y-77250000D03*
X84900000Y-75250000D03*
X84900000Y-73250000D03*
X84900000Y-71250000D03*
%TD*%
M02*
