%TF.GenerationSoftware,KiCad,Pcbnew,(6.0.2)*%
%TF.CreationDate,2022-09-28T21:47:16+01:00*%
%TF.ProjectId,m-link-lite,6d2d6c69-6e6b-42d6-9c69-74652e6b6963,rev?*%
%TF.SameCoordinates,Original*%
%TF.FileFunction,Soldermask,Top*%
%TF.FilePolarity,Negative*%
%FSLAX46Y46*%
G04 Gerber Fmt 4.6, Leading zero omitted, Abs format (unit mm)*
G04 Created by KiCad (PCBNEW (6.0.2)) date 2022-09-28 21:47:16*
%MOMM*%
%LPD*%
G01*
G04 APERTURE LIST*
G04 Aperture macros list*
%AMRoundRect*
0 Rectangle with rounded corners*
0 $1 Rounding radius*
0 $2 $3 $4 $5 $6 $7 $8 $9 X,Y pos of 4 corners*
0 Add a 4 corners polygon primitive as box body*
4,1,4,$2,$3,$4,$5,$6,$7,$8,$9,$2,$3,0*
0 Add four circle primitives for the rounded corners*
1,1,$1+$1,$2,$3*
1,1,$1+$1,$4,$5*
1,1,$1+$1,$6,$7*
1,1,$1+$1,$8,$9*
0 Add four rect primitives between the rounded corners*
20,1,$1+$1,$2,$3,$4,$5,0*
20,1,$1+$1,$4,$5,$6,$7,0*
20,1,$1+$1,$6,$7,$8,$9,0*
20,1,$1+$1,$8,$9,$2,$3,0*%
G04 Aperture macros list end*
%ADD10RoundRect,0.200000X-0.275000X0.200000X-0.275000X-0.200000X0.275000X-0.200000X0.275000X0.200000X0*%
%ADD11RoundRect,0.200000X-0.200000X-0.275000X0.200000X-0.275000X0.200000X0.275000X-0.200000X0.275000X0*%
%ADD12R,1.500000X2.000000*%
%ADD13R,3.800000X2.000000*%
%ADD14RoundRect,0.218750X-0.256250X0.218750X-0.256250X-0.218750X0.256250X-0.218750X0.256250X0.218750X0*%
%ADD15R,1.050000X0.650000*%
%ADD16RoundRect,0.225000X-0.225000X-0.250000X0.225000X-0.250000X0.225000X0.250000X-0.225000X0.250000X0*%
%ADD17RoundRect,0.225000X-0.250000X0.225000X-0.250000X-0.225000X0.250000X-0.225000X0.250000X0.225000X0*%
%ADD18RoundRect,0.150000X-0.725000X-0.150000X0.725000X-0.150000X0.725000X0.150000X-0.725000X0.150000X0*%
%ADD19O,1.700000X1.700000*%
%ADD20R,1.700000X1.700000*%
%ADD21RoundRect,0.225000X0.225000X0.250000X-0.225000X0.250000X-0.225000X-0.250000X0.225000X-0.250000X0*%
%ADD22RoundRect,0.200000X0.275000X-0.200000X0.275000X0.200000X-0.275000X0.200000X-0.275000X-0.200000X0*%
%ADD23R,1.200000X1.200000*%
%ADD24O,1.200000X1.200000*%
%ADD25RoundRect,0.200000X0.200000X0.275000X-0.200000X0.275000X-0.200000X-0.275000X0.200000X-0.275000X0*%
G04 APERTURE END LIST*
D10*
%TO.C,R8*%
X93000000Y-71175000D03*
X93000000Y-72825000D03*
%TD*%
D11*
%TO.C,R1*%
X80500000Y-91250000D03*
X82150000Y-91250000D03*
%TD*%
D12*
%TO.C,U1*%
X84500000Y-81900000D03*
X86800000Y-81900000D03*
D13*
X86800000Y-75600000D03*
D12*
X89100000Y-81900000D03*
%TD*%
D14*
%TO.C,D1*%
X101500000Y-71250000D03*
X101500000Y-72825000D03*
%TD*%
D15*
%TO.C,SW1*%
X89000000Y-73150000D03*
X84850000Y-73150000D03*
X84850000Y-71000000D03*
X89000000Y-71000000D03*
%TD*%
D16*
%TO.C,C1*%
X87725000Y-86200000D03*
X89275000Y-86200000D03*
%TD*%
%TO.C,C3*%
X87725000Y-84700000D03*
X89275000Y-84700000D03*
%TD*%
D17*
%TO.C,C7*%
X100500000Y-87250000D03*
X100500000Y-88800000D03*
%TD*%
D18*
%TO.C,U3*%
X93350000Y-77110000D03*
X93350000Y-78380000D03*
X93350000Y-79650000D03*
X93350000Y-80920000D03*
X93350000Y-82190000D03*
X93350000Y-83460000D03*
X93350000Y-84730000D03*
X93350000Y-86000000D03*
X98500000Y-86000000D03*
X98500000Y-84730000D03*
X98500000Y-83460000D03*
X98500000Y-82190000D03*
X98500000Y-80920000D03*
X98500000Y-79650000D03*
X98500000Y-78380000D03*
X98500000Y-77110000D03*
%TD*%
D19*
%TO.C,J3*%
X86360000Y-91440000D03*
X86360000Y-93980000D03*
D20*
X86360000Y-96520000D03*
D19*
X88900000Y-91440000D03*
X88900000Y-93980000D03*
D20*
X88900000Y-96520000D03*
D19*
X91440000Y-91440000D03*
X91440000Y-93980000D03*
D20*
X91440000Y-96520000D03*
D19*
X93980000Y-91440000D03*
X93980000Y-93980000D03*
D20*
X93980000Y-96520000D03*
D19*
X96520000Y-91440000D03*
X96520000Y-93980000D03*
D20*
X96520000Y-96520000D03*
D19*
X99060000Y-91440000D03*
X99060000Y-93980000D03*
D20*
X99060000Y-96520000D03*
%TD*%
D21*
%TO.C,C4*%
X86175000Y-84700000D03*
X84625000Y-84700000D03*
%TD*%
D22*
%TO.C,R10*%
X101500000Y-76075000D03*
X101500000Y-74425000D03*
%TD*%
D10*
%TO.C,R4*%
X96500000Y-71175000D03*
X96500000Y-72825000D03*
%TD*%
D23*
%TO.C,J2*%
X81280000Y-71120000D03*
D24*
X81280000Y-73660000D03*
X81280000Y-76200000D03*
X81280000Y-78740000D03*
X81280000Y-81280000D03*
X81280000Y-83820000D03*
%TD*%
D10*
%TO.C,R3*%
X94750000Y-71175000D03*
X94750000Y-72825000D03*
%TD*%
D17*
%TO.C,C5*%
X99250000Y-71200000D03*
X99250000Y-72750000D03*
%TD*%
D21*
%TO.C,C2*%
X86175000Y-86200000D03*
X84625000Y-86200000D03*
%TD*%
D22*
%TO.C,R6*%
X100500000Y-81000000D03*
X100500000Y-79350000D03*
%TD*%
D20*
%TO.C,J1*%
X81280000Y-93980000D03*
D19*
X81280000Y-96520000D03*
%TD*%
D25*
%TO.C,R2*%
X82150000Y-89500000D03*
X80500000Y-89500000D03*
%TD*%
D22*
%TO.C,R5*%
X91250000Y-72825000D03*
X91250000Y-71175000D03*
%TD*%
M02*
