%TF.GenerationSoftware,KiCad,Pcbnew,(6.0.2)*%
%TF.CreationDate,2022-09-28T21:47:15+01:00*%
%TF.ProjectId,m-link-lite,6d2d6c69-6e6b-42d6-9c69-74652e6b6963,rev?*%
%TF.SameCoordinates,Original*%
%TF.FileFunction,Copper,L2,Bot*%
%TF.FilePolarity,Positive*%
%FSLAX46Y46*%
G04 Gerber Fmt 4.6, Leading zero omitted, Abs format (unit mm)*
G04 Created by KiCad (PCBNEW (6.0.2)) date 2022-09-28 21:47:15*
%MOMM*%
%LPD*%
G01*
G04 APERTURE LIST*
%TA.AperFunction,ComponentPad*%
%ADD10O,1.700000X1.700000*%
%TD*%
%TA.AperFunction,ComponentPad*%
%ADD11R,1.700000X1.700000*%
%TD*%
%TA.AperFunction,ComponentPad*%
%ADD12R,1.200000X1.200000*%
%TD*%
%TA.AperFunction,ComponentPad*%
%ADD13O,1.200000X1.200000*%
%TD*%
%TA.AperFunction,SMDPad,CuDef*%
%ADD14R,2.500000X1.000000*%
%TD*%
%TA.AperFunction,SMDPad,CuDef*%
%ADD15R,4.000000X1.000000*%
%TD*%
%TA.AperFunction,ViaPad*%
%ADD16C,0.800000*%
%TD*%
%TA.AperFunction,Conductor*%
%ADD17C,0.250000*%
%TD*%
G04 APERTURE END LIST*
D10*
%TO.P,J3,1,Pin_1*%
%TO.N,/CH1*%
X86360000Y-91440000D03*
%TO.P,J3,2,Pin_2*%
%TO.N,+5V*%
X86360000Y-93980000D03*
D11*
%TO.P,J3,3,Pin_3*%
%TO.N,GND*%
X86360000Y-96520000D03*
D10*
%TO.P,J3,4,Pin_4*%
%TO.N,/CH2*%
X88900000Y-91440000D03*
%TO.P,J3,5,Pin_5*%
%TO.N,+5V*%
X88900000Y-93980000D03*
D11*
%TO.P,J3,6,Pin_6*%
%TO.N,GND*%
X88900000Y-96520000D03*
D10*
%TO.P,J3,7,Pin_7*%
%TO.N,/CH3*%
X91440000Y-91440000D03*
%TO.P,J3,8,Pin_8*%
%TO.N,+5V*%
X91440000Y-93980000D03*
D11*
%TO.P,J3,9,Pin_9*%
%TO.N,GND*%
X91440000Y-96520000D03*
D10*
%TO.P,J3,10,Pin_10*%
%TO.N,/CH4*%
X93980000Y-91440000D03*
%TO.P,J3,11,Pin_11*%
%TO.N,+5V*%
X93980000Y-93980000D03*
D11*
%TO.P,J3,12,Pin_12*%
%TO.N,GND*%
X93980000Y-96520000D03*
D10*
%TO.P,J3,13,Pin_13*%
%TO.N,/CH5*%
X96520000Y-91440000D03*
%TO.P,J3,14,Pin_14*%
%TO.N,+5V*%
X96520000Y-93980000D03*
D11*
%TO.P,J3,15,Pin_15*%
%TO.N,GND*%
X96520000Y-96520000D03*
D10*
%TO.P,J3,16,Pin_16*%
%TO.N,/CH6*%
X99060000Y-91440000D03*
%TO.P,J3,17,Pin_17*%
%TO.N,+5V*%
X99060000Y-93980000D03*
D11*
%TO.P,J3,18,Pin_18*%
%TO.N,GND*%
X99060000Y-96520000D03*
%TD*%
D12*
%TO.P,J2,1,Pin_1*%
%TO.N,+3V3*%
X81280000Y-71120000D03*
D13*
%TO.P,J2,2,Pin_2*%
%TO.N,/DTR*%
X81280000Y-73660000D03*
%TO.P,J2,3,Pin_3*%
%TO.N,/RX*%
X81280000Y-76200000D03*
%TO.P,J2,4,Pin_4*%
%TO.N,/TX*%
X81280000Y-78740000D03*
%TO.P,J2,5,Pin_5*%
%TO.N,GND*%
X81280000Y-81280000D03*
%TO.P,J2,6,Pin_6*%
%TO.N,/RESET*%
X81280000Y-83820000D03*
%TD*%
D11*
%TO.P,J1,1,Pin_1*%
%TO.N,/SENSE*%
X81280000Y-93980000D03*
D10*
%TO.P,J1,2,Pin_2*%
%TO.N,GND*%
X81280000Y-96520000D03*
%TD*%
D14*
%TO.P,U4,1,~{RST}*%
%TO.N,/RESET*%
X100100000Y-71250000D03*
%TO.P,U4,2,ADC*%
%TO.N,/ADC*%
X100100000Y-73250000D03*
%TO.P,U4,3,EN*%
%TO.N,/EN*%
X100100000Y-75250000D03*
%TO.P,U4,4,GPIO16*%
%TO.N,/LED1*%
X100100000Y-77250000D03*
D15*
%TO.P,U4,5,GPIO14*%
%TO.N,/CH5_LV*%
X100100000Y-79250000D03*
D14*
%TO.P,U4,6,GPIO12*%
%TO.N,/CH3_LV*%
X100100000Y-81250000D03*
D15*
%TO.P,U4,7,GPIO13*%
%TO.N,/CH6_LV*%
X100100000Y-83250000D03*
D14*
%TO.P,U4,8,VCC*%
%TO.N,+3V3*%
X100100000Y-85250000D03*
%TO.P,U4,15,GND*%
%TO.N,GND*%
X84900000Y-85250000D03*
%TO.P,U4,16,GPIO15*%
%TO.N,/CH4_LV*%
X84900000Y-83250000D03*
%TO.P,U4,17,GPIO2*%
%TO.N,/OE*%
X84900000Y-81250000D03*
%TO.P,U4,18,GPIO0*%
%TO.N,/DTR*%
X84900000Y-79250000D03*
%TO.P,U4,19,GPIO4*%
%TO.N,/CH1_LV*%
X84900000Y-77250000D03*
%TO.P,U4,20,GPIO5*%
%TO.N,/CH2_LV*%
X84900000Y-75250000D03*
%TO.P,U4,21,GPIO3/RXD*%
%TO.N,/TX*%
X84900000Y-73250000D03*
%TO.P,U4,22,GPIO1/TXD*%
%TO.N,/RX*%
X84900000Y-71250000D03*
%TD*%
D16*
%TO.N,GND*%
X85250000Y-92750000D03*
X102500000Y-86500000D03*
X80500000Y-87750000D03*
X81000000Y-85250000D03*
X91250000Y-74500000D03*
X79750000Y-79000000D03*
X87500000Y-89250000D03*
X89750000Y-89250000D03*
X79500000Y-86500000D03*
X83000000Y-90250000D03*
X101500000Y-96500000D03*
X80100000Y-69600000D03*
X96750000Y-78500000D03*
X88250000Y-78250000D03*
X93000000Y-89250000D03*
X79500000Y-96500000D03*
X97500000Y-89500000D03*
X88250000Y-79250000D03*
X90250000Y-79500000D03*
X102500000Y-84500000D03*
X87750000Y-73250000D03*
X87000000Y-70750000D03*
X95200000Y-76900000D03*
X102500000Y-82000000D03*
X79500000Y-91750000D03*
X102500000Y-80500000D03*
X79750000Y-84000000D03*
X102500000Y-69900000D03*
X89250000Y-87500000D03*
X101500000Y-94000000D03*
X83649960Y-69600000D03*
X95250000Y-89400000D03*
X89500000Y-74500000D03*
X96800000Y-76900000D03*
X95250000Y-78500000D03*
X91250000Y-76000000D03*
X84000000Y-98000000D03*
X83000000Y-93250000D03*
X93500000Y-87500000D03*
X79750000Y-76750000D03*
X83980000Y-96520000D03*
X79750000Y-81500000D03*
X101500000Y-91500000D03*
X79500000Y-89250000D03*
X81250000Y-98500000D03*
X84000000Y-95000000D03*
X97900000Y-70400000D03*
X101500000Y-89000000D03*
%TO.N,/TX*%
X82750000Y-75250000D03*
%TO.N,/RESET*%
X96500000Y-73750000D03*
%TO.N,/ADC*%
X82250000Y-86250000D03*
%TO.N,/EN*%
X94750000Y-75250000D03*
%TO.N,/CH6_LV*%
X96500000Y-84250000D03*
%TO.N,/OE*%
X93012299Y-75262299D03*
%TO.N,/LED1*%
X102000000Y-77250000D03*
%TO.N,/CH1_LV*%
X90145500Y-77250000D03*
%TO.N,/CH2_LV*%
X90250000Y-78250000D03*
%TO.N,/CH3_LV*%
X96750000Y-81250000D03*
%TO.N,/CH4_LV*%
X91825460Y-83250000D03*
%TO.N,/CH5_LV*%
X95262299Y-83012299D03*
%TO.N,+3V3*%
X85500000Y-87500000D03*
X100500000Y-86500000D03*
%TD*%
D17*
%TO.N,/DTR*%
X83000000Y-76524614D02*
X83000000Y-79000000D01*
X83000000Y-79000000D02*
X83250000Y-79250000D01*
X83250000Y-79250000D02*
X84900000Y-79250000D01*
X81280000Y-73660000D02*
X81280000Y-74804614D01*
X81280000Y-74804614D02*
X83000000Y-76524614D01*
%TO.N,/RX*%
X81280000Y-76200000D02*
X80000000Y-74920000D01*
X80750000Y-72250000D02*
X83250000Y-72250000D01*
X80000000Y-74920000D02*
X80000000Y-73000000D01*
X83250000Y-72250000D02*
X84250000Y-71250000D01*
X80000000Y-73000000D02*
X80750000Y-72250000D01*
X84250000Y-71250000D02*
X84900000Y-71250000D01*
%TO.N,/TX*%
X84900000Y-73250000D02*
X84250000Y-73250000D01*
X84900000Y-73250000D02*
X84150000Y-73250000D01*
X82750000Y-75250000D02*
X82750000Y-74750000D01*
X84250000Y-73250000D02*
X82750000Y-74750000D01*
%TO.N,/RESET*%
X93500000Y-73750000D02*
X92000000Y-75250000D01*
X83250000Y-80250000D02*
X91250000Y-80250000D01*
X96500000Y-73750000D02*
X93500000Y-73750000D01*
X82500000Y-82600000D02*
X82500000Y-81000000D01*
X92000000Y-79500000D02*
X92000000Y-75250000D01*
X91250000Y-80250000D02*
X92000000Y-79500000D01*
X100100000Y-71250000D02*
X98500000Y-71250000D01*
X98500000Y-71250000D02*
X96500000Y-73250000D01*
X82500000Y-81000000D02*
X83250000Y-80250000D01*
X96500000Y-73250000D02*
X96500000Y-73750000D01*
X81280000Y-83820000D02*
X82500000Y-82600000D01*
%TO.N,/ADC*%
X86074511Y-82425489D02*
X83325489Y-82425489D01*
X82250000Y-83500000D02*
X82250000Y-86250000D01*
X83325489Y-82425489D02*
X83000000Y-82750978D01*
X86500000Y-82000000D02*
X86074511Y-82425489D01*
X94475386Y-74500000D02*
X94000000Y-74975386D01*
X97250000Y-74500000D02*
X94475386Y-74500000D01*
X92750000Y-82000000D02*
X86500000Y-82000000D01*
X100100000Y-73250000D02*
X98500000Y-73250000D01*
X94000000Y-80750000D02*
X92750000Y-82000000D01*
X82999022Y-82750978D02*
X82250000Y-83500000D01*
X94000000Y-74975386D02*
X94000000Y-80750000D01*
X98500000Y-73250000D02*
X97250000Y-74500000D01*
X83000000Y-82750978D02*
X82999022Y-82750978D01*
%TO.N,/EN*%
X100100000Y-75250000D02*
X94750000Y-75250000D01*
%TO.N,/CH6_LV*%
X100100000Y-83250000D02*
X97500000Y-83250000D01*
X97500000Y-83250000D02*
X96500000Y-84250000D01*
%TO.N,/OE*%
X84900000Y-81250000D02*
X86500000Y-81250000D01*
X92000000Y-81000000D02*
X93012299Y-79987701D01*
X86750000Y-81000000D02*
X92000000Y-81000000D01*
X93012299Y-79987701D02*
X93012299Y-75262299D01*
X86500000Y-81250000D02*
X86750000Y-81000000D01*
%TO.N,/LED1*%
X102000000Y-77250000D02*
X100100000Y-77250000D01*
%TO.N,/CH1_LV*%
X84900000Y-77250000D02*
X90145500Y-77250000D01*
%TO.N,/CH2_LV*%
X90870011Y-77629989D02*
X90250000Y-78250000D01*
X84900000Y-75250000D02*
X89250000Y-75250000D01*
X90870011Y-76870011D02*
X90870011Y-77629989D01*
X89250000Y-75250000D02*
X90870011Y-76870011D01*
%TO.N,/CH3_LV*%
X100100000Y-81250000D02*
X96750000Y-81250000D01*
%TO.N,/CH4_LV*%
X84900000Y-83250000D02*
X91825460Y-83250000D01*
%TO.N,/CH5_LV*%
X100100000Y-79250000D02*
X96750000Y-79250000D01*
X96750000Y-79250000D02*
X95262299Y-80737701D01*
X95262299Y-80737701D02*
X95262299Y-83012299D01*
%TO.N,+3V3*%
X85500000Y-87500000D02*
X86500000Y-88500000D01*
X98500000Y-88500000D02*
X100500000Y-86500000D01*
X100500000Y-86500000D02*
X100500000Y-85650000D01*
X100500000Y-85650000D02*
X100100000Y-85250000D01*
X86500000Y-88500000D02*
X98500000Y-88500000D01*
%TD*%
%TA.AperFunction,Conductor*%
%TO.N,GND*%
G36*
X84361548Y-69028452D02*
G01*
X84380000Y-69073000D01*
X84380000Y-69950000D01*
X100620000Y-69950000D01*
X100620000Y-69073000D01*
X100638452Y-69028452D01*
X100683000Y-69010000D01*
X101997249Y-69010000D01*
X101998100Y-69010037D01*
X102000000Y-69010824D01*
X102001538Y-69010187D01*
X102002740Y-69010240D01*
X102166421Y-69024560D01*
X102177236Y-69026467D01*
X102333277Y-69068278D01*
X102343596Y-69072034D01*
X102345668Y-69073000D01*
X102490005Y-69140306D01*
X102499512Y-69145794D01*
X102631844Y-69238454D01*
X102640257Y-69245513D01*
X102754487Y-69359743D01*
X102761546Y-69368156D01*
X102849013Y-69493071D01*
X102854206Y-69500488D01*
X102859696Y-69509998D01*
X102927966Y-69656404D01*
X102931722Y-69666723D01*
X102973533Y-69822764D01*
X102975440Y-69833579D01*
X102989760Y-69997260D01*
X102989813Y-69998462D01*
X102989176Y-70000000D01*
X102989963Y-70001900D01*
X102990000Y-70002751D01*
X102990000Y-97997249D01*
X102989963Y-97998100D01*
X102989176Y-98000000D01*
X102989813Y-98001538D01*
X102989760Y-98002740D01*
X102975440Y-98166421D01*
X102973533Y-98177236D01*
X102931722Y-98333277D01*
X102927966Y-98343596D01*
X102859696Y-98490002D01*
X102854208Y-98499509D01*
X102787464Y-98594829D01*
X102761546Y-98631844D01*
X102754487Y-98640257D01*
X102640257Y-98754487D01*
X102631844Y-98761546D01*
X102499512Y-98854206D01*
X102490005Y-98859694D01*
X102409655Y-98897162D01*
X102343596Y-98927966D01*
X102333277Y-98931722D01*
X102177236Y-98973533D01*
X102166421Y-98975440D01*
X102002740Y-98989760D01*
X102001538Y-98989813D01*
X102000000Y-98989176D01*
X101998100Y-98989963D01*
X101997249Y-98990000D01*
X80002751Y-98990000D01*
X80001900Y-98989963D01*
X80000000Y-98989176D01*
X79998462Y-98989813D01*
X79997260Y-98989760D01*
X79833579Y-98975440D01*
X79822764Y-98973533D01*
X79666723Y-98931722D01*
X79656404Y-98927966D01*
X79590345Y-98897162D01*
X79509995Y-98859694D01*
X79500488Y-98854206D01*
X79368156Y-98761546D01*
X79359743Y-98754487D01*
X79245513Y-98640257D01*
X79238454Y-98631844D01*
X79212536Y-98594829D01*
X79145792Y-98499509D01*
X79140304Y-98490002D01*
X79072034Y-98343596D01*
X79068278Y-98333277D01*
X79026467Y-98177236D01*
X79024560Y-98166421D01*
X79010240Y-98002740D01*
X79010187Y-98001538D01*
X79010824Y-98000000D01*
X79010037Y-97998100D01*
X79010000Y-97997249D01*
X79010000Y-96781769D01*
X80207352Y-96781769D01*
X80234154Y-96887304D01*
X80236075Y-96892726D01*
X80318605Y-97071746D01*
X80321476Y-97076719D01*
X80435250Y-97237706D01*
X80438983Y-97242077D01*
X80580190Y-97379634D01*
X80584649Y-97383245D01*
X80748562Y-97492769D01*
X80753611Y-97495510D01*
X80934735Y-97573327D01*
X80940195Y-97575101D01*
X81013779Y-97591752D01*
X81023231Y-97590127D01*
X81025962Y-97586263D01*
X81534000Y-97586263D01*
X81537671Y-97595125D01*
X81542134Y-97596974D01*
X81728227Y-97533803D01*
X81733484Y-97531462D01*
X81905466Y-97435147D01*
X81910218Y-97431882D01*
X81958266Y-97391921D01*
X85256001Y-97391921D01*
X85256604Y-97398050D01*
X85269526Y-97463020D01*
X85274185Y-97474266D01*
X85323429Y-97547965D01*
X85332035Y-97556571D01*
X85405737Y-97605817D01*
X85416977Y-97610473D01*
X85481951Y-97623397D01*
X85488077Y-97624000D01*
X86093467Y-97624000D01*
X86102329Y-97620329D01*
X86106000Y-97611467D01*
X86106000Y-97611466D01*
X86614000Y-97611466D01*
X86617671Y-97620328D01*
X86626533Y-97623999D01*
X87231921Y-97623999D01*
X87238050Y-97623396D01*
X87303020Y-97610474D01*
X87314266Y-97605815D01*
X87387965Y-97556571D01*
X87396571Y-97547965D01*
X87445817Y-97474263D01*
X87450473Y-97463023D01*
X87463397Y-97398049D01*
X87464000Y-97391923D01*
X87464000Y-97391921D01*
X87796001Y-97391921D01*
X87796604Y-97398050D01*
X87809526Y-97463020D01*
X87814185Y-97474266D01*
X87863429Y-97547965D01*
X87872035Y-97556571D01*
X87945737Y-97605817D01*
X87956977Y-97610473D01*
X88021951Y-97623397D01*
X88028077Y-97624000D01*
X88633467Y-97624000D01*
X88642329Y-97620329D01*
X88646000Y-97611467D01*
X88646000Y-97611466D01*
X89154000Y-97611466D01*
X89157671Y-97620328D01*
X89166533Y-97623999D01*
X89771921Y-97623999D01*
X89778050Y-97623396D01*
X89843020Y-97610474D01*
X89854266Y-97605815D01*
X89927965Y-97556571D01*
X89936571Y-97547965D01*
X89985817Y-97474263D01*
X89990473Y-97463023D01*
X90003397Y-97398049D01*
X90004000Y-97391923D01*
X90004000Y-97391921D01*
X90336001Y-97391921D01*
X90336604Y-97398050D01*
X90349526Y-97463020D01*
X90354185Y-97474266D01*
X90403429Y-97547965D01*
X90412035Y-97556571D01*
X90485737Y-97605817D01*
X90496977Y-97610473D01*
X90561951Y-97623397D01*
X90568077Y-97624000D01*
X91173467Y-97624000D01*
X91182329Y-97620329D01*
X91186000Y-97611467D01*
X91186000Y-97611466D01*
X91694000Y-97611466D01*
X91697671Y-97620328D01*
X91706533Y-97623999D01*
X92311921Y-97623999D01*
X92318050Y-97623396D01*
X92383020Y-97610474D01*
X92394266Y-97605815D01*
X92467965Y-97556571D01*
X92476571Y-97547965D01*
X92525817Y-97474263D01*
X92530473Y-97463023D01*
X92543397Y-97398049D01*
X92544000Y-97391923D01*
X92544000Y-97391921D01*
X92876001Y-97391921D01*
X92876604Y-97398050D01*
X92889526Y-97463020D01*
X92894185Y-97474266D01*
X92943429Y-97547965D01*
X92952035Y-97556571D01*
X93025737Y-97605817D01*
X93036977Y-97610473D01*
X93101951Y-97623397D01*
X93108077Y-97624000D01*
X93713467Y-97624000D01*
X93722329Y-97620329D01*
X93726000Y-97611467D01*
X93726000Y-97611466D01*
X94234000Y-97611466D01*
X94237671Y-97620328D01*
X94246533Y-97623999D01*
X94851921Y-97623999D01*
X94858050Y-97623396D01*
X94923020Y-97610474D01*
X94934266Y-97605815D01*
X95007965Y-97556571D01*
X95016571Y-97547965D01*
X95065817Y-97474263D01*
X95070473Y-97463023D01*
X95083397Y-97398049D01*
X95084000Y-97391923D01*
X95084000Y-97391921D01*
X95416001Y-97391921D01*
X95416604Y-97398050D01*
X95429526Y-97463020D01*
X95434185Y-97474266D01*
X95483429Y-97547965D01*
X95492035Y-97556571D01*
X95565737Y-97605817D01*
X95576977Y-97610473D01*
X95641951Y-97623397D01*
X95648077Y-97624000D01*
X96253467Y-97624000D01*
X96262329Y-97620329D01*
X96266000Y-97611467D01*
X96266000Y-97611466D01*
X96774000Y-97611466D01*
X96777671Y-97620328D01*
X96786533Y-97623999D01*
X97391921Y-97623999D01*
X97398050Y-97623396D01*
X97463020Y-97610474D01*
X97474266Y-97605815D01*
X97547965Y-97556571D01*
X97556571Y-97547965D01*
X97605817Y-97474263D01*
X97610473Y-97463023D01*
X97623397Y-97398049D01*
X97624000Y-97391923D01*
X97624000Y-97391921D01*
X97956001Y-97391921D01*
X97956604Y-97398050D01*
X97969526Y-97463020D01*
X97974185Y-97474266D01*
X98023429Y-97547965D01*
X98032035Y-97556571D01*
X98105737Y-97605817D01*
X98116977Y-97610473D01*
X98181951Y-97623397D01*
X98188077Y-97624000D01*
X98793467Y-97624000D01*
X98802329Y-97620329D01*
X98806000Y-97611467D01*
X98806000Y-97611466D01*
X99314000Y-97611466D01*
X99317671Y-97620328D01*
X99326533Y-97623999D01*
X99931921Y-97623999D01*
X99938050Y-97623396D01*
X100003020Y-97610474D01*
X100014266Y-97605815D01*
X100087965Y-97556571D01*
X100096571Y-97547965D01*
X100145817Y-97474263D01*
X100150473Y-97463023D01*
X100163397Y-97398049D01*
X100164000Y-97391923D01*
X100164000Y-96786533D01*
X100160329Y-96777671D01*
X100151467Y-96774000D01*
X99326533Y-96774000D01*
X99317671Y-96777671D01*
X99314000Y-96786533D01*
X99314000Y-97611466D01*
X98806000Y-97611466D01*
X98806000Y-96786533D01*
X98802329Y-96777671D01*
X98793467Y-96774000D01*
X97968534Y-96774000D01*
X97959672Y-96777671D01*
X97956001Y-96786533D01*
X97956001Y-97391921D01*
X97624000Y-97391921D01*
X97624000Y-96786533D01*
X97620329Y-96777671D01*
X97611467Y-96774000D01*
X96786533Y-96774000D01*
X96777671Y-96777671D01*
X96774000Y-96786533D01*
X96774000Y-97611466D01*
X96266000Y-97611466D01*
X96266000Y-96786533D01*
X96262329Y-96777671D01*
X96253467Y-96774000D01*
X95428534Y-96774000D01*
X95419672Y-96777671D01*
X95416001Y-96786533D01*
X95416001Y-97391921D01*
X95084000Y-97391921D01*
X95084000Y-96786533D01*
X95080329Y-96777671D01*
X95071467Y-96774000D01*
X94246533Y-96774000D01*
X94237671Y-96777671D01*
X94234000Y-96786533D01*
X94234000Y-97611466D01*
X93726000Y-97611466D01*
X93726000Y-96786533D01*
X93722329Y-96777671D01*
X93713467Y-96774000D01*
X92888534Y-96774000D01*
X92879672Y-96777671D01*
X92876001Y-96786533D01*
X92876001Y-97391921D01*
X92544000Y-97391921D01*
X92544000Y-96786533D01*
X92540329Y-96777671D01*
X92531467Y-96774000D01*
X91706533Y-96774000D01*
X91697671Y-96777671D01*
X91694000Y-96786533D01*
X91694000Y-97611466D01*
X91186000Y-97611466D01*
X91186000Y-96786533D01*
X91182329Y-96777671D01*
X91173467Y-96774000D01*
X90348534Y-96774000D01*
X90339672Y-96777671D01*
X90336001Y-96786533D01*
X90336001Y-97391921D01*
X90004000Y-97391921D01*
X90004000Y-96786533D01*
X90000329Y-96777671D01*
X89991467Y-96774000D01*
X89166533Y-96774000D01*
X89157671Y-96777671D01*
X89154000Y-96786533D01*
X89154000Y-97611466D01*
X88646000Y-97611466D01*
X88646000Y-96786533D01*
X88642329Y-96777671D01*
X88633467Y-96774000D01*
X87808534Y-96774000D01*
X87799672Y-96777671D01*
X87796001Y-96786533D01*
X87796001Y-97391921D01*
X87464000Y-97391921D01*
X87464000Y-96786533D01*
X87460329Y-96777671D01*
X87451467Y-96774000D01*
X86626533Y-96774000D01*
X86617671Y-96777671D01*
X86614000Y-96786533D01*
X86614000Y-97611466D01*
X86106000Y-97611466D01*
X86106000Y-96786533D01*
X86102329Y-96777671D01*
X86093467Y-96774000D01*
X85268534Y-96774000D01*
X85259672Y-96777671D01*
X85256001Y-96786533D01*
X85256001Y-97391921D01*
X81958266Y-97391921D01*
X82061763Y-97305844D01*
X82065844Y-97301763D01*
X82191882Y-97150218D01*
X82195147Y-97145466D01*
X82291462Y-96973484D01*
X82293803Y-96968227D01*
X82356367Y-96783920D01*
X82354637Y-96777105D01*
X82349417Y-96774000D01*
X81546533Y-96774000D01*
X81537671Y-96777671D01*
X81534000Y-96786533D01*
X81534000Y-97586263D01*
X81025962Y-97586263D01*
X81026000Y-97586209D01*
X81026000Y-96786533D01*
X81022329Y-96777671D01*
X81013467Y-96774000D01*
X80217912Y-96774000D01*
X80209050Y-96777671D01*
X80207352Y-96781769D01*
X79010000Y-96781769D01*
X79010000Y-96254031D01*
X80206506Y-96254031D01*
X80207383Y-96263584D01*
X80210288Y-96266000D01*
X81013467Y-96266000D01*
X81022329Y-96262329D01*
X81026000Y-96253467D01*
X81534000Y-96253467D01*
X81537671Y-96262329D01*
X81546533Y-96266000D01*
X82342980Y-96266000D01*
X82351842Y-96262329D01*
X82353410Y-96258544D01*
X82351978Y-96253467D01*
X85256000Y-96253467D01*
X85259671Y-96262329D01*
X85268533Y-96266000D01*
X86093467Y-96266000D01*
X86102329Y-96262329D01*
X86106000Y-96253467D01*
X86614000Y-96253467D01*
X86617671Y-96262329D01*
X86626533Y-96266000D01*
X87451466Y-96266000D01*
X87460328Y-96262329D01*
X87463999Y-96253467D01*
X87796000Y-96253467D01*
X87799671Y-96262329D01*
X87808533Y-96266000D01*
X88633467Y-96266000D01*
X88642329Y-96262329D01*
X88646000Y-96253467D01*
X89154000Y-96253467D01*
X89157671Y-96262329D01*
X89166533Y-96266000D01*
X89991466Y-96266000D01*
X90000328Y-96262329D01*
X90003999Y-96253467D01*
X90336000Y-96253467D01*
X90339671Y-96262329D01*
X90348533Y-96266000D01*
X91173467Y-96266000D01*
X91182329Y-96262329D01*
X91186000Y-96253467D01*
X91694000Y-96253467D01*
X91697671Y-96262329D01*
X91706533Y-96266000D01*
X92531466Y-96266000D01*
X92540328Y-96262329D01*
X92543999Y-96253467D01*
X92876000Y-96253467D01*
X92879671Y-96262329D01*
X92888533Y-96266000D01*
X93713467Y-96266000D01*
X93722329Y-96262329D01*
X93726000Y-96253467D01*
X94234000Y-96253467D01*
X94237671Y-96262329D01*
X94246533Y-96266000D01*
X95071466Y-96266000D01*
X95080328Y-96262329D01*
X95083999Y-96253467D01*
X95416000Y-96253467D01*
X95419671Y-96262329D01*
X95428533Y-96266000D01*
X96253467Y-96266000D01*
X96262329Y-96262329D01*
X96266000Y-96253467D01*
X96774000Y-96253467D01*
X96777671Y-96262329D01*
X96786533Y-96266000D01*
X97611466Y-96266000D01*
X97620328Y-96262329D01*
X97623999Y-96253467D01*
X97956000Y-96253467D01*
X97959671Y-96262329D01*
X97968533Y-96266000D01*
X98793467Y-96266000D01*
X98802329Y-96262329D01*
X98806000Y-96253467D01*
X99314000Y-96253467D01*
X99317671Y-96262329D01*
X99326533Y-96266000D01*
X100151466Y-96266000D01*
X100160328Y-96262329D01*
X100163999Y-96253467D01*
X100163999Y-95648079D01*
X100163396Y-95641950D01*
X100150474Y-95576980D01*
X100145815Y-95565734D01*
X100096571Y-95492035D01*
X100087965Y-95483429D01*
X100014263Y-95434183D01*
X100003023Y-95429527D01*
X99938049Y-95416603D01*
X99931923Y-95416000D01*
X99326533Y-95416000D01*
X99317671Y-95419671D01*
X99314000Y-95428533D01*
X99314000Y-96253467D01*
X98806000Y-96253467D01*
X98806000Y-95428534D01*
X98802329Y-95419672D01*
X98793467Y-95416001D01*
X98188079Y-95416001D01*
X98181950Y-95416604D01*
X98116980Y-95429526D01*
X98105734Y-95434185D01*
X98032035Y-95483429D01*
X98023429Y-95492035D01*
X97974183Y-95565737D01*
X97969527Y-95576977D01*
X97956603Y-95641951D01*
X97956000Y-95648077D01*
X97956000Y-96253467D01*
X97623999Y-96253467D01*
X97623999Y-95648079D01*
X97623396Y-95641950D01*
X97610474Y-95576980D01*
X97605815Y-95565734D01*
X97556571Y-95492035D01*
X97547965Y-95483429D01*
X97474263Y-95434183D01*
X97463023Y-95429527D01*
X97398049Y-95416603D01*
X97391923Y-95416000D01*
X96786533Y-95416000D01*
X96777671Y-95419671D01*
X96774000Y-95428533D01*
X96774000Y-96253467D01*
X96266000Y-96253467D01*
X96266000Y-95428534D01*
X96262329Y-95419672D01*
X96253467Y-95416001D01*
X95648079Y-95416001D01*
X95641950Y-95416604D01*
X95576980Y-95429526D01*
X95565734Y-95434185D01*
X95492035Y-95483429D01*
X95483429Y-95492035D01*
X95434183Y-95565737D01*
X95429527Y-95576977D01*
X95416603Y-95641951D01*
X95416000Y-95648077D01*
X95416000Y-96253467D01*
X95083999Y-96253467D01*
X95083999Y-95648079D01*
X95083396Y-95641950D01*
X95070474Y-95576980D01*
X95065815Y-95565734D01*
X95016571Y-95492035D01*
X95007965Y-95483429D01*
X94934263Y-95434183D01*
X94923023Y-95429527D01*
X94858049Y-95416603D01*
X94851923Y-95416000D01*
X94246533Y-95416000D01*
X94237671Y-95419671D01*
X94234000Y-95428533D01*
X94234000Y-96253467D01*
X93726000Y-96253467D01*
X93726000Y-95428534D01*
X93722329Y-95419672D01*
X93713467Y-95416001D01*
X93108079Y-95416001D01*
X93101950Y-95416604D01*
X93036980Y-95429526D01*
X93025734Y-95434185D01*
X92952035Y-95483429D01*
X92943429Y-95492035D01*
X92894183Y-95565737D01*
X92889527Y-95576977D01*
X92876603Y-95641951D01*
X92876000Y-95648077D01*
X92876000Y-96253467D01*
X92543999Y-96253467D01*
X92543999Y-95648079D01*
X92543396Y-95641950D01*
X92530474Y-95576980D01*
X92525815Y-95565734D01*
X92476571Y-95492035D01*
X92467965Y-95483429D01*
X92394263Y-95434183D01*
X92383023Y-95429527D01*
X92318049Y-95416603D01*
X92311923Y-95416000D01*
X91706533Y-95416000D01*
X91697671Y-95419671D01*
X91694000Y-95428533D01*
X91694000Y-96253467D01*
X91186000Y-96253467D01*
X91186000Y-95428534D01*
X91182329Y-95419672D01*
X91173467Y-95416001D01*
X90568079Y-95416001D01*
X90561950Y-95416604D01*
X90496980Y-95429526D01*
X90485734Y-95434185D01*
X90412035Y-95483429D01*
X90403429Y-95492035D01*
X90354183Y-95565737D01*
X90349527Y-95576977D01*
X90336603Y-95641951D01*
X90336000Y-95648077D01*
X90336000Y-96253467D01*
X90003999Y-96253467D01*
X90003999Y-95648079D01*
X90003396Y-95641950D01*
X89990474Y-95576980D01*
X89985815Y-95565734D01*
X89936571Y-95492035D01*
X89927965Y-95483429D01*
X89854263Y-95434183D01*
X89843023Y-95429527D01*
X89778049Y-95416603D01*
X89771923Y-95416000D01*
X89166533Y-95416000D01*
X89157671Y-95419671D01*
X89154000Y-95428533D01*
X89154000Y-96253467D01*
X88646000Y-96253467D01*
X88646000Y-95428534D01*
X88642329Y-95419672D01*
X88633467Y-95416001D01*
X88028079Y-95416001D01*
X88021950Y-95416604D01*
X87956980Y-95429526D01*
X87945734Y-95434185D01*
X87872035Y-95483429D01*
X87863429Y-95492035D01*
X87814183Y-95565737D01*
X87809527Y-95576977D01*
X87796603Y-95641951D01*
X87796000Y-95648077D01*
X87796000Y-96253467D01*
X87463999Y-96253467D01*
X87463999Y-95648079D01*
X87463396Y-95641950D01*
X87450474Y-95576980D01*
X87445815Y-95565734D01*
X87396571Y-95492035D01*
X87387965Y-95483429D01*
X87314263Y-95434183D01*
X87303023Y-95429527D01*
X87238049Y-95416603D01*
X87231923Y-95416000D01*
X86626533Y-95416000D01*
X86617671Y-95419671D01*
X86614000Y-95428533D01*
X86614000Y-96253467D01*
X86106000Y-96253467D01*
X86106000Y-95428534D01*
X86102329Y-95419672D01*
X86093467Y-95416001D01*
X85488079Y-95416001D01*
X85481950Y-95416604D01*
X85416980Y-95429526D01*
X85405734Y-95434185D01*
X85332035Y-95483429D01*
X85323429Y-95492035D01*
X85274183Y-95565737D01*
X85269527Y-95576977D01*
X85256603Y-95641951D01*
X85256000Y-95648077D01*
X85256000Y-96253467D01*
X82351978Y-96253467D01*
X82315873Y-96125445D01*
X82313811Y-96120076D01*
X82226625Y-95943279D01*
X82223622Y-95938379D01*
X82105671Y-95780424D01*
X82101830Y-95776159D01*
X81957075Y-95642348D01*
X81952508Y-95638843D01*
X81785793Y-95533654D01*
X81780672Y-95531044D01*
X81597578Y-95457998D01*
X81592062Y-95456364D01*
X81546292Y-95447260D01*
X81536883Y-95449131D01*
X81534000Y-95453447D01*
X81534000Y-96253467D01*
X81026000Y-96253467D01*
X81026000Y-95455918D01*
X81022329Y-95447056D01*
X81017142Y-95444907D01*
X80995889Y-95448559D01*
X80990326Y-95450050D01*
X80805390Y-95518277D01*
X80800199Y-95520752D01*
X80630783Y-95621545D01*
X80626136Y-95624921D01*
X80477927Y-95754897D01*
X80473968Y-95759069D01*
X80351932Y-95913870D01*
X80348794Y-95918703D01*
X80257013Y-96093148D01*
X80254809Y-96098469D01*
X80206506Y-96254031D01*
X79010000Y-96254031D01*
X79010000Y-94849748D01*
X80229500Y-94849748D01*
X80241133Y-94908231D01*
X80244580Y-94913390D01*
X80244581Y-94913392D01*
X80266232Y-94945794D01*
X80285448Y-94974552D01*
X80290611Y-94978002D01*
X80346608Y-95015419D01*
X80346610Y-95015420D01*
X80351769Y-95018867D01*
X80357855Y-95020078D01*
X80357856Y-95020078D01*
X80372930Y-95023076D01*
X80410252Y-95030500D01*
X82149748Y-95030500D01*
X82187070Y-95023076D01*
X82202144Y-95020078D01*
X82202145Y-95020078D01*
X82208231Y-95018867D01*
X82213390Y-95015420D01*
X82213392Y-95015419D01*
X82269389Y-94978002D01*
X82274552Y-94974552D01*
X82293768Y-94945794D01*
X82315419Y-94913392D01*
X82315420Y-94913390D01*
X82318867Y-94908231D01*
X82330500Y-94849748D01*
X82330500Y-93965262D01*
X85304520Y-93965262D01*
X85321759Y-94170553D01*
X85378544Y-94368586D01*
X85472712Y-94551818D01*
X85474624Y-94554230D01*
X85474627Y-94554235D01*
X85582806Y-94690723D01*
X85600677Y-94713270D01*
X85603021Y-94715265D01*
X85603022Y-94715266D01*
X85661820Y-94765307D01*
X85757564Y-94846791D01*
X85803828Y-94872647D01*
X85934708Y-94945794D01*
X85934711Y-94945795D01*
X85937398Y-94947297D01*
X86005390Y-94969389D01*
X86130398Y-95010007D01*
X86130401Y-95010008D01*
X86133329Y-95010959D01*
X86136390Y-95011324D01*
X86334837Y-95034987D01*
X86334842Y-95034987D01*
X86337894Y-95035351D01*
X86340962Y-95035115D01*
X86340966Y-95035115D01*
X86540225Y-95019783D01*
X86540229Y-95019782D01*
X86543300Y-95019546D01*
X86546268Y-95018717D01*
X86546270Y-95018717D01*
X86642512Y-94991846D01*
X86741725Y-94964145D01*
X86925610Y-94871258D01*
X86949259Y-94852782D01*
X87085525Y-94746319D01*
X87087951Y-94744424D01*
X87222564Y-94588472D01*
X87324323Y-94409344D01*
X87336970Y-94371327D01*
X87388380Y-94216783D01*
X87388381Y-94216780D01*
X87389351Y-94213863D01*
X87415171Y-94009474D01*
X87415583Y-93980000D01*
X87414138Y-93965262D01*
X87844520Y-93965262D01*
X87861759Y-94170553D01*
X87918544Y-94368586D01*
X88012712Y-94551818D01*
X88014624Y-94554230D01*
X88014627Y-94554235D01*
X88122806Y-94690723D01*
X88140677Y-94713270D01*
X88143021Y-94715265D01*
X88143022Y-94715266D01*
X88201820Y-94765307D01*
X88297564Y-94846791D01*
X88343828Y-94872647D01*
X88474708Y-94945794D01*
X88474711Y-94945795D01*
X88477398Y-94947297D01*
X88545390Y-94969389D01*
X88670398Y-95010007D01*
X88670401Y-95010008D01*
X88673329Y-95010959D01*
X88676390Y-95011324D01*
X88874837Y-95034987D01*
X88874842Y-95034987D01*
X88877894Y-95035351D01*
X88880962Y-95035115D01*
X88880966Y-95035115D01*
X89080225Y-95019783D01*
X89080229Y-95019782D01*
X89083300Y-95019546D01*
X89086268Y-95018717D01*
X89086270Y-95018717D01*
X89182512Y-94991846D01*
X89281725Y-94964145D01*
X89465610Y-94871258D01*
X89489259Y-94852782D01*
X89625525Y-94746319D01*
X89627951Y-94744424D01*
X89762564Y-94588472D01*
X89864323Y-94409344D01*
X89876970Y-94371327D01*
X89928380Y-94216783D01*
X89928381Y-94216780D01*
X89929351Y-94213863D01*
X89955171Y-94009474D01*
X89955583Y-93980000D01*
X89954138Y-93965262D01*
X90384520Y-93965262D01*
X90401759Y-94170553D01*
X90458544Y-94368586D01*
X90552712Y-94551818D01*
X90554624Y-94554230D01*
X90554627Y-94554235D01*
X90662806Y-94690723D01*
X90680677Y-94713270D01*
X90683021Y-94715265D01*
X90683022Y-94715266D01*
X90741820Y-94765307D01*
X90837564Y-94846791D01*
X90883828Y-94872647D01*
X91014708Y-94945794D01*
X91014711Y-94945795D01*
X91017398Y-94947297D01*
X91085390Y-94969389D01*
X91210398Y-95010007D01*
X91210401Y-95010008D01*
X91213329Y-95010959D01*
X91216390Y-95011324D01*
X91414837Y-95034987D01*
X91414842Y-95034987D01*
X91417894Y-95035351D01*
X91420962Y-95035115D01*
X91420966Y-95035115D01*
X91620225Y-95019783D01*
X91620229Y-95019782D01*
X91623300Y-95019546D01*
X91626268Y-95018717D01*
X91626270Y-95018717D01*
X91722512Y-94991846D01*
X91821725Y-94964145D01*
X92005610Y-94871258D01*
X92029259Y-94852782D01*
X92165525Y-94746319D01*
X92167951Y-94744424D01*
X92302564Y-94588472D01*
X92404323Y-94409344D01*
X92416970Y-94371327D01*
X92468380Y-94216783D01*
X92468381Y-94216780D01*
X92469351Y-94213863D01*
X92495171Y-94009474D01*
X92495583Y-93980000D01*
X92494138Y-93965262D01*
X92924520Y-93965262D01*
X92941759Y-94170553D01*
X92998544Y-94368586D01*
X93092712Y-94551818D01*
X93094624Y-94554230D01*
X93094627Y-94554235D01*
X93202806Y-94690723D01*
X93220677Y-94713270D01*
X93223021Y-94715265D01*
X93223022Y-94715266D01*
X93281820Y-94765307D01*
X93377564Y-94846791D01*
X93423828Y-94872647D01*
X93554708Y-94945794D01*
X93554711Y-94945795D01*
X93557398Y-94947297D01*
X93625390Y-94969389D01*
X93750398Y-95010007D01*
X93750401Y-95010008D01*
X93753329Y-95010959D01*
X93756390Y-95011324D01*
X93954837Y-95034987D01*
X93954842Y-95034987D01*
X93957894Y-95035351D01*
X93960962Y-95035115D01*
X93960966Y-95035115D01*
X94160225Y-95019783D01*
X94160229Y-95019782D01*
X94163300Y-95019546D01*
X94166268Y-95018717D01*
X94166270Y-95018717D01*
X94262512Y-94991846D01*
X94361725Y-94964145D01*
X94545610Y-94871258D01*
X94569259Y-94852782D01*
X94705525Y-94746319D01*
X94707951Y-94744424D01*
X94842564Y-94588472D01*
X94944323Y-94409344D01*
X94956970Y-94371327D01*
X95008380Y-94216783D01*
X95008381Y-94216780D01*
X95009351Y-94213863D01*
X95035171Y-94009474D01*
X95035583Y-93980000D01*
X95034138Y-93965262D01*
X95464520Y-93965262D01*
X95481759Y-94170553D01*
X95538544Y-94368586D01*
X95632712Y-94551818D01*
X95634624Y-94554230D01*
X95634627Y-94554235D01*
X95742806Y-94690723D01*
X95760677Y-94713270D01*
X95763021Y-94715265D01*
X95763022Y-94715266D01*
X95821820Y-94765307D01*
X95917564Y-94846791D01*
X95963828Y-94872647D01*
X96094708Y-94945794D01*
X96094711Y-94945795D01*
X96097398Y-94947297D01*
X96165390Y-94969389D01*
X96290398Y-95010007D01*
X96290401Y-95010008D01*
X96293329Y-95010959D01*
X96296390Y-95011324D01*
X96494837Y-95034987D01*
X96494842Y-95034987D01*
X96497894Y-95035351D01*
X96500962Y-95035115D01*
X96500966Y-95035115D01*
X96700225Y-95019783D01*
X96700229Y-95019782D01*
X96703300Y-95019546D01*
X96706268Y-95018717D01*
X96706270Y-95018717D01*
X96802512Y-94991846D01*
X96901725Y-94964145D01*
X97085610Y-94871258D01*
X97109259Y-94852782D01*
X97245525Y-94746319D01*
X97247951Y-94744424D01*
X97382564Y-94588472D01*
X97484323Y-94409344D01*
X97496970Y-94371327D01*
X97548380Y-94216783D01*
X97548381Y-94216780D01*
X97549351Y-94213863D01*
X97575171Y-94009474D01*
X97575583Y-93980000D01*
X97574138Y-93965262D01*
X98004520Y-93965262D01*
X98021759Y-94170553D01*
X98078544Y-94368586D01*
X98172712Y-94551818D01*
X98174624Y-94554230D01*
X98174627Y-94554235D01*
X98282806Y-94690723D01*
X98300677Y-94713270D01*
X98303021Y-94715265D01*
X98303022Y-94715266D01*
X98361820Y-94765307D01*
X98457564Y-94846791D01*
X98503828Y-94872647D01*
X98634708Y-94945794D01*
X98634711Y-94945795D01*
X98637398Y-94947297D01*
X98705390Y-94969389D01*
X98830398Y-95010007D01*
X98830401Y-95010008D01*
X98833329Y-95010959D01*
X98836390Y-95011324D01*
X99034837Y-95034987D01*
X99034842Y-95034987D01*
X99037894Y-95035351D01*
X99040962Y-95035115D01*
X99040966Y-95035115D01*
X99240225Y-95019783D01*
X99240229Y-95019782D01*
X99243300Y-95019546D01*
X99246268Y-95018717D01*
X99246270Y-95018717D01*
X99342512Y-94991846D01*
X99441725Y-94964145D01*
X99625610Y-94871258D01*
X99649259Y-94852782D01*
X99785525Y-94746319D01*
X99787951Y-94744424D01*
X99922564Y-94588472D01*
X100024323Y-94409344D01*
X100036970Y-94371327D01*
X100088380Y-94216783D01*
X100088381Y-94216780D01*
X100089351Y-94213863D01*
X100115171Y-94009474D01*
X100115583Y-93980000D01*
X100095480Y-93774970D01*
X100035935Y-93577749D01*
X99939218Y-93395849D01*
X99929253Y-93383630D01*
X99810960Y-93238590D01*
X99809011Y-93236200D01*
X99660504Y-93113344D01*
X99652647Y-93106844D01*
X99652645Y-93106843D01*
X99650275Y-93104882D01*
X99469055Y-93006897D01*
X99466120Y-93005989D01*
X99466119Y-93005988D01*
X99275197Y-92946888D01*
X99272254Y-92945977D01*
X99194147Y-92937768D01*
X99070427Y-92924764D01*
X99070423Y-92924764D01*
X99067369Y-92924443D01*
X98929082Y-92937028D01*
X98865267Y-92942835D01*
X98865265Y-92942835D01*
X98862203Y-92943114D01*
X98664572Y-93001280D01*
X98577868Y-93046608D01*
X98484727Y-93095301D01*
X98484724Y-93095303D01*
X98482002Y-93096726D01*
X98321447Y-93225815D01*
X98189024Y-93383630D01*
X98187539Y-93386331D01*
X98187537Y-93386334D01*
X98180813Y-93398565D01*
X98089776Y-93564162D01*
X98027484Y-93760532D01*
X98004520Y-93965262D01*
X97574138Y-93965262D01*
X97555480Y-93774970D01*
X97495935Y-93577749D01*
X97399218Y-93395849D01*
X97389253Y-93383630D01*
X97270960Y-93238590D01*
X97269011Y-93236200D01*
X97120504Y-93113344D01*
X97112647Y-93106844D01*
X97112645Y-93106843D01*
X97110275Y-93104882D01*
X96929055Y-93006897D01*
X96926120Y-93005989D01*
X96926119Y-93005988D01*
X96735197Y-92946888D01*
X96732254Y-92945977D01*
X96654147Y-92937768D01*
X96530427Y-92924764D01*
X96530423Y-92924764D01*
X96527369Y-92924443D01*
X96389082Y-92937028D01*
X96325267Y-92942835D01*
X96325265Y-92942835D01*
X96322203Y-92943114D01*
X96124572Y-93001280D01*
X96037868Y-93046608D01*
X95944727Y-93095301D01*
X95944724Y-93095303D01*
X95942002Y-93096726D01*
X95781447Y-93225815D01*
X95649024Y-93383630D01*
X95647539Y-93386331D01*
X95647537Y-93386334D01*
X95640813Y-93398565D01*
X95549776Y-93564162D01*
X95487484Y-93760532D01*
X95464520Y-93965262D01*
X95034138Y-93965262D01*
X95015480Y-93774970D01*
X94955935Y-93577749D01*
X94859218Y-93395849D01*
X94849253Y-93383630D01*
X94730960Y-93238590D01*
X94729011Y-93236200D01*
X94580504Y-93113344D01*
X94572647Y-93106844D01*
X94572645Y-93106843D01*
X94570275Y-93104882D01*
X94389055Y-93006897D01*
X94386120Y-93005989D01*
X94386119Y-93005988D01*
X94195197Y-92946888D01*
X94192254Y-92945977D01*
X94114147Y-92937768D01*
X93990427Y-92924764D01*
X93990423Y-92924764D01*
X93987369Y-92924443D01*
X93849082Y-92937028D01*
X93785267Y-92942835D01*
X93785265Y-92942835D01*
X93782203Y-92943114D01*
X93584572Y-93001280D01*
X93497868Y-93046608D01*
X93404727Y-93095301D01*
X93404724Y-93095303D01*
X93402002Y-93096726D01*
X93241447Y-93225815D01*
X93109024Y-93383630D01*
X93107539Y-93386331D01*
X93107537Y-93386334D01*
X93100813Y-93398565D01*
X93009776Y-93564162D01*
X92947484Y-93760532D01*
X92924520Y-93965262D01*
X92494138Y-93965262D01*
X92475480Y-93774970D01*
X92415935Y-93577749D01*
X92319218Y-93395849D01*
X92309253Y-93383630D01*
X92190960Y-93238590D01*
X92189011Y-93236200D01*
X92040504Y-93113344D01*
X92032647Y-93106844D01*
X92032645Y-93106843D01*
X92030275Y-93104882D01*
X91849055Y-93006897D01*
X91846120Y-93005989D01*
X91846119Y-93005988D01*
X91655197Y-92946888D01*
X91652254Y-92945977D01*
X91574147Y-92937768D01*
X91450427Y-92924764D01*
X91450423Y-92924764D01*
X91447369Y-92924443D01*
X91309082Y-92937028D01*
X91245267Y-92942835D01*
X91245265Y-92942835D01*
X91242203Y-92943114D01*
X91044572Y-93001280D01*
X90957868Y-93046608D01*
X90864727Y-93095301D01*
X90864724Y-93095303D01*
X90862002Y-93096726D01*
X90701447Y-93225815D01*
X90569024Y-93383630D01*
X90567539Y-93386331D01*
X90567537Y-93386334D01*
X90560813Y-93398565D01*
X90469776Y-93564162D01*
X90407484Y-93760532D01*
X90384520Y-93965262D01*
X89954138Y-93965262D01*
X89935480Y-93774970D01*
X89875935Y-93577749D01*
X89779218Y-93395849D01*
X89769253Y-93383630D01*
X89650960Y-93238590D01*
X89649011Y-93236200D01*
X89500504Y-93113344D01*
X89492647Y-93106844D01*
X89492645Y-93106843D01*
X89490275Y-93104882D01*
X89309055Y-93006897D01*
X89306120Y-93005989D01*
X89306119Y-93005988D01*
X89115197Y-92946888D01*
X89112254Y-92945977D01*
X89034147Y-92937768D01*
X88910427Y-92924764D01*
X88910423Y-92924764D01*
X88907369Y-92924443D01*
X88769082Y-92937028D01*
X88705267Y-92942835D01*
X88705265Y-92942835D01*
X88702203Y-92943114D01*
X88504572Y-93001280D01*
X88417868Y-93046608D01*
X88324727Y-93095301D01*
X88324724Y-93095303D01*
X88322002Y-93096726D01*
X88161447Y-93225815D01*
X88029024Y-93383630D01*
X88027539Y-93386331D01*
X88027537Y-93386334D01*
X88020813Y-93398565D01*
X87929776Y-93564162D01*
X87867484Y-93760532D01*
X87844520Y-93965262D01*
X87414138Y-93965262D01*
X87395480Y-93774970D01*
X87335935Y-93577749D01*
X87239218Y-93395849D01*
X87229253Y-93383630D01*
X87110960Y-93238590D01*
X87109011Y-93236200D01*
X86960504Y-93113344D01*
X86952647Y-93106844D01*
X86952645Y-93106843D01*
X86950275Y-93104882D01*
X86769055Y-93006897D01*
X86766120Y-93005989D01*
X86766119Y-93005988D01*
X86575197Y-92946888D01*
X86572254Y-92945977D01*
X86494147Y-92937768D01*
X86370427Y-92924764D01*
X86370423Y-92924764D01*
X86367369Y-92924443D01*
X86229082Y-92937028D01*
X86165267Y-92942835D01*
X86165265Y-92942835D01*
X86162203Y-92943114D01*
X85964572Y-93001280D01*
X85877868Y-93046608D01*
X85784727Y-93095301D01*
X85784724Y-93095303D01*
X85782002Y-93096726D01*
X85621447Y-93225815D01*
X85489024Y-93383630D01*
X85487539Y-93386331D01*
X85487537Y-93386334D01*
X85480813Y-93398565D01*
X85389776Y-93564162D01*
X85327484Y-93760532D01*
X85304520Y-93965262D01*
X82330500Y-93965262D01*
X82330500Y-93110252D01*
X82318867Y-93051769D01*
X82315420Y-93046610D01*
X82315419Y-93046608D01*
X82278002Y-92990611D01*
X82274552Y-92985448D01*
X82269389Y-92981998D01*
X82213392Y-92944581D01*
X82213390Y-92944580D01*
X82208231Y-92941133D01*
X82202145Y-92939922D01*
X82202144Y-92939922D01*
X82187070Y-92936924D01*
X82149748Y-92929500D01*
X80410252Y-92929500D01*
X80372930Y-92936924D01*
X80357856Y-92939922D01*
X80357855Y-92939922D01*
X80351769Y-92941133D01*
X80346610Y-92944580D01*
X80346608Y-92944581D01*
X80290611Y-92981998D01*
X80285448Y-92985448D01*
X80281998Y-92990611D01*
X80244581Y-93046608D01*
X80244580Y-93046610D01*
X80241133Y-93051769D01*
X80229500Y-93110252D01*
X80229500Y-94849748D01*
X79010000Y-94849748D01*
X79010000Y-91425262D01*
X85304520Y-91425262D01*
X85321759Y-91630553D01*
X85378544Y-91828586D01*
X85472712Y-92011818D01*
X85474624Y-92014230D01*
X85474627Y-92014235D01*
X85582806Y-92150723D01*
X85600677Y-92173270D01*
X85603021Y-92175265D01*
X85603022Y-92175266D01*
X85661820Y-92225307D01*
X85757564Y-92306791D01*
X85803828Y-92332647D01*
X85934708Y-92405794D01*
X85934711Y-92405795D01*
X85937398Y-92407297D01*
X86038744Y-92440226D01*
X86130398Y-92470007D01*
X86130401Y-92470008D01*
X86133329Y-92470959D01*
X86136390Y-92471324D01*
X86334837Y-92494987D01*
X86334842Y-92494987D01*
X86337894Y-92495351D01*
X86340962Y-92495115D01*
X86340966Y-92495115D01*
X86540225Y-92479783D01*
X86540229Y-92479782D01*
X86543300Y-92479546D01*
X86546268Y-92478717D01*
X86546270Y-92478717D01*
X86642513Y-92451845D01*
X86741725Y-92424145D01*
X86925610Y-92331258D01*
X86955002Y-92308295D01*
X87085525Y-92206319D01*
X87087951Y-92204424D01*
X87222564Y-92048472D01*
X87324323Y-91869344D01*
X87336970Y-91831327D01*
X87388380Y-91676783D01*
X87388381Y-91676780D01*
X87389351Y-91673863D01*
X87415171Y-91469474D01*
X87415583Y-91440000D01*
X87414138Y-91425262D01*
X87844520Y-91425262D01*
X87861759Y-91630553D01*
X87918544Y-91828586D01*
X88012712Y-92011818D01*
X88014624Y-92014230D01*
X88014627Y-92014235D01*
X88122806Y-92150723D01*
X88140677Y-92173270D01*
X88143021Y-92175265D01*
X88143022Y-92175266D01*
X88201820Y-92225307D01*
X88297564Y-92306791D01*
X88343828Y-92332647D01*
X88474708Y-92405794D01*
X88474711Y-92405795D01*
X88477398Y-92407297D01*
X88578744Y-92440226D01*
X88670398Y-92470007D01*
X88670401Y-92470008D01*
X88673329Y-92470959D01*
X88676390Y-92471324D01*
X88874837Y-92494987D01*
X88874842Y-92494987D01*
X88877894Y-92495351D01*
X88880962Y-92495115D01*
X88880966Y-92495115D01*
X89080225Y-92479783D01*
X89080229Y-92479782D01*
X89083300Y-92479546D01*
X89086268Y-92478717D01*
X89086270Y-92478717D01*
X89182513Y-92451845D01*
X89281725Y-92424145D01*
X89465610Y-92331258D01*
X89495002Y-92308295D01*
X89625525Y-92206319D01*
X89627951Y-92204424D01*
X89762564Y-92048472D01*
X89864323Y-91869344D01*
X89876970Y-91831327D01*
X89928380Y-91676783D01*
X89928381Y-91676780D01*
X89929351Y-91673863D01*
X89955171Y-91469474D01*
X89955583Y-91440000D01*
X89954138Y-91425262D01*
X90384520Y-91425262D01*
X90401759Y-91630553D01*
X90458544Y-91828586D01*
X90552712Y-92011818D01*
X90554624Y-92014230D01*
X90554627Y-92014235D01*
X90662806Y-92150723D01*
X90680677Y-92173270D01*
X90683021Y-92175265D01*
X90683022Y-92175266D01*
X90741820Y-92225307D01*
X90837564Y-92306791D01*
X90883828Y-92332647D01*
X91014708Y-92405794D01*
X91014711Y-92405795D01*
X91017398Y-92407297D01*
X91118744Y-92440226D01*
X91210398Y-92470007D01*
X91210401Y-92470008D01*
X91213329Y-92470959D01*
X91216390Y-92471324D01*
X91414837Y-92494987D01*
X91414842Y-92494987D01*
X91417894Y-92495351D01*
X91420962Y-92495115D01*
X91420966Y-92495115D01*
X91620225Y-92479783D01*
X91620229Y-92479782D01*
X91623300Y-92479546D01*
X91626268Y-92478717D01*
X91626270Y-92478717D01*
X91722513Y-92451845D01*
X91821725Y-92424145D01*
X92005610Y-92331258D01*
X92035002Y-92308295D01*
X92165525Y-92206319D01*
X92167951Y-92204424D01*
X92302564Y-92048472D01*
X92404323Y-91869344D01*
X92416970Y-91831327D01*
X92468380Y-91676783D01*
X92468381Y-91676780D01*
X92469351Y-91673863D01*
X92495171Y-91469474D01*
X92495583Y-91440000D01*
X92494138Y-91425262D01*
X92924520Y-91425262D01*
X92941759Y-91630553D01*
X92998544Y-91828586D01*
X93092712Y-92011818D01*
X93094624Y-92014230D01*
X93094627Y-92014235D01*
X93202806Y-92150723D01*
X93220677Y-92173270D01*
X93223021Y-92175265D01*
X93223022Y-92175266D01*
X93281820Y-92225307D01*
X93377564Y-92306791D01*
X93423828Y-92332647D01*
X93554708Y-92405794D01*
X93554711Y-92405795D01*
X93557398Y-92407297D01*
X93658744Y-92440226D01*
X93750398Y-92470007D01*
X93750401Y-92470008D01*
X93753329Y-92470959D01*
X93756390Y-92471324D01*
X93954837Y-92494987D01*
X93954842Y-92494987D01*
X93957894Y-92495351D01*
X93960962Y-92495115D01*
X93960966Y-92495115D01*
X94160225Y-92479783D01*
X94160229Y-92479782D01*
X94163300Y-92479546D01*
X94166268Y-92478717D01*
X94166270Y-92478717D01*
X94262513Y-92451845D01*
X94361725Y-92424145D01*
X94545610Y-92331258D01*
X94575002Y-92308295D01*
X94705525Y-92206319D01*
X94707951Y-92204424D01*
X94842564Y-92048472D01*
X94944323Y-91869344D01*
X94956970Y-91831327D01*
X95008380Y-91676783D01*
X95008381Y-91676780D01*
X95009351Y-91673863D01*
X95035171Y-91469474D01*
X95035583Y-91440000D01*
X95034138Y-91425262D01*
X95464520Y-91425262D01*
X95481759Y-91630553D01*
X95538544Y-91828586D01*
X95632712Y-92011818D01*
X95634624Y-92014230D01*
X95634627Y-92014235D01*
X95742806Y-92150723D01*
X95760677Y-92173270D01*
X95763021Y-92175265D01*
X95763022Y-92175266D01*
X95821820Y-92225307D01*
X95917564Y-92306791D01*
X95963828Y-92332647D01*
X96094708Y-92405794D01*
X96094711Y-92405795D01*
X96097398Y-92407297D01*
X96198744Y-92440226D01*
X96290398Y-92470007D01*
X96290401Y-92470008D01*
X96293329Y-92470959D01*
X96296390Y-92471324D01*
X96494837Y-92494987D01*
X96494842Y-92494987D01*
X96497894Y-92495351D01*
X96500962Y-92495115D01*
X96500966Y-92495115D01*
X96700225Y-92479783D01*
X96700229Y-92479782D01*
X96703300Y-92479546D01*
X96706268Y-92478717D01*
X96706270Y-92478717D01*
X96802513Y-92451845D01*
X96901725Y-92424145D01*
X97085610Y-92331258D01*
X97115002Y-92308295D01*
X97245525Y-92206319D01*
X97247951Y-92204424D01*
X97382564Y-92048472D01*
X97484323Y-91869344D01*
X97496970Y-91831327D01*
X97548380Y-91676783D01*
X97548381Y-91676780D01*
X97549351Y-91673863D01*
X97575171Y-91469474D01*
X97575583Y-91440000D01*
X97574138Y-91425262D01*
X98004520Y-91425262D01*
X98021759Y-91630553D01*
X98078544Y-91828586D01*
X98172712Y-92011818D01*
X98174624Y-92014230D01*
X98174627Y-92014235D01*
X98282806Y-92150723D01*
X98300677Y-92173270D01*
X98303021Y-92175265D01*
X98303022Y-92175266D01*
X98361820Y-92225307D01*
X98457564Y-92306791D01*
X98503828Y-92332647D01*
X98634708Y-92405794D01*
X98634711Y-92405795D01*
X98637398Y-92407297D01*
X98738744Y-92440226D01*
X98830398Y-92470007D01*
X98830401Y-92470008D01*
X98833329Y-92470959D01*
X98836390Y-92471324D01*
X99034837Y-92494987D01*
X99034842Y-92494987D01*
X99037894Y-92495351D01*
X99040962Y-92495115D01*
X99040966Y-92495115D01*
X99240225Y-92479783D01*
X99240229Y-92479782D01*
X99243300Y-92479546D01*
X99246268Y-92478717D01*
X99246270Y-92478717D01*
X99342513Y-92451845D01*
X99441725Y-92424145D01*
X99625610Y-92331258D01*
X99655002Y-92308295D01*
X99785525Y-92206319D01*
X99787951Y-92204424D01*
X99922564Y-92048472D01*
X100024323Y-91869344D01*
X100036970Y-91831327D01*
X100088380Y-91676783D01*
X100088381Y-91676780D01*
X100089351Y-91673863D01*
X100115171Y-91469474D01*
X100115583Y-91440000D01*
X100095480Y-91234970D01*
X100035935Y-91037749D01*
X99939218Y-90855849D01*
X99929253Y-90843630D01*
X99810960Y-90698590D01*
X99809011Y-90696200D01*
X99650275Y-90564882D01*
X99469055Y-90466897D01*
X99466120Y-90465989D01*
X99466119Y-90465988D01*
X99275197Y-90406888D01*
X99272254Y-90405977D01*
X99194147Y-90397768D01*
X99070427Y-90384764D01*
X99070423Y-90384764D01*
X99067369Y-90384443D01*
X98929082Y-90397028D01*
X98865267Y-90402835D01*
X98865265Y-90402835D01*
X98862203Y-90403114D01*
X98664572Y-90461280D01*
X98573287Y-90509003D01*
X98484727Y-90555301D01*
X98484724Y-90555303D01*
X98482002Y-90556726D01*
X98321447Y-90685815D01*
X98189024Y-90843630D01*
X98187539Y-90846331D01*
X98187537Y-90846334D01*
X98180813Y-90858565D01*
X98089776Y-91024162D01*
X98027484Y-91220532D01*
X98004520Y-91425262D01*
X97574138Y-91425262D01*
X97555480Y-91234970D01*
X97495935Y-91037749D01*
X97399218Y-90855849D01*
X97389253Y-90843630D01*
X97270960Y-90698590D01*
X97269011Y-90696200D01*
X97110275Y-90564882D01*
X96929055Y-90466897D01*
X96926120Y-90465989D01*
X96926119Y-90465988D01*
X96735197Y-90406888D01*
X96732254Y-90405977D01*
X96654147Y-90397768D01*
X96530427Y-90384764D01*
X96530423Y-90384764D01*
X96527369Y-90384443D01*
X96389082Y-90397028D01*
X96325267Y-90402835D01*
X96325265Y-90402835D01*
X96322203Y-90403114D01*
X96124572Y-90461280D01*
X96033287Y-90509003D01*
X95944727Y-90555301D01*
X95944724Y-90555303D01*
X95942002Y-90556726D01*
X95781447Y-90685815D01*
X95649024Y-90843630D01*
X95647539Y-90846331D01*
X95647537Y-90846334D01*
X95640813Y-90858565D01*
X95549776Y-91024162D01*
X95487484Y-91220532D01*
X95464520Y-91425262D01*
X95034138Y-91425262D01*
X95015480Y-91234970D01*
X94955935Y-91037749D01*
X94859218Y-90855849D01*
X94849253Y-90843630D01*
X94730960Y-90698590D01*
X94729011Y-90696200D01*
X94570275Y-90564882D01*
X94389055Y-90466897D01*
X94386120Y-90465989D01*
X94386119Y-90465988D01*
X94195197Y-90406888D01*
X94192254Y-90405977D01*
X94114147Y-90397768D01*
X93990427Y-90384764D01*
X93990423Y-90384764D01*
X93987369Y-90384443D01*
X93849082Y-90397028D01*
X93785267Y-90402835D01*
X93785265Y-90402835D01*
X93782203Y-90403114D01*
X93584572Y-90461280D01*
X93493287Y-90509003D01*
X93404727Y-90555301D01*
X93404724Y-90555303D01*
X93402002Y-90556726D01*
X93241447Y-90685815D01*
X93109024Y-90843630D01*
X93107539Y-90846331D01*
X93107537Y-90846334D01*
X93100813Y-90858565D01*
X93009776Y-91024162D01*
X92947484Y-91220532D01*
X92924520Y-91425262D01*
X92494138Y-91425262D01*
X92475480Y-91234970D01*
X92415935Y-91037749D01*
X92319218Y-90855849D01*
X92309253Y-90843630D01*
X92190960Y-90698590D01*
X92189011Y-90696200D01*
X92030275Y-90564882D01*
X91849055Y-90466897D01*
X91846120Y-90465989D01*
X91846119Y-90465988D01*
X91655197Y-90406888D01*
X91652254Y-90405977D01*
X91574147Y-90397768D01*
X91450427Y-90384764D01*
X91450423Y-90384764D01*
X91447369Y-90384443D01*
X91309082Y-90397028D01*
X91245267Y-90402835D01*
X91245265Y-90402835D01*
X91242203Y-90403114D01*
X91044572Y-90461280D01*
X90953287Y-90509003D01*
X90864727Y-90555301D01*
X90864724Y-90555303D01*
X90862002Y-90556726D01*
X90701447Y-90685815D01*
X90569024Y-90843630D01*
X90567539Y-90846331D01*
X90567537Y-90846334D01*
X90560813Y-90858565D01*
X90469776Y-91024162D01*
X90407484Y-91220532D01*
X90384520Y-91425262D01*
X89954138Y-91425262D01*
X89935480Y-91234970D01*
X89875935Y-91037749D01*
X89779218Y-90855849D01*
X89769253Y-90843630D01*
X89650960Y-90698590D01*
X89649011Y-90696200D01*
X89490275Y-90564882D01*
X89309055Y-90466897D01*
X89306120Y-90465989D01*
X89306119Y-90465988D01*
X89115197Y-90406888D01*
X89112254Y-90405977D01*
X89034147Y-90397768D01*
X88910427Y-90384764D01*
X88910423Y-90384764D01*
X88907369Y-90384443D01*
X88769082Y-90397028D01*
X88705267Y-90402835D01*
X88705265Y-90402835D01*
X88702203Y-90403114D01*
X88504572Y-90461280D01*
X88413287Y-90509003D01*
X88324727Y-90555301D01*
X88324724Y-90555303D01*
X88322002Y-90556726D01*
X88161447Y-90685815D01*
X88029024Y-90843630D01*
X88027539Y-90846331D01*
X88027537Y-90846334D01*
X88020813Y-90858565D01*
X87929776Y-91024162D01*
X87867484Y-91220532D01*
X87844520Y-91425262D01*
X87414138Y-91425262D01*
X87395480Y-91234970D01*
X87335935Y-91037749D01*
X87239218Y-90855849D01*
X87229253Y-90843630D01*
X87110960Y-90698590D01*
X87109011Y-90696200D01*
X86950275Y-90564882D01*
X86769055Y-90466897D01*
X86766120Y-90465989D01*
X86766119Y-90465988D01*
X86575197Y-90406888D01*
X86572254Y-90405977D01*
X86494147Y-90397768D01*
X86370427Y-90384764D01*
X86370423Y-90384764D01*
X86367369Y-90384443D01*
X86229082Y-90397028D01*
X86165267Y-90402835D01*
X86165265Y-90402835D01*
X86162203Y-90403114D01*
X85964572Y-90461280D01*
X85873287Y-90509003D01*
X85784727Y-90555301D01*
X85784724Y-90555303D01*
X85782002Y-90556726D01*
X85621447Y-90685815D01*
X85489024Y-90843630D01*
X85487539Y-90846331D01*
X85487537Y-90846334D01*
X85480813Y-90858565D01*
X85389776Y-91024162D01*
X85327484Y-91220532D01*
X85304520Y-91425262D01*
X79010000Y-91425262D01*
X79010000Y-87500000D01*
X84894318Y-87500000D01*
X84914956Y-87656762D01*
X84975464Y-87802841D01*
X84977976Y-87806115D01*
X84977978Y-87806118D01*
X85060066Y-87913097D01*
X85071718Y-87928282D01*
X85074997Y-87930798D01*
X85193882Y-88022022D01*
X85193885Y-88022024D01*
X85197159Y-88024536D01*
X85200973Y-88026116D01*
X85200975Y-88026117D01*
X85339420Y-88083463D01*
X85339423Y-88083464D01*
X85343238Y-88085044D01*
X85500000Y-88105682D01*
X85597644Y-88092827D01*
X85644218Y-88105307D01*
X85650414Y-88110740D01*
X86257841Y-88718167D01*
X86261552Y-88722217D01*
X86287545Y-88753194D01*
X86322563Y-88773411D01*
X86327199Y-88776365D01*
X86346810Y-88790097D01*
X86360316Y-88799554D01*
X86365638Y-88800980D01*
X86366351Y-88801171D01*
X86381544Y-88807464D01*
X86386955Y-88810588D01*
X86392381Y-88811545D01*
X86392382Y-88811545D01*
X86426764Y-88817607D01*
X86432132Y-88818797D01*
X86465870Y-88827838D01*
X86465872Y-88827838D01*
X86471193Y-88829264D01*
X86476682Y-88828784D01*
X86476685Y-88828784D01*
X86511476Y-88825740D01*
X86516966Y-88825500D01*
X98483038Y-88825500D01*
X98488529Y-88825740D01*
X98523316Y-88828784D01*
X98523318Y-88828784D01*
X98528807Y-88829264D01*
X98534128Y-88827838D01*
X98534130Y-88827838D01*
X98567868Y-88818797D01*
X98573236Y-88817607D01*
X98607618Y-88811545D01*
X98607619Y-88811545D01*
X98613045Y-88810588D01*
X98618456Y-88807464D01*
X98633649Y-88801171D01*
X98634362Y-88800980D01*
X98639684Y-88799554D01*
X98653190Y-88790097D01*
X98672801Y-88776365D01*
X98677437Y-88773411D01*
X98712455Y-88753194D01*
X98738448Y-88722217D01*
X98742161Y-88718165D01*
X100349586Y-87110740D01*
X100394134Y-87092288D01*
X100402353Y-87092827D01*
X100500000Y-87105682D01*
X100656762Y-87085044D01*
X100660577Y-87083464D01*
X100660580Y-87083463D01*
X100799025Y-87026117D01*
X100799027Y-87026116D01*
X100802841Y-87024536D01*
X100806115Y-87022024D01*
X100806118Y-87022022D01*
X100925003Y-86930798D01*
X100928282Y-86928282D01*
X100953930Y-86894857D01*
X101022022Y-86806118D01*
X101022024Y-86806115D01*
X101024536Y-86802841D01*
X101026117Y-86799025D01*
X101083463Y-86660580D01*
X101083464Y-86660577D01*
X101085044Y-86656762D01*
X101105682Y-86500000D01*
X101085044Y-86343238D01*
X101048120Y-86254094D01*
X101026117Y-86200975D01*
X101026116Y-86200973D01*
X101024536Y-86197159D01*
X101022024Y-86193885D01*
X101022022Y-86193882D01*
X100930798Y-86074997D01*
X100928282Y-86071718D01*
X100917548Y-86063481D01*
X100893438Y-86021724D01*
X100905917Y-85975149D01*
X100947675Y-85951039D01*
X100955899Y-85950500D01*
X101369748Y-85950500D01*
X101407070Y-85943076D01*
X101422144Y-85940078D01*
X101422145Y-85940078D01*
X101428231Y-85938867D01*
X101433390Y-85935420D01*
X101433392Y-85935419D01*
X101489389Y-85898002D01*
X101494552Y-85894552D01*
X101521473Y-85854263D01*
X101535419Y-85833392D01*
X101535420Y-85833390D01*
X101538867Y-85828231D01*
X101550500Y-85769748D01*
X101550500Y-84730252D01*
X101538867Y-84671769D01*
X101535420Y-84666610D01*
X101535419Y-84666608D01*
X101498002Y-84610611D01*
X101494552Y-84605448D01*
X101444547Y-84572035D01*
X101433392Y-84564581D01*
X101433390Y-84564580D01*
X101428231Y-84561133D01*
X101422145Y-84559922D01*
X101422144Y-84559922D01*
X101403019Y-84556118D01*
X101369748Y-84549500D01*
X98830252Y-84549500D01*
X98796981Y-84556118D01*
X98777856Y-84559922D01*
X98777855Y-84559922D01*
X98771769Y-84561133D01*
X98766610Y-84564580D01*
X98766608Y-84564581D01*
X98755453Y-84572035D01*
X98705448Y-84605448D01*
X98701998Y-84610611D01*
X98664581Y-84666608D01*
X98664580Y-84666610D01*
X98661133Y-84671769D01*
X98649500Y-84730252D01*
X98649500Y-85769748D01*
X98661133Y-85828231D01*
X98664580Y-85833390D01*
X98664581Y-85833392D01*
X98678527Y-85854263D01*
X98705448Y-85894552D01*
X98710611Y-85898002D01*
X98766608Y-85935419D01*
X98766610Y-85935420D01*
X98771769Y-85938867D01*
X98777855Y-85940078D01*
X98777856Y-85940078D01*
X98792930Y-85943076D01*
X98830252Y-85950500D01*
X100044101Y-85950500D01*
X100088649Y-85968952D01*
X100107101Y-86013500D01*
X100088649Y-86058048D01*
X100082456Y-86063478D01*
X100071718Y-86071718D01*
X100069202Y-86074997D01*
X99977978Y-86193882D01*
X99977976Y-86193885D01*
X99975464Y-86197159D01*
X99973884Y-86200973D01*
X99973883Y-86200975D01*
X99951881Y-86254094D01*
X99914956Y-86343238D01*
X99894318Y-86500000D01*
X99894857Y-86504094D01*
X99907173Y-86597643D01*
X99894693Y-86644218D01*
X99889260Y-86650414D01*
X98383626Y-88156048D01*
X98339078Y-88174500D01*
X86660922Y-88174500D01*
X86616374Y-88156048D01*
X86110740Y-87650414D01*
X86092288Y-87605866D01*
X86092827Y-87597643D01*
X86105143Y-87504094D01*
X86105682Y-87500000D01*
X86085044Y-87343238D01*
X86024536Y-87197159D01*
X86022024Y-87193885D01*
X86022022Y-87193882D01*
X85930798Y-87074997D01*
X85928282Y-87071718D01*
X85913097Y-87060066D01*
X85806118Y-86977978D01*
X85806115Y-86977976D01*
X85802841Y-86975464D01*
X85799027Y-86973884D01*
X85799025Y-86973883D01*
X85660580Y-86916537D01*
X85660577Y-86916536D01*
X85656762Y-86914956D01*
X85500000Y-86894318D01*
X85343238Y-86914956D01*
X85339423Y-86916536D01*
X85339420Y-86916537D01*
X85200975Y-86973883D01*
X85200973Y-86973884D01*
X85197159Y-86975464D01*
X85193885Y-86977976D01*
X85193882Y-86977978D01*
X85086903Y-87060066D01*
X85071718Y-87071718D01*
X85069202Y-87074997D01*
X84977978Y-87193882D01*
X84977976Y-87193885D01*
X84975464Y-87197159D01*
X84914956Y-87343238D01*
X84894318Y-87500000D01*
X79010000Y-87500000D01*
X79010000Y-81541023D01*
X80466863Y-81541023D01*
X80494517Y-81626134D01*
X80497182Y-81632118D01*
X80583641Y-81781871D01*
X80587508Y-81787193D01*
X80703205Y-81915687D01*
X80708087Y-81920082D01*
X80847975Y-82021717D01*
X80853665Y-82025002D01*
X81011629Y-82095333D01*
X81014652Y-82096315D01*
X81023173Y-82094736D01*
X81026000Y-82090622D01*
X81026000Y-81546533D01*
X81022329Y-81537671D01*
X81013467Y-81534000D01*
X80477114Y-81534000D01*
X80468252Y-81537671D01*
X80466863Y-81541023D01*
X79010000Y-81541023D01*
X79010000Y-81014082D01*
X80468454Y-81014082D01*
X80469206Y-81023643D01*
X80471965Y-81026000D01*
X81013467Y-81026000D01*
X81022329Y-81022329D01*
X81026000Y-81013467D01*
X81026000Y-80473444D01*
X81022329Y-80464582D01*
X81017741Y-80462681D01*
X81011629Y-80464667D01*
X80853665Y-80534998D01*
X80847975Y-80538283D01*
X80708087Y-80639918D01*
X80703205Y-80644313D01*
X80587508Y-80772807D01*
X80583641Y-80778129D01*
X80497182Y-80927882D01*
X80494517Y-80933866D01*
X80468454Y-81014082D01*
X79010000Y-81014082D01*
X79010000Y-78728753D01*
X80474514Y-78728753D01*
X80474858Y-78732261D01*
X80474858Y-78732262D01*
X80486960Y-78855682D01*
X80492039Y-78907486D01*
X80493149Y-78910824D01*
X80493150Y-78910827D01*
X80534167Y-79034130D01*
X80548726Y-79077896D01*
X80641759Y-79231512D01*
X80644207Y-79234047D01*
X80704136Y-79296105D01*
X80766514Y-79360699D01*
X80916789Y-79459036D01*
X81085116Y-79521636D01*
X81088601Y-79522101D01*
X81259644Y-79544923D01*
X81259645Y-79544923D01*
X81263130Y-79545388D01*
X81327091Y-79539567D01*
X81438480Y-79529431D01*
X81438483Y-79529430D01*
X81441981Y-79529112D01*
X81445322Y-79528026D01*
X81445324Y-79528026D01*
X81609431Y-79474704D01*
X81609432Y-79474703D01*
X81612782Y-79473615D01*
X81763743Y-79383625D01*
X81764025Y-79383457D01*
X81764027Y-79383455D01*
X81767044Y-79381657D01*
X81769589Y-79379234D01*
X81769591Y-79379232D01*
X81894546Y-79260238D01*
X81897099Y-79257807D01*
X81979116Y-79134362D01*
X81994536Y-79111153D01*
X81994537Y-79111151D01*
X81996483Y-79108222D01*
X81997731Y-79104938D01*
X81997733Y-79104933D01*
X82055216Y-78953607D01*
X82060257Y-78940336D01*
X82060747Y-78936850D01*
X82060748Y-78936846D01*
X82083558Y-78774536D01*
X82085251Y-78762493D01*
X82085565Y-78740000D01*
X82065546Y-78561528D01*
X82012981Y-78410580D01*
X82007642Y-78395248D01*
X82007640Y-78395244D01*
X82006485Y-78391927D01*
X81998321Y-78378862D01*
X81913183Y-78242612D01*
X81913181Y-78242609D01*
X81911316Y-78239625D01*
X81784770Y-78112193D01*
X81764905Y-78099586D01*
X81636107Y-78017848D01*
X81636104Y-78017846D01*
X81633136Y-78015963D01*
X81463951Y-77955719D01*
X81392164Y-77947159D01*
X81289116Y-77934871D01*
X81289113Y-77934871D01*
X81285624Y-77934455D01*
X81196321Y-77943841D01*
X81110515Y-77952859D01*
X81110512Y-77952860D01*
X81107017Y-77953227D01*
X80937007Y-78011103D01*
X80934012Y-78012946D01*
X80934009Y-78012947D01*
X80931025Y-78014783D01*
X80784045Y-78105206D01*
X80655732Y-78230859D01*
X80653830Y-78233810D01*
X80653827Y-78233814D01*
X80643396Y-78250000D01*
X80558446Y-78381817D01*
X80557243Y-78385121D01*
X80557243Y-78385122D01*
X80550857Y-78402667D01*
X80497022Y-78550578D01*
X80496581Y-78554069D01*
X80496580Y-78554073D01*
X80481304Y-78675003D01*
X80474514Y-78728753D01*
X79010000Y-78728753D01*
X79010000Y-74948807D01*
X79670736Y-74948807D01*
X79672162Y-74954128D01*
X79672162Y-74954130D01*
X79681203Y-74987868D01*
X79682393Y-74993236D01*
X79689412Y-75033045D01*
X79692167Y-75037816D01*
X79692167Y-75037817D01*
X79692536Y-75038456D01*
X79698829Y-75053648D01*
X79700446Y-75059684D01*
X79703607Y-75064198D01*
X79723635Y-75092801D01*
X79726587Y-75097434D01*
X79746806Y-75132455D01*
X79751027Y-75135997D01*
X79777782Y-75158448D01*
X79781833Y-75162160D01*
X80145074Y-75525400D01*
X80504194Y-75884520D01*
X80522646Y-75929068D01*
X80518847Y-75950614D01*
X80497022Y-76010578D01*
X80474514Y-76188753D01*
X80474858Y-76192261D01*
X80474858Y-76192262D01*
X80490047Y-76347169D01*
X80492039Y-76367486D01*
X80493149Y-76370824D01*
X80493150Y-76370827D01*
X80547613Y-76534551D01*
X80548726Y-76537896D01*
X80641759Y-76691512D01*
X80644207Y-76694047D01*
X80673019Y-76723883D01*
X80766514Y-76820699D01*
X80916789Y-76919036D01*
X81085116Y-76981636D01*
X81088601Y-76982101D01*
X81259644Y-77004923D01*
X81259645Y-77004923D01*
X81263130Y-77005388D01*
X81327091Y-76999567D01*
X81438480Y-76989431D01*
X81438483Y-76989430D01*
X81441981Y-76989112D01*
X81445322Y-76988026D01*
X81445324Y-76988026D01*
X81609431Y-76934704D01*
X81609432Y-76934703D01*
X81612782Y-76933615D01*
X81691024Y-76886974D01*
X81764025Y-76843457D01*
X81764027Y-76843455D01*
X81767044Y-76841657D01*
X81769589Y-76839234D01*
X81769591Y-76839232D01*
X81878363Y-76735649D01*
X81897099Y-76717807D01*
X81996483Y-76568222D01*
X81997731Y-76564938D01*
X81997733Y-76564933D01*
X82059005Y-76403631D01*
X82060257Y-76400336D01*
X82060747Y-76396850D01*
X82060748Y-76396846D01*
X82076550Y-76284403D01*
X82085251Y-76222493D01*
X82085279Y-76220518D01*
X82085431Y-76218539D01*
X82086471Y-76218619D01*
X82104338Y-76177132D01*
X82149138Y-76159302D01*
X82192808Y-76177748D01*
X82426628Y-76411569D01*
X82656048Y-76640989D01*
X82674500Y-76685537D01*
X82674500Y-78983038D01*
X82674260Y-78988529D01*
X82673167Y-79001027D01*
X82670736Y-79028807D01*
X82672162Y-79034128D01*
X82672162Y-79034130D01*
X82681203Y-79067868D01*
X82682393Y-79073236D01*
X82689412Y-79113045D01*
X82692167Y-79117816D01*
X82692167Y-79117817D01*
X82692536Y-79118456D01*
X82698829Y-79133648D01*
X82700446Y-79139684D01*
X82703607Y-79144198D01*
X82723635Y-79172801D01*
X82726587Y-79177434D01*
X82746806Y-79212455D01*
X82751027Y-79215996D01*
X82751027Y-79215997D01*
X82777782Y-79238447D01*
X82781834Y-79242160D01*
X83007846Y-79468173D01*
X83011559Y-79472225D01*
X83034004Y-79498975D01*
X83034007Y-79498977D01*
X83037545Y-79503194D01*
X83042315Y-79505948D01*
X83072567Y-79523414D01*
X83077202Y-79526367D01*
X83110316Y-79549553D01*
X83116349Y-79551170D01*
X83131537Y-79557460D01*
X83136955Y-79560588D01*
X83157585Y-79564225D01*
X83176779Y-79567610D01*
X83182145Y-79568800D01*
X83198679Y-79573230D01*
X83221193Y-79579263D01*
X83226682Y-79578783D01*
X83226684Y-79578783D01*
X83261463Y-79575740D01*
X83266954Y-79575500D01*
X83386500Y-79575500D01*
X83431048Y-79593952D01*
X83449500Y-79638500D01*
X83449500Y-79769748D01*
X83461133Y-79828231D01*
X83464582Y-79833392D01*
X83466238Y-79837389D01*
X83466239Y-79885608D01*
X83432145Y-79919704D01*
X83408034Y-79924500D01*
X83266954Y-79924500D01*
X83261464Y-79924260D01*
X83226681Y-79921217D01*
X83226680Y-79921217D01*
X83221193Y-79920737D01*
X83215875Y-79922162D01*
X83215874Y-79922162D01*
X83182135Y-79931202D01*
X83176769Y-79932391D01*
X83136955Y-79939412D01*
X83131545Y-79942535D01*
X83116348Y-79948830D01*
X83110316Y-79950446D01*
X83105803Y-79953606D01*
X83077189Y-79973641D01*
X83072560Y-79976590D01*
X83037545Y-79996806D01*
X83034003Y-80001027D01*
X83011557Y-80027777D01*
X83007844Y-80031829D01*
X82281827Y-80757847D01*
X82277774Y-80761560D01*
X82251031Y-80783999D01*
X82251029Y-80784002D01*
X82246806Y-80787545D01*
X82227077Y-80821718D01*
X82226589Y-80822563D01*
X82223635Y-80827199D01*
X82200446Y-80860316D01*
X82199020Y-80865638D01*
X82198829Y-80866351D01*
X82192536Y-80881544D01*
X82189412Y-80886955D01*
X82188455Y-80892383D01*
X82184113Y-80917010D01*
X82158206Y-80957678D01*
X82111132Y-80968115D01*
X82070464Y-80942208D01*
X82064518Y-80931700D01*
X82062816Y-80927878D01*
X81976359Y-80778129D01*
X81972492Y-80772807D01*
X81856795Y-80644313D01*
X81851913Y-80639918D01*
X81712025Y-80538283D01*
X81706335Y-80534998D01*
X81548371Y-80464667D01*
X81545348Y-80463685D01*
X81536827Y-80465264D01*
X81534000Y-80469378D01*
X81534000Y-82086556D01*
X81537671Y-82095418D01*
X81542259Y-82097319D01*
X81548371Y-82095333D01*
X81706335Y-82025002D01*
X81712025Y-82021717D01*
X81851913Y-81920082D01*
X81856795Y-81915687D01*
X81972492Y-81787193D01*
X81976359Y-81781871D01*
X82056940Y-81642300D01*
X82095194Y-81612947D01*
X82143000Y-81619240D01*
X82172353Y-81657494D01*
X82174500Y-81673800D01*
X82174500Y-82439078D01*
X82156048Y-82483626D01*
X81595354Y-83044320D01*
X81550806Y-83062772D01*
X81529672Y-83059121D01*
X81467274Y-83036901D01*
X81467263Y-83036899D01*
X81463951Y-83035719D01*
X81460456Y-83035302D01*
X81460455Y-83035302D01*
X81289116Y-83014871D01*
X81289113Y-83014871D01*
X81285624Y-83014455D01*
X81196321Y-83023841D01*
X81110515Y-83032859D01*
X81110512Y-83032860D01*
X81107017Y-83033227D01*
X80937007Y-83091103D01*
X80934012Y-83092946D01*
X80934009Y-83092947D01*
X80926880Y-83097333D01*
X80784045Y-83185206D01*
X80655732Y-83310859D01*
X80653830Y-83313810D01*
X80653827Y-83313814D01*
X80650861Y-83318417D01*
X80558446Y-83461817D01*
X80497022Y-83630578D01*
X80496581Y-83634069D01*
X80496580Y-83634073D01*
X80484718Y-83727978D01*
X80474514Y-83808753D01*
X80474858Y-83812261D01*
X80474858Y-83812262D01*
X80487764Y-83943882D01*
X80492039Y-83987486D01*
X80493149Y-83990824D01*
X80493150Y-83990827D01*
X80529329Y-84099586D01*
X80548726Y-84157896D01*
X80641759Y-84311512D01*
X80766514Y-84440699D01*
X80916789Y-84539036D01*
X81085116Y-84601636D01*
X81088601Y-84602101D01*
X81259644Y-84624923D01*
X81259645Y-84624923D01*
X81263130Y-84625388D01*
X81327091Y-84619567D01*
X81438480Y-84609431D01*
X81438483Y-84609430D01*
X81441981Y-84609112D01*
X81445322Y-84608026D01*
X81445324Y-84608026D01*
X81609431Y-84554704D01*
X81609432Y-84554703D01*
X81612782Y-84553615D01*
X81686741Y-84509527D01*
X81764025Y-84463457D01*
X81764027Y-84463455D01*
X81767044Y-84461657D01*
X81769589Y-84459234D01*
X81769591Y-84459232D01*
X81818054Y-84413081D01*
X81863039Y-84395723D01*
X81907123Y-84415258D01*
X81924500Y-84458704D01*
X81924500Y-85711783D01*
X81906048Y-85756331D01*
X81899852Y-85761764D01*
X81821718Y-85821718D01*
X81819202Y-85824997D01*
X81727978Y-85943882D01*
X81727976Y-85943885D01*
X81725464Y-85947159D01*
X81723884Y-85950973D01*
X81723883Y-85950975D01*
X81672512Y-86074997D01*
X81664956Y-86093238D01*
X81644318Y-86250000D01*
X81664956Y-86406762D01*
X81666536Y-86410577D01*
X81666537Y-86410580D01*
X81705272Y-86504094D01*
X81725464Y-86552841D01*
X81727976Y-86556115D01*
X81727978Y-86556118D01*
X81795580Y-86644218D01*
X81821718Y-86678282D01*
X81824997Y-86680798D01*
X81943882Y-86772022D01*
X81943885Y-86772024D01*
X81947159Y-86774536D01*
X81950973Y-86776116D01*
X81950975Y-86776117D01*
X82089420Y-86833463D01*
X82089423Y-86833464D01*
X82093238Y-86835044D01*
X82250000Y-86855682D01*
X82406762Y-86835044D01*
X82410577Y-86833464D01*
X82410580Y-86833463D01*
X82549025Y-86776117D01*
X82549027Y-86776116D01*
X82552841Y-86774536D01*
X82556115Y-86772024D01*
X82556118Y-86772022D01*
X82675003Y-86680798D01*
X82678282Y-86678282D01*
X82704420Y-86644218D01*
X82772022Y-86556118D01*
X82772024Y-86556115D01*
X82774536Y-86552841D01*
X82794728Y-86504094D01*
X82833463Y-86410580D01*
X82833464Y-86410577D01*
X82835044Y-86406762D01*
X82855682Y-86250000D01*
X82835044Y-86093238D01*
X82827489Y-86074997D01*
X82776117Y-85950975D01*
X82776116Y-85950973D01*
X82774536Y-85947159D01*
X82772024Y-85943885D01*
X82772022Y-85943882D01*
X82680798Y-85824997D01*
X82678282Y-85821718D01*
X82613385Y-85771921D01*
X83396001Y-85771921D01*
X83396604Y-85778050D01*
X83409526Y-85843020D01*
X83414185Y-85854266D01*
X83463429Y-85927965D01*
X83472035Y-85936571D01*
X83545737Y-85985817D01*
X83556977Y-85990473D01*
X83621951Y-86003397D01*
X83628077Y-86004000D01*
X84633467Y-86004000D01*
X84642329Y-86000329D01*
X84646000Y-85991467D01*
X84646000Y-85991466D01*
X85154000Y-85991466D01*
X85157671Y-86000328D01*
X85166533Y-86003999D01*
X86171921Y-86003999D01*
X86178050Y-86003396D01*
X86243020Y-85990474D01*
X86254266Y-85985815D01*
X86327965Y-85936571D01*
X86336571Y-85927965D01*
X86385817Y-85854263D01*
X86390473Y-85843023D01*
X86403397Y-85778049D01*
X86404000Y-85771923D01*
X86404000Y-85516533D01*
X86400329Y-85507671D01*
X86391467Y-85504000D01*
X85166533Y-85504000D01*
X85157671Y-85507671D01*
X85154000Y-85516533D01*
X85154000Y-85991466D01*
X84646000Y-85991466D01*
X84646000Y-85516533D01*
X84642329Y-85507671D01*
X84633467Y-85504000D01*
X83408534Y-85504000D01*
X83399672Y-85507671D01*
X83396001Y-85516533D01*
X83396001Y-85771921D01*
X82613385Y-85771921D01*
X82600148Y-85761764D01*
X82576039Y-85720006D01*
X82575500Y-85711783D01*
X82575500Y-84983467D01*
X83396000Y-84983467D01*
X83399671Y-84992329D01*
X83408533Y-84996000D01*
X84633467Y-84996000D01*
X84642329Y-84992329D01*
X84646000Y-84983467D01*
X85154000Y-84983467D01*
X85157671Y-84992329D01*
X85166533Y-84996000D01*
X86391466Y-84996000D01*
X86400328Y-84992329D01*
X86403999Y-84983467D01*
X86403999Y-84728079D01*
X86403396Y-84721950D01*
X86390474Y-84656980D01*
X86385815Y-84645734D01*
X86336571Y-84572035D01*
X86327965Y-84563429D01*
X86254263Y-84514183D01*
X86243023Y-84509527D01*
X86178049Y-84496603D01*
X86171923Y-84496000D01*
X85166533Y-84496000D01*
X85157671Y-84499671D01*
X85154000Y-84508533D01*
X85154000Y-84983467D01*
X84646000Y-84983467D01*
X84646000Y-84508534D01*
X84642329Y-84499672D01*
X84633467Y-84496001D01*
X83628079Y-84496001D01*
X83621950Y-84496604D01*
X83556980Y-84509526D01*
X83545734Y-84514185D01*
X83472035Y-84563429D01*
X83463429Y-84572035D01*
X83414183Y-84645737D01*
X83409527Y-84656977D01*
X83396603Y-84721951D01*
X83396000Y-84728077D01*
X83396000Y-84983467D01*
X82575500Y-84983467D01*
X82575500Y-84250000D01*
X95894318Y-84250000D01*
X95914956Y-84406762D01*
X95916536Y-84410577D01*
X95916537Y-84410580D01*
X95970254Y-84540263D01*
X95975464Y-84552841D01*
X95977976Y-84556115D01*
X95977978Y-84556118D01*
X96017809Y-84608026D01*
X96071718Y-84678282D01*
X96074997Y-84680798D01*
X96193882Y-84772022D01*
X96193885Y-84772024D01*
X96197159Y-84774536D01*
X96200973Y-84776116D01*
X96200975Y-84776117D01*
X96339420Y-84833463D01*
X96339423Y-84833464D01*
X96343238Y-84835044D01*
X96500000Y-84855682D01*
X96656762Y-84835044D01*
X96660577Y-84833464D01*
X96660580Y-84833463D01*
X96799025Y-84776117D01*
X96799027Y-84776116D01*
X96802841Y-84774536D01*
X96806115Y-84772024D01*
X96806118Y-84772022D01*
X96925003Y-84680798D01*
X96928282Y-84678282D01*
X96982191Y-84608026D01*
X97022022Y-84556118D01*
X97022024Y-84556115D01*
X97024536Y-84552841D01*
X97029746Y-84540263D01*
X97083463Y-84410580D01*
X97083464Y-84410577D01*
X97085044Y-84406762D01*
X97105682Y-84250000D01*
X97092827Y-84152356D01*
X97105307Y-84105782D01*
X97110740Y-84099586D01*
X97616374Y-83593952D01*
X97660922Y-83575500D01*
X97836500Y-83575500D01*
X97881048Y-83593952D01*
X97899500Y-83638500D01*
X97899500Y-83769748D01*
X97900767Y-83776117D01*
X97907957Y-83812262D01*
X97911133Y-83828231D01*
X97914580Y-83833390D01*
X97914581Y-83833392D01*
X97929115Y-83855143D01*
X97955448Y-83894552D01*
X97960611Y-83898002D01*
X98016608Y-83935419D01*
X98016610Y-83935420D01*
X98021769Y-83938867D01*
X98027855Y-83940078D01*
X98027856Y-83940078D01*
X98042930Y-83943076D01*
X98080252Y-83950500D01*
X102119748Y-83950500D01*
X102157070Y-83943076D01*
X102172144Y-83940078D01*
X102172145Y-83940078D01*
X102178231Y-83938867D01*
X102183390Y-83935420D01*
X102183392Y-83935419D01*
X102239389Y-83898002D01*
X102244552Y-83894552D01*
X102270885Y-83855143D01*
X102285419Y-83833392D01*
X102285420Y-83833390D01*
X102288867Y-83828231D01*
X102292044Y-83812262D01*
X102299233Y-83776117D01*
X102300500Y-83769748D01*
X102300500Y-82730252D01*
X102288867Y-82671769D01*
X102285420Y-82666610D01*
X102285419Y-82666608D01*
X102248002Y-82610611D01*
X102244552Y-82605448D01*
X102212479Y-82584017D01*
X102183392Y-82564581D01*
X102183390Y-82564580D01*
X102178231Y-82561133D01*
X102172145Y-82559922D01*
X102172144Y-82559922D01*
X102157070Y-82556924D01*
X102119748Y-82549500D01*
X98080252Y-82549500D01*
X98042930Y-82556924D01*
X98027856Y-82559922D01*
X98027855Y-82559922D01*
X98021769Y-82561133D01*
X98016610Y-82564580D01*
X98016608Y-82564581D01*
X97987521Y-82584017D01*
X97955448Y-82605448D01*
X97951998Y-82610611D01*
X97914581Y-82666608D01*
X97914580Y-82666610D01*
X97911133Y-82671769D01*
X97899500Y-82730252D01*
X97899500Y-82861500D01*
X97881048Y-82906048D01*
X97836500Y-82924500D01*
X97516962Y-82924500D01*
X97511471Y-82924260D01*
X97476684Y-82921216D01*
X97476682Y-82921216D01*
X97471193Y-82920736D01*
X97465872Y-82922162D01*
X97465870Y-82922162D01*
X97432132Y-82931203D01*
X97426764Y-82932393D01*
X97392382Y-82938455D01*
X97392381Y-82938455D01*
X97386955Y-82939412D01*
X97382184Y-82942167D01*
X97382183Y-82942167D01*
X97381544Y-82942536D01*
X97366352Y-82948829D01*
X97360316Y-82950446D01*
X97355801Y-82953607D01*
X97355802Y-82953607D01*
X97327199Y-82973635D01*
X97322566Y-82976587D01*
X97287545Y-82996806D01*
X97284003Y-83001027D01*
X97261552Y-83027783D01*
X97257839Y-83031835D01*
X96650414Y-83639260D01*
X96605866Y-83657712D01*
X96597647Y-83657173D01*
X96500000Y-83644318D01*
X96343238Y-83664956D01*
X96339423Y-83666536D01*
X96339420Y-83666537D01*
X96200975Y-83723883D01*
X96200973Y-83723884D01*
X96197159Y-83725464D01*
X96193885Y-83727976D01*
X96193882Y-83727978D01*
X96093173Y-83805255D01*
X96071718Y-83821718D01*
X96069202Y-83824997D01*
X95977978Y-83943882D01*
X95977976Y-83943885D01*
X95975464Y-83947159D01*
X95914956Y-84093238D01*
X95894318Y-84250000D01*
X82575500Y-84250000D01*
X82575500Y-83660922D01*
X82593952Y-83616374D01*
X83191682Y-83018644D01*
X83204730Y-83008632D01*
X83207685Y-83006926D01*
X83212455Y-83004172D01*
X83238448Y-82973195D01*
X83242161Y-82969143D01*
X83341952Y-82869352D01*
X83386500Y-82850900D01*
X83431048Y-82869352D01*
X83449500Y-82913900D01*
X83449500Y-83769748D01*
X83450767Y-83776117D01*
X83457957Y-83812262D01*
X83461133Y-83828231D01*
X83464580Y-83833390D01*
X83464581Y-83833392D01*
X83479115Y-83855143D01*
X83505448Y-83894552D01*
X83510611Y-83898002D01*
X83566608Y-83935419D01*
X83566610Y-83935420D01*
X83571769Y-83938867D01*
X83577855Y-83940078D01*
X83577856Y-83940078D01*
X83592930Y-83943076D01*
X83630252Y-83950500D01*
X86169748Y-83950500D01*
X86207070Y-83943076D01*
X86222144Y-83940078D01*
X86222145Y-83940078D01*
X86228231Y-83938867D01*
X86233390Y-83935420D01*
X86233392Y-83935419D01*
X86289389Y-83898002D01*
X86294552Y-83894552D01*
X86320885Y-83855143D01*
X86335419Y-83833392D01*
X86335420Y-83833390D01*
X86338867Y-83828231D01*
X86342044Y-83812262D01*
X86349233Y-83776117D01*
X86350500Y-83769748D01*
X86350500Y-83638500D01*
X86368952Y-83593952D01*
X86413500Y-83575500D01*
X91287243Y-83575500D01*
X91331791Y-83593952D01*
X91337224Y-83600148D01*
X91397178Y-83678282D01*
X91400457Y-83680798D01*
X91519342Y-83772022D01*
X91519345Y-83772024D01*
X91522619Y-83774536D01*
X91526433Y-83776116D01*
X91526435Y-83776117D01*
X91664880Y-83833463D01*
X91664883Y-83833464D01*
X91668698Y-83835044D01*
X91825460Y-83855682D01*
X91982222Y-83835044D01*
X91986037Y-83833464D01*
X91986040Y-83833463D01*
X92124485Y-83776117D01*
X92124487Y-83776116D01*
X92128301Y-83774536D01*
X92131575Y-83772024D01*
X92131578Y-83772022D01*
X92250463Y-83680798D01*
X92253742Y-83678282D01*
X92279390Y-83644857D01*
X92347482Y-83556118D01*
X92347484Y-83556115D01*
X92349996Y-83552841D01*
X92356626Y-83536835D01*
X92408923Y-83410580D01*
X92408924Y-83410577D01*
X92410504Y-83406762D01*
X92431142Y-83250000D01*
X92410504Y-83093238D01*
X92396373Y-83059121D01*
X92376978Y-83012299D01*
X94656617Y-83012299D01*
X94677255Y-83169061D01*
X94678835Y-83172876D01*
X94678836Y-83172879D01*
X94736182Y-83311324D01*
X94737763Y-83315140D01*
X94740275Y-83318414D01*
X94740277Y-83318417D01*
X94804925Y-83402667D01*
X94834017Y-83440581D01*
X94837296Y-83443097D01*
X94956181Y-83534321D01*
X94956184Y-83534323D01*
X94959458Y-83536835D01*
X94963272Y-83538415D01*
X94963274Y-83538416D01*
X95101719Y-83595762D01*
X95101722Y-83595763D01*
X95105537Y-83597343D01*
X95262299Y-83617981D01*
X95419061Y-83597343D01*
X95422876Y-83595763D01*
X95422879Y-83595762D01*
X95561324Y-83538416D01*
X95561326Y-83538415D01*
X95565140Y-83536835D01*
X95568414Y-83534323D01*
X95568417Y-83534321D01*
X95687302Y-83443097D01*
X95690581Y-83440581D01*
X95719673Y-83402667D01*
X95784321Y-83318417D01*
X95784323Y-83318414D01*
X95786835Y-83315140D01*
X95788416Y-83311324D01*
X95845762Y-83172879D01*
X95845763Y-83172876D01*
X95847343Y-83169061D01*
X95867981Y-83012299D01*
X95847343Y-82855537D01*
X95845423Y-82850900D01*
X95788416Y-82713274D01*
X95788415Y-82713272D01*
X95786835Y-82709458D01*
X95784323Y-82706184D01*
X95784321Y-82706181D01*
X95693097Y-82587296D01*
X95690581Y-82584017D01*
X95612447Y-82524063D01*
X95588338Y-82482305D01*
X95587799Y-82474082D01*
X95587799Y-81250000D01*
X96144318Y-81250000D01*
X96164956Y-81406762D01*
X96166536Y-81410577D01*
X96166537Y-81410580D01*
X96222793Y-81546393D01*
X96225464Y-81552841D01*
X96227976Y-81556115D01*
X96227978Y-81556118D01*
X96286295Y-81632118D01*
X96321718Y-81678282D01*
X96324997Y-81680798D01*
X96443882Y-81772022D01*
X96443885Y-81772024D01*
X96447159Y-81774536D01*
X96450973Y-81776116D01*
X96450975Y-81776117D01*
X96589420Y-81833463D01*
X96589423Y-81833464D01*
X96593238Y-81835044D01*
X96750000Y-81855682D01*
X96906762Y-81835044D01*
X96910577Y-81833464D01*
X96910580Y-81833463D01*
X97049025Y-81776117D01*
X97049027Y-81776116D01*
X97052841Y-81774536D01*
X97056115Y-81772024D01*
X97056118Y-81772022D01*
X97175003Y-81680798D01*
X97178282Y-81678282D01*
X97238236Y-81600148D01*
X97279994Y-81576039D01*
X97288217Y-81575500D01*
X98586500Y-81575500D01*
X98631048Y-81593952D01*
X98649500Y-81638500D01*
X98649500Y-81769748D01*
X98661133Y-81828231D01*
X98664580Y-81833390D01*
X98664581Y-81833392D01*
X98679115Y-81855143D01*
X98705448Y-81894552D01*
X98710611Y-81898002D01*
X98766608Y-81935419D01*
X98766610Y-81935420D01*
X98771769Y-81938867D01*
X98777855Y-81940078D01*
X98777856Y-81940078D01*
X98792930Y-81943076D01*
X98830252Y-81950500D01*
X101369748Y-81950500D01*
X101407070Y-81943076D01*
X101422144Y-81940078D01*
X101422145Y-81940078D01*
X101428231Y-81938867D01*
X101433390Y-81935420D01*
X101433392Y-81935419D01*
X101489389Y-81898002D01*
X101494552Y-81894552D01*
X101520885Y-81855143D01*
X101535419Y-81833392D01*
X101535420Y-81833390D01*
X101538867Y-81828231D01*
X101550500Y-81769748D01*
X101550500Y-80730252D01*
X101540885Y-80681913D01*
X101540078Y-80677856D01*
X101540077Y-80677854D01*
X101538867Y-80671769D01*
X101535420Y-80666610D01*
X101535419Y-80666608D01*
X101498002Y-80610611D01*
X101494552Y-80605448D01*
X101483431Y-80598017D01*
X101433392Y-80564581D01*
X101433390Y-80564580D01*
X101428231Y-80561133D01*
X101422145Y-80559922D01*
X101422144Y-80559922D01*
X101407070Y-80556924D01*
X101369748Y-80549500D01*
X98830252Y-80549500D01*
X98792930Y-80556924D01*
X98777856Y-80559922D01*
X98777855Y-80559922D01*
X98771769Y-80561133D01*
X98766610Y-80564580D01*
X98766608Y-80564581D01*
X98716569Y-80598017D01*
X98705448Y-80605448D01*
X98701998Y-80610611D01*
X98664581Y-80666608D01*
X98664580Y-80666610D01*
X98661133Y-80671769D01*
X98659923Y-80677854D01*
X98659922Y-80677856D01*
X98659115Y-80681913D01*
X98649500Y-80730252D01*
X98649500Y-80861500D01*
X98631048Y-80906048D01*
X98586500Y-80924500D01*
X97288217Y-80924500D01*
X97243669Y-80906048D01*
X97238236Y-80899852D01*
X97203110Y-80854075D01*
X97178282Y-80821718D01*
X97126296Y-80781828D01*
X97056118Y-80727978D01*
X97056115Y-80727976D01*
X97052841Y-80725464D01*
X97049027Y-80723884D01*
X97049025Y-80723883D01*
X96910580Y-80666537D01*
X96910577Y-80666536D01*
X96906762Y-80664956D01*
X96750000Y-80644318D01*
X96593238Y-80664956D01*
X96589423Y-80666536D01*
X96589420Y-80666537D01*
X96450975Y-80723883D01*
X96450973Y-80723884D01*
X96447159Y-80725464D01*
X96443885Y-80727976D01*
X96443882Y-80727978D01*
X96373704Y-80781828D01*
X96321718Y-80821718D01*
X96319202Y-80824997D01*
X96227978Y-80943882D01*
X96227976Y-80943885D01*
X96225464Y-80947159D01*
X96223884Y-80950973D01*
X96223883Y-80950975D01*
X96194328Y-81022329D01*
X96164956Y-81093238D01*
X96144318Y-81250000D01*
X95587799Y-81250000D01*
X95587799Y-80898623D01*
X95606251Y-80854075D01*
X96866374Y-79593952D01*
X96910922Y-79575500D01*
X97836500Y-79575500D01*
X97881048Y-79593952D01*
X97899500Y-79638500D01*
X97899500Y-79769748D01*
X97900104Y-79772782D01*
X97909922Y-79822141D01*
X97911133Y-79828231D01*
X97914580Y-79833390D01*
X97914581Y-79833392D01*
X97933363Y-79861500D01*
X97955448Y-79894552D01*
X97960611Y-79898002D01*
X98016608Y-79935419D01*
X98016610Y-79935420D01*
X98021769Y-79938867D01*
X98027855Y-79940078D01*
X98027856Y-79940078D01*
X98038359Y-79942167D01*
X98080252Y-79950500D01*
X102119748Y-79950500D01*
X102161641Y-79942167D01*
X102172144Y-79940078D01*
X102172145Y-79940078D01*
X102178231Y-79938867D01*
X102183390Y-79935420D01*
X102183392Y-79935419D01*
X102239389Y-79898002D01*
X102244552Y-79894552D01*
X102266637Y-79861500D01*
X102285419Y-79833392D01*
X102285420Y-79833390D01*
X102288867Y-79828231D01*
X102290079Y-79822141D01*
X102299896Y-79772782D01*
X102300500Y-79769748D01*
X102300500Y-78730252D01*
X102288867Y-78671769D01*
X102285420Y-78666610D01*
X102285419Y-78666608D01*
X102248002Y-78610611D01*
X102244552Y-78605448D01*
X102239389Y-78601998D01*
X102183392Y-78564581D01*
X102183390Y-78564580D01*
X102178231Y-78561133D01*
X102172145Y-78559922D01*
X102172144Y-78559922D01*
X102153019Y-78556118D01*
X102119748Y-78549500D01*
X98080252Y-78549500D01*
X98046981Y-78556118D01*
X98027856Y-78559922D01*
X98027855Y-78559922D01*
X98021769Y-78561133D01*
X98016610Y-78564580D01*
X98016608Y-78564581D01*
X97960611Y-78601998D01*
X97955448Y-78605448D01*
X97951998Y-78610611D01*
X97914581Y-78666608D01*
X97914580Y-78666610D01*
X97911133Y-78671769D01*
X97899500Y-78730252D01*
X97899500Y-78861500D01*
X97881048Y-78906048D01*
X97836500Y-78924500D01*
X96766962Y-78924500D01*
X96761471Y-78924260D01*
X96726684Y-78921216D01*
X96726682Y-78921216D01*
X96721193Y-78920736D01*
X96715872Y-78922162D01*
X96715870Y-78922162D01*
X96682132Y-78931203D01*
X96676764Y-78932393D01*
X96642382Y-78938455D01*
X96642381Y-78938455D01*
X96636955Y-78939412D01*
X96632184Y-78942167D01*
X96632183Y-78942167D01*
X96631544Y-78942536D01*
X96616352Y-78948829D01*
X96610316Y-78950446D01*
X96605801Y-78953607D01*
X96605802Y-78953607D01*
X96577199Y-78973635D01*
X96572566Y-78976587D01*
X96537545Y-78996806D01*
X96534003Y-79001027D01*
X96511552Y-79027783D01*
X96507839Y-79031835D01*
X95044132Y-80495542D01*
X95040080Y-80499255D01*
X95032104Y-80505948D01*
X95009105Y-80525246D01*
X94989085Y-80559922D01*
X94988888Y-80560264D01*
X94985934Y-80564900D01*
X94983704Y-80568085D01*
X94962745Y-80598017D01*
X94961319Y-80603339D01*
X94961128Y-80604052D01*
X94954835Y-80619245D01*
X94951711Y-80624656D01*
X94950754Y-80630082D01*
X94950754Y-80630083D01*
X94944692Y-80664465D01*
X94943502Y-80669833D01*
X94935299Y-80700447D01*
X94933035Y-80708894D01*
X94933515Y-80714383D01*
X94933515Y-80714385D01*
X94936559Y-80749172D01*
X94936799Y-80754663D01*
X94936799Y-82474082D01*
X94918347Y-82518630D01*
X94912151Y-82524063D01*
X94834017Y-82584017D01*
X94831501Y-82587296D01*
X94740277Y-82706181D01*
X94740275Y-82706184D01*
X94737763Y-82709458D01*
X94736183Y-82713272D01*
X94736182Y-82713274D01*
X94679176Y-82850900D01*
X94677255Y-82855537D01*
X94656617Y-83012299D01*
X92376978Y-83012299D01*
X92351577Y-82950975D01*
X92351576Y-82950973D01*
X92349996Y-82947159D01*
X92347484Y-82943885D01*
X92347482Y-82943882D01*
X92256258Y-82824997D01*
X92253742Y-82821718D01*
X92238557Y-82810066D01*
X92131578Y-82727978D01*
X92131575Y-82727976D01*
X92128301Y-82725464D01*
X92124487Y-82723884D01*
X92124485Y-82723883D01*
X91986040Y-82666537D01*
X91986037Y-82666536D01*
X91982222Y-82664956D01*
X91825460Y-82644318D01*
X91668698Y-82664956D01*
X91664883Y-82666536D01*
X91664880Y-82666537D01*
X91526435Y-82723883D01*
X91526433Y-82723884D01*
X91522619Y-82725464D01*
X91519345Y-82727976D01*
X91519342Y-82727978D01*
X91412363Y-82810066D01*
X91397178Y-82821718D01*
X91394662Y-82824997D01*
X91337224Y-82899852D01*
X91295466Y-82923961D01*
X91287243Y-82924500D01*
X86413500Y-82924500D01*
X86368952Y-82906048D01*
X86350500Y-82861500D01*
X86350500Y-82730252D01*
X86338867Y-82671769D01*
X86339314Y-82671680D01*
X86339315Y-82627793D01*
X86352971Y-82607356D01*
X86616375Y-82343952D01*
X86660923Y-82325500D01*
X92733038Y-82325500D01*
X92738529Y-82325740D01*
X92773316Y-82328784D01*
X92773318Y-82328784D01*
X92778807Y-82329264D01*
X92784128Y-82327838D01*
X92784130Y-82327838D01*
X92817868Y-82318797D01*
X92823236Y-82317607D01*
X92857618Y-82311545D01*
X92857619Y-82311545D01*
X92863045Y-82310588D01*
X92868456Y-82307464D01*
X92883649Y-82301171D01*
X92884362Y-82300980D01*
X92889684Y-82299554D01*
X92903190Y-82290097D01*
X92922801Y-82276365D01*
X92927437Y-82273411D01*
X92962455Y-82253194D01*
X92988448Y-82222217D01*
X92992161Y-82218165D01*
X94218167Y-80992159D01*
X94222219Y-80988446D01*
X94248973Y-80965997D01*
X94248973Y-80965996D01*
X94253194Y-80962455D01*
X94273413Y-80927434D01*
X94276365Y-80922801D01*
X94296393Y-80894198D01*
X94299554Y-80889684D01*
X94301171Y-80883648D01*
X94307464Y-80868456D01*
X94307833Y-80867817D01*
X94307833Y-80867816D01*
X94310588Y-80863045D01*
X94312875Y-80850077D01*
X94317607Y-80823236D01*
X94318797Y-80817868D01*
X94327838Y-80784130D01*
X94327838Y-80784128D01*
X94329264Y-80778807D01*
X94325740Y-80738529D01*
X94325500Y-80733038D01*
X94325500Y-77769748D01*
X98649500Y-77769748D01*
X98661133Y-77828231D01*
X98664580Y-77833390D01*
X98664581Y-77833392D01*
X98679115Y-77855143D01*
X98705448Y-77894552D01*
X98710611Y-77898002D01*
X98766608Y-77935419D01*
X98766610Y-77935420D01*
X98771769Y-77938867D01*
X98777855Y-77940078D01*
X98777856Y-77940078D01*
X98792930Y-77943076D01*
X98830252Y-77950500D01*
X101369748Y-77950500D01*
X101407070Y-77943076D01*
X101422144Y-77940078D01*
X101422145Y-77940078D01*
X101428231Y-77938867D01*
X101433390Y-77935420D01*
X101433392Y-77935419D01*
X101489389Y-77898002D01*
X101494552Y-77894552D01*
X101520885Y-77855143D01*
X101535419Y-77833392D01*
X101535420Y-77833390D01*
X101538867Y-77828231D01*
X101549330Y-77775631D01*
X101576117Y-77735542D01*
X101623408Y-77726134D01*
X101649470Y-77737943D01*
X101693882Y-77772022D01*
X101693885Y-77772024D01*
X101697159Y-77774536D01*
X101700973Y-77776116D01*
X101700975Y-77776117D01*
X101839420Y-77833463D01*
X101839423Y-77833464D01*
X101843238Y-77835044D01*
X102000000Y-77855682D01*
X102156762Y-77835044D01*
X102160577Y-77833464D01*
X102160580Y-77833463D01*
X102299025Y-77776117D01*
X102299027Y-77776116D01*
X102302841Y-77774536D01*
X102306115Y-77772024D01*
X102306118Y-77772022D01*
X102425003Y-77680798D01*
X102428282Y-77678282D01*
X102443234Y-77658796D01*
X102522022Y-77556118D01*
X102522024Y-77556115D01*
X102524536Y-77552841D01*
X102585044Y-77406762D01*
X102605682Y-77250000D01*
X102585044Y-77093238D01*
X102548656Y-77005388D01*
X102526117Y-76950975D01*
X102526116Y-76950973D01*
X102524536Y-76947159D01*
X102522024Y-76943885D01*
X102522022Y-76943882D01*
X102430798Y-76824997D01*
X102428282Y-76821718D01*
X102368418Y-76775783D01*
X102306118Y-76727978D01*
X102306115Y-76727976D01*
X102302841Y-76725464D01*
X102299027Y-76723884D01*
X102299025Y-76723883D01*
X102160580Y-76666537D01*
X102160577Y-76666536D01*
X102156762Y-76664956D01*
X102000000Y-76644318D01*
X101843238Y-76664956D01*
X101839423Y-76666536D01*
X101839420Y-76666537D01*
X101700975Y-76723883D01*
X101700973Y-76723884D01*
X101697159Y-76725464D01*
X101693885Y-76727976D01*
X101693882Y-76727978D01*
X101649470Y-76762057D01*
X101602895Y-76774537D01*
X101561137Y-76750428D01*
X101549330Y-76724371D01*
X101538867Y-76671769D01*
X101535420Y-76666610D01*
X101535419Y-76666608D01*
X101498002Y-76610611D01*
X101494552Y-76605448D01*
X101443227Y-76571153D01*
X101433392Y-76564581D01*
X101433390Y-76564580D01*
X101428231Y-76561133D01*
X101422145Y-76559922D01*
X101422144Y-76559922D01*
X101407070Y-76556924D01*
X101369748Y-76549500D01*
X98830252Y-76549500D01*
X98792930Y-76556924D01*
X98777856Y-76559922D01*
X98777855Y-76559922D01*
X98771769Y-76561133D01*
X98766610Y-76564580D01*
X98766608Y-76564581D01*
X98756773Y-76571153D01*
X98705448Y-76605448D01*
X98701998Y-76610611D01*
X98664581Y-76666608D01*
X98664580Y-76666610D01*
X98661133Y-76671769D01*
X98649500Y-76730252D01*
X98649500Y-77769748D01*
X94325500Y-77769748D01*
X94325500Y-75808935D01*
X94343952Y-75764387D01*
X94388500Y-75745935D01*
X94426852Y-75758954D01*
X94443882Y-75772022D01*
X94443885Y-75772024D01*
X94447159Y-75774536D01*
X94450973Y-75776116D01*
X94450975Y-75776117D01*
X94589420Y-75833463D01*
X94589423Y-75833464D01*
X94593238Y-75835044D01*
X94750000Y-75855682D01*
X94906762Y-75835044D01*
X94910577Y-75833464D01*
X94910580Y-75833463D01*
X95049025Y-75776117D01*
X95049027Y-75776116D01*
X95052841Y-75774536D01*
X95056115Y-75772024D01*
X95056118Y-75772022D01*
X95175003Y-75680798D01*
X95178282Y-75678282D01*
X95238236Y-75600148D01*
X95279994Y-75576039D01*
X95288217Y-75575500D01*
X98586500Y-75575500D01*
X98631048Y-75593952D01*
X98649500Y-75638500D01*
X98649500Y-75769748D01*
X98661133Y-75828231D01*
X98664580Y-75833390D01*
X98664581Y-75833392D01*
X98679115Y-75855143D01*
X98705448Y-75894552D01*
X98710611Y-75898002D01*
X98766608Y-75935419D01*
X98766610Y-75935420D01*
X98771769Y-75938867D01*
X98777855Y-75940078D01*
X98777856Y-75940078D01*
X98792930Y-75943076D01*
X98830252Y-75950500D01*
X101369748Y-75950500D01*
X101407070Y-75943076D01*
X101422144Y-75940078D01*
X101422145Y-75940078D01*
X101428231Y-75938867D01*
X101433390Y-75935420D01*
X101433392Y-75935419D01*
X101489389Y-75898002D01*
X101494552Y-75894552D01*
X101520885Y-75855143D01*
X101535419Y-75833392D01*
X101535420Y-75833390D01*
X101538867Y-75828231D01*
X101550500Y-75769748D01*
X101550500Y-74730252D01*
X101538867Y-74671769D01*
X101535420Y-74666610D01*
X101535419Y-74666608D01*
X101498002Y-74610611D01*
X101494552Y-74605448D01*
X101428231Y-74561133D01*
X101430210Y-74558172D01*
X101404804Y-74532785D01*
X101400000Y-74508655D01*
X101400000Y-73991345D01*
X101418452Y-73946797D01*
X101428877Y-73939834D01*
X101428231Y-73938867D01*
X101489389Y-73898002D01*
X101494552Y-73894552D01*
X101519747Y-73856846D01*
X101535419Y-73833392D01*
X101535420Y-73833390D01*
X101538867Y-73828231D01*
X101550500Y-73769748D01*
X101550500Y-72730252D01*
X101538867Y-72671769D01*
X101535420Y-72666610D01*
X101535419Y-72666608D01*
X101498002Y-72610611D01*
X101494552Y-72605448D01*
X101428231Y-72561133D01*
X101430210Y-72558172D01*
X101404804Y-72532785D01*
X101400000Y-72508655D01*
X101400000Y-71991345D01*
X101418452Y-71946797D01*
X101428877Y-71939834D01*
X101428231Y-71938867D01*
X101489389Y-71898002D01*
X101494552Y-71894552D01*
X101498002Y-71889389D01*
X101535419Y-71833392D01*
X101535420Y-71833390D01*
X101538867Y-71828231D01*
X101550500Y-71769748D01*
X101550500Y-70730252D01*
X101538867Y-70671769D01*
X101535420Y-70666610D01*
X101535419Y-70666608D01*
X101498002Y-70610611D01*
X101494552Y-70605448D01*
X101489389Y-70601998D01*
X101433392Y-70564581D01*
X101433390Y-70564580D01*
X101428231Y-70561133D01*
X101422145Y-70559922D01*
X101422144Y-70559922D01*
X101407070Y-70556924D01*
X101369748Y-70549500D01*
X98830252Y-70549500D01*
X98792930Y-70556924D01*
X98777856Y-70559922D01*
X98777855Y-70559922D01*
X98771769Y-70561133D01*
X98766610Y-70564580D01*
X98766608Y-70564581D01*
X98710611Y-70601998D01*
X98705448Y-70605448D01*
X98701998Y-70610611D01*
X98664581Y-70666608D01*
X98664580Y-70666610D01*
X98661133Y-70671769D01*
X98649500Y-70730252D01*
X98649500Y-70861500D01*
X98631048Y-70906048D01*
X98586500Y-70924500D01*
X98516954Y-70924500D01*
X98511464Y-70924260D01*
X98476681Y-70921217D01*
X98476680Y-70921217D01*
X98471193Y-70920737D01*
X98465875Y-70922162D01*
X98465874Y-70922162D01*
X98432135Y-70931202D01*
X98426769Y-70932391D01*
X98386955Y-70939412D01*
X98381545Y-70942535D01*
X98366348Y-70948830D01*
X98366090Y-70948899D01*
X98365640Y-70949019D01*
X98365639Y-70949020D01*
X98360316Y-70950446D01*
X98355801Y-70953608D01*
X98355800Y-70953608D01*
X98327199Y-70973635D01*
X98322566Y-70976587D01*
X98287545Y-70996806D01*
X98284003Y-71001027D01*
X98261552Y-71027783D01*
X98257839Y-71031835D01*
X96281833Y-73007841D01*
X96277781Y-73011554D01*
X96246806Y-73037545D01*
X96244052Y-73042316D01*
X96226589Y-73072563D01*
X96223635Y-73077199D01*
X96200446Y-73110316D01*
X96199020Y-73115638D01*
X96198829Y-73116351D01*
X96192536Y-73131544D01*
X96189412Y-73136955D01*
X96188455Y-73142381D01*
X96188455Y-73142382D01*
X96182393Y-73176764D01*
X96181203Y-73182132D01*
X96170736Y-73221193D01*
X96170732Y-73221192D01*
X96147472Y-73263590D01*
X96071718Y-73321718D01*
X96069202Y-73324997D01*
X96011764Y-73399852D01*
X95970006Y-73423961D01*
X95961783Y-73424500D01*
X93516951Y-73424500D01*
X93511460Y-73424260D01*
X93476681Y-73421217D01*
X93476680Y-73421217D01*
X93471193Y-73420737D01*
X93465875Y-73422162D01*
X93465874Y-73422162D01*
X93432135Y-73431202D01*
X93426769Y-73432391D01*
X93386955Y-73439412D01*
X93381545Y-73442535D01*
X93366348Y-73448830D01*
X93360316Y-73450446D01*
X93355803Y-73453606D01*
X93327189Y-73473641D01*
X93322560Y-73476590D01*
X93287545Y-73496806D01*
X93284003Y-73501027D01*
X93261557Y-73527777D01*
X93257844Y-73531829D01*
X91781833Y-75007841D01*
X91777781Y-75011554D01*
X91758637Y-75027618D01*
X91746806Y-75037545D01*
X91726589Y-75072563D01*
X91723635Y-75077199D01*
X91712710Y-75092801D01*
X91700446Y-75110316D01*
X91699020Y-75115638D01*
X91698829Y-75116351D01*
X91692536Y-75131544D01*
X91689412Y-75136955D01*
X91688455Y-75142381D01*
X91688455Y-75142382D01*
X91682393Y-75176764D01*
X91681203Y-75182132D01*
X91672819Y-75213421D01*
X91670736Y-75221193D01*
X91671216Y-75226682D01*
X91671216Y-75226684D01*
X91674260Y-75261471D01*
X91674500Y-75266962D01*
X91674500Y-79339077D01*
X91656048Y-79383625D01*
X91133626Y-79906048D01*
X91089078Y-79924500D01*
X86391966Y-79924500D01*
X86347418Y-79906048D01*
X86328966Y-79861500D01*
X86333762Y-79837389D01*
X86335418Y-79833392D01*
X86338867Y-79828231D01*
X86350500Y-79769748D01*
X86350500Y-78730252D01*
X86338867Y-78671769D01*
X86335420Y-78666610D01*
X86335419Y-78666608D01*
X86298002Y-78610611D01*
X86294552Y-78605448D01*
X86289389Y-78601998D01*
X86233392Y-78564581D01*
X86233390Y-78564580D01*
X86228231Y-78561133D01*
X86222145Y-78559922D01*
X86222144Y-78559922D01*
X86203019Y-78556118D01*
X86169748Y-78549500D01*
X86063000Y-78549500D01*
X86018452Y-78531048D01*
X86000000Y-78486500D01*
X86000000Y-78013500D01*
X86018452Y-77968952D01*
X86063000Y-77950500D01*
X86169748Y-77950500D01*
X86207070Y-77943076D01*
X86222144Y-77940078D01*
X86222145Y-77940078D01*
X86228231Y-77938867D01*
X86233390Y-77935420D01*
X86233392Y-77935419D01*
X86289389Y-77898002D01*
X86294552Y-77894552D01*
X86320885Y-77855143D01*
X86335419Y-77833392D01*
X86335420Y-77833390D01*
X86338867Y-77828231D01*
X86350500Y-77769748D01*
X86350500Y-77638500D01*
X86368952Y-77593952D01*
X86413500Y-77575500D01*
X89607283Y-77575500D01*
X89651831Y-77593952D01*
X89657264Y-77600148D01*
X89717218Y-77678282D01*
X89775504Y-77723006D01*
X89802285Y-77743556D01*
X89826394Y-77785314D01*
X89813914Y-77831888D01*
X89803097Y-77845986D01*
X89727978Y-77943882D01*
X89727976Y-77943885D01*
X89725464Y-77947159D01*
X89723884Y-77950973D01*
X89723883Y-77950975D01*
X89696184Y-78017848D01*
X89664956Y-78093238D01*
X89644318Y-78250000D01*
X89664956Y-78406762D01*
X89666536Y-78410577D01*
X89666537Y-78410580D01*
X89716437Y-78531048D01*
X89725464Y-78552841D01*
X89727976Y-78556115D01*
X89727978Y-78556118D01*
X89769792Y-78610611D01*
X89821718Y-78678282D01*
X89824997Y-78680798D01*
X89943882Y-78772022D01*
X89943885Y-78772024D01*
X89947159Y-78774536D01*
X89950973Y-78776116D01*
X89950975Y-78776117D01*
X90089420Y-78833463D01*
X90089423Y-78833464D01*
X90093238Y-78835044D01*
X90250000Y-78855682D01*
X90406762Y-78835044D01*
X90410577Y-78833464D01*
X90410580Y-78833463D01*
X90549025Y-78776117D01*
X90549027Y-78776116D01*
X90552841Y-78774536D01*
X90556115Y-78772024D01*
X90556118Y-78772022D01*
X90675003Y-78680798D01*
X90678282Y-78678282D01*
X90730208Y-78610611D01*
X90772022Y-78556118D01*
X90772024Y-78556115D01*
X90774536Y-78552841D01*
X90783563Y-78531048D01*
X90833463Y-78410580D01*
X90833464Y-78410577D01*
X90835044Y-78406762D01*
X90855682Y-78250000D01*
X90842827Y-78152356D01*
X90855307Y-78105782D01*
X90860740Y-78099586D01*
X91088178Y-77872148D01*
X91092230Y-77868435D01*
X91118984Y-77845986D01*
X91118984Y-77845985D01*
X91123205Y-77842444D01*
X91143424Y-77807423D01*
X91146376Y-77802790D01*
X91166404Y-77774187D01*
X91169565Y-77769673D01*
X91171182Y-77763637D01*
X91177475Y-77748445D01*
X91177844Y-77747806D01*
X91177844Y-77747805D01*
X91180599Y-77743034D01*
X91187618Y-77703225D01*
X91188808Y-77697857D01*
X91197849Y-77664119D01*
X91197849Y-77664117D01*
X91199275Y-77658796D01*
X91197500Y-77638500D01*
X91195751Y-77618518D01*
X91195511Y-77613027D01*
X91195511Y-76886974D01*
X91195751Y-76881483D01*
X91198795Y-76846696D01*
X91198795Y-76846694D01*
X91199275Y-76841205D01*
X91188807Y-76802139D01*
X91187621Y-76796786D01*
X91183685Y-76774468D01*
X91180599Y-76756966D01*
X91177475Y-76751555D01*
X91171182Y-76736362D01*
X91170991Y-76735649D01*
X91169565Y-76730327D01*
X91146376Y-76697210D01*
X91143422Y-76692574D01*
X91139359Y-76685537D01*
X91123205Y-76657556D01*
X91092228Y-76631563D01*
X91088176Y-76627850D01*
X89492159Y-75031833D01*
X89488446Y-75027781D01*
X89465997Y-75001027D01*
X89465996Y-75001027D01*
X89462455Y-74996806D01*
X89427434Y-74976587D01*
X89422801Y-74973635D01*
X89394198Y-74953607D01*
X89394199Y-74953607D01*
X89389684Y-74950446D01*
X89383648Y-74948829D01*
X89368456Y-74942536D01*
X89367817Y-74942167D01*
X89367816Y-74942167D01*
X89363045Y-74939412D01*
X89357619Y-74938455D01*
X89357618Y-74938455D01*
X89323236Y-74932393D01*
X89317868Y-74931203D01*
X89284130Y-74922162D01*
X89284128Y-74922162D01*
X89278807Y-74920736D01*
X89273318Y-74921216D01*
X89273316Y-74921216D01*
X89238529Y-74924260D01*
X89233038Y-74924500D01*
X86413500Y-74924500D01*
X86368952Y-74906048D01*
X86350500Y-74861500D01*
X86350500Y-74730252D01*
X86338867Y-74671769D01*
X86335420Y-74666610D01*
X86335419Y-74666608D01*
X86298002Y-74610611D01*
X86294552Y-74605448D01*
X86284727Y-74598883D01*
X86233392Y-74564581D01*
X86233390Y-74564580D01*
X86228231Y-74561133D01*
X86222145Y-74559922D01*
X86222144Y-74559922D01*
X86207070Y-74556924D01*
X86169748Y-74549500D01*
X83630252Y-74549500D01*
X83571769Y-74561133D01*
X83567186Y-74564195D01*
X83519325Y-74564196D01*
X83485228Y-74530102D01*
X83485227Y-74481884D01*
X83498884Y-74461443D01*
X83991375Y-73968952D01*
X84035923Y-73950500D01*
X86169748Y-73950500D01*
X86207070Y-73943076D01*
X86222144Y-73940078D01*
X86222145Y-73940078D01*
X86228231Y-73938867D01*
X86233390Y-73935420D01*
X86233392Y-73935419D01*
X86289389Y-73898002D01*
X86294552Y-73894552D01*
X86319747Y-73856846D01*
X86335419Y-73833392D01*
X86335420Y-73833390D01*
X86338867Y-73828231D01*
X86350500Y-73769748D01*
X86350500Y-72730252D01*
X86338867Y-72671769D01*
X86335420Y-72666610D01*
X86335419Y-72666608D01*
X86298002Y-72610611D01*
X86294552Y-72605448D01*
X86289389Y-72601998D01*
X86233392Y-72564581D01*
X86233390Y-72564580D01*
X86228231Y-72561133D01*
X86222145Y-72559922D01*
X86222144Y-72559922D01*
X86203310Y-72556176D01*
X86169748Y-72549500D01*
X83630252Y-72549500D01*
X83571769Y-72561133D01*
X83567186Y-72564195D01*
X83519322Y-72564196D01*
X83485227Y-72530100D01*
X83485226Y-72481882D01*
X83498883Y-72461443D01*
X83991374Y-71968952D01*
X84035922Y-71950500D01*
X86169748Y-71950500D01*
X86207070Y-71943076D01*
X86222144Y-71940078D01*
X86222145Y-71940078D01*
X86228231Y-71938867D01*
X86233390Y-71935420D01*
X86233392Y-71935419D01*
X86289389Y-71898002D01*
X86294552Y-71894552D01*
X86298002Y-71889389D01*
X86335419Y-71833392D01*
X86335420Y-71833390D01*
X86338867Y-71828231D01*
X86350500Y-71769748D01*
X86350500Y-70730252D01*
X86338867Y-70671769D01*
X86335420Y-70666610D01*
X86335419Y-70666608D01*
X86298002Y-70610611D01*
X86294552Y-70605448D01*
X86289389Y-70601998D01*
X86233392Y-70564581D01*
X86233390Y-70564580D01*
X86228231Y-70561133D01*
X86222145Y-70559922D01*
X86222144Y-70559922D01*
X86207070Y-70556924D01*
X86169748Y-70549500D01*
X83630252Y-70549500D01*
X83592930Y-70556924D01*
X83577856Y-70559922D01*
X83577855Y-70559922D01*
X83571769Y-70561133D01*
X83566610Y-70564580D01*
X83566608Y-70564581D01*
X83510611Y-70601998D01*
X83505448Y-70605448D01*
X83501998Y-70610611D01*
X83464581Y-70666608D01*
X83464580Y-70666610D01*
X83461133Y-70671769D01*
X83449500Y-70730252D01*
X83449500Y-71564078D01*
X83431048Y-71608626D01*
X83133626Y-71906048D01*
X83089078Y-71924500D01*
X82102361Y-71924500D01*
X82057813Y-71906048D01*
X82039361Y-71861500D01*
X82049977Y-71826501D01*
X82068867Y-71798231D01*
X82080500Y-71739748D01*
X82080500Y-70500252D01*
X82068867Y-70441769D01*
X82065420Y-70436610D01*
X82065419Y-70436608D01*
X82028002Y-70380611D01*
X82024552Y-70375448D01*
X82019389Y-70371998D01*
X81963392Y-70334581D01*
X81963390Y-70334580D01*
X81958231Y-70331133D01*
X81952145Y-70329922D01*
X81952144Y-70329922D01*
X81937070Y-70326924D01*
X81899748Y-70319500D01*
X80660252Y-70319500D01*
X80622930Y-70326924D01*
X80607856Y-70329922D01*
X80607855Y-70329922D01*
X80601769Y-70331133D01*
X80596610Y-70334580D01*
X80596608Y-70334581D01*
X80540611Y-70371998D01*
X80535448Y-70375448D01*
X80531998Y-70380611D01*
X80494581Y-70436608D01*
X80494580Y-70436610D01*
X80491133Y-70441769D01*
X80479500Y-70500252D01*
X80479500Y-71739748D01*
X80491133Y-71798231D01*
X80494579Y-71803388D01*
X80494581Y-71803392D01*
X80514627Y-71833392D01*
X80535448Y-71864552D01*
X80558366Y-71879866D01*
X80585154Y-71919956D01*
X80575748Y-71967247D01*
X80554867Y-71986805D01*
X80537545Y-71996806D01*
X80534003Y-72001027D01*
X80511557Y-72027777D01*
X80507844Y-72031829D01*
X79781827Y-72757847D01*
X79777774Y-72761560D01*
X79751031Y-72783999D01*
X79751029Y-72784002D01*
X79746806Y-72787545D01*
X79726589Y-72822563D01*
X79723635Y-72827199D01*
X79700446Y-72860316D01*
X79699020Y-72865638D01*
X79698829Y-72866351D01*
X79692536Y-72881544D01*
X79689412Y-72886955D01*
X79688455Y-72892381D01*
X79688455Y-72892382D01*
X79682393Y-72926764D01*
X79681203Y-72932132D01*
X79676678Y-72949020D01*
X79670736Y-72971193D01*
X79671216Y-72976682D01*
X79671216Y-72976684D01*
X79674260Y-73011471D01*
X79674500Y-73016962D01*
X79674500Y-74903038D01*
X79674260Y-74908529D01*
X79671285Y-74942536D01*
X79670736Y-74948807D01*
X79010000Y-74948807D01*
X79010000Y-70002751D01*
X79010037Y-70001900D01*
X79010824Y-70000000D01*
X79010187Y-69998462D01*
X79010240Y-69997260D01*
X79024560Y-69833579D01*
X79026467Y-69822764D01*
X79068278Y-69666723D01*
X79072034Y-69656404D01*
X79140304Y-69509998D01*
X79145794Y-69500488D01*
X79150988Y-69493071D01*
X79238454Y-69368156D01*
X79245513Y-69359743D01*
X79359743Y-69245513D01*
X79368156Y-69238454D01*
X79500488Y-69145794D01*
X79509995Y-69140306D01*
X79654332Y-69073000D01*
X79656404Y-69072034D01*
X79666723Y-69068278D01*
X79822764Y-69026467D01*
X79833579Y-69024560D01*
X79997260Y-69010240D01*
X79998462Y-69010187D01*
X80000000Y-69010824D01*
X80001900Y-69010037D01*
X80002751Y-69010000D01*
X84317000Y-69010000D01*
X84361548Y-69028452D01*
G37*
%TD.AperFunction*%
%TD*%
M02*
