%TF.GenerationSoftware,KiCad,Pcbnew,(6.0.2)*%
%TF.CreationDate,2022-09-28T21:47:15+01:00*%
%TF.ProjectId,m-link-lite,6d2d6c69-6e6b-42d6-9c69-74652e6b6963,rev?*%
%TF.SameCoordinates,Original*%
%TF.FileFunction,Copper,L1,Top*%
%TF.FilePolarity,Positive*%
%FSLAX46Y46*%
G04 Gerber Fmt 4.6, Leading zero omitted, Abs format (unit mm)*
G04 Created by KiCad (PCBNEW (6.0.2)) date 2022-09-28 21:47:15*
%MOMM*%
%LPD*%
G01*
G04 APERTURE LIST*
G04 Aperture macros list*
%AMRoundRect*
0 Rectangle with rounded corners*
0 $1 Rounding radius*
0 $2 $3 $4 $5 $6 $7 $8 $9 X,Y pos of 4 corners*
0 Add a 4 corners polygon primitive as box body*
4,1,4,$2,$3,$4,$5,$6,$7,$8,$9,$2,$3,0*
0 Add four circle primitives for the rounded corners*
1,1,$1+$1,$2,$3*
1,1,$1+$1,$4,$5*
1,1,$1+$1,$6,$7*
1,1,$1+$1,$8,$9*
0 Add four rect primitives between the rounded corners*
20,1,$1+$1,$2,$3,$4,$5,0*
20,1,$1+$1,$4,$5,$6,$7,0*
20,1,$1+$1,$6,$7,$8,$9,0*
20,1,$1+$1,$8,$9,$2,$3,0*%
G04 Aperture macros list end*
%TA.AperFunction,SMDPad,CuDef*%
%ADD10RoundRect,0.200000X-0.275000X0.200000X-0.275000X-0.200000X0.275000X-0.200000X0.275000X0.200000X0*%
%TD*%
%TA.AperFunction,SMDPad,CuDef*%
%ADD11RoundRect,0.200000X-0.200000X-0.275000X0.200000X-0.275000X0.200000X0.275000X-0.200000X0.275000X0*%
%TD*%
%TA.AperFunction,SMDPad,CuDef*%
%ADD12R,1.500000X2.000000*%
%TD*%
%TA.AperFunction,SMDPad,CuDef*%
%ADD13R,3.800000X2.000000*%
%TD*%
%TA.AperFunction,SMDPad,CuDef*%
%ADD14RoundRect,0.218750X-0.256250X0.218750X-0.256250X-0.218750X0.256250X-0.218750X0.256250X0.218750X0*%
%TD*%
%TA.AperFunction,SMDPad,CuDef*%
%ADD15R,1.050000X0.650000*%
%TD*%
%TA.AperFunction,SMDPad,CuDef*%
%ADD16RoundRect,0.225000X-0.225000X-0.250000X0.225000X-0.250000X0.225000X0.250000X-0.225000X0.250000X0*%
%TD*%
%TA.AperFunction,SMDPad,CuDef*%
%ADD17RoundRect,0.225000X-0.250000X0.225000X-0.250000X-0.225000X0.250000X-0.225000X0.250000X0.225000X0*%
%TD*%
%TA.AperFunction,SMDPad,CuDef*%
%ADD18RoundRect,0.150000X-0.725000X-0.150000X0.725000X-0.150000X0.725000X0.150000X-0.725000X0.150000X0*%
%TD*%
%TA.AperFunction,ComponentPad*%
%ADD19O,1.700000X1.700000*%
%TD*%
%TA.AperFunction,ComponentPad*%
%ADD20R,1.700000X1.700000*%
%TD*%
%TA.AperFunction,SMDPad,CuDef*%
%ADD21RoundRect,0.225000X0.225000X0.250000X-0.225000X0.250000X-0.225000X-0.250000X0.225000X-0.250000X0*%
%TD*%
%TA.AperFunction,SMDPad,CuDef*%
%ADD22RoundRect,0.200000X0.275000X-0.200000X0.275000X0.200000X-0.275000X0.200000X-0.275000X-0.200000X0*%
%TD*%
%TA.AperFunction,ComponentPad*%
%ADD23R,1.200000X1.200000*%
%TD*%
%TA.AperFunction,ComponentPad*%
%ADD24O,1.200000X1.200000*%
%TD*%
%TA.AperFunction,SMDPad,CuDef*%
%ADD25RoundRect,0.200000X0.200000X0.275000X-0.200000X0.275000X-0.200000X-0.275000X0.200000X-0.275000X0*%
%TD*%
%TA.AperFunction,ViaPad*%
%ADD26C,0.800000*%
%TD*%
%TA.AperFunction,Conductor*%
%ADD27C,0.250000*%
%TD*%
%TA.AperFunction,Conductor*%
%ADD28C,0.800000*%
%TD*%
G04 APERTURE END LIST*
D10*
%TO.P,R8,1*%
%TO.N,+3V3*%
X93000000Y-71175000D03*
%TO.P,R8,2*%
%TO.N,/OE*%
X93000000Y-72825000D03*
%TD*%
D11*
%TO.P,R1,1*%
%TO.N,/SENSE*%
X80500000Y-91250000D03*
%TO.P,R1,2*%
%TO.N,/ADC*%
X82150000Y-91250000D03*
%TD*%
D12*
%TO.P,U1,1,GND*%
%TO.N,GND*%
X84500000Y-81900000D03*
%TO.P,U1,2,VO*%
%TO.N,+3V3*%
X86800000Y-81900000D03*
D13*
X86800000Y-75600000D03*
D12*
%TO.P,U1,3,VI*%
%TO.N,+5V*%
X89100000Y-81900000D03*
%TD*%
D14*
%TO.P,D1,1,K*%
%TO.N,GND*%
X101500000Y-71250000D03*
%TO.P,D1,2,A*%
%TO.N,Net-(D1-Pad2)*%
X101500000Y-72825000D03*
%TD*%
D15*
%TO.P,SW1,1,1*%
%TO.N,GND*%
X89000000Y-73150000D03*
X84850000Y-73150000D03*
%TO.P,SW1,2,2*%
%TO.N,/DTR*%
X84850000Y-71000000D03*
X89000000Y-71000000D03*
%TD*%
D16*
%TO.P,C1,1*%
%TO.N,+5V*%
X87725000Y-86200000D03*
%TO.P,C1,2*%
%TO.N,GND*%
X89275000Y-86200000D03*
%TD*%
%TO.P,C3,1*%
%TO.N,+5V*%
X87725000Y-84700000D03*
%TO.P,C3,2*%
%TO.N,GND*%
X89275000Y-84700000D03*
%TD*%
D17*
%TO.P,C7,1*%
%TO.N,+3V3*%
X100500000Y-87250000D03*
%TO.P,C7,2*%
%TO.N,GND*%
X100500000Y-88800000D03*
%TD*%
D18*
%TO.P,U3,1,E1*%
%TO.N,/OE*%
X93350000Y-77110000D03*
%TO.P,U3,2,I1*%
%TO.N,/CH1_LV*%
X93350000Y-78380000D03*
%TO.P,U3,3,O1*%
%TO.N,/CH1*%
X93350000Y-79650000D03*
%TO.P,U3,4,I2*%
%TO.N,/CH3_LV*%
X93350000Y-80920000D03*
%TO.P,U3,5,O2*%
%TO.N,/CH3*%
X93350000Y-82190000D03*
%TO.P,U3,6,I3*%
%TO.N,/CH5_LV*%
X93350000Y-83460000D03*
%TO.P,U3,7,O3*%
%TO.N,/CH5*%
X93350000Y-84730000D03*
%TO.P,U3,8,GND*%
%TO.N,GND*%
X93350000Y-86000000D03*
%TO.P,U3,9,O4*%
%TO.N,/CH6*%
X98500000Y-86000000D03*
%TO.P,U3,10,I4*%
%TO.N,/CH6_LV*%
X98500000Y-84730000D03*
%TO.P,U3,11,O5*%
%TO.N,/CH4*%
X98500000Y-83460000D03*
%TO.P,U3,12,I5*%
%TO.N,/CH4_LV*%
X98500000Y-82190000D03*
%TO.P,U3,13,O6*%
%TO.N,/CH2*%
X98500000Y-80920000D03*
%TO.P,U3,14,I6*%
%TO.N,/CH2_LV*%
X98500000Y-79650000D03*
%TO.P,U3,15,E2*%
%TO.N,GND*%
X98500000Y-78380000D03*
%TO.P,U3,16,VCC*%
%TO.N,+3V3*%
X98500000Y-77110000D03*
%TD*%
D19*
%TO.P,J3,1,Pin_1*%
%TO.N,/CH1*%
X86360000Y-91440000D03*
%TO.P,J3,2,Pin_2*%
%TO.N,+5V*%
X86360000Y-93980000D03*
D20*
%TO.P,J3,3,Pin_3*%
%TO.N,GND*%
X86360000Y-96520000D03*
D19*
%TO.P,J3,4,Pin_4*%
%TO.N,/CH2*%
X88900000Y-91440000D03*
%TO.P,J3,5,Pin_5*%
%TO.N,+5V*%
X88900000Y-93980000D03*
D20*
%TO.P,J3,6,Pin_6*%
%TO.N,GND*%
X88900000Y-96520000D03*
D19*
%TO.P,J3,7,Pin_7*%
%TO.N,/CH3*%
X91440000Y-91440000D03*
%TO.P,J3,8,Pin_8*%
%TO.N,+5V*%
X91440000Y-93980000D03*
D20*
%TO.P,J3,9,Pin_9*%
%TO.N,GND*%
X91440000Y-96520000D03*
D19*
%TO.P,J3,10,Pin_10*%
%TO.N,/CH4*%
X93980000Y-91440000D03*
%TO.P,J3,11,Pin_11*%
%TO.N,+5V*%
X93980000Y-93980000D03*
D20*
%TO.P,J3,12,Pin_12*%
%TO.N,GND*%
X93980000Y-96520000D03*
D19*
%TO.P,J3,13,Pin_13*%
%TO.N,/CH5*%
X96520000Y-91440000D03*
%TO.P,J3,14,Pin_14*%
%TO.N,+5V*%
X96520000Y-93980000D03*
D20*
%TO.P,J3,15,Pin_15*%
%TO.N,GND*%
X96520000Y-96520000D03*
D19*
%TO.P,J3,16,Pin_16*%
%TO.N,/CH6*%
X99060000Y-91440000D03*
%TO.P,J3,17,Pin_17*%
%TO.N,+5V*%
X99060000Y-93980000D03*
D20*
%TO.P,J3,18,Pin_18*%
%TO.N,GND*%
X99060000Y-96520000D03*
%TD*%
D21*
%TO.P,C4,1*%
%TO.N,+3V3*%
X86175000Y-84700000D03*
%TO.P,C4,2*%
%TO.N,GND*%
X84625000Y-84700000D03*
%TD*%
D22*
%TO.P,R10,1*%
%TO.N,/LED1*%
X101500000Y-76075000D03*
%TO.P,R10,2*%
%TO.N,Net-(D1-Pad2)*%
X101500000Y-74425000D03*
%TD*%
D10*
%TO.P,R4,1*%
%TO.N,+3V3*%
X96500000Y-71175000D03*
%TO.P,R4,2*%
%TO.N,/RESET*%
X96500000Y-72825000D03*
%TD*%
D23*
%TO.P,J2,1,Pin_1*%
%TO.N,+3V3*%
X81280000Y-71120000D03*
D24*
%TO.P,J2,2,Pin_2*%
%TO.N,/DTR*%
X81280000Y-73660000D03*
%TO.P,J2,3,Pin_3*%
%TO.N,/RX*%
X81280000Y-76200000D03*
%TO.P,J2,4,Pin_4*%
%TO.N,/TX*%
X81280000Y-78740000D03*
%TO.P,J2,5,Pin_5*%
%TO.N,GND*%
X81280000Y-81280000D03*
%TO.P,J2,6,Pin_6*%
%TO.N,/RESET*%
X81280000Y-83820000D03*
%TD*%
D10*
%TO.P,R3,1*%
%TO.N,+3V3*%
X94750000Y-71175000D03*
%TO.P,R3,2*%
%TO.N,/EN*%
X94750000Y-72825000D03*
%TD*%
D17*
%TO.P,C5,1*%
%TO.N,+3V3*%
X99250000Y-71200000D03*
%TO.P,C5,2*%
%TO.N,GND*%
X99250000Y-72750000D03*
%TD*%
D21*
%TO.P,C2,1*%
%TO.N,+3V3*%
X86175000Y-86200000D03*
%TO.P,C2,2*%
%TO.N,GND*%
X84625000Y-86200000D03*
%TD*%
D22*
%TO.P,R6,1*%
%TO.N,/CH4_LV*%
X100500000Y-81000000D03*
%TO.P,R6,2*%
%TO.N,GND*%
X100500000Y-79350000D03*
%TD*%
D20*
%TO.P,J1,1,Pin_1*%
%TO.N,/SENSE*%
X81280000Y-93980000D03*
D19*
%TO.P,J1,2,Pin_2*%
%TO.N,GND*%
X81280000Y-96520000D03*
%TD*%
D25*
%TO.P,R2,1*%
%TO.N,/ADC*%
X82150000Y-89500000D03*
%TO.P,R2,2*%
%TO.N,GND*%
X80500000Y-89500000D03*
%TD*%
D22*
%TO.P,R5,1*%
%TO.N,+3V3*%
X91250000Y-72825000D03*
%TO.P,R5,2*%
%TO.N,/DTR*%
X91250000Y-71175000D03*
%TD*%
D26*
%TO.N,GND*%
X85250000Y-92750000D03*
X102500000Y-86500000D03*
X80500000Y-87750000D03*
X81000000Y-85250000D03*
X91250000Y-74500000D03*
X79750000Y-79000000D03*
X87500000Y-89250000D03*
X89750000Y-89250000D03*
X79500000Y-86500000D03*
X83000000Y-90250000D03*
X101500000Y-96500000D03*
X80100000Y-69600000D03*
X96750000Y-78500000D03*
X88250000Y-78250000D03*
X93000000Y-89250000D03*
X79500000Y-96500000D03*
X97500000Y-89500000D03*
X88250000Y-79250000D03*
X90250000Y-79500000D03*
X102500000Y-84500000D03*
X87750000Y-73250000D03*
X87000000Y-70750000D03*
X95200000Y-76900000D03*
X102500000Y-82000000D03*
X79500000Y-91750000D03*
X102500000Y-80500000D03*
X79750000Y-84000000D03*
X102500000Y-69900000D03*
X89250000Y-87500000D03*
X101500000Y-94000000D03*
X83649960Y-69600000D03*
X95250000Y-89400000D03*
X89500000Y-74500000D03*
X96800000Y-76900000D03*
X95250000Y-78500000D03*
X91250000Y-76000000D03*
X84000000Y-98000000D03*
X83000000Y-93250000D03*
X93500000Y-87500000D03*
X79750000Y-76750000D03*
X83980000Y-96520000D03*
X79750000Y-81500000D03*
X101500000Y-91500000D03*
X79500000Y-89250000D03*
X81250000Y-98500000D03*
X84000000Y-95000000D03*
X97900000Y-70400000D03*
X101500000Y-89000000D03*
%TO.N,/TX*%
X82750000Y-75250000D03*
%TO.N,/RESET*%
X96500000Y-73750000D03*
%TO.N,/ADC*%
X82250000Y-86250000D03*
%TO.N,/EN*%
X94750000Y-75250000D03*
%TO.N,/CH6_LV*%
X96500000Y-84250000D03*
%TO.N,/OE*%
X93012299Y-75262299D03*
%TO.N,/LED1*%
X102000000Y-77250000D03*
%TO.N,/CH1_LV*%
X90145500Y-77250000D03*
%TO.N,/CH2_LV*%
X90250000Y-78250000D03*
%TO.N,/CH3_LV*%
X96750000Y-81250000D03*
%TO.N,/CH4_LV*%
X91825460Y-83250000D03*
%TO.N,/CH5_LV*%
X95262299Y-83012299D03*
%TO.N,+3V3*%
X85500000Y-87500000D03*
X100500000Y-86500000D03*
%TD*%
D27*
%TO.N,GND*%
X102500000Y-78500000D02*
X102500000Y-80500000D01*
D28*
X83730000Y-96520000D02*
X83480000Y-96520000D01*
D27*
X79750000Y-77500000D02*
X79750000Y-73750000D01*
X79500000Y-91750000D02*
X79500000Y-90000000D01*
X95200000Y-77200000D02*
X95750000Y-77750000D01*
X80500000Y-89500000D02*
X79750000Y-89500000D01*
X79750000Y-79000000D02*
X79750000Y-77500000D01*
X101750000Y-78500000D02*
X102500000Y-78500000D01*
D28*
X93980000Y-96520000D02*
X96520000Y-96520000D01*
D27*
X79750000Y-96500000D02*
X81260000Y-96500000D01*
X79750000Y-73750000D02*
X79750000Y-69950000D01*
X81260000Y-96500000D02*
X81280000Y-96520000D01*
X97900000Y-70400000D02*
X97575020Y-70075020D01*
X79500000Y-94250000D02*
X79500000Y-91750000D01*
X79500000Y-90000000D02*
X79500000Y-89750000D01*
D28*
X83980000Y-96520000D02*
X83730000Y-96520000D01*
D27*
X95750000Y-79000000D02*
X95250000Y-78500000D01*
D28*
X86360000Y-96520000D02*
X88900000Y-96520000D01*
D27*
X101000000Y-77750000D02*
X101750000Y-78500000D01*
D28*
X96520000Y-96520000D02*
X99060000Y-96520000D01*
D27*
X79750000Y-89500000D02*
X79500000Y-89250000D01*
D28*
X86360000Y-96520000D02*
X83980000Y-96520000D01*
X91440000Y-96520000D02*
X93980000Y-96520000D01*
X83480000Y-96520000D02*
X81280000Y-96520000D01*
D27*
X83750000Y-96250000D02*
X83480000Y-96520000D01*
X95750000Y-77750000D02*
X101000000Y-77750000D01*
X79500000Y-86500000D02*
X79500000Y-89250000D01*
X100380000Y-78380000D02*
X100500000Y-78500000D01*
X100150000Y-79000000D02*
X95750000Y-79000000D01*
X79500000Y-89750000D02*
X79500000Y-89250000D01*
X79500000Y-94250000D02*
X79500000Y-96250000D01*
X100500000Y-79350000D02*
X100150000Y-79000000D01*
X79750000Y-69950000D02*
X80100000Y-69600000D01*
D28*
X88900000Y-96520000D02*
X91440000Y-96520000D01*
D27*
X83649960Y-69600000D02*
X80100000Y-69600000D01*
X100500000Y-78500000D02*
X100500000Y-79350000D01*
X79500000Y-96250000D02*
X79750000Y-96500000D01*
X95200000Y-76900000D02*
X95200000Y-77200000D01*
X84124980Y-70075020D02*
X83649960Y-69600000D01*
X98500000Y-78380000D02*
X100380000Y-78380000D01*
X79750000Y-79000000D02*
X79750000Y-81500000D01*
X97575020Y-70075020D02*
X84124980Y-70075020D01*
%TO.N,/DTR*%
X85600000Y-71750000D02*
X84850000Y-71000000D01*
X80675094Y-70049520D02*
X80199520Y-70525094D01*
X89000000Y-71000000D02*
X91075000Y-71000000D01*
X84850000Y-71000000D02*
X83500000Y-71000000D01*
X80199520Y-72579520D02*
X81280000Y-73660000D01*
X89000000Y-71000000D02*
X88250000Y-71750000D01*
X80199520Y-70525094D02*
X80199520Y-72579520D01*
X91075000Y-71000000D02*
X91250000Y-71175000D01*
X83500000Y-71000000D02*
X82549520Y-70049520D01*
X88250000Y-71750000D02*
X85600000Y-71750000D01*
X82549520Y-70049520D02*
X80675094Y-70049520D01*
%TO.N,/TX*%
X82750000Y-77270000D02*
X82750000Y-75250000D01*
X81280000Y-78740000D02*
X82750000Y-77270000D01*
D28*
%TO.N,+5V*%
X84000000Y-93000000D02*
X84000000Y-91000000D01*
X87725000Y-84608953D02*
X89100000Y-83233953D01*
X87725000Y-86200000D02*
X87725000Y-87275000D01*
X87725000Y-84700000D02*
X87725000Y-84608953D01*
X96520000Y-93980000D02*
X93980000Y-93980000D01*
X88900000Y-93980000D02*
X86360000Y-93980000D01*
X87725000Y-86200000D02*
X87725000Y-84700000D01*
X99060000Y-93980000D02*
X96520000Y-93980000D01*
X93980000Y-93980000D02*
X91440000Y-93980000D01*
X84980000Y-93980000D02*
X84000000Y-93000000D01*
X91440000Y-93980000D02*
X88900000Y-93980000D01*
X89100000Y-83233953D02*
X89100000Y-81900000D01*
X87725000Y-87275000D02*
X84000000Y-91000000D01*
X86360000Y-93980000D02*
X84980000Y-93980000D01*
D27*
%TO.N,/RESET*%
X96500000Y-73750000D02*
X96500000Y-72825000D01*
%TO.N,/ADC*%
X82150000Y-89500000D02*
X82150000Y-86350000D01*
X82150000Y-89500000D02*
X82150000Y-91250000D01*
X82150000Y-86350000D02*
X82250000Y-86250000D01*
%TO.N,/EN*%
X94750000Y-75250000D02*
X94750000Y-72825000D01*
%TO.N,/CH1*%
X93350000Y-79650000D02*
X91753840Y-79650000D01*
X90201920Y-87598080D02*
X86360000Y-91440000D01*
X90201920Y-81201920D02*
X90201920Y-87598080D01*
X91753840Y-79650000D02*
X90201920Y-81201920D01*
%TO.N,/CH2*%
X90750000Y-89590000D02*
X88900000Y-91440000D01*
X90750000Y-85500000D02*
X90750000Y-89590000D01*
X97045480Y-80295480D02*
X91954520Y-80295480D01*
X97670000Y-80920000D02*
X97045480Y-80295480D01*
X98500000Y-80920000D02*
X97670000Y-80920000D01*
X91954520Y-80295480D02*
X90651440Y-81598560D01*
X90651440Y-85401440D02*
X90750000Y-85500000D01*
X90651440Y-81598560D02*
X90651440Y-85401440D01*
%TO.N,/CH3*%
X91451920Y-84500000D02*
X91451920Y-87048080D01*
X93350000Y-82190000D02*
X91560000Y-82190000D01*
X91100960Y-82649040D02*
X91100960Y-84149040D01*
X91440000Y-87060000D02*
X91440000Y-91440000D01*
X91560000Y-82190000D02*
X91100960Y-82649040D01*
X91451920Y-87048080D02*
X91440000Y-87060000D01*
X91100960Y-84149040D02*
X91451920Y-84500000D01*
%TO.N,/CH5*%
X96520000Y-91440000D02*
X96520000Y-86270000D01*
X96520000Y-86270000D02*
X94980000Y-84730000D01*
X94980000Y-84730000D02*
X93350000Y-84730000D01*
%TO.N,/CH4*%
X98500000Y-83460000D02*
X95959040Y-83460000D01*
X92016964Y-89476964D02*
X93980000Y-91440000D01*
X95334520Y-84084520D02*
X92449408Y-84084520D01*
X92016964Y-84516964D02*
X92016964Y-89476964D01*
X95959040Y-83460000D02*
X95334520Y-84084520D01*
X92449408Y-84084520D02*
X92016964Y-84516964D01*
%TO.N,Net-(D1-Pad2)*%
X101500000Y-74425000D02*
X101500000Y-72825000D01*
%TO.N,/CH6*%
X99060000Y-91440000D02*
X99060000Y-90060000D01*
X98500000Y-89500000D02*
X98500000Y-86000000D01*
X99060000Y-90060000D02*
X98500000Y-89500000D01*
%TO.N,/CH6_LV*%
X96980000Y-84730000D02*
X96500000Y-84250000D01*
X98500000Y-84730000D02*
X96980000Y-84730000D01*
%TO.N,/OE*%
X93012299Y-75262299D02*
X93012299Y-76772299D01*
X93012299Y-72837299D02*
X93000000Y-72825000D01*
X93012299Y-76772299D02*
X93350000Y-77110000D01*
X93012299Y-75262299D02*
X93012299Y-72837299D01*
%TO.N,/LED1*%
X101500000Y-76750000D02*
X102000000Y-77250000D01*
X101500000Y-76075000D02*
X101500000Y-76750000D01*
%TO.N,/CH1_LV*%
X90145500Y-77250000D02*
X90500000Y-77250000D01*
X90500000Y-77250000D02*
X91630000Y-78380000D01*
X91630000Y-78380000D02*
X93350000Y-78380000D01*
%TO.N,/CH2_LV*%
X91004520Y-79004520D02*
X92254520Y-79004520D01*
X94254520Y-79004520D02*
X92254520Y-79004520D01*
X94900000Y-79650000D02*
X94254520Y-79004520D01*
X98500000Y-79650000D02*
X94900000Y-79650000D01*
X90250000Y-78250000D02*
X91004520Y-79004520D01*
X92254520Y-79004520D02*
X91089997Y-79004520D01*
%TO.N,/CH3_LV*%
X96420000Y-80920000D02*
X96750000Y-81250000D01*
X93350000Y-80920000D02*
X96420000Y-80920000D01*
%TO.N,/CH4_LV*%
X92260940Y-82814520D02*
X94435480Y-82814520D01*
X99810000Y-82190000D02*
X98500000Y-82190000D01*
X95060000Y-82190000D02*
X98500000Y-82190000D01*
X91825460Y-83250000D02*
X92260940Y-82814520D01*
X100500000Y-81500000D02*
X99810000Y-82190000D01*
X100500000Y-81000000D02*
X100500000Y-81500000D01*
X94435480Y-82814520D02*
X95060000Y-82190000D01*
%TO.N,/CH5_LV*%
X95262299Y-83012299D02*
X94814598Y-83460000D01*
X94814598Y-83460000D02*
X93350000Y-83460000D01*
%TO.N,+3V3*%
X94750000Y-71175000D02*
X96500000Y-71175000D01*
X96500000Y-71175000D02*
X98425000Y-71175000D01*
D28*
X86175000Y-84700000D02*
X86175000Y-83625000D01*
D27*
X83949520Y-72199520D02*
X86800480Y-72199520D01*
X98500000Y-77110000D02*
X98450480Y-77060480D01*
X91199520Y-72199520D02*
X91550480Y-72199520D01*
X86800000Y-72200000D02*
X86800480Y-72199520D01*
D28*
X86175000Y-83625000D02*
X86800000Y-83000000D01*
X86175000Y-84700000D02*
X86175000Y-86200000D01*
D27*
X98425000Y-71175000D02*
X99225000Y-71175000D01*
X82870000Y-71120000D02*
X83949520Y-72199520D01*
X91250000Y-72250000D02*
X91199520Y-72199520D01*
X100500000Y-87250000D02*
X100500000Y-86500000D01*
X99225000Y-71175000D02*
X99250000Y-71200000D01*
X86800000Y-75600000D02*
X86800000Y-72200000D01*
X98450480Y-71200480D02*
X98425000Y-71175000D01*
X86175000Y-86825000D02*
X85500000Y-87500000D01*
X98450480Y-77060480D02*
X98450480Y-71200480D01*
X81280000Y-71120000D02*
X82870000Y-71120000D01*
X91550480Y-72199520D02*
X92575000Y-71175000D01*
X91250000Y-72825000D02*
X91250000Y-72250000D01*
D28*
X86800000Y-81900000D02*
X86800000Y-75600000D01*
X86800000Y-83000000D02*
X86800000Y-81900000D01*
D27*
X93000000Y-71175000D02*
X94750000Y-71175000D01*
X86800480Y-72199520D02*
X91199520Y-72199520D01*
X92575000Y-71175000D02*
X93000000Y-71175000D01*
X86175000Y-86200000D02*
X86175000Y-86825000D01*
%TO.N,/SENSE*%
X80500000Y-91250000D02*
X80500000Y-92000000D01*
X81280000Y-92780000D02*
X81280000Y-93980000D01*
X80500000Y-92000000D02*
X81280000Y-92780000D01*
%TD*%
%TA.AperFunction,Conductor*%
%TO.N,GND*%
G36*
X84361548Y-69028452D02*
G01*
X84380000Y-69073000D01*
X84380000Y-69950000D01*
X100620000Y-69950000D01*
X100620000Y-69073000D01*
X100638452Y-69028452D01*
X100683000Y-69010000D01*
X101997249Y-69010000D01*
X101998100Y-69010037D01*
X102000000Y-69010824D01*
X102001538Y-69010187D01*
X102002740Y-69010240D01*
X102166421Y-69024560D01*
X102177236Y-69026467D01*
X102333277Y-69068278D01*
X102343596Y-69072034D01*
X102345668Y-69073000D01*
X102490005Y-69140306D01*
X102499512Y-69145794D01*
X102631844Y-69238454D01*
X102640257Y-69245513D01*
X102754487Y-69359743D01*
X102761546Y-69368156D01*
X102849013Y-69493071D01*
X102854206Y-69500488D01*
X102859696Y-69509998D01*
X102927966Y-69656404D01*
X102931722Y-69666723D01*
X102973533Y-69822764D01*
X102975440Y-69833579D01*
X102989760Y-69997260D01*
X102989813Y-69998462D01*
X102989176Y-70000000D01*
X102989963Y-70001900D01*
X102990000Y-70002751D01*
X102990000Y-97997249D01*
X102989963Y-97998100D01*
X102989176Y-98000000D01*
X102989813Y-98001538D01*
X102989760Y-98002740D01*
X102975440Y-98166421D01*
X102973533Y-98177236D01*
X102931722Y-98333277D01*
X102927966Y-98343596D01*
X102859696Y-98490002D01*
X102854208Y-98499509D01*
X102787464Y-98594829D01*
X102761546Y-98631844D01*
X102754487Y-98640257D01*
X102640257Y-98754487D01*
X102631844Y-98761546D01*
X102499512Y-98854206D01*
X102490005Y-98859694D01*
X102409655Y-98897162D01*
X102343596Y-98927966D01*
X102333277Y-98931722D01*
X102177236Y-98973533D01*
X102166421Y-98975440D01*
X102002740Y-98989760D01*
X102001538Y-98989813D01*
X102000000Y-98989176D01*
X101998100Y-98989963D01*
X101997249Y-98990000D01*
X80002751Y-98990000D01*
X80001900Y-98989963D01*
X80000000Y-98989176D01*
X79998462Y-98989813D01*
X79997260Y-98989760D01*
X79833579Y-98975440D01*
X79822764Y-98973533D01*
X79666723Y-98931722D01*
X79656404Y-98927966D01*
X79590345Y-98897162D01*
X79509995Y-98859694D01*
X79500488Y-98854206D01*
X79368156Y-98761546D01*
X79359743Y-98754487D01*
X79245513Y-98640257D01*
X79238454Y-98631844D01*
X79212536Y-98594829D01*
X79145792Y-98499509D01*
X79140304Y-98490002D01*
X79072034Y-98343596D01*
X79068278Y-98333277D01*
X79026467Y-98177236D01*
X79024560Y-98166421D01*
X79010240Y-98002740D01*
X79010187Y-98001538D01*
X79010824Y-98000000D01*
X79010037Y-97998100D01*
X79010000Y-97997249D01*
X79010000Y-96781769D01*
X80207352Y-96781769D01*
X80234154Y-96887304D01*
X80236075Y-96892726D01*
X80318605Y-97071746D01*
X80321476Y-97076719D01*
X80435250Y-97237706D01*
X80438983Y-97242077D01*
X80580190Y-97379634D01*
X80584649Y-97383245D01*
X80748562Y-97492769D01*
X80753611Y-97495510D01*
X80934735Y-97573327D01*
X80940195Y-97575101D01*
X81013779Y-97591752D01*
X81023231Y-97590127D01*
X81025962Y-97586263D01*
X81534000Y-97586263D01*
X81537671Y-97595125D01*
X81542134Y-97596974D01*
X81728227Y-97533803D01*
X81733484Y-97531462D01*
X81905466Y-97435147D01*
X81910218Y-97431882D01*
X81958266Y-97391921D01*
X85256001Y-97391921D01*
X85256604Y-97398050D01*
X85269526Y-97463020D01*
X85274185Y-97474266D01*
X85323429Y-97547965D01*
X85332035Y-97556571D01*
X85405737Y-97605817D01*
X85416977Y-97610473D01*
X85481951Y-97623397D01*
X85488077Y-97624000D01*
X86093467Y-97624000D01*
X86102329Y-97620329D01*
X86106000Y-97611467D01*
X86106000Y-97611466D01*
X86614000Y-97611466D01*
X86617671Y-97620328D01*
X86626533Y-97623999D01*
X87231921Y-97623999D01*
X87238050Y-97623396D01*
X87303020Y-97610474D01*
X87314266Y-97605815D01*
X87387965Y-97556571D01*
X87396571Y-97547965D01*
X87445817Y-97474263D01*
X87450473Y-97463023D01*
X87463397Y-97398049D01*
X87464000Y-97391923D01*
X87464000Y-97391921D01*
X87796001Y-97391921D01*
X87796604Y-97398050D01*
X87809526Y-97463020D01*
X87814185Y-97474266D01*
X87863429Y-97547965D01*
X87872035Y-97556571D01*
X87945737Y-97605817D01*
X87956977Y-97610473D01*
X88021951Y-97623397D01*
X88028077Y-97624000D01*
X88633467Y-97624000D01*
X88642329Y-97620329D01*
X88646000Y-97611467D01*
X88646000Y-97611466D01*
X89154000Y-97611466D01*
X89157671Y-97620328D01*
X89166533Y-97623999D01*
X89771921Y-97623999D01*
X89778050Y-97623396D01*
X89843020Y-97610474D01*
X89854266Y-97605815D01*
X89927965Y-97556571D01*
X89936571Y-97547965D01*
X89985817Y-97474263D01*
X89990473Y-97463023D01*
X90003397Y-97398049D01*
X90004000Y-97391923D01*
X90004000Y-97391921D01*
X90336001Y-97391921D01*
X90336604Y-97398050D01*
X90349526Y-97463020D01*
X90354185Y-97474266D01*
X90403429Y-97547965D01*
X90412035Y-97556571D01*
X90485737Y-97605817D01*
X90496977Y-97610473D01*
X90561951Y-97623397D01*
X90568077Y-97624000D01*
X91173467Y-97624000D01*
X91182329Y-97620329D01*
X91186000Y-97611467D01*
X91186000Y-97611466D01*
X91694000Y-97611466D01*
X91697671Y-97620328D01*
X91706533Y-97623999D01*
X92311921Y-97623999D01*
X92318050Y-97623396D01*
X92383020Y-97610474D01*
X92394266Y-97605815D01*
X92467965Y-97556571D01*
X92476571Y-97547965D01*
X92525817Y-97474263D01*
X92530473Y-97463023D01*
X92543397Y-97398049D01*
X92544000Y-97391923D01*
X92544000Y-97391921D01*
X92876001Y-97391921D01*
X92876604Y-97398050D01*
X92889526Y-97463020D01*
X92894185Y-97474266D01*
X92943429Y-97547965D01*
X92952035Y-97556571D01*
X93025737Y-97605817D01*
X93036977Y-97610473D01*
X93101951Y-97623397D01*
X93108077Y-97624000D01*
X93713467Y-97624000D01*
X93722329Y-97620329D01*
X93726000Y-97611467D01*
X93726000Y-97611466D01*
X94234000Y-97611466D01*
X94237671Y-97620328D01*
X94246533Y-97623999D01*
X94851921Y-97623999D01*
X94858050Y-97623396D01*
X94923020Y-97610474D01*
X94934266Y-97605815D01*
X95007965Y-97556571D01*
X95016571Y-97547965D01*
X95065817Y-97474263D01*
X95070473Y-97463023D01*
X95083397Y-97398049D01*
X95084000Y-97391923D01*
X95084000Y-97391921D01*
X95416001Y-97391921D01*
X95416604Y-97398050D01*
X95429526Y-97463020D01*
X95434185Y-97474266D01*
X95483429Y-97547965D01*
X95492035Y-97556571D01*
X95565737Y-97605817D01*
X95576977Y-97610473D01*
X95641951Y-97623397D01*
X95648077Y-97624000D01*
X96253467Y-97624000D01*
X96262329Y-97620329D01*
X96266000Y-97611467D01*
X96266000Y-97611466D01*
X96774000Y-97611466D01*
X96777671Y-97620328D01*
X96786533Y-97623999D01*
X97391921Y-97623999D01*
X97398050Y-97623396D01*
X97463020Y-97610474D01*
X97474266Y-97605815D01*
X97547965Y-97556571D01*
X97556571Y-97547965D01*
X97605817Y-97474263D01*
X97610473Y-97463023D01*
X97623397Y-97398049D01*
X97624000Y-97391923D01*
X97624000Y-97391921D01*
X97956001Y-97391921D01*
X97956604Y-97398050D01*
X97969526Y-97463020D01*
X97974185Y-97474266D01*
X98023429Y-97547965D01*
X98032035Y-97556571D01*
X98105737Y-97605817D01*
X98116977Y-97610473D01*
X98181951Y-97623397D01*
X98188077Y-97624000D01*
X98793467Y-97624000D01*
X98802329Y-97620329D01*
X98806000Y-97611467D01*
X98806000Y-97611466D01*
X99314000Y-97611466D01*
X99317671Y-97620328D01*
X99326533Y-97623999D01*
X99931921Y-97623999D01*
X99938050Y-97623396D01*
X100003020Y-97610474D01*
X100014266Y-97605815D01*
X100087965Y-97556571D01*
X100096571Y-97547965D01*
X100145817Y-97474263D01*
X100150473Y-97463023D01*
X100163397Y-97398049D01*
X100164000Y-97391923D01*
X100164000Y-96786533D01*
X100160329Y-96777671D01*
X100151467Y-96774000D01*
X99326533Y-96774000D01*
X99317671Y-96777671D01*
X99314000Y-96786533D01*
X99314000Y-97611466D01*
X98806000Y-97611466D01*
X98806000Y-96786533D01*
X98802329Y-96777671D01*
X98793467Y-96774000D01*
X97968534Y-96774000D01*
X97959672Y-96777671D01*
X97956001Y-96786533D01*
X97956001Y-97391921D01*
X97624000Y-97391921D01*
X97624000Y-96786533D01*
X97620329Y-96777671D01*
X97611467Y-96774000D01*
X96786533Y-96774000D01*
X96777671Y-96777671D01*
X96774000Y-96786533D01*
X96774000Y-97611466D01*
X96266000Y-97611466D01*
X96266000Y-96786533D01*
X96262329Y-96777671D01*
X96253467Y-96774000D01*
X95428534Y-96774000D01*
X95419672Y-96777671D01*
X95416001Y-96786533D01*
X95416001Y-97391921D01*
X95084000Y-97391921D01*
X95084000Y-96786533D01*
X95080329Y-96777671D01*
X95071467Y-96774000D01*
X94246533Y-96774000D01*
X94237671Y-96777671D01*
X94234000Y-96786533D01*
X94234000Y-97611466D01*
X93726000Y-97611466D01*
X93726000Y-96786533D01*
X93722329Y-96777671D01*
X93713467Y-96774000D01*
X92888534Y-96774000D01*
X92879672Y-96777671D01*
X92876001Y-96786533D01*
X92876001Y-97391921D01*
X92544000Y-97391921D01*
X92544000Y-96786533D01*
X92540329Y-96777671D01*
X92531467Y-96774000D01*
X91706533Y-96774000D01*
X91697671Y-96777671D01*
X91694000Y-96786533D01*
X91694000Y-97611466D01*
X91186000Y-97611466D01*
X91186000Y-96786533D01*
X91182329Y-96777671D01*
X91173467Y-96774000D01*
X90348534Y-96774000D01*
X90339672Y-96777671D01*
X90336001Y-96786533D01*
X90336001Y-97391921D01*
X90004000Y-97391921D01*
X90004000Y-96786533D01*
X90000329Y-96777671D01*
X89991467Y-96774000D01*
X89166533Y-96774000D01*
X89157671Y-96777671D01*
X89154000Y-96786533D01*
X89154000Y-97611466D01*
X88646000Y-97611466D01*
X88646000Y-96786533D01*
X88642329Y-96777671D01*
X88633467Y-96774000D01*
X87808534Y-96774000D01*
X87799672Y-96777671D01*
X87796001Y-96786533D01*
X87796001Y-97391921D01*
X87464000Y-97391921D01*
X87464000Y-96786533D01*
X87460329Y-96777671D01*
X87451467Y-96774000D01*
X86626533Y-96774000D01*
X86617671Y-96777671D01*
X86614000Y-96786533D01*
X86614000Y-97611466D01*
X86106000Y-97611466D01*
X86106000Y-96786533D01*
X86102329Y-96777671D01*
X86093467Y-96774000D01*
X85268534Y-96774000D01*
X85259672Y-96777671D01*
X85256001Y-96786533D01*
X85256001Y-97391921D01*
X81958266Y-97391921D01*
X82061763Y-97305844D01*
X82065844Y-97301763D01*
X82191882Y-97150218D01*
X82195147Y-97145466D01*
X82291462Y-96973484D01*
X82293803Y-96968227D01*
X82356367Y-96783920D01*
X82354637Y-96777105D01*
X82349417Y-96774000D01*
X81546533Y-96774000D01*
X81537671Y-96777671D01*
X81534000Y-96786533D01*
X81534000Y-97586263D01*
X81025962Y-97586263D01*
X81026000Y-97586209D01*
X81026000Y-96786533D01*
X81022329Y-96777671D01*
X81013467Y-96774000D01*
X80217912Y-96774000D01*
X80209050Y-96777671D01*
X80207352Y-96781769D01*
X79010000Y-96781769D01*
X79010000Y-96254031D01*
X80206506Y-96254031D01*
X80207383Y-96263584D01*
X80210288Y-96266000D01*
X81013467Y-96266000D01*
X81022329Y-96262329D01*
X81026000Y-96253467D01*
X81534000Y-96253467D01*
X81537671Y-96262329D01*
X81546533Y-96266000D01*
X82342980Y-96266000D01*
X82351842Y-96262329D01*
X82353410Y-96258544D01*
X82351978Y-96253467D01*
X85256000Y-96253467D01*
X85259671Y-96262329D01*
X85268533Y-96266000D01*
X86093467Y-96266000D01*
X86102329Y-96262329D01*
X86106000Y-96253467D01*
X86614000Y-96253467D01*
X86617671Y-96262329D01*
X86626533Y-96266000D01*
X87451466Y-96266000D01*
X87460328Y-96262329D01*
X87463999Y-96253467D01*
X87796000Y-96253467D01*
X87799671Y-96262329D01*
X87808533Y-96266000D01*
X88633467Y-96266000D01*
X88642329Y-96262329D01*
X88646000Y-96253467D01*
X89154000Y-96253467D01*
X89157671Y-96262329D01*
X89166533Y-96266000D01*
X89991466Y-96266000D01*
X90000328Y-96262329D01*
X90003999Y-96253467D01*
X90336000Y-96253467D01*
X90339671Y-96262329D01*
X90348533Y-96266000D01*
X91173467Y-96266000D01*
X91182329Y-96262329D01*
X91186000Y-96253467D01*
X91694000Y-96253467D01*
X91697671Y-96262329D01*
X91706533Y-96266000D01*
X92531466Y-96266000D01*
X92540328Y-96262329D01*
X92543999Y-96253467D01*
X92876000Y-96253467D01*
X92879671Y-96262329D01*
X92888533Y-96266000D01*
X93713467Y-96266000D01*
X93722329Y-96262329D01*
X93726000Y-96253467D01*
X94234000Y-96253467D01*
X94237671Y-96262329D01*
X94246533Y-96266000D01*
X95071466Y-96266000D01*
X95080328Y-96262329D01*
X95083999Y-96253467D01*
X95416000Y-96253467D01*
X95419671Y-96262329D01*
X95428533Y-96266000D01*
X96253467Y-96266000D01*
X96262329Y-96262329D01*
X96266000Y-96253467D01*
X96774000Y-96253467D01*
X96777671Y-96262329D01*
X96786533Y-96266000D01*
X97611466Y-96266000D01*
X97620328Y-96262329D01*
X97623999Y-96253467D01*
X97956000Y-96253467D01*
X97959671Y-96262329D01*
X97968533Y-96266000D01*
X98793467Y-96266000D01*
X98802329Y-96262329D01*
X98806000Y-96253467D01*
X99314000Y-96253467D01*
X99317671Y-96262329D01*
X99326533Y-96266000D01*
X100151466Y-96266000D01*
X100160328Y-96262329D01*
X100163999Y-96253467D01*
X100163999Y-95648079D01*
X100163396Y-95641950D01*
X100150474Y-95576980D01*
X100145815Y-95565734D01*
X100096571Y-95492035D01*
X100087965Y-95483429D01*
X100014263Y-95434183D01*
X100003023Y-95429527D01*
X99938049Y-95416603D01*
X99931923Y-95416000D01*
X99326533Y-95416000D01*
X99317671Y-95419671D01*
X99314000Y-95428533D01*
X99314000Y-96253467D01*
X98806000Y-96253467D01*
X98806000Y-95428534D01*
X98802329Y-95419672D01*
X98793467Y-95416001D01*
X98188079Y-95416001D01*
X98181950Y-95416604D01*
X98116980Y-95429526D01*
X98105734Y-95434185D01*
X98032035Y-95483429D01*
X98023429Y-95492035D01*
X97974183Y-95565737D01*
X97969527Y-95576977D01*
X97956603Y-95641951D01*
X97956000Y-95648077D01*
X97956000Y-96253467D01*
X97623999Y-96253467D01*
X97623999Y-95648079D01*
X97623396Y-95641950D01*
X97610474Y-95576980D01*
X97605815Y-95565734D01*
X97556571Y-95492035D01*
X97547965Y-95483429D01*
X97474263Y-95434183D01*
X97463023Y-95429527D01*
X97398049Y-95416603D01*
X97391923Y-95416000D01*
X96786533Y-95416000D01*
X96777671Y-95419671D01*
X96774000Y-95428533D01*
X96774000Y-96253467D01*
X96266000Y-96253467D01*
X96266000Y-95428534D01*
X96262329Y-95419672D01*
X96253467Y-95416001D01*
X95648079Y-95416001D01*
X95641950Y-95416604D01*
X95576980Y-95429526D01*
X95565734Y-95434185D01*
X95492035Y-95483429D01*
X95483429Y-95492035D01*
X95434183Y-95565737D01*
X95429527Y-95576977D01*
X95416603Y-95641951D01*
X95416000Y-95648077D01*
X95416000Y-96253467D01*
X95083999Y-96253467D01*
X95083999Y-95648079D01*
X95083396Y-95641950D01*
X95070474Y-95576980D01*
X95065815Y-95565734D01*
X95016571Y-95492035D01*
X95007965Y-95483429D01*
X94934263Y-95434183D01*
X94923023Y-95429527D01*
X94858049Y-95416603D01*
X94851923Y-95416000D01*
X94246533Y-95416000D01*
X94237671Y-95419671D01*
X94234000Y-95428533D01*
X94234000Y-96253467D01*
X93726000Y-96253467D01*
X93726000Y-95428534D01*
X93722329Y-95419672D01*
X93713467Y-95416001D01*
X93108079Y-95416001D01*
X93101950Y-95416604D01*
X93036980Y-95429526D01*
X93025734Y-95434185D01*
X92952035Y-95483429D01*
X92943429Y-95492035D01*
X92894183Y-95565737D01*
X92889527Y-95576977D01*
X92876603Y-95641951D01*
X92876000Y-95648077D01*
X92876000Y-96253467D01*
X92543999Y-96253467D01*
X92543999Y-95648079D01*
X92543396Y-95641950D01*
X92530474Y-95576980D01*
X92525815Y-95565734D01*
X92476571Y-95492035D01*
X92467965Y-95483429D01*
X92394263Y-95434183D01*
X92383023Y-95429527D01*
X92318049Y-95416603D01*
X92311923Y-95416000D01*
X91706533Y-95416000D01*
X91697671Y-95419671D01*
X91694000Y-95428533D01*
X91694000Y-96253467D01*
X91186000Y-96253467D01*
X91186000Y-95428534D01*
X91182329Y-95419672D01*
X91173467Y-95416001D01*
X90568079Y-95416001D01*
X90561950Y-95416604D01*
X90496980Y-95429526D01*
X90485734Y-95434185D01*
X90412035Y-95483429D01*
X90403429Y-95492035D01*
X90354183Y-95565737D01*
X90349527Y-95576977D01*
X90336603Y-95641951D01*
X90336000Y-95648077D01*
X90336000Y-96253467D01*
X90003999Y-96253467D01*
X90003999Y-95648079D01*
X90003396Y-95641950D01*
X89990474Y-95576980D01*
X89985815Y-95565734D01*
X89936571Y-95492035D01*
X89927965Y-95483429D01*
X89854263Y-95434183D01*
X89843023Y-95429527D01*
X89778049Y-95416603D01*
X89771923Y-95416000D01*
X89166533Y-95416000D01*
X89157671Y-95419671D01*
X89154000Y-95428533D01*
X89154000Y-96253467D01*
X88646000Y-96253467D01*
X88646000Y-95428534D01*
X88642329Y-95419672D01*
X88633467Y-95416001D01*
X88028079Y-95416001D01*
X88021950Y-95416604D01*
X87956980Y-95429526D01*
X87945734Y-95434185D01*
X87872035Y-95483429D01*
X87863429Y-95492035D01*
X87814183Y-95565737D01*
X87809527Y-95576977D01*
X87796603Y-95641951D01*
X87796000Y-95648077D01*
X87796000Y-96253467D01*
X87463999Y-96253467D01*
X87463999Y-95648079D01*
X87463396Y-95641950D01*
X87450474Y-95576980D01*
X87445815Y-95565734D01*
X87396571Y-95492035D01*
X87387965Y-95483429D01*
X87314263Y-95434183D01*
X87303023Y-95429527D01*
X87238049Y-95416603D01*
X87231923Y-95416000D01*
X86626533Y-95416000D01*
X86617671Y-95419671D01*
X86614000Y-95428533D01*
X86614000Y-96253467D01*
X86106000Y-96253467D01*
X86106000Y-95428534D01*
X86102329Y-95419672D01*
X86093467Y-95416001D01*
X85488079Y-95416001D01*
X85481950Y-95416604D01*
X85416980Y-95429526D01*
X85405734Y-95434185D01*
X85332035Y-95483429D01*
X85323429Y-95492035D01*
X85274183Y-95565737D01*
X85269527Y-95576977D01*
X85256603Y-95641951D01*
X85256000Y-95648077D01*
X85256000Y-96253467D01*
X82351978Y-96253467D01*
X82315873Y-96125445D01*
X82313811Y-96120076D01*
X82226625Y-95943279D01*
X82223622Y-95938379D01*
X82105671Y-95780424D01*
X82101830Y-95776159D01*
X81957075Y-95642348D01*
X81952508Y-95638843D01*
X81785793Y-95533654D01*
X81780672Y-95531044D01*
X81597578Y-95457998D01*
X81592062Y-95456364D01*
X81546292Y-95447260D01*
X81536883Y-95449131D01*
X81534000Y-95453447D01*
X81534000Y-96253467D01*
X81026000Y-96253467D01*
X81026000Y-95455918D01*
X81022329Y-95447056D01*
X81017142Y-95444907D01*
X80995889Y-95448559D01*
X80990326Y-95450050D01*
X80805390Y-95518277D01*
X80800199Y-95520752D01*
X80630783Y-95621545D01*
X80626136Y-95624921D01*
X80477927Y-95754897D01*
X80473968Y-95759069D01*
X80351932Y-95913870D01*
X80348794Y-95918703D01*
X80257013Y-96093148D01*
X80254809Y-96098469D01*
X80206506Y-96254031D01*
X79010000Y-96254031D01*
X79010000Y-90943481D01*
X79899500Y-90943481D01*
X79899501Y-91556518D01*
X79914354Y-91650304D01*
X79971950Y-91763342D01*
X80061658Y-91853050D01*
X80140102Y-91893020D01*
X80171417Y-91929684D01*
X80174500Y-91949152D01*
X80174500Y-91983038D01*
X80174260Y-91988529D01*
X80170736Y-92028807D01*
X80172162Y-92034128D01*
X80172162Y-92034130D01*
X80181203Y-92067868D01*
X80182393Y-92073236D01*
X80189412Y-92113045D01*
X80192167Y-92117816D01*
X80192167Y-92117817D01*
X80192536Y-92118456D01*
X80198829Y-92133648D01*
X80200446Y-92139684D01*
X80203607Y-92144198D01*
X80223635Y-92172801D01*
X80226587Y-92177434D01*
X80246806Y-92212455D01*
X80251027Y-92215997D01*
X80277783Y-92238448D01*
X80281835Y-92242161D01*
X80861626Y-92821952D01*
X80880078Y-92866500D01*
X80861626Y-92911048D01*
X80817078Y-92929500D01*
X80410252Y-92929500D01*
X80372930Y-92936924D01*
X80357856Y-92939922D01*
X80357855Y-92939922D01*
X80351769Y-92941133D01*
X80346610Y-92944580D01*
X80346608Y-92944581D01*
X80290611Y-92981998D01*
X80285448Y-92985448D01*
X80281998Y-92990611D01*
X80244581Y-93046608D01*
X80244580Y-93046610D01*
X80241133Y-93051769D01*
X80229500Y-93110252D01*
X80229500Y-94849748D01*
X80241133Y-94908231D01*
X80244580Y-94913390D01*
X80244581Y-94913392D01*
X80266232Y-94945794D01*
X80285448Y-94974552D01*
X80290611Y-94978002D01*
X80346608Y-95015419D01*
X80346610Y-95015420D01*
X80351769Y-95018867D01*
X80357855Y-95020078D01*
X80357856Y-95020078D01*
X80372930Y-95023076D01*
X80410252Y-95030500D01*
X82149748Y-95030500D01*
X82187070Y-95023076D01*
X82202144Y-95020078D01*
X82202145Y-95020078D01*
X82208231Y-95018867D01*
X82213390Y-95015420D01*
X82213392Y-95015419D01*
X82269389Y-94978002D01*
X82274552Y-94974552D01*
X82293768Y-94945794D01*
X82315419Y-94913392D01*
X82315420Y-94913390D01*
X82318867Y-94908231D01*
X82330500Y-94849748D01*
X82330500Y-93110252D01*
X82318867Y-93051769D01*
X82315420Y-93046610D01*
X82315419Y-93046608D01*
X82278002Y-92990611D01*
X82274552Y-92985448D01*
X82269389Y-92981998D01*
X82213392Y-92944581D01*
X82213390Y-92944580D01*
X82208231Y-92941133D01*
X82202145Y-92939922D01*
X82202144Y-92939922D01*
X82187070Y-92936924D01*
X82149748Y-92929500D01*
X81668500Y-92929500D01*
X81623952Y-92911048D01*
X81605500Y-92866500D01*
X81605500Y-92796962D01*
X81605740Y-92791471D01*
X81608784Y-92756684D01*
X81608784Y-92756682D01*
X81609264Y-92751193D01*
X81602291Y-92725169D01*
X81598797Y-92712132D01*
X81597607Y-92706764D01*
X81591545Y-92672382D01*
X81591545Y-92672381D01*
X81590588Y-92666955D01*
X81587464Y-92661544D01*
X81581171Y-92646351D01*
X81580980Y-92645638D01*
X81579554Y-92640316D01*
X81556365Y-92607199D01*
X81553411Y-92602563D01*
X81535948Y-92572316D01*
X81533194Y-92567545D01*
X81502217Y-92541552D01*
X81498165Y-92537839D01*
X80916871Y-91956545D01*
X80898419Y-91911997D01*
X80916871Y-91867449D01*
X80932818Y-91855865D01*
X80938342Y-91853050D01*
X81028050Y-91763342D01*
X81085646Y-91650304D01*
X81100500Y-91556519D01*
X81100499Y-90943482D01*
X81100499Y-90943481D01*
X81549500Y-90943481D01*
X81549501Y-91556518D01*
X81564354Y-91650304D01*
X81621950Y-91763342D01*
X81711658Y-91853050D01*
X81824696Y-91910646D01*
X81918481Y-91925500D01*
X82150000Y-91925500D01*
X82381518Y-91925499D01*
X82475304Y-91910646D01*
X82588342Y-91853050D01*
X82678050Y-91763342D01*
X82735646Y-91650304D01*
X82750500Y-91556519D01*
X82750499Y-90943482D01*
X82735646Y-90849696D01*
X82732356Y-90843238D01*
X82680302Y-90741078D01*
X82678050Y-90736658D01*
X82588342Y-90646950D01*
X82509898Y-90606980D01*
X82478583Y-90570316D01*
X82475500Y-90550848D01*
X82475500Y-90199152D01*
X82493952Y-90154604D01*
X82509897Y-90143020D01*
X82588342Y-90103050D01*
X82678050Y-90013342D01*
X82711876Y-89946955D01*
X82733394Y-89904724D01*
X82733394Y-89904723D01*
X82735646Y-89900304D01*
X82750500Y-89806519D01*
X82750499Y-89193482D01*
X82735646Y-89099696D01*
X82678050Y-88986658D01*
X82588342Y-88896950D01*
X82509898Y-88856980D01*
X82478583Y-88820316D01*
X82475500Y-88800848D01*
X82475500Y-86848667D01*
X82493952Y-86804119D01*
X82514390Y-86790463D01*
X82552841Y-86774536D01*
X82556115Y-86772024D01*
X82556118Y-86772022D01*
X82675003Y-86680798D01*
X82678282Y-86678282D01*
X82755060Y-86578223D01*
X82772022Y-86556118D01*
X82772024Y-86556115D01*
X82774536Y-86552841D01*
X82776117Y-86549025D01*
X82799057Y-86493643D01*
X83921000Y-86493643D01*
X83921183Y-86497031D01*
X83926936Y-86549989D01*
X83928751Y-86557618D01*
X83973950Y-86678188D01*
X83978218Y-86685985D01*
X84055121Y-86788595D01*
X84061405Y-86794879D01*
X84164015Y-86871782D01*
X84171812Y-86876050D01*
X84292382Y-86921249D01*
X84300011Y-86923064D01*
X84352969Y-86928817D01*
X84356357Y-86929000D01*
X84358467Y-86929000D01*
X84367329Y-86925329D01*
X84371000Y-86916467D01*
X84879000Y-86916467D01*
X84882671Y-86925329D01*
X84891533Y-86929000D01*
X84893643Y-86929000D01*
X84897031Y-86928817D01*
X84949989Y-86923064D01*
X84957618Y-86921249D01*
X85078188Y-86876050D01*
X85085985Y-86871782D01*
X85188595Y-86794879D01*
X85194879Y-86788595D01*
X85271782Y-86685985D01*
X85276050Y-86678188D01*
X85321249Y-86557618D01*
X85323064Y-86549989D01*
X85328817Y-86497031D01*
X85329000Y-86493643D01*
X85329000Y-86466533D01*
X85325329Y-86457671D01*
X85316467Y-86454000D01*
X84891533Y-86454000D01*
X84882671Y-86457671D01*
X84879000Y-86466533D01*
X84879000Y-86916467D01*
X84371000Y-86916467D01*
X84371000Y-86466533D01*
X84367329Y-86457671D01*
X84358467Y-86454000D01*
X83933533Y-86454000D01*
X83924671Y-86457671D01*
X83921000Y-86466533D01*
X83921000Y-86493643D01*
X82799057Y-86493643D01*
X82833463Y-86410580D01*
X82833464Y-86410577D01*
X82835044Y-86406762D01*
X82855682Y-86250000D01*
X82835044Y-86093238D01*
X82827489Y-86074997D01*
X82776117Y-85950975D01*
X82776116Y-85950973D01*
X82774536Y-85947159D01*
X82772024Y-85943885D01*
X82772022Y-85943882D01*
X82764030Y-85933467D01*
X83921000Y-85933467D01*
X83924671Y-85942329D01*
X83933533Y-85946000D01*
X84358467Y-85946000D01*
X84367329Y-85942329D01*
X84371000Y-85933467D01*
X84879000Y-85933467D01*
X84882671Y-85942329D01*
X84891533Y-85946000D01*
X85316467Y-85946000D01*
X85325329Y-85942329D01*
X85329000Y-85933467D01*
X85329000Y-85906357D01*
X85328817Y-85902969D01*
X85323064Y-85850011D01*
X85321249Y-85842382D01*
X85276050Y-85721812D01*
X85271782Y-85714015D01*
X85194879Y-85611405D01*
X85188595Y-85605121D01*
X85085985Y-85528218D01*
X85078188Y-85523950D01*
X85038285Y-85508991D01*
X85003049Y-85476076D01*
X85001408Y-85427886D01*
X85038285Y-85391009D01*
X85078188Y-85376050D01*
X85085985Y-85371782D01*
X85188595Y-85294879D01*
X85194879Y-85288595D01*
X85271782Y-85185985D01*
X85276050Y-85178188D01*
X85321249Y-85057618D01*
X85323064Y-85049989D01*
X85328817Y-84997031D01*
X85329000Y-84993643D01*
X85329000Y-84966533D01*
X85325329Y-84957671D01*
X85316467Y-84954000D01*
X84891533Y-84954000D01*
X84882671Y-84957671D01*
X84879000Y-84966533D01*
X84879000Y-85416469D01*
X84882903Y-85425892D01*
X84882903Y-85474108D01*
X84879000Y-85483531D01*
X84879000Y-85933467D01*
X84371000Y-85933467D01*
X84371000Y-85483531D01*
X84367097Y-85474108D01*
X84367097Y-85425892D01*
X84371000Y-85416469D01*
X84371000Y-84966533D01*
X84367329Y-84957671D01*
X84358467Y-84954000D01*
X83933533Y-84954000D01*
X83924671Y-84957671D01*
X83921000Y-84966533D01*
X83921000Y-84993643D01*
X83921183Y-84997031D01*
X83926936Y-85049989D01*
X83928751Y-85057618D01*
X83973950Y-85178188D01*
X83978218Y-85185985D01*
X84055121Y-85288595D01*
X84061405Y-85294879D01*
X84164015Y-85371782D01*
X84171812Y-85376050D01*
X84211715Y-85391009D01*
X84246951Y-85423924D01*
X84248592Y-85472114D01*
X84211715Y-85508991D01*
X84171812Y-85523950D01*
X84164015Y-85528218D01*
X84061405Y-85605121D01*
X84055121Y-85611405D01*
X83978218Y-85714015D01*
X83973950Y-85721812D01*
X83928751Y-85842382D01*
X83926936Y-85850011D01*
X83921183Y-85902969D01*
X83921000Y-85906357D01*
X83921000Y-85933467D01*
X82764030Y-85933467D01*
X82680798Y-85824997D01*
X82678282Y-85821718D01*
X82663097Y-85810066D01*
X82556118Y-85727978D01*
X82556115Y-85727976D01*
X82552841Y-85725464D01*
X82549027Y-85723884D01*
X82549025Y-85723883D01*
X82410580Y-85666537D01*
X82410577Y-85666536D01*
X82406762Y-85664956D01*
X82250000Y-85644318D01*
X82093238Y-85664956D01*
X82089423Y-85666536D01*
X82089420Y-85666537D01*
X81950975Y-85723883D01*
X81950973Y-85723884D01*
X81947159Y-85725464D01*
X81943885Y-85727976D01*
X81943882Y-85727978D01*
X81836903Y-85810066D01*
X81821718Y-85821718D01*
X81819202Y-85824997D01*
X81727978Y-85943882D01*
X81727976Y-85943885D01*
X81725464Y-85947159D01*
X81723884Y-85950973D01*
X81723883Y-85950975D01*
X81672512Y-86074997D01*
X81664956Y-86093238D01*
X81644318Y-86250000D01*
X81664956Y-86406762D01*
X81666536Y-86410577D01*
X81666537Y-86410580D01*
X81723883Y-86549025D01*
X81725464Y-86552841D01*
X81727976Y-86556115D01*
X81727978Y-86556118D01*
X81811481Y-86664941D01*
X81824500Y-86703293D01*
X81824500Y-88800848D01*
X81806048Y-88845396D01*
X81790103Y-88856980D01*
X81711658Y-88896950D01*
X81621950Y-88986658D01*
X81564354Y-89099696D01*
X81549500Y-89193481D01*
X81549501Y-89806518D01*
X81564354Y-89900304D01*
X81566606Y-89904723D01*
X81566606Y-89904724D01*
X81588124Y-89946955D01*
X81621950Y-90013342D01*
X81711658Y-90103050D01*
X81790102Y-90143020D01*
X81821417Y-90179684D01*
X81824500Y-90199152D01*
X81824500Y-90550848D01*
X81806048Y-90595396D01*
X81790103Y-90606980D01*
X81711658Y-90646950D01*
X81621950Y-90736658D01*
X81619698Y-90741078D01*
X81567645Y-90843238D01*
X81564354Y-90849696D01*
X81549500Y-90943481D01*
X81100499Y-90943481D01*
X81085646Y-90849696D01*
X81082356Y-90843238D01*
X81030302Y-90741078D01*
X81028050Y-90736658D01*
X80938342Y-90646950D01*
X80825304Y-90589354D01*
X80731519Y-90574500D01*
X80729038Y-90574500D01*
X80500001Y-90574501D01*
X80268482Y-90574501D01*
X80174696Y-90589354D01*
X80061658Y-90646950D01*
X79971950Y-90736658D01*
X79969698Y-90741078D01*
X79917645Y-90843238D01*
X79914354Y-90849696D01*
X79899500Y-90943481D01*
X79010000Y-90943481D01*
X79010000Y-89827774D01*
X79846001Y-89827774D01*
X79846140Y-89830716D01*
X79848643Y-89857209D01*
X79850277Y-89864657D01*
X79892676Y-89985393D01*
X79897036Y-89993629D01*
X79972550Y-90095866D01*
X79979134Y-90102450D01*
X80081371Y-90177964D01*
X80089607Y-90182324D01*
X80210347Y-90224724D01*
X80217790Y-90226357D01*
X80235749Y-90228055D01*
X80242329Y-90225329D01*
X80246000Y-90216467D01*
X80246000Y-90216466D01*
X80754000Y-90216466D01*
X80757671Y-90225328D01*
X80764251Y-90228054D01*
X80782209Y-90226357D01*
X80789657Y-90224723D01*
X80910393Y-90182324D01*
X80918629Y-90177964D01*
X81020866Y-90102450D01*
X81027450Y-90095866D01*
X81102964Y-89993629D01*
X81107324Y-89985393D01*
X81149724Y-89864653D01*
X81151357Y-89857210D01*
X81153859Y-89830739D01*
X81154000Y-89827761D01*
X81154000Y-89766533D01*
X81150329Y-89757671D01*
X81141467Y-89754000D01*
X80766533Y-89754000D01*
X80757671Y-89757671D01*
X80754000Y-89766533D01*
X80754000Y-90216466D01*
X80246000Y-90216466D01*
X80246000Y-89766533D01*
X80242329Y-89757671D01*
X80233467Y-89754000D01*
X79858534Y-89754000D01*
X79849672Y-89757671D01*
X79846001Y-89766533D01*
X79846001Y-89827774D01*
X79010000Y-89827774D01*
X79010000Y-89233467D01*
X79846000Y-89233467D01*
X79849671Y-89242329D01*
X79858533Y-89246000D01*
X80233467Y-89246000D01*
X80242329Y-89242329D01*
X80246000Y-89233467D01*
X80754000Y-89233467D01*
X80757671Y-89242329D01*
X80766533Y-89246000D01*
X81141466Y-89246000D01*
X81150328Y-89242329D01*
X81153999Y-89233467D01*
X81153999Y-89172226D01*
X81153860Y-89169284D01*
X81151357Y-89142791D01*
X81149723Y-89135343D01*
X81107324Y-89014607D01*
X81102964Y-89006371D01*
X81027450Y-88904134D01*
X81020866Y-88897550D01*
X80918629Y-88822036D01*
X80910393Y-88817676D01*
X80789653Y-88775276D01*
X80782210Y-88773643D01*
X80764251Y-88771945D01*
X80757671Y-88774671D01*
X80754000Y-88783533D01*
X80754000Y-89233467D01*
X80246000Y-89233467D01*
X80246000Y-88783534D01*
X80242329Y-88774672D01*
X80235749Y-88771946D01*
X80217791Y-88773643D01*
X80210343Y-88775277D01*
X80089607Y-88817676D01*
X80081371Y-88822036D01*
X79979134Y-88897550D01*
X79972550Y-88904134D01*
X79897036Y-89006371D01*
X79892676Y-89014607D01*
X79850276Y-89135347D01*
X79848643Y-89142790D01*
X79846141Y-89169261D01*
X79846000Y-89172239D01*
X79846000Y-89233467D01*
X79010000Y-89233467D01*
X79010000Y-83808753D01*
X80474514Y-83808753D01*
X80474858Y-83812261D01*
X80474858Y-83812262D01*
X80491183Y-83978751D01*
X80492039Y-83987486D01*
X80493149Y-83990824D01*
X80493150Y-83990827D01*
X80536339Y-84120660D01*
X80548726Y-84157896D01*
X80641759Y-84311512D01*
X80644207Y-84314047D01*
X80669722Y-84340468D01*
X80766514Y-84440699D01*
X80916789Y-84539036D01*
X81085116Y-84601636D01*
X81088601Y-84602101D01*
X81259644Y-84624923D01*
X81259645Y-84624923D01*
X81263130Y-84625388D01*
X81327091Y-84619567D01*
X81438480Y-84609431D01*
X81438483Y-84609430D01*
X81441981Y-84609112D01*
X81445322Y-84608026D01*
X81445324Y-84608026D01*
X81609431Y-84554704D01*
X81609432Y-84554703D01*
X81612782Y-84553615D01*
X81739816Y-84477888D01*
X81764025Y-84463457D01*
X81764027Y-84463455D01*
X81767044Y-84461657D01*
X81769589Y-84459234D01*
X81769591Y-84459232D01*
X81796647Y-84433467D01*
X83921000Y-84433467D01*
X83924671Y-84442329D01*
X83933533Y-84446000D01*
X84358467Y-84446000D01*
X84367329Y-84442329D01*
X84371000Y-84433467D01*
X84879000Y-84433467D01*
X84882671Y-84442329D01*
X84891533Y-84446000D01*
X85316467Y-84446000D01*
X85325329Y-84442329D01*
X85329000Y-84433467D01*
X85329000Y-84406357D01*
X85328817Y-84402969D01*
X85323064Y-84350011D01*
X85321249Y-84342382D01*
X85276050Y-84221812D01*
X85271782Y-84214015D01*
X85194879Y-84111405D01*
X85188595Y-84105121D01*
X85085985Y-84028218D01*
X85078188Y-84023950D01*
X84957618Y-83978751D01*
X84949989Y-83976936D01*
X84897031Y-83971183D01*
X84893643Y-83971000D01*
X84891533Y-83971000D01*
X84882671Y-83974671D01*
X84879000Y-83983533D01*
X84879000Y-84433467D01*
X84371000Y-84433467D01*
X84371000Y-83983533D01*
X84367329Y-83974671D01*
X84358467Y-83971000D01*
X84356357Y-83971000D01*
X84352969Y-83971183D01*
X84300011Y-83976936D01*
X84292382Y-83978751D01*
X84171812Y-84023950D01*
X84164015Y-84028218D01*
X84061405Y-84105121D01*
X84055121Y-84111405D01*
X83978218Y-84214015D01*
X83973950Y-84221812D01*
X83928751Y-84342382D01*
X83926936Y-84350011D01*
X83921183Y-84402969D01*
X83921000Y-84406357D01*
X83921000Y-84433467D01*
X81796647Y-84433467D01*
X81875967Y-84357931D01*
X81897099Y-84337807D01*
X81981034Y-84211475D01*
X81994536Y-84191153D01*
X81994537Y-84191151D01*
X81996483Y-84188222D01*
X81997731Y-84184938D01*
X81997733Y-84184933D01*
X82048202Y-84052071D01*
X82060257Y-84020336D01*
X82060747Y-84016850D01*
X82060748Y-84016846D01*
X82076947Y-83901580D01*
X82085251Y-83842493D01*
X82085348Y-83835583D01*
X82085537Y-83821986D01*
X82085565Y-83820000D01*
X82065546Y-83641528D01*
X82052682Y-83604587D01*
X82007642Y-83475248D01*
X82007640Y-83475244D01*
X82006485Y-83471927D01*
X81915284Y-83325975D01*
X81913183Y-83322612D01*
X81913181Y-83322609D01*
X81911316Y-83319625D01*
X81800356Y-83207888D01*
X81787254Y-83194694D01*
X81787252Y-83194692D01*
X81784770Y-83192193D01*
X81757779Y-83175064D01*
X81636107Y-83097848D01*
X81636104Y-83097846D01*
X81633136Y-83095963D01*
X81463951Y-83035719D01*
X81397694Y-83027818D01*
X81289116Y-83014871D01*
X81289113Y-83014871D01*
X81285624Y-83014455D01*
X81196321Y-83023841D01*
X81110515Y-83032859D01*
X81110512Y-83032860D01*
X81107017Y-83033227D01*
X80937007Y-83091103D01*
X80934012Y-83092946D01*
X80934009Y-83092947D01*
X80867871Y-83133636D01*
X80784045Y-83185206D01*
X80781530Y-83187668D01*
X80781531Y-83187668D01*
X80667817Y-83299025D01*
X80655732Y-83310859D01*
X80653830Y-83313810D01*
X80653827Y-83313814D01*
X80607089Y-83386338D01*
X80558446Y-83461817D01*
X80557243Y-83465121D01*
X80557243Y-83465122D01*
X80531157Y-83536794D01*
X80497022Y-83630578D01*
X80496581Y-83634069D01*
X80496580Y-83634073D01*
X80480102Y-83764515D01*
X80474514Y-83808753D01*
X79010000Y-83808753D01*
X79010000Y-82921921D01*
X83496001Y-82921921D01*
X83496604Y-82928050D01*
X83509526Y-82993020D01*
X83514185Y-83004266D01*
X83563429Y-83077965D01*
X83572035Y-83086571D01*
X83645737Y-83135817D01*
X83656977Y-83140473D01*
X83721951Y-83153397D01*
X83728077Y-83154000D01*
X84233467Y-83154000D01*
X84242329Y-83150329D01*
X84246000Y-83141467D01*
X84246000Y-83141466D01*
X84754000Y-83141466D01*
X84757671Y-83150328D01*
X84766533Y-83153999D01*
X85271921Y-83153999D01*
X85278050Y-83153396D01*
X85343020Y-83140474D01*
X85354266Y-83135815D01*
X85427965Y-83086571D01*
X85436571Y-83077965D01*
X85485817Y-83004263D01*
X85490473Y-82993023D01*
X85503397Y-82928049D01*
X85504000Y-82921923D01*
X85504000Y-82166533D01*
X85500329Y-82157671D01*
X85491467Y-82154000D01*
X84766533Y-82154000D01*
X84757671Y-82157671D01*
X84754000Y-82166533D01*
X84754000Y-83141466D01*
X84246000Y-83141466D01*
X84246000Y-82166533D01*
X84242329Y-82157671D01*
X84233467Y-82154000D01*
X83508534Y-82154000D01*
X83499672Y-82157671D01*
X83496001Y-82166533D01*
X83496001Y-82921921D01*
X79010000Y-82921921D01*
X79010000Y-81541023D01*
X80466863Y-81541023D01*
X80494517Y-81626134D01*
X80497182Y-81632118D01*
X80583641Y-81781871D01*
X80587508Y-81787193D01*
X80703205Y-81915687D01*
X80708087Y-81920082D01*
X80847975Y-82021717D01*
X80853665Y-82025002D01*
X81011629Y-82095333D01*
X81014652Y-82096315D01*
X81023173Y-82094736D01*
X81026000Y-82090622D01*
X81026000Y-82086556D01*
X81534000Y-82086556D01*
X81537671Y-82095418D01*
X81542259Y-82097319D01*
X81548371Y-82095333D01*
X81706335Y-82025002D01*
X81712025Y-82021717D01*
X81851913Y-81920082D01*
X81856795Y-81915687D01*
X81972492Y-81787193D01*
X81976359Y-81781871D01*
X82062039Y-81633467D01*
X83496000Y-81633467D01*
X83499671Y-81642329D01*
X83508533Y-81646000D01*
X84233467Y-81646000D01*
X84242329Y-81642329D01*
X84246000Y-81633467D01*
X84754000Y-81633467D01*
X84757671Y-81642329D01*
X84766533Y-81646000D01*
X85491466Y-81646000D01*
X85500328Y-81642329D01*
X85503999Y-81633467D01*
X85503999Y-80878079D01*
X85503396Y-80871950D01*
X85490474Y-80806980D01*
X85485815Y-80795734D01*
X85436571Y-80722035D01*
X85427965Y-80713429D01*
X85354263Y-80664183D01*
X85343023Y-80659527D01*
X85278049Y-80646603D01*
X85271923Y-80646000D01*
X84766533Y-80646000D01*
X84757671Y-80649671D01*
X84754000Y-80658533D01*
X84754000Y-81633467D01*
X84246000Y-81633467D01*
X84246000Y-80658534D01*
X84242329Y-80649672D01*
X84233467Y-80646001D01*
X83728079Y-80646001D01*
X83721950Y-80646604D01*
X83656980Y-80659526D01*
X83645734Y-80664185D01*
X83572035Y-80713429D01*
X83563429Y-80722035D01*
X83514183Y-80795737D01*
X83509527Y-80806977D01*
X83496603Y-80871951D01*
X83496000Y-80878077D01*
X83496000Y-81633467D01*
X82062039Y-81633467D01*
X82062818Y-81632118D01*
X82065483Y-81626134D01*
X82091546Y-81545918D01*
X82090794Y-81536357D01*
X82088035Y-81534000D01*
X81546533Y-81534000D01*
X81537671Y-81537671D01*
X81534000Y-81546533D01*
X81534000Y-82086556D01*
X81026000Y-82086556D01*
X81026000Y-81546533D01*
X81022329Y-81537671D01*
X81013467Y-81534000D01*
X80477114Y-81534000D01*
X80468252Y-81537671D01*
X80466863Y-81541023D01*
X79010000Y-81541023D01*
X79010000Y-81014082D01*
X80468454Y-81014082D01*
X80469206Y-81023643D01*
X80471965Y-81026000D01*
X81013467Y-81026000D01*
X81022329Y-81022329D01*
X81026000Y-81013467D01*
X81534000Y-81013467D01*
X81537671Y-81022329D01*
X81546533Y-81026000D01*
X82082886Y-81026000D01*
X82091748Y-81022329D01*
X82093137Y-81018977D01*
X82065483Y-80933866D01*
X82062818Y-80927882D01*
X81976359Y-80778129D01*
X81972492Y-80772807D01*
X81856795Y-80644313D01*
X81851913Y-80639918D01*
X81712025Y-80538283D01*
X81706335Y-80534998D01*
X81548371Y-80464667D01*
X81545348Y-80463685D01*
X81536827Y-80465264D01*
X81534000Y-80469378D01*
X81534000Y-81013467D01*
X81026000Y-81013467D01*
X81026000Y-80473444D01*
X81022329Y-80464582D01*
X81017741Y-80462681D01*
X81011629Y-80464667D01*
X80853665Y-80534998D01*
X80847975Y-80538283D01*
X80708087Y-80639918D01*
X80703205Y-80644313D01*
X80587508Y-80772807D01*
X80583641Y-80778129D01*
X80497182Y-80927882D01*
X80494517Y-80933866D01*
X80468454Y-81014082D01*
X79010000Y-81014082D01*
X79010000Y-78728753D01*
X80474514Y-78728753D01*
X80474858Y-78732261D01*
X80474858Y-78732262D01*
X80487694Y-78863169D01*
X80492039Y-78907486D01*
X80493149Y-78910824D01*
X80493150Y-78910827D01*
X80547613Y-79074551D01*
X80548726Y-79077896D01*
X80641759Y-79231512D01*
X80644207Y-79234047D01*
X80669722Y-79260468D01*
X80766514Y-79360699D01*
X80916789Y-79459036D01*
X81085116Y-79521636D01*
X81088601Y-79522101D01*
X81259644Y-79544923D01*
X81259645Y-79544923D01*
X81263130Y-79545388D01*
X81327091Y-79539567D01*
X81438480Y-79529431D01*
X81438483Y-79529430D01*
X81441981Y-79529112D01*
X81445322Y-79528026D01*
X81445324Y-79528026D01*
X81609431Y-79474704D01*
X81609432Y-79474703D01*
X81612782Y-79473615D01*
X81739816Y-79397888D01*
X81764025Y-79383457D01*
X81764027Y-79383455D01*
X81767044Y-79381657D01*
X81769589Y-79379234D01*
X81769591Y-79379232D01*
X81875964Y-79277934D01*
X81897099Y-79257807D01*
X81996483Y-79108222D01*
X81997731Y-79104938D01*
X81997733Y-79104933D01*
X82059005Y-78943631D01*
X82060257Y-78940336D01*
X82060747Y-78936850D01*
X82060748Y-78936846D01*
X82075885Y-78829134D01*
X82085251Y-78762493D01*
X82085565Y-78740000D01*
X82065546Y-78561528D01*
X82040639Y-78490004D01*
X82043415Y-78441867D01*
X82055587Y-78424739D01*
X82968167Y-77512159D01*
X82972219Y-77508446D01*
X82998973Y-77485997D01*
X82998973Y-77485996D01*
X83003194Y-77482455D01*
X83023413Y-77447434D01*
X83026365Y-77442801D01*
X83046393Y-77414198D01*
X83049554Y-77409684D01*
X83051171Y-77403648D01*
X83057464Y-77388456D01*
X83057833Y-77387817D01*
X83057833Y-77387816D01*
X83060588Y-77383045D01*
X83067607Y-77343236D01*
X83068797Y-77337868D01*
X83077838Y-77304130D01*
X83077838Y-77304128D01*
X83079264Y-77298807D01*
X83075740Y-77258529D01*
X83075500Y-77253038D01*
X83075500Y-75788217D01*
X83093952Y-75743669D01*
X83100148Y-75738236D01*
X83161891Y-75690859D01*
X83178282Y-75678282D01*
X83259687Y-75572193D01*
X83272022Y-75556118D01*
X83272024Y-75556115D01*
X83274536Y-75552841D01*
X83277909Y-75544698D01*
X83333463Y-75410580D01*
X83333464Y-75410577D01*
X83335044Y-75406762D01*
X83355682Y-75250000D01*
X83335044Y-75093238D01*
X83306825Y-75025110D01*
X83276117Y-74950975D01*
X83276116Y-74950973D01*
X83274536Y-74947159D01*
X83272024Y-74943885D01*
X83272022Y-74943882D01*
X83180798Y-74824997D01*
X83178282Y-74821718D01*
X83116177Y-74774063D01*
X83056118Y-74727978D01*
X83056115Y-74727976D01*
X83052841Y-74725464D01*
X83049027Y-74723884D01*
X83049025Y-74723883D01*
X82910580Y-74666537D01*
X82910577Y-74666536D01*
X82906762Y-74664956D01*
X82750000Y-74644318D01*
X82593238Y-74664956D01*
X82589423Y-74666536D01*
X82589420Y-74666537D01*
X82450975Y-74723883D01*
X82450973Y-74723884D01*
X82447159Y-74725464D01*
X82443885Y-74727976D01*
X82443882Y-74727978D01*
X82383823Y-74774063D01*
X82321718Y-74821718D01*
X82319202Y-74824997D01*
X82227978Y-74943882D01*
X82227976Y-74943885D01*
X82225464Y-74947159D01*
X82223884Y-74950973D01*
X82223883Y-74950975D01*
X82193176Y-75025110D01*
X82164956Y-75093238D01*
X82144318Y-75250000D01*
X82164956Y-75406762D01*
X82166536Y-75410577D01*
X82166537Y-75410580D01*
X82222091Y-75544698D01*
X82225464Y-75552841D01*
X82227976Y-75556115D01*
X82227978Y-75556118D01*
X82240313Y-75572193D01*
X82321718Y-75678282D01*
X82338109Y-75690859D01*
X82399852Y-75738236D01*
X82423961Y-75779994D01*
X82424500Y-75788217D01*
X82424500Y-77109078D01*
X82406048Y-77153626D01*
X81595354Y-77964320D01*
X81550806Y-77982772D01*
X81529672Y-77979121D01*
X81467274Y-77956901D01*
X81467263Y-77956899D01*
X81463951Y-77955719D01*
X81460456Y-77955302D01*
X81460455Y-77955302D01*
X81289116Y-77934871D01*
X81289113Y-77934871D01*
X81285624Y-77934455D01*
X81196321Y-77943841D01*
X81110515Y-77952859D01*
X81110512Y-77952860D01*
X81107017Y-77953227D01*
X80937007Y-78011103D01*
X80934012Y-78012946D01*
X80934009Y-78012947D01*
X80867871Y-78053636D01*
X80784045Y-78105206D01*
X80655732Y-78230859D01*
X80653830Y-78233810D01*
X80653827Y-78233814D01*
X80646034Y-78245907D01*
X80558446Y-78381817D01*
X80497022Y-78550578D01*
X80496581Y-78554069D01*
X80496580Y-78554073D01*
X80480572Y-78680798D01*
X80474514Y-78728753D01*
X79010000Y-78728753D01*
X79010000Y-76188753D01*
X80474514Y-76188753D01*
X80474858Y-76192261D01*
X80474858Y-76192262D01*
X80486302Y-76308972D01*
X80492039Y-76367486D01*
X80493149Y-76370824D01*
X80493150Y-76370827D01*
X80547613Y-76534551D01*
X80548726Y-76537896D01*
X80641759Y-76691512D01*
X80644207Y-76694047D01*
X80673019Y-76723883D01*
X80766514Y-76820699D01*
X80916789Y-76919036D01*
X81085116Y-76981636D01*
X81088601Y-76982101D01*
X81259644Y-77004923D01*
X81259645Y-77004923D01*
X81263130Y-77005388D01*
X81327091Y-76999567D01*
X81438480Y-76989431D01*
X81438483Y-76989430D01*
X81441981Y-76989112D01*
X81445322Y-76988026D01*
X81445324Y-76988026D01*
X81609431Y-76934704D01*
X81609432Y-76934703D01*
X81612782Y-76933615D01*
X81678905Y-76894198D01*
X81764025Y-76843457D01*
X81764027Y-76843455D01*
X81767044Y-76841657D01*
X81769589Y-76839234D01*
X81769591Y-76839232D01*
X81889058Y-76725464D01*
X81897099Y-76717807D01*
X81973343Y-76603050D01*
X81994536Y-76571153D01*
X81994537Y-76571151D01*
X81996483Y-76568222D01*
X81997731Y-76564938D01*
X81997733Y-76564933D01*
X82059005Y-76403631D01*
X82060257Y-76400336D01*
X82060747Y-76396850D01*
X82060748Y-76396846D01*
X82073791Y-76304037D01*
X82085251Y-76222493D01*
X82085565Y-76200000D01*
X82065546Y-76021528D01*
X82007793Y-75855682D01*
X82007642Y-75855248D01*
X82007640Y-75855244D01*
X82006485Y-75851927D01*
X81974360Y-75800516D01*
X81913183Y-75702612D01*
X81913181Y-75702609D01*
X81911316Y-75699625D01*
X81784770Y-75572193D01*
X81748263Y-75549025D01*
X81636107Y-75477848D01*
X81636104Y-75477846D01*
X81633136Y-75475963D01*
X81463951Y-75415719D01*
X81388835Y-75406762D01*
X81289116Y-75394871D01*
X81289113Y-75394871D01*
X81285624Y-75394455D01*
X81207491Y-75402667D01*
X81110515Y-75412859D01*
X81110512Y-75412860D01*
X81107017Y-75413227D01*
X80937007Y-75471103D01*
X80934012Y-75472946D01*
X80934009Y-75472947D01*
X80907340Y-75489354D01*
X80784045Y-75565206D01*
X80655732Y-75690859D01*
X80653830Y-75693810D01*
X80653827Y-75693814D01*
X80617814Y-75749696D01*
X80558446Y-75841817D01*
X80557243Y-75845121D01*
X80557243Y-75845122D01*
X80498226Y-76007270D01*
X80497022Y-76010578D01*
X80496581Y-76014069D01*
X80496580Y-76014073D01*
X80495196Y-76025032D01*
X80474514Y-76188753D01*
X79010000Y-76188753D01*
X79010000Y-72608327D01*
X79870256Y-72608327D01*
X79871682Y-72613648D01*
X79871682Y-72613650D01*
X79880723Y-72647388D01*
X79881913Y-72652756D01*
X79888932Y-72692565D01*
X79891687Y-72697336D01*
X79891687Y-72697337D01*
X79892056Y-72697976D01*
X79898349Y-72713168D01*
X79899966Y-72719204D01*
X79903127Y-72723718D01*
X79923155Y-72752321D01*
X79926107Y-72756954D01*
X79946326Y-72791975D01*
X79950547Y-72795517D01*
X79977302Y-72817968D01*
X79981353Y-72821680D01*
X80504194Y-73344520D01*
X80522646Y-73389068D01*
X80518847Y-73410614D01*
X80497022Y-73470578D01*
X80496581Y-73474069D01*
X80496580Y-73474073D01*
X80484712Y-73568023D01*
X80474514Y-73648753D01*
X80474858Y-73652261D01*
X80474858Y-73652262D01*
X80475812Y-73661986D01*
X80492039Y-73827486D01*
X80493149Y-73830824D01*
X80493150Y-73830827D01*
X80546458Y-73991078D01*
X80548726Y-73997896D01*
X80641759Y-74151512D01*
X80644207Y-74154047D01*
X80670040Y-74180798D01*
X80766514Y-74280699D01*
X80916789Y-74379036D01*
X81085116Y-74441636D01*
X81088601Y-74442101D01*
X81259644Y-74464923D01*
X81259645Y-74464923D01*
X81263130Y-74465388D01*
X81327091Y-74459567D01*
X81438480Y-74449431D01*
X81438483Y-74449430D01*
X81441981Y-74449112D01*
X81445322Y-74448026D01*
X81445324Y-74448026D01*
X81609431Y-74394704D01*
X81609432Y-74394703D01*
X81612782Y-74393615D01*
X81710132Y-74335583D01*
X81764025Y-74303457D01*
X81764027Y-74303455D01*
X81767044Y-74301657D01*
X81769589Y-74299234D01*
X81769591Y-74299232D01*
X81880640Y-74193481D01*
X81897099Y-74177807D01*
X81996483Y-74028222D01*
X81997731Y-74024938D01*
X81997733Y-74024933D01*
X82045016Y-73900457D01*
X82060257Y-73860336D01*
X82060747Y-73856850D01*
X82060748Y-73856846D01*
X82075188Y-73754094D01*
X82085251Y-73682493D01*
X82085565Y-73660000D01*
X82067273Y-73496921D01*
X84071001Y-73496921D01*
X84071604Y-73503050D01*
X84084526Y-73568020D01*
X84089185Y-73579266D01*
X84138429Y-73652965D01*
X84147035Y-73661571D01*
X84220737Y-73710817D01*
X84231977Y-73715473D01*
X84296951Y-73728397D01*
X84303077Y-73729000D01*
X84583467Y-73729000D01*
X84592329Y-73725329D01*
X84596000Y-73716467D01*
X84596000Y-73716466D01*
X85104000Y-73716466D01*
X85107671Y-73725328D01*
X85116533Y-73728999D01*
X85396921Y-73728999D01*
X85403050Y-73728396D01*
X85468020Y-73715474D01*
X85479266Y-73710815D01*
X85552965Y-73661571D01*
X85561571Y-73652965D01*
X85610817Y-73579263D01*
X85615473Y-73568023D01*
X85628397Y-73503049D01*
X85629000Y-73496923D01*
X85629000Y-73416533D01*
X85625329Y-73407671D01*
X85616467Y-73404000D01*
X85116533Y-73404000D01*
X85107671Y-73407671D01*
X85104000Y-73416533D01*
X85104000Y-73716466D01*
X84596000Y-73716466D01*
X84596000Y-73416533D01*
X84592329Y-73407671D01*
X84583467Y-73404000D01*
X84083534Y-73404000D01*
X84074672Y-73407671D01*
X84071001Y-73416533D01*
X84071001Y-73496921D01*
X82067273Y-73496921D01*
X82065546Y-73481528D01*
X82044310Y-73420545D01*
X82007642Y-73315248D01*
X82007640Y-73315244D01*
X82006485Y-73311927D01*
X81973364Y-73258922D01*
X81913183Y-73162612D01*
X81913181Y-73162609D01*
X81911316Y-73159625D01*
X81829013Y-73076746D01*
X81787254Y-73034694D01*
X81787252Y-73034692D01*
X81784770Y-73032193D01*
X81740345Y-73004000D01*
X81636107Y-72937848D01*
X81636104Y-72937846D01*
X81633136Y-72935963D01*
X81463951Y-72875719D01*
X81397694Y-72867818D01*
X81289116Y-72854871D01*
X81289113Y-72854871D01*
X81285624Y-72854455D01*
X81196320Y-72863841D01*
X81110515Y-72872859D01*
X81110512Y-72872860D01*
X81107017Y-72873227D01*
X81103689Y-72874360D01*
X81103684Y-72874361D01*
X81029650Y-72899564D01*
X80981533Y-72896452D01*
X80964800Y-72884473D01*
X80543472Y-72463146D01*
X80525020Y-72418598D01*
X80525020Y-71970052D01*
X80543472Y-71925504D01*
X80588020Y-71907052D01*
X80601593Y-71909752D01*
X80601769Y-71908867D01*
X80660252Y-71920500D01*
X81899748Y-71920500D01*
X81937070Y-71913076D01*
X81952144Y-71910078D01*
X81952145Y-71910078D01*
X81958231Y-71908867D01*
X81963390Y-71905420D01*
X81963392Y-71905419D01*
X82019389Y-71868002D01*
X82024552Y-71864552D01*
X82030555Y-71855568D01*
X82065419Y-71803392D01*
X82065420Y-71803390D01*
X82068867Y-71798231D01*
X82080500Y-71739748D01*
X82080500Y-71508500D01*
X82098952Y-71463952D01*
X82143500Y-71445500D01*
X82709078Y-71445500D01*
X82753626Y-71463952D01*
X83707361Y-72417687D01*
X83711074Y-72421739D01*
X83737065Y-72452714D01*
X83768149Y-72470660D01*
X83772083Y-72472931D01*
X83776719Y-72475885D01*
X83784534Y-72481357D01*
X83809836Y-72499074D01*
X83815158Y-72500500D01*
X83815871Y-72500691D01*
X83831064Y-72506984D01*
X83836475Y-72510108D01*
X83841901Y-72511065D01*
X83841902Y-72511065D01*
X83876284Y-72517127D01*
X83881652Y-72518317D01*
X83915390Y-72527358D01*
X83915392Y-72527358D01*
X83920713Y-72528784D01*
X83926202Y-72528304D01*
X83926205Y-72528304D01*
X83960996Y-72525260D01*
X83966486Y-72525020D01*
X84109080Y-72525020D01*
X84153628Y-72543472D01*
X84172080Y-72588020D01*
X84153628Y-72632568D01*
X84149551Y-72635913D01*
X84138429Y-72647035D01*
X84089183Y-72720737D01*
X84084527Y-72731977D01*
X84071603Y-72796951D01*
X84071000Y-72803077D01*
X84071000Y-72883467D01*
X84074671Y-72892329D01*
X84083533Y-72896000D01*
X85616466Y-72896000D01*
X85625328Y-72892329D01*
X85628999Y-72883467D01*
X85628999Y-72803079D01*
X85628396Y-72796950D01*
X85615474Y-72731980D01*
X85610815Y-72720734D01*
X85561571Y-72647035D01*
X85548577Y-72634041D01*
X85550432Y-72632186D01*
X85529132Y-72600317D01*
X85538534Y-72553025D01*
X85578623Y-72526232D01*
X85590920Y-72525020D01*
X86411500Y-72525020D01*
X86456048Y-72543472D01*
X86474500Y-72588020D01*
X86474500Y-74336500D01*
X86456048Y-74381048D01*
X86411500Y-74399500D01*
X84880252Y-74399500D01*
X84842930Y-74406924D01*
X84827856Y-74409922D01*
X84827855Y-74409922D01*
X84821769Y-74411133D01*
X84816610Y-74414580D01*
X84816608Y-74414581D01*
X84764930Y-74449112D01*
X84755448Y-74455448D01*
X84751998Y-74460611D01*
X84714581Y-74516608D01*
X84714580Y-74516610D01*
X84711133Y-74521769D01*
X84699500Y-74580252D01*
X84699500Y-76619748D01*
X84706776Y-76656327D01*
X84708318Y-76664077D01*
X84711133Y-76678231D01*
X84714580Y-76683390D01*
X84714581Y-76683392D01*
X84751423Y-76738529D01*
X84755448Y-76744552D01*
X84760611Y-76748002D01*
X84816608Y-76785419D01*
X84816610Y-76785420D01*
X84821769Y-76788867D01*
X84827855Y-76790078D01*
X84827856Y-76790078D01*
X84842930Y-76793076D01*
X84880252Y-76800500D01*
X86136500Y-76800500D01*
X86181048Y-76818952D01*
X86199500Y-76863500D01*
X86199500Y-80636500D01*
X86181048Y-80681048D01*
X86136500Y-80699500D01*
X86030252Y-80699500D01*
X85992930Y-80706924D01*
X85977856Y-80709922D01*
X85977855Y-80709922D01*
X85971769Y-80711133D01*
X85966610Y-80714580D01*
X85966608Y-80714581D01*
X85933383Y-80736782D01*
X85905448Y-80755448D01*
X85901998Y-80760611D01*
X85864581Y-80816608D01*
X85864580Y-80816610D01*
X85861133Y-80821769D01*
X85849500Y-80880252D01*
X85849500Y-82919748D01*
X85853822Y-82941475D01*
X85859425Y-82969642D01*
X85861133Y-82978231D01*
X85877029Y-83002021D01*
X85886437Y-83049310D01*
X85869195Y-83081568D01*
X85781134Y-83169630D01*
X85774937Y-83175064D01*
X85746718Y-83196718D01*
X85744202Y-83199997D01*
X85654326Y-83317126D01*
X85652408Y-83319625D01*
X85650464Y-83322159D01*
X85648884Y-83325973D01*
X85648883Y-83325975D01*
X85592616Y-83461817D01*
X85589956Y-83468238D01*
X85569318Y-83625000D01*
X85571494Y-83641528D01*
X85573961Y-83660267D01*
X85574500Y-83668490D01*
X85574500Y-84234591D01*
X85567635Y-84263189D01*
X85540281Y-84316874D01*
X85524500Y-84416512D01*
X85524500Y-84983488D01*
X85540281Y-85083126D01*
X85567635Y-85136811D01*
X85574500Y-85165409D01*
X85574500Y-85734591D01*
X85567635Y-85763189D01*
X85540281Y-85816874D01*
X85524500Y-85916512D01*
X85524500Y-86483488D01*
X85540281Y-86583126D01*
X85601472Y-86703220D01*
X85674415Y-86776163D01*
X85692867Y-86820711D01*
X85674415Y-86865258D01*
X85650412Y-86889261D01*
X85605864Y-86907712D01*
X85597646Y-86907173D01*
X85500000Y-86894318D01*
X85343238Y-86914956D01*
X85339423Y-86916536D01*
X85339420Y-86916537D01*
X85200975Y-86973883D01*
X85200973Y-86973884D01*
X85197159Y-86975464D01*
X85193885Y-86977976D01*
X85193882Y-86977978D01*
X85111754Y-87040997D01*
X85071718Y-87071718D01*
X85069202Y-87074997D01*
X84977978Y-87193882D01*
X84977976Y-87193885D01*
X84975464Y-87197159D01*
X84973884Y-87200973D01*
X84973883Y-87200975D01*
X84957832Y-87239727D01*
X84914956Y-87343238D01*
X84894318Y-87500000D01*
X84914956Y-87656762D01*
X84916536Y-87660577D01*
X84916537Y-87660580D01*
X84944555Y-87728220D01*
X84975464Y-87802841D01*
X84977976Y-87806115D01*
X84977978Y-87806118D01*
X85002664Y-87838289D01*
X85071718Y-87928282D01*
X85074997Y-87930798D01*
X85193882Y-88022022D01*
X85193885Y-88022024D01*
X85197159Y-88024536D01*
X85200973Y-88026116D01*
X85200975Y-88026117D01*
X85339420Y-88083463D01*
X85339423Y-88083464D01*
X85343238Y-88085044D01*
X85500000Y-88105682D01*
X85656762Y-88085044D01*
X85660577Y-88083464D01*
X85660580Y-88083463D01*
X85799025Y-88026117D01*
X85799027Y-88026116D01*
X85802841Y-88024536D01*
X85806115Y-88022024D01*
X85806118Y-88022022D01*
X85925003Y-87930798D01*
X85928282Y-87928282D01*
X85997336Y-87838289D01*
X86022022Y-87806118D01*
X86022024Y-87806115D01*
X86024536Y-87802841D01*
X86055445Y-87728220D01*
X86083463Y-87660580D01*
X86083464Y-87660577D01*
X86085044Y-87656762D01*
X86105682Y-87500000D01*
X86092827Y-87402357D01*
X86105307Y-87355783D01*
X86110740Y-87349587D01*
X86393173Y-87067154D01*
X86397225Y-87063441D01*
X86423973Y-87040997D01*
X86423973Y-87040996D01*
X86428194Y-87037455D01*
X86448410Y-87002440D01*
X86451359Y-86997811D01*
X86471394Y-86969197D01*
X86474554Y-86964684D01*
X86476170Y-86958652D01*
X86482465Y-86943455D01*
X86485588Y-86938045D01*
X86490929Y-86907757D01*
X86516837Y-86867090D01*
X86530920Y-86860068D01*
X86533126Y-86859719D01*
X86653220Y-86798528D01*
X86748528Y-86703220D01*
X86809719Y-86583126D01*
X86825500Y-86483488D01*
X86825500Y-85916512D01*
X86809719Y-85816874D01*
X86782365Y-85763189D01*
X86775500Y-85734591D01*
X86775500Y-85165409D01*
X86782365Y-85136811D01*
X86809719Y-85083126D01*
X86825500Y-84983488D01*
X86825500Y-84416512D01*
X86809719Y-84316874D01*
X86782365Y-84263189D01*
X86775500Y-84234591D01*
X86775500Y-83899831D01*
X86793952Y-83855283D01*
X86987001Y-83662235D01*
X87193870Y-83455366D01*
X87200066Y-83449933D01*
X87225003Y-83430798D01*
X87228282Y-83428282D01*
X87299442Y-83335545D01*
X87313575Y-83317126D01*
X87322022Y-83306118D01*
X87322023Y-83306116D01*
X87324536Y-83302841D01*
X87351375Y-83238047D01*
X87383463Y-83160580D01*
X87383464Y-83160577D01*
X87385044Y-83156762D01*
X87385583Y-83152668D01*
X87386652Y-83148678D01*
X87388723Y-83149233D01*
X87409365Y-83113506D01*
X87447701Y-83100500D01*
X87569748Y-83100500D01*
X87607070Y-83093076D01*
X87622144Y-83090078D01*
X87622145Y-83090078D01*
X87628231Y-83088867D01*
X87633390Y-83085420D01*
X87633392Y-83085419D01*
X87689389Y-83048002D01*
X87694552Y-83044552D01*
X87710485Y-83020707D01*
X87735419Y-82983392D01*
X87735420Y-82983389D01*
X87738867Y-82978231D01*
X87740576Y-82969642D01*
X87746178Y-82941475D01*
X87750500Y-82919748D01*
X87750500Y-82813000D01*
X87768952Y-82768452D01*
X87813500Y-82750000D01*
X88086500Y-82750000D01*
X88131048Y-82768452D01*
X88149500Y-82813000D01*
X88149500Y-82919748D01*
X88153822Y-82941475D01*
X88159425Y-82969642D01*
X88161133Y-82978231D01*
X88164580Y-82983389D01*
X88164581Y-82983392D01*
X88189515Y-83020707D01*
X88205448Y-83044552D01*
X88210611Y-83048002D01*
X88223194Y-83056410D01*
X88271769Y-83088867D01*
X88274543Y-83089419D01*
X88307421Y-83122294D01*
X88307422Y-83170512D01*
X88293765Y-83190953D01*
X87473508Y-84011210D01*
X87438816Y-84028886D01*
X87371771Y-84039505D01*
X87371769Y-84039506D01*
X87366874Y-84040281D01*
X87362458Y-84042531D01*
X87362455Y-84042532D01*
X87270433Y-84089420D01*
X87246780Y-84101472D01*
X87151472Y-84196780D01*
X87090281Y-84316874D01*
X87074500Y-84416512D01*
X87074500Y-84983488D01*
X87090281Y-85083126D01*
X87117635Y-85136811D01*
X87124500Y-85165409D01*
X87124500Y-85734591D01*
X87117635Y-85763189D01*
X87090281Y-85816874D01*
X87074500Y-85916512D01*
X87074500Y-86483488D01*
X87090281Y-86583126D01*
X87117635Y-86636811D01*
X87124500Y-86665409D01*
X87124500Y-87000169D01*
X87106048Y-87044717D01*
X83606134Y-90544631D01*
X83599937Y-90550064D01*
X83571718Y-90571718D01*
X83569202Y-90574997D01*
X83485643Y-90683893D01*
X83485643Y-90683894D01*
X83475464Y-90697159D01*
X83414956Y-90843238D01*
X83394318Y-91000000D01*
X83394966Y-91004920D01*
X83398961Y-91035267D01*
X83399500Y-91043490D01*
X83399500Y-92956510D01*
X83398961Y-92964733D01*
X83394318Y-93000000D01*
X83404791Y-93079554D01*
X83414956Y-93156762D01*
X83416536Y-93160577D01*
X83416537Y-93160580D01*
X83447046Y-93234235D01*
X83475464Y-93302841D01*
X83477976Y-93306115D01*
X83477978Y-93306118D01*
X83534102Y-93379260D01*
X83571718Y-93428282D01*
X83574997Y-93430798D01*
X83599938Y-93449936D01*
X83606134Y-93455369D01*
X84524631Y-94373866D01*
X84530064Y-94380062D01*
X84551718Y-94408282D01*
X84554997Y-94410798D01*
X84615690Y-94457369D01*
X84673882Y-94502022D01*
X84673885Y-94502024D01*
X84677159Y-94504536D01*
X84680973Y-94506116D01*
X84680975Y-94506117D01*
X84819420Y-94563463D01*
X84819423Y-94563464D01*
X84823238Y-94565044D01*
X84980000Y-94585682D01*
X84984094Y-94585143D01*
X85015267Y-94581039D01*
X85023490Y-94580500D01*
X85464990Y-94580500D01*
X85509538Y-94598952D01*
X85514359Y-94604363D01*
X85600677Y-94713270D01*
X85603021Y-94715265D01*
X85603022Y-94715266D01*
X85661820Y-94765307D01*
X85757564Y-94846791D01*
X85803828Y-94872647D01*
X85934708Y-94945794D01*
X85934711Y-94945795D01*
X85937398Y-94947297D01*
X86005390Y-94969389D01*
X86130398Y-95010007D01*
X86130401Y-95010008D01*
X86133329Y-95010959D01*
X86136390Y-95011324D01*
X86334837Y-95034987D01*
X86334842Y-95034987D01*
X86337894Y-95035351D01*
X86340962Y-95035115D01*
X86340966Y-95035115D01*
X86540225Y-95019783D01*
X86540229Y-95019782D01*
X86543300Y-95019546D01*
X86546268Y-95018717D01*
X86546270Y-95018717D01*
X86642512Y-94991846D01*
X86741725Y-94964145D01*
X86925610Y-94871258D01*
X86949259Y-94852782D01*
X87085525Y-94746319D01*
X87087951Y-94744424D01*
X87210598Y-94602335D01*
X87258289Y-94580500D01*
X88004990Y-94580500D01*
X88049538Y-94598952D01*
X88054359Y-94604363D01*
X88140677Y-94713270D01*
X88143021Y-94715265D01*
X88143022Y-94715266D01*
X88201820Y-94765307D01*
X88297564Y-94846791D01*
X88343828Y-94872647D01*
X88474708Y-94945794D01*
X88474711Y-94945795D01*
X88477398Y-94947297D01*
X88545390Y-94969389D01*
X88670398Y-95010007D01*
X88670401Y-95010008D01*
X88673329Y-95010959D01*
X88676390Y-95011324D01*
X88874837Y-95034987D01*
X88874842Y-95034987D01*
X88877894Y-95035351D01*
X88880962Y-95035115D01*
X88880966Y-95035115D01*
X89080225Y-95019783D01*
X89080229Y-95019782D01*
X89083300Y-95019546D01*
X89086268Y-95018717D01*
X89086270Y-95018717D01*
X89182512Y-94991846D01*
X89281725Y-94964145D01*
X89465610Y-94871258D01*
X89489259Y-94852782D01*
X89625525Y-94746319D01*
X89627951Y-94744424D01*
X89750598Y-94602335D01*
X89798289Y-94580500D01*
X90544990Y-94580500D01*
X90589538Y-94598952D01*
X90594359Y-94604363D01*
X90680677Y-94713270D01*
X90683021Y-94715265D01*
X90683022Y-94715266D01*
X90741820Y-94765307D01*
X90837564Y-94846791D01*
X90883828Y-94872647D01*
X91014708Y-94945794D01*
X91014711Y-94945795D01*
X91017398Y-94947297D01*
X91085390Y-94969389D01*
X91210398Y-95010007D01*
X91210401Y-95010008D01*
X91213329Y-95010959D01*
X91216390Y-95011324D01*
X91414837Y-95034987D01*
X91414842Y-95034987D01*
X91417894Y-95035351D01*
X91420962Y-95035115D01*
X91420966Y-95035115D01*
X91620225Y-95019783D01*
X91620229Y-95019782D01*
X91623300Y-95019546D01*
X91626268Y-95018717D01*
X91626270Y-95018717D01*
X91722512Y-94991846D01*
X91821725Y-94964145D01*
X92005610Y-94871258D01*
X92029259Y-94852782D01*
X92165525Y-94746319D01*
X92167951Y-94744424D01*
X92290598Y-94602335D01*
X92338289Y-94580500D01*
X93084990Y-94580500D01*
X93129538Y-94598952D01*
X93134359Y-94604363D01*
X93220677Y-94713270D01*
X93223021Y-94715265D01*
X93223022Y-94715266D01*
X93281820Y-94765307D01*
X93377564Y-94846791D01*
X93423828Y-94872647D01*
X93554708Y-94945794D01*
X93554711Y-94945795D01*
X93557398Y-94947297D01*
X93625390Y-94969389D01*
X93750398Y-95010007D01*
X93750401Y-95010008D01*
X93753329Y-95010959D01*
X93756390Y-95011324D01*
X93954837Y-95034987D01*
X93954842Y-95034987D01*
X93957894Y-95035351D01*
X93960962Y-95035115D01*
X93960966Y-95035115D01*
X94160225Y-95019783D01*
X94160229Y-95019782D01*
X94163300Y-95019546D01*
X94166268Y-95018717D01*
X94166270Y-95018717D01*
X94262512Y-94991846D01*
X94361725Y-94964145D01*
X94545610Y-94871258D01*
X94569259Y-94852782D01*
X94705525Y-94746319D01*
X94707951Y-94744424D01*
X94830598Y-94602335D01*
X94878289Y-94580500D01*
X95624990Y-94580500D01*
X95669538Y-94598952D01*
X95674359Y-94604363D01*
X95760677Y-94713270D01*
X95763021Y-94715265D01*
X95763022Y-94715266D01*
X95821820Y-94765307D01*
X95917564Y-94846791D01*
X95963828Y-94872647D01*
X96094708Y-94945794D01*
X96094711Y-94945795D01*
X96097398Y-94947297D01*
X96165390Y-94969389D01*
X96290398Y-95010007D01*
X96290401Y-95010008D01*
X96293329Y-95010959D01*
X96296390Y-95011324D01*
X96494837Y-95034987D01*
X96494842Y-95034987D01*
X96497894Y-95035351D01*
X96500962Y-95035115D01*
X96500966Y-95035115D01*
X96700225Y-95019783D01*
X96700229Y-95019782D01*
X96703300Y-95019546D01*
X96706268Y-95018717D01*
X96706270Y-95018717D01*
X96802512Y-94991846D01*
X96901725Y-94964145D01*
X97085610Y-94871258D01*
X97109259Y-94852782D01*
X97245525Y-94746319D01*
X97247951Y-94744424D01*
X97370598Y-94602335D01*
X97418289Y-94580500D01*
X98164990Y-94580500D01*
X98209538Y-94598952D01*
X98214359Y-94604363D01*
X98300677Y-94713270D01*
X98303021Y-94715265D01*
X98303022Y-94715266D01*
X98361820Y-94765307D01*
X98457564Y-94846791D01*
X98503828Y-94872647D01*
X98634708Y-94945794D01*
X98634711Y-94945795D01*
X98637398Y-94947297D01*
X98705390Y-94969389D01*
X98830398Y-95010007D01*
X98830401Y-95010008D01*
X98833329Y-95010959D01*
X98836390Y-95011324D01*
X99034837Y-95034987D01*
X99034842Y-95034987D01*
X99037894Y-95035351D01*
X99040962Y-95035115D01*
X99040966Y-95035115D01*
X99240225Y-95019783D01*
X99240229Y-95019782D01*
X99243300Y-95019546D01*
X99246268Y-95018717D01*
X99246270Y-95018717D01*
X99342512Y-94991846D01*
X99441725Y-94964145D01*
X99625610Y-94871258D01*
X99649259Y-94852782D01*
X99785525Y-94746319D01*
X99787951Y-94744424D01*
X99922564Y-94588472D01*
X100024323Y-94409344D01*
X100089351Y-94213863D01*
X100115171Y-94009474D01*
X100115583Y-93980000D01*
X100095480Y-93774970D01*
X100035935Y-93577749D01*
X99939218Y-93395849D01*
X99809011Y-93236200D01*
X99794126Y-93223886D01*
X99652647Y-93106844D01*
X99652645Y-93106843D01*
X99650275Y-93104882D01*
X99469055Y-93006897D01*
X99466120Y-93005989D01*
X99466119Y-93005988D01*
X99275197Y-92946888D01*
X99272254Y-92945977D01*
X99194147Y-92937768D01*
X99070427Y-92924764D01*
X99070423Y-92924764D01*
X99067369Y-92924443D01*
X98929082Y-92937028D01*
X98865267Y-92942835D01*
X98865265Y-92942835D01*
X98862203Y-92943114D01*
X98664572Y-93001280D01*
X98577868Y-93046608D01*
X98484727Y-93095301D01*
X98484724Y-93095303D01*
X98482002Y-93096726D01*
X98321447Y-93225815D01*
X98319470Y-93228171D01*
X98211372Y-93356996D01*
X98168602Y-93379260D01*
X98163111Y-93379500D01*
X97415798Y-93379500D01*
X97371250Y-93361048D01*
X97366977Y-93356318D01*
X97270960Y-93238590D01*
X97269011Y-93236200D01*
X97254126Y-93223886D01*
X97112647Y-93106844D01*
X97112645Y-93106843D01*
X97110275Y-93104882D01*
X96929055Y-93006897D01*
X96926120Y-93005989D01*
X96926119Y-93005988D01*
X96735197Y-92946888D01*
X96732254Y-92945977D01*
X96654147Y-92937768D01*
X96530427Y-92924764D01*
X96530423Y-92924764D01*
X96527369Y-92924443D01*
X96389082Y-92937028D01*
X96325267Y-92942835D01*
X96325265Y-92942835D01*
X96322203Y-92943114D01*
X96124572Y-93001280D01*
X96037868Y-93046608D01*
X95944727Y-93095301D01*
X95944724Y-93095303D01*
X95942002Y-93096726D01*
X95781447Y-93225815D01*
X95779470Y-93228171D01*
X95671372Y-93356996D01*
X95628602Y-93379260D01*
X95623111Y-93379500D01*
X94875798Y-93379500D01*
X94831250Y-93361048D01*
X94826977Y-93356318D01*
X94730960Y-93238590D01*
X94729011Y-93236200D01*
X94714126Y-93223886D01*
X94572647Y-93106844D01*
X94572645Y-93106843D01*
X94570275Y-93104882D01*
X94389055Y-93006897D01*
X94386120Y-93005989D01*
X94386119Y-93005988D01*
X94195197Y-92946888D01*
X94192254Y-92945977D01*
X94114147Y-92937768D01*
X93990427Y-92924764D01*
X93990423Y-92924764D01*
X93987369Y-92924443D01*
X93849082Y-92937028D01*
X93785267Y-92942835D01*
X93785265Y-92942835D01*
X93782203Y-92943114D01*
X93584572Y-93001280D01*
X93497868Y-93046608D01*
X93404727Y-93095301D01*
X93404724Y-93095303D01*
X93402002Y-93096726D01*
X93241447Y-93225815D01*
X93239470Y-93228171D01*
X93131372Y-93356996D01*
X93088602Y-93379260D01*
X93083111Y-93379500D01*
X92335798Y-93379500D01*
X92291250Y-93361048D01*
X92286977Y-93356318D01*
X92190960Y-93238590D01*
X92189011Y-93236200D01*
X92174126Y-93223886D01*
X92032647Y-93106844D01*
X92032645Y-93106843D01*
X92030275Y-93104882D01*
X91849055Y-93006897D01*
X91846120Y-93005989D01*
X91846119Y-93005988D01*
X91655197Y-92946888D01*
X91652254Y-92945977D01*
X91574147Y-92937768D01*
X91450427Y-92924764D01*
X91450423Y-92924764D01*
X91447369Y-92924443D01*
X91309082Y-92937028D01*
X91245267Y-92942835D01*
X91245265Y-92942835D01*
X91242203Y-92943114D01*
X91044572Y-93001280D01*
X90957868Y-93046608D01*
X90864727Y-93095301D01*
X90864724Y-93095303D01*
X90862002Y-93096726D01*
X90701447Y-93225815D01*
X90699470Y-93228171D01*
X90591372Y-93356996D01*
X90548602Y-93379260D01*
X90543111Y-93379500D01*
X89795798Y-93379500D01*
X89751250Y-93361048D01*
X89746977Y-93356318D01*
X89650960Y-93238590D01*
X89649011Y-93236200D01*
X89634126Y-93223886D01*
X89492647Y-93106844D01*
X89492645Y-93106843D01*
X89490275Y-93104882D01*
X89309055Y-93006897D01*
X89306120Y-93005989D01*
X89306119Y-93005988D01*
X89115197Y-92946888D01*
X89112254Y-92945977D01*
X89034147Y-92937768D01*
X88910427Y-92924764D01*
X88910423Y-92924764D01*
X88907369Y-92924443D01*
X88769082Y-92937028D01*
X88705267Y-92942835D01*
X88705265Y-92942835D01*
X88702203Y-92943114D01*
X88504572Y-93001280D01*
X88417868Y-93046608D01*
X88324727Y-93095301D01*
X88324724Y-93095303D01*
X88322002Y-93096726D01*
X88161447Y-93225815D01*
X88159470Y-93228171D01*
X88051372Y-93356996D01*
X88008602Y-93379260D01*
X88003111Y-93379500D01*
X87255798Y-93379500D01*
X87211250Y-93361048D01*
X87206977Y-93356318D01*
X87110960Y-93238590D01*
X87109011Y-93236200D01*
X87094126Y-93223886D01*
X86952647Y-93106844D01*
X86952645Y-93106843D01*
X86950275Y-93104882D01*
X86769055Y-93006897D01*
X86766120Y-93005989D01*
X86766119Y-93005988D01*
X86575197Y-92946888D01*
X86572254Y-92945977D01*
X86494147Y-92937768D01*
X86370427Y-92924764D01*
X86370423Y-92924764D01*
X86367369Y-92924443D01*
X86229082Y-92937028D01*
X86165267Y-92942835D01*
X86165265Y-92942835D01*
X86162203Y-92943114D01*
X85964572Y-93001280D01*
X85877868Y-93046608D01*
X85784727Y-93095301D01*
X85784724Y-93095303D01*
X85782002Y-93096726D01*
X85621447Y-93225815D01*
X85619470Y-93228171D01*
X85511372Y-93356996D01*
X85468602Y-93379260D01*
X85463111Y-93379500D01*
X85254831Y-93379500D01*
X85210283Y-93361048D01*
X84618952Y-92769717D01*
X84600500Y-92725169D01*
X84600500Y-91274831D01*
X84618952Y-91230283D01*
X88118866Y-87730369D01*
X88125062Y-87724936D01*
X88150003Y-87705798D01*
X88153282Y-87703282D01*
X88230060Y-87603223D01*
X88247022Y-87581118D01*
X88247024Y-87581115D01*
X88249536Y-87577841D01*
X88297000Y-87463253D01*
X88308463Y-87435580D01*
X88308464Y-87435577D01*
X88310044Y-87431762D01*
X88330683Y-87275000D01*
X88326039Y-87239727D01*
X88325500Y-87231503D01*
X88325500Y-86665409D01*
X88332365Y-86636811D01*
X88359719Y-86583126D01*
X88373892Y-86493643D01*
X88571000Y-86493643D01*
X88571183Y-86497031D01*
X88576936Y-86549989D01*
X88578751Y-86557618D01*
X88623950Y-86678188D01*
X88628218Y-86685985D01*
X88705121Y-86788595D01*
X88711405Y-86794879D01*
X88814015Y-86871782D01*
X88821812Y-86876050D01*
X88942382Y-86921249D01*
X88950011Y-86923064D01*
X89002969Y-86928817D01*
X89006357Y-86929000D01*
X89008467Y-86929000D01*
X89017329Y-86925329D01*
X89021000Y-86916467D01*
X89021000Y-86466533D01*
X89017329Y-86457671D01*
X89008467Y-86454000D01*
X88583533Y-86454000D01*
X88574671Y-86457671D01*
X88571000Y-86466533D01*
X88571000Y-86493643D01*
X88373892Y-86493643D01*
X88375500Y-86483488D01*
X88375500Y-85916512D01*
X88359719Y-85816874D01*
X88332365Y-85763189D01*
X88325500Y-85734591D01*
X88325500Y-85165409D01*
X88332365Y-85136811D01*
X88359719Y-85083126D01*
X88375500Y-84983488D01*
X88375500Y-84833784D01*
X88393952Y-84789236D01*
X88463452Y-84719736D01*
X88508000Y-84701284D01*
X88552548Y-84719736D01*
X88571000Y-84764284D01*
X88571000Y-84993643D01*
X88571183Y-84997031D01*
X88576936Y-85049989D01*
X88578751Y-85057618D01*
X88623950Y-85178188D01*
X88628218Y-85185985D01*
X88705121Y-85288595D01*
X88711405Y-85294879D01*
X88814015Y-85371782D01*
X88821812Y-85376050D01*
X88861715Y-85391009D01*
X88896951Y-85423924D01*
X88898592Y-85472114D01*
X88861715Y-85508991D01*
X88821812Y-85523950D01*
X88814015Y-85528218D01*
X88711405Y-85605121D01*
X88705121Y-85611405D01*
X88628218Y-85714015D01*
X88623950Y-85721812D01*
X88578751Y-85842382D01*
X88576936Y-85850011D01*
X88571183Y-85902969D01*
X88571000Y-85906357D01*
X88571000Y-85933467D01*
X88574671Y-85942329D01*
X88583533Y-85946000D01*
X89008467Y-85946000D01*
X89017329Y-85942329D01*
X89021000Y-85933467D01*
X89021000Y-85483531D01*
X89017097Y-85474108D01*
X89017097Y-85425892D01*
X89021000Y-85416469D01*
X89021000Y-84509000D01*
X89039452Y-84464452D01*
X89084000Y-84446000D01*
X89466000Y-84446000D01*
X89510548Y-84464452D01*
X89529000Y-84509000D01*
X89529000Y-85416469D01*
X89532903Y-85425892D01*
X89532903Y-85474108D01*
X89529000Y-85483531D01*
X89529000Y-86916467D01*
X89532671Y-86925329D01*
X89541533Y-86929000D01*
X89543643Y-86929000D01*
X89547031Y-86928817D01*
X89599989Y-86923064D01*
X89607618Y-86921249D01*
X89728188Y-86876050D01*
X89735985Y-86871782D01*
X89775637Y-86842064D01*
X89822351Y-86830113D01*
X89863833Y-86854694D01*
X89876420Y-86892477D01*
X89876420Y-87437157D01*
X89857968Y-87481705D01*
X86869581Y-90470092D01*
X86825033Y-90488544D01*
X86795070Y-90480962D01*
X86771767Y-90468362D01*
X86771756Y-90468357D01*
X86769055Y-90466897D01*
X86766120Y-90465989D01*
X86766119Y-90465988D01*
X86575197Y-90406888D01*
X86572254Y-90405977D01*
X86494147Y-90397768D01*
X86370427Y-90384764D01*
X86370423Y-90384764D01*
X86367369Y-90384443D01*
X86229082Y-90397028D01*
X86165267Y-90402835D01*
X86165265Y-90402835D01*
X86162203Y-90403114D01*
X85964572Y-90461280D01*
X85883821Y-90503496D01*
X85784727Y-90555301D01*
X85784724Y-90555303D01*
X85782002Y-90556726D01*
X85738620Y-90591606D01*
X85669786Y-90646950D01*
X85621447Y-90685815D01*
X85619470Y-90688171D01*
X85492557Y-90839420D01*
X85489024Y-90843630D01*
X85487539Y-90846331D01*
X85487537Y-90846334D01*
X85417040Y-90974569D01*
X85389776Y-91024162D01*
X85327484Y-91220532D01*
X85304520Y-91425262D01*
X85321759Y-91630553D01*
X85378544Y-91828586D01*
X85472712Y-92011818D01*
X85474624Y-92014230D01*
X85474627Y-92014235D01*
X85557232Y-92118456D01*
X85600677Y-92173270D01*
X85603021Y-92175265D01*
X85603022Y-92175266D01*
X85641113Y-92207684D01*
X85757564Y-92306791D01*
X85803828Y-92332647D01*
X85934708Y-92405794D01*
X85934711Y-92405795D01*
X85937398Y-92407297D01*
X86038744Y-92440226D01*
X86130398Y-92470007D01*
X86130401Y-92470008D01*
X86133329Y-92470959D01*
X86136390Y-92471324D01*
X86334837Y-92494987D01*
X86334842Y-92494987D01*
X86337894Y-92495351D01*
X86340962Y-92495115D01*
X86340966Y-92495115D01*
X86540225Y-92479783D01*
X86540229Y-92479782D01*
X86543300Y-92479546D01*
X86546268Y-92478717D01*
X86546270Y-92478717D01*
X86642513Y-92451845D01*
X86741725Y-92424145D01*
X86925610Y-92331258D01*
X86955002Y-92308295D01*
X87006780Y-92267841D01*
X87087951Y-92204424D01*
X87222564Y-92048472D01*
X87324323Y-91869344D01*
X87325296Y-91866420D01*
X87388380Y-91676783D01*
X87388381Y-91676780D01*
X87389351Y-91673863D01*
X87404488Y-91554038D01*
X87414951Y-91471218D01*
X87414951Y-91471212D01*
X87415171Y-91469474D01*
X87415583Y-91440000D01*
X87410155Y-91384640D01*
X87395781Y-91238036D01*
X87395780Y-91238032D01*
X87395480Y-91234970D01*
X87335935Y-91037749D01*
X87318470Y-91004901D01*
X87313849Y-90956906D01*
X87329548Y-90930778D01*
X90316952Y-87943375D01*
X90361500Y-87924923D01*
X90406048Y-87943375D01*
X90424500Y-87987923D01*
X90424500Y-89429078D01*
X90406048Y-89473626D01*
X89409581Y-90470093D01*
X89365033Y-90488545D01*
X89335072Y-90480964D01*
X89309055Y-90466897D01*
X89306120Y-90465989D01*
X89306119Y-90465988D01*
X89115197Y-90406888D01*
X89112254Y-90405977D01*
X89034147Y-90397768D01*
X88910427Y-90384764D01*
X88910423Y-90384764D01*
X88907369Y-90384443D01*
X88769082Y-90397028D01*
X88705267Y-90402835D01*
X88705265Y-90402835D01*
X88702203Y-90403114D01*
X88504572Y-90461280D01*
X88423821Y-90503496D01*
X88324727Y-90555301D01*
X88324724Y-90555303D01*
X88322002Y-90556726D01*
X88278620Y-90591606D01*
X88209786Y-90646950D01*
X88161447Y-90685815D01*
X88159470Y-90688171D01*
X88032557Y-90839420D01*
X88029024Y-90843630D01*
X88027539Y-90846331D01*
X88027537Y-90846334D01*
X87957040Y-90974569D01*
X87929776Y-91024162D01*
X87867484Y-91220532D01*
X87844520Y-91425262D01*
X87861759Y-91630553D01*
X87918544Y-91828586D01*
X88012712Y-92011818D01*
X88014624Y-92014230D01*
X88014627Y-92014235D01*
X88097232Y-92118456D01*
X88140677Y-92173270D01*
X88143021Y-92175265D01*
X88143022Y-92175266D01*
X88181113Y-92207684D01*
X88297564Y-92306791D01*
X88343828Y-92332647D01*
X88474708Y-92405794D01*
X88474711Y-92405795D01*
X88477398Y-92407297D01*
X88578744Y-92440226D01*
X88670398Y-92470007D01*
X88670401Y-92470008D01*
X88673329Y-92470959D01*
X88676390Y-92471324D01*
X88874837Y-92494987D01*
X88874842Y-92494987D01*
X88877894Y-92495351D01*
X88880962Y-92495115D01*
X88880966Y-92495115D01*
X89080225Y-92479783D01*
X89080229Y-92479782D01*
X89083300Y-92479546D01*
X89086268Y-92478717D01*
X89086270Y-92478717D01*
X89182513Y-92451845D01*
X89281725Y-92424145D01*
X89465610Y-92331258D01*
X89495002Y-92308295D01*
X89546780Y-92267841D01*
X89627951Y-92204424D01*
X89762564Y-92048472D01*
X89864323Y-91869344D01*
X89865296Y-91866420D01*
X89928380Y-91676783D01*
X89928381Y-91676780D01*
X89929351Y-91673863D01*
X89944488Y-91554038D01*
X89954951Y-91471218D01*
X89954951Y-91471212D01*
X89955171Y-91469474D01*
X89955583Y-91440000D01*
X89950155Y-91384640D01*
X89935781Y-91238036D01*
X89935780Y-91238032D01*
X89935480Y-91234970D01*
X89875935Y-91037749D01*
X89858470Y-91004901D01*
X89853849Y-90956906D01*
X89869548Y-90930778D01*
X90968167Y-89832159D01*
X90972219Y-89828446D01*
X90998971Y-89805999D01*
X90998972Y-89805997D01*
X91003194Y-89802455D01*
X91004448Y-89800283D01*
X91046008Y-89778648D01*
X91091995Y-89793146D01*
X91114260Y-89835916D01*
X91114500Y-89841408D01*
X91114500Y-90393569D01*
X91096048Y-90438117D01*
X91069287Y-90454006D01*
X91047524Y-90460411D01*
X91047522Y-90460412D01*
X91044572Y-90461280D01*
X90963821Y-90503496D01*
X90864727Y-90555301D01*
X90864724Y-90555303D01*
X90862002Y-90556726D01*
X90818620Y-90591606D01*
X90749786Y-90646950D01*
X90701447Y-90685815D01*
X90699470Y-90688171D01*
X90572557Y-90839420D01*
X90569024Y-90843630D01*
X90567539Y-90846331D01*
X90567537Y-90846334D01*
X90497040Y-90974569D01*
X90469776Y-91024162D01*
X90407484Y-91220532D01*
X90384520Y-91425262D01*
X90401759Y-91630553D01*
X90458544Y-91828586D01*
X90552712Y-92011818D01*
X90554624Y-92014230D01*
X90554627Y-92014235D01*
X90637232Y-92118456D01*
X90680677Y-92173270D01*
X90683021Y-92175265D01*
X90683022Y-92175266D01*
X90721113Y-92207684D01*
X90837564Y-92306791D01*
X90883828Y-92332647D01*
X91014708Y-92405794D01*
X91014711Y-92405795D01*
X91017398Y-92407297D01*
X91118744Y-92440226D01*
X91210398Y-92470007D01*
X91210401Y-92470008D01*
X91213329Y-92470959D01*
X91216390Y-92471324D01*
X91414837Y-92494987D01*
X91414842Y-92494987D01*
X91417894Y-92495351D01*
X91420962Y-92495115D01*
X91420966Y-92495115D01*
X91620225Y-92479783D01*
X91620229Y-92479782D01*
X91623300Y-92479546D01*
X91626268Y-92478717D01*
X91626270Y-92478717D01*
X91722513Y-92451845D01*
X91821725Y-92424145D01*
X92005610Y-92331258D01*
X92035002Y-92308295D01*
X92086780Y-92267841D01*
X92167951Y-92204424D01*
X92302564Y-92048472D01*
X92404323Y-91869344D01*
X92405296Y-91866420D01*
X92468380Y-91676783D01*
X92468381Y-91676780D01*
X92469351Y-91673863D01*
X92484488Y-91554038D01*
X92494951Y-91471218D01*
X92494951Y-91471212D01*
X92495171Y-91469474D01*
X92495583Y-91440000D01*
X92490155Y-91384640D01*
X92475781Y-91238036D01*
X92475780Y-91238032D01*
X92475480Y-91234970D01*
X92415935Y-91037749D01*
X92319218Y-90855849D01*
X92312273Y-90847333D01*
X92222008Y-90736658D01*
X92189011Y-90696200D01*
X92186636Y-90694235D01*
X92032647Y-90566844D01*
X92032645Y-90566843D01*
X92030275Y-90564882D01*
X91849055Y-90466897D01*
X91828103Y-90460411D01*
X91809870Y-90454767D01*
X91772771Y-90423967D01*
X91765500Y-90394585D01*
X91765500Y-89837922D01*
X91783952Y-89793374D01*
X91828500Y-89774922D01*
X91873048Y-89793374D01*
X93009695Y-90930021D01*
X93028147Y-90974569D01*
X93020354Y-91004920D01*
X93009776Y-91024162D01*
X92947484Y-91220532D01*
X92924520Y-91425262D01*
X92941759Y-91630553D01*
X92998544Y-91828586D01*
X93092712Y-92011818D01*
X93094624Y-92014230D01*
X93094627Y-92014235D01*
X93177232Y-92118456D01*
X93220677Y-92173270D01*
X93223021Y-92175265D01*
X93223022Y-92175266D01*
X93261113Y-92207684D01*
X93377564Y-92306791D01*
X93423828Y-92332647D01*
X93554708Y-92405794D01*
X93554711Y-92405795D01*
X93557398Y-92407297D01*
X93658744Y-92440226D01*
X93750398Y-92470007D01*
X93750401Y-92470008D01*
X93753329Y-92470959D01*
X93756390Y-92471324D01*
X93954837Y-92494987D01*
X93954842Y-92494987D01*
X93957894Y-92495351D01*
X93960962Y-92495115D01*
X93960966Y-92495115D01*
X94160225Y-92479783D01*
X94160229Y-92479782D01*
X94163300Y-92479546D01*
X94166268Y-92478717D01*
X94166270Y-92478717D01*
X94262513Y-92451845D01*
X94361725Y-92424145D01*
X94545610Y-92331258D01*
X94575002Y-92308295D01*
X94626780Y-92267841D01*
X94707951Y-92204424D01*
X94842564Y-92048472D01*
X94944323Y-91869344D01*
X94945296Y-91866420D01*
X95008380Y-91676783D01*
X95008381Y-91676780D01*
X95009351Y-91673863D01*
X95024488Y-91554038D01*
X95034951Y-91471218D01*
X95034951Y-91471212D01*
X95035171Y-91469474D01*
X95035583Y-91440000D01*
X95030155Y-91384640D01*
X95015781Y-91238036D01*
X95015780Y-91238032D01*
X95015480Y-91234970D01*
X94955935Y-91037749D01*
X94859218Y-90855849D01*
X94852273Y-90847333D01*
X94762008Y-90736658D01*
X94729011Y-90696200D01*
X94726636Y-90694235D01*
X94572647Y-90566844D01*
X94572645Y-90566843D01*
X94570275Y-90564882D01*
X94429092Y-90488545D01*
X94391761Y-90468360D01*
X94391760Y-90468360D01*
X94389055Y-90466897D01*
X94386120Y-90465989D01*
X94386119Y-90465988D01*
X94195197Y-90406888D01*
X94192254Y-90405977D01*
X94114147Y-90397768D01*
X93990427Y-90384764D01*
X93990423Y-90384764D01*
X93987369Y-90384443D01*
X93849082Y-90397028D01*
X93785267Y-90402835D01*
X93785265Y-90402835D01*
X93782203Y-90403114D01*
X93584572Y-90461280D01*
X93571030Y-90468360D01*
X93544834Y-90482055D01*
X93496807Y-90486341D01*
X93471098Y-90470772D01*
X92360916Y-89360590D01*
X92342464Y-89316042D01*
X92342464Y-86562266D01*
X92360916Y-86517718D01*
X92405464Y-86499266D01*
X92434066Y-86506133D01*
X92494181Y-86536763D01*
X92503504Y-86539793D01*
X92590752Y-86553611D01*
X92595686Y-86554000D01*
X93083467Y-86554000D01*
X93092329Y-86550329D01*
X93096000Y-86541467D01*
X93096000Y-86541466D01*
X93604000Y-86541466D01*
X93607671Y-86550328D01*
X93616533Y-86553999D01*
X94104313Y-86553999D01*
X94109247Y-86553610D01*
X94196497Y-86539792D01*
X94205822Y-86536762D01*
X94311005Y-86483169D01*
X94318931Y-86477411D01*
X94402411Y-86393931D01*
X94408169Y-86386005D01*
X94461764Y-86280818D01*
X94464792Y-86271501D01*
X94465603Y-86266378D01*
X94463364Y-86257050D01*
X94458387Y-86254000D01*
X93616533Y-86254000D01*
X93607671Y-86257671D01*
X93604000Y-86266533D01*
X93604000Y-86541466D01*
X93096000Y-86541466D01*
X93096000Y-85733467D01*
X93604000Y-85733467D01*
X93607671Y-85742329D01*
X93616533Y-85746000D01*
X94455030Y-85746000D01*
X94463892Y-85742329D01*
X94466127Y-85736934D01*
X94464791Y-85728498D01*
X94461764Y-85719181D01*
X94408169Y-85613995D01*
X94402411Y-85606069D01*
X94318931Y-85522589D01*
X94311005Y-85516831D01*
X94205822Y-85463238D01*
X94196496Y-85460207D01*
X94109248Y-85446389D01*
X94104314Y-85446000D01*
X93616533Y-85446000D01*
X93607671Y-85449671D01*
X93604000Y-85458533D01*
X93604000Y-85733467D01*
X93096000Y-85733467D01*
X93096000Y-85458534D01*
X93092329Y-85449672D01*
X93083467Y-85446001D01*
X92595687Y-85446001D01*
X92590753Y-85446390D01*
X92503503Y-85460208D01*
X92494181Y-85463237D01*
X92434066Y-85493867D01*
X92385996Y-85497651D01*
X92349331Y-85466336D01*
X92342464Y-85437734D01*
X92342464Y-85232971D01*
X92360916Y-85188423D01*
X92405464Y-85169971D01*
X92433129Y-85176371D01*
X92457786Y-85188423D01*
X92519089Y-85218389D01*
X92519091Y-85218390D01*
X92523482Y-85220536D01*
X92528321Y-85221242D01*
X92589519Y-85230170D01*
X92589521Y-85230170D01*
X92591782Y-85230500D01*
X94108218Y-85230500D01*
X94110497Y-85230165D01*
X94110504Y-85230164D01*
X94146055Y-85224930D01*
X94177112Y-85220358D01*
X94263003Y-85178188D01*
X94277181Y-85171227D01*
X94277182Y-85171226D01*
X94281855Y-85168932D01*
X94300470Y-85150285D01*
X94360616Y-85090033D01*
X94364293Y-85086350D01*
X94366484Y-85081868D01*
X94407295Y-85056364D01*
X94417695Y-85055500D01*
X94819078Y-85055500D01*
X94863626Y-85073952D01*
X96176048Y-86386374D01*
X96194500Y-86430922D01*
X96194500Y-90393569D01*
X96176048Y-90438117D01*
X96149287Y-90454006D01*
X96127524Y-90460411D01*
X96127522Y-90460412D01*
X96124572Y-90461280D01*
X96043821Y-90503496D01*
X95944727Y-90555301D01*
X95944724Y-90555303D01*
X95942002Y-90556726D01*
X95898620Y-90591606D01*
X95829786Y-90646950D01*
X95781447Y-90685815D01*
X95779470Y-90688171D01*
X95652557Y-90839420D01*
X95649024Y-90843630D01*
X95647539Y-90846331D01*
X95647537Y-90846334D01*
X95577040Y-90974569D01*
X95549776Y-91024162D01*
X95487484Y-91220532D01*
X95464520Y-91425262D01*
X95481759Y-91630553D01*
X95538544Y-91828586D01*
X95632712Y-92011818D01*
X95634624Y-92014230D01*
X95634627Y-92014235D01*
X95717232Y-92118456D01*
X95760677Y-92173270D01*
X95763021Y-92175265D01*
X95763022Y-92175266D01*
X95801113Y-92207684D01*
X95917564Y-92306791D01*
X95963828Y-92332647D01*
X96094708Y-92405794D01*
X96094711Y-92405795D01*
X96097398Y-92407297D01*
X96198744Y-92440226D01*
X96290398Y-92470007D01*
X96290401Y-92470008D01*
X96293329Y-92470959D01*
X96296390Y-92471324D01*
X96494837Y-92494987D01*
X96494842Y-92494987D01*
X96497894Y-92495351D01*
X96500962Y-92495115D01*
X96500966Y-92495115D01*
X96700225Y-92479783D01*
X96700229Y-92479782D01*
X96703300Y-92479546D01*
X96706268Y-92478717D01*
X96706270Y-92478717D01*
X96802513Y-92451845D01*
X96901725Y-92424145D01*
X97085610Y-92331258D01*
X97115002Y-92308295D01*
X97166780Y-92267841D01*
X97247951Y-92204424D01*
X97382564Y-92048472D01*
X97484323Y-91869344D01*
X97485296Y-91866420D01*
X97548380Y-91676783D01*
X97548381Y-91676780D01*
X97549351Y-91673863D01*
X97564488Y-91554038D01*
X97574951Y-91471218D01*
X97574951Y-91471212D01*
X97575171Y-91469474D01*
X97575583Y-91440000D01*
X97570155Y-91384640D01*
X97555781Y-91238036D01*
X97555780Y-91238032D01*
X97555480Y-91234970D01*
X97495935Y-91037749D01*
X97399218Y-90855849D01*
X97392273Y-90847333D01*
X97302008Y-90736658D01*
X97269011Y-90696200D01*
X97266636Y-90694235D01*
X97112647Y-90566844D01*
X97112645Y-90566843D01*
X97110275Y-90564882D01*
X96929055Y-90466897D01*
X96908103Y-90460411D01*
X96889870Y-90454767D01*
X96852771Y-90423967D01*
X96845500Y-90394585D01*
X96845500Y-86286962D01*
X96845740Y-86281471D01*
X96848784Y-86246684D01*
X96848784Y-86246679D01*
X96849264Y-86241193D01*
X96838797Y-86202132D01*
X96837607Y-86196764D01*
X96835219Y-86183218D01*
X97424500Y-86183218D01*
X97424835Y-86185497D01*
X97424836Y-86185504D01*
X97426494Y-86196764D01*
X97434642Y-86252112D01*
X97486068Y-86356855D01*
X97489751Y-86360532D01*
X97489752Y-86360533D01*
X97523209Y-86393931D01*
X97568650Y-86439293D01*
X97573330Y-86441580D01*
X97573329Y-86441580D01*
X97669089Y-86488389D01*
X97669091Y-86488390D01*
X97673482Y-86490536D01*
X97678321Y-86491242D01*
X97739519Y-86500170D01*
X97739521Y-86500170D01*
X97741782Y-86500500D01*
X98111500Y-86500500D01*
X98156048Y-86518952D01*
X98174500Y-86563500D01*
X98174500Y-89483038D01*
X98174260Y-89488529D01*
X98173228Y-89500329D01*
X98170736Y-89528807D01*
X98172162Y-89534128D01*
X98172162Y-89534130D01*
X98181203Y-89567868D01*
X98182393Y-89573236D01*
X98189412Y-89613045D01*
X98192167Y-89617816D01*
X98192167Y-89617817D01*
X98192536Y-89618456D01*
X98198829Y-89633648D01*
X98200446Y-89639684D01*
X98203607Y-89644198D01*
X98223635Y-89672801D01*
X98226587Y-89677434D01*
X98246806Y-89712455D01*
X98251027Y-89715997D01*
X98277783Y-89738448D01*
X98281835Y-89742161D01*
X98716048Y-90176374D01*
X98734500Y-90220922D01*
X98734500Y-90393569D01*
X98716048Y-90438117D01*
X98689287Y-90454006D01*
X98667524Y-90460411D01*
X98667522Y-90460412D01*
X98664572Y-90461280D01*
X98583821Y-90503496D01*
X98484727Y-90555301D01*
X98484724Y-90555303D01*
X98482002Y-90556726D01*
X98438620Y-90591606D01*
X98369786Y-90646950D01*
X98321447Y-90685815D01*
X98319470Y-90688171D01*
X98192557Y-90839420D01*
X98189024Y-90843630D01*
X98187539Y-90846331D01*
X98187537Y-90846334D01*
X98117040Y-90974569D01*
X98089776Y-91024162D01*
X98027484Y-91220532D01*
X98004520Y-91425262D01*
X98021759Y-91630553D01*
X98078544Y-91828586D01*
X98172712Y-92011818D01*
X98174624Y-92014230D01*
X98174627Y-92014235D01*
X98257232Y-92118456D01*
X98300677Y-92173270D01*
X98303021Y-92175265D01*
X98303022Y-92175266D01*
X98341113Y-92207684D01*
X98457564Y-92306791D01*
X98503828Y-92332647D01*
X98634708Y-92405794D01*
X98634711Y-92405795D01*
X98637398Y-92407297D01*
X98738744Y-92440226D01*
X98830398Y-92470007D01*
X98830401Y-92470008D01*
X98833329Y-92470959D01*
X98836390Y-92471324D01*
X99034837Y-92494987D01*
X99034842Y-92494987D01*
X99037894Y-92495351D01*
X99040962Y-92495115D01*
X99040966Y-92495115D01*
X99240225Y-92479783D01*
X99240229Y-92479782D01*
X99243300Y-92479546D01*
X99246268Y-92478717D01*
X99246270Y-92478717D01*
X99342513Y-92451845D01*
X99441725Y-92424145D01*
X99625610Y-92331258D01*
X99655002Y-92308295D01*
X99706780Y-92267841D01*
X99787951Y-92204424D01*
X99922564Y-92048472D01*
X100024323Y-91869344D01*
X100025296Y-91866420D01*
X100088380Y-91676783D01*
X100088381Y-91676780D01*
X100089351Y-91673863D01*
X100104488Y-91554038D01*
X100114951Y-91471218D01*
X100114951Y-91471212D01*
X100115171Y-91469474D01*
X100115583Y-91440000D01*
X100110155Y-91384640D01*
X100095781Y-91238036D01*
X100095780Y-91238032D01*
X100095480Y-91234970D01*
X100035935Y-91037749D01*
X99939218Y-90855849D01*
X99932273Y-90847333D01*
X99842008Y-90736658D01*
X99809011Y-90696200D01*
X99806636Y-90694235D01*
X99652647Y-90566844D01*
X99652645Y-90566843D01*
X99650275Y-90564882D01*
X99469055Y-90466897D01*
X99448103Y-90460411D01*
X99429870Y-90454767D01*
X99392771Y-90423967D01*
X99385500Y-90394585D01*
X99385500Y-90076962D01*
X99385740Y-90071471D01*
X99388784Y-90036684D01*
X99388784Y-90036682D01*
X99389264Y-90031193D01*
X99385421Y-90016849D01*
X99378797Y-89992132D01*
X99377607Y-89986764D01*
X99371545Y-89952382D01*
X99371545Y-89952381D01*
X99370588Y-89946955D01*
X99367464Y-89941544D01*
X99361171Y-89926351D01*
X99360980Y-89925638D01*
X99359554Y-89920316D01*
X99336365Y-89887199D01*
X99333411Y-89882563D01*
X99315948Y-89852316D01*
X99313194Y-89847545D01*
X99282217Y-89821552D01*
X99278165Y-89817839D01*
X98843952Y-89383626D01*
X98825500Y-89339078D01*
X98825500Y-89068643D01*
X99771000Y-89068643D01*
X99771183Y-89072031D01*
X99776936Y-89124989D01*
X99778751Y-89132618D01*
X99823950Y-89253188D01*
X99828218Y-89260985D01*
X99905121Y-89363595D01*
X99911405Y-89369879D01*
X100014015Y-89446782D01*
X100021812Y-89451050D01*
X100142382Y-89496249D01*
X100150011Y-89498064D01*
X100202969Y-89503817D01*
X100206357Y-89504000D01*
X100233467Y-89504000D01*
X100242329Y-89500329D01*
X100246000Y-89491467D01*
X100754000Y-89491467D01*
X100757671Y-89500329D01*
X100766533Y-89504000D01*
X100793643Y-89504000D01*
X100797031Y-89503817D01*
X100849989Y-89498064D01*
X100857618Y-89496249D01*
X100978188Y-89451050D01*
X100985985Y-89446782D01*
X101088595Y-89369879D01*
X101094879Y-89363595D01*
X101171782Y-89260985D01*
X101176050Y-89253188D01*
X101221249Y-89132618D01*
X101223064Y-89124989D01*
X101228817Y-89072031D01*
X101229000Y-89068643D01*
X101229000Y-89066533D01*
X101225329Y-89057671D01*
X101216467Y-89054000D01*
X100766533Y-89054000D01*
X100757671Y-89057671D01*
X100754000Y-89066533D01*
X100754000Y-89491467D01*
X100246000Y-89491467D01*
X100246000Y-89066533D01*
X100242329Y-89057671D01*
X100233467Y-89054000D01*
X99783533Y-89054000D01*
X99774671Y-89057671D01*
X99771000Y-89066533D01*
X99771000Y-89068643D01*
X98825500Y-89068643D01*
X98825500Y-88533467D01*
X99771000Y-88533467D01*
X99774671Y-88542329D01*
X99783533Y-88546000D01*
X100233467Y-88546000D01*
X100242329Y-88542329D01*
X100246000Y-88533467D01*
X100754000Y-88533467D01*
X100757671Y-88542329D01*
X100766533Y-88546000D01*
X101216467Y-88546000D01*
X101225329Y-88542329D01*
X101229000Y-88533467D01*
X101229000Y-88531357D01*
X101228817Y-88527969D01*
X101223064Y-88475011D01*
X101221249Y-88467382D01*
X101176050Y-88346812D01*
X101171782Y-88339015D01*
X101094879Y-88236405D01*
X101088595Y-88230121D01*
X100985985Y-88153218D01*
X100978188Y-88148950D01*
X100857618Y-88103751D01*
X100849989Y-88101936D01*
X100797031Y-88096183D01*
X100793643Y-88096000D01*
X100766533Y-88096000D01*
X100757671Y-88099671D01*
X100754000Y-88108533D01*
X100754000Y-88533467D01*
X100246000Y-88533467D01*
X100246000Y-88108533D01*
X100242329Y-88099671D01*
X100233467Y-88096000D01*
X100206357Y-88096000D01*
X100202969Y-88096183D01*
X100150011Y-88101936D01*
X100142382Y-88103751D01*
X100021812Y-88148950D01*
X100014015Y-88153218D01*
X99911405Y-88230121D01*
X99905121Y-88236405D01*
X99828218Y-88339015D01*
X99823950Y-88346812D01*
X99778751Y-88467382D01*
X99776936Y-88475011D01*
X99771183Y-88527969D01*
X99771000Y-88531357D01*
X99771000Y-88533467D01*
X98825500Y-88533467D01*
X98825500Y-87508488D01*
X99824500Y-87508488D01*
X99840281Y-87608126D01*
X99901472Y-87728220D01*
X99996780Y-87823528D01*
X100116874Y-87884719D01*
X100216512Y-87900500D01*
X100783488Y-87900500D01*
X100883126Y-87884719D01*
X101003220Y-87823528D01*
X101098528Y-87728220D01*
X101159719Y-87608126D01*
X101175500Y-87508488D01*
X101175500Y-86991512D01*
X101159719Y-86891874D01*
X101098528Y-86771780D01*
X101085071Y-86758323D01*
X101066619Y-86713775D01*
X101071414Y-86689666D01*
X101072939Y-86685985D01*
X101085044Y-86656762D01*
X101105682Y-86500000D01*
X101085044Y-86343238D01*
X101060596Y-86284214D01*
X101026117Y-86200975D01*
X101026116Y-86200973D01*
X101024536Y-86197159D01*
X101022024Y-86193885D01*
X101022022Y-86193882D01*
X100930798Y-86074997D01*
X100928282Y-86071718D01*
X100875937Y-86031552D01*
X100806118Y-85977978D01*
X100806115Y-85977976D01*
X100802841Y-85975464D01*
X100799027Y-85973884D01*
X100799025Y-85973883D01*
X100660580Y-85916537D01*
X100660577Y-85916536D01*
X100656762Y-85914956D01*
X100500000Y-85894318D01*
X100343238Y-85914956D01*
X100339423Y-85916536D01*
X100339420Y-85916537D01*
X100200975Y-85973883D01*
X100200973Y-85973884D01*
X100197159Y-85975464D01*
X100193885Y-85977976D01*
X100193882Y-85977978D01*
X100124063Y-86031552D01*
X100071718Y-86071718D01*
X100069202Y-86074997D01*
X99977978Y-86193882D01*
X99977976Y-86193885D01*
X99975464Y-86197159D01*
X99973884Y-86200973D01*
X99973883Y-86200975D01*
X99939405Y-86284214D01*
X99914956Y-86343238D01*
X99894318Y-86500000D01*
X99914956Y-86656762D01*
X99927061Y-86685985D01*
X99928586Y-86689666D01*
X99928585Y-86737884D01*
X99914929Y-86758323D01*
X99901472Y-86771780D01*
X99840281Y-86891874D01*
X99824500Y-86991512D01*
X99824500Y-87508488D01*
X98825500Y-87508488D01*
X98825500Y-86563500D01*
X98843952Y-86518952D01*
X98888500Y-86500500D01*
X99258218Y-86500500D01*
X99260497Y-86500165D01*
X99260504Y-86500164D01*
X99296055Y-86494930D01*
X99327112Y-86490358D01*
X99431855Y-86438932D01*
X99514293Y-86356350D01*
X99558197Y-86266533D01*
X99563389Y-86255911D01*
X99563390Y-86255909D01*
X99565536Y-86251518D01*
X99575500Y-86183218D01*
X99575500Y-85816782D01*
X99575165Y-85814503D01*
X99575164Y-85814496D01*
X99567611Y-85763192D01*
X99565358Y-85747888D01*
X99513932Y-85643145D01*
X99431350Y-85560707D01*
X99364885Y-85528218D01*
X99330911Y-85511611D01*
X99330909Y-85511610D01*
X99326518Y-85509464D01*
X99321679Y-85508758D01*
X99260481Y-85499830D01*
X99260479Y-85499830D01*
X99258218Y-85499500D01*
X97741782Y-85499500D01*
X97739503Y-85499835D01*
X97739496Y-85499836D01*
X97703945Y-85505070D01*
X97672888Y-85509642D01*
X97568145Y-85561068D01*
X97485707Y-85643650D01*
X97483420Y-85648329D01*
X97436903Y-85743493D01*
X97434464Y-85748482D01*
X97424500Y-85816782D01*
X97424500Y-86183218D01*
X96835219Y-86183218D01*
X96831545Y-86162382D01*
X96831545Y-86162381D01*
X96830588Y-86156955D01*
X96827464Y-86151544D01*
X96821171Y-86136351D01*
X96820980Y-86135638D01*
X96819554Y-86130316D01*
X96810097Y-86116810D01*
X96796365Y-86097199D01*
X96793411Y-86092563D01*
X96773194Y-86057545D01*
X96742217Y-86031552D01*
X96738165Y-86027839D01*
X95227894Y-84517568D01*
X95209442Y-84473020D01*
X95227894Y-84428472D01*
X95272442Y-84410020D01*
X95317558Y-84410020D01*
X95323049Y-84410260D01*
X95357836Y-84413304D01*
X95357838Y-84413304D01*
X95363327Y-84413784D01*
X95368648Y-84412358D01*
X95368650Y-84412358D01*
X95402388Y-84403317D01*
X95407756Y-84402127D01*
X95442138Y-84396065D01*
X95442139Y-84396065D01*
X95447565Y-84395108D01*
X95452976Y-84391984D01*
X95468169Y-84385691D01*
X95468882Y-84385500D01*
X95474204Y-84384074D01*
X95489812Y-84373145D01*
X95507321Y-84360885D01*
X95511957Y-84357931D01*
X95546975Y-84337714D01*
X95572968Y-84306737D01*
X95576681Y-84302685D01*
X95803254Y-84076112D01*
X95847802Y-84057660D01*
X95892350Y-84076112D01*
X95910802Y-84120660D01*
X95910263Y-84128883D01*
X95900743Y-84201200D01*
X95894318Y-84250000D01*
X95914956Y-84406762D01*
X95916536Y-84410577D01*
X95916537Y-84410580D01*
X95970254Y-84540263D01*
X95975464Y-84552841D01*
X95977976Y-84556115D01*
X95977978Y-84556118D01*
X96013262Y-84602101D01*
X96071718Y-84678282D01*
X96074997Y-84680798D01*
X96193882Y-84772022D01*
X96193885Y-84772024D01*
X96197159Y-84774536D01*
X96200973Y-84776116D01*
X96200975Y-84776117D01*
X96339420Y-84833463D01*
X96339423Y-84833464D01*
X96343238Y-84835044D01*
X96500000Y-84855682D01*
X96597644Y-84842827D01*
X96644218Y-84855307D01*
X96650414Y-84860740D01*
X96737841Y-84948167D01*
X96741554Y-84952219D01*
X96767545Y-84983194D01*
X96785644Y-84993643D01*
X96802563Y-85003411D01*
X96807199Y-85006365D01*
X96826810Y-85020097D01*
X96840316Y-85029554D01*
X96845638Y-85030980D01*
X96846351Y-85031171D01*
X96861544Y-85037464D01*
X96866955Y-85040588D01*
X96884457Y-85043674D01*
X96906775Y-85047610D01*
X96912128Y-85048796D01*
X96951194Y-85059264D01*
X96956683Y-85058784D01*
X96956686Y-85058784D01*
X96991477Y-85055740D01*
X96996967Y-85055500D01*
X97432294Y-85055500D01*
X97476842Y-85073952D01*
X97483520Y-85081828D01*
X97483774Y-85082184D01*
X97486068Y-85086855D01*
X97568650Y-85169293D01*
X97573330Y-85171580D01*
X97573329Y-85171580D01*
X97669089Y-85218389D01*
X97669091Y-85218390D01*
X97673482Y-85220536D01*
X97678321Y-85221242D01*
X97739519Y-85230170D01*
X97739521Y-85230170D01*
X97741782Y-85230500D01*
X99258218Y-85230500D01*
X99260497Y-85230165D01*
X99260504Y-85230164D01*
X99296055Y-85224930D01*
X99327112Y-85220358D01*
X99413003Y-85178188D01*
X99427181Y-85171227D01*
X99427182Y-85171226D01*
X99431855Y-85168932D01*
X99450470Y-85150285D01*
X99510614Y-85090035D01*
X99514293Y-85086350D01*
X99541265Y-85031171D01*
X99563389Y-84985911D01*
X99563390Y-84985909D01*
X99565536Y-84981518D01*
X99569015Y-84957671D01*
X99575170Y-84915481D01*
X99575170Y-84915479D01*
X99575500Y-84913218D01*
X99575500Y-84546782D01*
X99575165Y-84544503D01*
X99575164Y-84544496D01*
X99566071Y-84482734D01*
X99565358Y-84477888D01*
X99532312Y-84410580D01*
X99516227Y-84377819D01*
X99516226Y-84377818D01*
X99513932Y-84373145D01*
X99498692Y-84357931D01*
X99435035Y-84294386D01*
X99431350Y-84290707D01*
X99398333Y-84274568D01*
X99330911Y-84241611D01*
X99330909Y-84241610D01*
X99326518Y-84239464D01*
X99321679Y-84238758D01*
X99303905Y-84236165D01*
X99262488Y-84211475D01*
X99250000Y-84173825D01*
X99250000Y-84016114D01*
X99268452Y-83971566D01*
X99303825Y-83953786D01*
X99327112Y-83950358D01*
X99431855Y-83898932D01*
X99514293Y-83816350D01*
X99554162Y-83734787D01*
X99563389Y-83715911D01*
X99563390Y-83715909D01*
X99565536Y-83711518D01*
X99575500Y-83643218D01*
X99575500Y-83276782D01*
X99575165Y-83274503D01*
X99575164Y-83274496D01*
X99566071Y-83212734D01*
X99565358Y-83207888D01*
X99536299Y-83148702D01*
X99516227Y-83107819D01*
X99516226Y-83107818D01*
X99513932Y-83103145D01*
X99506738Y-83095963D01*
X99455543Y-83044858D01*
X99431350Y-83020707D01*
X99374715Y-82993023D01*
X99330911Y-82971611D01*
X99330909Y-82971610D01*
X99326518Y-82969464D01*
X99321679Y-82968758D01*
X99303905Y-82966165D01*
X99262488Y-82941475D01*
X99250000Y-82903825D01*
X99250000Y-82746114D01*
X99268452Y-82701566D01*
X99303825Y-82683786D01*
X99327112Y-82680358D01*
X99376917Y-82655905D01*
X99427181Y-82631227D01*
X99427182Y-82631226D01*
X99431855Y-82628932D01*
X99514293Y-82546350D01*
X99516484Y-82541868D01*
X99557295Y-82516364D01*
X99567695Y-82515500D01*
X99793038Y-82515500D01*
X99798529Y-82515740D01*
X99833316Y-82518784D01*
X99833318Y-82518784D01*
X99838807Y-82519264D01*
X99844128Y-82517838D01*
X99844130Y-82517838D01*
X99877868Y-82508797D01*
X99883236Y-82507607D01*
X99917618Y-82501545D01*
X99917619Y-82501545D01*
X99923045Y-82500588D01*
X99928456Y-82497464D01*
X99943649Y-82491171D01*
X99944362Y-82490980D01*
X99949684Y-82489554D01*
X99963190Y-82480097D01*
X99982801Y-82466365D01*
X99987437Y-82463411D01*
X100022455Y-82443194D01*
X100048447Y-82412218D01*
X100052160Y-82408166D01*
X100718173Y-81742154D01*
X100722225Y-81738441D01*
X100748973Y-81715997D01*
X100748973Y-81715996D01*
X100753194Y-81712455D01*
X100773410Y-81677440D01*
X100776359Y-81672811D01*
X100796394Y-81644197D01*
X100799554Y-81639684D01*
X100800980Y-81634362D01*
X100803310Y-81629366D01*
X100806305Y-81630763D01*
X100828868Y-81601241D01*
X100850619Y-81593514D01*
X100900304Y-81585646D01*
X101013342Y-81528050D01*
X101103050Y-81438342D01*
X101160646Y-81325304D01*
X101175500Y-81231519D01*
X101175499Y-80768482D01*
X101160646Y-80674696D01*
X101152917Y-80659526D01*
X101105302Y-80566078D01*
X101103050Y-80561658D01*
X101013342Y-80471950D01*
X100928573Y-80428758D01*
X100904724Y-80416606D01*
X100904723Y-80416606D01*
X100900304Y-80414354D01*
X100806519Y-80399500D01*
X100804038Y-80399500D01*
X100500001Y-80399501D01*
X100193482Y-80399501D01*
X100099696Y-80414354D01*
X100095277Y-80416606D01*
X100095276Y-80416606D01*
X100071427Y-80428758D01*
X99986658Y-80471950D01*
X99896950Y-80561658D01*
X99894698Y-80566078D01*
X99847084Y-80659526D01*
X99839354Y-80674696D01*
X99824500Y-80768481D01*
X99824501Y-81231518D01*
X99839354Y-81325304D01*
X99896950Y-81438342D01*
X99954593Y-81495985D01*
X99973045Y-81540533D01*
X99954593Y-81585081D01*
X99693626Y-81846048D01*
X99649078Y-81864500D01*
X99567706Y-81864500D01*
X99523158Y-81846048D01*
X99516480Y-81838172D01*
X99516226Y-81837816D01*
X99513932Y-81833145D01*
X99431350Y-81750707D01*
X99360341Y-81715997D01*
X99330911Y-81701611D01*
X99330909Y-81701610D01*
X99326518Y-81699464D01*
X99321679Y-81698758D01*
X99303905Y-81696165D01*
X99262488Y-81671475D01*
X99250000Y-81633825D01*
X99250000Y-81476114D01*
X99268452Y-81431566D01*
X99303825Y-81413786D01*
X99327112Y-81410358D01*
X99431855Y-81358932D01*
X99514293Y-81276350D01*
X99544730Y-81214082D01*
X99563389Y-81175911D01*
X99563390Y-81175909D01*
X99565536Y-81171518D01*
X99575500Y-81103218D01*
X99575500Y-80736782D01*
X99575165Y-80734503D01*
X99575164Y-80734496D01*
X99567295Y-80681048D01*
X99565358Y-80667888D01*
X99513932Y-80563145D01*
X99508930Y-80558151D01*
X99435035Y-80484386D01*
X99431350Y-80480707D01*
X99394473Y-80462681D01*
X99330911Y-80431611D01*
X99330909Y-80431610D01*
X99326518Y-80429464D01*
X99321679Y-80428758D01*
X99303905Y-80426165D01*
X99262488Y-80401475D01*
X99250000Y-80363825D01*
X99250000Y-80206114D01*
X99268452Y-80161566D01*
X99303825Y-80143786D01*
X99327112Y-80140358D01*
X99431855Y-80088932D01*
X99445396Y-80075368D01*
X99510614Y-80010035D01*
X99514293Y-80006350D01*
X99536662Y-79960588D01*
X99563389Y-79905911D01*
X99563390Y-79905909D01*
X99565536Y-79901518D01*
X99575500Y-79833218D01*
X99575500Y-79614251D01*
X99771946Y-79614251D01*
X99773643Y-79632209D01*
X99775277Y-79639657D01*
X99817676Y-79760393D01*
X99822036Y-79768629D01*
X99897550Y-79870866D01*
X99904134Y-79877450D01*
X100006371Y-79952964D01*
X100014607Y-79957324D01*
X100135347Y-79999724D01*
X100142790Y-80001357D01*
X100169261Y-80003859D01*
X100172239Y-80004000D01*
X100233467Y-80004000D01*
X100242329Y-80000329D01*
X100246000Y-79991467D01*
X100246000Y-79991466D01*
X100754000Y-79991466D01*
X100757671Y-80000328D01*
X100766533Y-80003999D01*
X100827774Y-80003999D01*
X100830716Y-80003860D01*
X100857209Y-80001357D01*
X100864657Y-79999723D01*
X100985393Y-79957324D01*
X100993629Y-79952964D01*
X101095866Y-79877450D01*
X101102450Y-79870866D01*
X101177964Y-79768629D01*
X101182324Y-79760393D01*
X101224724Y-79639653D01*
X101226357Y-79632210D01*
X101228055Y-79614251D01*
X101225329Y-79607671D01*
X101216467Y-79604000D01*
X100766533Y-79604000D01*
X100757671Y-79607671D01*
X100754000Y-79616533D01*
X100754000Y-79991466D01*
X100246000Y-79991466D01*
X100246000Y-79616533D01*
X100242329Y-79607671D01*
X100233467Y-79604000D01*
X99783534Y-79604000D01*
X99774672Y-79607671D01*
X99771946Y-79614251D01*
X99575500Y-79614251D01*
X99575500Y-79466782D01*
X99575165Y-79464503D01*
X99575164Y-79464496D01*
X99566071Y-79402734D01*
X99565358Y-79397888D01*
X99533884Y-79333783D01*
X99516227Y-79297819D01*
X99516226Y-79297818D01*
X99513932Y-79293145D01*
X99498695Y-79277934D01*
X99435035Y-79214386D01*
X99431350Y-79210707D01*
X99398333Y-79194568D01*
X99330911Y-79161611D01*
X99330909Y-79161610D01*
X99326518Y-79159464D01*
X99321679Y-79158758D01*
X99260481Y-79149830D01*
X99260479Y-79149830D01*
X99258218Y-79149500D01*
X97741782Y-79149500D01*
X97739503Y-79149835D01*
X97739496Y-79149836D01*
X97703945Y-79155070D01*
X97672888Y-79159642D01*
X97568145Y-79211068D01*
X97564468Y-79214751D01*
X97564467Y-79214752D01*
X97545206Y-79234047D01*
X97485707Y-79293650D01*
X97483516Y-79298132D01*
X97442705Y-79323636D01*
X97432305Y-79324500D01*
X95060922Y-79324500D01*
X95016374Y-79306048D01*
X94796075Y-79085749D01*
X99771945Y-79085749D01*
X99774671Y-79092329D01*
X99783533Y-79096000D01*
X100233467Y-79096000D01*
X100242329Y-79092329D01*
X100246000Y-79083467D01*
X100754000Y-79083467D01*
X100757671Y-79092329D01*
X100766533Y-79096000D01*
X101216466Y-79096000D01*
X101225328Y-79092329D01*
X101228054Y-79085749D01*
X101226357Y-79067791D01*
X101224723Y-79060343D01*
X101182324Y-78939607D01*
X101177964Y-78931371D01*
X101102450Y-78829134D01*
X101095866Y-78822550D01*
X100993629Y-78747036D01*
X100985393Y-78742676D01*
X100864653Y-78700276D01*
X100857210Y-78698643D01*
X100830739Y-78696141D01*
X100827761Y-78696000D01*
X100766533Y-78696000D01*
X100757671Y-78699671D01*
X100754000Y-78708533D01*
X100754000Y-79083467D01*
X100246000Y-79083467D01*
X100246000Y-78708534D01*
X100242329Y-78699672D01*
X100233467Y-78696001D01*
X100172226Y-78696001D01*
X100169284Y-78696140D01*
X100142791Y-78698643D01*
X100135343Y-78700277D01*
X100014607Y-78742676D01*
X100006371Y-78747036D01*
X99904134Y-78822550D01*
X99897550Y-78829134D01*
X99822036Y-78931371D01*
X99817676Y-78939607D01*
X99775276Y-79060347D01*
X99773643Y-79067790D01*
X99771945Y-79085749D01*
X94796075Y-79085749D01*
X94496679Y-78786353D01*
X94492966Y-78782301D01*
X94470517Y-78755547D01*
X94470516Y-78755547D01*
X94466975Y-78751326D01*
X94432106Y-78731195D01*
X94402753Y-78692941D01*
X94407006Y-78648968D01*
X94409891Y-78643066D01*
X97383873Y-78643066D01*
X97385209Y-78651502D01*
X97388236Y-78660819D01*
X97441831Y-78766005D01*
X97447589Y-78773931D01*
X97531069Y-78857411D01*
X97538995Y-78863169D01*
X97644178Y-78916762D01*
X97653504Y-78919793D01*
X97740752Y-78933611D01*
X97745686Y-78934000D01*
X98233467Y-78934000D01*
X98242329Y-78930329D01*
X98246000Y-78921467D01*
X98246000Y-78921466D01*
X98754000Y-78921466D01*
X98757671Y-78930328D01*
X98766533Y-78933999D01*
X99254313Y-78933999D01*
X99259247Y-78933610D01*
X99346497Y-78919792D01*
X99355822Y-78916762D01*
X99461005Y-78863169D01*
X99468931Y-78857411D01*
X99552411Y-78773931D01*
X99558169Y-78766005D01*
X99611764Y-78660818D01*
X99614792Y-78651501D01*
X99615603Y-78646378D01*
X99613364Y-78637050D01*
X99608387Y-78634000D01*
X98766533Y-78634000D01*
X98757671Y-78637671D01*
X98754000Y-78646533D01*
X98754000Y-78921466D01*
X98246000Y-78921466D01*
X98246000Y-78646533D01*
X98242329Y-78637671D01*
X98233467Y-78634000D01*
X97394970Y-78634000D01*
X97386108Y-78637671D01*
X97383873Y-78643066D01*
X94409891Y-78643066D01*
X94413389Y-78635911D01*
X94413390Y-78635909D01*
X94415536Y-78631518D01*
X94425500Y-78563218D01*
X94425500Y-78196782D01*
X94425165Y-78194503D01*
X94425164Y-78194496D01*
X94416071Y-78132734D01*
X94415358Y-78127888D01*
X94408354Y-78113622D01*
X97384397Y-78113622D01*
X97386636Y-78122950D01*
X97391613Y-78126000D01*
X98233467Y-78126000D01*
X98242329Y-78122329D01*
X98246000Y-78113467D01*
X98754000Y-78113467D01*
X98757671Y-78122329D01*
X98766533Y-78126000D01*
X99605030Y-78126000D01*
X99613892Y-78122329D01*
X99616127Y-78116934D01*
X99614791Y-78108498D01*
X99611764Y-78099181D01*
X99558169Y-77993995D01*
X99552411Y-77986069D01*
X99468931Y-77902589D01*
X99461005Y-77896831D01*
X99355822Y-77843238D01*
X99346496Y-77840207D01*
X99259248Y-77826389D01*
X99254314Y-77826000D01*
X98766533Y-77826000D01*
X98757671Y-77829671D01*
X98754000Y-77838533D01*
X98754000Y-78113467D01*
X98246000Y-78113467D01*
X98246000Y-77838534D01*
X98242329Y-77829672D01*
X98233467Y-77826001D01*
X97745687Y-77826001D01*
X97740753Y-77826390D01*
X97653503Y-77840208D01*
X97644178Y-77843238D01*
X97538995Y-77896831D01*
X97531069Y-77902589D01*
X97447589Y-77986069D01*
X97441831Y-77993995D01*
X97388236Y-78099182D01*
X97385208Y-78108499D01*
X97384397Y-78113622D01*
X94408354Y-78113622D01*
X94390905Y-78078083D01*
X94366227Y-78027819D01*
X94366226Y-78027818D01*
X94363932Y-78023145D01*
X94353717Y-78012947D01*
X94285035Y-77944386D01*
X94281350Y-77940707D01*
X94203369Y-77902589D01*
X94180911Y-77891611D01*
X94180909Y-77891610D01*
X94176518Y-77889464D01*
X94171679Y-77888758D01*
X94110481Y-77879830D01*
X94110479Y-77879830D01*
X94108218Y-77879500D01*
X92591782Y-77879500D01*
X92589503Y-77879835D01*
X92589496Y-77879836D01*
X92553945Y-77885070D01*
X92522888Y-77889642D01*
X92518492Y-77891800D01*
X92518493Y-77891800D01*
X92430865Y-77934823D01*
X92418145Y-77941068D01*
X92414468Y-77944751D01*
X92414467Y-77944752D01*
X92380158Y-77979121D01*
X92335707Y-78023650D01*
X92333516Y-78028132D01*
X92292705Y-78053636D01*
X92282305Y-78054500D01*
X91790923Y-78054500D01*
X91746375Y-78036048D01*
X91003544Y-77293218D01*
X92274500Y-77293218D01*
X92274835Y-77295497D01*
X92274836Y-77295504D01*
X92276106Y-77304130D01*
X92284642Y-77362112D01*
X92336068Y-77466855D01*
X92418650Y-77549293D01*
X92451667Y-77565432D01*
X92519089Y-77598389D01*
X92519091Y-77598390D01*
X92523482Y-77600536D01*
X92528321Y-77601242D01*
X92589519Y-77610170D01*
X92589521Y-77610170D01*
X92591782Y-77610500D01*
X94108218Y-77610500D01*
X94110497Y-77610165D01*
X94110504Y-77610164D01*
X94146055Y-77604930D01*
X94177112Y-77600358D01*
X94267219Y-77556118D01*
X94277181Y-77551227D01*
X94277182Y-77551226D01*
X94281855Y-77548932D01*
X94320506Y-77510214D01*
X94348216Y-77482455D01*
X94364293Y-77466350D01*
X94380432Y-77433333D01*
X94413389Y-77365911D01*
X94413390Y-77365909D01*
X94415536Y-77361518D01*
X94425500Y-77293218D01*
X94425500Y-76926782D01*
X94425165Y-76924503D01*
X94425164Y-76924496D01*
X94417971Y-76875637D01*
X94415358Y-76857888D01*
X94387182Y-76800500D01*
X94366227Y-76757819D01*
X94366226Y-76757818D01*
X94363932Y-76753145D01*
X94349291Y-76738529D01*
X94285035Y-76674386D01*
X94281350Y-76670707D01*
X94205509Y-76633635D01*
X94180911Y-76621611D01*
X94180909Y-76621610D01*
X94176518Y-76619464D01*
X94171679Y-76618758D01*
X94110481Y-76609830D01*
X94110479Y-76609830D01*
X94108218Y-76609500D01*
X93400799Y-76609500D01*
X93356251Y-76591048D01*
X93337799Y-76546500D01*
X93337799Y-75800516D01*
X93356251Y-75755968D01*
X93362447Y-75750535D01*
X93437302Y-75693097D01*
X93440581Y-75690581D01*
X93478566Y-75641078D01*
X93534321Y-75568417D01*
X93534323Y-75568414D01*
X93536835Y-75565140D01*
X93540572Y-75556118D01*
X93595762Y-75422879D01*
X93595763Y-75422876D01*
X93597343Y-75419061D01*
X93617981Y-75262299D01*
X93597343Y-75105537D01*
X93590668Y-75089420D01*
X93538416Y-74963274D01*
X93538415Y-74963272D01*
X93536835Y-74959458D01*
X93534323Y-74956184D01*
X93534321Y-74956181D01*
X93443097Y-74837296D01*
X93440581Y-74834017D01*
X93362447Y-74774063D01*
X93338338Y-74732305D01*
X93337799Y-74724082D01*
X93337799Y-73474352D01*
X93356251Y-73429804D01*
X93390944Y-73412128D01*
X93400304Y-73410646D01*
X93413348Y-73404000D01*
X93508922Y-73355302D01*
X93508921Y-73355302D01*
X93513342Y-73353050D01*
X93603050Y-73263342D01*
X93645851Y-73179340D01*
X93658394Y-73154724D01*
X93658394Y-73154723D01*
X93660646Y-73150304D01*
X93675500Y-73056519D01*
X93675499Y-72593482D01*
X93675499Y-72593481D01*
X94074500Y-72593481D01*
X94074501Y-73056518D01*
X94089354Y-73150304D01*
X94091606Y-73154723D01*
X94091606Y-73154724D01*
X94104149Y-73179340D01*
X94146950Y-73263342D01*
X94236658Y-73353050D01*
X94349696Y-73410646D01*
X94361891Y-73412577D01*
X94371356Y-73414077D01*
X94412469Y-73439271D01*
X94424500Y-73476301D01*
X94424500Y-74711783D01*
X94406048Y-74756331D01*
X94399852Y-74761764D01*
X94321718Y-74821718D01*
X94319202Y-74824997D01*
X94227978Y-74943882D01*
X94227976Y-74943885D01*
X94225464Y-74947159D01*
X94223884Y-74950973D01*
X94223883Y-74950975D01*
X94193176Y-75025110D01*
X94164956Y-75093238D01*
X94144318Y-75250000D01*
X94164956Y-75406762D01*
X94166536Y-75410577D01*
X94166537Y-75410580D01*
X94222091Y-75544698D01*
X94225464Y-75552841D01*
X94227976Y-75556115D01*
X94227978Y-75556118D01*
X94240313Y-75572193D01*
X94321718Y-75678282D01*
X94324997Y-75680798D01*
X94443882Y-75772022D01*
X94443885Y-75772024D01*
X94447159Y-75774536D01*
X94450973Y-75776116D01*
X94450975Y-75776117D01*
X94589420Y-75833463D01*
X94589423Y-75833464D01*
X94593238Y-75835044D01*
X94750000Y-75855682D01*
X94906762Y-75835044D01*
X94910577Y-75833464D01*
X94910580Y-75833463D01*
X95049025Y-75776117D01*
X95049027Y-75776116D01*
X95052841Y-75774536D01*
X95056115Y-75772024D01*
X95056118Y-75772022D01*
X95175003Y-75680798D01*
X95178282Y-75678282D01*
X95259687Y-75572193D01*
X95272022Y-75556118D01*
X95272024Y-75556115D01*
X95274536Y-75552841D01*
X95277909Y-75544698D01*
X95333463Y-75410580D01*
X95333464Y-75410577D01*
X95335044Y-75406762D01*
X95355682Y-75250000D01*
X95335044Y-75093238D01*
X95306825Y-75025110D01*
X95276117Y-74950975D01*
X95276116Y-74950973D01*
X95274536Y-74947159D01*
X95272024Y-74943885D01*
X95272022Y-74943882D01*
X95180798Y-74824997D01*
X95178282Y-74821718D01*
X95100148Y-74761764D01*
X95076039Y-74720006D01*
X95075500Y-74711783D01*
X95075500Y-73476300D01*
X95093952Y-73431752D01*
X95128643Y-73414077D01*
X95150304Y-73410646D01*
X95163348Y-73404000D01*
X95258922Y-73355302D01*
X95258921Y-73355302D01*
X95263342Y-73353050D01*
X95353050Y-73263342D01*
X95395851Y-73179340D01*
X95408394Y-73154724D01*
X95408394Y-73154723D01*
X95410646Y-73150304D01*
X95425500Y-73056519D01*
X95425499Y-72593482D01*
X95425499Y-72593481D01*
X95824500Y-72593481D01*
X95824501Y-73056518D01*
X95839354Y-73150304D01*
X95841606Y-73154723D01*
X95841606Y-73154724D01*
X95854149Y-73179340D01*
X95896950Y-73263342D01*
X95982117Y-73348509D01*
X96000569Y-73393057D01*
X95987549Y-73431409D01*
X95975464Y-73447159D01*
X95973884Y-73450973D01*
X95973883Y-73450975D01*
X95920745Y-73579263D01*
X95914956Y-73593238D01*
X95894318Y-73750000D01*
X95914956Y-73906762D01*
X95916536Y-73910577D01*
X95916537Y-73910580D01*
X95973883Y-74049025D01*
X95975464Y-74052841D01*
X95977976Y-74056115D01*
X95977978Y-74056118D01*
X96008025Y-74095276D01*
X96071718Y-74178282D01*
X96074997Y-74180798D01*
X96193882Y-74272022D01*
X96193885Y-74272024D01*
X96197159Y-74274536D01*
X96200973Y-74276116D01*
X96200975Y-74276117D01*
X96339420Y-74333463D01*
X96339423Y-74333464D01*
X96343238Y-74335044D01*
X96500000Y-74355682D01*
X96656762Y-74335044D01*
X96660577Y-74333464D01*
X96660580Y-74333463D01*
X96799025Y-74276117D01*
X96799027Y-74276116D01*
X96802841Y-74274536D01*
X96806115Y-74272024D01*
X96806118Y-74272022D01*
X96925003Y-74180798D01*
X96928282Y-74178282D01*
X96991975Y-74095276D01*
X97022022Y-74056118D01*
X97022024Y-74056115D01*
X97024536Y-74052841D01*
X97026117Y-74049025D01*
X97083463Y-73910580D01*
X97083464Y-73910577D01*
X97085044Y-73906762D01*
X97105682Y-73750000D01*
X97085044Y-73593238D01*
X97079256Y-73579263D01*
X97026117Y-73450975D01*
X97026116Y-73450973D01*
X97024536Y-73447159D01*
X97012451Y-73431409D01*
X96999970Y-73384835D01*
X97017883Y-73348509D01*
X97103050Y-73263342D01*
X97145851Y-73179340D01*
X97158394Y-73154724D01*
X97158394Y-73154723D01*
X97160646Y-73150304D01*
X97175500Y-73056519D01*
X97175499Y-72593482D01*
X97160646Y-72499696D01*
X97149576Y-72477969D01*
X97105302Y-72391078D01*
X97103050Y-72386658D01*
X97013342Y-72296950D01*
X96900304Y-72239354D01*
X96806519Y-72224500D01*
X96804038Y-72224500D01*
X96500001Y-72224501D01*
X96193482Y-72224501D01*
X96099696Y-72239354D01*
X95986658Y-72296950D01*
X95896950Y-72386658D01*
X95894698Y-72391078D01*
X95850425Y-72477969D01*
X95839354Y-72499696D01*
X95824500Y-72593481D01*
X95425499Y-72593481D01*
X95410646Y-72499696D01*
X95399576Y-72477969D01*
X95355302Y-72391078D01*
X95353050Y-72386658D01*
X95263342Y-72296950D01*
X95150304Y-72239354D01*
X95056519Y-72224500D01*
X95054038Y-72224500D01*
X94750001Y-72224501D01*
X94443482Y-72224501D01*
X94349696Y-72239354D01*
X94236658Y-72296950D01*
X94146950Y-72386658D01*
X94144698Y-72391078D01*
X94100425Y-72477969D01*
X94089354Y-72499696D01*
X94074500Y-72593481D01*
X93675499Y-72593481D01*
X93660646Y-72499696D01*
X93649576Y-72477969D01*
X93605302Y-72391078D01*
X93603050Y-72386658D01*
X93513342Y-72296950D01*
X93400304Y-72239354D01*
X93306519Y-72224500D01*
X93304038Y-72224500D01*
X93000001Y-72224501D01*
X92693482Y-72224501D01*
X92599696Y-72239354D01*
X92486658Y-72296950D01*
X92396950Y-72386658D01*
X92394698Y-72391078D01*
X92350425Y-72477969D01*
X92339354Y-72499696D01*
X92324500Y-72593481D01*
X92324501Y-73056518D01*
X92339354Y-73150304D01*
X92341606Y-73154723D01*
X92341606Y-73154724D01*
X92354149Y-73179340D01*
X92396950Y-73263342D01*
X92486658Y-73353050D01*
X92599696Y-73410646D01*
X92617299Y-73413434D01*
X92633655Y-73416025D01*
X92674768Y-73441219D01*
X92686799Y-73478249D01*
X92686799Y-74724082D01*
X92668347Y-74768630D01*
X92662151Y-74774063D01*
X92584017Y-74834017D01*
X92581501Y-74837296D01*
X92490277Y-74956181D01*
X92490275Y-74956184D01*
X92487763Y-74959458D01*
X92486183Y-74963272D01*
X92486182Y-74963274D01*
X92433931Y-75089420D01*
X92427255Y-75105537D01*
X92406617Y-75262299D01*
X92427255Y-75419061D01*
X92428835Y-75422876D01*
X92428836Y-75422879D01*
X92484026Y-75556118D01*
X92487763Y-75565140D01*
X92490275Y-75568414D01*
X92490277Y-75568417D01*
X92546032Y-75641078D01*
X92584017Y-75690581D01*
X92587296Y-75693097D01*
X92662151Y-75750535D01*
X92686260Y-75792293D01*
X92686799Y-75800516D01*
X92686799Y-76546500D01*
X92668347Y-76591048D01*
X92623799Y-76609500D01*
X92591782Y-76609500D01*
X92589503Y-76609835D01*
X92589496Y-76609836D01*
X92553945Y-76615070D01*
X92522888Y-76619642D01*
X92473083Y-76644095D01*
X92427374Y-76666537D01*
X92418145Y-76671068D01*
X92414468Y-76674751D01*
X92414467Y-76674752D01*
X92395206Y-76694047D01*
X92335707Y-76753650D01*
X92333420Y-76758329D01*
X92286903Y-76853493D01*
X92284464Y-76858482D01*
X92283758Y-76863321D01*
X92275912Y-76917106D01*
X92274500Y-76926782D01*
X92274500Y-77293218D01*
X91003544Y-77293218D01*
X90742159Y-77031833D01*
X90738446Y-77027781D01*
X90715997Y-77001027D01*
X90715996Y-77001027D01*
X90712455Y-76996806D01*
X90707684Y-76994051D01*
X90707682Y-76994050D01*
X90702253Y-76990916D01*
X90675547Y-76960465D01*
X90674395Y-76957684D01*
X90670036Y-76947159D01*
X90667524Y-76943885D01*
X90667522Y-76943882D01*
X90576298Y-76824997D01*
X90573782Y-76821718D01*
X90484416Y-76753145D01*
X90451618Y-76727978D01*
X90451615Y-76727976D01*
X90448341Y-76725464D01*
X90444527Y-76723884D01*
X90444525Y-76723883D01*
X90306080Y-76666537D01*
X90306077Y-76666536D01*
X90302262Y-76664956D01*
X90145500Y-76644318D01*
X89988738Y-76664956D01*
X89984923Y-76666536D01*
X89984920Y-76666537D01*
X89846475Y-76723883D01*
X89846473Y-76723884D01*
X89842659Y-76725464D01*
X89839385Y-76727976D01*
X89839382Y-76727978D01*
X89806584Y-76753145D01*
X89717218Y-76821718D01*
X89714702Y-76824997D01*
X89623478Y-76943882D01*
X89623476Y-76943885D01*
X89620964Y-76947159D01*
X89619385Y-76950972D01*
X89619383Y-76950975D01*
X89585891Y-77031833D01*
X89560456Y-77093238D01*
X89539818Y-77250000D01*
X89560456Y-77406762D01*
X89562036Y-77410577D01*
X89562037Y-77410580D01*
X89619383Y-77549025D01*
X89620964Y-77552841D01*
X89623476Y-77556115D01*
X89623478Y-77556118D01*
X89657972Y-77601071D01*
X89717218Y-77678282D01*
X89720497Y-77680798D01*
X89802285Y-77743556D01*
X89826394Y-77785314D01*
X89813914Y-77831888D01*
X89796070Y-77855143D01*
X89727978Y-77943882D01*
X89727976Y-77943885D01*
X89725464Y-77947159D01*
X89723884Y-77950973D01*
X89723883Y-77950975D01*
X89681002Y-78054500D01*
X89664956Y-78093238D01*
X89644318Y-78250000D01*
X89664956Y-78406762D01*
X89666536Y-78410577D01*
X89666537Y-78410580D01*
X89723156Y-78547270D01*
X89725464Y-78552841D01*
X89727976Y-78556115D01*
X89727978Y-78556118D01*
X89734818Y-78565032D01*
X89821718Y-78678282D01*
X89824997Y-78680798D01*
X89943882Y-78772022D01*
X89943885Y-78772024D01*
X89947159Y-78774536D01*
X89950973Y-78776116D01*
X89950975Y-78776117D01*
X90089420Y-78833463D01*
X90089423Y-78833464D01*
X90093238Y-78835044D01*
X90250000Y-78855682D01*
X90347643Y-78842827D01*
X90394217Y-78855307D01*
X90400413Y-78860740D01*
X90762366Y-79222693D01*
X90766079Y-79226745D01*
X90788524Y-79253495D01*
X90788527Y-79253497D01*
X90792065Y-79257714D01*
X90796835Y-79260468D01*
X90827087Y-79277934D01*
X90831722Y-79280887D01*
X90864836Y-79304073D01*
X90870869Y-79305690D01*
X90886057Y-79311980D01*
X90891475Y-79315108D01*
X90912105Y-79318745D01*
X90931299Y-79322130D01*
X90936665Y-79323320D01*
X90956054Y-79328515D01*
X90975713Y-79333783D01*
X90981202Y-79333303D01*
X90981204Y-79333303D01*
X91015983Y-79330260D01*
X91021474Y-79330020D01*
X91461397Y-79330020D01*
X91505945Y-79348472D01*
X91524397Y-79393020D01*
X91505945Y-79437568D01*
X90126344Y-80817169D01*
X90081796Y-80835621D01*
X90037248Y-80817169D01*
X90029414Y-80807622D01*
X89998002Y-80760611D01*
X89994552Y-80755448D01*
X89966617Y-80736782D01*
X89933392Y-80714581D01*
X89933390Y-80714580D01*
X89928231Y-80711133D01*
X89922145Y-80709922D01*
X89922144Y-80709922D01*
X89907070Y-80706924D01*
X89869748Y-80699500D01*
X88330252Y-80699500D01*
X88292930Y-80706924D01*
X88277856Y-80709922D01*
X88277855Y-80709922D01*
X88271769Y-80711133D01*
X88266610Y-80714580D01*
X88266608Y-80714581D01*
X88233383Y-80736782D01*
X88205448Y-80755448D01*
X88201998Y-80760611D01*
X88164581Y-80816608D01*
X88164580Y-80816610D01*
X88161133Y-80821769D01*
X88149500Y-80880252D01*
X88149500Y-80937000D01*
X88131048Y-80981548D01*
X88086500Y-81000000D01*
X87813500Y-81000000D01*
X87768952Y-80981548D01*
X87750500Y-80937000D01*
X87750500Y-80880252D01*
X87738867Y-80821769D01*
X87735420Y-80816610D01*
X87735419Y-80816608D01*
X87698002Y-80760611D01*
X87694552Y-80755448D01*
X87666617Y-80736782D01*
X87633392Y-80714581D01*
X87633390Y-80714580D01*
X87628231Y-80711133D01*
X87622145Y-80709922D01*
X87622144Y-80709922D01*
X87607070Y-80706924D01*
X87569748Y-80699500D01*
X87463500Y-80699500D01*
X87418952Y-80681048D01*
X87400500Y-80636500D01*
X87400500Y-76863500D01*
X87418952Y-76818952D01*
X87463500Y-76800500D01*
X88719748Y-76800500D01*
X88757070Y-76793076D01*
X88772144Y-76790078D01*
X88772145Y-76790078D01*
X88778231Y-76788867D01*
X88783390Y-76785420D01*
X88783392Y-76785419D01*
X88839389Y-76748002D01*
X88844552Y-76744552D01*
X88848577Y-76738529D01*
X88885419Y-76683392D01*
X88885420Y-76683390D01*
X88888867Y-76678231D01*
X88891683Y-76664077D01*
X88893224Y-76656327D01*
X88900500Y-76619748D01*
X88900500Y-74580252D01*
X88888867Y-74521769D01*
X88885420Y-74516610D01*
X88885419Y-74516608D01*
X88848002Y-74460611D01*
X88844552Y-74455448D01*
X88835070Y-74449112D01*
X88783392Y-74414581D01*
X88783390Y-74414580D01*
X88778231Y-74411133D01*
X88772145Y-74409922D01*
X88772144Y-74409922D01*
X88757070Y-74406924D01*
X88719748Y-74399500D01*
X87188500Y-74399500D01*
X87143952Y-74381048D01*
X87125500Y-74336500D01*
X87125500Y-73496921D01*
X88221001Y-73496921D01*
X88221604Y-73503050D01*
X88234526Y-73568020D01*
X88239185Y-73579266D01*
X88288429Y-73652965D01*
X88297035Y-73661571D01*
X88370737Y-73710817D01*
X88381977Y-73715473D01*
X88446951Y-73728397D01*
X88453077Y-73729000D01*
X88733467Y-73729000D01*
X88742329Y-73725329D01*
X88746000Y-73716467D01*
X88746000Y-73716466D01*
X89254000Y-73716466D01*
X89257671Y-73725328D01*
X89266533Y-73728999D01*
X89546921Y-73728999D01*
X89553050Y-73728396D01*
X89618020Y-73715474D01*
X89629266Y-73710815D01*
X89702965Y-73661571D01*
X89711571Y-73652965D01*
X89760817Y-73579263D01*
X89765473Y-73568023D01*
X89778397Y-73503049D01*
X89779000Y-73496923D01*
X89779000Y-73416533D01*
X89775329Y-73407671D01*
X89766467Y-73404000D01*
X89266533Y-73404000D01*
X89257671Y-73407671D01*
X89254000Y-73416533D01*
X89254000Y-73716466D01*
X88746000Y-73716466D01*
X88746000Y-73416533D01*
X88742329Y-73407671D01*
X88733467Y-73404000D01*
X88233534Y-73404000D01*
X88224672Y-73407671D01*
X88221001Y-73416533D01*
X88221001Y-73496921D01*
X87125500Y-73496921D01*
X87125500Y-72588020D01*
X87143952Y-72543472D01*
X87188500Y-72525020D01*
X88259080Y-72525020D01*
X88303628Y-72543472D01*
X88322080Y-72588020D01*
X88303628Y-72632568D01*
X88299551Y-72635913D01*
X88288429Y-72647035D01*
X88239183Y-72720737D01*
X88234527Y-72731977D01*
X88221603Y-72796951D01*
X88221000Y-72803077D01*
X88221000Y-72883467D01*
X88224671Y-72892329D01*
X88233533Y-72896000D01*
X89766466Y-72896000D01*
X89775328Y-72892329D01*
X89778999Y-72883467D01*
X89778999Y-72803079D01*
X89778396Y-72796950D01*
X89765474Y-72731980D01*
X89760815Y-72720734D01*
X89711571Y-72647035D01*
X89698577Y-72634041D01*
X89700432Y-72632186D01*
X89679132Y-72600317D01*
X89688534Y-72553025D01*
X89728623Y-72526232D01*
X89740920Y-72525020D01*
X90511930Y-72525020D01*
X90556478Y-72543472D01*
X90574930Y-72588020D01*
X90574787Y-72591670D01*
X90574500Y-72593481D01*
X90574501Y-73056518D01*
X90589354Y-73150304D01*
X90591606Y-73154723D01*
X90591606Y-73154724D01*
X90604149Y-73179340D01*
X90646950Y-73263342D01*
X90736658Y-73353050D01*
X90741079Y-73355302D01*
X90741078Y-73355302D01*
X90836653Y-73404000D01*
X90849696Y-73410646D01*
X90943481Y-73425500D01*
X91250000Y-73425500D01*
X91556518Y-73425499D01*
X91650304Y-73410646D01*
X91663348Y-73404000D01*
X91758922Y-73355302D01*
X91758921Y-73355302D01*
X91763342Y-73353050D01*
X91853050Y-73263342D01*
X91895851Y-73179340D01*
X91908394Y-73154724D01*
X91908394Y-73154723D01*
X91910646Y-73150304D01*
X91925500Y-73056519D01*
X91925499Y-72593482D01*
X91910646Y-72499696D01*
X91899576Y-72477969D01*
X91863913Y-72407978D01*
X91860129Y-72359908D01*
X91875498Y-72334828D01*
X92467951Y-71742375D01*
X92512499Y-71723923D01*
X92541101Y-71730790D01*
X92595276Y-71758394D01*
X92599696Y-71760646D01*
X92693481Y-71775500D01*
X93000000Y-71775500D01*
X93306518Y-71775499D01*
X93400304Y-71760646D01*
X93441319Y-71739748D01*
X93508922Y-71705302D01*
X93508921Y-71705302D01*
X93513342Y-71703050D01*
X93603050Y-71613342D01*
X93643020Y-71534898D01*
X93679684Y-71503583D01*
X93699152Y-71500500D01*
X94050848Y-71500500D01*
X94095396Y-71518952D01*
X94106980Y-71534897D01*
X94146950Y-71613342D01*
X94236658Y-71703050D01*
X94241079Y-71705302D01*
X94241078Y-71705302D01*
X94308682Y-71739748D01*
X94349696Y-71760646D01*
X94443481Y-71775500D01*
X94750000Y-71775500D01*
X95056518Y-71775499D01*
X95150304Y-71760646D01*
X95191319Y-71739748D01*
X95258922Y-71705302D01*
X95258921Y-71705302D01*
X95263342Y-71703050D01*
X95353050Y-71613342D01*
X95393020Y-71534898D01*
X95429684Y-71503583D01*
X95449152Y-71500500D01*
X95800848Y-71500500D01*
X95845396Y-71518952D01*
X95856980Y-71534897D01*
X95896950Y-71613342D01*
X95986658Y-71703050D01*
X95991079Y-71705302D01*
X95991078Y-71705302D01*
X96058682Y-71739748D01*
X96099696Y-71760646D01*
X96193481Y-71775500D01*
X96500000Y-71775500D01*
X96806518Y-71775499D01*
X96900304Y-71760646D01*
X96941319Y-71739748D01*
X97008922Y-71705302D01*
X97008921Y-71705302D01*
X97013342Y-71703050D01*
X97103050Y-71613342D01*
X97143020Y-71534898D01*
X97179684Y-71503583D01*
X97199152Y-71500500D01*
X98061980Y-71500500D01*
X98106528Y-71518952D01*
X98124980Y-71563500D01*
X98124980Y-76546500D01*
X98106528Y-76591048D01*
X98061980Y-76609500D01*
X97741782Y-76609500D01*
X97739503Y-76609835D01*
X97739496Y-76609836D01*
X97703945Y-76615070D01*
X97672888Y-76619642D01*
X97623083Y-76644095D01*
X97577374Y-76666537D01*
X97568145Y-76671068D01*
X97564468Y-76674751D01*
X97564467Y-76674752D01*
X97545206Y-76694047D01*
X97485707Y-76753650D01*
X97483420Y-76758329D01*
X97436903Y-76853493D01*
X97434464Y-76858482D01*
X97433758Y-76863321D01*
X97425912Y-76917106D01*
X97424500Y-76926782D01*
X97424500Y-77293218D01*
X97424835Y-77295497D01*
X97424836Y-77295504D01*
X97426106Y-77304130D01*
X97434642Y-77362112D01*
X97486068Y-77466855D01*
X97568650Y-77549293D01*
X97601667Y-77565432D01*
X97669089Y-77598389D01*
X97669091Y-77598390D01*
X97673482Y-77600536D01*
X97678321Y-77601242D01*
X97739519Y-77610170D01*
X97739521Y-77610170D01*
X97741782Y-77610500D01*
X99258218Y-77610500D01*
X99260497Y-77610165D01*
X99260504Y-77610164D01*
X99296055Y-77604930D01*
X99327112Y-77600358D01*
X99417219Y-77556118D01*
X99427181Y-77551227D01*
X99427182Y-77551226D01*
X99431855Y-77548932D01*
X99470506Y-77510214D01*
X99498216Y-77482455D01*
X99514293Y-77466350D01*
X99530432Y-77433333D01*
X99563389Y-77365911D01*
X99563390Y-77365909D01*
X99565536Y-77361518D01*
X99575500Y-77293218D01*
X99575500Y-76926782D01*
X99575165Y-76924503D01*
X99575164Y-76924496D01*
X99567971Y-76875637D01*
X99565358Y-76857888D01*
X99537182Y-76800500D01*
X99516227Y-76757819D01*
X99516226Y-76757818D01*
X99513932Y-76753145D01*
X99499291Y-76738529D01*
X99435035Y-76674386D01*
X99431350Y-76670707D01*
X99355509Y-76633635D01*
X99330911Y-76621611D01*
X99330909Y-76621610D01*
X99326518Y-76619464D01*
X99321679Y-76618758D01*
X99260481Y-76609830D01*
X99260479Y-76609830D01*
X99258218Y-76609500D01*
X98838980Y-76609500D01*
X98794432Y-76591048D01*
X98775980Y-76546500D01*
X98775980Y-75843481D01*
X100824500Y-75843481D01*
X100824501Y-76306518D01*
X100839354Y-76400304D01*
X100896950Y-76513342D01*
X100986658Y-76603050D01*
X101099696Y-76660646D01*
X101111891Y-76662577D01*
X101121356Y-76664077D01*
X101162469Y-76689271D01*
X101174500Y-76726301D01*
X101174500Y-76733038D01*
X101174260Y-76738529D01*
X101172528Y-76758329D01*
X101170736Y-76778807D01*
X101172162Y-76784128D01*
X101172162Y-76784130D01*
X101181203Y-76817868D01*
X101182393Y-76823236D01*
X101189412Y-76863045D01*
X101192167Y-76867816D01*
X101192167Y-76867817D01*
X101192536Y-76868456D01*
X101198829Y-76883648D01*
X101200446Y-76889684D01*
X101203607Y-76894198D01*
X101223635Y-76922801D01*
X101226587Y-76927434D01*
X101246806Y-76962455D01*
X101251027Y-76965997D01*
X101277783Y-76988448D01*
X101281835Y-76992161D01*
X101389260Y-77099586D01*
X101407712Y-77144134D01*
X101407173Y-77152353D01*
X101394318Y-77250000D01*
X101414956Y-77406762D01*
X101416536Y-77410577D01*
X101416537Y-77410580D01*
X101473883Y-77549025D01*
X101475464Y-77552841D01*
X101477976Y-77556115D01*
X101477978Y-77556118D01*
X101512472Y-77601071D01*
X101571718Y-77678282D01*
X101574997Y-77680798D01*
X101693882Y-77772022D01*
X101693885Y-77772024D01*
X101697159Y-77774536D01*
X101700973Y-77776116D01*
X101700975Y-77776117D01*
X101839420Y-77833463D01*
X101839423Y-77833464D01*
X101843238Y-77835044D01*
X102000000Y-77855682D01*
X102156762Y-77835044D01*
X102160577Y-77833464D01*
X102160580Y-77833463D01*
X102299025Y-77776117D01*
X102299027Y-77776116D01*
X102302841Y-77774536D01*
X102306115Y-77772024D01*
X102306118Y-77772022D01*
X102425003Y-77680798D01*
X102428282Y-77678282D01*
X102487528Y-77601071D01*
X102522022Y-77556118D01*
X102522024Y-77556115D01*
X102524536Y-77552841D01*
X102526117Y-77549025D01*
X102583463Y-77410580D01*
X102583464Y-77410577D01*
X102585044Y-77406762D01*
X102605682Y-77250000D01*
X102585044Y-77093238D01*
X102559610Y-77031833D01*
X102526117Y-76950975D01*
X102526115Y-76950972D01*
X102524536Y-76947159D01*
X102522024Y-76943885D01*
X102522022Y-76943882D01*
X102430798Y-76824997D01*
X102428282Y-76821718D01*
X102338916Y-76753145D01*
X102306118Y-76727978D01*
X102306115Y-76727976D01*
X102302841Y-76725464D01*
X102299027Y-76723884D01*
X102299025Y-76723883D01*
X102160580Y-76666537D01*
X102160577Y-76666536D01*
X102156762Y-76664956D01*
X102124024Y-76660646D01*
X102101982Y-76657744D01*
X102060224Y-76633635D01*
X102047744Y-76587060D01*
X102065657Y-76550735D01*
X102103050Y-76513342D01*
X102160646Y-76400304D01*
X102175500Y-76306519D01*
X102175499Y-75843482D01*
X102160646Y-75749696D01*
X102103050Y-75636658D01*
X102013342Y-75546950D01*
X101900304Y-75489354D01*
X101806519Y-75474500D01*
X101804038Y-75474500D01*
X101500001Y-75474501D01*
X101193482Y-75474501D01*
X101099696Y-75489354D01*
X100986658Y-75546950D01*
X100896950Y-75636658D01*
X100839354Y-75749696D01*
X100824500Y-75843481D01*
X98775980Y-75843481D01*
X98775980Y-74193481D01*
X100824500Y-74193481D01*
X100824501Y-74656518D01*
X100839354Y-74750304D01*
X100896950Y-74863342D01*
X100986658Y-74953050D01*
X101099696Y-75010646D01*
X101193481Y-75025500D01*
X101500000Y-75025500D01*
X101806518Y-75025499D01*
X101900304Y-75010646D01*
X102013342Y-74953050D01*
X102103050Y-74863342D01*
X102160646Y-74750304D01*
X102175500Y-74656519D01*
X102175499Y-74193482D01*
X102160646Y-74099696D01*
X102103050Y-73986658D01*
X102013342Y-73896950D01*
X101900304Y-73839354D01*
X101888109Y-73837423D01*
X101878644Y-73835923D01*
X101837531Y-73810729D01*
X101825500Y-73773699D01*
X101825500Y-73511065D01*
X101843952Y-73466517D01*
X101878643Y-73448841D01*
X101880859Y-73448490D01*
X101882521Y-73448227D01*
X101882522Y-73448227D01*
X101887420Y-73447451D01*
X101912799Y-73434520D01*
X101972697Y-73404000D01*
X102005751Y-73387158D01*
X102099658Y-73293251D01*
X102159951Y-73174920D01*
X102175500Y-73076746D01*
X102175500Y-72573254D01*
X102159951Y-72475080D01*
X102144469Y-72444694D01*
X102114897Y-72386658D01*
X102099658Y-72356749D01*
X102005751Y-72262842D01*
X101931266Y-72224890D01*
X101891840Y-72204801D01*
X101891839Y-72204801D01*
X101887420Y-72202549D01*
X101789246Y-72187000D01*
X101210754Y-72187000D01*
X101112580Y-72202549D01*
X101108161Y-72204801D01*
X101108160Y-72204801D01*
X101068734Y-72224890D01*
X100994249Y-72262842D01*
X100900342Y-72356749D01*
X100885103Y-72386658D01*
X100855532Y-72444694D01*
X100840049Y-72475080D01*
X100824500Y-72573254D01*
X100824500Y-73076746D01*
X100840049Y-73174920D01*
X100900342Y-73293251D01*
X100994249Y-73387158D01*
X101027303Y-73404000D01*
X101087202Y-73434520D01*
X101112580Y-73447451D01*
X101117478Y-73448227D01*
X101117479Y-73448227D01*
X101119141Y-73448490D01*
X101121357Y-73448841D01*
X101162469Y-73474036D01*
X101174500Y-73511065D01*
X101174500Y-73773700D01*
X101156048Y-73818248D01*
X101121357Y-73835923D01*
X101099696Y-73839354D01*
X100986658Y-73896950D01*
X100896950Y-73986658D01*
X100839354Y-74099696D01*
X100824500Y-74193481D01*
X98775980Y-74193481D01*
X98775980Y-73493511D01*
X98794432Y-73448963D01*
X98838980Y-73430511D01*
X98861094Y-73434520D01*
X98892383Y-73446249D01*
X98900011Y-73448064D01*
X98952969Y-73453817D01*
X98956357Y-73454000D01*
X98983467Y-73454000D01*
X98992329Y-73450329D01*
X98996000Y-73441467D01*
X99504000Y-73441467D01*
X99507671Y-73450329D01*
X99516533Y-73454000D01*
X99543643Y-73454000D01*
X99547031Y-73453817D01*
X99599989Y-73448064D01*
X99607618Y-73446249D01*
X99728188Y-73401050D01*
X99735985Y-73396782D01*
X99838595Y-73319879D01*
X99844879Y-73313595D01*
X99921782Y-73210985D01*
X99926050Y-73203188D01*
X99971249Y-73082618D01*
X99973064Y-73074989D01*
X99978817Y-73022031D01*
X99979000Y-73018643D01*
X99979000Y-73016533D01*
X99975329Y-73007671D01*
X99966467Y-73004000D01*
X99516533Y-73004000D01*
X99507671Y-73007671D01*
X99504000Y-73016533D01*
X99504000Y-73441467D01*
X98996000Y-73441467D01*
X98996000Y-72483467D01*
X99504000Y-72483467D01*
X99507671Y-72492329D01*
X99516533Y-72496000D01*
X99966467Y-72496000D01*
X99975329Y-72492329D01*
X99979000Y-72483467D01*
X99979000Y-72481357D01*
X99978817Y-72477969D01*
X99973064Y-72425011D01*
X99971249Y-72417382D01*
X99926050Y-72296812D01*
X99921782Y-72289015D01*
X99844879Y-72186405D01*
X99838595Y-72180121D01*
X99735985Y-72103218D01*
X99728188Y-72098950D01*
X99607618Y-72053751D01*
X99599989Y-72051936D01*
X99547031Y-72046183D01*
X99543643Y-72046000D01*
X99516533Y-72046000D01*
X99507671Y-72049671D01*
X99504000Y-72058533D01*
X99504000Y-72483467D01*
X98996000Y-72483467D01*
X98996000Y-72058533D01*
X98992329Y-72049671D01*
X98983467Y-72046000D01*
X98956357Y-72046000D01*
X98952969Y-72046183D01*
X98900011Y-72051936D01*
X98892383Y-72053751D01*
X98861094Y-72065480D01*
X98812904Y-72063839D01*
X98779989Y-72028603D01*
X98775980Y-72006489D01*
X98775980Y-71891082D01*
X98794432Y-71846534D01*
X98838980Y-71828082D01*
X98858447Y-71831165D01*
X98862454Y-71832467D01*
X98866874Y-71834719D01*
X98966512Y-71850500D01*
X99533488Y-71850500D01*
X99633126Y-71834719D01*
X99753220Y-71773528D01*
X99848528Y-71678220D01*
X99909719Y-71558126D01*
X99916407Y-71515901D01*
X100771262Y-71515901D01*
X100776855Y-71567384D01*
X100778668Y-71575010D01*
X100823239Y-71693905D01*
X100827507Y-71701702D01*
X100903336Y-71802880D01*
X100909620Y-71809164D01*
X101010798Y-71884993D01*
X101018595Y-71889261D01*
X101137486Y-71933831D01*
X101145123Y-71935646D01*
X101197295Y-71941314D01*
X101200721Y-71941500D01*
X101233467Y-71941500D01*
X101242329Y-71937829D01*
X101246000Y-71928967D01*
X101246000Y-71928966D01*
X101754000Y-71928966D01*
X101757671Y-71937828D01*
X101766533Y-71941499D01*
X101799292Y-71941499D01*
X101802683Y-71941316D01*
X101854884Y-71935645D01*
X101862510Y-71933832D01*
X101981405Y-71889261D01*
X101989202Y-71884993D01*
X102090380Y-71809164D01*
X102096664Y-71802880D01*
X102172493Y-71701702D01*
X102176761Y-71693905D01*
X102221331Y-71575014D01*
X102223146Y-71567377D01*
X102228739Y-71515901D01*
X102225329Y-71507671D01*
X102216467Y-71504000D01*
X101766533Y-71504000D01*
X101757671Y-71507671D01*
X101754000Y-71516533D01*
X101754000Y-71928966D01*
X101246000Y-71928966D01*
X101246000Y-71516533D01*
X101242329Y-71507671D01*
X101233467Y-71504000D01*
X100783534Y-71504000D01*
X100774672Y-71507671D01*
X100771262Y-71515901D01*
X99916407Y-71515901D01*
X99925500Y-71458488D01*
X99925500Y-70984099D01*
X100771261Y-70984099D01*
X100774671Y-70992329D01*
X100783533Y-70996000D01*
X101233467Y-70996000D01*
X101242329Y-70992329D01*
X101246000Y-70983467D01*
X101754000Y-70983467D01*
X101757671Y-70992329D01*
X101766533Y-70996000D01*
X102216466Y-70996000D01*
X102225328Y-70992329D01*
X102228738Y-70984099D01*
X102223145Y-70932616D01*
X102221332Y-70924990D01*
X102176761Y-70806095D01*
X102172493Y-70798298D01*
X102096664Y-70697120D01*
X102090380Y-70690836D01*
X101989202Y-70615007D01*
X101981405Y-70610739D01*
X101862514Y-70566169D01*
X101854877Y-70564354D01*
X101802705Y-70558686D01*
X101799279Y-70558500D01*
X101766533Y-70558500D01*
X101757671Y-70562171D01*
X101754000Y-70571033D01*
X101754000Y-70983467D01*
X101246000Y-70983467D01*
X101246000Y-70571034D01*
X101242329Y-70562172D01*
X101233467Y-70558501D01*
X101200708Y-70558501D01*
X101197317Y-70558684D01*
X101145116Y-70564355D01*
X101137490Y-70566168D01*
X101018595Y-70610739D01*
X101010798Y-70615007D01*
X100909620Y-70690836D01*
X100903336Y-70697120D01*
X100827507Y-70798298D01*
X100823239Y-70806095D01*
X100778669Y-70924986D01*
X100776854Y-70932623D01*
X100771261Y-70984099D01*
X99925500Y-70984099D01*
X99925500Y-70941512D01*
X99909719Y-70841874D01*
X99848528Y-70721780D01*
X99753220Y-70626472D01*
X99633126Y-70565281D01*
X99533488Y-70549500D01*
X98966512Y-70549500D01*
X98866874Y-70565281D01*
X98746780Y-70626472D01*
X98651472Y-70721780D01*
X98603921Y-70815103D01*
X98567258Y-70846416D01*
X98547790Y-70849500D01*
X98476148Y-70849500D01*
X98459847Y-70847355D01*
X98453807Y-70845736D01*
X98448318Y-70846216D01*
X98448316Y-70846216D01*
X98413529Y-70849260D01*
X98408038Y-70849500D01*
X97199152Y-70849500D01*
X97154604Y-70831048D01*
X97143019Y-70815102D01*
X97143019Y-70815101D01*
X97103050Y-70736658D01*
X97013342Y-70646950D01*
X96900304Y-70589354D01*
X96806519Y-70574500D01*
X96804038Y-70574500D01*
X96500001Y-70574501D01*
X96193482Y-70574501D01*
X96099696Y-70589354D01*
X95986658Y-70646950D01*
X95896950Y-70736658D01*
X95856982Y-70815101D01*
X95856981Y-70815102D01*
X95820316Y-70846417D01*
X95800848Y-70849500D01*
X95449152Y-70849500D01*
X95404604Y-70831048D01*
X95393019Y-70815102D01*
X95393019Y-70815101D01*
X95353050Y-70736658D01*
X95263342Y-70646950D01*
X95150304Y-70589354D01*
X95056519Y-70574500D01*
X95054038Y-70574500D01*
X94750001Y-70574501D01*
X94443482Y-70574501D01*
X94349696Y-70589354D01*
X94236658Y-70646950D01*
X94146950Y-70736658D01*
X94106982Y-70815101D01*
X94106981Y-70815102D01*
X94070316Y-70846417D01*
X94050848Y-70849500D01*
X93699152Y-70849500D01*
X93654604Y-70831048D01*
X93643019Y-70815102D01*
X93643019Y-70815101D01*
X93603050Y-70736658D01*
X93513342Y-70646950D01*
X93400304Y-70589354D01*
X93306519Y-70574500D01*
X93304038Y-70574500D01*
X93000001Y-70574501D01*
X92693482Y-70574501D01*
X92599696Y-70589354D01*
X92486658Y-70646950D01*
X92396950Y-70736658D01*
X92394699Y-70741076D01*
X92394698Y-70741078D01*
X92343340Y-70841874D01*
X92339354Y-70849696D01*
X92324500Y-70943481D01*
X92324500Y-70944044D01*
X92306424Y-70983250D01*
X92033048Y-71256626D01*
X91988500Y-71275078D01*
X91943952Y-71256626D01*
X91925500Y-71212078D01*
X91925499Y-70945963D01*
X91925499Y-70943482D01*
X91910646Y-70849696D01*
X91906661Y-70841874D01*
X91855302Y-70741078D01*
X91855301Y-70741076D01*
X91853050Y-70736658D01*
X91763342Y-70646950D01*
X91650304Y-70589354D01*
X91556519Y-70574500D01*
X91554038Y-70574500D01*
X91250001Y-70574501D01*
X90943482Y-70574501D01*
X90849696Y-70589354D01*
X90736658Y-70646950D01*
X90727560Y-70656048D01*
X90683012Y-70674500D01*
X89781031Y-70674500D01*
X89736483Y-70656048D01*
X89719242Y-70623791D01*
X89715078Y-70602856D01*
X89715078Y-70602855D01*
X89713867Y-70596769D01*
X89710420Y-70591610D01*
X89710419Y-70591608D01*
X89673002Y-70535611D01*
X89669552Y-70530448D01*
X89628989Y-70503344D01*
X89608392Y-70489581D01*
X89608390Y-70489580D01*
X89603231Y-70486133D01*
X89597145Y-70484922D01*
X89597144Y-70484922D01*
X89582070Y-70481924D01*
X89544748Y-70474500D01*
X88455252Y-70474500D01*
X88417930Y-70481924D01*
X88402856Y-70484922D01*
X88402855Y-70484922D01*
X88396769Y-70486133D01*
X88391610Y-70489580D01*
X88391608Y-70489581D01*
X88371011Y-70503344D01*
X88330448Y-70530448D01*
X88326998Y-70535611D01*
X88289581Y-70591608D01*
X88289580Y-70591610D01*
X88286133Y-70596769D01*
X88274500Y-70655252D01*
X88274500Y-71239078D01*
X88256048Y-71283626D01*
X88133626Y-71406048D01*
X88089078Y-71424500D01*
X85760923Y-71424500D01*
X85716375Y-71406048D01*
X85593952Y-71283625D01*
X85575500Y-71239077D01*
X85575500Y-70655252D01*
X85563867Y-70596769D01*
X85560420Y-70591610D01*
X85560419Y-70591608D01*
X85523002Y-70535611D01*
X85519552Y-70530448D01*
X85478989Y-70503344D01*
X85458392Y-70489581D01*
X85458390Y-70489580D01*
X85453231Y-70486133D01*
X85447145Y-70484922D01*
X85447144Y-70484922D01*
X85432070Y-70481924D01*
X85394748Y-70474500D01*
X84305252Y-70474500D01*
X84267930Y-70481924D01*
X84252856Y-70484922D01*
X84252855Y-70484922D01*
X84246769Y-70486133D01*
X84241610Y-70489580D01*
X84241608Y-70489581D01*
X84221011Y-70503344D01*
X84180448Y-70530448D01*
X84176998Y-70535611D01*
X84139581Y-70591608D01*
X84139580Y-70591610D01*
X84136133Y-70596769D01*
X84134922Y-70602855D01*
X84134922Y-70602856D01*
X84130758Y-70623791D01*
X84103970Y-70663883D01*
X84068969Y-70674500D01*
X83660922Y-70674500D01*
X83616374Y-70656048D01*
X82791679Y-69831353D01*
X82787966Y-69827301D01*
X82765517Y-69800547D01*
X82765516Y-69800547D01*
X82761975Y-69796326D01*
X82726954Y-69776107D01*
X82722321Y-69773155D01*
X82693718Y-69753127D01*
X82693719Y-69753127D01*
X82689204Y-69749966D01*
X82683168Y-69748349D01*
X82667976Y-69742056D01*
X82667337Y-69741687D01*
X82667336Y-69741687D01*
X82662565Y-69738932D01*
X82657139Y-69737975D01*
X82657138Y-69737975D01*
X82622756Y-69731913D01*
X82617388Y-69730723D01*
X82583650Y-69721682D01*
X82583648Y-69721682D01*
X82578327Y-69720256D01*
X82572838Y-69720736D01*
X82572836Y-69720736D01*
X82538049Y-69723780D01*
X82532558Y-69724020D01*
X80692048Y-69724020D01*
X80686558Y-69723780D01*
X80651775Y-69720737D01*
X80651774Y-69720737D01*
X80646287Y-69720257D01*
X80640969Y-69721682D01*
X80640968Y-69721682D01*
X80607229Y-69730722D01*
X80601863Y-69731911D01*
X80562049Y-69738932D01*
X80556639Y-69742055D01*
X80541442Y-69748350D01*
X80535410Y-69749966D01*
X80530897Y-69753126D01*
X80502283Y-69773161D01*
X80497655Y-69776109D01*
X80462639Y-69796326D01*
X80459097Y-69800547D01*
X80436651Y-69827297D01*
X80432938Y-69831349D01*
X79981347Y-70282941D01*
X79977294Y-70286654D01*
X79950551Y-70309093D01*
X79950549Y-70309096D01*
X79946326Y-70312639D01*
X79926109Y-70347657D01*
X79923155Y-70352293D01*
X79899966Y-70385410D01*
X79898540Y-70390732D01*
X79898349Y-70391445D01*
X79892056Y-70406638D01*
X79888932Y-70412049D01*
X79887975Y-70417475D01*
X79887975Y-70417476D01*
X79881913Y-70451858D01*
X79880723Y-70457226D01*
X79870256Y-70496287D01*
X79870736Y-70501776D01*
X79870736Y-70501778D01*
X79873780Y-70536565D01*
X79874020Y-70542056D01*
X79874020Y-72562558D01*
X79873780Y-72568049D01*
X79870957Y-72600317D01*
X79870256Y-72608327D01*
X79010000Y-72608327D01*
X79010000Y-70002751D01*
X79010037Y-70001900D01*
X79010824Y-70000000D01*
X79010187Y-69998462D01*
X79010240Y-69997260D01*
X79024560Y-69833579D01*
X79026467Y-69822764D01*
X79068278Y-69666723D01*
X79072034Y-69656404D01*
X79140304Y-69509998D01*
X79145794Y-69500488D01*
X79150988Y-69493071D01*
X79238454Y-69368156D01*
X79245513Y-69359743D01*
X79359743Y-69245513D01*
X79368156Y-69238454D01*
X79500488Y-69145794D01*
X79509995Y-69140306D01*
X79654332Y-69073000D01*
X79656404Y-69072034D01*
X79666723Y-69068278D01*
X79822764Y-69026467D01*
X79833579Y-69024560D01*
X79997260Y-69010240D01*
X79998462Y-69010187D01*
X80000000Y-69010824D01*
X80001900Y-69010037D01*
X80002751Y-69010000D01*
X84317000Y-69010000D01*
X84361548Y-69028452D01*
G37*
%TD.AperFunction*%
%TD*%
M02*
