M48
; DRILL file {KiCad (6.0.2)} date Wed Sep 28 21:47:18 2022
; FORMAT={-:-/ absolute / inch / decimal}
; #@! TF.CreationDate,2022-09-28T21:47:18+01:00
; #@! TF.GenerationSoftware,Kicad,Pcbnew,(6.0.2)
; #@! TF.FileFunction,Plated,1,2,PTH
FMAT,2
INCH
; #@! TA.AperFunction,Plated,PTH,ViaDrill
T1C0.0157
; #@! TA.AperFunction,Plated,PTH,ComponentDrill
T2C0.0315
; #@! TA.AperFunction,Plated,PTH,ComponentDrill
T3C0.0394
%
G90
G05
T1
X3.1299Y-3.4055
X3.1299Y-3.5138
X3.1299Y-3.6122
X3.1299Y-3.7992
X3.1398Y-3.0217
X3.1398Y-3.1102
X3.1398Y-3.2087
X3.1398Y-3.3071
X3.1535Y-2.7402
X3.1693Y-3.4547
X3.189Y-3.3563
X3.1988Y-3.878
X3.2382Y-3.3957
X3.2579Y-2.9626
X3.2677Y-3.5531
X3.2677Y-3.6713
X3.2933Y-2.7402
X3.3063Y-3.8
X3.3071Y-3.7402
X3.3071Y-3.8583
X3.3563Y-3.6516
X3.3661Y-3.4449
X3.4252Y-2.7854
X3.4449Y-3.5138
X3.4547Y-2.8839
X3.4744Y-3.0807
X3.4744Y-3.1201
X3.5138Y-3.4449
X3.5236Y-2.9331
X3.5335Y-3.5138
X3.549Y-3.0413
X3.5531Y-3.0807
X3.5531Y-3.1299
X3.5925Y-2.9331
X3.5925Y-2.9921
X3.6152Y-3.2776
X3.6614Y-3.5138
X3.6619Y-2.9631
X3.6811Y-3.4449
X3.7303Y-2.9626
X3.748Y-3.0276
X3.75Y-3.0906
X3.75Y-3.5197
X3.7505Y-3.2682
X3.7992Y-2.9035
X3.7992Y-3.3169
X3.8091Y-3.0906
X3.8091Y-3.1988
X3.811Y-3.0276
X3.8386Y-3.5236
X3.8543Y-2.7717
X3.9567Y-3.4055
X3.9961Y-3.5039
X3.9961Y-3.6024
X3.9961Y-3.7008
X3.9961Y-3.7992
X4.0157Y-3.0413
X4.0354Y-2.752
X4.0354Y-3.1693
X4.0354Y-3.2283
X4.0354Y-3.3268
X4.0354Y-3.4055
T2
X3.2Y-2.8
X3.2Y-2.9
X3.2Y-3.0
X3.2Y-3.1
X3.2Y-3.2
X3.2Y-3.3
T3
X3.2Y-3.7
X3.2Y-3.8
X3.4Y-3.6
X3.4Y-3.7
X3.4Y-3.8
X3.5Y-3.6
X3.5Y-3.7
X3.5Y-3.8
X3.6Y-3.6
X3.6Y-3.7
X3.6Y-3.8
X3.7Y-3.6
X3.7Y-3.7
X3.7Y-3.8
X3.8Y-3.6
X3.8Y-3.7
X3.8Y-3.8
X3.9Y-3.6
X3.9Y-3.7
X3.9Y-3.8
T0
M30
