%TF.GenerationSoftware,KiCad,Pcbnew,(6.0.2)*%
%TF.CreationDate,2022-09-28T21:47:16+01:00*%
%TF.ProjectId,m-link-lite,6d2d6c69-6e6b-42d6-9c69-74652e6b6963,rev?*%
%TF.SameCoordinates,Original*%
%TF.FileFunction,Legend,Bot*%
%TF.FilePolarity,Positive*%
%FSLAX46Y46*%
G04 Gerber Fmt 4.6, Leading zero omitted, Abs format (unit mm)*
G04 Created by KiCad (PCBNEW (6.0.2)) date 2022-09-28 21:47:16*
%MOMM*%
%LPD*%
G01*
G04 APERTURE LIST*
%ADD10C,0.187500*%
%ADD11C,0.250000*%
%ADD12C,0.125000*%
%ADD13C,0.120000*%
G04 APERTURE END LIST*
D10*
X84125000Y-95928571D02*
X84089285Y-95857142D01*
X84089285Y-95750000D01*
X84125000Y-95642857D01*
X84196428Y-95571428D01*
X84267857Y-95535714D01*
X84410714Y-95500000D01*
X84517857Y-95500000D01*
X84660714Y-95535714D01*
X84732142Y-95571428D01*
X84803571Y-95642857D01*
X84839285Y-95750000D01*
X84839285Y-95821428D01*
X84803571Y-95928571D01*
X84767857Y-95964285D01*
X84517857Y-95964285D01*
X84517857Y-95821428D01*
X84839285Y-96285714D02*
X84089285Y-96285714D01*
X84839285Y-96714285D01*
X84089285Y-96714285D01*
X84839285Y-97071428D02*
X84089285Y-97071428D01*
X84089285Y-97250000D01*
X84125000Y-97357142D01*
X84196428Y-97428571D01*
X84267857Y-97464285D01*
X84410714Y-97500000D01*
X84517857Y-97500000D01*
X84660714Y-97464285D01*
X84732142Y-97428571D01*
X84803571Y-97357142D01*
X84839285Y-97250000D01*
X84839285Y-97071428D01*
D11*
X97119047Y-70952380D02*
X97119047Y-71666666D01*
X97166666Y-71809523D01*
X97261904Y-71904761D01*
X97404761Y-71952380D01*
X97500000Y-71952380D01*
X96166666Y-71952380D02*
X96642857Y-71952380D01*
X96642857Y-70952380D01*
X95261904Y-71857142D02*
X95309523Y-71904761D01*
X95452380Y-71952380D01*
X95547619Y-71952380D01*
X95690476Y-71904761D01*
X95785714Y-71809523D01*
X95833333Y-71714285D01*
X95880952Y-71523809D01*
X95880952Y-71380952D01*
X95833333Y-71190476D01*
X95785714Y-71095238D01*
X95690476Y-71000000D01*
X95547619Y-70952380D01*
X95452380Y-70952380D01*
X95309523Y-71000000D01*
X95261904Y-71047619D01*
X94547619Y-70952380D02*
X94547619Y-71666666D01*
X94595238Y-71809523D01*
X94690476Y-71904761D01*
X94833333Y-71952380D01*
X94928571Y-71952380D01*
X93595238Y-71952380D02*
X94071428Y-71952380D01*
X94071428Y-70952380D01*
X92690476Y-71857142D02*
X92738095Y-71904761D01*
X92880952Y-71952380D01*
X92976190Y-71952380D01*
X93119047Y-71904761D01*
X93214285Y-71809523D01*
X93261904Y-71714285D01*
X93309523Y-71523809D01*
X93309523Y-71380952D01*
X93261904Y-71190476D01*
X93214285Y-71095238D01*
X93119047Y-71000000D01*
X92976190Y-70952380D01*
X92880952Y-70952380D01*
X92738095Y-71000000D01*
X92690476Y-71047619D01*
X91976190Y-70952380D02*
X91976190Y-71666666D01*
X92023809Y-71809523D01*
X92119047Y-71904761D01*
X92261904Y-71952380D01*
X92357142Y-71952380D01*
X91023809Y-71952380D02*
X91500000Y-71952380D01*
X91500000Y-70952380D01*
X90119047Y-71857142D02*
X90166666Y-71904761D01*
X90309523Y-71952380D01*
X90404761Y-71952380D01*
X90547619Y-71904761D01*
X90642857Y-71809523D01*
X90690476Y-71714285D01*
X90738095Y-71523809D01*
X90738095Y-71380952D01*
X90690476Y-71190476D01*
X90642857Y-71095238D01*
X90547619Y-71000000D01*
X90404761Y-70952380D01*
X90309523Y-70952380D01*
X90166666Y-71000000D01*
X90119047Y-71047619D01*
X89404761Y-70952380D02*
X89404761Y-71666666D01*
X89452380Y-71809523D01*
X89547619Y-71904761D01*
X89690476Y-71952380D01*
X89785714Y-71952380D01*
X88452380Y-71952380D02*
X88928571Y-71952380D01*
X88928571Y-70952380D01*
X87547619Y-71857142D02*
X87595238Y-71904761D01*
X87738095Y-71952380D01*
X87833333Y-71952380D01*
X87976190Y-71904761D01*
X88071428Y-71809523D01*
X88119047Y-71714285D01*
X88166666Y-71523809D01*
X88166666Y-71380952D01*
X88119047Y-71190476D01*
X88071428Y-71095238D01*
X87976190Y-71000000D01*
X87833333Y-70952380D01*
X87738095Y-70952380D01*
X87595238Y-71000000D01*
X87547619Y-71047619D01*
D12*
X79723809Y-79130952D02*
X79723809Y-78845238D01*
X79223809Y-78988095D02*
X79723809Y-78988095D01*
X79723809Y-78726190D02*
X79223809Y-78392857D01*
X79723809Y-78392857D02*
X79223809Y-78726190D01*
D10*
X91750000Y-89189285D02*
X91285714Y-89189285D01*
X91535714Y-89475000D01*
X91428571Y-89475000D01*
X91357142Y-89510714D01*
X91321428Y-89546428D01*
X91285714Y-89617857D01*
X91285714Y-89796428D01*
X91321428Y-89867857D01*
X91357142Y-89903571D01*
X91428571Y-89939285D01*
X91642857Y-89939285D01*
X91714285Y-89903571D01*
X91750000Y-89867857D01*
D11*
X95619047Y-88202380D02*
X95619047Y-87202380D01*
X95285714Y-87916666D01*
X94952380Y-87202380D01*
X94952380Y-88202380D01*
X94476190Y-87821428D02*
X93714285Y-87821428D01*
X92761904Y-88202380D02*
X93238095Y-88202380D01*
X93238095Y-87202380D01*
X92428571Y-88202380D02*
X92428571Y-87202380D01*
X91952380Y-88202380D02*
X91952380Y-87202380D01*
X91380952Y-88202380D01*
X91380952Y-87202380D01*
X90904761Y-88202380D02*
X90904761Y-87202380D01*
X90333333Y-88202380D02*
X90761904Y-87630952D01*
X90333333Y-87202380D02*
X90904761Y-87773809D01*
D12*
X79750000Y-81630952D02*
X79773809Y-81678571D01*
X79773809Y-81750000D01*
X79750000Y-81821428D01*
X79702380Y-81869047D01*
X79654761Y-81892857D01*
X79559523Y-81916666D01*
X79488095Y-81916666D01*
X79392857Y-81892857D01*
X79345238Y-81869047D01*
X79297619Y-81821428D01*
X79273809Y-81750000D01*
X79273809Y-81702380D01*
X79297619Y-81630952D01*
X79321428Y-81607142D01*
X79488095Y-81607142D01*
X79488095Y-81702380D01*
X79273809Y-81392857D02*
X79773809Y-81392857D01*
X79273809Y-81107142D01*
X79773809Y-81107142D01*
X79273809Y-80869047D02*
X79773809Y-80869047D01*
X79773809Y-80750000D01*
X79750000Y-80678571D01*
X79702380Y-80630952D01*
X79654761Y-80607142D01*
X79559523Y-80583333D01*
X79488095Y-80583333D01*
X79392857Y-80607142D01*
X79345238Y-80630952D01*
X79297619Y-80678571D01*
X79273809Y-80750000D01*
X79273809Y-80869047D01*
D10*
X100589285Y-94107142D02*
X100589285Y-93750000D01*
X100946428Y-93714285D01*
X100910714Y-93750000D01*
X100875000Y-93821428D01*
X100875000Y-94000000D01*
X100910714Y-94071428D01*
X100946428Y-94107142D01*
X101017857Y-94142857D01*
X101196428Y-94142857D01*
X101267857Y-94107142D01*
X101303571Y-94071428D01*
X101339285Y-94000000D01*
X101339285Y-93821428D01*
X101303571Y-93750000D01*
X101267857Y-93714285D01*
X100589285Y-94357142D02*
X101339285Y-94607142D01*
X100589285Y-94857142D01*
X98857142Y-89189285D02*
X99000000Y-89189285D01*
X99071428Y-89225000D01*
X99107142Y-89260714D01*
X99178571Y-89367857D01*
X99214285Y-89510714D01*
X99214285Y-89796428D01*
X99178571Y-89867857D01*
X99142857Y-89903571D01*
X99071428Y-89939285D01*
X98928571Y-89939285D01*
X98857142Y-89903571D01*
X98821428Y-89867857D01*
X98785714Y-89796428D01*
X98785714Y-89617857D01*
X98821428Y-89546428D01*
X98857142Y-89510714D01*
X98928571Y-89475000D01*
X99071428Y-89475000D01*
X99142857Y-89510714D01*
X99178571Y-89546428D01*
X99214285Y-89617857D01*
X89114285Y-89260714D02*
X89078571Y-89225000D01*
X89007142Y-89189285D01*
X88828571Y-89189285D01*
X88757142Y-89225000D01*
X88721428Y-89260714D01*
X88685714Y-89332142D01*
X88685714Y-89403571D01*
X88721428Y-89510714D01*
X89150000Y-89939285D01*
X88685714Y-89939285D01*
X86035714Y-89939285D02*
X86464285Y-89939285D01*
X86250000Y-89939285D02*
X86250000Y-89189285D01*
X86321428Y-89296428D01*
X86392857Y-89367857D01*
X86464285Y-89403571D01*
D12*
X89630952Y-87573690D02*
X89869047Y-87573690D01*
X89869047Y-87073690D01*
X89464285Y-87573690D02*
X89464285Y-87073690D01*
X89297619Y-87073690D02*
X89011904Y-87073690D01*
X89154761Y-87573690D02*
X89154761Y-87073690D01*
X88845238Y-87311785D02*
X88678571Y-87311785D01*
X88607142Y-87573690D02*
X88845238Y-87573690D01*
X88845238Y-87073690D01*
X88607142Y-87073690D01*
X89964285Y-88045357D02*
X89845238Y-88378690D01*
X89726190Y-88045357D01*
X89273809Y-88378690D02*
X89559523Y-88378690D01*
X89416666Y-88378690D02*
X89416666Y-87878690D01*
X89464285Y-87950119D01*
X89511904Y-87997738D01*
X89559523Y-88021547D01*
X89059523Y-88331071D02*
X89035714Y-88354880D01*
X89059523Y-88378690D01*
X89083333Y-88354880D01*
X89059523Y-88331071D01*
X89059523Y-88378690D01*
X88559523Y-88378690D02*
X88845238Y-88378690D01*
X88702380Y-88378690D02*
X88702380Y-87878690D01*
X88750000Y-87950119D01*
X88797619Y-87997738D01*
X88845238Y-88021547D01*
D10*
X100625000Y-96178571D02*
X100589285Y-96107142D01*
X100589285Y-96000000D01*
X100625000Y-95892857D01*
X100696428Y-95821428D01*
X100767857Y-95785714D01*
X100910714Y-95750000D01*
X101017857Y-95750000D01*
X101160714Y-95785714D01*
X101232142Y-95821428D01*
X101303571Y-95892857D01*
X101339285Y-96000000D01*
X101339285Y-96071428D01*
X101303571Y-96178571D01*
X101267857Y-96214285D01*
X101017857Y-96214285D01*
X101017857Y-96071428D01*
X101339285Y-96535714D02*
X100589285Y-96535714D01*
X101339285Y-96964285D01*
X100589285Y-96964285D01*
X101339285Y-97321428D02*
X100589285Y-97321428D01*
X100589285Y-97500000D01*
X100625000Y-97607142D01*
X100696428Y-97678571D01*
X100767857Y-97714285D01*
X100910714Y-97750000D01*
X101017857Y-97750000D01*
X101160714Y-97714285D01*
X101232142Y-97678571D01*
X101303571Y-97607142D01*
X101339285Y-97500000D01*
X101339285Y-97321428D01*
D12*
X79535714Y-74178571D02*
X79511904Y-74107142D01*
X79488095Y-74083333D01*
X79440476Y-74059523D01*
X79369047Y-74059523D01*
X79321428Y-74083333D01*
X79297619Y-74107142D01*
X79273809Y-74154761D01*
X79273809Y-74345238D01*
X79773809Y-74345238D01*
X79773809Y-74178571D01*
X79750000Y-74130952D01*
X79726190Y-74107142D01*
X79678571Y-74083333D01*
X79630952Y-74083333D01*
X79583333Y-74107142D01*
X79559523Y-74130952D01*
X79535714Y-74178571D01*
X79535714Y-74345238D01*
X79773809Y-73750000D02*
X79773809Y-73654761D01*
X79750000Y-73607142D01*
X79702380Y-73559523D01*
X79607142Y-73535714D01*
X79440476Y-73535714D01*
X79345238Y-73559523D01*
X79297619Y-73607142D01*
X79273809Y-73654761D01*
X79273809Y-73750000D01*
X79297619Y-73797619D01*
X79345238Y-73845238D01*
X79440476Y-73869047D01*
X79607142Y-73869047D01*
X79702380Y-73845238D01*
X79750000Y-73797619D01*
X79773809Y-73750000D01*
X79773809Y-73226190D02*
X79773809Y-73130952D01*
X79750000Y-73083333D01*
X79702380Y-73035714D01*
X79607142Y-73011904D01*
X79440476Y-73011904D01*
X79345238Y-73035714D01*
X79297619Y-73083333D01*
X79273809Y-73130952D01*
X79273809Y-73226190D01*
X79297619Y-73273809D01*
X79345238Y-73321428D01*
X79440476Y-73345238D01*
X79607142Y-73345238D01*
X79702380Y-73321428D01*
X79750000Y-73273809D01*
X79773809Y-73226190D01*
X79773809Y-72869047D02*
X79773809Y-72583333D01*
X79273809Y-72726190D02*
X79773809Y-72726190D01*
X79773809Y-71690476D02*
X79773809Y-71380952D01*
X79583333Y-71547619D01*
X79583333Y-71476190D01*
X79559523Y-71428571D01*
X79535714Y-71404761D01*
X79488095Y-71380952D01*
X79369047Y-71380952D01*
X79321428Y-71404761D01*
X79297619Y-71428571D01*
X79273809Y-71476190D01*
X79273809Y-71619047D01*
X79297619Y-71666666D01*
X79321428Y-71690476D01*
X79773809Y-71238095D02*
X79273809Y-71071428D01*
X79773809Y-70904761D01*
X79773809Y-70785714D02*
X79773809Y-70476190D01*
X79583333Y-70642857D01*
X79583333Y-70571428D01*
X79559523Y-70523809D01*
X79535714Y-70500000D01*
X79488095Y-70476190D01*
X79369047Y-70476190D01*
X79321428Y-70500000D01*
X79297619Y-70523809D01*
X79273809Y-70571428D01*
X79273809Y-70714285D01*
X79297619Y-70761904D01*
X79321428Y-70785714D01*
X79273809Y-76333333D02*
X79511904Y-76500000D01*
X79273809Y-76619047D02*
X79773809Y-76619047D01*
X79773809Y-76428571D01*
X79750000Y-76380952D01*
X79726190Y-76357142D01*
X79678571Y-76333333D01*
X79607142Y-76333333D01*
X79559523Y-76357142D01*
X79535714Y-76380952D01*
X79511904Y-76428571D01*
X79511904Y-76619047D01*
X79773809Y-76166666D02*
X79273809Y-75833333D01*
X79773809Y-75833333D02*
X79273809Y-76166666D01*
D10*
X93857142Y-89439285D02*
X93857142Y-89939285D01*
X94035714Y-89153571D02*
X94214285Y-89689285D01*
X93750000Y-89689285D01*
X101303571Y-90732142D02*
X101339285Y-90839285D01*
X101339285Y-91017857D01*
X101303571Y-91089285D01*
X101267857Y-91125000D01*
X101196428Y-91160714D01*
X101125000Y-91160714D01*
X101053571Y-91125000D01*
X101017857Y-91089285D01*
X100982142Y-91017857D01*
X100946428Y-90875000D01*
X100910714Y-90803571D01*
X100875000Y-90767857D01*
X100803571Y-90732142D01*
X100732142Y-90732142D01*
X100660714Y-90767857D01*
X100625000Y-90803571D01*
X100589285Y-90875000D01*
X100589285Y-91053571D01*
X100625000Y-91160714D01*
X101339285Y-91482142D02*
X100589285Y-91482142D01*
X100625000Y-92232142D02*
X100589285Y-92160714D01*
X100589285Y-92053571D01*
X100625000Y-91946428D01*
X100696428Y-91875000D01*
X100767857Y-91839285D01*
X100910714Y-91803571D01*
X101017857Y-91803571D01*
X101160714Y-91839285D01*
X101232142Y-91875000D01*
X101303571Y-91946428D01*
X101339285Y-92053571D01*
X101339285Y-92125000D01*
X101303571Y-92232142D01*
X101267857Y-92267857D01*
X101017857Y-92267857D01*
X101017857Y-92125000D01*
X84089285Y-93857142D02*
X84089285Y-93500000D01*
X84446428Y-93464285D01*
X84410714Y-93500000D01*
X84375000Y-93571428D01*
X84375000Y-93750000D01*
X84410714Y-93821428D01*
X84446428Y-93857142D01*
X84517857Y-93892857D01*
X84696428Y-93892857D01*
X84767857Y-93857142D01*
X84803571Y-93821428D01*
X84839285Y-93750000D01*
X84839285Y-93571428D01*
X84803571Y-93500000D01*
X84767857Y-93464285D01*
X84089285Y-94107142D02*
X84839285Y-94357142D01*
X84089285Y-94607142D01*
X84803571Y-90732142D02*
X84839285Y-90839285D01*
X84839285Y-91017857D01*
X84803571Y-91089285D01*
X84767857Y-91125000D01*
X84696428Y-91160714D01*
X84625000Y-91160714D01*
X84553571Y-91125000D01*
X84517857Y-91089285D01*
X84482142Y-91017857D01*
X84446428Y-90875000D01*
X84410714Y-90803571D01*
X84375000Y-90767857D01*
X84303571Y-90732142D01*
X84232142Y-90732142D01*
X84160714Y-90767857D01*
X84125000Y-90803571D01*
X84089285Y-90875000D01*
X84089285Y-91053571D01*
X84125000Y-91160714D01*
X84839285Y-91482142D02*
X84089285Y-91482142D01*
X84125000Y-92232142D02*
X84089285Y-92160714D01*
X84089285Y-92053571D01*
X84125000Y-91946428D01*
X84196428Y-91875000D01*
X84267857Y-91839285D01*
X84410714Y-91803571D01*
X84517857Y-91803571D01*
X84660714Y-91839285D01*
X84732142Y-91875000D01*
X84803571Y-91946428D01*
X84839285Y-92053571D01*
X84839285Y-92125000D01*
X84803571Y-92232142D01*
X84767857Y-92267857D01*
X84517857Y-92267857D01*
X84517857Y-92125000D01*
D12*
X79273809Y-84626190D02*
X79511904Y-84792857D01*
X79273809Y-84911904D02*
X79773809Y-84911904D01*
X79773809Y-84721428D01*
X79750000Y-84673809D01*
X79726190Y-84650000D01*
X79678571Y-84626190D01*
X79607142Y-84626190D01*
X79559523Y-84650000D01*
X79535714Y-84673809D01*
X79511904Y-84721428D01*
X79511904Y-84911904D01*
X79535714Y-84411904D02*
X79535714Y-84245238D01*
X79273809Y-84173809D02*
X79273809Y-84411904D01*
X79773809Y-84411904D01*
X79773809Y-84173809D01*
X79297619Y-83983333D02*
X79273809Y-83911904D01*
X79273809Y-83792857D01*
X79297619Y-83745238D01*
X79321428Y-83721428D01*
X79369047Y-83697619D01*
X79416666Y-83697619D01*
X79464285Y-83721428D01*
X79488095Y-83745238D01*
X79511904Y-83792857D01*
X79535714Y-83888095D01*
X79559523Y-83935714D01*
X79583333Y-83959523D01*
X79630952Y-83983333D01*
X79678571Y-83983333D01*
X79726190Y-83959523D01*
X79750000Y-83935714D01*
X79773809Y-83888095D01*
X79773809Y-83769047D01*
X79750000Y-83697619D01*
X79535714Y-83483333D02*
X79535714Y-83316666D01*
X79273809Y-83245238D02*
X79273809Y-83483333D01*
X79773809Y-83483333D01*
X79773809Y-83245238D01*
X79773809Y-83102380D02*
X79773809Y-82816666D01*
X79273809Y-82959523D02*
X79773809Y-82959523D01*
D10*
X96321428Y-89189285D02*
X96678571Y-89189285D01*
X96714285Y-89546428D01*
X96678571Y-89510714D01*
X96607142Y-89475000D01*
X96428571Y-89475000D01*
X96357142Y-89510714D01*
X96321428Y-89546428D01*
X96285714Y-89617857D01*
X96285714Y-89796428D01*
X96321428Y-89867857D01*
X96357142Y-89903571D01*
X96428571Y-89939285D01*
X96607142Y-89939285D01*
X96678571Y-89903571D01*
X96714285Y-89867857D01*
D12*
%TO.C,J1*%
X79583333Y-92789523D02*
X79583333Y-93027619D01*
X79726190Y-92741904D02*
X79226190Y-92908571D01*
X79726190Y-93075238D01*
X79726190Y-93241904D02*
X79226190Y-93241904D01*
X79226190Y-93360952D01*
X79250000Y-93432380D01*
X79297619Y-93480000D01*
X79345238Y-93503809D01*
X79440476Y-93527619D01*
X79511904Y-93527619D01*
X79607142Y-93503809D01*
X79654761Y-93480000D01*
X79702380Y-93432380D01*
X79726190Y-93360952D01*
X79726190Y-93241904D01*
X79678571Y-94027619D02*
X79702380Y-94003809D01*
X79726190Y-93932380D01*
X79726190Y-93884761D01*
X79702380Y-93813333D01*
X79654761Y-93765714D01*
X79607142Y-93741904D01*
X79511904Y-93718095D01*
X79440476Y-93718095D01*
X79345238Y-93741904D01*
X79297619Y-93765714D01*
X79250000Y-93813333D01*
X79226190Y-93884761D01*
X79226190Y-93932380D01*
X79250000Y-94003809D01*
X79273809Y-94027619D01*
X79726190Y-94622857D02*
X79226190Y-94622857D01*
X79726190Y-94860952D02*
X79226190Y-94860952D01*
X79726190Y-95146666D01*
X79226190Y-95146666D01*
%TO.C,U4*%
X84630952Y-87226190D02*
X84630952Y-87630952D01*
X84607142Y-87678571D01*
X84583333Y-87702380D01*
X84535714Y-87726190D01*
X84440476Y-87726190D01*
X84392857Y-87702380D01*
X84369047Y-87678571D01*
X84345238Y-87630952D01*
X84345238Y-87226190D01*
X83892857Y-87392857D02*
X83892857Y-87726190D01*
X84011904Y-87202380D02*
X84130952Y-87559523D01*
X83821428Y-87559523D01*
X100845238Y-87464285D02*
X100678571Y-87464285D01*
X100607142Y-87726190D02*
X100845238Y-87726190D01*
X100845238Y-87226190D01*
X100607142Y-87226190D01*
X100416666Y-87702380D02*
X100345238Y-87726190D01*
X100226190Y-87726190D01*
X100178571Y-87702380D01*
X100154761Y-87678571D01*
X100130952Y-87630952D01*
X100130952Y-87583333D01*
X100154761Y-87535714D01*
X100178571Y-87511904D01*
X100226190Y-87488095D01*
X100321428Y-87464285D01*
X100369047Y-87440476D01*
X100392857Y-87416666D01*
X100416666Y-87369047D01*
X100416666Y-87321428D01*
X100392857Y-87273809D01*
X100369047Y-87250000D01*
X100321428Y-87226190D01*
X100202380Y-87226190D01*
X100130952Y-87250000D01*
X99916666Y-87726190D02*
X99916666Y-87226190D01*
X99726190Y-87226190D01*
X99678571Y-87250000D01*
X99654761Y-87273809D01*
X99630952Y-87321428D01*
X99630952Y-87392857D01*
X99654761Y-87440476D01*
X99678571Y-87464285D01*
X99726190Y-87488095D01*
X99916666Y-87488095D01*
X99416666Y-87535714D02*
X99035714Y-87535714D01*
X98535714Y-87726190D02*
X98821428Y-87726190D01*
X98678571Y-87726190D02*
X98678571Y-87226190D01*
X98726190Y-87297619D01*
X98773809Y-87345238D01*
X98821428Y-87369047D01*
X98345238Y-87273809D02*
X98321428Y-87250000D01*
X98273809Y-87226190D01*
X98154761Y-87226190D01*
X98107142Y-87250000D01*
X98083333Y-87273809D01*
X98059523Y-87321428D01*
X98059523Y-87369047D01*
X98083333Y-87440476D01*
X98369047Y-87726190D01*
X98059523Y-87726190D01*
X97678571Y-87464285D02*
X97845238Y-87464285D01*
X97845238Y-87726190D02*
X97845238Y-87226190D01*
X97607142Y-87226190D01*
D13*
X100620000Y-70250000D02*
X101230000Y-70250000D01*
X84380000Y-86870000D02*
X86500000Y-86870000D01*
X84380000Y-86250000D02*
X84380000Y-86870000D01*
X100620000Y-62630000D02*
X84380000Y-62630000D01*
X84380000Y-62630000D02*
X84380000Y-68750000D01*
X100620000Y-86870000D02*
X100620000Y-86250000D01*
X100620000Y-68750000D02*
X100620000Y-62630000D01*
X98500000Y-86870000D02*
X100620000Y-86870000D01*
%TD*%
M02*
