%TF.GenerationSoftware,KiCad,Pcbnew,(6.0.2)*%
%TF.CreationDate,2022-09-28T21:47:16+01:00*%
%TF.ProjectId,m-link-lite,6d2d6c69-6e6b-42d6-9c69-74652e6b6963,rev?*%
%TF.SameCoordinates,Original*%
%TF.FileFunction,Legend,Top*%
%TF.FilePolarity,Positive*%
%FSLAX46Y46*%
G04 Gerber Fmt 4.6, Leading zero omitted, Abs format (unit mm)*
G04 Created by KiCad (PCBNEW (6.0.2)) date 2022-09-28 21:47:16*
%MOMM*%
%LPD*%
G01*
G04 APERTURE LIST*
%ADD10C,0.187500*%
%ADD11C,0.125000*%
%ADD12C,0.375000*%
%ADD13C,0.120000*%
G04 APERTURE END LIST*
D10*
X84125000Y-97071428D02*
X84089285Y-97142857D01*
X84089285Y-97250000D01*
X84125000Y-97357142D01*
X84196428Y-97428571D01*
X84267857Y-97464285D01*
X84410714Y-97500000D01*
X84517857Y-97500000D01*
X84660714Y-97464285D01*
X84732142Y-97428571D01*
X84803571Y-97357142D01*
X84839285Y-97250000D01*
X84839285Y-97178571D01*
X84803571Y-97071428D01*
X84767857Y-97035714D01*
X84517857Y-97035714D01*
X84517857Y-97178571D01*
X84839285Y-96714285D02*
X84089285Y-96714285D01*
X84839285Y-96285714D01*
X84089285Y-96285714D01*
X84839285Y-95928571D02*
X84089285Y-95928571D01*
X84089285Y-95750000D01*
X84125000Y-95642857D01*
X84196428Y-95571428D01*
X84267857Y-95535714D01*
X84410714Y-95500000D01*
X84517857Y-95500000D01*
X84660714Y-95535714D01*
X84732142Y-95571428D01*
X84803571Y-95642857D01*
X84839285Y-95750000D01*
X84839285Y-95928571D01*
D11*
X79773809Y-78369047D02*
X79773809Y-78654761D01*
X79273809Y-78511904D02*
X79773809Y-78511904D01*
X79773809Y-78773809D02*
X79273809Y-79107142D01*
X79773809Y-79107142D02*
X79273809Y-78773809D01*
D10*
X84089285Y-94142857D02*
X84089285Y-94500000D01*
X84446428Y-94535714D01*
X84410714Y-94500000D01*
X84375000Y-94428571D01*
X84375000Y-94250000D01*
X84410714Y-94178571D01*
X84446428Y-94142857D01*
X84517857Y-94107142D01*
X84696428Y-94107142D01*
X84767857Y-94142857D01*
X84803571Y-94178571D01*
X84839285Y-94250000D01*
X84839285Y-94428571D01*
X84803571Y-94500000D01*
X84767857Y-94535714D01*
X84089285Y-93892857D02*
X84839285Y-93642857D01*
X84089285Y-93392857D01*
X99142857Y-89189285D02*
X99000000Y-89189285D01*
X98928571Y-89225000D01*
X98892857Y-89260714D01*
X98821428Y-89367857D01*
X98785714Y-89510714D01*
X98785714Y-89796428D01*
X98821428Y-89867857D01*
X98857142Y-89903571D01*
X98928571Y-89939285D01*
X99071428Y-89939285D01*
X99142857Y-89903571D01*
X99178571Y-89867857D01*
X99214285Y-89796428D01*
X99214285Y-89617857D01*
X99178571Y-89546428D01*
X99142857Y-89510714D01*
X99071428Y-89475000D01*
X98928571Y-89475000D01*
X98857142Y-89510714D01*
X98821428Y-89546428D01*
X98785714Y-89617857D01*
D11*
X79273809Y-83023809D02*
X79511904Y-82857142D01*
X79273809Y-82738095D02*
X79773809Y-82738095D01*
X79773809Y-82928571D01*
X79750000Y-82976190D01*
X79726190Y-83000000D01*
X79678571Y-83023809D01*
X79607142Y-83023809D01*
X79559523Y-83000000D01*
X79535714Y-82976190D01*
X79511904Y-82928571D01*
X79511904Y-82738095D01*
X79535714Y-83238095D02*
X79535714Y-83404761D01*
X79273809Y-83476190D02*
X79273809Y-83238095D01*
X79773809Y-83238095D01*
X79773809Y-83476190D01*
X79297619Y-83666666D02*
X79273809Y-83738095D01*
X79273809Y-83857142D01*
X79297619Y-83904761D01*
X79321428Y-83928571D01*
X79369047Y-83952380D01*
X79416666Y-83952380D01*
X79464285Y-83928571D01*
X79488095Y-83904761D01*
X79511904Y-83857142D01*
X79535714Y-83761904D01*
X79559523Y-83714285D01*
X79583333Y-83690476D01*
X79630952Y-83666666D01*
X79678571Y-83666666D01*
X79726190Y-83690476D01*
X79750000Y-83714285D01*
X79773809Y-83761904D01*
X79773809Y-83880952D01*
X79750000Y-83952380D01*
X79535714Y-84166666D02*
X79535714Y-84333333D01*
X79273809Y-84404761D02*
X79273809Y-84166666D01*
X79773809Y-84166666D01*
X79773809Y-84404761D01*
X79773809Y-84547619D02*
X79773809Y-84833333D01*
X79273809Y-84690476D02*
X79773809Y-84690476D01*
X79273809Y-76166666D02*
X79511904Y-76000000D01*
X79273809Y-75880952D02*
X79773809Y-75880952D01*
X79773809Y-76071428D01*
X79750000Y-76119047D01*
X79726190Y-76142857D01*
X79678571Y-76166666D01*
X79607142Y-76166666D01*
X79559523Y-76142857D01*
X79535714Y-76119047D01*
X79511904Y-76071428D01*
X79511904Y-75880952D01*
X79773809Y-76333333D02*
X79273809Y-76666666D01*
X79773809Y-76666666D02*
X79273809Y-76333333D01*
D10*
X101303571Y-92267857D02*
X101339285Y-92160714D01*
X101339285Y-91982142D01*
X101303571Y-91910714D01*
X101267857Y-91875000D01*
X101196428Y-91839285D01*
X101125000Y-91839285D01*
X101053571Y-91875000D01*
X101017857Y-91910714D01*
X100982142Y-91982142D01*
X100946428Y-92125000D01*
X100910714Y-92196428D01*
X100875000Y-92232142D01*
X100803571Y-92267857D01*
X100732142Y-92267857D01*
X100660714Y-92232142D01*
X100625000Y-92196428D01*
X100589285Y-92125000D01*
X100589285Y-91946428D01*
X100625000Y-91839285D01*
X101339285Y-91517857D02*
X100589285Y-91517857D01*
X100625000Y-90767857D02*
X100589285Y-90839285D01*
X100589285Y-90946428D01*
X100625000Y-91053571D01*
X100696428Y-91125000D01*
X100767857Y-91160714D01*
X100910714Y-91196428D01*
X101017857Y-91196428D01*
X101160714Y-91160714D01*
X101232142Y-91125000D01*
X101303571Y-91053571D01*
X101339285Y-90946428D01*
X101339285Y-90875000D01*
X101303571Y-90767857D01*
X101267857Y-90732142D01*
X101017857Y-90732142D01*
X101017857Y-90875000D01*
X100625000Y-97321428D02*
X100589285Y-97392857D01*
X100589285Y-97500000D01*
X100625000Y-97607142D01*
X100696428Y-97678571D01*
X100767857Y-97714285D01*
X100910714Y-97750000D01*
X101017857Y-97750000D01*
X101160714Y-97714285D01*
X101232142Y-97678571D01*
X101303571Y-97607142D01*
X101339285Y-97500000D01*
X101339285Y-97428571D01*
X101303571Y-97321428D01*
X101267857Y-97285714D01*
X101017857Y-97285714D01*
X101017857Y-97428571D01*
X101339285Y-96964285D02*
X100589285Y-96964285D01*
X101339285Y-96535714D01*
X100589285Y-96535714D01*
X101339285Y-96178571D02*
X100589285Y-96178571D01*
X100589285Y-96000000D01*
X100625000Y-95892857D01*
X100696428Y-95821428D01*
X100767857Y-95785714D01*
X100910714Y-95750000D01*
X101017857Y-95750000D01*
X101160714Y-95785714D01*
X101232142Y-95821428D01*
X101303571Y-95892857D01*
X101339285Y-96000000D01*
X101339285Y-96178571D01*
X100589285Y-94392857D02*
X100589285Y-94750000D01*
X100946428Y-94785714D01*
X100910714Y-94750000D01*
X100875000Y-94678571D01*
X100875000Y-94500000D01*
X100910714Y-94428571D01*
X100946428Y-94392857D01*
X101017857Y-94357142D01*
X101196428Y-94357142D01*
X101267857Y-94392857D01*
X101303571Y-94428571D01*
X101339285Y-94500000D01*
X101339285Y-94678571D01*
X101303571Y-94750000D01*
X101267857Y-94785714D01*
X100589285Y-94142857D02*
X101339285Y-93892857D01*
X100589285Y-93642857D01*
D11*
X79535714Y-72821428D02*
X79511904Y-72892857D01*
X79488095Y-72916666D01*
X79440476Y-72940476D01*
X79369047Y-72940476D01*
X79321428Y-72916666D01*
X79297619Y-72892857D01*
X79273809Y-72845238D01*
X79273809Y-72654761D01*
X79773809Y-72654761D01*
X79773809Y-72821428D01*
X79750000Y-72869047D01*
X79726190Y-72892857D01*
X79678571Y-72916666D01*
X79630952Y-72916666D01*
X79583333Y-72892857D01*
X79559523Y-72869047D01*
X79535714Y-72821428D01*
X79535714Y-72654761D01*
X79773809Y-73250000D02*
X79773809Y-73345238D01*
X79750000Y-73392857D01*
X79702380Y-73440476D01*
X79607142Y-73464285D01*
X79440476Y-73464285D01*
X79345238Y-73440476D01*
X79297619Y-73392857D01*
X79273809Y-73345238D01*
X79273809Y-73250000D01*
X79297619Y-73202380D01*
X79345238Y-73154761D01*
X79440476Y-73130952D01*
X79607142Y-73130952D01*
X79702380Y-73154761D01*
X79750000Y-73202380D01*
X79773809Y-73250000D01*
X79773809Y-73773809D02*
X79773809Y-73869047D01*
X79750000Y-73916666D01*
X79702380Y-73964285D01*
X79607142Y-73988095D01*
X79440476Y-73988095D01*
X79345238Y-73964285D01*
X79297619Y-73916666D01*
X79273809Y-73869047D01*
X79273809Y-73773809D01*
X79297619Y-73726190D01*
X79345238Y-73678571D01*
X79440476Y-73654761D01*
X79607142Y-73654761D01*
X79702380Y-73678571D01*
X79750000Y-73726190D01*
X79773809Y-73773809D01*
X79773809Y-74130952D02*
X79773809Y-74416666D01*
X79273809Y-74273809D02*
X79773809Y-74273809D01*
X79773809Y-70429523D02*
X79773809Y-70739047D01*
X79583333Y-70572380D01*
X79583333Y-70643809D01*
X79559523Y-70691428D01*
X79535714Y-70715238D01*
X79488095Y-70739047D01*
X79369047Y-70739047D01*
X79321428Y-70715238D01*
X79297619Y-70691428D01*
X79273809Y-70643809D01*
X79273809Y-70500952D01*
X79297619Y-70453333D01*
X79321428Y-70429523D01*
X79773809Y-70881904D02*
X79273809Y-71048571D01*
X79773809Y-71215238D01*
X79773809Y-71334285D02*
X79773809Y-71643809D01*
X79583333Y-71477142D01*
X79583333Y-71548571D01*
X79559523Y-71596190D01*
X79535714Y-71620000D01*
X79488095Y-71643809D01*
X79369047Y-71643809D01*
X79321428Y-71620000D01*
X79297619Y-71596190D01*
X79273809Y-71548571D01*
X79273809Y-71405714D01*
X79297619Y-71358095D01*
X79321428Y-71334285D01*
X102803571Y-98142857D02*
X102839285Y-98035714D01*
X102839285Y-97857142D01*
X102803571Y-97785714D01*
X102767857Y-97750000D01*
X102696428Y-97714285D01*
X102625000Y-97714285D01*
X102553571Y-97750000D01*
X102517857Y-97785714D01*
X102482142Y-97857142D01*
X102446428Y-98000000D01*
X102410714Y-98071428D01*
X102375000Y-98107142D01*
X102303571Y-98142857D01*
X102232142Y-98142857D01*
X102160714Y-98107142D01*
X102125000Y-98071428D01*
X102089285Y-98000000D01*
X102089285Y-97821428D01*
X102125000Y-97714285D01*
X102339285Y-97500000D02*
X102339285Y-97214285D01*
X102089285Y-97392857D02*
X102732142Y-97392857D01*
X102803571Y-97357142D01*
X102839285Y-97285714D01*
X102839285Y-97214285D01*
X102803571Y-96678571D02*
X102839285Y-96750000D01*
X102839285Y-96892857D01*
X102803571Y-96964285D01*
X102732142Y-97000000D01*
X102446428Y-97000000D01*
X102375000Y-96964285D01*
X102339285Y-96892857D01*
X102339285Y-96750000D01*
X102375000Y-96678571D01*
X102446428Y-96642857D01*
X102517857Y-96642857D01*
X102589285Y-97000000D01*
X102339285Y-96392857D02*
X102839285Y-96214285D01*
X102339285Y-96035714D01*
X102803571Y-95464285D02*
X102839285Y-95535714D01*
X102839285Y-95678571D01*
X102803571Y-95750000D01*
X102732142Y-95785714D01*
X102446428Y-95785714D01*
X102375000Y-95750000D01*
X102339285Y-95678571D01*
X102339285Y-95535714D01*
X102375000Y-95464285D01*
X102446428Y-95428571D01*
X102517857Y-95428571D01*
X102589285Y-95785714D01*
X102446428Y-94285714D02*
X102482142Y-94178571D01*
X102517857Y-94142857D01*
X102589285Y-94107142D01*
X102696428Y-94107142D01*
X102767857Y-94142857D01*
X102803571Y-94178571D01*
X102839285Y-94250000D01*
X102839285Y-94535714D01*
X102089285Y-94535714D01*
X102089285Y-94285714D01*
X102125000Y-94214285D01*
X102160714Y-94178571D01*
X102232142Y-94142857D01*
X102303571Y-94142857D01*
X102375000Y-94178571D01*
X102410714Y-94214285D01*
X102446428Y-94285714D01*
X102446428Y-94535714D01*
X102839285Y-93464285D02*
X102446428Y-93464285D01*
X102375000Y-93500000D01*
X102339285Y-93571428D01*
X102339285Y-93714285D01*
X102375000Y-93785714D01*
X102803571Y-93464285D02*
X102839285Y-93535714D01*
X102839285Y-93714285D01*
X102803571Y-93785714D01*
X102732142Y-93821428D01*
X102660714Y-93821428D01*
X102589285Y-93785714D01*
X102553571Y-93714285D01*
X102553571Y-93535714D01*
X102517857Y-93464285D01*
X102839285Y-93107142D02*
X102339285Y-93107142D01*
X102482142Y-93107142D02*
X102410714Y-93071428D01*
X102375000Y-93035714D01*
X102339285Y-92964285D01*
X102339285Y-92892857D01*
X102339285Y-92642857D02*
X102839285Y-92642857D01*
X102410714Y-92642857D02*
X102375000Y-92607142D01*
X102339285Y-92535714D01*
X102339285Y-92428571D01*
X102375000Y-92357142D01*
X102446428Y-92321428D01*
X102839285Y-92321428D01*
X102803571Y-91678571D02*
X102839285Y-91750000D01*
X102839285Y-91892857D01*
X102803571Y-91964285D01*
X102732142Y-92000000D01*
X102446428Y-92000000D01*
X102375000Y-91964285D01*
X102339285Y-91892857D01*
X102339285Y-91750000D01*
X102375000Y-91678571D01*
X102446428Y-91642857D01*
X102517857Y-91642857D01*
X102589285Y-92000000D01*
X102339285Y-91428571D02*
X102339285Y-91142857D01*
X102089285Y-91321428D02*
X102732142Y-91321428D01*
X102803571Y-91285714D01*
X102839285Y-91214285D01*
X102839285Y-91142857D01*
X102339285Y-91000000D02*
X102339285Y-90714285D01*
X102089285Y-90892857D02*
X102732142Y-90892857D01*
X102803571Y-90857142D01*
X102839285Y-90785714D01*
X102839285Y-90714285D01*
X102160714Y-89928571D02*
X102125000Y-89892857D01*
X102089285Y-89821428D01*
X102089285Y-89642857D01*
X102125000Y-89571428D01*
X102160714Y-89535714D01*
X102232142Y-89500000D01*
X102303571Y-89500000D01*
X102410714Y-89535714D01*
X102839285Y-89964285D01*
X102839285Y-89500000D01*
X102089285Y-89035714D02*
X102089285Y-88964285D01*
X102125000Y-88892857D01*
X102160714Y-88857142D01*
X102232142Y-88821428D01*
X102375000Y-88785714D01*
X102553571Y-88785714D01*
X102696428Y-88821428D01*
X102767857Y-88857142D01*
X102803571Y-88892857D01*
X102839285Y-88964285D01*
X102839285Y-89035714D01*
X102803571Y-89107142D01*
X102767857Y-89142857D01*
X102696428Y-89178571D01*
X102553571Y-89214285D01*
X102375000Y-89214285D01*
X102232142Y-89178571D01*
X102160714Y-89142857D01*
X102125000Y-89107142D01*
X102089285Y-89035714D01*
X102160714Y-88500000D02*
X102125000Y-88464285D01*
X102089285Y-88392857D01*
X102089285Y-88214285D01*
X102125000Y-88142857D01*
X102160714Y-88107142D01*
X102232142Y-88071428D01*
X102303571Y-88071428D01*
X102410714Y-88107142D01*
X102839285Y-88535714D01*
X102839285Y-88071428D01*
X102160714Y-87785714D02*
X102125000Y-87750000D01*
X102089285Y-87678571D01*
X102089285Y-87500000D01*
X102125000Y-87428571D01*
X102160714Y-87392857D01*
X102232142Y-87357142D01*
X102303571Y-87357142D01*
X102410714Y-87392857D01*
X102839285Y-87821428D01*
X102839285Y-87357142D01*
X79750000Y-80869047D02*
X79773809Y-80821428D01*
X79773809Y-80750000D01*
X79750000Y-80678571D01*
X79702380Y-80630952D01*
X79654761Y-80607142D01*
X79559523Y-80583333D01*
X79488095Y-80583333D01*
X79392857Y-80607142D01*
X79345238Y-80630952D01*
X79297619Y-80678571D01*
X79273809Y-80750000D01*
X79273809Y-80797619D01*
X79297619Y-80869047D01*
X79321428Y-80892857D01*
X79488095Y-80892857D01*
X79488095Y-80797619D01*
X79273809Y-81107142D02*
X79773809Y-81107142D01*
X79273809Y-81392857D01*
X79773809Y-81392857D01*
X79273809Y-81630952D02*
X79773809Y-81630952D01*
X79773809Y-81750000D01*
X79750000Y-81821428D01*
X79702380Y-81869047D01*
X79654761Y-81892857D01*
X79559523Y-81916666D01*
X79488095Y-81916666D01*
X79392857Y-81892857D01*
X79345238Y-81869047D01*
X79297619Y-81821428D01*
X79273809Y-81750000D01*
X79273809Y-81630952D01*
D10*
X86464285Y-89939285D02*
X86035714Y-89939285D01*
X86250000Y-89939285D02*
X86250000Y-89189285D01*
X86178571Y-89296428D01*
X86107142Y-89367857D01*
X86035714Y-89403571D01*
X88685714Y-89260714D02*
X88721428Y-89225000D01*
X88792857Y-89189285D01*
X88971428Y-89189285D01*
X89042857Y-89225000D01*
X89078571Y-89260714D01*
X89114285Y-89332142D01*
X89114285Y-89403571D01*
X89078571Y-89510714D01*
X88650000Y-89939285D01*
X89114285Y-89939285D01*
X96678571Y-89189285D02*
X96321428Y-89189285D01*
X96285714Y-89546428D01*
X96321428Y-89510714D01*
X96392857Y-89475000D01*
X96571428Y-89475000D01*
X96642857Y-89510714D01*
X96678571Y-89546428D01*
X96714285Y-89617857D01*
X96714285Y-89796428D01*
X96678571Y-89867857D01*
X96642857Y-89903571D01*
X96571428Y-89939285D01*
X96392857Y-89939285D01*
X96321428Y-89903571D01*
X96285714Y-89867857D01*
X91250000Y-89189285D02*
X91714285Y-89189285D01*
X91464285Y-89475000D01*
X91571428Y-89475000D01*
X91642857Y-89510714D01*
X91678571Y-89546428D01*
X91714285Y-89617857D01*
X91714285Y-89796428D01*
X91678571Y-89867857D01*
X91642857Y-89903571D01*
X91571428Y-89939285D01*
X91357142Y-89939285D01*
X91285714Y-89903571D01*
X91250000Y-89867857D01*
X96328571Y-87635535D02*
X95971428Y-87635535D01*
X95971428Y-86885535D01*
X96578571Y-87635535D02*
X96578571Y-86885535D01*
X96828571Y-86885535D02*
X97257142Y-86885535D01*
X97042857Y-87635535D02*
X97042857Y-86885535D01*
X97507142Y-87242678D02*
X97757142Y-87242678D01*
X97864285Y-87635535D02*
X97507142Y-87635535D01*
X97507142Y-86885535D01*
X97864285Y-86885535D01*
X95828571Y-88343035D02*
X96007142Y-88843035D01*
X96185714Y-88343035D01*
X96864285Y-88843035D02*
X96435714Y-88843035D01*
X96650000Y-88843035D02*
X96650000Y-88093035D01*
X96578571Y-88200178D01*
X96507142Y-88271607D01*
X96435714Y-88307321D01*
X97185714Y-88771607D02*
X97221428Y-88807321D01*
X97185714Y-88843035D01*
X97150000Y-88807321D01*
X97185714Y-88771607D01*
X97185714Y-88843035D01*
X97935714Y-88843035D02*
X97507142Y-88843035D01*
X97721428Y-88843035D02*
X97721428Y-88093035D01*
X97650000Y-88200178D01*
X97578571Y-88271607D01*
X97507142Y-88307321D01*
X84803571Y-92267857D02*
X84839285Y-92160714D01*
X84839285Y-91982142D01*
X84803571Y-91910714D01*
X84767857Y-91875000D01*
X84696428Y-91839285D01*
X84625000Y-91839285D01*
X84553571Y-91875000D01*
X84517857Y-91910714D01*
X84482142Y-91982142D01*
X84446428Y-92125000D01*
X84410714Y-92196428D01*
X84375000Y-92232142D01*
X84303571Y-92267857D01*
X84232142Y-92267857D01*
X84160714Y-92232142D01*
X84125000Y-92196428D01*
X84089285Y-92125000D01*
X84089285Y-91946428D01*
X84125000Y-91839285D01*
X84839285Y-91517857D02*
X84089285Y-91517857D01*
X84125000Y-90767857D02*
X84089285Y-90839285D01*
X84089285Y-90946428D01*
X84125000Y-91053571D01*
X84196428Y-91125000D01*
X84267857Y-91160714D01*
X84410714Y-91196428D01*
X84517857Y-91196428D01*
X84660714Y-91160714D01*
X84732142Y-91125000D01*
X84803571Y-91053571D01*
X84839285Y-90946428D01*
X84839285Y-90875000D01*
X84803571Y-90767857D01*
X84767857Y-90732142D01*
X84517857Y-90732142D01*
X84517857Y-90875000D01*
X94142857Y-89439285D02*
X94142857Y-89939285D01*
X93964285Y-89153571D02*
X93785714Y-89689285D01*
X94250000Y-89689285D01*
D12*
X87471428Y-88578571D02*
X87471428Y-87078571D01*
X87971428Y-88150000D01*
X88471428Y-87078571D01*
X88471428Y-88578571D01*
X89185714Y-88007142D02*
X90328571Y-88007142D01*
X91757142Y-88578571D02*
X91042857Y-88578571D01*
X91042857Y-87078571D01*
X92257142Y-88578571D02*
X92257142Y-87078571D01*
X92971428Y-88578571D02*
X92971428Y-87078571D01*
X93828571Y-88578571D01*
X93828571Y-87078571D01*
X94542857Y-88578571D02*
X94542857Y-87078571D01*
X95400000Y-88578571D02*
X94757142Y-87721428D01*
X95400000Y-87078571D02*
X94542857Y-87935714D01*
D11*
%TO.C,R8*%
X92916666Y-70401190D02*
X92750000Y-70163095D01*
X92630952Y-70401190D02*
X92630952Y-69901190D01*
X92821428Y-69901190D01*
X92869047Y-69925000D01*
X92892857Y-69948809D01*
X92916666Y-69996428D01*
X92916666Y-70067857D01*
X92892857Y-70115476D01*
X92869047Y-70139285D01*
X92821428Y-70163095D01*
X92630952Y-70163095D01*
X93202380Y-70115476D02*
X93154761Y-70091666D01*
X93130952Y-70067857D01*
X93107142Y-70020238D01*
X93107142Y-69996428D01*
X93130952Y-69948809D01*
X93154761Y-69925000D01*
X93202380Y-69901190D01*
X93297619Y-69901190D01*
X93345238Y-69925000D01*
X93369047Y-69948809D01*
X93392857Y-69996428D01*
X93392857Y-70020238D01*
X93369047Y-70067857D01*
X93345238Y-70091666D01*
X93297619Y-70115476D01*
X93202380Y-70115476D01*
X93154761Y-70139285D01*
X93130952Y-70163095D01*
X93107142Y-70210714D01*
X93107142Y-70305952D01*
X93130952Y-70353571D01*
X93154761Y-70377380D01*
X93202380Y-70401190D01*
X93297619Y-70401190D01*
X93345238Y-70377380D01*
X93369047Y-70353571D01*
X93392857Y-70305952D01*
X93392857Y-70210714D01*
X93369047Y-70163095D01*
X93345238Y-70139285D01*
X93297619Y-70115476D01*
X92702380Y-74151190D02*
X92416666Y-74151190D01*
X92559523Y-74151190D02*
X92559523Y-73651190D01*
X92511904Y-73722619D01*
X92464285Y-73770238D01*
X92416666Y-73794047D01*
X93011904Y-73651190D02*
X93059523Y-73651190D01*
X93107142Y-73675000D01*
X93130952Y-73698809D01*
X93154761Y-73746428D01*
X93178571Y-73841666D01*
X93178571Y-73960714D01*
X93154761Y-74055952D01*
X93130952Y-74103571D01*
X93107142Y-74127380D01*
X93059523Y-74151190D01*
X93011904Y-74151190D01*
X92964285Y-74127380D01*
X92940476Y-74103571D01*
X92916666Y-74055952D01*
X92892857Y-73960714D01*
X92892857Y-73841666D01*
X92916666Y-73746428D01*
X92940476Y-73698809D01*
X92964285Y-73675000D01*
X93011904Y-73651190D01*
X93392857Y-74151190D02*
X93392857Y-73651190D01*
X93440476Y-73960714D02*
X93583333Y-74151190D01*
X93583333Y-73817857D02*
X93392857Y-74008333D01*
%TO.C,R1*%
X81316666Y-92426190D02*
X81150000Y-92188095D01*
X81030952Y-92426190D02*
X81030952Y-91926190D01*
X81221428Y-91926190D01*
X81269047Y-91950000D01*
X81292857Y-91973809D01*
X81316666Y-92021428D01*
X81316666Y-92092857D01*
X81292857Y-92140476D01*
X81269047Y-92164285D01*
X81221428Y-92188095D01*
X81030952Y-92188095D01*
X81792857Y-92426190D02*
X81507142Y-92426190D01*
X81650000Y-92426190D02*
X81650000Y-91926190D01*
X81602380Y-91997619D01*
X81554761Y-92045238D01*
X81507142Y-92069047D01*
X81992857Y-91926190D02*
X82302380Y-91926190D01*
X82135714Y-92116666D01*
X82207142Y-92116666D01*
X82254761Y-92140476D01*
X82278571Y-92164285D01*
X82302380Y-92211904D01*
X82302380Y-92330952D01*
X82278571Y-92378571D01*
X82254761Y-92402380D01*
X82207142Y-92426190D01*
X82064285Y-92426190D01*
X82016666Y-92402380D01*
X81992857Y-92378571D01*
X82469047Y-91926190D02*
X82778571Y-91926190D01*
X82611904Y-92116666D01*
X82683333Y-92116666D01*
X82730952Y-92140476D01*
X82754761Y-92164285D01*
X82778571Y-92211904D01*
X82778571Y-92330952D01*
X82754761Y-92378571D01*
X82730952Y-92402380D01*
X82683333Y-92426190D01*
X82540476Y-92426190D01*
X82492857Y-92402380D01*
X82469047Y-92378571D01*
X82992857Y-92426190D02*
X82992857Y-91926190D01*
X83040476Y-92235714D02*
X83183333Y-92426190D01*
X83183333Y-92092857D02*
X82992857Y-92283333D01*
%TO.C,U1*%
X83639047Y-75976190D02*
X83639047Y-76380952D01*
X83662857Y-76428571D01*
X83686666Y-76452380D01*
X83734285Y-76476190D01*
X83829523Y-76476190D01*
X83877142Y-76452380D01*
X83900952Y-76428571D01*
X83924761Y-76380952D01*
X83924761Y-75976190D01*
X84424761Y-76476190D02*
X84139047Y-76476190D01*
X84281904Y-76476190D02*
X84281904Y-75976190D01*
X84234285Y-76047619D01*
X84186666Y-76095238D01*
X84139047Y-76119047D01*
%TO.C,D1*%
X101130952Y-70226190D02*
X101130952Y-69726190D01*
X101250000Y-69726190D01*
X101321428Y-69750000D01*
X101369047Y-69797619D01*
X101392857Y-69845238D01*
X101416666Y-69940476D01*
X101416666Y-70011904D01*
X101392857Y-70107142D01*
X101369047Y-70154761D01*
X101321428Y-70202380D01*
X101250000Y-70226190D01*
X101130952Y-70226190D01*
X101892857Y-70226190D02*
X101607142Y-70226190D01*
X101750000Y-70226190D02*
X101750000Y-69726190D01*
X101702380Y-69797619D01*
X101654761Y-69845238D01*
X101607142Y-69869047D01*
X102852380Y-73238095D02*
X102876190Y-73166666D01*
X102876190Y-73047619D01*
X102852380Y-73000000D01*
X102828571Y-72976190D01*
X102780952Y-72952380D01*
X102733333Y-72952380D01*
X102685714Y-72976190D01*
X102661904Y-73000000D01*
X102638095Y-73047619D01*
X102614285Y-73142857D01*
X102590476Y-73190476D01*
X102566666Y-73214285D01*
X102519047Y-73238095D01*
X102471428Y-73238095D01*
X102423809Y-73214285D01*
X102400000Y-73190476D01*
X102376190Y-73142857D01*
X102376190Y-73023809D01*
X102400000Y-72952380D01*
X102376190Y-72809523D02*
X102376190Y-72523809D01*
X102876190Y-72666666D02*
X102376190Y-72666666D01*
X102733333Y-72380952D02*
X102733333Y-72142857D01*
X102876190Y-72428571D02*
X102376190Y-72261904D01*
X102876190Y-72095238D01*
X102376190Y-72000000D02*
X102376190Y-71714285D01*
X102876190Y-71857142D02*
X102376190Y-71857142D01*
X102376190Y-71547619D02*
X102780952Y-71547619D01*
X102828571Y-71523809D01*
X102852380Y-71500000D01*
X102876190Y-71452380D01*
X102876190Y-71357142D01*
X102852380Y-71309523D01*
X102828571Y-71285714D01*
X102780952Y-71261904D01*
X102376190Y-71261904D01*
X102852380Y-71047619D02*
X102876190Y-70976190D01*
X102876190Y-70857142D01*
X102852380Y-70809523D01*
X102828571Y-70785714D01*
X102780952Y-70761904D01*
X102733333Y-70761904D01*
X102685714Y-70785714D01*
X102661904Y-70809523D01*
X102638095Y-70857142D01*
X102614285Y-70952380D01*
X102590476Y-71000000D01*
X102566666Y-71023809D01*
X102519047Y-71047619D01*
X102471428Y-71047619D01*
X102423809Y-71023809D01*
X102400000Y-71000000D01*
X102376190Y-70952380D01*
X102376190Y-70833333D01*
X102400000Y-70761904D01*
%TO.C,SW1*%
X87127380Y-72741666D02*
X87151190Y-72670238D01*
X87151190Y-72551190D01*
X87127380Y-72503571D01*
X87103571Y-72479761D01*
X87055952Y-72455952D01*
X87008333Y-72455952D01*
X86960714Y-72479761D01*
X86936904Y-72503571D01*
X86913095Y-72551190D01*
X86889285Y-72646428D01*
X86865476Y-72694047D01*
X86841666Y-72717857D01*
X86794047Y-72741666D01*
X86746428Y-72741666D01*
X86698809Y-72717857D01*
X86675000Y-72694047D01*
X86651190Y-72646428D01*
X86651190Y-72527380D01*
X86675000Y-72455952D01*
X86651190Y-72289285D02*
X87151190Y-72170238D01*
X86794047Y-72075000D01*
X87151190Y-71979761D01*
X86651190Y-71860714D01*
X87151190Y-71408333D02*
X87151190Y-71694047D01*
X87151190Y-71551190D02*
X86651190Y-71551190D01*
X86722619Y-71598809D01*
X86770238Y-71646428D01*
X86794047Y-71694047D01*
X83857142Y-69976190D02*
X83690476Y-69738095D01*
X83571428Y-69976190D02*
X83571428Y-69476190D01*
X83761904Y-69476190D01*
X83809523Y-69500000D01*
X83833333Y-69523809D01*
X83857142Y-69571428D01*
X83857142Y-69642857D01*
X83833333Y-69690476D01*
X83809523Y-69714285D01*
X83761904Y-69738095D01*
X83571428Y-69738095D01*
X84071428Y-69714285D02*
X84238095Y-69714285D01*
X84309523Y-69976190D02*
X84071428Y-69976190D01*
X84071428Y-69476190D01*
X84309523Y-69476190D01*
X84500000Y-69952380D02*
X84571428Y-69976190D01*
X84690476Y-69976190D01*
X84738095Y-69952380D01*
X84761904Y-69928571D01*
X84785714Y-69880952D01*
X84785714Y-69833333D01*
X84761904Y-69785714D01*
X84738095Y-69761904D01*
X84690476Y-69738095D01*
X84595238Y-69714285D01*
X84547619Y-69690476D01*
X84523809Y-69666666D01*
X84500000Y-69619047D01*
X84500000Y-69571428D01*
X84523809Y-69523809D01*
X84547619Y-69500000D01*
X84595238Y-69476190D01*
X84714285Y-69476190D01*
X84785714Y-69500000D01*
X84928571Y-69476190D02*
X85214285Y-69476190D01*
X85071428Y-69976190D02*
X85071428Y-69476190D01*
X85476190Y-69476190D02*
X85571428Y-69476190D01*
X85619047Y-69500000D01*
X85666666Y-69547619D01*
X85690476Y-69642857D01*
X85690476Y-69809523D01*
X85666666Y-69904761D01*
X85619047Y-69952380D01*
X85571428Y-69976190D01*
X85476190Y-69976190D01*
X85428571Y-69952380D01*
X85380952Y-69904761D01*
X85357142Y-69809523D01*
X85357142Y-69642857D01*
X85380952Y-69547619D01*
X85428571Y-69500000D01*
X85476190Y-69476190D01*
X86190476Y-69976190D02*
X86023809Y-69738095D01*
X85904761Y-69976190D02*
X85904761Y-69476190D01*
X86095238Y-69476190D01*
X86142857Y-69500000D01*
X86166666Y-69523809D01*
X86190476Y-69571428D01*
X86190476Y-69642857D01*
X86166666Y-69690476D01*
X86142857Y-69714285D01*
X86095238Y-69738095D01*
X85904761Y-69738095D01*
X86404761Y-69714285D02*
X86571428Y-69714285D01*
X86642857Y-69976190D02*
X86404761Y-69976190D01*
X86404761Y-69476190D01*
X86642857Y-69476190D01*
X87214285Y-69952380D02*
X87285714Y-69976190D01*
X87404761Y-69976190D01*
X87452380Y-69952380D01*
X87476190Y-69928571D01*
X87500000Y-69880952D01*
X87500000Y-69833333D01*
X87476190Y-69785714D01*
X87452380Y-69761904D01*
X87404761Y-69738095D01*
X87309523Y-69714285D01*
X87261904Y-69690476D01*
X87238095Y-69666666D01*
X87214285Y-69619047D01*
X87214285Y-69571428D01*
X87238095Y-69523809D01*
X87261904Y-69500000D01*
X87309523Y-69476190D01*
X87428571Y-69476190D01*
X87500000Y-69500000D01*
X87714285Y-69714285D02*
X87880952Y-69714285D01*
X87952380Y-69976190D02*
X87714285Y-69976190D01*
X87714285Y-69476190D01*
X87952380Y-69476190D01*
X88095238Y-69476190D02*
X88380952Y-69476190D01*
X88238095Y-69976190D02*
X88238095Y-69476190D01*
X88476190Y-69476190D02*
X88761904Y-69476190D01*
X88619047Y-69976190D02*
X88619047Y-69476190D01*
X88928571Y-69976190D02*
X88928571Y-69476190D01*
X89166666Y-69976190D02*
X89166666Y-69476190D01*
X89452380Y-69976190D01*
X89452380Y-69476190D01*
X89952380Y-69500000D02*
X89904761Y-69476190D01*
X89833333Y-69476190D01*
X89761904Y-69500000D01*
X89714285Y-69547619D01*
X89690476Y-69595238D01*
X89666666Y-69690476D01*
X89666666Y-69761904D01*
X89690476Y-69857142D01*
X89714285Y-69904761D01*
X89761904Y-69952380D01*
X89833333Y-69976190D01*
X89880952Y-69976190D01*
X89952380Y-69952380D01*
X89976190Y-69928571D01*
X89976190Y-69761904D01*
X89880952Y-69761904D01*
X90166666Y-69952380D02*
X90238095Y-69976190D01*
X90357142Y-69976190D01*
X90404761Y-69952380D01*
X90428571Y-69928571D01*
X90452380Y-69880952D01*
X90452380Y-69833333D01*
X90428571Y-69785714D01*
X90404761Y-69761904D01*
X90357142Y-69738095D01*
X90261904Y-69714285D01*
X90214285Y-69690476D01*
X90190476Y-69666666D01*
X90166666Y-69619047D01*
X90166666Y-69571428D01*
X90190476Y-69523809D01*
X90214285Y-69500000D01*
X90261904Y-69476190D01*
X90380952Y-69476190D01*
X90452380Y-69500000D01*
%TO.C,C1*%
X90416666Y-85978571D02*
X90392857Y-86002380D01*
X90321428Y-86026190D01*
X90273809Y-86026190D01*
X90202380Y-86002380D01*
X90154761Y-85954761D01*
X90130952Y-85907142D01*
X90107142Y-85811904D01*
X90107142Y-85740476D01*
X90130952Y-85645238D01*
X90154761Y-85597619D01*
X90202380Y-85550000D01*
X90273809Y-85526190D01*
X90321428Y-85526190D01*
X90392857Y-85550000D01*
X90416666Y-85573809D01*
X90892857Y-86026190D02*
X90607142Y-86026190D01*
X90750000Y-86026190D02*
X90750000Y-85526190D01*
X90702380Y-85597619D01*
X90654761Y-85645238D01*
X90607142Y-85669047D01*
X90416666Y-86826190D02*
X90130952Y-86826190D01*
X90273809Y-86826190D02*
X90273809Y-86326190D01*
X90226190Y-86397619D01*
X90178571Y-86445238D01*
X90130952Y-86469047D01*
X90845238Y-86492857D02*
X90845238Y-86826190D01*
X90630952Y-86492857D02*
X90630952Y-86754761D01*
X90654761Y-86802380D01*
X90702380Y-86826190D01*
X90773809Y-86826190D01*
X90821428Y-86802380D01*
X90845238Y-86778571D01*
%TO.C,C3*%
X90441666Y-84478571D02*
X90417857Y-84502380D01*
X90346428Y-84526190D01*
X90298809Y-84526190D01*
X90227380Y-84502380D01*
X90179761Y-84454761D01*
X90155952Y-84407142D01*
X90132142Y-84311904D01*
X90132142Y-84240476D01*
X90155952Y-84145238D01*
X90179761Y-84097619D01*
X90227380Y-84050000D01*
X90298809Y-84026190D01*
X90346428Y-84026190D01*
X90417857Y-84050000D01*
X90441666Y-84073809D01*
X90608333Y-84026190D02*
X90917857Y-84026190D01*
X90751190Y-84216666D01*
X90822619Y-84216666D01*
X90870238Y-84240476D01*
X90894047Y-84264285D01*
X90917857Y-84311904D01*
X90917857Y-84430952D01*
X90894047Y-84478571D01*
X90870238Y-84502380D01*
X90822619Y-84526190D01*
X90679761Y-84526190D01*
X90632142Y-84502380D01*
X90608333Y-84478571D01*
X90440476Y-85326190D02*
X90154761Y-85326190D01*
X90297619Y-85326190D02*
X90297619Y-84826190D01*
X90250000Y-84897619D01*
X90202380Y-84945238D01*
X90154761Y-84969047D01*
X90750000Y-84826190D02*
X90797619Y-84826190D01*
X90845238Y-84850000D01*
X90869047Y-84873809D01*
X90892857Y-84921428D01*
X90916666Y-85016666D01*
X90916666Y-85135714D01*
X90892857Y-85230952D01*
X90869047Y-85278571D01*
X90845238Y-85302380D01*
X90797619Y-85326190D01*
X90750000Y-85326190D01*
X90702380Y-85302380D01*
X90678571Y-85278571D01*
X90654761Y-85230952D01*
X90630952Y-85135714D01*
X90630952Y-85016666D01*
X90654761Y-84921428D01*
X90678571Y-84873809D01*
X90702380Y-84850000D01*
X90750000Y-84826190D01*
X91226190Y-84826190D02*
X91273809Y-84826190D01*
X91321428Y-84850000D01*
X91345238Y-84873809D01*
X91369047Y-84921428D01*
X91392857Y-85016666D01*
X91392857Y-85135714D01*
X91369047Y-85230952D01*
X91345238Y-85278571D01*
X91321428Y-85302380D01*
X91273809Y-85326190D01*
X91226190Y-85326190D01*
X91178571Y-85302380D01*
X91154761Y-85278571D01*
X91130952Y-85230952D01*
X91107142Y-85135714D01*
X91107142Y-85016666D01*
X91130952Y-84921428D01*
X91154761Y-84873809D01*
X91178571Y-84850000D01*
X91226190Y-84826190D01*
X91607142Y-84992857D02*
X91607142Y-85326190D01*
X91607142Y-85040476D02*
X91630952Y-85016666D01*
X91678571Y-84992857D01*
X91750000Y-84992857D01*
X91797619Y-85016666D01*
X91821428Y-85064285D01*
X91821428Y-85326190D01*
%TO.C,C7*%
X101678571Y-89133333D02*
X101702380Y-89157142D01*
X101726190Y-89228571D01*
X101726190Y-89276190D01*
X101702380Y-89347619D01*
X101654761Y-89395238D01*
X101607142Y-89419047D01*
X101511904Y-89442857D01*
X101440476Y-89442857D01*
X101345238Y-89419047D01*
X101297619Y-89395238D01*
X101250000Y-89347619D01*
X101226190Y-89276190D01*
X101226190Y-89228571D01*
X101250000Y-89157142D01*
X101273809Y-89133333D01*
X101226190Y-88966666D02*
X101226190Y-88633333D01*
X101726190Y-88847619D01*
X101726190Y-88109523D02*
X101726190Y-88395238D01*
X101726190Y-88252380D02*
X101226190Y-88252380D01*
X101297619Y-88300000D01*
X101345238Y-88347619D01*
X101369047Y-88395238D01*
X101226190Y-87800000D02*
X101226190Y-87752380D01*
X101250000Y-87704761D01*
X101273809Y-87680952D01*
X101321428Y-87657142D01*
X101416666Y-87633333D01*
X101535714Y-87633333D01*
X101630952Y-87657142D01*
X101678571Y-87680952D01*
X101702380Y-87704761D01*
X101726190Y-87752380D01*
X101726190Y-87800000D01*
X101702380Y-87847619D01*
X101678571Y-87871428D01*
X101630952Y-87895238D01*
X101535714Y-87919047D01*
X101416666Y-87919047D01*
X101321428Y-87895238D01*
X101273809Y-87871428D01*
X101250000Y-87847619D01*
X101226190Y-87800000D01*
X101226190Y-87323809D02*
X101226190Y-87276190D01*
X101250000Y-87228571D01*
X101273809Y-87204761D01*
X101321428Y-87180952D01*
X101416666Y-87157142D01*
X101535714Y-87157142D01*
X101630952Y-87180952D01*
X101678571Y-87204761D01*
X101702380Y-87228571D01*
X101726190Y-87276190D01*
X101726190Y-87323809D01*
X101702380Y-87371428D01*
X101678571Y-87395238D01*
X101630952Y-87419047D01*
X101535714Y-87442857D01*
X101416666Y-87442857D01*
X101321428Y-87419047D01*
X101273809Y-87395238D01*
X101250000Y-87371428D01*
X101226190Y-87323809D01*
X101392857Y-86942857D02*
X101726190Y-86942857D01*
X101440476Y-86942857D02*
X101416666Y-86919047D01*
X101392857Y-86871428D01*
X101392857Y-86800000D01*
X101416666Y-86752380D01*
X101464285Y-86728571D01*
X101726190Y-86728571D01*
%TO.C,U3*%
X92619047Y-75726190D02*
X92619047Y-76130952D01*
X92642857Y-76178571D01*
X92666666Y-76202380D01*
X92714285Y-76226190D01*
X92809523Y-76226190D01*
X92857142Y-76202380D01*
X92880952Y-76178571D01*
X92904761Y-76130952D01*
X92904761Y-75726190D01*
X93095238Y-75726190D02*
X93404761Y-75726190D01*
X93238095Y-75916666D01*
X93309523Y-75916666D01*
X93357142Y-75940476D01*
X93380952Y-75964285D01*
X93404761Y-76011904D01*
X93404761Y-76130952D01*
X93380952Y-76178571D01*
X93357142Y-76202380D01*
X93309523Y-76226190D01*
X93166666Y-76226190D01*
X93119047Y-76202380D01*
X93095238Y-76178571D01*
X94365476Y-75781190D02*
X94698809Y-75781190D01*
X94484523Y-76281190D01*
X95103571Y-75947857D02*
X95103571Y-76281190D01*
X94984523Y-75757380D02*
X94865476Y-76114523D01*
X95175000Y-76114523D01*
X95603571Y-76281190D02*
X95365476Y-76281190D01*
X95365476Y-75781190D01*
X95746428Y-76257380D02*
X95817857Y-76281190D01*
X95936904Y-76281190D01*
X95984523Y-76257380D01*
X96008333Y-76233571D01*
X96032142Y-76185952D01*
X96032142Y-76138333D01*
X96008333Y-76090714D01*
X95984523Y-76066904D01*
X95936904Y-76043095D01*
X95841666Y-76019285D01*
X95794047Y-75995476D01*
X95770238Y-75971666D01*
X95746428Y-75924047D01*
X95746428Y-75876428D01*
X95770238Y-75828809D01*
X95794047Y-75805000D01*
X95841666Y-75781190D01*
X95960714Y-75781190D01*
X96032142Y-75805000D01*
X96198809Y-75781190D02*
X96508333Y-75781190D01*
X96341666Y-75971666D01*
X96413095Y-75971666D01*
X96460714Y-75995476D01*
X96484523Y-76019285D01*
X96508333Y-76066904D01*
X96508333Y-76185952D01*
X96484523Y-76233571D01*
X96460714Y-76257380D01*
X96413095Y-76281190D01*
X96270238Y-76281190D01*
X96222619Y-76257380D01*
X96198809Y-76233571D01*
X96936904Y-75781190D02*
X96841666Y-75781190D01*
X96794047Y-75805000D01*
X96770238Y-75828809D01*
X96722619Y-75900238D01*
X96698809Y-75995476D01*
X96698809Y-76185952D01*
X96722619Y-76233571D01*
X96746428Y-76257380D01*
X96794047Y-76281190D01*
X96889285Y-76281190D01*
X96936904Y-76257380D01*
X96960714Y-76233571D01*
X96984523Y-76185952D01*
X96984523Y-76066904D01*
X96960714Y-76019285D01*
X96936904Y-75995476D01*
X96889285Y-75971666D01*
X96794047Y-75971666D01*
X96746428Y-75995476D01*
X96722619Y-76019285D01*
X96698809Y-76066904D01*
X97436904Y-75781190D02*
X97198809Y-75781190D01*
X97175000Y-76019285D01*
X97198809Y-75995476D01*
X97246428Y-75971666D01*
X97365476Y-75971666D01*
X97413095Y-75995476D01*
X97436904Y-76019285D01*
X97460714Y-76066904D01*
X97460714Y-76185952D01*
X97436904Y-76233571D01*
X97413095Y-76257380D01*
X97365476Y-76281190D01*
X97246428Y-76281190D01*
X97198809Y-76257380D01*
X97175000Y-76233571D01*
%TO.C,J3*%
X84583333Y-89226190D02*
X84583333Y-89583333D01*
X84559523Y-89654761D01*
X84511904Y-89702380D01*
X84440476Y-89726190D01*
X84392857Y-89726190D01*
X84773809Y-89226190D02*
X85083333Y-89226190D01*
X84916666Y-89416666D01*
X84988095Y-89416666D01*
X85035714Y-89440476D01*
X85059523Y-89464285D01*
X85083333Y-89511904D01*
X85083333Y-89630952D01*
X85059523Y-89678571D01*
X85035714Y-89702380D01*
X84988095Y-89726190D01*
X84845238Y-89726190D01*
X84797619Y-89702380D01*
X84773809Y-89678571D01*
%TO.C,C4*%
X83316666Y-84478571D02*
X83292857Y-84502380D01*
X83221428Y-84526190D01*
X83173809Y-84526190D01*
X83102380Y-84502380D01*
X83054761Y-84454761D01*
X83030952Y-84407142D01*
X83007142Y-84311904D01*
X83007142Y-84240476D01*
X83030952Y-84145238D01*
X83054761Y-84097619D01*
X83102380Y-84050000D01*
X83173809Y-84026190D01*
X83221428Y-84026190D01*
X83292857Y-84050000D01*
X83316666Y-84073809D01*
X83745238Y-84192857D02*
X83745238Y-84526190D01*
X83626190Y-84002380D02*
X83507142Y-84359523D01*
X83816666Y-84359523D01*
X83316666Y-85226190D02*
X83030952Y-85226190D01*
X83173809Y-85226190D02*
X83173809Y-84726190D01*
X83126190Y-84797619D01*
X83078571Y-84845238D01*
X83030952Y-84869047D01*
X83745238Y-84892857D02*
X83745238Y-85226190D01*
X83530952Y-84892857D02*
X83530952Y-85154761D01*
X83554761Y-85202380D01*
X83602380Y-85226190D01*
X83673809Y-85226190D01*
X83721428Y-85202380D01*
X83745238Y-85178571D01*
%TO.C,R10*%
X102726190Y-76321428D02*
X102488095Y-76488095D01*
X102726190Y-76607142D02*
X102226190Y-76607142D01*
X102226190Y-76416666D01*
X102250000Y-76369047D01*
X102273809Y-76345238D01*
X102321428Y-76321428D01*
X102392857Y-76321428D01*
X102440476Y-76345238D01*
X102464285Y-76369047D01*
X102488095Y-76416666D01*
X102488095Y-76607142D01*
X102726190Y-75845238D02*
X102726190Y-76130952D01*
X102726190Y-75988095D02*
X102226190Y-75988095D01*
X102297619Y-76035714D01*
X102345238Y-76083333D01*
X102369047Y-76130952D01*
X102226190Y-75535714D02*
X102226190Y-75488095D01*
X102250000Y-75440476D01*
X102273809Y-75416666D01*
X102321428Y-75392857D01*
X102416666Y-75369047D01*
X102535714Y-75369047D01*
X102630952Y-75392857D01*
X102678571Y-75416666D01*
X102702380Y-75440476D01*
X102726190Y-75488095D01*
X102726190Y-75535714D01*
X102702380Y-75583333D01*
X102678571Y-75607142D01*
X102630952Y-75630952D01*
X102535714Y-75654761D01*
X102416666Y-75654761D01*
X102321428Y-75630952D01*
X102273809Y-75607142D01*
X102250000Y-75583333D01*
X102226190Y-75535714D01*
X102726190Y-74758333D02*
X102726190Y-75044047D01*
X102726190Y-74901190D02*
X102226190Y-74901190D01*
X102297619Y-74948809D01*
X102345238Y-74996428D01*
X102369047Y-75044047D01*
X102226190Y-74448809D02*
X102226190Y-74401190D01*
X102250000Y-74353571D01*
X102273809Y-74329761D01*
X102321428Y-74305952D01*
X102416666Y-74282142D01*
X102535714Y-74282142D01*
X102630952Y-74305952D01*
X102678571Y-74329761D01*
X102702380Y-74353571D01*
X102726190Y-74401190D01*
X102726190Y-74448809D01*
X102702380Y-74496428D01*
X102678571Y-74520238D01*
X102630952Y-74544047D01*
X102535714Y-74567857D01*
X102416666Y-74567857D01*
X102321428Y-74544047D01*
X102273809Y-74520238D01*
X102250000Y-74496428D01*
X102226190Y-74448809D01*
X102226190Y-73972619D02*
X102226190Y-73925000D01*
X102250000Y-73877380D01*
X102273809Y-73853571D01*
X102321428Y-73829761D01*
X102416666Y-73805952D01*
X102535714Y-73805952D01*
X102630952Y-73829761D01*
X102678571Y-73853571D01*
X102702380Y-73877380D01*
X102726190Y-73925000D01*
X102726190Y-73972619D01*
X102702380Y-74020238D01*
X102678571Y-74044047D01*
X102630952Y-74067857D01*
X102535714Y-74091666D01*
X102416666Y-74091666D01*
X102321428Y-74067857D01*
X102273809Y-74044047D01*
X102250000Y-74020238D01*
X102226190Y-73972619D01*
%TO.C,R4*%
X96391666Y-70401190D02*
X96225000Y-70163095D01*
X96105952Y-70401190D02*
X96105952Y-69901190D01*
X96296428Y-69901190D01*
X96344047Y-69925000D01*
X96367857Y-69948809D01*
X96391666Y-69996428D01*
X96391666Y-70067857D01*
X96367857Y-70115476D01*
X96344047Y-70139285D01*
X96296428Y-70163095D01*
X96105952Y-70163095D01*
X96820238Y-70067857D02*
X96820238Y-70401190D01*
X96701190Y-69877380D02*
X96582142Y-70234523D01*
X96891666Y-70234523D01*
X96202380Y-74151190D02*
X95916666Y-74151190D01*
X96059523Y-74151190D02*
X96059523Y-73651190D01*
X96011904Y-73722619D01*
X95964285Y-73770238D01*
X95916666Y-73794047D01*
X96511904Y-73651190D02*
X96559523Y-73651190D01*
X96607142Y-73675000D01*
X96630952Y-73698809D01*
X96654761Y-73746428D01*
X96678571Y-73841666D01*
X96678571Y-73960714D01*
X96654761Y-74055952D01*
X96630952Y-74103571D01*
X96607142Y-74127380D01*
X96559523Y-74151190D01*
X96511904Y-74151190D01*
X96464285Y-74127380D01*
X96440476Y-74103571D01*
X96416666Y-74055952D01*
X96392857Y-73960714D01*
X96392857Y-73841666D01*
X96416666Y-73746428D01*
X96440476Y-73698809D01*
X96464285Y-73675000D01*
X96511904Y-73651190D01*
X96892857Y-74151190D02*
X96892857Y-73651190D01*
X96940476Y-73960714D02*
X97083333Y-74151190D01*
X97083333Y-73817857D02*
X96892857Y-74008333D01*
%TO.C,J2*%
X82113333Y-69596190D02*
X82113333Y-69953333D01*
X82089523Y-70024761D01*
X82041904Y-70072380D01*
X81970476Y-70096190D01*
X81922857Y-70096190D01*
X82327619Y-69643809D02*
X82351428Y-69620000D01*
X82399047Y-69596190D01*
X82518095Y-69596190D01*
X82565714Y-69620000D01*
X82589523Y-69643809D01*
X82613333Y-69691428D01*
X82613333Y-69739047D01*
X82589523Y-69810476D01*
X82303809Y-70096190D01*
X82613333Y-70096190D01*
X79607142Y-85826190D02*
X79607142Y-85326190D01*
X79797619Y-85326190D01*
X79845238Y-85350000D01*
X79869047Y-85373809D01*
X79892857Y-85421428D01*
X79892857Y-85492857D01*
X79869047Y-85540476D01*
X79845238Y-85564285D01*
X79797619Y-85588095D01*
X79607142Y-85588095D01*
X80392857Y-85826190D02*
X80226190Y-85588095D01*
X80107142Y-85826190D02*
X80107142Y-85326190D01*
X80297619Y-85326190D01*
X80345238Y-85350000D01*
X80369047Y-85373809D01*
X80392857Y-85421428D01*
X80392857Y-85492857D01*
X80369047Y-85540476D01*
X80345238Y-85564285D01*
X80297619Y-85588095D01*
X80107142Y-85588095D01*
X80702380Y-85326190D02*
X80797619Y-85326190D01*
X80845238Y-85350000D01*
X80892857Y-85397619D01*
X80916666Y-85492857D01*
X80916666Y-85659523D01*
X80892857Y-85754761D01*
X80845238Y-85802380D01*
X80797619Y-85826190D01*
X80702380Y-85826190D01*
X80654761Y-85802380D01*
X80607142Y-85754761D01*
X80583333Y-85659523D01*
X80583333Y-85492857D01*
X80607142Y-85397619D01*
X80654761Y-85350000D01*
X80702380Y-85326190D01*
X81392857Y-85350000D02*
X81345238Y-85326190D01*
X81273809Y-85326190D01*
X81202380Y-85350000D01*
X81154761Y-85397619D01*
X81130952Y-85445238D01*
X81107142Y-85540476D01*
X81107142Y-85611904D01*
X81130952Y-85707142D01*
X81154761Y-85754761D01*
X81202380Y-85802380D01*
X81273809Y-85826190D01*
X81321428Y-85826190D01*
X81392857Y-85802380D01*
X81416666Y-85778571D01*
X81416666Y-85611904D01*
X81321428Y-85611904D01*
X81916666Y-85826190D02*
X81750000Y-85588095D01*
X81630952Y-85826190D02*
X81630952Y-85326190D01*
X81821428Y-85326190D01*
X81869047Y-85350000D01*
X81892857Y-85373809D01*
X81916666Y-85421428D01*
X81916666Y-85492857D01*
X81892857Y-85540476D01*
X81869047Y-85564285D01*
X81821428Y-85588095D01*
X81630952Y-85588095D01*
X82107142Y-85683333D02*
X82345238Y-85683333D01*
X82059523Y-85826190D02*
X82226190Y-85326190D01*
X82392857Y-85826190D01*
X82559523Y-85826190D02*
X82559523Y-85326190D01*
X82726190Y-85683333D01*
X82892857Y-85326190D01*
X82892857Y-85826190D01*
%TO.C,R3*%
X94666666Y-70401190D02*
X94500000Y-70163095D01*
X94380952Y-70401190D02*
X94380952Y-69901190D01*
X94571428Y-69901190D01*
X94619047Y-69925000D01*
X94642857Y-69948809D01*
X94666666Y-69996428D01*
X94666666Y-70067857D01*
X94642857Y-70115476D01*
X94619047Y-70139285D01*
X94571428Y-70163095D01*
X94380952Y-70163095D01*
X94833333Y-69901190D02*
X95142857Y-69901190D01*
X94976190Y-70091666D01*
X95047619Y-70091666D01*
X95095238Y-70115476D01*
X95119047Y-70139285D01*
X95142857Y-70186904D01*
X95142857Y-70305952D01*
X95119047Y-70353571D01*
X95095238Y-70377380D01*
X95047619Y-70401190D01*
X94904761Y-70401190D01*
X94857142Y-70377380D01*
X94833333Y-70353571D01*
X94452380Y-74151190D02*
X94166666Y-74151190D01*
X94309523Y-74151190D02*
X94309523Y-73651190D01*
X94261904Y-73722619D01*
X94214285Y-73770238D01*
X94166666Y-73794047D01*
X94761904Y-73651190D02*
X94809523Y-73651190D01*
X94857142Y-73675000D01*
X94880952Y-73698809D01*
X94904761Y-73746428D01*
X94928571Y-73841666D01*
X94928571Y-73960714D01*
X94904761Y-74055952D01*
X94880952Y-74103571D01*
X94857142Y-74127380D01*
X94809523Y-74151190D01*
X94761904Y-74151190D01*
X94714285Y-74127380D01*
X94690476Y-74103571D01*
X94666666Y-74055952D01*
X94642857Y-73960714D01*
X94642857Y-73841666D01*
X94666666Y-73746428D01*
X94690476Y-73698809D01*
X94714285Y-73675000D01*
X94761904Y-73651190D01*
X95142857Y-74151190D02*
X95142857Y-73651190D01*
X95190476Y-73960714D02*
X95333333Y-74151190D01*
X95333333Y-73817857D02*
X95142857Y-74008333D01*
%TO.C,C5*%
X100428571Y-73033333D02*
X100452380Y-73057142D01*
X100476190Y-73128571D01*
X100476190Y-73176190D01*
X100452380Y-73247619D01*
X100404761Y-73295238D01*
X100357142Y-73319047D01*
X100261904Y-73342857D01*
X100190476Y-73342857D01*
X100095238Y-73319047D01*
X100047619Y-73295238D01*
X100000000Y-73247619D01*
X99976190Y-73176190D01*
X99976190Y-73128571D01*
X100000000Y-73057142D01*
X100023809Y-73033333D01*
X99976190Y-72580952D02*
X99976190Y-72819047D01*
X100214285Y-72842857D01*
X100190476Y-72819047D01*
X100166666Y-72771428D01*
X100166666Y-72652380D01*
X100190476Y-72604761D01*
X100214285Y-72580952D01*
X100261904Y-72557142D01*
X100380952Y-72557142D01*
X100428571Y-72580952D01*
X100452380Y-72604761D01*
X100476190Y-72652380D01*
X100476190Y-72771428D01*
X100452380Y-72819047D01*
X100428571Y-72842857D01*
X100476190Y-72009523D02*
X100476190Y-72295238D01*
X100476190Y-72152380D02*
X99976190Y-72152380D01*
X100047619Y-72200000D01*
X100095238Y-72247619D01*
X100119047Y-72295238D01*
X99976190Y-71700000D02*
X99976190Y-71652380D01*
X100000000Y-71604761D01*
X100023809Y-71580952D01*
X100071428Y-71557142D01*
X100166666Y-71533333D01*
X100285714Y-71533333D01*
X100380952Y-71557142D01*
X100428571Y-71580952D01*
X100452380Y-71604761D01*
X100476190Y-71652380D01*
X100476190Y-71700000D01*
X100452380Y-71747619D01*
X100428571Y-71771428D01*
X100380952Y-71795238D01*
X100285714Y-71819047D01*
X100166666Y-71819047D01*
X100071428Y-71795238D01*
X100023809Y-71771428D01*
X100000000Y-71747619D01*
X99976190Y-71700000D01*
X99976190Y-71223809D02*
X99976190Y-71176190D01*
X100000000Y-71128571D01*
X100023809Y-71104761D01*
X100071428Y-71080952D01*
X100166666Y-71057142D01*
X100285714Y-71057142D01*
X100380952Y-71080952D01*
X100428571Y-71104761D01*
X100452380Y-71128571D01*
X100476190Y-71176190D01*
X100476190Y-71223809D01*
X100452380Y-71271428D01*
X100428571Y-71295238D01*
X100380952Y-71319047D01*
X100285714Y-71342857D01*
X100166666Y-71342857D01*
X100071428Y-71319047D01*
X100023809Y-71295238D01*
X100000000Y-71271428D01*
X99976190Y-71223809D01*
X100142857Y-70842857D02*
X100476190Y-70842857D01*
X100190476Y-70842857D02*
X100166666Y-70819047D01*
X100142857Y-70771428D01*
X100142857Y-70700000D01*
X100166666Y-70652380D01*
X100214285Y-70628571D01*
X100476190Y-70628571D01*
%TO.C,C2*%
X83241666Y-86478571D02*
X83217857Y-86502380D01*
X83146428Y-86526190D01*
X83098809Y-86526190D01*
X83027380Y-86502380D01*
X82979761Y-86454761D01*
X82955952Y-86407142D01*
X82932142Y-86311904D01*
X82932142Y-86240476D01*
X82955952Y-86145238D01*
X82979761Y-86097619D01*
X83027380Y-86050000D01*
X83098809Y-86026190D01*
X83146428Y-86026190D01*
X83217857Y-86050000D01*
X83241666Y-86073809D01*
X83432142Y-86073809D02*
X83455952Y-86050000D01*
X83503571Y-86026190D01*
X83622619Y-86026190D01*
X83670238Y-86050000D01*
X83694047Y-86073809D01*
X83717857Y-86121428D01*
X83717857Y-86169047D01*
X83694047Y-86240476D01*
X83408333Y-86526190D01*
X83717857Y-86526190D01*
X82365476Y-87226190D02*
X82079761Y-87226190D01*
X82222619Y-87226190D02*
X82222619Y-86726190D01*
X82175000Y-86797619D01*
X82127380Y-86845238D01*
X82079761Y-86869047D01*
X82675000Y-86726190D02*
X82722619Y-86726190D01*
X82770238Y-86750000D01*
X82794047Y-86773809D01*
X82817857Y-86821428D01*
X82841666Y-86916666D01*
X82841666Y-87035714D01*
X82817857Y-87130952D01*
X82794047Y-87178571D01*
X82770238Y-87202380D01*
X82722619Y-87226190D01*
X82675000Y-87226190D01*
X82627380Y-87202380D01*
X82603571Y-87178571D01*
X82579761Y-87130952D01*
X82555952Y-87035714D01*
X82555952Y-86916666D01*
X82579761Y-86821428D01*
X82603571Y-86773809D01*
X82627380Y-86750000D01*
X82675000Y-86726190D01*
X83151190Y-86726190D02*
X83198809Y-86726190D01*
X83246428Y-86750000D01*
X83270238Y-86773809D01*
X83294047Y-86821428D01*
X83317857Y-86916666D01*
X83317857Y-87035714D01*
X83294047Y-87130952D01*
X83270238Y-87178571D01*
X83246428Y-87202380D01*
X83198809Y-87226190D01*
X83151190Y-87226190D01*
X83103571Y-87202380D01*
X83079761Y-87178571D01*
X83055952Y-87130952D01*
X83032142Y-87035714D01*
X83032142Y-86916666D01*
X83055952Y-86821428D01*
X83079761Y-86773809D01*
X83103571Y-86750000D01*
X83151190Y-86726190D01*
X83532142Y-86892857D02*
X83532142Y-87226190D01*
X83532142Y-86940476D02*
X83555952Y-86916666D01*
X83603571Y-86892857D01*
X83675000Y-86892857D01*
X83722619Y-86916666D01*
X83746428Y-86964285D01*
X83746428Y-87226190D01*
%TO.C,R6*%
X101726190Y-81333333D02*
X101488095Y-81500000D01*
X101726190Y-81619047D02*
X101226190Y-81619047D01*
X101226190Y-81428571D01*
X101250000Y-81380952D01*
X101273809Y-81357142D01*
X101321428Y-81333333D01*
X101392857Y-81333333D01*
X101440476Y-81357142D01*
X101464285Y-81380952D01*
X101488095Y-81428571D01*
X101488095Y-81619047D01*
X101226190Y-80904761D02*
X101226190Y-81000000D01*
X101250000Y-81047619D01*
X101273809Y-81071428D01*
X101345238Y-81119047D01*
X101440476Y-81142857D01*
X101630952Y-81142857D01*
X101678571Y-81119047D01*
X101702380Y-81095238D01*
X101726190Y-81047619D01*
X101726190Y-80952380D01*
X101702380Y-80904761D01*
X101678571Y-80880952D01*
X101630952Y-80857142D01*
X101511904Y-80857142D01*
X101464285Y-80880952D01*
X101440476Y-80904761D01*
X101416666Y-80952380D01*
X101416666Y-81047619D01*
X101440476Y-81095238D01*
X101464285Y-81119047D01*
X101511904Y-81142857D01*
X101726190Y-79547619D02*
X101726190Y-79833333D01*
X101726190Y-79690476D02*
X101226190Y-79690476D01*
X101297619Y-79738095D01*
X101345238Y-79785714D01*
X101369047Y-79833333D01*
X101226190Y-79238095D02*
X101226190Y-79190476D01*
X101250000Y-79142857D01*
X101273809Y-79119047D01*
X101321428Y-79095238D01*
X101416666Y-79071428D01*
X101535714Y-79071428D01*
X101630952Y-79095238D01*
X101678571Y-79119047D01*
X101702380Y-79142857D01*
X101726190Y-79190476D01*
X101726190Y-79238095D01*
X101702380Y-79285714D01*
X101678571Y-79309523D01*
X101630952Y-79333333D01*
X101535714Y-79357142D01*
X101416666Y-79357142D01*
X101321428Y-79333333D01*
X101273809Y-79309523D01*
X101250000Y-79285714D01*
X101226190Y-79238095D01*
X101726190Y-78857142D02*
X101226190Y-78857142D01*
X101535714Y-78809523D02*
X101726190Y-78666666D01*
X101392857Y-78666666D02*
X101583333Y-78857142D01*
%TO.C,J1*%
X80083333Y-91976190D02*
X80083333Y-92333333D01*
X80059523Y-92404761D01*
X80011904Y-92452380D01*
X79940476Y-92476190D01*
X79892857Y-92476190D01*
X80583333Y-92476190D02*
X80297619Y-92476190D01*
X80440476Y-92476190D02*
X80440476Y-91976190D01*
X80392857Y-92047619D01*
X80345238Y-92095238D01*
X80297619Y-92119047D01*
X79583333Y-95170476D02*
X79583333Y-94932380D01*
X79726190Y-95218095D02*
X79226190Y-95051428D01*
X79726190Y-94884761D01*
X79726190Y-94718095D02*
X79226190Y-94718095D01*
X79226190Y-94599047D01*
X79250000Y-94527619D01*
X79297619Y-94480000D01*
X79345238Y-94456190D01*
X79440476Y-94432380D01*
X79511904Y-94432380D01*
X79607142Y-94456190D01*
X79654761Y-94480000D01*
X79702380Y-94527619D01*
X79726190Y-94599047D01*
X79726190Y-94718095D01*
X79678571Y-93932380D02*
X79702380Y-93956190D01*
X79726190Y-94027619D01*
X79726190Y-94075238D01*
X79702380Y-94146666D01*
X79654761Y-94194285D01*
X79607142Y-94218095D01*
X79511904Y-94241904D01*
X79440476Y-94241904D01*
X79345238Y-94218095D01*
X79297619Y-94194285D01*
X79250000Y-94146666D01*
X79226190Y-94075238D01*
X79226190Y-94027619D01*
X79250000Y-93956190D01*
X79273809Y-93932380D01*
X79726190Y-93337142D02*
X79226190Y-93337142D01*
X79726190Y-93099047D02*
X79226190Y-93099047D01*
X79726190Y-92813333D01*
X79226190Y-92813333D01*
%TO.C,R2*%
X80216666Y-88626190D02*
X80050000Y-88388095D01*
X79930952Y-88626190D02*
X79930952Y-88126190D01*
X80121428Y-88126190D01*
X80169047Y-88150000D01*
X80192857Y-88173809D01*
X80216666Y-88221428D01*
X80216666Y-88292857D01*
X80192857Y-88340476D01*
X80169047Y-88364285D01*
X80121428Y-88388095D01*
X79930952Y-88388095D01*
X80407142Y-88173809D02*
X80430952Y-88150000D01*
X80478571Y-88126190D01*
X80597619Y-88126190D01*
X80645238Y-88150000D01*
X80669047Y-88173809D01*
X80692857Y-88221428D01*
X80692857Y-88269047D01*
X80669047Y-88340476D01*
X80383333Y-88626190D01*
X80692857Y-88626190D01*
X82002380Y-88626190D02*
X81716666Y-88626190D01*
X81859523Y-88626190D02*
X81859523Y-88126190D01*
X81811904Y-88197619D01*
X81764285Y-88245238D01*
X81716666Y-88269047D01*
X82311904Y-88126190D02*
X82359523Y-88126190D01*
X82407142Y-88150000D01*
X82430952Y-88173809D01*
X82454761Y-88221428D01*
X82478571Y-88316666D01*
X82478571Y-88435714D01*
X82454761Y-88530952D01*
X82430952Y-88578571D01*
X82407142Y-88602380D01*
X82359523Y-88626190D01*
X82311904Y-88626190D01*
X82264285Y-88602380D01*
X82240476Y-88578571D01*
X82216666Y-88530952D01*
X82192857Y-88435714D01*
X82192857Y-88316666D01*
X82216666Y-88221428D01*
X82240476Y-88173809D01*
X82264285Y-88150000D01*
X82311904Y-88126190D01*
X82692857Y-88626190D02*
X82692857Y-88126190D01*
X82740476Y-88435714D02*
X82883333Y-88626190D01*
X82883333Y-88292857D02*
X82692857Y-88483333D01*
%TO.C,R5*%
X91166666Y-74051190D02*
X91000000Y-73813095D01*
X90880952Y-74051190D02*
X90880952Y-73551190D01*
X91071428Y-73551190D01*
X91119047Y-73575000D01*
X91142857Y-73598809D01*
X91166666Y-73646428D01*
X91166666Y-73717857D01*
X91142857Y-73765476D01*
X91119047Y-73789285D01*
X91071428Y-73813095D01*
X90880952Y-73813095D01*
X91619047Y-73551190D02*
X91380952Y-73551190D01*
X91357142Y-73789285D01*
X91380952Y-73765476D01*
X91428571Y-73741666D01*
X91547619Y-73741666D01*
X91595238Y-73765476D01*
X91619047Y-73789285D01*
X91642857Y-73836904D01*
X91642857Y-73955952D01*
X91619047Y-74003571D01*
X91595238Y-74027380D01*
X91547619Y-74051190D01*
X91428571Y-74051190D01*
X91380952Y-74027380D01*
X91357142Y-74003571D01*
X90952380Y-70301190D02*
X90666666Y-70301190D01*
X90809523Y-70301190D02*
X90809523Y-69801190D01*
X90761904Y-69872619D01*
X90714285Y-69920238D01*
X90666666Y-69944047D01*
X91261904Y-69801190D02*
X91309523Y-69801190D01*
X91357142Y-69825000D01*
X91380952Y-69848809D01*
X91404761Y-69896428D01*
X91428571Y-69991666D01*
X91428571Y-70110714D01*
X91404761Y-70205952D01*
X91380952Y-70253571D01*
X91357142Y-70277380D01*
X91309523Y-70301190D01*
X91261904Y-70301190D01*
X91214285Y-70277380D01*
X91190476Y-70253571D01*
X91166666Y-70205952D01*
X91142857Y-70110714D01*
X91142857Y-69991666D01*
X91166666Y-69896428D01*
X91190476Y-69848809D01*
X91214285Y-69825000D01*
X91261904Y-69801190D01*
X91642857Y-70301190D02*
X91642857Y-69801190D01*
X91690476Y-70110714D02*
X91833333Y-70301190D01*
X91833333Y-69967857D02*
X91642857Y-70158333D01*
D13*
%TO.C,R8*%
X92477500Y-71762742D02*
X92477500Y-72237258D01*
X93522500Y-71762742D02*
X93522500Y-72237258D01*
%TO.C,R1*%
X81087742Y-91772500D02*
X81562258Y-91772500D01*
X81087742Y-90727500D02*
X81562258Y-90727500D01*
%TO.C,U1*%
X83390000Y-82850000D02*
X83390000Y-76840000D01*
X90210000Y-76840000D02*
X88950000Y-76840000D01*
X90210000Y-80600000D02*
X90210000Y-76840000D01*
X83390000Y-76840000D02*
X84650000Y-76840000D01*
%TO.C,D1*%
X102235000Y-72837500D02*
X102235000Y-70552500D01*
X102235000Y-70552500D02*
X100765000Y-70552500D01*
X100765000Y-70552500D02*
X100765000Y-72837500D01*
%TO.C,SW1*%
X89375000Y-72425000D02*
X89375000Y-71725000D01*
X89375000Y-73825000D02*
X89375000Y-73725000D01*
X89375000Y-70325000D02*
X84475000Y-70325000D01*
X84475000Y-70325000D02*
X84475000Y-70425000D01*
X84475000Y-73825000D02*
X84475000Y-73725000D01*
X84475000Y-72425000D02*
X84475000Y-71725000D01*
X84475000Y-73825000D02*
X89375000Y-73825000D01*
X89375000Y-70425000D02*
X89375000Y-70325000D01*
%TO.C,C1*%
X88359420Y-85690000D02*
X88640580Y-85690000D01*
X88359420Y-86710000D02*
X88640580Y-86710000D01*
%TO.C,C3*%
X88359420Y-85210000D02*
X88640580Y-85210000D01*
X88359420Y-84190000D02*
X88640580Y-84190000D01*
%TO.C,C7*%
X99990000Y-87884420D02*
X99990000Y-88165580D01*
X101010000Y-87884420D02*
X101010000Y-88165580D01*
%TO.C,U3*%
X95925000Y-76495000D02*
X92475000Y-76495000D01*
X95925000Y-86615000D02*
X93975000Y-86615000D01*
X95925000Y-86615000D02*
X97875000Y-86615000D01*
X95925000Y-76495000D02*
X97875000Y-76495000D01*
%TO.C,J3*%
X87630000Y-97790000D02*
X87630000Y-90170000D01*
X100330000Y-97790000D02*
X100330000Y-90170000D01*
X85030000Y-90110000D02*
X85030000Y-91440000D01*
X86360000Y-90110000D02*
X85030000Y-90110000D01*
X100330000Y-90170000D02*
X86995000Y-90170000D01*
X100330000Y-97790000D02*
X85090000Y-97790000D01*
X85090000Y-97790000D02*
X85090000Y-92075000D01*
%TO.C,C4*%
X85540580Y-85210000D02*
X85259420Y-85210000D01*
X85540580Y-84190000D02*
X85259420Y-84190000D01*
%TO.C,R10*%
X100977500Y-75487258D02*
X100977500Y-75012742D01*
X102022500Y-75487258D02*
X102022500Y-75012742D01*
%TO.C,R4*%
X95977500Y-71762742D02*
X95977500Y-72237258D01*
X97022500Y-71762742D02*
X97022500Y-72237258D01*
%TO.C,J2*%
X79950000Y-72390000D02*
X82610000Y-72390000D01*
X82610000Y-72390000D02*
X82610000Y-85150000D01*
X79950000Y-69790000D02*
X81280000Y-69790000D01*
X79950000Y-71120000D02*
X79950000Y-69790000D01*
X79950000Y-72390000D02*
X79950000Y-85150000D01*
X79950000Y-85150000D02*
X82610000Y-85150000D01*
%TO.C,R3*%
X95272500Y-71762742D02*
X95272500Y-72237258D01*
X94227500Y-71762742D02*
X94227500Y-72237258D01*
%TO.C,C5*%
X99760000Y-71834420D02*
X99760000Y-72115580D01*
X98740000Y-71834420D02*
X98740000Y-72115580D01*
%TO.C,C2*%
X85540580Y-86710000D02*
X85259420Y-86710000D01*
X85540580Y-85690000D02*
X85259420Y-85690000D01*
%TO.C,R6*%
X99977500Y-80412258D02*
X99977500Y-79937742D01*
X101022500Y-80412258D02*
X101022500Y-79937742D01*
%TO.C,J1*%
X79950000Y-92650000D02*
X81280000Y-92650000D01*
X79950000Y-95250000D02*
X82610000Y-95250000D01*
X79950000Y-95250000D02*
X79950000Y-97850000D01*
X82610000Y-95250000D02*
X82610000Y-97850000D01*
X79950000Y-97850000D02*
X82610000Y-97850000D01*
X79950000Y-93980000D02*
X79950000Y-92650000D01*
%TO.C,R2*%
X81562258Y-88977500D02*
X81087742Y-88977500D01*
X81562258Y-90022500D02*
X81087742Y-90022500D01*
%TO.C,R5*%
X90727500Y-72237258D02*
X90727500Y-71762742D01*
X91772500Y-72237258D02*
X91772500Y-71762742D01*
%TD*%
M02*
