%TF.GenerationSoftware,KiCad,Pcbnew,(6.0.8)*%
%TF.CreationDate,2022-11-21T19:10:27+00:00*%
%TF.ProjectId,m-link-plus,6d2d6c69-6e6b-42d7-906c-75732e6b6963,rev?*%
%TF.SameCoordinates,Original*%
%TF.FileFunction,Legend,Bot*%
%TF.FilePolarity,Positive*%
%FSLAX46Y46*%
G04 Gerber Fmt 4.6, Leading zero omitted, Abs format (unit mm)*
G04 Created by KiCad (PCBNEW (6.0.8)) date 2022-11-21 19:10:27*
%MOMM*%
%LPD*%
G01*
G04 APERTURE LIST*
%ADD10C,0.125000*%
%ADD11C,0.250000*%
%ADD12C,0.187500*%
%ADD13C,0.500000*%
%ADD14C,0.120000*%
G04 APERTURE END LIST*
D10*
X82880952Y-74026190D02*
X82595238Y-74026190D01*
X82738095Y-74526190D02*
X82738095Y-74026190D01*
X82476190Y-74026190D02*
X82142857Y-74526190D01*
X82142857Y-74026190D02*
X82476190Y-74526190D01*
X79250000Y-96869047D02*
X79226190Y-96821428D01*
X79226190Y-96750000D01*
X79250000Y-96678571D01*
X79297619Y-96630952D01*
X79345238Y-96607142D01*
X79440476Y-96583333D01*
X79511904Y-96583333D01*
X79607142Y-96607142D01*
X79654761Y-96630952D01*
X79702380Y-96678571D01*
X79726190Y-96750000D01*
X79726190Y-96797619D01*
X79702380Y-96869047D01*
X79678571Y-96892857D01*
X79511904Y-96892857D01*
X79511904Y-96797619D01*
X79726190Y-97107142D02*
X79226190Y-97107142D01*
X79726190Y-97392857D01*
X79226190Y-97392857D01*
X79726190Y-97630952D02*
X79226190Y-97630952D01*
X79226190Y-97750000D01*
X79250000Y-97821428D01*
X79297619Y-97869047D01*
X79345238Y-97892857D01*
X79440476Y-97916666D01*
X79511904Y-97916666D01*
X79607142Y-97892857D01*
X79654761Y-97869047D01*
X79702380Y-97821428D01*
X79726190Y-97750000D01*
X79726190Y-97630952D01*
D11*
X97119047Y-70952380D02*
X97119047Y-71666666D01*
X97166666Y-71809523D01*
X97261904Y-71904761D01*
X97404761Y-71952380D01*
X97500000Y-71952380D01*
X96166666Y-71952380D02*
X96642857Y-71952380D01*
X96642857Y-70952380D01*
X95261904Y-71857142D02*
X95309523Y-71904761D01*
X95452380Y-71952380D01*
X95547619Y-71952380D01*
X95690476Y-71904761D01*
X95785714Y-71809523D01*
X95833333Y-71714285D01*
X95880952Y-71523809D01*
X95880952Y-71380952D01*
X95833333Y-71190476D01*
X95785714Y-71095238D01*
X95690476Y-71000000D01*
X95547619Y-70952380D01*
X95452380Y-70952380D01*
X95309523Y-71000000D01*
X95261904Y-71047619D01*
X94547619Y-70952380D02*
X94547619Y-71666666D01*
X94595238Y-71809523D01*
X94690476Y-71904761D01*
X94833333Y-71952380D01*
X94928571Y-71952380D01*
X93595238Y-71952380D02*
X94071428Y-71952380D01*
X94071428Y-70952380D01*
X92690476Y-71857142D02*
X92738095Y-71904761D01*
X92880952Y-71952380D01*
X92976190Y-71952380D01*
X93119047Y-71904761D01*
X93214285Y-71809523D01*
X93261904Y-71714285D01*
X93309523Y-71523809D01*
X93309523Y-71380952D01*
X93261904Y-71190476D01*
X93214285Y-71095238D01*
X93119047Y-71000000D01*
X92976190Y-70952380D01*
X92880952Y-70952380D01*
X92738095Y-71000000D01*
X92690476Y-71047619D01*
X91976190Y-70952380D02*
X91976190Y-71666666D01*
X92023809Y-71809523D01*
X92119047Y-71904761D01*
X92261904Y-71952380D01*
X92357142Y-71952380D01*
X91023809Y-71952380D02*
X91500000Y-71952380D01*
X91500000Y-70952380D01*
X90119047Y-71857142D02*
X90166666Y-71904761D01*
X90309523Y-71952380D01*
X90404761Y-71952380D01*
X90547619Y-71904761D01*
X90642857Y-71809523D01*
X90690476Y-71714285D01*
X90738095Y-71523809D01*
X90738095Y-71380952D01*
X90690476Y-71190476D01*
X90642857Y-71095238D01*
X90547619Y-71000000D01*
X90404761Y-70952380D01*
X90309523Y-70952380D01*
X90166666Y-71000000D01*
X90119047Y-71047619D01*
X89404761Y-70952380D02*
X89404761Y-71666666D01*
X89452380Y-71809523D01*
X89547619Y-71904761D01*
X89690476Y-71952380D01*
X89785714Y-71952380D01*
X88452380Y-71952380D02*
X88928571Y-71952380D01*
X88928571Y-70952380D01*
X87547619Y-71857142D02*
X87595238Y-71904761D01*
X87738095Y-71952380D01*
X87833333Y-71952380D01*
X87976190Y-71904761D01*
X88071428Y-71809523D01*
X88119047Y-71714285D01*
X88166666Y-71523809D01*
X88166666Y-71380952D01*
X88119047Y-71190476D01*
X88071428Y-71095238D01*
X87976190Y-71000000D01*
X87833333Y-70952380D01*
X87738095Y-70952380D01*
X87595238Y-71000000D01*
X87547619Y-71047619D01*
D10*
X82683333Y-73326190D02*
X82850000Y-73088095D01*
X82969047Y-73326190D02*
X82969047Y-72826190D01*
X82778571Y-72826190D01*
X82730952Y-72850000D01*
X82707142Y-72873809D01*
X82683333Y-72921428D01*
X82683333Y-72992857D01*
X82707142Y-73040476D01*
X82730952Y-73064285D01*
X82778571Y-73088095D01*
X82969047Y-73088095D01*
X82516666Y-72826190D02*
X82183333Y-73326190D01*
X82183333Y-72826190D02*
X82516666Y-73326190D01*
D12*
X90045000Y-94839285D02*
X89580714Y-94839285D01*
X89830714Y-95125000D01*
X89723571Y-95125000D01*
X89652142Y-95160714D01*
X89616428Y-95196428D01*
X89580714Y-95267857D01*
X89580714Y-95446428D01*
X89616428Y-95517857D01*
X89652142Y-95553571D01*
X89723571Y-95589285D01*
X89937857Y-95589285D01*
X90009285Y-95553571D01*
X90045000Y-95517857D01*
D13*
X100338095Y-89454761D02*
X100338095Y-87454761D01*
X99671428Y-88883333D01*
X99004761Y-87454761D01*
X99004761Y-89454761D01*
X98052380Y-88692857D02*
X96528571Y-88692857D01*
X94623809Y-89454761D02*
X95576190Y-89454761D01*
X95576190Y-87454761D01*
X93957142Y-89454761D02*
X93957142Y-87454761D01*
X93004761Y-89454761D02*
X93004761Y-87454761D01*
X91861904Y-89454761D01*
X91861904Y-87454761D01*
X90909523Y-89454761D02*
X90909523Y-87454761D01*
X89766666Y-89454761D02*
X90623809Y-88311904D01*
X89766666Y-87454761D02*
X90909523Y-88597619D01*
D12*
X80857142Y-89839285D02*
X81000000Y-89839285D01*
X81071428Y-89875000D01*
X81107142Y-89910714D01*
X81178571Y-90017857D01*
X81214285Y-90160714D01*
X81214285Y-90446428D01*
X81178571Y-90517857D01*
X81142857Y-90553571D01*
X81071428Y-90589285D01*
X80928571Y-90589285D01*
X80857142Y-90553571D01*
X80821428Y-90517857D01*
X80785714Y-90446428D01*
X80785714Y-90267857D01*
X80821428Y-90196428D01*
X80857142Y-90160714D01*
X80928571Y-90125000D01*
X81071428Y-90125000D01*
X81142857Y-90160714D01*
X81178571Y-90196428D01*
X81214285Y-90267857D01*
X95089285Y-94910714D02*
X95053571Y-94875000D01*
X94982142Y-94839285D01*
X94803571Y-94839285D01*
X94732142Y-94875000D01*
X94696428Y-94910714D01*
X94660714Y-94982142D01*
X94660714Y-95053571D01*
X94696428Y-95160714D01*
X95125000Y-95589285D01*
X94660714Y-95589285D01*
X99715714Y-95589285D02*
X100144285Y-95589285D01*
X99930000Y-95589285D02*
X99930000Y-94839285D01*
X100001428Y-94946428D01*
X100072857Y-95017857D01*
X100144285Y-95053571D01*
D11*
X89266666Y-88247380D02*
X89266666Y-87247380D01*
X88885714Y-87247380D01*
X88790476Y-87295000D01*
X88742857Y-87342619D01*
X88695238Y-87437857D01*
X88695238Y-87580714D01*
X88742857Y-87675952D01*
X88790476Y-87723571D01*
X88885714Y-87771190D01*
X89266666Y-87771190D01*
X87790476Y-88247380D02*
X88266666Y-88247380D01*
X88266666Y-87247380D01*
X87457142Y-87247380D02*
X87457142Y-88056904D01*
X87409523Y-88152142D01*
X87361904Y-88199761D01*
X87266666Y-88247380D01*
X87076190Y-88247380D01*
X86980952Y-88199761D01*
X86933333Y-88152142D01*
X86885714Y-88056904D01*
X86885714Y-87247380D01*
X86457142Y-88199761D02*
X86314285Y-88247380D01*
X86076190Y-88247380D01*
X85980952Y-88199761D01*
X85933333Y-88152142D01*
X85885714Y-88056904D01*
X85885714Y-87961666D01*
X85933333Y-87866428D01*
X85980952Y-87818809D01*
X86076190Y-87771190D01*
X86266666Y-87723571D01*
X86361904Y-87675952D01*
X86409523Y-87628333D01*
X86457142Y-87533095D01*
X86457142Y-87437857D01*
X86409523Y-87342619D01*
X86361904Y-87295000D01*
X86266666Y-87247380D01*
X86028571Y-87247380D01*
X85885714Y-87295000D01*
X89028571Y-89190714D02*
X88790476Y-89857380D01*
X88552380Y-89190714D01*
X87647619Y-89857380D02*
X88219047Y-89857380D01*
X87933333Y-89857380D02*
X87933333Y-88857380D01*
X88028571Y-89000238D01*
X88123809Y-89095476D01*
X88219047Y-89143095D01*
X87219047Y-89762142D02*
X87171428Y-89809761D01*
X87219047Y-89857380D01*
X87266666Y-89809761D01*
X87219047Y-89762142D01*
X87219047Y-89857380D01*
X86552380Y-88857380D02*
X86457142Y-88857380D01*
X86361904Y-88905000D01*
X86314285Y-88952619D01*
X86266666Y-89047857D01*
X86219047Y-89238333D01*
X86219047Y-89476428D01*
X86266666Y-89666904D01*
X86314285Y-89762142D01*
X86361904Y-89809761D01*
X86457142Y-89857380D01*
X86552380Y-89857380D01*
X86647619Y-89809761D01*
X86695238Y-89762142D01*
X86742857Y-89666904D01*
X86790476Y-89476428D01*
X86790476Y-89238333D01*
X86742857Y-89047857D01*
X86695238Y-88952619D01*
X86647619Y-88905000D01*
X86552380Y-88857380D01*
D12*
X100492857Y-90603571D02*
X100385714Y-90639285D01*
X100207142Y-90639285D01*
X100135714Y-90603571D01*
X100100000Y-90567857D01*
X100064285Y-90496428D01*
X100064285Y-90425000D01*
X100100000Y-90353571D01*
X100135714Y-90317857D01*
X100207142Y-90282142D01*
X100350000Y-90246428D01*
X100421428Y-90210714D01*
X100457142Y-90175000D01*
X100492857Y-90103571D01*
X100492857Y-90032142D01*
X100457142Y-89960714D01*
X100421428Y-89925000D01*
X100350000Y-89889285D01*
X100171428Y-89889285D01*
X100064285Y-89925000D01*
X99850000Y-90139285D02*
X99564285Y-90139285D01*
X99742857Y-89889285D02*
X99742857Y-90532142D01*
X99707142Y-90603571D01*
X99635714Y-90639285D01*
X99564285Y-90639285D01*
X99028571Y-90603571D02*
X99100000Y-90639285D01*
X99242857Y-90639285D01*
X99314285Y-90603571D01*
X99350000Y-90532142D01*
X99350000Y-90246428D01*
X99314285Y-90175000D01*
X99242857Y-90139285D01*
X99100000Y-90139285D01*
X99028571Y-90175000D01*
X98992857Y-90246428D01*
X98992857Y-90317857D01*
X99350000Y-90389285D01*
X98742857Y-90139285D02*
X98564285Y-90639285D01*
X98385714Y-90139285D01*
X97814285Y-90603571D02*
X97885714Y-90639285D01*
X98028571Y-90639285D01*
X98100000Y-90603571D01*
X98135714Y-90532142D01*
X98135714Y-90246428D01*
X98100000Y-90175000D01*
X98028571Y-90139285D01*
X97885714Y-90139285D01*
X97814285Y-90175000D01*
X97778571Y-90246428D01*
X97778571Y-90317857D01*
X98135714Y-90389285D01*
X96635714Y-90246428D02*
X96528571Y-90282142D01*
X96492857Y-90317857D01*
X96457142Y-90389285D01*
X96457142Y-90496428D01*
X96492857Y-90567857D01*
X96528571Y-90603571D01*
X96600000Y-90639285D01*
X96885714Y-90639285D01*
X96885714Y-89889285D01*
X96635714Y-89889285D01*
X96564285Y-89925000D01*
X96528571Y-89960714D01*
X96492857Y-90032142D01*
X96492857Y-90103571D01*
X96528571Y-90175000D01*
X96564285Y-90210714D01*
X96635714Y-90246428D01*
X96885714Y-90246428D01*
X95814285Y-90639285D02*
X95814285Y-90246428D01*
X95850000Y-90175000D01*
X95921428Y-90139285D01*
X96064285Y-90139285D01*
X96135714Y-90175000D01*
X95814285Y-90603571D02*
X95885714Y-90639285D01*
X96064285Y-90639285D01*
X96135714Y-90603571D01*
X96171428Y-90532142D01*
X96171428Y-90460714D01*
X96135714Y-90389285D01*
X96064285Y-90353571D01*
X95885714Y-90353571D01*
X95814285Y-90317857D01*
X95457142Y-90639285D02*
X95457142Y-90139285D01*
X95457142Y-90282142D02*
X95421428Y-90210714D01*
X95385714Y-90175000D01*
X95314285Y-90139285D01*
X95242857Y-90139285D01*
X94992857Y-90139285D02*
X94992857Y-90639285D01*
X94992857Y-90210714D02*
X94957142Y-90175000D01*
X94885714Y-90139285D01*
X94778571Y-90139285D01*
X94707142Y-90175000D01*
X94671428Y-90246428D01*
X94671428Y-90639285D01*
X94028571Y-90603571D02*
X94100000Y-90639285D01*
X94242857Y-90639285D01*
X94314285Y-90603571D01*
X94350000Y-90532142D01*
X94350000Y-90246428D01*
X94314285Y-90175000D01*
X94242857Y-90139285D01*
X94100000Y-90139285D01*
X94028571Y-90175000D01*
X93992857Y-90246428D01*
X93992857Y-90317857D01*
X94350000Y-90389285D01*
X93778571Y-90139285D02*
X93492857Y-90139285D01*
X93671428Y-89889285D02*
X93671428Y-90532142D01*
X93635714Y-90603571D01*
X93564285Y-90639285D01*
X93492857Y-90639285D01*
X93350000Y-90139285D02*
X93064285Y-90139285D01*
X93242857Y-89889285D02*
X93242857Y-90532142D01*
X93207142Y-90603571D01*
X93135714Y-90639285D01*
X93064285Y-90639285D01*
X92278571Y-89960714D02*
X92242857Y-89925000D01*
X92171428Y-89889285D01*
X91992857Y-89889285D01*
X91921428Y-89925000D01*
X91885714Y-89960714D01*
X91850000Y-90032142D01*
X91850000Y-90103571D01*
X91885714Y-90210714D01*
X92314285Y-90639285D01*
X91850000Y-90639285D01*
X91385714Y-89889285D02*
X91314285Y-89889285D01*
X91242857Y-89925000D01*
X91207142Y-89960714D01*
X91171428Y-90032142D01*
X91135714Y-90175000D01*
X91135714Y-90353571D01*
X91171428Y-90496428D01*
X91207142Y-90567857D01*
X91242857Y-90603571D01*
X91314285Y-90639285D01*
X91385714Y-90639285D01*
X91457142Y-90603571D01*
X91492857Y-90567857D01*
X91528571Y-90496428D01*
X91564285Y-90353571D01*
X91564285Y-90175000D01*
X91528571Y-90032142D01*
X91492857Y-89960714D01*
X91457142Y-89925000D01*
X91385714Y-89889285D01*
X90850000Y-89960714D02*
X90814285Y-89925000D01*
X90742857Y-89889285D01*
X90564285Y-89889285D01*
X90492857Y-89925000D01*
X90457142Y-89960714D01*
X90421428Y-90032142D01*
X90421428Y-90103571D01*
X90457142Y-90210714D01*
X90885714Y-90639285D01*
X90421428Y-90639285D01*
X90135714Y-89960714D02*
X90100000Y-89925000D01*
X90028571Y-89889285D01*
X89850000Y-89889285D01*
X89778571Y-89925000D01*
X89742857Y-89960714D01*
X89707142Y-90032142D01*
X89707142Y-90103571D01*
X89742857Y-90210714D01*
X90171428Y-90639285D01*
X89707142Y-90639285D01*
X85857142Y-90089285D02*
X85857142Y-90589285D01*
X86035714Y-89803571D02*
X86214285Y-90339285D01*
X85750000Y-90339285D01*
D10*
X79226190Y-94202380D02*
X79726190Y-94369047D01*
X79226190Y-94535714D01*
X79726190Y-94702380D02*
X79226190Y-94702380D01*
X79726190Y-94940476D02*
X79226190Y-94940476D01*
X79726190Y-95226190D01*
X79226190Y-95226190D01*
X79702380Y-91488095D02*
X79726190Y-91559523D01*
X79726190Y-91678571D01*
X79702380Y-91726190D01*
X79678571Y-91750000D01*
X79630952Y-91773809D01*
X79583333Y-91773809D01*
X79535714Y-91750000D01*
X79511904Y-91726190D01*
X79488095Y-91678571D01*
X79464285Y-91583333D01*
X79440476Y-91535714D01*
X79416666Y-91511904D01*
X79369047Y-91488095D01*
X79321428Y-91488095D01*
X79273809Y-91511904D01*
X79250000Y-91535714D01*
X79226190Y-91583333D01*
X79226190Y-91702380D01*
X79250000Y-91773809D01*
X79726190Y-91988095D02*
X79226190Y-91988095D01*
X79250000Y-92488095D02*
X79226190Y-92440476D01*
X79226190Y-92369047D01*
X79250000Y-92297619D01*
X79297619Y-92250000D01*
X79345238Y-92226190D01*
X79440476Y-92202380D01*
X79511904Y-92202380D01*
X79607142Y-92226190D01*
X79654761Y-92250000D01*
X79702380Y-92297619D01*
X79726190Y-92369047D01*
X79726190Y-92416666D01*
X79702380Y-92488095D01*
X79678571Y-92511904D01*
X79511904Y-92511904D01*
X79511904Y-92416666D01*
X82873809Y-77126190D02*
X83040476Y-76888095D01*
X83159523Y-77126190D02*
X83159523Y-76626190D01*
X82969047Y-76626190D01*
X82921428Y-76650000D01*
X82897619Y-76673809D01*
X82873809Y-76721428D01*
X82873809Y-76792857D01*
X82897619Y-76840476D01*
X82921428Y-76864285D01*
X82969047Y-76888095D01*
X83159523Y-76888095D01*
X82683333Y-77102380D02*
X82611904Y-77126190D01*
X82492857Y-77126190D01*
X82445238Y-77102380D01*
X82421428Y-77078571D01*
X82397619Y-77030952D01*
X82397619Y-76983333D01*
X82421428Y-76935714D01*
X82445238Y-76911904D01*
X82492857Y-76888095D01*
X82588095Y-76864285D01*
X82635714Y-76840476D01*
X82659523Y-76816666D01*
X82683333Y-76769047D01*
X82683333Y-76721428D01*
X82659523Y-76673809D01*
X82635714Y-76650000D01*
X82588095Y-76626190D01*
X82469047Y-76626190D01*
X82397619Y-76650000D01*
X82254761Y-76626190D02*
X81969047Y-76626190D01*
X82111904Y-77126190D02*
X82111904Y-76626190D01*
D12*
X83321428Y-89839285D02*
X83678571Y-89839285D01*
X83714285Y-90196428D01*
X83678571Y-90160714D01*
X83607142Y-90125000D01*
X83428571Y-90125000D01*
X83357142Y-90160714D01*
X83321428Y-90196428D01*
X83285714Y-90267857D01*
X83285714Y-90446428D01*
X83321428Y-90517857D01*
X83357142Y-90553571D01*
X83428571Y-90589285D01*
X83607142Y-90589285D01*
X83678571Y-90553571D01*
X83714285Y-90517857D01*
D10*
%TO.C,U4*%
X84630952Y-87226190D02*
X84630952Y-87630952D01*
X84607142Y-87678571D01*
X84583333Y-87702380D01*
X84535714Y-87726190D01*
X84440476Y-87726190D01*
X84392857Y-87702380D01*
X84369047Y-87678571D01*
X84345238Y-87630952D01*
X84345238Y-87226190D01*
X83892857Y-87392857D02*
X83892857Y-87726190D01*
X84011904Y-87202380D02*
X84130952Y-87559523D01*
X83821428Y-87559523D01*
D14*
X100620000Y-70250000D02*
X101230000Y-70250000D01*
X84380000Y-86870000D02*
X86500000Y-86870000D01*
X84380000Y-86250000D02*
X84380000Y-86870000D01*
X100620000Y-62630000D02*
X84380000Y-62630000D01*
X84380000Y-62630000D02*
X84380000Y-68750000D01*
X100620000Y-86870000D02*
X100620000Y-86250000D01*
X100620000Y-68750000D02*
X100620000Y-62630000D01*
X98500000Y-86870000D02*
X100620000Y-86870000D01*
%TD*%
M02*
