%TF.GenerationSoftware,KiCad,Pcbnew,(6.0.8)*%
%TF.CreationDate,2023-03-28T20:57:46+01:00*%
%TF.ProjectId,motor,6d6f746f-722e-46b6-9963-61645f706362,rev?*%
%TF.SameCoordinates,Original*%
%TF.FileFunction,Copper,L2,Bot*%
%TF.FilePolarity,Positive*%
%FSLAX46Y46*%
G04 Gerber Fmt 4.6, Leading zero omitted, Abs format (unit mm)*
G04 Created by KiCad (PCBNEW (6.0.8)) date 2023-03-28 20:57:46*
%MOMM*%
%LPD*%
G01*
G04 APERTURE LIST*
%TA.AperFunction,ComponentPad*%
%ADD10O,1.700000X1.700000*%
%TD*%
%TA.AperFunction,ComponentPad*%
%ADD11R,1.700000X1.700000*%
%TD*%
%TA.AperFunction,ViaPad*%
%ADD12C,0.800000*%
%TD*%
%TA.AperFunction,Conductor*%
%ADD13C,0.800000*%
%TD*%
%TA.AperFunction,Conductor*%
%ADD14C,0.400000*%
%TD*%
G04 APERTURE END LIST*
D10*
%TO.P,J1,8,Pin_8*%
%TO.N,GND*%
X56140000Y-58840000D03*
%TO.P,J1,7,Pin_7*%
X53600000Y-58840000D03*
%TO.P,J1,6,Pin_6*%
%TO.N,+5V*%
X56140000Y-56300000D03*
%TO.P,J1,5,Pin_5*%
X53600000Y-56300000D03*
%TO.P,J1,4,Pin_4*%
%TO.N,/IN2*%
X56140000Y-53760000D03*
%TO.P,J1,3,Pin_3*%
%TO.N,/IN1*%
X53600000Y-53760000D03*
D11*
%TO.P,J1,2,Pin_2*%
%TO.N,/OUT1*%
X56140000Y-51220000D03*
%TO.P,J1,1,Pin_1*%
%TO.N,/OUT2*%
X53600000Y-51220000D03*
%TD*%
D12*
%TO.N,+5V*%
X61000000Y-54340000D03*
%TO.N,/OUT2*%
X58900000Y-52839745D03*
%TO.N,/OUT1*%
X60093001Y-52840000D03*
%TO.N,GND*%
X58000000Y-54660000D03*
%TD*%
D13*
%TO.N,+5V*%
X56600000Y-55840000D02*
X59500000Y-55840000D01*
X59500000Y-55840000D02*
X61000000Y-54340000D01*
X56140000Y-56300000D02*
X56600000Y-55840000D01*
D14*
%TO.N,/OUT1*%
X58473001Y-51220000D02*
X60093001Y-52840000D01*
X56140000Y-51220000D02*
X58473001Y-51220000D01*
%TO.N,/OUT2*%
X54890000Y-52510000D02*
X53600000Y-51220000D01*
X58570255Y-52510000D02*
X54890000Y-52510000D01*
X58900000Y-52839745D02*
X58570255Y-52510000D01*
D13*
%TO.N,GND*%
X53600000Y-58840000D02*
X56140000Y-58840000D01*
%TD*%
%TA.AperFunction,Conductor*%
%TO.N,GND*%
G36*
X62098740Y-49350843D02*
G01*
X62100000Y-49351365D01*
X62100917Y-49350986D01*
X62106431Y-49351347D01*
X62213769Y-49365478D01*
X62238733Y-49372167D01*
X62332710Y-49411094D01*
X62355091Y-49424016D01*
X62435788Y-49485937D01*
X62454063Y-49504212D01*
X62515984Y-49584909D01*
X62528906Y-49607290D01*
X62567833Y-49701267D01*
X62574522Y-49726231D01*
X62588653Y-49833569D01*
X62589014Y-49839083D01*
X62588635Y-49840000D01*
X62589157Y-49841260D01*
X62589500Y-49846491D01*
X62589500Y-56333509D01*
X62589157Y-56338740D01*
X62588635Y-56340000D01*
X62589014Y-56340917D01*
X62588653Y-56346431D01*
X62574522Y-56453769D01*
X62567833Y-56478733D01*
X62528906Y-56572710D01*
X62515984Y-56595091D01*
X62454063Y-56675788D01*
X62435788Y-56694063D01*
X62355091Y-56755984D01*
X62332710Y-56768906D01*
X62238733Y-56807833D01*
X62213769Y-56814522D01*
X62106431Y-56828653D01*
X62100917Y-56829014D01*
X62100000Y-56828635D01*
X62098740Y-56829157D01*
X62093509Y-56829500D01*
X58114654Y-56829500D01*
X58104674Y-56828996D01*
X58100000Y-56828522D01*
X58100000Y-56826270D01*
X57985684Y-56839150D01*
X57908998Y-56865984D01*
X57882353Y-56875307D01*
X57882351Y-56875308D01*
X57877101Y-56877145D01*
X57872394Y-56880102D01*
X57872389Y-56880105D01*
X57815135Y-56916081D01*
X57779695Y-56938350D01*
X57698350Y-57019695D01*
X57695394Y-57024400D01*
X57640105Y-57112389D01*
X57640102Y-57112394D01*
X57637145Y-57117101D01*
X57599150Y-57225684D01*
X57586270Y-57340000D01*
X57585583Y-57339923D01*
X57585339Y-57342088D01*
X57589500Y-57342088D01*
X57589500Y-59833509D01*
X57589157Y-59838740D01*
X57588635Y-59840000D01*
X57589014Y-59840917D01*
X57588653Y-59846431D01*
X57574522Y-59953769D01*
X57567833Y-59978733D01*
X57528906Y-60072710D01*
X57515984Y-60095091D01*
X57454063Y-60175788D01*
X57435788Y-60194063D01*
X57355091Y-60255984D01*
X57332710Y-60268906D01*
X57238733Y-60307833D01*
X57213769Y-60314522D01*
X57106431Y-60328653D01*
X57100917Y-60329014D01*
X57100000Y-60328635D01*
X57098740Y-60329157D01*
X57093509Y-60329500D01*
X52606491Y-60329500D01*
X52601260Y-60329157D01*
X52600000Y-60328635D01*
X52599083Y-60329014D01*
X52593569Y-60328653D01*
X52486231Y-60314522D01*
X52461267Y-60307833D01*
X52367290Y-60268906D01*
X52344909Y-60255984D01*
X52264212Y-60194063D01*
X52245937Y-60175788D01*
X52184016Y-60095091D01*
X52171094Y-60072710D01*
X52132167Y-59978733D01*
X52125478Y-59953769D01*
X52111347Y-59846431D01*
X52110986Y-59840917D01*
X52111365Y-59840000D01*
X52110843Y-59838740D01*
X52110500Y-59833509D01*
X52110500Y-56285262D01*
X52544520Y-56285262D01*
X52548941Y-56337912D01*
X52560179Y-56471732D01*
X52561759Y-56490553D01*
X52563092Y-56495201D01*
X52563092Y-56495202D01*
X52610435Y-56660305D01*
X52618544Y-56688586D01*
X52712712Y-56871818D01*
X52840677Y-57033270D01*
X52844357Y-57036402D01*
X52844359Y-57036404D01*
X52913503Y-57095250D01*
X52997564Y-57166791D01*
X53001787Y-57169151D01*
X53001791Y-57169154D01*
X53041342Y-57191258D01*
X53177398Y-57267297D01*
X53181996Y-57268791D01*
X53368724Y-57329463D01*
X53368726Y-57329464D01*
X53373329Y-57330959D01*
X53577894Y-57355351D01*
X53582716Y-57354980D01*
X53582719Y-57354980D01*
X53650541Y-57349761D01*
X53783300Y-57339546D01*
X53981725Y-57284145D01*
X53986038Y-57281966D01*
X53986044Y-57281964D01*
X54161289Y-57193441D01*
X54161291Y-57193440D01*
X54165610Y-57191258D01*
X54253805Y-57122353D01*
X54324135Y-57067406D01*
X54324139Y-57067402D01*
X54327951Y-57064424D01*
X54362499Y-57024400D01*
X54388850Y-56993871D01*
X54462564Y-56908472D01*
X54481231Y-56875613D01*
X54561934Y-56733550D01*
X54561935Y-56733547D01*
X54564323Y-56729344D01*
X54576060Y-56694063D01*
X54627824Y-56538454D01*
X54627824Y-56538452D01*
X54629351Y-56533863D01*
X54636316Y-56478733D01*
X54654823Y-56332228D01*
X54655171Y-56329474D01*
X54655583Y-56300000D01*
X54654138Y-56285262D01*
X55084520Y-56285262D01*
X55088941Y-56337912D01*
X55100179Y-56471732D01*
X55101759Y-56490553D01*
X55103092Y-56495201D01*
X55103092Y-56495202D01*
X55150435Y-56660305D01*
X55158544Y-56688586D01*
X55252712Y-56871818D01*
X55380677Y-57033270D01*
X55384357Y-57036402D01*
X55384359Y-57036404D01*
X55453503Y-57095250D01*
X55537564Y-57166791D01*
X55541787Y-57169151D01*
X55541791Y-57169154D01*
X55581342Y-57191258D01*
X55717398Y-57267297D01*
X55721996Y-57268791D01*
X55908724Y-57329463D01*
X55908726Y-57329464D01*
X55913329Y-57330959D01*
X56117894Y-57355351D01*
X56122716Y-57354980D01*
X56122719Y-57354980D01*
X56190541Y-57349761D01*
X56323300Y-57339546D01*
X56521725Y-57284145D01*
X56526038Y-57281966D01*
X56526044Y-57281964D01*
X56701289Y-57193441D01*
X56701291Y-57193440D01*
X56705610Y-57191258D01*
X56793805Y-57122353D01*
X56864135Y-57067406D01*
X56864139Y-57067402D01*
X56867951Y-57064424D01*
X56902499Y-57024400D01*
X56928850Y-56993871D01*
X57002564Y-56908472D01*
X57021231Y-56875613D01*
X57101934Y-56733550D01*
X57101935Y-56733547D01*
X57104323Y-56729344D01*
X57116060Y-56694063D01*
X57167822Y-56538459D01*
X57169351Y-56533863D01*
X57170206Y-56527094D01*
X57170588Y-56526282D01*
X57171029Y-56524341D01*
X57171456Y-56524438D01*
X57196255Y-56471732D01*
X57249871Y-56442254D01*
X57268425Y-56440500D01*
X59454151Y-56440500D01*
X59467072Y-56441347D01*
X59500000Y-56445682D01*
X59532928Y-56441347D01*
X59539361Y-56440500D01*
X59656762Y-56425044D01*
X59802841Y-56364536D01*
X59928282Y-56268282D01*
X59948498Y-56241936D01*
X59957036Y-56232199D01*
X61392199Y-54797036D01*
X61401936Y-54788498D01*
X61423129Y-54772236D01*
X61428282Y-54768282D01*
X61524536Y-54642841D01*
X61585044Y-54496762D01*
X61605682Y-54340000D01*
X61585044Y-54183238D01*
X61524536Y-54037159D01*
X61428282Y-53911718D01*
X61302841Y-53815464D01*
X61156762Y-53754956D01*
X61000000Y-53734318D01*
X60843238Y-53754956D01*
X60697159Y-53815464D01*
X60571718Y-53911718D01*
X60567764Y-53916871D01*
X60551502Y-53938064D01*
X60542964Y-53947801D01*
X59280261Y-55210504D01*
X59225744Y-55238281D01*
X59210257Y-55239500D01*
X56645849Y-55239500D01*
X56632927Y-55238653D01*
X56600000Y-55234318D01*
X56593566Y-55235165D01*
X56560639Y-55239500D01*
X56443238Y-55254956D01*
X56437241Y-55257440D01*
X56422116Y-55263705D01*
X56361119Y-55268506D01*
X56357849Y-55267608D01*
X56356880Y-55267409D01*
X56352254Y-55265977D01*
X56347444Y-55265472D01*
X56347442Y-55265471D01*
X56152185Y-55244949D01*
X56152183Y-55244949D01*
X56147369Y-55244443D01*
X56087354Y-55249905D01*
X55947022Y-55262675D01*
X55947017Y-55262676D01*
X55942203Y-55263114D01*
X55744572Y-55321280D01*
X55740288Y-55323519D01*
X55740287Y-55323520D01*
X55729428Y-55329197D01*
X55562002Y-55416726D01*
X55558231Y-55419758D01*
X55405220Y-55542781D01*
X55405217Y-55542783D01*
X55401447Y-55545815D01*
X55398333Y-55549526D01*
X55398332Y-55549527D01*
X55389585Y-55559952D01*
X55269024Y-55703630D01*
X55266689Y-55707878D01*
X55266688Y-55707879D01*
X55259955Y-55720126D01*
X55169776Y-55884162D01*
X55107484Y-56080532D01*
X55106944Y-56085344D01*
X55106944Y-56085345D01*
X55086425Y-56268282D01*
X55084520Y-56285262D01*
X54654138Y-56285262D01*
X54635480Y-56094970D01*
X54575935Y-55897749D01*
X54479218Y-55715849D01*
X54349011Y-55556200D01*
X54190275Y-55424882D01*
X54009055Y-55326897D01*
X53945855Y-55307333D01*
X53816875Y-55267407D01*
X53816871Y-55267406D01*
X53812254Y-55265977D01*
X53807446Y-55265472D01*
X53807443Y-55265471D01*
X53612185Y-55244949D01*
X53612183Y-55244949D01*
X53607369Y-55244443D01*
X53547354Y-55249905D01*
X53407022Y-55262675D01*
X53407017Y-55262676D01*
X53402203Y-55263114D01*
X53204572Y-55321280D01*
X53200288Y-55323519D01*
X53200287Y-55323520D01*
X53189428Y-55329197D01*
X53022002Y-55416726D01*
X53018231Y-55419758D01*
X52865220Y-55542781D01*
X52865217Y-55542783D01*
X52861447Y-55545815D01*
X52858333Y-55549526D01*
X52858332Y-55549527D01*
X52849585Y-55559952D01*
X52729024Y-55703630D01*
X52726689Y-55707878D01*
X52726688Y-55707879D01*
X52719955Y-55720126D01*
X52629776Y-55884162D01*
X52567484Y-56080532D01*
X52566944Y-56085344D01*
X52566944Y-56085345D01*
X52546425Y-56268282D01*
X52544520Y-56285262D01*
X52110500Y-56285262D01*
X52110500Y-53745262D01*
X52544520Y-53745262D01*
X52544925Y-53750082D01*
X52558931Y-53916871D01*
X52561759Y-53950553D01*
X52618544Y-54148586D01*
X52712712Y-54331818D01*
X52840677Y-54493270D01*
X52844357Y-54496402D01*
X52844359Y-54496404D01*
X52957017Y-54592283D01*
X52997564Y-54626791D01*
X53001787Y-54629151D01*
X53001791Y-54629154D01*
X53041342Y-54651258D01*
X53177398Y-54727297D01*
X53181996Y-54728791D01*
X53368724Y-54789463D01*
X53368726Y-54789464D01*
X53373329Y-54790959D01*
X53577894Y-54815351D01*
X53582716Y-54814980D01*
X53582719Y-54814980D01*
X53650541Y-54809761D01*
X53783300Y-54799546D01*
X53981725Y-54744145D01*
X53986038Y-54741966D01*
X53986044Y-54741964D01*
X54161289Y-54653441D01*
X54161291Y-54653440D01*
X54165610Y-54651258D01*
X54169793Y-54647990D01*
X54324135Y-54527406D01*
X54324139Y-54527402D01*
X54327951Y-54524424D01*
X54357384Y-54490326D01*
X54387313Y-54455651D01*
X54462564Y-54368472D01*
X54464957Y-54364260D01*
X54561934Y-54193550D01*
X54561935Y-54193547D01*
X54564323Y-54189344D01*
X54566355Y-54183238D01*
X54627824Y-53998454D01*
X54627824Y-53998452D01*
X54629351Y-53993863D01*
X54655171Y-53789474D01*
X54655583Y-53760000D01*
X54655313Y-53757244D01*
X54635952Y-53559780D01*
X54635951Y-53559776D01*
X54635480Y-53554970D01*
X54575935Y-53357749D01*
X54479218Y-53175849D01*
X54349011Y-53016200D01*
X54332764Y-53002759D01*
X54194002Y-52887965D01*
X54194000Y-52887964D01*
X54190275Y-52884882D01*
X54009055Y-52786897D01*
X53945855Y-52767333D01*
X53816875Y-52727407D01*
X53816871Y-52727406D01*
X53812254Y-52725977D01*
X53807446Y-52725472D01*
X53807443Y-52725471D01*
X53612185Y-52704949D01*
X53612183Y-52704949D01*
X53607369Y-52704443D01*
X53547354Y-52709905D01*
X53407022Y-52722675D01*
X53407017Y-52722676D01*
X53402203Y-52723114D01*
X53204572Y-52781280D01*
X53200288Y-52783519D01*
X53200287Y-52783520D01*
X53189428Y-52789197D01*
X53022002Y-52876726D01*
X53018231Y-52879758D01*
X52865220Y-53002781D01*
X52865217Y-53002783D01*
X52861447Y-53005815D01*
X52858333Y-53009526D01*
X52858332Y-53009527D01*
X52739383Y-53151285D01*
X52729024Y-53163630D01*
X52726689Y-53167878D01*
X52726688Y-53167879D01*
X52719955Y-53180126D01*
X52629776Y-53344162D01*
X52628313Y-53348775D01*
X52628311Y-53348779D01*
X52597841Y-53444835D01*
X52567484Y-53540532D01*
X52566944Y-53545344D01*
X52566944Y-53545345D01*
X52545653Y-53735165D01*
X52544520Y-53745262D01*
X52110500Y-53745262D01*
X52110500Y-52089748D01*
X52549500Y-52089748D01*
X52550448Y-52094512D01*
X52556384Y-52124354D01*
X52561133Y-52148231D01*
X52605448Y-52214552D01*
X52671769Y-52258867D01*
X52681332Y-52260769D01*
X52681334Y-52260770D01*
X52704005Y-52265279D01*
X52730252Y-52270500D01*
X54043100Y-52270500D01*
X54101291Y-52289407D01*
X54113104Y-52299496D01*
X54651658Y-52838050D01*
X54673156Y-52849004D01*
X54686386Y-52857111D01*
X54705910Y-52871296D01*
X54713320Y-52873704D01*
X54713321Y-52873704D01*
X54728855Y-52878751D01*
X54743204Y-52884695D01*
X54764696Y-52895646D01*
X54772392Y-52896865D01*
X54788524Y-52899420D01*
X54803627Y-52903046D01*
X54819157Y-52908092D01*
X54819160Y-52908093D01*
X54826567Y-52910499D01*
X54858477Y-52910499D01*
X54858481Y-52910500D01*
X55269120Y-52910500D01*
X55327311Y-52929407D01*
X55363275Y-52978907D01*
X55363275Y-53040093D01*
X55344958Y-53073136D01*
X55282148Y-53147990D01*
X55269024Y-53163630D01*
X55266689Y-53167878D01*
X55266688Y-53167879D01*
X55259955Y-53180126D01*
X55169776Y-53344162D01*
X55168313Y-53348775D01*
X55168311Y-53348779D01*
X55137841Y-53444835D01*
X55107484Y-53540532D01*
X55106944Y-53545344D01*
X55106944Y-53545345D01*
X55085653Y-53735165D01*
X55084520Y-53745262D01*
X55084925Y-53750082D01*
X55098931Y-53916871D01*
X55101759Y-53950553D01*
X55158544Y-54148586D01*
X55252712Y-54331818D01*
X55380677Y-54493270D01*
X55384357Y-54496402D01*
X55384359Y-54496404D01*
X55497017Y-54592283D01*
X55537564Y-54626791D01*
X55541787Y-54629151D01*
X55541791Y-54629154D01*
X55581342Y-54651258D01*
X55717398Y-54727297D01*
X55721996Y-54728791D01*
X55908724Y-54789463D01*
X55908726Y-54789464D01*
X55913329Y-54790959D01*
X56117894Y-54815351D01*
X56122716Y-54814980D01*
X56122719Y-54814980D01*
X56190541Y-54809761D01*
X56323300Y-54799546D01*
X56521725Y-54744145D01*
X56526038Y-54741966D01*
X56526044Y-54741964D01*
X56701289Y-54653441D01*
X56701291Y-54653440D01*
X56705610Y-54651258D01*
X56709793Y-54647990D01*
X56864135Y-54527406D01*
X56864139Y-54527402D01*
X56867951Y-54524424D01*
X56897384Y-54490326D01*
X56927313Y-54455651D01*
X57002564Y-54368472D01*
X57004957Y-54364260D01*
X57101934Y-54193550D01*
X57101935Y-54193547D01*
X57104323Y-54189344D01*
X57106355Y-54183238D01*
X57167824Y-53998454D01*
X57167824Y-53998452D01*
X57169351Y-53993863D01*
X57195171Y-53789474D01*
X57195583Y-53760000D01*
X57195313Y-53757244D01*
X57175952Y-53559780D01*
X57175951Y-53559776D01*
X57175480Y-53554970D01*
X57115935Y-53357749D01*
X57019218Y-53175849D01*
X56934578Y-53072070D01*
X56912451Y-53015027D01*
X56928081Y-52955871D01*
X56975496Y-52917200D01*
X57011297Y-52910500D01*
X58216822Y-52910500D01*
X58275013Y-52929407D01*
X58312449Y-52983877D01*
X58314109Y-52990071D01*
X58314956Y-52996507D01*
X58317440Y-53002504D01*
X58320349Y-53009527D01*
X58375464Y-53142586D01*
X58471718Y-53268027D01*
X58597159Y-53364281D01*
X58743238Y-53424789D01*
X58900000Y-53445427D01*
X59056762Y-53424789D01*
X59202841Y-53364281D01*
X59328282Y-53268027D01*
X59417861Y-53151285D01*
X59468285Y-53116629D01*
X59529450Y-53118230D01*
X59574943Y-53151284D01*
X59664719Y-53268282D01*
X59790160Y-53364536D01*
X59936239Y-53425044D01*
X60093001Y-53445682D01*
X60249763Y-53425044D01*
X60395842Y-53364536D01*
X60521283Y-53268282D01*
X60617537Y-53142841D01*
X60678045Y-52996762D01*
X60698683Y-52840000D01*
X60678045Y-52683238D01*
X60617537Y-52537159D01*
X60521283Y-52411718D01*
X60395842Y-52315464D01*
X60249763Y-52254956D01*
X60093001Y-52234318D01*
X60092972Y-52234322D01*
X60037376Y-52216258D01*
X60025563Y-52206169D01*
X58733910Y-50914516D01*
X58733906Y-50914513D01*
X58711343Y-50891950D01*
X58689847Y-50880998D01*
X58676606Y-50872883D01*
X58663396Y-50863285D01*
X58657091Y-50858704D01*
X58634144Y-50851248D01*
X58619798Y-50845305D01*
X58598305Y-50834354D01*
X58590612Y-50833136D01*
X58590610Y-50833135D01*
X58574482Y-50830581D01*
X58559381Y-50826956D01*
X58536434Y-50819500D01*
X57289500Y-50819500D01*
X57231309Y-50800593D01*
X57195345Y-50751093D01*
X57190500Y-50720500D01*
X57190500Y-50350252D01*
X57178867Y-50291769D01*
X57134552Y-50225448D01*
X57068231Y-50181133D01*
X57058668Y-50179231D01*
X57058666Y-50179230D01*
X57035995Y-50174721D01*
X57009748Y-50169500D01*
X55270252Y-50169500D01*
X55244005Y-50174721D01*
X55221334Y-50179230D01*
X55221332Y-50179231D01*
X55211769Y-50181133D01*
X55145448Y-50225448D01*
X55101133Y-50291769D01*
X55089500Y-50350252D01*
X55089500Y-51904100D01*
X55070593Y-51962291D01*
X55021093Y-51998255D01*
X54959907Y-51998255D01*
X54920496Y-51974104D01*
X54679496Y-51733104D01*
X54651719Y-51678587D01*
X54650500Y-51663100D01*
X54650500Y-50350252D01*
X54638867Y-50291769D01*
X54594552Y-50225448D01*
X54528231Y-50181133D01*
X54518668Y-50179231D01*
X54518666Y-50179230D01*
X54495995Y-50174721D01*
X54469748Y-50169500D01*
X52730252Y-50169500D01*
X52704005Y-50174721D01*
X52681334Y-50179230D01*
X52681332Y-50179231D01*
X52671769Y-50181133D01*
X52605448Y-50225448D01*
X52561133Y-50291769D01*
X52549500Y-50350252D01*
X52549500Y-52089748D01*
X52110500Y-52089748D01*
X52110500Y-49846491D01*
X52110843Y-49841260D01*
X52111365Y-49840000D01*
X52110986Y-49839083D01*
X52111347Y-49833569D01*
X52125478Y-49726231D01*
X52132167Y-49701267D01*
X52171094Y-49607290D01*
X52184016Y-49584909D01*
X52245937Y-49504212D01*
X52264212Y-49485937D01*
X52344909Y-49424016D01*
X52367290Y-49411094D01*
X52461267Y-49372167D01*
X52486231Y-49365478D01*
X52593569Y-49351347D01*
X52599083Y-49350986D01*
X52600000Y-49351365D01*
X52601260Y-49350843D01*
X52606491Y-49350500D01*
X62093509Y-49350500D01*
X62098740Y-49350843D01*
G37*
%TD.AperFunction*%
%TD*%
M02*
