%TF.GenerationSoftware,KiCad,Pcbnew,(6.0.8)*%
%TF.CreationDate,2023-03-28T20:57:46+01:00*%
%TF.ProjectId,motor,6d6f746f-722e-46b6-9963-61645f706362,rev?*%
%TF.SameCoordinates,Original*%
%TF.FileFunction,Legend,Top*%
%TF.FilePolarity,Positive*%
%FSLAX46Y46*%
G04 Gerber Fmt 4.6, Leading zero omitted, Abs format (unit mm)*
G04 Created by KiCad (PCBNEW (6.0.8)) date 2023-03-28 20:57:46*
%MOMM*%
%LPD*%
G01*
G04 APERTURE LIST*
%ADD10C,0.300000*%
%ADD11C,0.125000*%
%ADD12C,0.120000*%
G04 APERTURE END LIST*
D10*
X61100001Y-53340001D02*
G75*
G03*
X61100001Y-53340001I-1J0D01*
G01*
D11*
X62302380Y-54637619D02*
X62326190Y-54566190D01*
X62326190Y-54447142D01*
X62302380Y-54399523D01*
X62278571Y-54375714D01*
X62230952Y-54351904D01*
X62183333Y-54351904D01*
X62135714Y-54375714D01*
X62111904Y-54399523D01*
X62088095Y-54447142D01*
X62064285Y-54542380D01*
X62040476Y-54590000D01*
X62016666Y-54613809D01*
X61969047Y-54637619D01*
X61921428Y-54637619D01*
X61873809Y-54613809D01*
X61850000Y-54590000D01*
X61826190Y-54542380D01*
X61826190Y-54423333D01*
X61850000Y-54351904D01*
X62326190Y-53899523D02*
X62326190Y-54137619D01*
X61826190Y-54137619D01*
X62064285Y-53732857D02*
X62064285Y-53566190D01*
X62326190Y-53494761D02*
X62326190Y-53732857D01*
X61826190Y-53732857D01*
X61826190Y-53494761D01*
X62064285Y-53280476D02*
X62064285Y-53113809D01*
X62326190Y-53042380D02*
X62326190Y-53280476D01*
X61826190Y-53280476D01*
X61826190Y-53042380D01*
X62326190Y-52828095D02*
X61826190Y-52828095D01*
X61826190Y-52637619D01*
X61850000Y-52590000D01*
X61873809Y-52566190D01*
X61921428Y-52542380D01*
X61992857Y-52542380D01*
X62040476Y-52566190D01*
X62064285Y-52590000D01*
X62088095Y-52637619D01*
X62088095Y-52828095D01*
X59730952Y-50316190D02*
X60040476Y-50316190D01*
X59873809Y-50506666D01*
X59945238Y-50506666D01*
X59992857Y-50530476D01*
X60016666Y-50554285D01*
X60040476Y-50601904D01*
X60040476Y-50720952D01*
X60016666Y-50768571D01*
X59992857Y-50792380D01*
X59945238Y-50816190D01*
X59802380Y-50816190D01*
X59754761Y-50792380D01*
X59730952Y-50768571D01*
X60183333Y-50316190D02*
X60350000Y-50816190D01*
X60516666Y-50316190D01*
X60635714Y-50316190D02*
X60945238Y-50316190D01*
X60778571Y-50506666D01*
X60850000Y-50506666D01*
X60897619Y-50530476D01*
X60921428Y-50554285D01*
X60945238Y-50601904D01*
X60945238Y-50720952D01*
X60921428Y-50768571D01*
X60897619Y-50792380D01*
X60850000Y-50816190D01*
X60707142Y-50816190D01*
X60659523Y-50792380D01*
X60635714Y-50768571D01*
X54370000Y-52216190D02*
X54465238Y-52216190D01*
X54512857Y-52240000D01*
X54560476Y-52287619D01*
X54584285Y-52382857D01*
X54584285Y-52549523D01*
X54560476Y-52644761D01*
X54512857Y-52692380D01*
X54465238Y-52716190D01*
X54370000Y-52716190D01*
X54322380Y-52692380D01*
X54274761Y-52644761D01*
X54250952Y-52549523D01*
X54250952Y-52382857D01*
X54274761Y-52287619D01*
X54322380Y-52240000D01*
X54370000Y-52216190D01*
X54798571Y-52216190D02*
X54798571Y-52620952D01*
X54822380Y-52668571D01*
X54846190Y-52692380D01*
X54893809Y-52716190D01*
X54989047Y-52716190D01*
X55036666Y-52692380D01*
X55060476Y-52668571D01*
X55084285Y-52620952D01*
X55084285Y-52216190D01*
X55250952Y-52216190D02*
X55536666Y-52216190D01*
X55393809Y-52716190D02*
X55393809Y-52216190D01*
X54588095Y-55066190D02*
X54588095Y-54566190D01*
X54826190Y-55066190D02*
X54826190Y-54566190D01*
X55111904Y-55066190D01*
X55111904Y-54566190D01*
X54302380Y-57066190D02*
X54469047Y-57566190D01*
X54635714Y-57066190D01*
X54802380Y-57566190D02*
X54802380Y-57066190D01*
X55040476Y-57566190D02*
X55040476Y-57066190D01*
X55326190Y-57566190D01*
X55326190Y-57066190D01*
X54469047Y-59590000D02*
X54421428Y-59566190D01*
X54350000Y-59566190D01*
X54278571Y-59590000D01*
X54230952Y-59637619D01*
X54207142Y-59685238D01*
X54183333Y-59780476D01*
X54183333Y-59851904D01*
X54207142Y-59947142D01*
X54230952Y-59994761D01*
X54278571Y-60042380D01*
X54350000Y-60066190D01*
X54397619Y-60066190D01*
X54469047Y-60042380D01*
X54492857Y-60018571D01*
X54492857Y-59851904D01*
X54397619Y-59851904D01*
X54707142Y-60066190D02*
X54707142Y-59566190D01*
X54992857Y-60066190D01*
X54992857Y-59566190D01*
X55230952Y-60066190D02*
X55230952Y-59566190D01*
X55350000Y-59566190D01*
X55421428Y-59590000D01*
X55469047Y-59637619D01*
X55492857Y-59685238D01*
X55516666Y-59780476D01*
X55516666Y-59851904D01*
X55492857Y-59947142D01*
X55469047Y-59994761D01*
X55421428Y-60042380D01*
X55350000Y-60066190D01*
X55230952Y-60066190D01*
D12*
%TO.C,U1*%
X58380000Y-55160000D02*
X58380000Y-54160000D01*
X60620000Y-53160000D02*
X60620000Y-55160000D01*
%TO.C,R1*%
X61162258Y-51067500D02*
X60687742Y-51067500D01*
X61162258Y-52112500D02*
X60687742Y-52112500D01*
%TD*%
M02*
