%TF.GenerationSoftware,KiCad,Pcbnew,(6.0.8)*%
%TF.CreationDate,2023-03-28T20:57:46+01:00*%
%TF.ProjectId,motor,6d6f746f-722e-46b6-9963-61645f706362,rev?*%
%TF.SameCoordinates,Original*%
%TF.FileFunction,Copper,L1,Top*%
%TF.FilePolarity,Positive*%
%FSLAX46Y46*%
G04 Gerber Fmt 4.6, Leading zero omitted, Abs format (unit mm)*
G04 Created by KiCad (PCBNEW (6.0.8)) date 2023-03-28 20:57:46*
%MOMM*%
%LPD*%
G01*
G04 APERTURE LIST*
G04 Aperture macros list*
%AMRoundRect*
0 Rectangle with rounded corners*
0 $1 Rounding radius*
0 $2 $3 $4 $5 $6 $7 $8 $9 X,Y pos of 4 corners*
0 Add a 4 corners polygon primitive as box body*
4,1,4,$2,$3,$4,$5,$6,$7,$8,$9,$2,$3,0*
0 Add four circle primitives for the rounded corners*
1,1,$1+$1,$2,$3*
1,1,$1+$1,$4,$5*
1,1,$1+$1,$6,$7*
1,1,$1+$1,$8,$9*
0 Add four rect primitives between the rounded corners*
20,1,$1+$1,$2,$3,$4,$5,0*
20,1,$1+$1,$4,$5,$6,$7,0*
20,1,$1+$1,$6,$7,$8,$9,0*
20,1,$1+$1,$8,$9,$2,$3,0*%
G04 Aperture macros list end*
%TA.AperFunction,SMDPad,CuDef*%
%ADD10R,1.700000X1.700000*%
%TD*%
%TA.AperFunction,ComponentPad*%
%ADD11O,1.700000X1.700000*%
%TD*%
%TA.AperFunction,ComponentPad*%
%ADD12R,1.700000X1.700000*%
%TD*%
%TA.AperFunction,SMDPad,CuDef*%
%ADD13R,1.600000X0.900000*%
%TD*%
%TA.AperFunction,SMDPad,CuDef*%
%ADD14R,0.250000X0.500000*%
%TD*%
%TA.AperFunction,SMDPad,CuDef*%
%ADD15RoundRect,0.200000X0.200000X0.275000X-0.200000X0.275000X-0.200000X-0.275000X0.200000X-0.275000X0*%
%TD*%
%TA.AperFunction,ViaPad*%
%ADD16C,0.800000*%
%TD*%
%TA.AperFunction,Conductor*%
%ADD17C,0.250000*%
%TD*%
%TA.AperFunction,Conductor*%
%ADD18C,0.300000*%
%TD*%
%TA.AperFunction,Conductor*%
%ADD19C,0.800000*%
%TD*%
G04 APERTURE END LIST*
D10*
%TO.P,J2,1,Pin_1*%
%TO.N,+3V3*%
X58680000Y-51220000D03*
%TD*%
D11*
%TO.P,J1,8,Pin_8*%
%TO.N,GND*%
X56140000Y-58840000D03*
%TO.P,J1,7,Pin_7*%
X53600000Y-58840000D03*
%TO.P,J1,6,Pin_6*%
%TO.N,+5V*%
X56140000Y-56300000D03*
%TO.P,J1,5,Pin_5*%
X53600000Y-56300000D03*
%TO.P,J1,4,Pin_4*%
%TO.N,/IN2*%
X56140000Y-53760000D03*
%TO.P,J1,3,Pin_3*%
%TO.N,/IN1*%
X53600000Y-53760000D03*
D12*
%TO.P,J1,2,Pin_2*%
%TO.N,/OUT1*%
X56140000Y-51220000D03*
%TO.P,J1,1,Pin_1*%
%TO.N,/OUT2*%
X53600000Y-51220000D03*
%TD*%
D13*
%TO.P,U1,9,GND*%
%TO.N,GND*%
X59500000Y-54660000D03*
D14*
%TO.P,U1,8,VCC*%
%TO.N,+3V3*%
X60250000Y-55610000D03*
%TO.P,U1,7,~{SLEEP}*%
%TO.N,/SLEEP*%
X59750000Y-55610000D03*
%TO.P,U1,6,IN1*%
%TO.N,/IN1*%
X59250000Y-55610000D03*
%TO.P,U1,5,IN2*%
%TO.N,/IN2*%
X58750000Y-55610000D03*
%TO.P,U1,4,GND*%
%TO.N,GND*%
X58750000Y-53710000D03*
%TO.P,U1,3,OUT2*%
%TO.N,/OUT2*%
X59250000Y-53710000D03*
%TO.P,U1,2,OUT1*%
%TO.N,/OUT1*%
X59750000Y-53710000D03*
%TO.P,U1,1,VM*%
%TO.N,+5V*%
X60250000Y-53710000D03*
%TD*%
D15*
%TO.P,R1,1*%
%TO.N,/SLEEP*%
X61750000Y-51590000D03*
%TO.P,R1,2*%
%TO.N,+3V3*%
X60100000Y-51590000D03*
%TD*%
D16*
%TO.N,+5V*%
X61000000Y-54340000D03*
%TO.N,/OUT2*%
X58900000Y-52839745D03*
%TO.N,/OUT1*%
X60093001Y-52840000D03*
%TO.N,GND*%
X58000000Y-54660000D03*
%TD*%
D17*
%TO.N,/SLEEP*%
X62175000Y-52015000D02*
X61750000Y-51590000D01*
X62175000Y-53165000D02*
X62175000Y-52015000D01*
X62175000Y-55001396D02*
X62175000Y-53165000D01*
D18*
%TO.N,+5V*%
X61000000Y-53980000D02*
X60730000Y-53710000D01*
X61000000Y-54340000D02*
X61000000Y-53980000D01*
X60250000Y-53710000D02*
X60730000Y-53710000D01*
D19*
X53600000Y-56300000D02*
X56140000Y-56300000D01*
D17*
%TO.N,GND*%
X58750000Y-54590000D02*
X58680000Y-54660000D01*
X58750000Y-53710000D02*
X58750000Y-54590000D01*
X58750000Y-53710000D02*
X58750000Y-54190000D01*
%TO.N,+3V3*%
X61725000Y-54815000D02*
X61725000Y-52890000D01*
X61725000Y-52890000D02*
X60500000Y-51665000D01*
X60930000Y-55610000D02*
X61725000Y-54815000D01*
X60250000Y-55610000D02*
X60930000Y-55610000D01*
%TO.N,/SLEEP*%
X60936396Y-56240000D02*
X62175000Y-55001396D01*
X59900000Y-56240000D02*
X60936396Y-56240000D01*
X59750000Y-56090000D02*
X59900000Y-56240000D01*
X59750000Y-55610000D02*
X59750000Y-56090000D01*
%TO.N,/IN1*%
X54880000Y-55040000D02*
X53600000Y-53760000D01*
X56700000Y-55040000D02*
X54880000Y-55040000D01*
X57900000Y-56240000D02*
X56700000Y-55040000D01*
X59100000Y-56240000D02*
X57900000Y-56240000D01*
X59250000Y-56090000D02*
X59100000Y-56240000D01*
X59250000Y-55610000D02*
X59250000Y-56090000D01*
%TO.N,/IN2*%
X56140000Y-53825306D02*
X56140000Y-53760000D01*
X57924695Y-55610000D02*
X56140000Y-53825306D01*
X58750000Y-55610000D02*
X57924695Y-55610000D01*
%TO.N,/OUT2*%
X59250000Y-53189745D02*
X58900000Y-52839745D01*
X59250000Y-53710000D02*
X59250000Y-53189745D01*
%TO.N,/OUT1*%
X59750000Y-53710000D02*
X59750000Y-53183001D01*
X59750000Y-53183001D02*
X60093001Y-52840000D01*
%TO.N,+3V3*%
X59125000Y-51665000D02*
X58680000Y-51220000D01*
X60500000Y-51665000D02*
X59125000Y-51665000D01*
D19*
%TO.N,GND*%
X59500000Y-54660000D02*
X58000000Y-54660000D01*
%TD*%
M02*
