  0
SECTION
  2
HEADER
  9
$ANGBASE
  50
0.0
  9
$ANGDIR
  70
1
  9
$MEASUREMENT
  70
0
  0
ENDSEC
  0
SECTION
  2
TABLES
  0
TABLE
  2
LTYPE
  70
4
  0
LTYPE
  5
40F
  2
CONTINUOUS
  70
0
  3
Solid line
  72
65
  73
0
  40
0.0
  0
LTYPE
  5
410
  2
DASHDOT
 70
0
  3
Dash Dot ____ _ ____ _
 72
65
 73
4
 40
2.0
 49
1.25
 49
-0.25
 49
0.25
 49
-0.25
  0
LTYPE
  5
411
  2
DASHED
 70
0
  3
Dashed __ __ __ __ __
 72
65
 73
2
 40
0.75
 49
0.5
 49
-0.25
  0
LTYPE
  5
43B
  2
DOTTED
 70
0
  3
Dotted .  .  .  .
 72
65
 73
2
 40
0.2
 49
0.0
 49
-0.2
  0
ENDTAB
  0
TABLE
  2
STYLE
  70
4
  0
STYLE
  2
KICAD
  70
0
  40
0
  41
1
  42
1
  50
0
  71
0
  3
isocp.shx
  0
STYLE
  2
KICADB
  70
0
  40
0
  41
1
  42
1
  50
0
  71
0
  3
isocp.shx
  0
STYLE
  2
KICADI
  70
0
  40
0
  41
1
  42
1
  50
15
  71
0
  3
isocp.shx
  0
STYLE
  2
KICADBI
  70
0
  40
0
  41
1
  42
1
  50
15
  71
0
  3
isocp.shx
  0
ENDTAB
  0
TABLE
  2
LAYER
  70
1
  0
LAYER
  2
BLACK
  70
0
  62
7
  6
CONTINUOUS
  0
ENDTAB
  0
ENDSEC
  0
SECTION
  2
ENTITIES
0
LINE
8
BLACK
6
CONTINUOUS
10
3.99016
20
-3.37598
11
3.89173
21
-3.37598
0
LINE
8
BLACK
6
CONTINUOUS
10
3.89173
20
-3.37598
11
3.89173
21
-3.33661
0
LINE
8
BLACK
6
CONTINUOUS
10
3.89173
20
-3.33661
11
3.99016
21
-3.33661
0
LINE
8
BLACK
6
CONTINUOUS
10
3.99016
20
-3.33661
11
3.99016
21
-3.37598
0
LINE
8
BLACK
6
CONTINUOUS
10
3.39173
20
-3.37598
11
3.29331
21
-3.37598
0
LINE
8
BLACK
6
CONTINUOUS
10
3.29331
20
-3.37598
11
3.29331
21
-3.33661
0
LINE
8
BLACK
6
CONTINUOUS
10
3.29331
20
-3.33661
11
3.39173
21
-3.33661
0
LINE
8
BLACK
6
CONTINUOUS
10
3.39173
20
-3.33661
11
3.39173
21
-3.37598
0
LINE
8
BLACK
6
CONTINUOUS
10
4.01969
20
-3.29724
11
3.8622
21
-3.29724
0
LINE
8
BLACK
6
CONTINUOUS
10
3.8622
20
-3.29724
11
3.8622
21
-3.25787
0
LINE
8
BLACK
6
CONTINUOUS
10
3.8622
20
-3.25787
11
4.01969
21
-3.25787
0
LINE
8
BLACK
6
CONTINUOUS
10
4.01969
20
-3.25787
11
4.01969
21
-3.29724
0
LINE
8
BLACK
6
CONTINUOUS
10
3.39173
20
-3.29724
11
3.29331
21
-3.29724
0
LINE
8
BLACK
6
CONTINUOUS
10
3.29331
20
-3.29724
11
3.29331
21
-3.25787
0
LINE
8
BLACK
6
CONTINUOUS
10
3.29331
20
-3.25787
11
3.39173
21
-3.25787
0
LINE
8
BLACK
6
CONTINUOUS
10
3.39173
20
-3.25787
11
3.39173
21
-3.29724
0
LINE
8
BLACK
6
CONTINUOUS
10
3.99016
20
-3.2185
11
3.89173
21
-3.2185
0
LINE
8
BLACK
6
CONTINUOUS
10
3.89173
20
-3.2185
11
3.89173
21
-3.17913
0
LINE
8
BLACK
6
CONTINUOUS
10
3.89173
20
-3.17913
11
3.99016
21
-3.17913
0
LINE
8
BLACK
6
CONTINUOUS
10
3.99016
20
-3.17913
11
3.99016
21
-3.2185
0
LINE
8
BLACK
6
CONTINUOUS
10
3.39173
20
-3.2185
11
3.29331
21
-3.2185
0
LINE
8
BLACK
6
CONTINUOUS
10
3.29331
20
-3.2185
11
3.29331
21
-3.17913
0
LINE
8
BLACK
6
CONTINUOUS
10
3.29331
20
-3.17913
11
3.39173
21
-3.17913
0
LINE
8
BLACK
6
CONTINUOUS
10
3.39173
20
-3.17913
11
3.39173
21
-3.2185
0
LINE
8
BLACK
6
CONTINUOUS
10
4.01969
20
-3.13976
11
3.8622
21
-3.13976
0
LINE
8
BLACK
6
CONTINUOUS
10
3.8622
20
-3.13976
11
3.8622
21
-3.10039
0
LINE
8
BLACK
6
CONTINUOUS
10
3.8622
20
-3.10039
11
4.01969
21
-3.10039
0
LINE
8
BLACK
6
CONTINUOUS
10
4.01969
20
-3.10039
11
4.01969
21
-3.13976
0
LINE
8
BLACK
6
CONTINUOUS
10
3.39173
20
-3.13976
11
3.29331
21
-3.13976
0
LINE
8
BLACK
6
CONTINUOUS
10
3.29331
20
-3.13976
11
3.29331
21
-3.10039
0
LINE
8
BLACK
6
CONTINUOUS
10
3.29331
20
-3.10039
11
3.39173
21
-3.10039
0
LINE
8
BLACK
6
CONTINUOUS
10
3.39173
20
-3.10039
11
3.39173
21
-3.13976
0
LINE
8
BLACK
6
CONTINUOUS
10
3.99016
20
-3.06102
11
3.89173
21
-3.06102
0
LINE
8
BLACK
6
CONTINUOUS
10
3.89173
20
-3.06102
11
3.89173
21
-3.02165
0
LINE
8
BLACK
6
CONTINUOUS
10
3.89173
20
-3.02165
11
3.99016
21
-3.02165
0
LINE
8
BLACK
6
CONTINUOUS
10
3.99016
20
-3.02165
11
3.99016
21
-3.06102
0
LINE
8
BLACK
6
CONTINUOUS
10
3.39173
20
-3.06102
11
3.29331
21
-3.06102
0
LINE
8
BLACK
6
CONTINUOUS
10
3.29331
20
-3.06102
11
3.29331
21
-3.02165
0
LINE
8
BLACK
6
CONTINUOUS
10
3.29331
20
-3.02165
11
3.39173
21
-3.02165
0
LINE
8
BLACK
6
CONTINUOUS
10
3.39173
20
-3.02165
11
3.39173
21
-3.06102
0
LINE
8
BLACK
6
CONTINUOUS
10
3.99016
20
-2.98228
11
3.89173
21
-2.98228
0
LINE
8
BLACK
6
CONTINUOUS
10
3.89173
20
-2.98228
11
3.89173
21
-2.94291
0
LINE
8
BLACK
6
CONTINUOUS
10
3.89173
20
-2.94291
11
3.99016
21
-2.94291
0
LINE
8
BLACK
6
CONTINUOUS
10
3.99016
20
-2.94291
11
3.99016
21
-2.98228
0
LINE
8
BLACK
6
CONTINUOUS
10
3.39173
20
-2.98228
11
3.29331
21
-2.98228
0
LINE
8
BLACK
6
CONTINUOUS
10
3.29331
20
-2.98228
11
3.29331
21
-2.94291
0
LINE
8
BLACK
6
CONTINUOUS
10
3.29331
20
-2.94291
11
3.39173
21
-2.94291
0
LINE
8
BLACK
6
CONTINUOUS
10
3.39173
20
-2.94291
11
3.39173
21
-2.98228
0
LINE
8
BLACK
6
CONTINUOUS
10
3.99016
20
-2.90354
11
3.89173
21
-2.90354
0
LINE
8
BLACK
6
CONTINUOUS
10
3.89173
20
-2.90354
11
3.89173
21
-2.86417
0
LINE
8
BLACK
6
CONTINUOUS
10
3.89173
20
-2.86417
11
3.99016
21
-2.86417
0
LINE
8
BLACK
6
CONTINUOUS
10
3.99016
20
-2.86417
11
3.99016
21
-2.90354
0
LINE
8
BLACK
6
CONTINUOUS
10
3.39173
20
-2.90354
11
3.29331
21
-2.90354
0
LINE
8
BLACK
6
CONTINUOUS
10
3.29331
20
-2.90354
11
3.29331
21
-2.86417
0
LINE
8
BLACK
6
CONTINUOUS
10
3.29331
20
-2.86417
11
3.39173
21
-2.86417
0
LINE
8
BLACK
6
CONTINUOUS
10
3.39173
20
-2.86417
11
3.39173
21
-2.90354
0
LINE
8
BLACK
6
CONTINUOUS
10
3.99016
20
-2.8248
11
3.89173
21
-2.8248
0
LINE
8
BLACK
6
CONTINUOUS
10
3.89173
20
-2.8248
11
3.89173
21
-2.78543
0
LINE
8
BLACK
6
CONTINUOUS
10
3.89173
20
-2.78543
11
3.99016
21
-2.78543
0
LINE
8
BLACK
6
CONTINUOUS
10
3.99016
20
-2.78543
11
3.99016
21
-2.8248
0
LINE
8
BLACK
6
CONTINUOUS
10
3.39173
20
-2.8248
11
3.29331
21
-2.8248
0
LINE
8
BLACK
6
CONTINUOUS
10
3.29331
20
-2.8248
11
3.29331
21
-2.78543
0
LINE
8
BLACK
6
CONTINUOUS
10
3.29331
20
-2.78543
11
3.39173
21
-2.78543
0
LINE
8
BLACK
6
CONTINUOUS
10
3.39173
20
-2.78543
11
3.39173
21
-2.8248
  0
ENDSEC
  0
EOF
