  0
SECTION
  2
HEADER
  9
$ANGBASE
  50
0.0
  9
$ANGDIR
  70
1
  9
$MEASUREMENT
  70
0
  0
ENDSEC
  0
SECTION
  2
TABLES
  0
TABLE
  2
LTYPE
  70
4
  0
LTYPE
  5
40F
  2
CONTINUOUS
  70
0
  3
Solid line
  72
65
  73
0
  40
0.0
  0
LTYPE
  5
410
  2
DASHDOT
 70
0
  3
Dash Dot ____ _ ____ _
 72
65
 73
4
 40
2.0
 49
1.25
 49
-0.25
 49
0.25
 49
-0.25
  0
LTYPE
  5
411
  2
DASHED
 70
0
  3
Dashed __ __ __ __ __
 72
65
 73
2
 40
0.75
 49
0.5
 49
-0.25
  0
LTYPE
  5
43B
  2
DOTTED
 70
0
  3
Dotted .  .  .  .
 72
65
 73
2
 40
0.2
 49
0.0
 49
-0.2
  0
ENDTAB
  0
TABLE
  2
STYLE
  70
4
  0
STYLE
  2
KICAD
  70
0
  40
0
  41
1
  42
1
  50
0
  71
0
  3
isocp.shx
  0
STYLE
  2
KICADB
  70
0
  40
0
  41
1
  42
1
  50
0
  71
0
  3
isocp.shx
  0
STYLE
  2
KICADI
  70
0
  40
0
  41
1
  42
1
  50
15
  71
0
  3
isocp.shx
  0
STYLE
  2
KICADBI
  70
0
  40
0
  41
1
  42
1
  50
15
  71
0
  3
isocp.shx
  0
ENDTAB
  0
TABLE
  2
LAYER
  70
1
  0
LAYER
  2
BLACK
  70
0
  62
7
  6
CONTINUOUS
  0
ENDTAB
  0
ENDSEC
  0
SECTION
  2
ENTITIES
0
LINE
8
BLACK
6
CONTINUOUS
10
3.18018
20
-3.57442
11
3.18273
21
-3.57613
0
LINE
8
BLACK
6
CONTINUOUS
10
3.18273
20
-3.57613
11
3.18444
21
-3.57868
0
LINE
8
BLACK
6
CONTINUOUS
10
3.18444
20
-3.57868
11
3.18504
21
-3.58169
0
LINE
8
BLACK
6
CONTINUOUS
10
3.18504
20
-3.58169
11
3.18504
21
-3.60335
0
LINE
8
BLACK
6
CONTINUOUS
10
3.18504
20
-3.60335
11
3.18444
21
-3.60636
0
LINE
8
BLACK
6
CONTINUOUS
10
3.18444
20
-3.60636
11
3.18273
21
-3.60891
0
LINE
8
BLACK
6
CONTINUOUS
10
3.18273
20
-3.60891
11
3.18018
21
-3.61062
0
LINE
8
BLACK
6
CONTINUOUS
10
3.18018
20
-3.61062
11
3.17717
21
-3.61122
0
LINE
8
BLACK
6
CONTINUOUS
10
3.17717
20
-3.61122
11
3.16142
21
-3.61122
0
LINE
8
BLACK
6
CONTINUOUS
10
3.16142
20
-3.61122
11
3.1584
21
-3.61062
0
LINE
8
BLACK
6
CONTINUOUS
10
3.1584
20
-3.61062
11
3.15585
21
-3.60891
0
LINE
8
BLACK
6
CONTINUOUS
10
3.15585
20
-3.60891
11
3.15414
21
-3.60636
0
LINE
8
BLACK
6
CONTINUOUS
10
3.15414
20
-3.60636
11
3.15354
21
-3.60335
0
LINE
8
BLACK
6
CONTINUOUS
10
3.15354
20
-3.60335
11
3.15354
21
-3.58169
0
LINE
8
BLACK
6
CONTINUOUS
10
3.15354
20
-3.58169
11
3.15414
21
-3.57868
0
LINE
8
BLACK
6
CONTINUOUS
10
3.15414
20
-3.57868
11
3.15585
21
-3.57613
0
LINE
8
BLACK
6
CONTINUOUS
10
3.15585
20
-3.57613
11
3.1584
21
-3.57442
0
LINE
8
BLACK
6
CONTINUOUS
10
3.1584
20
-3.57442
11
3.16142
21
-3.57382
0
LINE
8
BLACK
6
CONTINUOUS
10
3.16142
20
-3.57382
11
3.17717
21
-3.57382
0
LINE
8
BLACK
6
CONTINUOUS
10
3.17717
20
-3.57382
11
3.18018
21
-3.57442
0
LINE
8
BLACK
6
CONTINUOUS
10
3.24514
20
-3.57442
11
3.24769
21
-3.57613
0
LINE
8
BLACK
6
CONTINUOUS
10
3.24769
20
-3.57613
11
3.2494
21
-3.57868
0
LINE
8
BLACK
6
CONTINUOUS
10
3.2494
20
-3.57868
11
3.25
21
-3.58169
0
LINE
8
BLACK
6
CONTINUOUS
10
3.25
20
-3.58169
11
3.25
21
-3.60335
0
LINE
8
BLACK
6
CONTINUOUS
10
3.25
20
-3.60335
11
3.2494
21
-3.60636
0
LINE
8
BLACK
6
CONTINUOUS
10
3.2494
20
-3.60636
11
3.24769
21
-3.60891
0
LINE
8
BLACK
6
CONTINUOUS
10
3.24769
20
-3.60891
11
3.24514
21
-3.61062
0
LINE
8
BLACK
6
CONTINUOUS
10
3.24514
20
-3.61062
11
3.24213
21
-3.61122
0
LINE
8
BLACK
6
CONTINUOUS
10
3.24213
20
-3.61122
11
3.22638
21
-3.61122
0
LINE
8
BLACK
6
CONTINUOUS
10
3.22638
20
-3.61122
11
3.22336
21
-3.61062
0
LINE
8
BLACK
6
CONTINUOUS
10
3.22336
20
-3.61062
11
3.22081
21
-3.60891
0
LINE
8
BLACK
6
CONTINUOUS
10
3.22081
20
-3.60891
11
3.2191
21
-3.60636
0
LINE
8
BLACK
6
CONTINUOUS
10
3.2191
20
-3.60636
11
3.2185
21
-3.60335
0
LINE
8
BLACK
6
CONTINUOUS
10
3.2185
20
-3.60335
11
3.2185
21
-3.58169
0
LINE
8
BLACK
6
CONTINUOUS
10
3.2185
20
-3.58169
11
3.2191
21
-3.57868
0
LINE
8
BLACK
6
CONTINUOUS
10
3.2191
20
-3.57868
11
3.22081
21
-3.57613
0
LINE
8
BLACK
6
CONTINUOUS
10
3.22081
20
-3.57613
11
3.22336
21
-3.57442
0
LINE
8
BLACK
6
CONTINUOUS
10
3.22336
20
-3.57442
11
3.22638
21
-3.57382
0
LINE
8
BLACK
6
CONTINUOUS
10
3.22638
20
-3.57382
11
3.24213
21
-3.57382
0
LINE
8
BLACK
6
CONTINUOUS
10
3.24213
20
-3.57382
11
3.24514
21
-3.57442
0
LINE
8
BLACK
6
CONTINUOUS
10
3.18018
20
-3.50552
11
3.18273
21
-3.50723
0
LINE
8
BLACK
6
CONTINUOUS
10
3.18273
20
-3.50723
11
3.18444
21
-3.50978
0
LINE
8
BLACK
6
CONTINUOUS
10
3.18444
20
-3.50978
11
3.18504
21
-3.5128
0
LINE
8
BLACK
6
CONTINUOUS
10
3.18504
20
-3.5128
11
3.18504
21
-3.53445
0
LINE
8
BLACK
6
CONTINUOUS
10
3.18504
20
-3.53445
11
3.18444
21
-3.53746
0
LINE
8
BLACK
6
CONTINUOUS
10
3.18444
20
-3.53746
11
3.18273
21
-3.54002
0
LINE
8
BLACK
6
CONTINUOUS
10
3.18273
20
-3.54002
11
3.18018
21
-3.54172
0
LINE
8
BLACK
6
CONTINUOUS
10
3.18018
20
-3.54172
11
3.17717
21
-3.54232
0
LINE
8
BLACK
6
CONTINUOUS
10
3.17717
20
-3.54232
11
3.16142
21
-3.54232
0
LINE
8
BLACK
6
CONTINUOUS
10
3.16142
20
-3.54232
11
3.1584
21
-3.54172
0
LINE
8
BLACK
6
CONTINUOUS
10
3.1584
20
-3.54172
11
3.15585
21
-3.54002
0
LINE
8
BLACK
6
CONTINUOUS
10
3.15585
20
-3.54002
11
3.15414
21
-3.53746
0
LINE
8
BLACK
6
CONTINUOUS
10
3.15414
20
-3.53746
11
3.15354
21
-3.53445
0
LINE
8
BLACK
6
CONTINUOUS
10
3.15354
20
-3.53445
11
3.15354
21
-3.5128
0
LINE
8
BLACK
6
CONTINUOUS
10
3.15354
20
-3.5128
11
3.15414
21
-3.50978
0
LINE
8
BLACK
6
CONTINUOUS
10
3.15414
20
-3.50978
11
3.15585
21
-3.50723
0
LINE
8
BLACK
6
CONTINUOUS
10
3.15585
20
-3.50723
11
3.1584
21
-3.50552
0
LINE
8
BLACK
6
CONTINUOUS
10
3.1584
20
-3.50552
11
3.16142
21
-3.50492
0
LINE
8
BLACK
6
CONTINUOUS
10
3.16142
20
-3.50492
11
3.17717
21
-3.50492
0
LINE
8
BLACK
6
CONTINUOUS
10
3.17717
20
-3.50492
11
3.18018
21
-3.50552
0
LINE
8
BLACK
6
CONTINUOUS
10
3.24514
20
-3.50552
11
3.24769
21
-3.50723
0
LINE
8
BLACK
6
CONTINUOUS
10
3.24769
20
-3.50723
11
3.2494
21
-3.50978
0
LINE
8
BLACK
6
CONTINUOUS
10
3.2494
20
-3.50978
11
3.25
21
-3.5128
0
LINE
8
BLACK
6
CONTINUOUS
10
3.25
20
-3.5128
11
3.25
21
-3.53445
0
LINE
8
BLACK
6
CONTINUOUS
10
3.25
20
-3.53445
11
3.2494
21
-3.53746
0
LINE
8
BLACK
6
CONTINUOUS
10
3.2494
20
-3.53746
11
3.24769
21
-3.54002
0
LINE
8
BLACK
6
CONTINUOUS
10
3.24769
20
-3.54002
11
3.24514
21
-3.54172
0
LINE
8
BLACK
6
CONTINUOUS
10
3.24514
20
-3.54172
11
3.24213
21
-3.54232
0
LINE
8
BLACK
6
CONTINUOUS
10
3.24213
20
-3.54232
11
3.22638
21
-3.54232
0
LINE
8
BLACK
6
CONTINUOUS
10
3.22638
20
-3.54232
11
3.22336
21
-3.54172
0
LINE
8
BLACK
6
CONTINUOUS
10
3.22336
20
-3.54172
11
3.22081
21
-3.54002
0
LINE
8
BLACK
6
CONTINUOUS
10
3.22081
20
-3.54002
11
3.2191
21
-3.53746
0
LINE
8
BLACK
6
CONTINUOUS
10
3.2191
20
-3.53746
11
3.2185
21
-3.53445
0
LINE
8
BLACK
6
CONTINUOUS
10
3.2185
20
-3.53445
11
3.2185
21
-3.5128
0
LINE
8
BLACK
6
CONTINUOUS
10
3.2185
20
-3.5128
11
3.2191
21
-3.50978
0
LINE
8
BLACK
6
CONTINUOUS
10
3.2191
20
-3.50978
11
3.22081
21
-3.50723
0
LINE
8
BLACK
6
CONTINUOUS
10
3.22081
20
-3.50723
11
3.22336
21
-3.50552
0
LINE
8
BLACK
6
CONTINUOUS
10
3.22336
20
-3.50552
11
3.22638
21
-3.50492
0
LINE
8
BLACK
6
CONTINUOUS
10
3.22638
20
-3.50492
11
3.24213
21
-3.50492
0
LINE
8
BLACK
6
CONTINUOUS
10
3.24213
20
-3.50492
11
3.24514
21
-3.50552
0
LINE
8
BLACK
6
CONTINUOUS
10
3.96993
20
-3.47902
11
3.9728
21
-3.48094
0
LINE
8
BLACK
6
CONTINUOUS
10
3.9728
20
-3.48094
11
3.97472
21
-3.48381
0
LINE
8
BLACK
6
CONTINUOUS
10
3.97472
20
-3.48381
11
3.97539
21
-3.4872
0
LINE
8
BLACK
6
CONTINUOUS
10
3.97539
20
-3.4872
11
3.97539
21
-3.50492
0
LINE
8
BLACK
6
CONTINUOUS
10
3.97539
20
-3.50492
11
3.97472
21
-3.50831
0
LINE
8
BLACK
6
CONTINUOUS
10
3.97472
20
-3.50831
11
3.9728
21
-3.51118
0
LINE
8
BLACK
6
CONTINUOUS
10
3.9728
20
-3.51118
11
3.96993
21
-3.51311
0
LINE
8
BLACK
6
CONTINUOUS
10
3.96993
20
-3.51311
11
3.96654
21
-3.51378
0
LINE
8
BLACK
6
CONTINUOUS
10
3.96654
20
-3.51378
11
3.94685
21
-3.51378
0
LINE
8
BLACK
6
CONTINUOUS
10
3.94685
20
-3.51378
11
3.94346
21
-3.51311
0
LINE
8
BLACK
6
CONTINUOUS
10
3.94346
20
-3.51311
11
3.94059
21
-3.51118
0
LINE
8
BLACK
6
CONTINUOUS
10
3.94059
20
-3.51118
11
3.93867
21
-3.50831
0
LINE
8
BLACK
6
CONTINUOUS
10
3.93867
20
-3.50831
11
3.93799
21
-3.50492
0
LINE
8
BLACK
6
CONTINUOUS
10
3.93799
20
-3.50492
11
3.93799
21
-3.4872
0
LINE
8
BLACK
6
CONTINUOUS
10
3.93799
20
-3.4872
11
3.93867
21
-3.48381
0
LINE
8
BLACK
6
CONTINUOUS
10
3.93867
20
-3.48381
11
3.94059
21
-3.48094
0
LINE
8
BLACK
6
CONTINUOUS
10
3.94059
20
-3.48094
11
3.94346
21
-3.47902
0
LINE
8
BLACK
6
CONTINUOUS
10
3.94346
20
-3.47902
11
3.94685
21
-3.47835
0
LINE
8
BLACK
6
CONTINUOUS
10
3.94685
20
-3.47835
11
3.96654
21
-3.47835
0
LINE
8
BLACK
6
CONTINUOUS
10
3.96654
20
-3.47835
11
3.96993
21
-3.47902
0
LINE
8
BLACK
6
CONTINUOUS
10
3.96993
20
-3.418
11
3.9728
21
-3.41992
0
LINE
8
BLACK
6
CONTINUOUS
10
3.9728
20
-3.41992
11
3.97472
21
-3.42279
0
LINE
8
BLACK
6
CONTINUOUS
10
3.97472
20
-3.42279
11
3.97539
21
-3.42618
0
LINE
8
BLACK
6
CONTINUOUS
10
3.97539
20
-3.42618
11
3.97539
21
-3.4439
0
LINE
8
BLACK
6
CONTINUOUS
10
3.97539
20
-3.4439
11
3.97472
21
-3.44729
0
LINE
8
BLACK
6
CONTINUOUS
10
3.97472
20
-3.44729
11
3.9728
21
-3.45016
0
LINE
8
BLACK
6
CONTINUOUS
10
3.9728
20
-3.45016
11
3.96993
21
-3.45208
0
LINE
8
BLACK
6
CONTINUOUS
10
3.96993
20
-3.45208
11
3.96654
21
-3.45276
0
LINE
8
BLACK
6
CONTINUOUS
10
3.96654
20
-3.45276
11
3.94685
21
-3.45276
0
LINE
8
BLACK
6
CONTINUOUS
10
3.94685
20
-3.45276
11
3.94346
21
-3.45208
0
LINE
8
BLACK
6
CONTINUOUS
10
3.94346
20
-3.45208
11
3.94059
21
-3.45016
0
LINE
8
BLACK
6
CONTINUOUS
10
3.94059
20
-3.45016
11
3.93867
21
-3.44729
0
LINE
8
BLACK
6
CONTINUOUS
10
3.93867
20
-3.44729
11
3.93799
21
-3.4439
0
LINE
8
BLACK
6
CONTINUOUS
10
3.93799
20
-3.4439
11
3.93799
21
-3.42618
0
LINE
8
BLACK
6
CONTINUOUS
10
3.93799
20
-3.42618
11
3.93867
21
-3.42279
0
LINE
8
BLACK
6
CONTINUOUS
10
3.93867
20
-3.42279
11
3.94059
21
-3.41992
0
LINE
8
BLACK
6
CONTINUOUS
10
3.94059
20
-3.41992
11
3.94346
21
-3.418
0
LINE
8
BLACK
6
CONTINUOUS
10
3.94346
20
-3.418
11
3.94685
21
-3.41732
0
LINE
8
BLACK
6
CONTINUOUS
10
3.94685
20
-3.41732
11
3.96654
21
-3.41732
0
LINE
8
BLACK
6
CONTINUOUS
10
3.96654
20
-3.41732
11
3.96993
21
-3.418
0
LINE
8
BLACK
6
CONTINUOUS
10
3.46599
20
-3.37567
11
3.46886
21
-3.37759
0
LINE
8
BLACK
6
CONTINUOUS
10
3.46886
20
-3.37759
11
3.47078
21
-3.38047
0
LINE
8
BLACK
6
CONTINUOUS
10
3.47078
20
-3.38047
11
3.47146
21
-3.38386
0
LINE
8
BLACK
6
CONTINUOUS
10
3.47146
20
-3.38386
11
3.47146
21
-3.40354
0
LINE
8
BLACK
6
CONTINUOUS
10
3.47146
20
-3.40354
11
3.47078
21
-3.40693
0
LINE
8
BLACK
6
CONTINUOUS
10
3.47078
20
-3.40693
11
3.46886
21
-3.40981
0
LINE
8
BLACK
6
CONTINUOUS
10
3.46886
20
-3.40981
11
3.46599
21
-3.41173
0
LINE
8
BLACK
6
CONTINUOUS
10
3.46599
20
-3.41173
11
3.4626
21
-3.4124
0
LINE
8
BLACK
6
CONTINUOUS
10
3.4626
20
-3.4124
11
3.44488
21
-3.4124
0
LINE
8
BLACK
6
CONTINUOUS
10
3.44488
20
-3.4124
11
3.44149
21
-3.41173
0
LINE
8
BLACK
6
CONTINUOUS
10
3.44149
20
-3.41173
11
3.43862
21
-3.40981
0
LINE
8
BLACK
6
CONTINUOUS
10
3.43862
20
-3.40981
11
3.4367
21
-3.40693
0
LINE
8
BLACK
6
CONTINUOUS
10
3.4367
20
-3.40693
11
3.43602
21
-3.40354
0
LINE
8
BLACK
6
CONTINUOUS
10
3.43602
20
-3.40354
11
3.43602
21
-3.38386
0
LINE
8
BLACK
6
CONTINUOUS
10
3.43602
20
-3.38386
11
3.4367
21
-3.38047
0
LINE
8
BLACK
6
CONTINUOUS
10
3.4367
20
-3.38047
11
3.43862
21
-3.37759
0
LINE
8
BLACK
6
CONTINUOUS
10
3.43862
20
-3.37759
11
3.44149
21
-3.37567
0
LINE
8
BLACK
6
CONTINUOUS
10
3.44149
20
-3.37567
11
3.44488
21
-3.375
0
LINE
8
BLACK
6
CONTINUOUS
10
3.44488
20
-3.375
11
3.4626
21
-3.375
0
LINE
8
BLACK
6
CONTINUOUS
10
3.4626
20
-3.375
11
3.46599
21
-3.37567
0
LINE
8
BLACK
6
CONTINUOUS
10
3.52701
20
-3.37567
11
3.52989
21
-3.37759
0
LINE
8
BLACK
6
CONTINUOUS
10
3.52989
20
-3.37759
11
3.53181
21
-3.38047
0
LINE
8
BLACK
6
CONTINUOUS
10
3.53181
20
-3.38047
11
3.53248
21
-3.38386
0
LINE
8
BLACK
6
CONTINUOUS
10
3.53248
20
-3.38386
11
3.53248
21
-3.40354
0
LINE
8
BLACK
6
CONTINUOUS
10
3.53248
20
-3.40354
11
3.53181
21
-3.40693
0
LINE
8
BLACK
6
CONTINUOUS
10
3.53181
20
-3.40693
11
3.52989
21
-3.40981
0
LINE
8
BLACK
6
CONTINUOUS
10
3.52989
20
-3.40981
11
3.52701
21
-3.41173
0
LINE
8
BLACK
6
CONTINUOUS
10
3.52701
20
-3.41173
11
3.52362
21
-3.4124
0
LINE
8
BLACK
6
CONTINUOUS
10
3.52362
20
-3.4124
11
3.50591
21
-3.4124
0
LINE
8
BLACK
6
CONTINUOUS
10
3.50591
20
-3.4124
11
3.50252
21
-3.41173
0
LINE
8
BLACK
6
CONTINUOUS
10
3.50252
20
-3.41173
11
3.49964
21
-3.40981
0
LINE
8
BLACK
6
CONTINUOUS
10
3.49964
20
-3.40981
11
3.49772
21
-3.40693
0
LINE
8
BLACK
6
CONTINUOUS
10
3.49772
20
-3.40693
11
3.49705
21
-3.40354
0
LINE
8
BLACK
6
CONTINUOUS
10
3.49705
20
-3.40354
11
3.49705
21
-3.38386
0
LINE
8
BLACK
6
CONTINUOUS
10
3.49705
20
-3.38386
11
3.49772
21
-3.38047
0
LINE
8
BLACK
6
CONTINUOUS
10
3.49772
20
-3.38047
11
3.49964
21
-3.37759
0
LINE
8
BLACK
6
CONTINUOUS
10
3.49964
20
-3.37759
11
3.50252
21
-3.37567
0
LINE
8
BLACK
6
CONTINUOUS
10
3.50252
20
-3.37567
11
3.50591
21
-3.375
0
LINE
8
BLACK
6
CONTINUOUS
10
3.50591
20
-3.375
11
3.52362
21
-3.375
0
LINE
8
BLACK
6
CONTINUOUS
10
3.52362
20
-3.375
11
3.52701
21
-3.37567
0
LINE
8
BLACK
6
CONTINUOUS
10
3.34394
20
-3.37567
11
3.34681
21
-3.37759
0
LINE
8
BLACK
6
CONTINUOUS
10
3.34681
20
-3.37759
11
3.34874
21
-3.38047
0
LINE
8
BLACK
6
CONTINUOUS
10
3.34874
20
-3.38047
11
3.34941
21
-3.38386
0
LINE
8
BLACK
6
CONTINUOUS
10
3.34941
20
-3.38386
11
3.34941
21
-3.40354
0
LINE
8
BLACK
6
CONTINUOUS
10
3.34941
20
-3.40354
11
3.34874
21
-3.40693
0
LINE
8
BLACK
6
CONTINUOUS
10
3.34874
20
-3.40693
11
3.34681
21
-3.40981
0
LINE
8
BLACK
6
CONTINUOUS
10
3.34681
20
-3.40981
11
3.34394
21
-3.41173
0
LINE
8
BLACK
6
CONTINUOUS
10
3.34394
20
-3.41173
11
3.34055
21
-3.4124
0
LINE
8
BLACK
6
CONTINUOUS
10
3.34055
20
-3.4124
11
3.32283
21
-3.4124
0
LINE
8
BLACK
6
CONTINUOUS
10
3.32283
20
-3.4124
11
3.31944
21
-3.41173
0
LINE
8
BLACK
6
CONTINUOUS
10
3.31944
20
-3.41173
11
3.31657
21
-3.40981
0
LINE
8
BLACK
6
CONTINUOUS
10
3.31657
20
-3.40981
11
3.31465
21
-3.40693
0
LINE
8
BLACK
6
CONTINUOUS
10
3.31465
20
-3.40693
11
3.31398
21
-3.40354
0
LINE
8
BLACK
6
CONTINUOUS
10
3.31398
20
-3.40354
11
3.31398
21
-3.38386
0
LINE
8
BLACK
6
CONTINUOUS
10
3.31398
20
-3.38386
11
3.31465
21
-3.38047
0
LINE
8
BLACK
6
CONTINUOUS
10
3.31465
20
-3.38047
11
3.31657
21
-3.37759
0
LINE
8
BLACK
6
CONTINUOUS
10
3.31657
20
-3.37759
11
3.31944
21
-3.37567
0
LINE
8
BLACK
6
CONTINUOUS
10
3.31944
20
-3.37567
11
3.32283
21
-3.375
0
LINE
8
BLACK
6
CONTINUOUS
10
3.32283
20
-3.375
11
3.34055
21
-3.375
0
LINE
8
BLACK
6
CONTINUOUS
10
3.34055
20
-3.375
11
3.34394
21
-3.37567
0
LINE
8
BLACK
6
CONTINUOUS
10
3.40496
20
-3.37567
11
3.40784
21
-3.37759
0
LINE
8
BLACK
6
CONTINUOUS
10
3.40784
20
-3.37759
11
3.40976
21
-3.38047
0
LINE
8
BLACK
6
CONTINUOUS
10
3.40976
20
-3.38047
11
3.41043
21
-3.38386
0
LINE
8
BLACK
6
CONTINUOUS
10
3.41043
20
-3.38386
11
3.41043
21
-3.40354
0
LINE
8
BLACK
6
CONTINUOUS
10
3.41043
20
-3.40354
11
3.40976
21
-3.40693
0
LINE
8
BLACK
6
CONTINUOUS
10
3.40976
20
-3.40693
11
3.40784
21
-3.40981
0
LINE
8
BLACK
6
CONTINUOUS
10
3.40784
20
-3.40981
11
3.40496
21
-3.41173
0
LINE
8
BLACK
6
CONTINUOUS
10
3.40496
20
-3.41173
11
3.40157
21
-3.4124
0
LINE
8
BLACK
6
CONTINUOUS
10
3.40157
20
-3.4124
11
3.38386
21
-3.4124
0
LINE
8
BLACK
6
CONTINUOUS
10
3.38386
20
-3.4124
11
3.38047
21
-3.41173
0
LINE
8
BLACK
6
CONTINUOUS
10
3.38047
20
-3.41173
11
3.37759
21
-3.40981
0
LINE
8
BLACK
6
CONTINUOUS
10
3.37759
20
-3.40981
11
3.37567
21
-3.40693
0
LINE
8
BLACK
6
CONTINUOUS
10
3.37567
20
-3.40693
11
3.375
21
-3.40354
0
LINE
8
BLACK
6
CONTINUOUS
10
3.375
20
-3.40354
11
3.375
21
-3.38386
0
LINE
8
BLACK
6
CONTINUOUS
10
3.375
20
-3.38386
11
3.37567
21
-3.38047
0
LINE
8
BLACK
6
CONTINUOUS
10
3.37567
20
-3.38047
11
3.37759
21
-3.37759
0
LINE
8
BLACK
6
CONTINUOUS
10
3.37759
20
-3.37759
11
3.38047
21
-3.37567
0
LINE
8
BLACK
6
CONTINUOUS
10
3.38047
20
-3.37567
11
3.38386
21
-3.375
0
LINE
8
BLACK
6
CONTINUOUS
10
3.38386
20
-3.375
11
3.40157
21
-3.375
0
LINE
8
BLACK
6
CONTINUOUS
10
3.40157
20
-3.375
11
3.40496
21
-3.37567
0
LINE
8
BLACK
6
CONTINUOUS
10
3.706
20
-3.37447
11
3.70792
21
-3.37575
0
LINE
8
BLACK
6
CONTINUOUS
10
3.70792
20
-3.37575
11
3.7092
21
-3.37766
0
LINE
8
BLACK
6
CONTINUOUS
10
3.7092
20
-3.37766
11
3.70965
21
-3.37992
0
LINE
8
BLACK
6
CONTINUOUS
10
3.70965
20
-3.37992
11
3.70965
21
-3.39173
0
LINE
8
BLACK
6
CONTINUOUS
10
3.70965
20
-3.39173
11
3.7092
21
-3.39399
0
LINE
8
BLACK
6
CONTINUOUS
10
3.7092
20
-3.39399
11
3.70792
21
-3.39591
0
LINE
8
BLACK
6
CONTINUOUS
10
3.70792
20
-3.39591
11
3.706
21
-3.39719
0
LINE
8
BLACK
6
CONTINUOUS
10
3.706
20
-3.39719
11
3.70374
21
-3.39764
0
LINE
8
BLACK
6
CONTINUOUS
10
3.70374
20
-3.39764
11
3.64665
21
-3.39764
0
LINE
8
BLACK
6
CONTINUOUS
10
3.64665
20
-3.39764
11
3.64439
21
-3.39719
0
LINE
8
BLACK
6
CONTINUOUS
10
3.64439
20
-3.39719
11
3.64248
21
-3.39591
0
LINE
8
BLACK
6
CONTINUOUS
10
3.64248
20
-3.39591
11
3.6412
21
-3.39399
0
LINE
8
BLACK
6
CONTINUOUS
10
3.6412
20
-3.39399
11
3.64075
21
-3.39173
0
LINE
8
BLACK
6
CONTINUOUS
10
3.64075
20
-3.39173
11
3.64075
21
-3.37992
0
LINE
8
BLACK
6
CONTINUOUS
10
3.64075
20
-3.37992
11
3.6412
21
-3.37766
0
LINE
8
BLACK
6
CONTINUOUS
10
3.6412
20
-3.37766
11
3.64248
21
-3.37575
0
LINE
8
BLACK
6
CONTINUOUS
10
3.64248
20
-3.37575
11
3.64439
21
-3.37447
0
LINE
8
BLACK
6
CONTINUOUS
10
3.64439
20
-3.37447
11
3.64665
21
-3.37402
0
LINE
8
BLACK
6
CONTINUOUS
10
3.64665
20
-3.37402
11
3.70374
21
-3.37402
0
LINE
8
BLACK
6
CONTINUOUS
10
3.70374
20
-3.37402
11
3.706
21
-3.37447
0
LINE
8
BLACK
6
CONTINUOUS
10
3.90876
20
-3.37447
11
3.91067
21
-3.37575
0
LINE
8
BLACK
6
CONTINUOUS
10
3.91067
20
-3.37575
11
3.91195
21
-3.37766
0
LINE
8
BLACK
6
CONTINUOUS
10
3.91195
20
-3.37766
11
3.9124
21
-3.37992
0
LINE
8
BLACK
6
CONTINUOUS
10
3.9124
20
-3.37992
11
3.9124
21
-3.39173
0
LINE
8
BLACK
6
CONTINUOUS
10
3.9124
20
-3.39173
11
3.91195
21
-3.39399
0
LINE
8
BLACK
6
CONTINUOUS
10
3.91195
20
-3.39399
11
3.91067
21
-3.39591
0
LINE
8
BLACK
6
CONTINUOUS
10
3.91067
20
-3.39591
11
3.90876
21
-3.39719
0
LINE
8
BLACK
6
CONTINUOUS
10
3.90876
20
-3.39719
11
3.9065
21
-3.39764
0
LINE
8
BLACK
6
CONTINUOUS
10
3.9065
20
-3.39764
11
3.84941
21
-3.39764
0
LINE
8
BLACK
6
CONTINUOUS
10
3.84941
20
-3.39764
11
3.84715
21
-3.39719
0
LINE
8
BLACK
6
CONTINUOUS
10
3.84715
20
-3.39719
11
3.84523
21
-3.39591
0
LINE
8
BLACK
6
CONTINUOUS
10
3.84523
20
-3.39591
11
3.84395
21
-3.39399
0
LINE
8
BLACK
6
CONTINUOUS
10
3.84395
20
-3.39399
11
3.8435
21
-3.39173
0
LINE
8
BLACK
6
CONTINUOUS
10
3.8435
20
-3.39173
11
3.8435
21
-3.37992
0
LINE
8
BLACK
6
CONTINUOUS
10
3.8435
20
-3.37992
11
3.84395
21
-3.37766
0
LINE
8
BLACK
6
CONTINUOUS
10
3.84395
20
-3.37766
11
3.84523
21
-3.37575
0
LINE
8
BLACK
6
CONTINUOUS
10
3.84523
20
-3.37575
11
3.84715
21
-3.37447
0
LINE
8
BLACK
6
CONTINUOUS
10
3.84715
20
-3.37447
11
3.84941
21
-3.37402
0
LINE
8
BLACK
6
CONTINUOUS
10
3.84941
20
-3.37402
11
3.9065
21
-3.37402
0
LINE
8
BLACK
6
CONTINUOUS
10
3.9065
20
-3.37402
11
3.90876
21
-3.37447
0
LINE
8
BLACK
6
CONTINUOUS
10
3.52701
20
-3.31662
11
3.52989
21
-3.31854
0
LINE
8
BLACK
6
CONTINUOUS
10
3.52989
20
-3.31854
11
3.53181
21
-3.32141
0
LINE
8
BLACK
6
CONTINUOUS
10
3.53181
20
-3.32141
11
3.53248
21
-3.3248
0
LINE
8
BLACK
6
CONTINUOUS
10
3.53248
20
-3.3248
11
3.53248
21
-3.34449
0
LINE
8
BLACK
6
CONTINUOUS
10
3.53248
20
-3.34449
11
3.53181
21
-3.34788
0
LINE
8
BLACK
6
CONTINUOUS
10
3.53181
20
-3.34788
11
3.52989
21
-3.35075
0
LINE
8
BLACK
6
CONTINUOUS
10
3.52989
20
-3.35075
11
3.52701
21
-3.35267
0
LINE
8
BLACK
6
CONTINUOUS
10
3.52701
20
-3.35267
11
3.52362
21
-3.35335
0
LINE
8
BLACK
6
CONTINUOUS
10
3.52362
20
-3.35335
11
3.50591
21
-3.35335
0
LINE
8
BLACK
6
CONTINUOUS
10
3.50591
20
-3.35335
11
3.50252
21
-3.35267
0
LINE
8
BLACK
6
CONTINUOUS
10
3.50252
20
-3.35267
11
3.49964
21
-3.35075
0
LINE
8
BLACK
6
CONTINUOUS
10
3.49964
20
-3.35075
11
3.49772
21
-3.34788
0
LINE
8
BLACK
6
CONTINUOUS
10
3.49772
20
-3.34788
11
3.49705
21
-3.34449
0
LINE
8
BLACK
6
CONTINUOUS
10
3.49705
20
-3.34449
11
3.49705
21
-3.3248
0
LINE
8
BLACK
6
CONTINUOUS
10
3.49705
20
-3.3248
11
3.49772
21
-3.32141
0
LINE
8
BLACK
6
CONTINUOUS
10
3.49772
20
-3.32141
11
3.49964
21
-3.31854
0
LINE
8
BLACK
6
CONTINUOUS
10
3.49964
20
-3.31854
11
3.50252
21
-3.31662
0
LINE
8
BLACK
6
CONTINUOUS
10
3.50252
20
-3.31662
11
3.50591
21
-3.31594
0
LINE
8
BLACK
6
CONTINUOUS
10
3.50591
20
-3.31594
11
3.52362
21
-3.31594
0
LINE
8
BLACK
6
CONTINUOUS
10
3.52362
20
-3.31594
11
3.52701
21
-3.31662
0
LINE
8
BLACK
6
CONTINUOUS
10
3.40496
20
-3.31662
11
3.40784
21
-3.31854
0
LINE
8
BLACK
6
CONTINUOUS
10
3.40784
20
-3.31854
11
3.40976
21
-3.32141
0
LINE
8
BLACK
6
CONTINUOUS
10
3.40976
20
-3.32141
11
3.41043
21
-3.3248
0
LINE
8
BLACK
6
CONTINUOUS
10
3.41043
20
-3.3248
11
3.41043
21
-3.34449
0
LINE
8
BLACK
6
CONTINUOUS
10
3.41043
20
-3.34449
11
3.40976
21
-3.34788
0
LINE
8
BLACK
6
CONTINUOUS
10
3.40976
20
-3.34788
11
3.40784
21
-3.35075
0
LINE
8
BLACK
6
CONTINUOUS
10
3.40784
20
-3.35075
11
3.40496
21
-3.35267
0
LINE
8
BLACK
6
CONTINUOUS
10
3.40496
20
-3.35267
11
3.40157
21
-3.35335
0
LINE
8
BLACK
6
CONTINUOUS
10
3.40157
20
-3.35335
11
3.38386
21
-3.35335
0
LINE
8
BLACK
6
CONTINUOUS
10
3.38386
20
-3.35335
11
3.38047
21
-3.35267
0
LINE
8
BLACK
6
CONTINUOUS
10
3.38047
20
-3.35267
11
3.37759
21
-3.35075
0
LINE
8
BLACK
6
CONTINUOUS
10
3.37759
20
-3.35075
11
3.37567
21
-3.34788
0
LINE
8
BLACK
6
CONTINUOUS
10
3.37567
20
-3.34788
11
3.375
21
-3.34449
0
LINE
8
BLACK
6
CONTINUOUS
10
3.375
20
-3.34449
11
3.375
21
-3.3248
0
LINE
8
BLACK
6
CONTINUOUS
10
3.375
20
-3.3248
11
3.37567
21
-3.32141
0
LINE
8
BLACK
6
CONTINUOUS
10
3.37567
20
-3.32141
11
3.37759
21
-3.31854
0
LINE
8
BLACK
6
CONTINUOUS
10
3.37759
20
-3.31854
11
3.38047
21
-3.31662
0
LINE
8
BLACK
6
CONTINUOUS
10
3.38047
20
-3.31662
11
3.38386
21
-3.31594
0
LINE
8
BLACK
6
CONTINUOUS
10
3.38386
20
-3.31594
11
3.40157
21
-3.31594
0
LINE
8
BLACK
6
CONTINUOUS
10
3.40157
20
-3.31594
11
3.40496
21
-3.31662
0
LINE
8
BLACK
6
CONTINUOUS
10
3.34394
20
-3.31662
11
3.34681
21
-3.31854
0
LINE
8
BLACK
6
CONTINUOUS
10
3.34681
20
-3.31854
11
3.34874
21
-3.32141
0
LINE
8
BLACK
6
CONTINUOUS
10
3.34874
20
-3.32141
11
3.34941
21
-3.3248
0
LINE
8
BLACK
6
CONTINUOUS
10
3.34941
20
-3.3248
11
3.34941
21
-3.34449
0
LINE
8
BLACK
6
CONTINUOUS
10
3.34941
20
-3.34449
11
3.34874
21
-3.34788
0
LINE
8
BLACK
6
CONTINUOUS
10
3.34874
20
-3.34788
11
3.34681
21
-3.35075
0
LINE
8
BLACK
6
CONTINUOUS
10
3.34681
20
-3.35075
11
3.34394
21
-3.35267
0
LINE
8
BLACK
6
CONTINUOUS
10
3.34394
20
-3.35267
11
3.34055
21
-3.35335
0
LINE
8
BLACK
6
CONTINUOUS
10
3.34055
20
-3.35335
11
3.32283
21
-3.35335
0
LINE
8
BLACK
6
CONTINUOUS
10
3.32283
20
-3.35335
11
3.31944
21
-3.35267
0
LINE
8
BLACK
6
CONTINUOUS
10
3.31944
20
-3.35267
11
3.31657
21
-3.35075
0
LINE
8
BLACK
6
CONTINUOUS
10
3.31657
20
-3.35075
11
3.31465
21
-3.34788
0
LINE
8
BLACK
6
CONTINUOUS
10
3.31465
20
-3.34788
11
3.31398
21
-3.34449
0
LINE
8
BLACK
6
CONTINUOUS
10
3.31398
20
-3.34449
11
3.31398
21
-3.3248
0
LINE
8
BLACK
6
CONTINUOUS
10
3.31398
20
-3.3248
11
3.31465
21
-3.32141
0
LINE
8
BLACK
6
CONTINUOUS
10
3.31465
20
-3.32141
11
3.31657
21
-3.31854
0
LINE
8
BLACK
6
CONTINUOUS
10
3.31657
20
-3.31854
11
3.31944
21
-3.31662
0
LINE
8
BLACK
6
CONTINUOUS
10
3.31944
20
-3.31662
11
3.32283
21
-3.31594
0
LINE
8
BLACK
6
CONTINUOUS
10
3.32283
20
-3.31594
11
3.34055
21
-3.31594
0
LINE
8
BLACK
6
CONTINUOUS
10
3.34055
20
-3.31594
11
3.34394
21
-3.31662
0
LINE
8
BLACK
6
CONTINUOUS
10
3.46599
20
-3.31662
11
3.46886
21
-3.31854
0
LINE
8
BLACK
6
CONTINUOUS
10
3.46886
20
-3.31854
11
3.47078
21
-3.32141
0
LINE
8
BLACK
6
CONTINUOUS
10
3.47078
20
-3.32141
11
3.47146
21
-3.3248
0
LINE
8
BLACK
6
CONTINUOUS
10
3.47146
20
-3.3248
11
3.47146
21
-3.34449
0
LINE
8
BLACK
6
CONTINUOUS
10
3.47146
20
-3.34449
11
3.47078
21
-3.34788
0
LINE
8
BLACK
6
CONTINUOUS
10
3.47078
20
-3.34788
11
3.46886
21
-3.35075
0
LINE
8
BLACK
6
CONTINUOUS
10
3.46886
20
-3.35075
11
3.46599
21
-3.35267
0
LINE
8
BLACK
6
CONTINUOUS
10
3.46599
20
-3.35267
11
3.4626
21
-3.35335
0
LINE
8
BLACK
6
CONTINUOUS
10
3.4626
20
-3.35335
11
3.44488
21
-3.35335
0
LINE
8
BLACK
6
CONTINUOUS
10
3.44488
20
-3.35335
11
3.44149
21
-3.35267
0
LINE
8
BLACK
6
CONTINUOUS
10
3.44149
20
-3.35267
11
3.43862
21
-3.35075
0
LINE
8
BLACK
6
CONTINUOUS
10
3.43862
20
-3.35075
11
3.4367
21
-3.34788
0
LINE
8
BLACK
6
CONTINUOUS
10
3.4367
20
-3.34788
11
3.43602
21
-3.34449
0
LINE
8
BLACK
6
CONTINUOUS
10
3.43602
20
-3.34449
11
3.43602
21
-3.3248
0
LINE
8
BLACK
6
CONTINUOUS
10
3.43602
20
-3.3248
11
3.4367
21
-3.32141
0
LINE
8
BLACK
6
CONTINUOUS
10
3.4367
20
-3.32141
11
3.43862
21
-3.31854
0
LINE
8
BLACK
6
CONTINUOUS
10
3.43862
20
-3.31854
11
3.44149
21
-3.31662
0
LINE
8
BLACK
6
CONTINUOUS
10
3.44149
20
-3.31662
11
3.44488
21
-3.31594
0
LINE
8
BLACK
6
CONTINUOUS
10
3.44488
20
-3.31594
11
3.4626
21
-3.31594
0
LINE
8
BLACK
6
CONTINUOUS
10
3.4626
20
-3.31594
11
3.46599
21
-3.31662
0
LINE
8
BLACK
6
CONTINUOUS
10
3.706
20
-3.32447
11
3.70792
21
-3.32575
0
LINE
8
BLACK
6
CONTINUOUS
10
3.70792
20
-3.32575
11
3.7092
21
-3.32766
0
LINE
8
BLACK
6
CONTINUOUS
10
3.7092
20
-3.32766
11
3.70965
21
-3.32992
0
LINE
8
BLACK
6
CONTINUOUS
10
3.70965
20
-3.32992
11
3.70965
21
-3.34173
0
LINE
8
BLACK
6
CONTINUOUS
10
3.70965
20
-3.34173
11
3.7092
21
-3.34399
0
LINE
8
BLACK
6
CONTINUOUS
10
3.7092
20
-3.34399
11
3.70792
21
-3.34591
0
LINE
8
BLACK
6
CONTINUOUS
10
3.70792
20
-3.34591
11
3.706
21
-3.34719
0
LINE
8
BLACK
6
CONTINUOUS
10
3.706
20
-3.34719
11
3.70374
21
-3.34764
0
LINE
8
BLACK
6
CONTINUOUS
10
3.70374
20
-3.34764
11
3.64665
21
-3.34764
0
LINE
8
BLACK
6
CONTINUOUS
10
3.64665
20
-3.34764
11
3.64439
21
-3.34719
0
LINE
8
BLACK
6
CONTINUOUS
10
3.64439
20
-3.34719
11
3.64248
21
-3.34591
0
LINE
8
BLACK
6
CONTINUOUS
10
3.64248
20
-3.34591
11
3.6412
21
-3.34399
0
LINE
8
BLACK
6
CONTINUOUS
10
3.6412
20
-3.34399
11
3.64075
21
-3.34173
0
LINE
8
BLACK
6
CONTINUOUS
10
3.64075
20
-3.34173
11
3.64075
21
-3.32992
0
LINE
8
BLACK
6
CONTINUOUS
10
3.64075
20
-3.32992
11
3.6412
21
-3.32766
0
LINE
8
BLACK
6
CONTINUOUS
10
3.6412
20
-3.32766
11
3.64248
21
-3.32575
0
LINE
8
BLACK
6
CONTINUOUS
10
3.64248
20
-3.32575
11
3.64439
21
-3.32447
0
LINE
8
BLACK
6
CONTINUOUS
10
3.64439
20
-3.32447
11
3.64665
21
-3.32402
0
LINE
8
BLACK
6
CONTINUOUS
10
3.64665
20
-3.32402
11
3.70374
21
-3.32402
0
LINE
8
BLACK
6
CONTINUOUS
10
3.70374
20
-3.32402
11
3.706
21
-3.32447
0
LINE
8
BLACK
6
CONTINUOUS
10
3.90876
20
-3.32447
11
3.91067
21
-3.32575
0
LINE
8
BLACK
6
CONTINUOUS
10
3.91067
20
-3.32575
11
3.91195
21
-3.32766
0
LINE
8
BLACK
6
CONTINUOUS
10
3.91195
20
-3.32766
11
3.9124
21
-3.32992
0
LINE
8
BLACK
6
CONTINUOUS
10
3.9124
20
-3.32992
11
3.9124
21
-3.34173
0
LINE
8
BLACK
6
CONTINUOUS
10
3.9124
20
-3.34173
11
3.91195
21
-3.34399
0
LINE
8
BLACK
6
CONTINUOUS
10
3.91195
20
-3.34399
11
3.91067
21
-3.34591
0
LINE
8
BLACK
6
CONTINUOUS
10
3.91067
20
-3.34591
11
3.90876
21
-3.34719
0
LINE
8
BLACK
6
CONTINUOUS
10
3.90876
20
-3.34719
11
3.9065
21
-3.34764
0
LINE
8
BLACK
6
CONTINUOUS
10
3.9065
20
-3.34764
11
3.84941
21
-3.34764
0
LINE
8
BLACK
6
CONTINUOUS
10
3.84941
20
-3.34764
11
3.84715
21
-3.34719
0
LINE
8
BLACK
6
CONTINUOUS
10
3.84715
20
-3.34719
11
3.84523
21
-3.34591
0
LINE
8
BLACK
6
CONTINUOUS
10
3.84523
20
-3.34591
11
3.84395
21
-3.34399
0
LINE
8
BLACK
6
CONTINUOUS
10
3.84395
20
-3.34399
11
3.8435
21
-3.34173
0
LINE
8
BLACK
6
CONTINUOUS
10
3.8435
20
-3.34173
11
3.8435
21
-3.32992
0
LINE
8
BLACK
6
CONTINUOUS
10
3.8435
20
-3.32992
11
3.84395
21
-3.32766
0
LINE
8
BLACK
6
CONTINUOUS
10
3.84395
20
-3.32766
11
3.84523
21
-3.32575
0
LINE
8
BLACK
6
CONTINUOUS
10
3.84523
20
-3.32575
11
3.84715
21
-3.32447
0
LINE
8
BLACK
6
CONTINUOUS
10
3.84715
20
-3.32447
11
3.84941
21
-3.32402
0
LINE
8
BLACK
6
CONTINUOUS
10
3.84941
20
-3.32402
11
3.9065
21
-3.32402
0
LINE
8
BLACK
6
CONTINUOUS
10
3.9065
20
-3.32402
11
3.90876
21
-3.32447
0
LINE
8
BLACK
6
CONTINUOUS
10
3.90876
20
-3.27447
11
3.91067
21
-3.27575
0
LINE
8
BLACK
6
CONTINUOUS
10
3.91067
20
-3.27575
11
3.91195
21
-3.27766
0
LINE
8
BLACK
6
CONTINUOUS
10
3.91195
20
-3.27766
11
3.9124
21
-3.27992
0
LINE
8
BLACK
6
CONTINUOUS
10
3.9124
20
-3.27992
11
3.9124
21
-3.29173
0
LINE
8
BLACK
6
CONTINUOUS
10
3.9124
20
-3.29173
11
3.91195
21
-3.29399
0
LINE
8
BLACK
6
CONTINUOUS
10
3.91195
20
-3.29399
11
3.91067
21
-3.29591
0
LINE
8
BLACK
6
CONTINUOUS
10
3.91067
20
-3.29591
11
3.90876
21
-3.29719
0
LINE
8
BLACK
6
CONTINUOUS
10
3.90876
20
-3.29719
11
3.9065
21
-3.29764
0
LINE
8
BLACK
6
CONTINUOUS
10
3.9065
20
-3.29764
11
3.84941
21
-3.29764
0
LINE
8
BLACK
6
CONTINUOUS
10
3.84941
20
-3.29764
11
3.84715
21
-3.29719
0
LINE
8
BLACK
6
CONTINUOUS
10
3.84715
20
-3.29719
11
3.84523
21
-3.29591
0
LINE
8
BLACK
6
CONTINUOUS
10
3.84523
20
-3.29591
11
3.84395
21
-3.29399
0
LINE
8
BLACK
6
CONTINUOUS
10
3.84395
20
-3.29399
11
3.8435
21
-3.29173
0
LINE
8
BLACK
6
CONTINUOUS
10
3.8435
20
-3.29173
11
3.8435
21
-3.27992
0
LINE
8
BLACK
6
CONTINUOUS
10
3.8435
20
-3.27992
11
3.84395
21
-3.27766
0
LINE
8
BLACK
6
CONTINUOUS
10
3.84395
20
-3.27766
11
3.84523
21
-3.27575
0
LINE
8
BLACK
6
CONTINUOUS
10
3.84523
20
-3.27575
11
3.84715
21
-3.27447
0
LINE
8
BLACK
6
CONTINUOUS
10
3.84715
20
-3.27447
11
3.84941
21
-3.27402
0
LINE
8
BLACK
6
CONTINUOUS
10
3.84941
20
-3.27402
11
3.9065
21
-3.27402
0
LINE
8
BLACK
6
CONTINUOUS
10
3.9065
20
-3.27402
11
3.90876
21
-3.27447
0
LINE
8
BLACK
6
CONTINUOUS
10
3.706
20
-3.27447
11
3.70792
21
-3.27575
0
LINE
8
BLACK
6
CONTINUOUS
10
3.70792
20
-3.27575
11
3.7092
21
-3.27766
0
LINE
8
BLACK
6
CONTINUOUS
10
3.7092
20
-3.27766
11
3.70965
21
-3.27992
0
LINE
8
BLACK
6
CONTINUOUS
10
3.70965
20
-3.27992
11
3.70965
21
-3.29173
0
LINE
8
BLACK
6
CONTINUOUS
10
3.70965
20
-3.29173
11
3.7092
21
-3.29399
0
LINE
8
BLACK
6
CONTINUOUS
10
3.7092
20
-3.29399
11
3.70792
21
-3.29591
0
LINE
8
BLACK
6
CONTINUOUS
10
3.70792
20
-3.29591
11
3.706
21
-3.29719
0
LINE
8
BLACK
6
CONTINUOUS
10
3.706
20
-3.29719
11
3.70374
21
-3.29764
0
LINE
8
BLACK
6
CONTINUOUS
10
3.70374
20
-3.29764
11
3.64665
21
-3.29764
0
LINE
8
BLACK
6
CONTINUOUS
10
3.64665
20
-3.29764
11
3.64439
21
-3.29719
0
LINE
8
BLACK
6
CONTINUOUS
10
3.64439
20
-3.29719
11
3.64248
21
-3.29591
0
LINE
8
BLACK
6
CONTINUOUS
10
3.64248
20
-3.29591
11
3.6412
21
-3.29399
0
LINE
8
BLACK
6
CONTINUOUS
10
3.6412
20
-3.29399
11
3.64075
21
-3.29173
0
LINE
8
BLACK
6
CONTINUOUS
10
3.64075
20
-3.29173
11
3.64075
21
-3.27992
0
LINE
8
BLACK
6
CONTINUOUS
10
3.64075
20
-3.27992
11
3.6412
21
-3.27766
0
LINE
8
BLACK
6
CONTINUOUS
10
3.6412
20
-3.27766
11
3.64248
21
-3.27575
0
LINE
8
BLACK
6
CONTINUOUS
10
3.64248
20
-3.27575
11
3.64439
21
-3.27447
0
LINE
8
BLACK
6
CONTINUOUS
10
3.64439
20
-3.27447
11
3.64665
21
-3.27402
0
LINE
8
BLACK
6
CONTINUOUS
10
3.64665
20
-3.27402
11
3.70374
21
-3.27402
0
LINE
8
BLACK
6
CONTINUOUS
10
3.70374
20
-3.27402
11
3.706
21
-3.27447
0
LINE
8
BLACK
6
CONTINUOUS
10
3.3563
20
-3.26378
11
3.29724
21
-3.26378
0
LINE
8
BLACK
6
CONTINUOUS
10
3.29724
20
-3.26378
11
3.29724
21
-3.18504
0
LINE
8
BLACK
6
CONTINUOUS
10
3.29724
20
-3.18504
11
3.3563
21
-3.18504
0
LINE
8
BLACK
6
CONTINUOUS
10
3.3563
20
-3.18504
11
3.3563
21
-3.26378
0
LINE
8
BLACK
6
CONTINUOUS
10
3.44685
20
-3.26378
11
3.3878
21
-3.26378
0
LINE
8
BLACK
6
CONTINUOUS
10
3.3878
20
-3.26378
11
3.3878
21
-3.18504
0
LINE
8
BLACK
6
CONTINUOUS
10
3.3878
20
-3.18504
11
3.44685
21
-3.18504
0
LINE
8
BLACK
6
CONTINUOUS
10
3.44685
20
-3.18504
11
3.44685
21
-3.26378
0
LINE
8
BLACK
6
CONTINUOUS
10
3.5374
20
-3.26378
11
3.47835
21
-3.26378
0
LINE
8
BLACK
6
CONTINUOUS
10
3.47835
20
-3.26378
11
3.47835
21
-3.18504
0
LINE
8
BLACK
6
CONTINUOUS
10
3.47835
20
-3.18504
11
3.5374
21
-3.18504
0
LINE
8
BLACK
6
CONTINUOUS
10
3.5374
20
-3.18504
11
3.5374
21
-3.26378
0
LINE
8
BLACK
6
CONTINUOUS
10
3.706
20
-3.22447
11
3.70792
21
-3.22575
0
LINE
8
BLACK
6
CONTINUOUS
10
3.70792
20
-3.22575
11
3.7092
21
-3.22766
0
LINE
8
BLACK
6
CONTINUOUS
10
3.7092
20
-3.22766
11
3.70965
21
-3.22992
0
LINE
8
BLACK
6
CONTINUOUS
10
3.70965
20
-3.22992
11
3.70965
21
-3.24173
0
LINE
8
BLACK
6
CONTINUOUS
10
3.70965
20
-3.24173
11
3.7092
21
-3.24399
0
LINE
8
BLACK
6
CONTINUOUS
10
3.7092
20
-3.24399
11
3.70792
21
-3.24591
0
LINE
8
BLACK
6
CONTINUOUS
10
3.70792
20
-3.24591
11
3.706
21
-3.24719
0
LINE
8
BLACK
6
CONTINUOUS
10
3.706
20
-3.24719
11
3.70374
21
-3.24764
0
LINE
8
BLACK
6
CONTINUOUS
10
3.70374
20
-3.24764
11
3.64665
21
-3.24764
0
LINE
8
BLACK
6
CONTINUOUS
10
3.64665
20
-3.24764
11
3.64439
21
-3.24719
0
LINE
8
BLACK
6
CONTINUOUS
10
3.64439
20
-3.24719
11
3.64248
21
-3.24591
0
LINE
8
BLACK
6
CONTINUOUS
10
3.64248
20
-3.24591
11
3.6412
21
-3.24399
0
LINE
8
BLACK
6
CONTINUOUS
10
3.6412
20
-3.24399
11
3.64075
21
-3.24173
0
LINE
8
BLACK
6
CONTINUOUS
10
3.64075
20
-3.24173
11
3.64075
21
-3.22992
0
LINE
8
BLACK
6
CONTINUOUS
10
3.64075
20
-3.22992
11
3.6412
21
-3.22766
0
LINE
8
BLACK
6
CONTINUOUS
10
3.6412
20
-3.22766
11
3.64248
21
-3.22575
0
LINE
8
BLACK
6
CONTINUOUS
10
3.64248
20
-3.22575
11
3.64439
21
-3.22447
0
LINE
8
BLACK
6
CONTINUOUS
10
3.64439
20
-3.22447
11
3.64665
21
-3.22402
0
LINE
8
BLACK
6
CONTINUOUS
10
3.64665
20
-3.22402
11
3.70374
21
-3.22402
0
LINE
8
BLACK
6
CONTINUOUS
10
3.70374
20
-3.22402
11
3.706
21
-3.22447
0
LINE
8
BLACK
6
CONTINUOUS
10
3.90876
20
-3.22447
11
3.91067
21
-3.22575
0
LINE
8
BLACK
6
CONTINUOUS
10
3.91067
20
-3.22575
11
3.91195
21
-3.22766
0
LINE
8
BLACK
6
CONTINUOUS
10
3.91195
20
-3.22766
11
3.9124
21
-3.22992
0
LINE
8
BLACK
6
CONTINUOUS
10
3.9124
20
-3.22992
11
3.9124
21
-3.24173
0
LINE
8
BLACK
6
CONTINUOUS
10
3.9124
20
-3.24173
11
3.91195
21
-3.24399
0
LINE
8
BLACK
6
CONTINUOUS
10
3.91195
20
-3.24399
11
3.91067
21
-3.24591
0
LINE
8
BLACK
6
CONTINUOUS
10
3.91067
20
-3.24591
11
3.90876
21
-3.24719
0
LINE
8
BLACK
6
CONTINUOUS
10
3.90876
20
-3.24719
11
3.9065
21
-3.24764
0
LINE
8
BLACK
6
CONTINUOUS
10
3.9065
20
-3.24764
11
3.84941
21
-3.24764
0
LINE
8
BLACK
6
CONTINUOUS
10
3.84941
20
-3.24764
11
3.84715
21
-3.24719
0
LINE
8
BLACK
6
CONTINUOUS
10
3.84715
20
-3.24719
11
3.84523
21
-3.24591
0
LINE
8
BLACK
6
CONTINUOUS
10
3.84523
20
-3.24591
11
3.84395
21
-3.24399
0
LINE
8
BLACK
6
CONTINUOUS
10
3.84395
20
-3.24399
11
3.8435
21
-3.24173
0
LINE
8
BLACK
6
CONTINUOUS
10
3.8435
20
-3.24173
11
3.8435
21
-3.22992
0
LINE
8
BLACK
6
CONTINUOUS
10
3.8435
20
-3.22992
11
3.84395
21
-3.22766
0
LINE
8
BLACK
6
CONTINUOUS
10
3.84395
20
-3.22766
11
3.84523
21
-3.22575
0
LINE
8
BLACK
6
CONTINUOUS
10
3.84523
20
-3.22575
11
3.84715
21
-3.22447
0
LINE
8
BLACK
6
CONTINUOUS
10
3.84715
20
-3.22447
11
3.84941
21
-3.22402
0
LINE
8
BLACK
6
CONTINUOUS
10
3.84941
20
-3.22402
11
3.9065
21
-3.22402
0
LINE
8
BLACK
6
CONTINUOUS
10
3.9065
20
-3.22402
11
3.90876
21
-3.22447
0
LINE
8
BLACK
6
CONTINUOUS
10
3.97053
20
-3.17383
11
3.97309
21
-3.17553
0
LINE
8
BLACK
6
CONTINUOUS
10
3.97309
20
-3.17553
11
3.97479
21
-3.17809
0
LINE
8
BLACK
6
CONTINUOUS
10
3.97479
20
-3.17809
11
3.97539
21
-3.1811
0
LINE
8
BLACK
6
CONTINUOUS
10
3.97539
20
-3.1811
11
3.97539
21
-3.19685
0
LINE
8
BLACK
6
CONTINUOUS
10
3.97539
20
-3.19685
11
3.97479
21
-3.19986
0
LINE
8
BLACK
6
CONTINUOUS
10
3.97479
20
-3.19986
11
3.97309
21
-3.20242
0
LINE
8
BLACK
6
CONTINUOUS
10
3.97309
20
-3.20242
11
3.97053
21
-3.20413
0
LINE
8
BLACK
6
CONTINUOUS
10
3.97053
20
-3.20413
11
3.96752
21
-3.20472
0
LINE
8
BLACK
6
CONTINUOUS
10
3.96752
20
-3.20472
11
3.94587
21
-3.20472
0
LINE
8
BLACK
6
CONTINUOUS
10
3.94587
20
-3.20472
11
3.94285
21
-3.20413
0
LINE
8
BLACK
6
CONTINUOUS
10
3.94285
20
-3.20413
11
3.9403
21
-3.20242
0
LINE
8
BLACK
6
CONTINUOUS
10
3.9403
20
-3.20242
11
3.93859
21
-3.19986
0
LINE
8
BLACK
6
CONTINUOUS
10
3.93859
20
-3.19986
11
3.93799
21
-3.19685
0
LINE
8
BLACK
6
CONTINUOUS
10
3.93799
20
-3.19685
11
3.93799
21
-3.1811
0
LINE
8
BLACK
6
CONTINUOUS
10
3.93799
20
-3.1811
11
3.93859
21
-3.17809
0
LINE
8
BLACK
6
CONTINUOUS
10
3.93859
20
-3.17809
11
3.9403
21
-3.17553
0
LINE
8
BLACK
6
CONTINUOUS
10
3.9403
20
-3.17553
11
3.94285
21
-3.17383
0
LINE
8
BLACK
6
CONTINUOUS
10
3.94285
20
-3.17383
11
3.94587
21
-3.17323
0
LINE
8
BLACK
6
CONTINUOUS
10
3.94587
20
-3.17323
11
3.96752
21
-3.17323
0
LINE
8
BLACK
6
CONTINUOUS
10
3.96752
20
-3.17323
11
3.97053
21
-3.17383
0
LINE
8
BLACK
6
CONTINUOUS
10
3.706
20
-3.17447
11
3.70792
21
-3.17575
0
LINE
8
BLACK
6
CONTINUOUS
10
3.70792
20
-3.17575
11
3.7092
21
-3.17766
0
LINE
8
BLACK
6
CONTINUOUS
10
3.7092
20
-3.17766
11
3.70965
21
-3.17992
0
LINE
8
BLACK
6
CONTINUOUS
10
3.70965
20
-3.17992
11
3.70965
21
-3.19173
0
LINE
8
BLACK
6
CONTINUOUS
10
3.70965
20
-3.19173
11
3.7092
21
-3.19399
0
LINE
8
BLACK
6
CONTINUOUS
10
3.7092
20
-3.19399
11
3.70792
21
-3.19591
0
LINE
8
BLACK
6
CONTINUOUS
10
3.70792
20
-3.19591
11
3.706
21
-3.19719
0
LINE
8
BLACK
6
CONTINUOUS
10
3.706
20
-3.19719
11
3.70374
21
-3.19764
0
LINE
8
BLACK
6
CONTINUOUS
10
3.70374
20
-3.19764
11
3.64665
21
-3.19764
0
LINE
8
BLACK
6
CONTINUOUS
10
3.64665
20
-3.19764
11
3.64439
21
-3.19719
0
LINE
8
BLACK
6
CONTINUOUS
10
3.64439
20
-3.19719
11
3.64248
21
-3.19591
0
LINE
8
BLACK
6
CONTINUOUS
10
3.64248
20
-3.19591
11
3.6412
21
-3.19399
0
LINE
8
BLACK
6
CONTINUOUS
10
3.6412
20
-3.19399
11
3.64075
21
-3.19173
0
LINE
8
BLACK
6
CONTINUOUS
10
3.64075
20
-3.19173
11
3.64075
21
-3.17992
0
LINE
8
BLACK
6
CONTINUOUS
10
3.64075
20
-3.17992
11
3.6412
21
-3.17766
0
LINE
8
BLACK
6
CONTINUOUS
10
3.6412
20
-3.17766
11
3.64248
21
-3.17575
0
LINE
8
BLACK
6
CONTINUOUS
10
3.64248
20
-3.17575
11
3.64439
21
-3.17447
0
LINE
8
BLACK
6
CONTINUOUS
10
3.64439
20
-3.17447
11
3.64665
21
-3.17402
0
LINE
8
BLACK
6
CONTINUOUS
10
3.64665
20
-3.17402
11
3.70374
21
-3.17402
0
LINE
8
BLACK
6
CONTINUOUS
10
3.70374
20
-3.17402
11
3.706
21
-3.17447
0
LINE
8
BLACK
6
CONTINUOUS
10
3.90876
20
-3.17447
11
3.91067
21
-3.17575
0
LINE
8
BLACK
6
CONTINUOUS
10
3.91067
20
-3.17575
11
3.91195
21
-3.17766
0
LINE
8
BLACK
6
CONTINUOUS
10
3.91195
20
-3.17766
11
3.9124
21
-3.17992
0
LINE
8
BLACK
6
CONTINUOUS
10
3.9124
20
-3.17992
11
3.9124
21
-3.19173
0
LINE
8
BLACK
6
CONTINUOUS
10
3.9124
20
-3.19173
11
3.91195
21
-3.19399
0
LINE
8
BLACK
6
CONTINUOUS
10
3.91195
20
-3.19399
11
3.91067
21
-3.19591
0
LINE
8
BLACK
6
CONTINUOUS
10
3.91067
20
-3.19591
11
3.90876
21
-3.19719
0
LINE
8
BLACK
6
CONTINUOUS
10
3.90876
20
-3.19719
11
3.9065
21
-3.19764
0
LINE
8
BLACK
6
CONTINUOUS
10
3.9065
20
-3.19764
11
3.84941
21
-3.19764
0
LINE
8
BLACK
6
CONTINUOUS
10
3.84941
20
-3.19764
11
3.84715
21
-3.19719
0
LINE
8
BLACK
6
CONTINUOUS
10
3.84715
20
-3.19719
11
3.84523
21
-3.19591
0
LINE
8
BLACK
6
CONTINUOUS
10
3.84523
20
-3.19591
11
3.84395
21
-3.19399
0
LINE
8
BLACK
6
CONTINUOUS
10
3.84395
20
-3.19399
11
3.8435
21
-3.19173
0
LINE
8
BLACK
6
CONTINUOUS
10
3.8435
20
-3.19173
11
3.8435
21
-3.17992
0
LINE
8
BLACK
6
CONTINUOUS
10
3.8435
20
-3.17992
11
3.84395
21
-3.17766
0
LINE
8
BLACK
6
CONTINUOUS
10
3.84395
20
-3.17766
11
3.84523
21
-3.17575
0
LINE
8
BLACK
6
CONTINUOUS
10
3.84523
20
-3.17575
11
3.84715
21
-3.17447
0
LINE
8
BLACK
6
CONTINUOUS
10
3.84715
20
-3.17447
11
3.84941
21
-3.17402
0
LINE
8
BLACK
6
CONTINUOUS
10
3.84941
20
-3.17402
11
3.9065
21
-3.17402
0
LINE
8
BLACK
6
CONTINUOUS
10
3.9065
20
-3.17402
11
3.90876
21
-3.17447
0
LINE
8
BLACK
6
CONTINUOUS
10
3.90876
20
-3.12447
11
3.91067
21
-3.12575
0
LINE
8
BLACK
6
CONTINUOUS
10
3.91067
20
-3.12575
11
3.91195
21
-3.12766
0
LINE
8
BLACK
6
CONTINUOUS
10
3.91195
20
-3.12766
11
3.9124
21
-3.12992
0
LINE
8
BLACK
6
CONTINUOUS
10
3.9124
20
-3.12992
11
3.9124
21
-3.14173
0
LINE
8
BLACK
6
CONTINUOUS
10
3.9124
20
-3.14173
11
3.91195
21
-3.14399
0
LINE
8
BLACK
6
CONTINUOUS
10
3.91195
20
-3.14399
11
3.91067
21
-3.14591
0
LINE
8
BLACK
6
CONTINUOUS
10
3.91067
20
-3.14591
11
3.90876
21
-3.14719
0
LINE
8
BLACK
6
CONTINUOUS
10
3.90876
20
-3.14719
11
3.9065
21
-3.14764
0
LINE
8
BLACK
6
CONTINUOUS
10
3.9065
20
-3.14764
11
3.84941
21
-3.14764
0
LINE
8
BLACK
6
CONTINUOUS
10
3.84941
20
-3.14764
11
3.84715
21
-3.14719
0
LINE
8
BLACK
6
CONTINUOUS
10
3.84715
20
-3.14719
11
3.84523
21
-3.14591
0
LINE
8
BLACK
6
CONTINUOUS
10
3.84523
20
-3.14591
11
3.84395
21
-3.14399
0
LINE
8
BLACK
6
CONTINUOUS
10
3.84395
20
-3.14399
11
3.8435
21
-3.14173
0
LINE
8
BLACK
6
CONTINUOUS
10
3.8435
20
-3.14173
11
3.8435
21
-3.12992
0
LINE
8
BLACK
6
CONTINUOUS
10
3.8435
20
-3.12992
11
3.84395
21
-3.12766
0
LINE
8
BLACK
6
CONTINUOUS
10
3.84395
20
-3.12766
11
3.84523
21
-3.12575
0
LINE
8
BLACK
6
CONTINUOUS
10
3.84523
20
-3.12575
11
3.84715
21
-3.12447
0
LINE
8
BLACK
6
CONTINUOUS
10
3.84715
20
-3.12447
11
3.84941
21
-3.12402
0
LINE
8
BLACK
6
CONTINUOUS
10
3.84941
20
-3.12402
11
3.9065
21
-3.12402
0
LINE
8
BLACK
6
CONTINUOUS
10
3.9065
20
-3.12402
11
3.90876
21
-3.12447
0
LINE
8
BLACK
6
CONTINUOUS
10
3.706
20
-3.12447
11
3.70792
21
-3.12575
0
LINE
8
BLACK
6
CONTINUOUS
10
3.70792
20
-3.12575
11
3.7092
21
-3.12766
0
LINE
8
BLACK
6
CONTINUOUS
10
3.7092
20
-3.12766
11
3.70965
21
-3.12992
0
LINE
8
BLACK
6
CONTINUOUS
10
3.70965
20
-3.12992
11
3.70965
21
-3.14173
0
LINE
8
BLACK
6
CONTINUOUS
10
3.70965
20
-3.14173
11
3.7092
21
-3.14399
0
LINE
8
BLACK
6
CONTINUOUS
10
3.7092
20
-3.14399
11
3.70792
21
-3.14591
0
LINE
8
BLACK
6
CONTINUOUS
10
3.70792
20
-3.14591
11
3.706
21
-3.14719
0
LINE
8
BLACK
6
CONTINUOUS
10
3.706
20
-3.14719
11
3.70374
21
-3.14764
0
LINE
8
BLACK
6
CONTINUOUS
10
3.70374
20
-3.14764
11
3.64665
21
-3.14764
0
LINE
8
BLACK
6
CONTINUOUS
10
3.64665
20
-3.14764
11
3.64439
21
-3.14719
0
LINE
8
BLACK
6
CONTINUOUS
10
3.64439
20
-3.14719
11
3.64248
21
-3.14591
0
LINE
8
BLACK
6
CONTINUOUS
10
3.64248
20
-3.14591
11
3.6412
21
-3.14399
0
LINE
8
BLACK
6
CONTINUOUS
10
3.6412
20
-3.14399
11
3.64075
21
-3.14173
0
LINE
8
BLACK
6
CONTINUOUS
10
3.64075
20
-3.14173
11
3.64075
21
-3.12992
0
LINE
8
BLACK
6
CONTINUOUS
10
3.64075
20
-3.12992
11
3.6412
21
-3.12766
0
LINE
8
BLACK
6
CONTINUOUS
10
3.6412
20
-3.12766
11
3.64248
21
-3.12575
0
LINE
8
BLACK
6
CONTINUOUS
10
3.64248
20
-3.12575
11
3.64439
21
-3.12447
0
LINE
8
BLACK
6
CONTINUOUS
10
3.64439
20
-3.12447
11
3.64665
21
-3.12402
0
LINE
8
BLACK
6
CONTINUOUS
10
3.64665
20
-3.12402
11
3.70374
21
-3.12402
0
LINE
8
BLACK
6
CONTINUOUS
10
3.70374
20
-3.12402
11
3.706
21
-3.12447
0
LINE
8
BLACK
6
CONTINUOUS
10
3.97053
20
-3.10887
11
3.97309
21
-3.11057
0
LINE
8
BLACK
6
CONTINUOUS
10
3.97309
20
-3.11057
11
3.97479
21
-3.11313
0
LINE
8
BLACK
6
CONTINUOUS
10
3.97479
20
-3.11313
11
3.97539
21
-3.11614
0
LINE
8
BLACK
6
CONTINUOUS
10
3.97539
20
-3.11614
11
3.97539
21
-3.13189
0
LINE
8
BLACK
6
CONTINUOUS
10
3.97539
20
-3.13189
11
3.97479
21
-3.1349
0
LINE
8
BLACK
6
CONTINUOUS
10
3.97479
20
-3.1349
11
3.97309
21
-3.13746
0
LINE
8
BLACK
6
CONTINUOUS
10
3.97309
20
-3.13746
11
3.97053
21
-3.13916
0
LINE
8
BLACK
6
CONTINUOUS
10
3.97053
20
-3.13916
11
3.96752
21
-3.13976
0
LINE
8
BLACK
6
CONTINUOUS
10
3.96752
20
-3.13976
11
3.94587
21
-3.13976
0
LINE
8
BLACK
6
CONTINUOUS
10
3.94587
20
-3.13976
11
3.94285
21
-3.13916
0
LINE
8
BLACK
6
CONTINUOUS
10
3.94285
20
-3.13916
11
3.9403
21
-3.13746
0
LINE
8
BLACK
6
CONTINUOUS
10
3.9403
20
-3.13746
11
3.93859
21
-3.1349
0
LINE
8
BLACK
6
CONTINUOUS
10
3.93859
20
-3.1349
11
3.93799
21
-3.13189
0
LINE
8
BLACK
6
CONTINUOUS
10
3.93799
20
-3.13189
11
3.93799
21
-3.11614
0
LINE
8
BLACK
6
CONTINUOUS
10
3.93799
20
-3.11614
11
3.93859
21
-3.11313
0
LINE
8
BLACK
6
CONTINUOUS
10
3.93859
20
-3.11313
11
3.9403
21
-3.11057
0
LINE
8
BLACK
6
CONTINUOUS
10
3.9403
20
-3.11057
11
3.94285
21
-3.10887
0
LINE
8
BLACK
6
CONTINUOUS
10
3.94285
20
-3.10887
11
3.94587
21
-3.10827
0
LINE
8
BLACK
6
CONTINUOUS
10
3.94587
20
-3.10827
11
3.96752
21
-3.10827
0
LINE
8
BLACK
6
CONTINUOUS
10
3.96752
20
-3.10827
11
3.97053
21
-3.10887
0
LINE
8
BLACK
6
CONTINUOUS
10
3.706
20
-3.07447
11
3.70792
21
-3.07575
0
LINE
8
BLACK
6
CONTINUOUS
10
3.70792
20
-3.07575
11
3.7092
21
-3.07766
0
LINE
8
BLACK
6
CONTINUOUS
10
3.7092
20
-3.07766
11
3.70965
21
-3.07992
0
LINE
8
BLACK
6
CONTINUOUS
10
3.70965
20
-3.07992
11
3.70965
21
-3.09173
0
LINE
8
BLACK
6
CONTINUOUS
10
3.70965
20
-3.09173
11
3.7092
21
-3.09399
0
LINE
8
BLACK
6
CONTINUOUS
10
3.7092
20
-3.09399
11
3.70792
21
-3.09591
0
LINE
8
BLACK
6
CONTINUOUS
10
3.70792
20
-3.09591
11
3.706
21
-3.09719
0
LINE
8
BLACK
6
CONTINUOUS
10
3.706
20
-3.09719
11
3.70374
21
-3.09764
0
LINE
8
BLACK
6
CONTINUOUS
10
3.70374
20
-3.09764
11
3.64665
21
-3.09764
0
LINE
8
BLACK
6
CONTINUOUS
10
3.64665
20
-3.09764
11
3.64439
21
-3.09719
0
LINE
8
BLACK
6
CONTINUOUS
10
3.64439
20
-3.09719
11
3.64248
21
-3.09591
0
LINE
8
BLACK
6
CONTINUOUS
10
3.64248
20
-3.09591
11
3.6412
21
-3.09399
0
LINE
8
BLACK
6
CONTINUOUS
10
3.6412
20
-3.09399
11
3.64075
21
-3.09173
0
LINE
8
BLACK
6
CONTINUOUS
10
3.64075
20
-3.09173
11
3.64075
21
-3.07992
0
LINE
8
BLACK
6
CONTINUOUS
10
3.64075
20
-3.07992
11
3.6412
21
-3.07766
0
LINE
8
BLACK
6
CONTINUOUS
10
3.6412
20
-3.07766
11
3.64248
21
-3.07575
0
LINE
8
BLACK
6
CONTINUOUS
10
3.64248
20
-3.07575
11
3.64439
21
-3.07447
0
LINE
8
BLACK
6
CONTINUOUS
10
3.64439
20
-3.07447
11
3.64665
21
-3.07402
0
LINE
8
BLACK
6
CONTINUOUS
10
3.64665
20
-3.07402
11
3.70374
21
-3.07402
0
LINE
8
BLACK
6
CONTINUOUS
10
3.70374
20
-3.07402
11
3.706
21
-3.07447
0
LINE
8
BLACK
6
CONTINUOUS
10
3.90876
20
-3.07447
11
3.91067
21
-3.07575
0
LINE
8
BLACK
6
CONTINUOUS
10
3.91067
20
-3.07575
11
3.91195
21
-3.07766
0
LINE
8
BLACK
6
CONTINUOUS
10
3.91195
20
-3.07766
11
3.9124
21
-3.07992
0
LINE
8
BLACK
6
CONTINUOUS
10
3.9124
20
-3.07992
11
3.9124
21
-3.09173
0
LINE
8
BLACK
6
CONTINUOUS
10
3.9124
20
-3.09173
11
3.91195
21
-3.09399
0
LINE
8
BLACK
6
CONTINUOUS
10
3.91195
20
-3.09399
11
3.91067
21
-3.09591
0
LINE
8
BLACK
6
CONTINUOUS
10
3.91067
20
-3.09591
11
3.90876
21
-3.09719
0
LINE
8
BLACK
6
CONTINUOUS
10
3.90876
20
-3.09719
11
3.9065
21
-3.09764
0
LINE
8
BLACK
6
CONTINUOUS
10
3.9065
20
-3.09764
11
3.84941
21
-3.09764
0
LINE
8
BLACK
6
CONTINUOUS
10
3.84941
20
-3.09764
11
3.84715
21
-3.09719
0
LINE
8
BLACK
6
CONTINUOUS
10
3.84715
20
-3.09719
11
3.84523
21
-3.09591
0
LINE
8
BLACK
6
CONTINUOUS
10
3.84523
20
-3.09591
11
3.84395
21
-3.09399
0
LINE
8
BLACK
6
CONTINUOUS
10
3.84395
20
-3.09399
11
3.8435
21
-3.09173
0
LINE
8
BLACK
6
CONTINUOUS
10
3.8435
20
-3.09173
11
3.8435
21
-3.07992
0
LINE
8
BLACK
6
CONTINUOUS
10
3.8435
20
-3.07992
11
3.84395
21
-3.07766
0
LINE
8
BLACK
6
CONTINUOUS
10
3.84395
20
-3.07766
11
3.84523
21
-3.07575
0
LINE
8
BLACK
6
CONTINUOUS
10
3.84523
20
-3.07575
11
3.84715
21
-3.07447
0
LINE
8
BLACK
6
CONTINUOUS
10
3.84715
20
-3.07447
11
3.84941
21
-3.07402
0
LINE
8
BLACK
6
CONTINUOUS
10
3.84941
20
-3.07402
11
3.9065
21
-3.07402
0
LINE
8
BLACK
6
CONTINUOUS
10
3.9065
20
-3.07402
11
3.90876
21
-3.07447
0
LINE
8
BLACK
6
CONTINUOUS
10
3.90876
20
-3.02447
11
3.91067
21
-3.02575
0
LINE
8
BLACK
6
CONTINUOUS
10
3.91067
20
-3.02575
11
3.91195
21
-3.02766
0
LINE
8
BLACK
6
CONTINUOUS
10
3.91195
20
-3.02766
11
3.9124
21
-3.02992
0
LINE
8
BLACK
6
CONTINUOUS
10
3.9124
20
-3.02992
11
3.9124
21
-3.04173
0
LINE
8
BLACK
6
CONTINUOUS
10
3.9124
20
-3.04173
11
3.91195
21
-3.04399
0
LINE
8
BLACK
6
CONTINUOUS
10
3.91195
20
-3.04399
11
3.91067
21
-3.04591
0
LINE
8
BLACK
6
CONTINUOUS
10
3.91067
20
-3.04591
11
3.90876
21
-3.04719
0
LINE
8
BLACK
6
CONTINUOUS
10
3.90876
20
-3.04719
11
3.9065
21
-3.04764
0
LINE
8
BLACK
6
CONTINUOUS
10
3.9065
20
-3.04764
11
3.84941
21
-3.04764
0
LINE
8
BLACK
6
CONTINUOUS
10
3.84941
20
-3.04764
11
3.84715
21
-3.04719
0
LINE
8
BLACK
6
CONTINUOUS
10
3.84715
20
-3.04719
11
3.84523
21
-3.04591
0
LINE
8
BLACK
6
CONTINUOUS
10
3.84523
20
-3.04591
11
3.84395
21
-3.04399
0
LINE
8
BLACK
6
CONTINUOUS
10
3.84395
20
-3.04399
11
3.8435
21
-3.04173
0
LINE
8
BLACK
6
CONTINUOUS
10
3.8435
20
-3.04173
11
3.8435
21
-3.02992
0
LINE
8
BLACK
6
CONTINUOUS
10
3.8435
20
-3.02992
11
3.84395
21
-3.02766
0
LINE
8
BLACK
6
CONTINUOUS
10
3.84395
20
-3.02766
11
3.84523
21
-3.02575
0
LINE
8
BLACK
6
CONTINUOUS
10
3.84523
20
-3.02575
11
3.84715
21
-3.02447
0
LINE
8
BLACK
6
CONTINUOUS
10
3.84715
20
-3.02447
11
3.84941
21
-3.02402
0
LINE
8
BLACK
6
CONTINUOUS
10
3.84941
20
-3.02402
11
3.9065
21
-3.02402
0
LINE
8
BLACK
6
CONTINUOUS
10
3.9065
20
-3.02402
11
3.90876
21
-3.02447
0
LINE
8
BLACK
6
CONTINUOUS
10
3.706
20
-3.02447
11
3.70792
21
-3.02575
0
LINE
8
BLACK
6
CONTINUOUS
10
3.70792
20
-3.02575
11
3.7092
21
-3.02766
0
LINE
8
BLACK
6
CONTINUOUS
10
3.7092
20
-3.02766
11
3.70965
21
-3.02992
0
LINE
8
BLACK
6
CONTINUOUS
10
3.70965
20
-3.02992
11
3.70965
21
-3.04173
0
LINE
8
BLACK
6
CONTINUOUS
10
3.70965
20
-3.04173
11
3.7092
21
-3.04399
0
LINE
8
BLACK
6
CONTINUOUS
10
3.7092
20
-3.04399
11
3.70792
21
-3.04591
0
LINE
8
BLACK
6
CONTINUOUS
10
3.70792
20
-3.04591
11
3.706
21
-3.04719
0
LINE
8
BLACK
6
CONTINUOUS
10
3.706
20
-3.04719
11
3.70374
21
-3.04764
0
LINE
8
BLACK
6
CONTINUOUS
10
3.70374
20
-3.04764
11
3.64665
21
-3.04764
0
LINE
8
BLACK
6
CONTINUOUS
10
3.64665
20
-3.04764
11
3.64439
21
-3.04719
0
LINE
8
BLACK
6
CONTINUOUS
10
3.64439
20
-3.04719
11
3.64248
21
-3.04591
0
LINE
8
BLACK
6
CONTINUOUS
10
3.64248
20
-3.04591
11
3.6412
21
-3.04399
0
LINE
8
BLACK
6
CONTINUOUS
10
3.6412
20
-3.04399
11
3.64075
21
-3.04173
0
LINE
8
BLACK
6
CONTINUOUS
10
3.64075
20
-3.04173
11
3.64075
21
-3.02992
0
LINE
8
BLACK
6
CONTINUOUS
10
3.64075
20
-3.02992
11
3.6412
21
-3.02766
0
LINE
8
BLACK
6
CONTINUOUS
10
3.6412
20
-3.02766
11
3.64248
21
-3.02575
0
LINE
8
BLACK
6
CONTINUOUS
10
3.64248
20
-3.02575
11
3.64439
21
-3.02447
0
LINE
8
BLACK
6
CONTINUOUS
10
3.64439
20
-3.02447
11
3.64665
21
-3.02402
0
LINE
8
BLACK
6
CONTINUOUS
10
3.64665
20
-3.02402
11
3.70374
21
-3.02402
0
LINE
8
BLACK
6
CONTINUOUS
10
3.70374
20
-3.02402
11
3.706
21
-3.02447
0
LINE
8
BLACK
6
CONTINUOUS
10
3.49213
20
-3.01575
11
3.34252
21
-3.01575
0
LINE
8
BLACK
6
CONTINUOUS
10
3.34252
20
-3.01575
11
3.34252
21
-2.93701
0
LINE
8
BLACK
6
CONTINUOUS
10
3.34252
20
-2.93701
11
3.49213
21
-2.93701
0
LINE
8
BLACK
6
CONTINUOUS
10
3.49213
20
-2.93701
11
3.49213
21
-3.01575
0
LINE
8
BLACK
6
CONTINUOUS
10
4.0099
20
-2.97993
11
4.01246
21
-2.98164
0
LINE
8
BLACK
6
CONTINUOUS
10
4.01246
20
-2.98164
11
4.01416
21
-2.98419
0
LINE
8
BLACK
6
CONTINUOUS
10
4.01416
20
-2.98419
11
4.01476
21
-2.9872
0
LINE
8
BLACK
6
CONTINUOUS
10
4.01476
20
-2.9872
11
4.01476
21
-3.00295
0
LINE
8
BLACK
6
CONTINUOUS
10
4.01476
20
-3.00295
11
4.01416
21
-3.00597
0
LINE
8
BLACK
6
CONTINUOUS
10
4.01416
20
-3.00597
11
4.01246
21
-3.00852
0
LINE
8
BLACK
6
CONTINUOUS
10
4.01246
20
-3.00852
11
4.0099
21
-3.01023
0
LINE
8
BLACK
6
CONTINUOUS
10
4.0099
20
-3.01023
11
4.00689
21
-3.01083
0
LINE
8
BLACK
6
CONTINUOUS
10
4.00689
20
-3.01083
11
3.98524
21
-3.01083
0
LINE
8
BLACK
6
CONTINUOUS
10
3.98524
20
-3.01083
11
3.98222
21
-3.01023
0
LINE
8
BLACK
6
CONTINUOUS
10
3.98222
20
-3.01023
11
3.97967
21
-3.00852
0
LINE
8
BLACK
6
CONTINUOUS
10
3.97967
20
-3.00852
11
3.97796
21
-3.00597
0
LINE
8
BLACK
6
CONTINUOUS
10
3.97796
20
-3.00597
11
3.97736
21
-3.00295
0
LINE
8
BLACK
6
CONTINUOUS
10
3.97736
20
-3.00295
11
3.97736
21
-2.9872
0
LINE
8
BLACK
6
CONTINUOUS
10
3.97736
20
-2.9872
11
3.97796
21
-2.98419
0
LINE
8
BLACK
6
CONTINUOUS
10
3.97796
20
-2.98419
11
3.97967
21
-2.98164
0
LINE
8
BLACK
6
CONTINUOUS
10
3.97967
20
-2.98164
11
3.98222
21
-2.97993
0
LINE
8
BLACK
6
CONTINUOUS
10
3.98222
20
-2.97993
11
3.98524
21
-2.97933
0
LINE
8
BLACK
6
CONTINUOUS
10
3.98524
20
-2.97933
11
4.00689
21
-2.97933
0
LINE
8
BLACK
6
CONTINUOUS
10
4.00689
20
-2.97933
11
4.0099
21
-2.97993
0
LINE
8
BLACK
6
CONTINUOUS
10
4.0099
20
-2.91497
11
4.01246
21
-2.91668
0
LINE
8
BLACK
6
CONTINUOUS
10
4.01246
20
-2.91668
11
4.01416
21
-2.91923
0
LINE
8
BLACK
6
CONTINUOUS
10
4.01416
20
-2.91923
11
4.01476
21
-2.92224
0
LINE
8
BLACK
6
CONTINUOUS
10
4.01476
20
-2.92224
11
4.01476
21
-2.93799
0
LINE
8
BLACK
6
CONTINUOUS
10
4.01476
20
-2.93799
11
4.01416
21
-2.94101
0
LINE
8
BLACK
6
CONTINUOUS
10
4.01416
20
-2.94101
11
4.01246
21
-2.94356
0
LINE
8
BLACK
6
CONTINUOUS
10
4.01246
20
-2.94356
11
4.0099
21
-2.94527
0
LINE
8
BLACK
6
CONTINUOUS
10
4.0099
20
-2.94527
11
4.00689
21
-2.94587
0
LINE
8
BLACK
6
CONTINUOUS
10
4.00689
20
-2.94587
11
3.98524
21
-2.94587
0
LINE
8
BLACK
6
CONTINUOUS
10
3.98524
20
-2.94587
11
3.98222
21
-2.94527
0
LINE
8
BLACK
6
CONTINUOUS
10
3.98222
20
-2.94527
11
3.97967
21
-2.94356
0
LINE
8
BLACK
6
CONTINUOUS
10
3.97967
20
-2.94356
11
3.97796
21
-2.94101
0
LINE
8
BLACK
6
CONTINUOUS
10
3.97796
20
-2.94101
11
3.97736
21
-2.93799
0
LINE
8
BLACK
6
CONTINUOUS
10
3.97736
20
-2.93799
11
3.97736
21
-2.92224
0
LINE
8
BLACK
6
CONTINUOUS
10
3.97736
20
-2.92224
11
3.97796
21
-2.91923
0
LINE
8
BLACK
6
CONTINUOUS
10
3.97796
20
-2.91923
11
3.97967
21
-2.91668
0
LINE
8
BLACK
6
CONTINUOUS
10
3.97967
20
-2.91668
11
3.98222
21
-2.91497
0
LINE
8
BLACK
6
CONTINUOUS
10
3.98222
20
-2.91497
11
3.98524
21
-2.91437
0
LINE
8
BLACK
6
CONTINUOUS
10
3.98524
20
-2.91437
11
4.00689
21
-2.91437
0
LINE
8
BLACK
6
CONTINUOUS
10
4.00689
20
-2.91437
11
4.0099
21
-2.91497
0
LINE
8
BLACK
6
CONTINUOUS
10
3.36122
20
-2.89272
11
3.31988
21
-2.89272
0
LINE
8
BLACK
6
CONTINUOUS
10
3.31988
20
-2.89272
11
3.31988
21
-2.86713
0
LINE
8
BLACK
6
CONTINUOUS
10
3.31988
20
-2.86713
11
3.36122
21
-2.86713
0
LINE
8
BLACK
6
CONTINUOUS
10
3.36122
20
-2.86713
11
3.36122
21
-2.89272
0
LINE
8
BLACK
6
CONTINUOUS
10
3.52461
20
-2.89272
11
3.48327
21
-2.89272
0
LINE
8
BLACK
6
CONTINUOUS
10
3.48327
20
-2.89272
11
3.48327
21
-2.86713
0
LINE
8
BLACK
6
CONTINUOUS
10
3.48327
20
-2.86713
11
3.52461
21
-2.86713
0
LINE
8
BLACK
6
CONTINUOUS
10
3.52461
20
-2.86713
11
3.52461
21
-2.89272
0
LINE
8
BLACK
6
CONTINUOUS
10
4.00945
20
-2.85056
11
4.01224
21
-2.85242
0
LINE
8
BLACK
6
CONTINUOUS
10
4.01224
20
-2.85242
11
4.01411
21
-2.85522
0
LINE
8
BLACK
6
CONTINUOUS
10
4.01411
20
-2.85522
11
4.01476
21
-2.85851
0
LINE
8
BLACK
6
CONTINUOUS
10
4.01476
20
-2.85851
11
4.01476
21
-2.87574
0
LINE
8
BLACK
6
CONTINUOUS
10
4.01476
20
-2.87574
11
4.01411
21
-2.87903
0
LINE
8
BLACK
6
CONTINUOUS
10
4.01411
20
-2.87903
11
4.01224
21
-2.88183
0
LINE
8
BLACK
6
CONTINUOUS
10
4.01224
20
-2.88183
11
4.00945
21
-2.88369
0
LINE
8
BLACK
6
CONTINUOUS
10
4.00945
20
-2.88369
11
4.00615
21
-2.88435
0
LINE
8
BLACK
6
CONTINUOUS
10
4.00615
20
-2.88435
11
3.98597
21
-2.88435
0
LINE
8
BLACK
6
CONTINUOUS
10
3.98597
20
-2.88435
11
3.98268
21
-2.88369
0
LINE
8
BLACK
6
CONTINUOUS
10
3.98268
20
-2.88369
11
3.97988
21
-2.88183
0
LINE
8
BLACK
6
CONTINUOUS
10
3.97988
20
-2.88183
11
3.97802
21
-2.87903
0
LINE
8
BLACK
6
CONTINUOUS
10
3.97802
20
-2.87903
11
3.97736
21
-2.87574
0
LINE
8
BLACK
6
CONTINUOUS
10
3.97736
20
-2.87574
11
3.97736
21
-2.85851
0
LINE
8
BLACK
6
CONTINUOUS
10
3.97736
20
-2.85851
11
3.97802
21
-2.85522
0
LINE
8
BLACK
6
CONTINUOUS
10
3.97802
20
-2.85522
11
3.97988
21
-2.85242
0
LINE
8
BLACK
6
CONTINUOUS
10
3.97988
20
-2.85242
11
3.98268
21
-2.85056
0
LINE
8
BLACK
6
CONTINUOUS
10
3.98268
20
-2.85056
11
3.98597
21
-2.8499
0
LINE
8
BLACK
6
CONTINUOUS
10
3.98597
20
-2.8499
11
4.00615
21
-2.8499
0
LINE
8
BLACK
6
CONTINUOUS
10
4.00615
20
-2.8499
11
4.00945
21
-2.85056
0
LINE
8
BLACK
6
CONTINUOUS
10
3.74416
20
-2.85198
11
3.74671
21
-2.85368
0
LINE
8
BLACK
6
CONTINUOUS
10
3.74671
20
-2.85368
11
3.74842
21
-2.85624
0
LINE
8
BLACK
6
CONTINUOUS
10
3.74842
20
-2.85624
11
3.74902
21
-2.85925
0
LINE
8
BLACK
6
CONTINUOUS
10
3.74902
20
-2.85925
11
3.74902
21
-2.875
0
LINE
8
BLACK
6
CONTINUOUS
10
3.74902
20
-2.875
11
3.74842
21
-2.87801
0
LINE
8
BLACK
6
CONTINUOUS
10
3.74842
20
-2.87801
11
3.74671
21
-2.88057
0
LINE
8
BLACK
6
CONTINUOUS
10
3.74671
20
-2.88057
11
3.74416
21
-2.88227
0
LINE
8
BLACK
6
CONTINUOUS
10
3.74416
20
-2.88227
11
3.74114
21
-2.88287
0
LINE
8
BLACK
6
CONTINUOUS
10
3.74114
20
-2.88287
11
3.71949
21
-2.88287
0
LINE
8
BLACK
6
CONTINUOUS
10
3.71949
20
-2.88287
11
3.71647
21
-2.88227
0
LINE
8
BLACK
6
CONTINUOUS
10
3.71647
20
-2.88227
11
3.71392
21
-2.88057
0
LINE
8
BLACK
6
CONTINUOUS
10
3.71392
20
-2.88057
11
3.71221
21
-2.87801
0
LINE
8
BLACK
6
CONTINUOUS
10
3.71221
20
-2.87801
11
3.71161
21
-2.875
0
LINE
8
BLACK
6
CONTINUOUS
10
3.71161
20
-2.875
11
3.71161
21
-2.85925
0
LINE
8
BLACK
6
CONTINUOUS
10
3.71161
20
-2.85925
11
3.71221
21
-2.85624
0
LINE
8
BLACK
6
CONTINUOUS
10
3.71221
20
-2.85624
11
3.71392
21
-2.85368
0
LINE
8
BLACK
6
CONTINUOUS
10
3.71392
20
-2.85368
11
3.71647
21
-2.85198
0
LINE
8
BLACK
6
CONTINUOUS
10
3.71647
20
-2.85198
11
3.71949
21
-2.85138
0
LINE
8
BLACK
6
CONTINUOUS
10
3.71949
20
-2.85138
11
3.74114
21
-2.85138
0
LINE
8
BLACK
6
CONTINUOUS
10
3.74114
20
-2.85138
11
3.74416
21
-2.85198
0
LINE
8
BLACK
6
CONTINUOUS
10
3.67526
20
-2.85198
11
3.67781
21
-2.85368
0
LINE
8
BLACK
6
CONTINUOUS
10
3.67781
20
-2.85368
11
3.67952
21
-2.85624
0
LINE
8
BLACK
6
CONTINUOUS
10
3.67952
20
-2.85624
11
3.68012
21
-2.85925
0
LINE
8
BLACK
6
CONTINUOUS
10
3.68012
20
-2.85925
11
3.68012
21
-2.875
0
LINE
8
BLACK
6
CONTINUOUS
10
3.68012
20
-2.875
11
3.67952
21
-2.87801
0
LINE
8
BLACK
6
CONTINUOUS
10
3.67952
20
-2.87801
11
3.67781
21
-2.88057
0
LINE
8
BLACK
6
CONTINUOUS
10
3.67781
20
-2.88057
11
3.67526
21
-2.88227
0
LINE
8
BLACK
6
CONTINUOUS
10
3.67526
20
-2.88227
11
3.67224
21
-2.88287
0
LINE
8
BLACK
6
CONTINUOUS
10
3.67224
20
-2.88287
11
3.65059
21
-2.88287
0
LINE
8
BLACK
6
CONTINUOUS
10
3.65059
20
-2.88287
11
3.64758
21
-2.88227
0
LINE
8
BLACK
6
CONTINUOUS
10
3.64758
20
-2.88227
11
3.64502
21
-2.88057
0
LINE
8
BLACK
6
CONTINUOUS
10
3.64502
20
-2.88057
11
3.64332
21
-2.87801
0
LINE
8
BLACK
6
CONTINUOUS
10
3.64332
20
-2.87801
11
3.64272
21
-2.875
0
LINE
8
BLACK
6
CONTINUOUS
10
3.64272
20
-2.875
11
3.64272
21
-2.85925
0
LINE
8
BLACK
6
CONTINUOUS
10
3.64272
20
-2.85925
11
3.64332
21
-2.85624
0
LINE
8
BLACK
6
CONTINUOUS
10
3.64332
20
-2.85624
11
3.64502
21
-2.85368
0
LINE
8
BLACK
6
CONTINUOUS
10
3.64502
20
-2.85368
11
3.64758
21
-2.85198
0
LINE
8
BLACK
6
CONTINUOUS
10
3.64758
20
-2.85198
11
3.65059
21
-2.85138
0
LINE
8
BLACK
6
CONTINUOUS
10
3.65059
20
-2.85138
11
3.67224
21
-2.85138
0
LINE
8
BLACK
6
CONTINUOUS
10
3.67224
20
-2.85138
11
3.67526
21
-2.85198
0
LINE
8
BLACK
6
CONTINUOUS
10
3.81305
20
-2.85198
11
3.81561
21
-2.85368
0
LINE
8
BLACK
6
CONTINUOUS
10
3.81561
20
-2.85368
11
3.81731
21
-2.85624
0
LINE
8
BLACK
6
CONTINUOUS
10
3.81731
20
-2.85624
11
3.81791
21
-2.85925
0
LINE
8
BLACK
6
CONTINUOUS
10
3.81791
20
-2.85925
11
3.81791
21
-2.875
0
LINE
8
BLACK
6
CONTINUOUS
10
3.81791
20
-2.875
11
3.81731
21
-2.87801
0
LINE
8
BLACK
6
CONTINUOUS
10
3.81731
20
-2.87801
11
3.81561
21
-2.88057
0
LINE
8
BLACK
6
CONTINUOUS
10
3.81561
20
-2.88057
11
3.81305
21
-2.88227
0
LINE
8
BLACK
6
CONTINUOUS
10
3.81305
20
-2.88227
11
3.81004
21
-2.88287
0
LINE
8
BLACK
6
CONTINUOUS
10
3.81004
20
-2.88287
11
3.78839
21
-2.88287
0
LINE
8
BLACK
6
CONTINUOUS
10
3.78839
20
-2.88287
11
3.78537
21
-2.88227
0
LINE
8
BLACK
6
CONTINUOUS
10
3.78537
20
-2.88227
11
3.78282
21
-2.88057
0
LINE
8
BLACK
6
CONTINUOUS
10
3.78282
20
-2.88057
11
3.78111
21
-2.87801
0
LINE
8
BLACK
6
CONTINUOUS
10
3.78111
20
-2.87801
11
3.78051
21
-2.875
0
LINE
8
BLACK
6
CONTINUOUS
10
3.78051
20
-2.875
11
3.78051
21
-2.85925
0
LINE
8
BLACK
6
CONTINUOUS
10
3.78051
20
-2.85925
11
3.78111
21
-2.85624
0
LINE
8
BLACK
6
CONTINUOUS
10
3.78111
20
-2.85624
11
3.78282
21
-2.85368
0
LINE
8
BLACK
6
CONTINUOUS
10
3.78282
20
-2.85368
11
3.78537
21
-2.85198
0
LINE
8
BLACK
6
CONTINUOUS
10
3.78537
20
-2.85198
11
3.78839
21
-2.85138
0
LINE
8
BLACK
6
CONTINUOUS
10
3.78839
20
-2.85138
11
3.81004
21
-2.85138
0
LINE
8
BLACK
6
CONTINUOUS
10
3.81004
20
-2.85138
11
3.81305
21
-2.85198
0
LINE
8
BLACK
6
CONTINUOUS
10
3.60636
20
-2.85198
11
3.60891
21
-2.85368
0
LINE
8
BLACK
6
CONTINUOUS
10
3.60891
20
-2.85368
11
3.61062
21
-2.85624
0
LINE
8
BLACK
6
CONTINUOUS
10
3.61062
20
-2.85624
11
3.61122
21
-2.85925
0
LINE
8
BLACK
6
CONTINUOUS
10
3.61122
20
-2.85925
11
3.61122
21
-2.875
0
LINE
8
BLACK
6
CONTINUOUS
10
3.61122
20
-2.875
11
3.61062
21
-2.87801
0
LINE
8
BLACK
6
CONTINUOUS
10
3.61062
20
-2.87801
11
3.60891
21
-2.88057
0
LINE
8
BLACK
6
CONTINUOUS
10
3.60891
20
-2.88057
11
3.60636
21
-2.88227
0
LINE
8
BLACK
6
CONTINUOUS
10
3.60636
20
-2.88227
11
3.60335
21
-2.88287
0
LINE
8
BLACK
6
CONTINUOUS
10
3.60335
20
-2.88287
11
3.58169
21
-2.88287
0
LINE
8
BLACK
6
CONTINUOUS
10
3.58169
20
-2.88287
11
3.57868
21
-2.88227
0
LINE
8
BLACK
6
CONTINUOUS
10
3.57868
20
-2.88227
11
3.57613
21
-2.88057
0
LINE
8
BLACK
6
CONTINUOUS
10
3.57613
20
-2.88057
11
3.57442
21
-2.87801
0
LINE
8
BLACK
6
CONTINUOUS
10
3.57442
20
-2.87801
11
3.57382
21
-2.875
0
LINE
8
BLACK
6
CONTINUOUS
10
3.57382
20
-2.875
11
3.57382
21
-2.85925
0
LINE
8
BLACK
6
CONTINUOUS
10
3.57382
20
-2.85925
11
3.57442
21
-2.85624
0
LINE
8
BLACK
6
CONTINUOUS
10
3.57442
20
-2.85624
11
3.57613
21
-2.85368
0
LINE
8
BLACK
6
CONTINUOUS
10
3.57613
20
-2.85368
11
3.57868
21
-2.85198
0
LINE
8
BLACK
6
CONTINUOUS
10
3.57868
20
-2.85198
11
3.58169
21
-2.85138
0
LINE
8
BLACK
6
CONTINUOUS
10
3.58169
20
-2.85138
11
3.60335
21
-2.85138
0
LINE
8
BLACK
6
CONTINUOUS
10
3.60335
20
-2.85138
11
3.60636
21
-2.85198
0
LINE
8
BLACK
6
CONTINUOUS
10
3.92071
20
-2.84713
11
3.92359
21
-2.84905
0
LINE
8
BLACK
6
CONTINUOUS
10
3.92359
20
-2.84905
11
3.92551
21
-2.85193
0
LINE
8
BLACK
6
CONTINUOUS
10
3.92551
20
-2.85193
11
3.92618
21
-2.85531
0
LINE
8
BLACK
6
CONTINUOUS
10
3.92618
20
-2.85531
11
3.92618
21
-2.87303
0
LINE
8
BLACK
6
CONTINUOUS
10
3.92618
20
-2.87303
11
3.92551
21
-2.87642
0
LINE
8
BLACK
6
CONTINUOUS
10
3.92551
20
-2.87642
11
3.92359
21
-2.8793
0
LINE
8
BLACK
6
CONTINUOUS
10
3.92359
20
-2.8793
11
3.92071
21
-2.88122
0
LINE
8
BLACK
6
CONTINUOUS
10
3.92071
20
-2.88122
11
3.91732
21
-2.88189
0
LINE
8
BLACK
6
CONTINUOUS
10
3.91732
20
-2.88189
11
3.89764
21
-2.88189
0
LINE
8
BLACK
6
CONTINUOUS
10
3.89764
20
-2.88189
11
3.89425
21
-2.88122
0
LINE
8
BLACK
6
CONTINUOUS
10
3.89425
20
-2.88122
11
3.89137
21
-2.8793
0
LINE
8
BLACK
6
CONTINUOUS
10
3.89137
20
-2.8793
11
3.88945
21
-2.87642
0
LINE
8
BLACK
6
CONTINUOUS
10
3.88945
20
-2.87642
11
3.88878
21
-2.87303
0
LINE
8
BLACK
6
CONTINUOUS
10
3.88878
20
-2.87303
11
3.88878
21
-2.85531
0
LINE
8
BLACK
6
CONTINUOUS
10
3.88878
20
-2.85531
11
3.88945
21
-2.85193
0
LINE
8
BLACK
6
CONTINUOUS
10
3.88945
20
-2.85193
11
3.89137
21
-2.84905
0
LINE
8
BLACK
6
CONTINUOUS
10
3.89137
20
-2.84905
11
3.89425
21
-2.84713
0
LINE
8
BLACK
6
CONTINUOUS
10
3.89425
20
-2.84713
11
3.89764
21
-2.84646
0
LINE
8
BLACK
6
CONTINUOUS
10
3.89764
20
-2.84646
11
3.91732
21
-2.84646
0
LINE
8
BLACK
6
CONTINUOUS
10
3.91732
20
-2.84646
11
3.92071
21
-2.84713
0
LINE
8
BLACK
6
CONTINUOUS
10
4.00945
20
-2.78855
11
4.01224
21
-2.79042
0
LINE
8
BLACK
6
CONTINUOUS
10
4.01224
20
-2.79042
11
4.01411
21
-2.79321
0
LINE
8
BLACK
6
CONTINUOUS
10
4.01411
20
-2.79321
11
4.01476
21
-2.79651
0
LINE
8
BLACK
6
CONTINUOUS
10
4.01476
20
-2.79651
11
4.01476
21
-2.81373
0
LINE
8
BLACK
6
CONTINUOUS
10
4.01476
20
-2.81373
11
4.01411
21
-2.81703
0
LINE
8
BLACK
6
CONTINUOUS
10
4.01411
20
-2.81703
11
4.01224
21
-2.81982
0
LINE
8
BLACK
6
CONTINUOUS
10
4.01224
20
-2.81982
11
4.00945
21
-2.82169
0
LINE
8
BLACK
6
CONTINUOUS
10
4.00945
20
-2.82169
11
4.00615
21
-2.82234
0
LINE
8
BLACK
6
CONTINUOUS
10
4.00615
20
-2.82234
11
3.98597
21
-2.82234
0
LINE
8
BLACK
6
CONTINUOUS
10
3.98597
20
-2.82234
11
3.98268
21
-2.82169
0
LINE
8
BLACK
6
CONTINUOUS
10
3.98268
20
-2.82169
11
3.97988
21
-2.81982
0
LINE
8
BLACK
6
CONTINUOUS
10
3.97988
20
-2.81982
11
3.97802
21
-2.81703
0
LINE
8
BLACK
6
CONTINUOUS
10
3.97802
20
-2.81703
11
3.97736
21
-2.81373
0
LINE
8
BLACK
6
CONTINUOUS
10
3.97736
20
-2.81373
11
3.97736
21
-2.79651
0
LINE
8
BLACK
6
CONTINUOUS
10
3.97736
20
-2.79651
11
3.97802
21
-2.79321
0
LINE
8
BLACK
6
CONTINUOUS
10
3.97802
20
-2.79321
11
3.97988
21
-2.79042
0
LINE
8
BLACK
6
CONTINUOUS
10
3.97988
20
-2.79042
11
3.98268
21
-2.78855
0
LINE
8
BLACK
6
CONTINUOUS
10
3.98268
20
-2.78855
11
3.98597
21
-2.78789
0
LINE
8
BLACK
6
CONTINUOUS
10
3.98597
20
-2.78789
11
4.00615
21
-2.78789
0
LINE
8
BLACK
6
CONTINUOUS
10
4.00615
20
-2.78789
11
4.00945
21
-2.78855
0
LINE
8
BLACK
6
CONTINUOUS
10
3.92071
20
-2.78611
11
3.92359
21
-2.78803
0
LINE
8
BLACK
6
CONTINUOUS
10
3.92359
20
-2.78803
11
3.92551
21
-2.7909
0
LINE
8
BLACK
6
CONTINUOUS
10
3.92551
20
-2.7909
11
3.92618
21
-2.79429
0
LINE
8
BLACK
6
CONTINUOUS
10
3.92618
20
-2.79429
11
3.92618
21
-2.81201
0
LINE
8
BLACK
6
CONTINUOUS
10
3.92618
20
-2.81201
11
3.92551
21
-2.8154
0
LINE
8
BLACK
6
CONTINUOUS
10
3.92551
20
-2.8154
11
3.92359
21
-2.81827
0
LINE
8
BLACK
6
CONTINUOUS
10
3.92359
20
-2.81827
11
3.92071
21
-2.82019
0
LINE
8
BLACK
6
CONTINUOUS
10
3.92071
20
-2.82019
11
3.91732
21
-2.82087
0
LINE
8
BLACK
6
CONTINUOUS
10
3.91732
20
-2.82087
11
3.89764
21
-2.82087
0
LINE
8
BLACK
6
CONTINUOUS
10
3.89764
20
-2.82087
11
3.89425
21
-2.82019
0
LINE
8
BLACK
6
CONTINUOUS
10
3.89425
20
-2.82019
11
3.89137
21
-2.81827
0
LINE
8
BLACK
6
CONTINUOUS
10
3.89137
20
-2.81827
11
3.88945
21
-2.8154
0
LINE
8
BLACK
6
CONTINUOUS
10
3.88945
20
-2.8154
11
3.88878
21
-2.81201
0
LINE
8
BLACK
6
CONTINUOUS
10
3.88878
20
-2.81201
11
3.88878
21
-2.79429
0
LINE
8
BLACK
6
CONTINUOUS
10
3.88878
20
-2.79429
11
3.88945
21
-2.7909
0
LINE
8
BLACK
6
CONTINUOUS
10
3.88945
20
-2.7909
11
3.89137
21
-2.78803
0
LINE
8
BLACK
6
CONTINUOUS
10
3.89137
20
-2.78803
11
3.89425
21
-2.78611
0
LINE
8
BLACK
6
CONTINUOUS
10
3.89425
20
-2.78611
11
3.89764
21
-2.78543
0
LINE
8
BLACK
6
CONTINUOUS
10
3.89764
20
-2.78543
11
3.91732
21
-2.78543
0
LINE
8
BLACK
6
CONTINUOUS
10
3.91732
20
-2.78543
11
3.92071
21
-2.78611
0
LINE
8
BLACK
6
CONTINUOUS
10
3.67526
20
-2.78702
11
3.67781
21
-2.78872
0
LINE
8
BLACK
6
CONTINUOUS
10
3.67781
20
-2.78872
11
3.67952
21
-2.79128
0
LINE
8
BLACK
6
CONTINUOUS
10
3.67952
20
-2.79128
11
3.68012
21
-2.79429
0
LINE
8
BLACK
6
CONTINUOUS
10
3.68012
20
-2.79429
11
3.68012
21
-2.81004
0
LINE
8
BLACK
6
CONTINUOUS
10
3.68012
20
-2.81004
11
3.67952
21
-2.81305
0
LINE
8
BLACK
6
CONTINUOUS
10
3.67952
20
-2.81305
11
3.67781
21
-2.81561
0
LINE
8
BLACK
6
CONTINUOUS
10
3.67781
20
-2.81561
11
3.67526
21
-2.81731
0
LINE
8
BLACK
6
CONTINUOUS
10
3.67526
20
-2.81731
11
3.67224
21
-2.81791
0
LINE
8
BLACK
6
CONTINUOUS
10
3.67224
20
-2.81791
11
3.65059
21
-2.81791
0
LINE
8
BLACK
6
CONTINUOUS
10
3.65059
20
-2.81791
11
3.64758
21
-2.81731
0
LINE
8
BLACK
6
CONTINUOUS
10
3.64758
20
-2.81731
11
3.64502
21
-2.81561
0
LINE
8
BLACK
6
CONTINUOUS
10
3.64502
20
-2.81561
11
3.64332
21
-2.81305
0
LINE
8
BLACK
6
CONTINUOUS
10
3.64332
20
-2.81305
11
3.64272
21
-2.81004
0
LINE
8
BLACK
6
CONTINUOUS
10
3.64272
20
-2.81004
11
3.64272
21
-2.79429
0
LINE
8
BLACK
6
CONTINUOUS
10
3.64272
20
-2.79429
11
3.64332
21
-2.79128
0
LINE
8
BLACK
6
CONTINUOUS
10
3.64332
20
-2.79128
11
3.64502
21
-2.78872
0
LINE
8
BLACK
6
CONTINUOUS
10
3.64502
20
-2.78872
11
3.64758
21
-2.78702
0
LINE
8
BLACK
6
CONTINUOUS
10
3.64758
20
-2.78702
11
3.65059
21
-2.78642
0
LINE
8
BLACK
6
CONTINUOUS
10
3.65059
20
-2.78642
11
3.67224
21
-2.78642
0
LINE
8
BLACK
6
CONTINUOUS
10
3.67224
20
-2.78642
11
3.67526
21
-2.78702
0
LINE
8
BLACK
6
CONTINUOUS
10
3.81305
20
-2.78702
11
3.81561
21
-2.78872
0
LINE
8
BLACK
6
CONTINUOUS
10
3.81561
20
-2.78872
11
3.81731
21
-2.79128
0
LINE
8
BLACK
6
CONTINUOUS
10
3.81731
20
-2.79128
11
3.81791
21
-2.79429
0
LINE
8
BLACK
6
CONTINUOUS
10
3.81791
20
-2.79429
11
3.81791
21
-2.81004
0
LINE
8
BLACK
6
CONTINUOUS
10
3.81791
20
-2.81004
11
3.81731
21
-2.81305
0
LINE
8
BLACK
6
CONTINUOUS
10
3.81731
20
-2.81305
11
3.81561
21
-2.81561
0
LINE
8
BLACK
6
CONTINUOUS
10
3.81561
20
-2.81561
11
3.81305
21
-2.81731
0
LINE
8
BLACK
6
CONTINUOUS
10
3.81305
20
-2.81731
11
3.81004
21
-2.81791
0
LINE
8
BLACK
6
CONTINUOUS
10
3.81004
20
-2.81791
11
3.78839
21
-2.81791
0
LINE
8
BLACK
6
CONTINUOUS
10
3.78839
20
-2.81791
11
3.78537
21
-2.81731
0
LINE
8
BLACK
6
CONTINUOUS
10
3.78537
20
-2.81731
11
3.78282
21
-2.81561
0
LINE
8
BLACK
6
CONTINUOUS
10
3.78282
20
-2.81561
11
3.78111
21
-2.81305
0
LINE
8
BLACK
6
CONTINUOUS
10
3.78111
20
-2.81305
11
3.78051
21
-2.81004
0
LINE
8
BLACK
6
CONTINUOUS
10
3.78051
20
-2.81004
11
3.78051
21
-2.79429
0
LINE
8
BLACK
6
CONTINUOUS
10
3.78051
20
-2.79429
11
3.78111
21
-2.79128
0
LINE
8
BLACK
6
CONTINUOUS
10
3.78111
20
-2.79128
11
3.78282
21
-2.78872
0
LINE
8
BLACK
6
CONTINUOUS
10
3.78282
20
-2.78872
11
3.78537
21
-2.78702
0
LINE
8
BLACK
6
CONTINUOUS
10
3.78537
20
-2.78702
11
3.78839
21
-2.78642
0
LINE
8
BLACK
6
CONTINUOUS
10
3.78839
20
-2.78642
11
3.81004
21
-2.78642
0
LINE
8
BLACK
6
CONTINUOUS
10
3.81004
20
-2.78642
11
3.81305
21
-2.78702
0
LINE
8
BLACK
6
CONTINUOUS
10
3.74416
20
-2.78702
11
3.74671
21
-2.78872
0
LINE
8
BLACK
6
CONTINUOUS
10
3.74671
20
-2.78872
11
3.74842
21
-2.79128
0
LINE
8
BLACK
6
CONTINUOUS
10
3.74842
20
-2.79128
11
3.74902
21
-2.79429
0
LINE
8
BLACK
6
CONTINUOUS
10
3.74902
20
-2.79429
11
3.74902
21
-2.81004
0
LINE
8
BLACK
6
CONTINUOUS
10
3.74902
20
-2.81004
11
3.74842
21
-2.81305
0
LINE
8
BLACK
6
CONTINUOUS
10
3.74842
20
-2.81305
11
3.74671
21
-2.81561
0
LINE
8
BLACK
6
CONTINUOUS
10
3.74671
20
-2.81561
11
3.74416
21
-2.81731
0
LINE
8
BLACK
6
CONTINUOUS
10
3.74416
20
-2.81731
11
3.74114
21
-2.81791
0
LINE
8
BLACK
6
CONTINUOUS
10
3.74114
20
-2.81791
11
3.71949
21
-2.81791
0
LINE
8
BLACK
6
CONTINUOUS
10
3.71949
20
-2.81791
11
3.71647
21
-2.81731
0
LINE
8
BLACK
6
CONTINUOUS
10
3.71647
20
-2.81731
11
3.71392
21
-2.81561
0
LINE
8
BLACK
6
CONTINUOUS
10
3.71392
20
-2.81561
11
3.71221
21
-2.81305
0
LINE
8
BLACK
6
CONTINUOUS
10
3.71221
20
-2.81305
11
3.71161
21
-2.81004
0
LINE
8
BLACK
6
CONTINUOUS
10
3.71161
20
-2.81004
11
3.71161
21
-2.79429
0
LINE
8
BLACK
6
CONTINUOUS
10
3.71161
20
-2.79429
11
3.71221
21
-2.79128
0
LINE
8
BLACK
6
CONTINUOUS
10
3.71221
20
-2.79128
11
3.71392
21
-2.78872
0
LINE
8
BLACK
6
CONTINUOUS
10
3.71392
20
-2.78872
11
3.71647
21
-2.78702
0
LINE
8
BLACK
6
CONTINUOUS
10
3.71647
20
-2.78702
11
3.71949
21
-2.78642
0
LINE
8
BLACK
6
CONTINUOUS
10
3.71949
20
-2.78642
11
3.74114
21
-2.78642
0
LINE
8
BLACK
6
CONTINUOUS
10
3.74114
20
-2.78642
11
3.74416
21
-2.78702
0
LINE
8
BLACK
6
CONTINUOUS
10
3.60636
20
-2.78702
11
3.60891
21
-2.78872
0
LINE
8
BLACK
6
CONTINUOUS
10
3.60891
20
-2.78872
11
3.61062
21
-2.79128
0
LINE
8
BLACK
6
CONTINUOUS
10
3.61062
20
-2.79128
11
3.61122
21
-2.79429
0
LINE
8
BLACK
6
CONTINUOUS
10
3.61122
20
-2.79429
11
3.61122
21
-2.81004
0
LINE
8
BLACK
6
CONTINUOUS
10
3.61122
20
-2.81004
11
3.61062
21
-2.81305
0
LINE
8
BLACK
6
CONTINUOUS
10
3.61062
20
-2.81305
11
3.60891
21
-2.81561
0
LINE
8
BLACK
6
CONTINUOUS
10
3.60891
20
-2.81561
11
3.60636
21
-2.81731
0
LINE
8
BLACK
6
CONTINUOUS
10
3.60636
20
-2.81731
11
3.60335
21
-2.81791
0
LINE
8
BLACK
6
CONTINUOUS
10
3.60335
20
-2.81791
11
3.58169
21
-2.81791
0
LINE
8
BLACK
6
CONTINUOUS
10
3.58169
20
-2.81791
11
3.57868
21
-2.81731
0
LINE
8
BLACK
6
CONTINUOUS
10
3.57868
20
-2.81731
11
3.57613
21
-2.81561
0
LINE
8
BLACK
6
CONTINUOUS
10
3.57613
20
-2.81561
11
3.57442
21
-2.81305
0
LINE
8
BLACK
6
CONTINUOUS
10
3.57442
20
-2.81305
11
3.57382
21
-2.81004
0
LINE
8
BLACK
6
CONTINUOUS
10
3.57382
20
-2.81004
11
3.57382
21
-2.79429
0
LINE
8
BLACK
6
CONTINUOUS
10
3.57382
20
-2.79429
11
3.57442
21
-2.79128
0
LINE
8
BLACK
6
CONTINUOUS
10
3.57442
20
-2.79128
11
3.57613
21
-2.78872
0
LINE
8
BLACK
6
CONTINUOUS
10
3.57613
20
-2.78872
11
3.57868
21
-2.78702
0
LINE
8
BLACK
6
CONTINUOUS
10
3.57868
20
-2.78702
11
3.58169
21
-2.78642
0
LINE
8
BLACK
6
CONTINUOUS
10
3.58169
20
-2.78642
11
3.60335
21
-2.78642
0
LINE
8
BLACK
6
CONTINUOUS
10
3.60335
20
-2.78642
11
3.60636
21
-2.78702
0
LINE
8
BLACK
6
CONTINUOUS
10
3.52461
20
-2.80807
11
3.48327
21
-2.80807
0
LINE
8
BLACK
6
CONTINUOUS
10
3.48327
20
-2.80807
11
3.48327
21
-2.78248
0
LINE
8
BLACK
6
CONTINUOUS
10
3.48327
20
-2.78248
11
3.52461
21
-2.78248
0
LINE
8
BLACK
6
CONTINUOUS
10
3.52461
20
-2.78248
11
3.52461
21
-2.80807
0
LINE
8
BLACK
6
CONTINUOUS
10
3.36122
20
-2.80807
11
3.31988
21
-2.80807
0
LINE
8
BLACK
6
CONTINUOUS
10
3.31988
20
-2.80807
11
3.31988
21
-2.78248
0
LINE
8
BLACK
6
CONTINUOUS
10
3.31988
20
-2.78248
11
3.36122
21
-2.78248
0
LINE
8
BLACK
6
CONTINUOUS
10
3.36122
20
-2.78248
11
3.36122
21
-2.80807
  0
ENDSEC
  0
EOF
