  0
SECTION
  2
HEADER
  9
$ANGBASE
  50
0.0
  9
$ANGDIR
  70
1
  9
$MEASUREMENT
  70
0
  0
ENDSEC
  0
SECTION
  2
TABLES
  0
TABLE
  2
LTYPE
  70
4
  0
LTYPE
  5
40F
  2
CONTINUOUS
  70
0
  3
Solid line
  72
65
  73
0
  40
0.0
  0
LTYPE
  5
410
  2
DASHDOT
 70
0
  3
Dash Dot ____ _ ____ _
 72
65
 73
4
 40
2.0
 49
1.25
 49
-0.25
 49
0.25
 49
-0.25
  0
LTYPE
  5
411
  2
DASHED
 70
0
  3
Dashed __ __ __ __ __
 72
65
 73
2
 40
0.75
 49
0.5
 49
-0.25
  0
LTYPE
  5
43B
  2
DOTTED
 70
0
  3
Dotted .  .  .  .
 72
65
 73
2
 40
0.2
 49
0.0
 49
-0.2
  0
ENDTAB
  0
TABLE
  2
STYLE
  70
4
  0
STYLE
  2
KICAD
  70
0
  40
0
  41
1
  42
1
  50
0
  71
0
  3
isocp.shx
  0
STYLE
  2
KICADB
  70
0
  40
0
  41
1
  42
1
  50
0
  71
0
  3
isocp.shx
  0
STYLE
  2
KICADI
  70
0
  40
0
  41
1
  42
1
  50
15
  71
0
  3
isocp.shx
  0
STYLE
  2
KICADBI
  70
0
  40
0
  41
1
  42
1
  50
15
  71
0
  3
isocp.shx
  0
ENDTAB
  0
TABLE
  2
LAYER
  70
1
  0
LAYER
  2
BLACK
  70
0
  62
7
  6
CONTINUOUS
  0
ENDTAB
  0
ENDSEC
  0
SECTION
  2
ENTITIES
0
LINE
8
BLACK
6
CONTINUOUS
10
4.05646
20
-3.86545
11
4.05459
21
-3.87241
0
LINE
8
BLACK
6
CONTINUOUS
10
4.05459
20
-3.87241
11
4.05155
21
-3.87894
0
LINE
8
BLACK
6
CONTINUOUS
10
4.05155
20
-3.87894
11
4.04742
21
-3.88484
0
LINE
8
BLACK
6
CONTINUOUS
10
4.04742
20
-3.88484
11
4.04232
21
-3.88993
0
LINE
8
BLACK
6
CONTINUOUS
10
4.04232
20
-3.88993
11
4.03642
21
-3.89407
0
LINE
8
BLACK
6
CONTINUOUS
10
4.03642
20
-3.89407
11
4.02989
21
-3.89711
0
LINE
8
BLACK
6
CONTINUOUS
10
4.02989
20
-3.89711
11
4.02293
21
-3.89898
0
LINE
8
BLACK
6
CONTINUOUS
10
4.02293
20
-3.89898
11
4.01575
21
-3.89961
0
LINE
8
BLACK
6
CONTINUOUS
10
4.01575
20
-3.89961
11
3.14961
21
-3.89961
0
LINE
8
BLACK
6
CONTINUOUS
10
3.14961
20
-3.89961
11
3.14243
21
-3.89898
0
LINE
8
BLACK
6
CONTINUOUS
10
3.14243
20
-3.89898
11
3.13547
21
-3.89711
0
LINE
8
BLACK
6
CONTINUOUS
10
3.13547
20
-3.89711
11
3.12894
21
-3.89407
0
LINE
8
BLACK
6
CONTINUOUS
10
3.12894
20
-3.89407
11
3.12303
21
-3.88993
0
LINE
8
BLACK
6
CONTINUOUS
10
3.12303
20
-3.88993
11
3.11794
21
-3.88484
0
LINE
8
BLACK
6
CONTINUOUS
10
3.11794
20
-3.88484
11
3.11381
21
-3.87894
0
LINE
8
BLACK
6
CONTINUOUS
10
3.11381
20
-3.87894
11
3.11076
21
-3.87241
0
LINE
8
BLACK
6
CONTINUOUS
10
3.11076
20
-3.87241
11
3.1089
21
-3.86545
0
LINE
8
BLACK
6
CONTINUOUS
10
3.1089
20
-3.86545
11
3.10827
21
-3.85827
0
LINE
8
BLACK
6
CONTINUOUS
10
3.10827
20
-3.85827
11
3.10827
21
-2.75591
0
LINE
8
BLACK
6
CONTINUOUS
10
3.10827
20
-2.75591
11
3.1089
21
-2.74873
0
LINE
8
BLACK
6
CONTINUOUS
10
3.1089
20
-2.74873
11
3.11076
21
-2.74177
0
LINE
8
BLACK
6
CONTINUOUS
10
3.11076
20
-2.74177
11
3.11381
21
-2.73524
0
LINE
8
BLACK
6
CONTINUOUS
10
3.11381
20
-2.73524
11
3.11794
21
-2.72933
0
LINE
8
BLACK
6
CONTINUOUS
10
3.11794
20
-2.72933
11
3.12303
21
-2.72424
0
LINE
8
BLACK
6
CONTINUOUS
10
3.12303
20
-2.72424
11
3.12894
21
-2.72011
0
LINE
8
BLACK
6
CONTINUOUS
10
3.12894
20
-2.72011
11
3.13547
21
-2.71706
0
LINE
8
BLACK
6
CONTINUOUS
10
3.13547
20
-2.71706
11
3.14243
21
-2.71519
0
LINE
8
BLACK
6
CONTINUOUS
10
3.14243
20
-2.71519
11
3.14961
21
-2.71457
0
LINE
8
BLACK
6
CONTINUOUS
10
3.14961
20
-2.71457
11
4.01575
21
-2.71457
0
LINE
8
BLACK
6
CONTINUOUS
10
4.01575
20
-2.71457
11
4.02293
21
-2.71519
0
LINE
8
BLACK
6
CONTINUOUS
10
4.02293
20
-2.71519
11
4.02989
21
-2.71706
0
LINE
8
BLACK
6
CONTINUOUS
10
4.02989
20
-2.71706
11
4.03642
21
-2.72011
0
LINE
8
BLACK
6
CONTINUOUS
10
4.03642
20
-2.72011
11
4.04232
21
-2.72424
0
LINE
8
BLACK
6
CONTINUOUS
10
4.04232
20
-2.72424
11
4.04742
21
-2.72933
0
LINE
8
BLACK
6
CONTINUOUS
10
4.04742
20
-2.72933
11
4.05155
21
-2.73524
0
LINE
8
BLACK
6
CONTINUOUS
10
4.05155
20
-2.73524
11
4.05459
21
-2.74177
0
LINE
8
BLACK
6
CONTINUOUS
10
4.05459
20
-2.74177
11
4.05646
21
-2.74873
0
LINE
8
BLACK
6
CONTINUOUS
10
4.05646
20
-2.74873
11
4.05709
21
-2.75591
0
LINE
8
BLACK
6
CONTINUOUS
10
4.05709
20
-2.75591
11
4.05709
21
-3.85827
0
LINE
8
BLACK
6
CONTINUOUS
10
4.05709
20
-3.85827
11
4.05646
21
-3.86545
0
LINE
8
BLACK
6
CONTINUOUS
10
3.14932
20
-2.71839
11
3.14309
21
-2.71893
0
LINE
8
BLACK
6
CONTINUOUS
10
3.14309
20
-2.71893
11
3.13677
21
-2.72063
0
LINE
8
BLACK
6
CONTINUOUS
10
3.13677
20
-2.72063
11
3.13083
21
-2.72339
0
LINE
8
BLACK
6
CONTINUOUS
10
3.13083
20
-2.72339
11
3.12547
21
-2.72714
0
LINE
8
BLACK
6
CONTINUOUS
10
3.12547
20
-2.72714
11
3.12085
21
-2.73177
0
LINE
8
BLACK
6
CONTINUOUS
10
3.12085
20
-2.73177
11
3.11709
21
-2.73713
0
LINE
8
BLACK
6
CONTINUOUS
10
3.11709
20
-2.73713
11
3.11433
21
-2.74306
0
LINE
8
BLACK
6
CONTINUOUS
10
3.11433
20
-2.74306
11
3.11263
21
-2.74939
0
LINE
8
BLACK
6
CONTINUOUS
10
3.11263
20
-2.74939
11
3.11209
21
-2.75562
0
LINE
8
BLACK
6
CONTINUOUS
10
3.11209
20
-2.75562
11
3.1122
21
-2.75591
0
LINE
8
BLACK
6
CONTINUOUS
10
3.1122
20
-2.75591
11
3.1122
21
-3.85827
0
LINE
8
BLACK
6
CONTINUOUS
10
3.1122
20
-3.85827
11
3.11209
21
-3.85855
0
LINE
8
BLACK
6
CONTINUOUS
10
3.11209
20
-3.85855
11
3.11263
21
-3.86479
0
LINE
8
BLACK
6
CONTINUOUS
10
3.11263
20
-3.86479
11
3.11433
21
-3.87111
0
LINE
8
BLACK
6
CONTINUOUS
10
3.11433
20
-3.87111
11
3.11709
21
-3.87704
0
LINE
8
BLACK
6
CONTINUOUS
10
3.11709
20
-3.87704
11
3.12085
21
-3.8824
0
LINE
8
BLACK
6
CONTINUOUS
10
3.12085
20
-3.8824
11
3.12547
21
-3.88703
0
LINE
8
BLACK
6
CONTINUOUS
10
3.12547
20
-3.88703
11
3.13083
21
-3.89078
0
LINE
8
BLACK
6
CONTINUOUS
10
3.13083
20
-3.89078
11
3.13677
21
-3.89355
0
LINE
8
BLACK
6
CONTINUOUS
10
3.13677
20
-3.89355
11
3.14309
21
-3.89524
0
LINE
8
BLACK
6
CONTINUOUS
10
3.14309
20
-3.89524
11
3.14932
21
-3.89579
0
LINE
8
BLACK
6
CONTINUOUS
10
3.14932
20
-3.89579
11
3.14961
21
-3.89567
0
LINE
8
BLACK
6
CONTINUOUS
10
3.14961
20
-3.89567
11
4.01575
21
-3.89567
0
LINE
8
BLACK
6
CONTINUOUS
10
4.01575
20
-3.89567
11
4.01603
21
-3.89579
0
LINE
8
BLACK
6
CONTINUOUS
10
4.01603
20
-3.89579
11
4.02227
21
-3.89524
0
LINE
8
BLACK
6
CONTINUOUS
10
4.02227
20
-3.89524
11
4.02859
21
-3.89355
0
LINE
8
BLACK
6
CONTINUOUS
10
4.02859
20
-3.89355
11
4.03452
21
-3.89078
0
LINE
8
BLACK
6
CONTINUOUS
10
4.03452
20
-3.89078
11
4.03988
21
-3.88703
0
LINE
8
BLACK
6
CONTINUOUS
10
4.03988
20
-3.88703
11
4.04451
21
-3.8824
0
LINE
8
BLACK
6
CONTINUOUS
10
4.04451
20
-3.8824
11
4.04826
21
-3.87704
0
LINE
8
BLACK
6
CONTINUOUS
10
4.04826
20
-3.87704
11
4.05103
21
-3.87111
0
LINE
8
BLACK
6
CONTINUOUS
10
4.05103
20
-3.87111
11
4.05272
21
-3.86479
0
LINE
8
BLACK
6
CONTINUOUS
10
4.05272
20
-3.86479
11
4.05327
21
-3.85855
0
LINE
8
BLACK
6
CONTINUOUS
10
4.05327
20
-3.85855
11
4.05315
21
-3.85827
0
LINE
8
BLACK
6
CONTINUOUS
10
4.05315
20
-3.85827
11
4.05315
21
-2.75591
0
LINE
8
BLACK
6
CONTINUOUS
10
4.05315
20
-2.75591
11
4.05327
21
-2.75562
0
LINE
8
BLACK
6
CONTINUOUS
10
4.05327
20
-2.75562
11
4.05272
21
-2.74939
0
LINE
8
BLACK
6
CONTINUOUS
10
4.05272
20
-2.74939
11
4.05103
21
-2.74306
0
LINE
8
BLACK
6
CONTINUOUS
10
4.05103
20
-2.74306
11
4.04826
21
-2.73713
0
LINE
8
BLACK
6
CONTINUOUS
10
4.04826
20
-2.73713
11
4.04451
21
-2.73177
0
LINE
8
BLACK
6
CONTINUOUS
10
4.04451
20
-2.73177
11
4.03988
21
-2.72714
0
LINE
8
BLACK
6
CONTINUOUS
10
4.03988
20
-2.72714
11
4.03452
21
-2.72339
0
LINE
8
BLACK
6
CONTINUOUS
10
4.03452
20
-2.72339
11
4.02859
21
-2.72063
0
LINE
8
BLACK
6
CONTINUOUS
10
4.02859
20
-2.72063
11
4.02227
21
-2.71893
0
LINE
8
BLACK
6
CONTINUOUS
10
4.02227
20
-2.71893
11
4.01603
21
-2.71839
0
LINE
8
BLACK
6
CONTINUOUS
10
4.01603
20
-2.71839
11
4.01575
21
-2.7185
0
LINE
8
BLACK
6
CONTINUOUS
10
4.01575
20
-2.7185
11
3.14961
21
-2.7185
0
LINE
8
BLACK
6
CONTINUOUS
10
3.14961
20
-2.7185
11
3.14932
21
-2.71839
  0
ENDSEC
  0
EOF
