M48
; DRILL file {KiCad (6.0.8)} date Tue Mar 28 19:59:19 2023
; FORMAT={-:-/ absolute / inch / decimal}
; #@! TF.CreationDate,2023-03-28T19:59:19+01:00
; #@! TF.GenerationSoftware,Kicad,Pcbnew,(6.0.8)
; #@! TF.FileFunction,Plated,1,4,PTH
FMAT,2
INCH
; #@! TA.AperFunction,Plated,PTH,ViaDrill
T1C0.0157
; #@! TA.AperFunction,Plated,PTH,ComponentDrill
T2C0.0394
%
G90
G05
T1
X3.1491Y-2.7869
X3.1594Y-3.1004
X3.189Y-3.248
X3.189Y-3.2874
X3.2382Y-3.1102
X3.2382Y-3.1693
X3.2677Y-2.9764
X3.4252Y-2.8445
X3.4252Y-3.002
X3.435Y-3.1004
X3.4608Y-3.7265
X3.4646Y-3.4941
X3.4646Y-3.5925
X3.4646Y-3.6772
X3.4724Y-3.2283
X3.4724Y-3.2874
X3.5138Y-3.5925
X3.5157Y-3.1772
X3.5276Y-3.3071
X3.563Y-3.2598
X3.5925Y-2.9626
X3.6024Y-3.002
X3.622Y-3.5916
X3.6365Y-3.6765
X3.6614Y-3.061
X3.6646Y-3.5925
X3.6652Y-3.7265
X3.7106Y-3.5925
X3.7244Y-3.2835
X3.7303Y-3.1594
X3.8189Y-3.0413
X3.8189Y-3.1004
X3.8189Y-3.1594
X3.8189Y-3.2776
X3.8439Y-3.6765
X3.862Y-3.7265
X3.8646Y-3.5925
X3.878Y-3.061
X3.878Y-3.4843
X3.9166Y-3.5925
X3.9272Y-3.435
X3.9961Y-3.4646
X4.0064Y-3.6225
X4.0079Y-3.6772
X4.0354Y-2.8346
X4.0354Y-3.0807
X4.0354Y-3.1791
X4.0354Y-3.3169
T2
X3.1852Y-3.6265
X3.1852Y-3.7265
X3.1852Y-3.8265
X3.2852Y-3.6265
X3.2852Y-3.7265
X3.2852Y-3.8265
X3.3852Y-3.6265
X3.3852Y-3.7265
X3.3852Y-3.8265
X3.4852Y-3.8265
X3.5852Y-3.8265
X3.6852Y-3.8265
X3.7852Y-3.8265
X3.8852Y-3.8265
X3.9852Y-3.8265
T0
M30
