%TF.GenerationSoftware,KiCad,Pcbnew,(6.0.8)*%
%TF.CreationDate,2023-03-27T21:19:56+01:00*%
%TF.ProjectId,m-link-plus,6d2d6c69-6e6b-42d7-906c-75732e6b6963,rev?*%
%TF.SameCoordinates,Original*%
%TF.FileFunction,Copper,L1,Top*%
%TF.FilePolarity,Positive*%
%FSLAX46Y46*%
G04 Gerber Fmt 4.6, Leading zero omitted, Abs format (unit mm)*
G04 Created by KiCad (PCBNEW (6.0.8)) date 2023-03-27 21:19:56*
%MOMM*%
%LPD*%
G01*
G04 APERTURE LIST*
G04 Aperture macros list*
%AMRoundRect*
0 Rectangle with rounded corners*
0 $1 Rounding radius*
0 $2 $3 $4 $5 $6 $7 $8 $9 X,Y pos of 4 corners*
0 Add a 4 corners polygon primitive as box body*
4,1,4,$2,$3,$4,$5,$6,$7,$8,$9,$2,$3,0*
0 Add four circle primitives for the rounded corners*
1,1,$1+$1,$2,$3*
1,1,$1+$1,$4,$5*
1,1,$1+$1,$6,$7*
1,1,$1+$1,$8,$9*
0 Add four rect primitives between the rounded corners*
20,1,$1+$1,$2,$3,$4,$5,0*
20,1,$1+$1,$4,$5,$6,$7,0*
20,1,$1+$1,$6,$7,$8,$9,0*
20,1,$1+$1,$8,$9,$2,$3,0*%
G04 Aperture macros list end*
%TA.AperFunction,SMDPad,CuDef*%
%ADD10RoundRect,0.225000X0.250000X-0.225000X0.250000X0.225000X-0.250000X0.225000X-0.250000X-0.225000X0*%
%TD*%
%TA.AperFunction,SMDPad,CuDef*%
%ADD11RoundRect,0.200000X0.275000X-0.200000X0.275000X0.200000X-0.275000X0.200000X-0.275000X-0.200000X0*%
%TD*%
%TA.AperFunction,SMDPad,CuDef*%
%ADD12R,0.250000X0.500000*%
%TD*%
%TA.AperFunction,SMDPad,CuDef*%
%ADD13R,1.600000X0.900000*%
%TD*%
%TA.AperFunction,SMDPad,CuDef*%
%ADD14R,1.500000X2.000000*%
%TD*%
%TA.AperFunction,SMDPad,CuDef*%
%ADD15R,3.800000X2.000000*%
%TD*%
%TA.AperFunction,SMDPad,CuDef*%
%ADD16RoundRect,0.218750X-0.256250X0.218750X-0.256250X-0.218750X0.256250X-0.218750X0.256250X0.218750X0*%
%TD*%
%TA.AperFunction,SMDPad,CuDef*%
%ADD17R,1.050000X0.650000*%
%TD*%
%TA.AperFunction,SMDPad,CuDef*%
%ADD18RoundRect,0.225000X-0.225000X-0.250000X0.225000X-0.250000X0.225000X0.250000X-0.225000X0.250000X0*%
%TD*%
%TA.AperFunction,SMDPad,CuDef*%
%ADD19RoundRect,0.225000X-0.250000X0.225000X-0.250000X-0.225000X0.250000X-0.225000X0.250000X0.225000X0*%
%TD*%
%TA.AperFunction,ComponentPad*%
%ADD20O,1.700000X1.700000*%
%TD*%
%TA.AperFunction,ComponentPad*%
%ADD21R,1.700000X1.700000*%
%TD*%
%TA.AperFunction,SMDPad,CuDef*%
%ADD22RoundRect,0.225000X0.225000X0.250000X-0.225000X0.250000X-0.225000X-0.250000X0.225000X-0.250000X0*%
%TD*%
%TA.AperFunction,SMDPad,CuDef*%
%ADD23RoundRect,0.100000X-0.637500X-0.100000X0.637500X-0.100000X0.637500X0.100000X-0.637500X0.100000X0*%
%TD*%
%TA.AperFunction,SMDPad,CuDef*%
%ADD24RoundRect,0.200000X-0.275000X0.200000X-0.275000X-0.200000X0.275000X-0.200000X0.275000X0.200000X0*%
%TD*%
%TA.AperFunction,SMDPad,CuDef*%
%ADD25RoundRect,0.150000X0.625000X-0.150000X0.625000X0.150000X-0.625000X0.150000X-0.625000X-0.150000X0*%
%TD*%
%TA.AperFunction,SMDPad,CuDef*%
%ADD26RoundRect,0.250000X0.650000X-0.350000X0.650000X0.350000X-0.650000X0.350000X-0.650000X-0.350000X0*%
%TD*%
%TA.AperFunction,SMDPad,CuDef*%
%ADD27O,1.500000X0.800000*%
%TD*%
%TA.AperFunction,ViaPad*%
%ADD28C,0.800000*%
%TD*%
%TA.AperFunction,Conductor*%
%ADD29C,0.800000*%
%TD*%
%TA.AperFunction,Conductor*%
%ADD30C,0.250000*%
%TD*%
%TA.AperFunction,Conductor*%
%ADD31C,0.400000*%
%TD*%
G04 APERTURE END LIST*
D10*
%TO.P,C10,1*%
%TO.N,+3V3*%
X92250000Y-77775000D03*
%TO.P,C10,2*%
%TO.N,GND*%
X92250000Y-76225000D03*
%TD*%
D11*
%TO.P,R1,1*%
%TO.N,+5V*%
X101500000Y-83325000D03*
%TO.P,R1,2*%
%TO.N,/ADC*%
X101500000Y-81675000D03*
%TD*%
D12*
%TO.P,U3,1,VM*%
%TO.N,+5V*%
X94125000Y-94334000D03*
%TO.P,U3,2,OUT1*%
%TO.N,/M2A*%
X94625000Y-94334000D03*
%TO.P,U3,3,OUT2*%
%TO.N,/M2B*%
X95125000Y-94334000D03*
%TO.P,U3,4,GND*%
%TO.N,GND*%
X95625000Y-94334000D03*
%TO.P,U3,5,IN2*%
%TO.N,/CH7*%
X95625000Y-92434000D03*
%TO.P,U3,6,IN1*%
%TO.N,/CH6*%
X95125000Y-92434000D03*
%TO.P,U3,7,~{SLEEP}*%
%TO.N,/SLEEP*%
X94625000Y-92434000D03*
%TO.P,U3,8,VCC*%
%TO.N,+3V3*%
X94125000Y-92434000D03*
D13*
%TO.P,U3,9,GND*%
%TO.N,GND*%
X94875000Y-93384000D03*
%TD*%
D14*
%TO.P,U1,1,GND*%
%TO.N,GND*%
X94700000Y-81900000D03*
%TO.P,U1,2,VO*%
%TO.N,+3V3*%
X97000000Y-81900000D03*
D15*
X97000000Y-75600000D03*
D14*
%TO.P,U1,3,VI*%
%TO.N,+5V*%
X99300000Y-81900000D03*
%TD*%
D16*
%TO.P,D1,1,K*%
%TO.N,GND*%
X101500000Y-71212500D03*
%TO.P,D1,2,A*%
%TO.N,Net-(D1-Pad2)*%
X101500000Y-72787500D03*
%TD*%
D17*
%TO.P,SW1,1,1*%
%TO.N,GND*%
X84850000Y-71000000D03*
X89000000Y-71000000D03*
%TO.P,SW1,2,2*%
%TO.N,/DTR*%
X89000000Y-73150000D03*
X84850000Y-73150000D03*
%TD*%
D12*
%TO.P,U6,1,VM*%
%TO.N,+5V*%
X99205000Y-94334000D03*
%TO.P,U6,2,OUT1*%
%TO.N,/M3A*%
X99705000Y-94334000D03*
%TO.P,U6,3,OUT2*%
%TO.N,/M3B*%
X100205000Y-94334000D03*
%TO.P,U6,4,GND*%
%TO.N,GND*%
X100705000Y-94334000D03*
%TO.P,U6,5,IN2*%
%TO.N,/CH9*%
X100705000Y-92434000D03*
%TO.P,U6,6,IN1*%
%TO.N,/CH8*%
X100205000Y-92434000D03*
%TO.P,U6,7,~{SLEEP}*%
%TO.N,/SLEEP*%
X99705000Y-92434000D03*
%TO.P,U6,8,VCC*%
%TO.N,+3V3*%
X99205000Y-92434000D03*
D13*
%TO.P,U6,9,GND*%
%TO.N,GND*%
X99955000Y-93384000D03*
%TD*%
D18*
%TO.P,C1,1*%
%TO.N,+5V*%
X98100000Y-86250000D03*
%TO.P,C1,2*%
%TO.N,GND*%
X99650000Y-86250000D03*
%TD*%
%TO.P,C3,1*%
%TO.N,+5V*%
X98100000Y-84250000D03*
%TO.P,C3,2*%
%TO.N,GND*%
X99650000Y-84250000D03*
%TD*%
D19*
%TO.P,C7,1*%
%TO.N,+3V3*%
X101750000Y-89200000D03*
%TO.P,C7,2*%
%TO.N,GND*%
X101750000Y-90750000D03*
%TD*%
D12*
%TO.P,U2,1,VM*%
%TO.N,+5V*%
X89045000Y-94334000D03*
%TO.P,U2,2,OUT1*%
%TO.N,/M1A*%
X89545000Y-94334000D03*
%TO.P,U2,3,OUT2*%
%TO.N,/M1B*%
X90045000Y-94334000D03*
%TO.P,U2,4,GND*%
%TO.N,GND*%
X90545000Y-94334000D03*
%TO.P,U2,5,IN2*%
%TO.N,/CH5*%
X90545000Y-92434000D03*
%TO.P,U2,6,IN1*%
%TO.N,/CH4*%
X90045000Y-92434000D03*
%TO.P,U2,7,~{SLEEP}*%
%TO.N,/SLEEP*%
X89545000Y-92434000D03*
%TO.P,U2,8,VCC*%
%TO.N,+3V3*%
X89045000Y-92434000D03*
D13*
%TO.P,U2,9,GND*%
%TO.N,GND*%
X89795000Y-93384000D03*
%TD*%
D20*
%TO.P,J3,1,Pin_1*%
%TO.N,/CH1*%
X80905000Y-92114000D03*
%TO.P,J3,2,Pin_2*%
%TO.N,+5V*%
X80905000Y-94654000D03*
D21*
%TO.P,J3,3,Pin_3*%
%TO.N,GND*%
X80905000Y-97194000D03*
D20*
%TO.P,J3,4,Pin_4*%
%TO.N,/CH2*%
X83445000Y-92114000D03*
%TO.P,J3,5,Pin_5*%
%TO.N,+5V*%
X83445000Y-94654000D03*
D21*
%TO.P,J3,6,Pin_6*%
%TO.N,GND*%
X83445000Y-97194000D03*
D20*
%TO.P,J3,7,Pin_7*%
%TO.N,/CH3*%
X85985000Y-92114000D03*
%TO.P,J3,8,Pin_8*%
%TO.N,+5V*%
X85985000Y-94654000D03*
D21*
%TO.P,J3,9,Pin_9*%
%TO.N,GND*%
X85985000Y-97194000D03*
%TO.P,J3,10,Pin_10*%
%TO.N,/M1A*%
X88525000Y-97194000D03*
%TO.P,J3,11,Pin_11*%
%TO.N,/M1B*%
X91065000Y-97194000D03*
%TO.P,J3,12,Pin_12*%
%TO.N,/M2A*%
X93605000Y-97194000D03*
%TO.P,J3,13,Pin_13*%
%TO.N,/M2B*%
X96145000Y-97194000D03*
%TO.P,J3,14,Pin_14*%
%TO.N,/M3A*%
X98685000Y-97194000D03*
%TO.P,J3,15,Pin_15*%
%TO.N,/M3B*%
X101225000Y-97194000D03*
%TD*%
D22*
%TO.P,C4,1*%
%TO.N,+3V3*%
X96150000Y-86250000D03*
%TO.P,C4,2*%
%TO.N,GND*%
X94600000Y-86250000D03*
%TD*%
D23*
%TO.P,U5,1,A0*%
%TO.N,GND*%
X86387500Y-80025000D03*
%TO.P,U5,2,A1*%
X86387500Y-80675000D03*
%TO.P,U5,3,A2*%
X86387500Y-81325000D03*
%TO.P,U5,4,A3*%
X86387500Y-81975000D03*
%TO.P,U5,5,A4*%
X86387500Y-82625000D03*
%TO.P,U5,6,LED0*%
%TO.N,/SLEEP*%
X86387500Y-83275000D03*
%TO.P,U5,7,LED1*%
%TO.N,unconnected-(U5-Pad7)*%
X86387500Y-83925000D03*
%TO.P,U5,8,LED2*%
%TO.N,/FEEDBACK*%
X86387500Y-84575000D03*
%TO.P,U5,9,LED3*%
%TO.N,/CH1*%
X86387500Y-85225000D03*
%TO.P,U5,10,LED4*%
%TO.N,/CH2*%
X86387500Y-85875000D03*
%TO.P,U5,11,LED5*%
%TO.N,/CH3*%
X86387500Y-86525000D03*
%TO.P,U5,12,LED6*%
%TO.N,/CH5*%
X86387500Y-87175000D03*
%TO.P,U5,13,LED7*%
%TO.N,/CH4*%
X86387500Y-87825000D03*
%TO.P,U5,14,VSS*%
%TO.N,GND*%
X86387500Y-88475000D03*
%TO.P,U5,15,LED8*%
%TO.N,/CH6*%
X92112500Y-88475000D03*
%TO.P,U5,16,LED9*%
%TO.N,/CH7*%
X92112500Y-87825000D03*
%TO.P,U5,17,LED10*%
%TO.N,/CH8*%
X92112500Y-87175000D03*
%TO.P,U5,18,LED11*%
%TO.N,/CH9*%
X92112500Y-86525000D03*
%TO.P,U5,19,LED12*%
%TO.N,unconnected-(U5-Pad19)*%
X92112500Y-85875000D03*
%TO.P,U5,20,LED13*%
%TO.N,unconnected-(U5-Pad20)*%
X92112500Y-85225000D03*
%TO.P,U5,21,LED14*%
%TO.N,unconnected-(U5-Pad21)*%
X92112500Y-84575000D03*
%TO.P,U5,22,LED15*%
%TO.N,unconnected-(U5-Pad22)*%
X92112500Y-83925000D03*
%TO.P,U5,23,~{OE}*%
%TO.N,/ENABLE*%
X92112500Y-83275000D03*
%TO.P,U5,24,A5*%
%TO.N,GND*%
X92112500Y-82625000D03*
%TO.P,U5,25,EXTCLK*%
X92112500Y-81975000D03*
%TO.P,U5,26,SCL*%
%TO.N,/SCL*%
X92112500Y-81325000D03*
%TO.P,U5,27,SDA*%
%TO.N,/SDA*%
X92112500Y-80675000D03*
%TO.P,U5,28,VDD*%
%TO.N,+3V3*%
X92112500Y-80025000D03*
%TD*%
D11*
%TO.P,R10,1*%
%TO.N,/LED1*%
X101500000Y-76325000D03*
%TO.P,R10,2*%
%TO.N,Net-(D1-Pad2)*%
X101500000Y-74675000D03*
%TD*%
D24*
%TO.P,R4,1*%
%TO.N,+3V3*%
X84250000Y-76175000D03*
%TO.P,R4,2*%
%TO.N,/RESET*%
X84250000Y-77825000D03*
%TD*%
D11*
%TO.P,R3,1*%
%TO.N,+3V3*%
X90250000Y-77825000D03*
%TO.P,R3,2*%
%TO.N,/EN*%
X90250000Y-76175000D03*
%TD*%
D19*
%TO.P,C5,1*%
%TO.N,+3V3*%
X97000000Y-90700000D03*
%TO.P,C5,2*%
%TO.N,GND*%
X97000000Y-92250000D03*
%TD*%
D25*
%TO.P,J5,1,Pin_1*%
%TO.N,/SCL*%
X82825000Y-85500000D03*
%TO.P,J5,2,Pin_2*%
%TO.N,/SDA*%
X82825000Y-84500000D03*
%TO.P,J5,3,Pin_3*%
%TO.N,+3V3*%
X82825000Y-83500000D03*
%TO.P,J5,4,Pin_4*%
%TO.N,GND*%
X82825000Y-82500000D03*
D26*
%TO.P,J5,MP*%
%TO.N,N/C*%
X80300000Y-86800000D03*
X80300000Y-81200000D03*
%TD*%
D22*
%TO.P,C2,1*%
%TO.N,+3V3*%
X96150000Y-84250000D03*
%TO.P,C2,2*%
%TO.N,GND*%
X94600000Y-84250000D03*
%TD*%
D19*
%TO.P,C6,1*%
%TO.N,+5V*%
X92000000Y-90725000D03*
%TO.P,C6,2*%
%TO.N,GND*%
X92000000Y-92275000D03*
%TD*%
D11*
%TO.P,R11,1*%
%TO.N,GND*%
X101500000Y-86825000D03*
%TO.P,R11,2*%
%TO.N,/SLEEP*%
X101500000Y-85175000D03*
%TD*%
%TO.P,R2,1*%
%TO.N,/ADC*%
X101500000Y-79825000D03*
%TO.P,R2,2*%
%TO.N,GND*%
X101500000Y-78175000D03*
%TD*%
%TO.P,R6,1*%
%TO.N,/MTDI*%
X86250000Y-77825000D03*
%TO.P,R6,2*%
%TO.N,GND*%
X86250000Y-76175000D03*
%TD*%
%TO.P,R5,1*%
%TO.N,+3V3*%
X88250000Y-77825000D03*
%TO.P,R5,2*%
%TO.N,/DTR*%
X88250000Y-76175000D03*
%TD*%
D27*
%TO.P,J4,1,Pin_1*%
%TO.N,+3V3*%
X80150000Y-76905000D03*
%TO.P,J4,2,Pin_2*%
%TO.N,/DTR*%
X80150000Y-75635000D03*
%TO.P,J4,3,Pin_3*%
%TO.N,unconnected-(J4-Pad3)*%
X80150000Y-74365000D03*
%TO.P,J4,4,Pin_4*%
%TO.N,GND*%
X80150000Y-73095000D03*
%TD*%
D28*
%TO.N,GND*%
X94750000Y-80250000D03*
X87000000Y-76250000D03*
X91500000Y-76250000D03*
X99750000Y-87250000D03*
X88200000Y-83500000D03*
X79987701Y-70787701D03*
X81000000Y-82500000D03*
X88000000Y-88750000D03*
X97634000Y-93384000D03*
X92366000Y-93384000D03*
X88000000Y-93400000D03*
X88200000Y-82000000D03*
X101800000Y-93400000D03*
X102500000Y-72000000D03*
X94600000Y-83400000D03*
X101762299Y-92012299D03*
X102500000Y-78250000D03*
X87000000Y-72250000D03*
%TO.N,/DTR*%
X83000000Y-75600000D03*
%TO.N,+5V*%
X98500000Y-88500000D03*
X98096000Y-94654000D03*
X87904000Y-94654000D03*
X93096000Y-94654000D03*
X92000000Y-91225500D03*
%TO.N,/RESET*%
X82250000Y-79000000D03*
%TO.N,/ADC*%
X102500000Y-80750000D03*
%TO.N,/EN*%
X91250000Y-75250000D03*
%TO.N,/MTDI*%
X82250000Y-80500000D03*
%TO.N,/LED1*%
X98500000Y-77750000D03*
%TO.N,+3V3*%
X97000000Y-78750000D03*
X88000000Y-91250000D03*
X97000000Y-80250000D03*
X97000000Y-77250000D03*
X98160000Y-91250000D03*
X80250000Y-78750000D03*
X101750000Y-88000000D03*
X81000000Y-83500000D03*
X97000000Y-83250000D03*
X93080000Y-91250000D03*
X93000000Y-77750000D03*
%TO.N,/SCL*%
X89300000Y-80700000D03*
%TO.N,/SDA*%
X87250000Y-78750000D03*
%TO.N,/SLEEP*%
X99480500Y-91250000D03*
X94250000Y-91250000D03*
X89250000Y-91250000D03*
X102500000Y-84250000D03*
%TO.N,/ENABLE*%
X90500000Y-82800000D03*
%TO.N,/FEEDBACK*%
X89600000Y-84000000D03*
%TD*%
D29*
%TO.N,+5V*%
X98100000Y-84125000D02*
X99300000Y-82925000D01*
X99300000Y-82925000D02*
X99300000Y-81900000D01*
X98100000Y-84250000D02*
X98100000Y-84125000D01*
D30*
%TO.N,/CH1*%
X84775000Y-85225000D02*
X86387500Y-85225000D01*
D31*
%TO.N,GND*%
X101762299Y-92012299D02*
X101762299Y-93362299D01*
D30*
X101500000Y-78175000D02*
X102425000Y-78175000D01*
D29*
X95716000Y-93384000D02*
X96884000Y-93384000D01*
D30*
X80150000Y-73095000D02*
X80150000Y-70950000D01*
D29*
X94600000Y-82000000D02*
X94700000Y-81900000D01*
D30*
X93250000Y-82000000D02*
X92137500Y-82000000D01*
X100705000Y-93845000D02*
X101116000Y-93434000D01*
D31*
X92250000Y-76225000D02*
X91525000Y-76225000D01*
D29*
X94700000Y-81900000D02*
X94700000Y-80300000D01*
D30*
X86925000Y-76175000D02*
X87000000Y-76250000D01*
X86387500Y-80025000D02*
X86387500Y-82625000D01*
X101500000Y-86825000D02*
X99975000Y-86825000D01*
D29*
X101132000Y-93400000D02*
X101800000Y-93400000D01*
X94875000Y-93384000D02*
X95716000Y-93384000D01*
D31*
X97000000Y-93268000D02*
X96884000Y-93384000D01*
D30*
X92112500Y-81975000D02*
X86387500Y-81975000D01*
X80200000Y-71000000D02*
X79987701Y-70787701D01*
D31*
X101750000Y-92000000D02*
X101762299Y-92012299D01*
D29*
X89795000Y-93384000D02*
X90866000Y-93384000D01*
D30*
X87000000Y-71000000D02*
X84850000Y-71000000D01*
X94600000Y-82000000D02*
X93250000Y-82000000D01*
D31*
X101750000Y-90750000D02*
X101750000Y-92000000D01*
D29*
X99955000Y-93384000D02*
X101116000Y-93384000D01*
D31*
X97000000Y-92250000D02*
X97000000Y-93268000D01*
D30*
X89000000Y-71000000D02*
X87000000Y-71000000D01*
D31*
X91525000Y-76225000D02*
X91500000Y-76250000D01*
D30*
X102500000Y-71500000D02*
X102212500Y-71212500D01*
D29*
X94600000Y-84250000D02*
X94600000Y-82000000D01*
X99650000Y-87150000D02*
X99750000Y-87250000D01*
D31*
X92000000Y-93268000D02*
X91884000Y-93384000D01*
D29*
X96884000Y-93384000D02*
X99955000Y-93384000D01*
D30*
X100705000Y-94334000D02*
X100705000Y-93845000D01*
D31*
X87725000Y-88475000D02*
X88000000Y-88750000D01*
D30*
X95625000Y-94334000D02*
X95625000Y-93475000D01*
X90545000Y-93705000D02*
X90866000Y-93384000D01*
X102500000Y-72000000D02*
X102500000Y-71500000D01*
D29*
X99650000Y-84250000D02*
X99650000Y-86250000D01*
D31*
X101762299Y-93362299D02*
X101800000Y-93400000D01*
D29*
X94600000Y-86250000D02*
X94600000Y-84250000D01*
D30*
X90545000Y-94334000D02*
X90545000Y-93705000D01*
X86250000Y-76175000D02*
X86925000Y-76175000D01*
X95625000Y-93475000D02*
X95716000Y-93384000D01*
X87000000Y-72250000D02*
X87000000Y-71000000D01*
X80150000Y-70950000D02*
X79987701Y-70787701D01*
D31*
X92000000Y-92275000D02*
X92000000Y-93268000D01*
D30*
X101116000Y-93434000D02*
X101116000Y-93384000D01*
D31*
X86387500Y-88475000D02*
X87725000Y-88475000D01*
D30*
X102425000Y-78175000D02*
X102500000Y-78250000D01*
X84850000Y-71000000D02*
X80200000Y-71000000D01*
D29*
X91884000Y-93384000D02*
X94875000Y-93384000D01*
D30*
X82825000Y-82500000D02*
X81000000Y-82500000D01*
D29*
X99650000Y-86250000D02*
X99650000Y-87150000D01*
D30*
X99975000Y-86825000D02*
X99650000Y-87150000D01*
D29*
X101116000Y-93384000D02*
X101132000Y-93400000D01*
X88016000Y-93384000D02*
X88000000Y-93400000D01*
D30*
X92112500Y-82625000D02*
X92112500Y-81975000D01*
X102212500Y-71212500D02*
X101500000Y-71212500D01*
D29*
X94700000Y-80300000D02*
X94750000Y-80250000D01*
X89795000Y-93384000D02*
X88016000Y-93384000D01*
D30*
X92137500Y-82000000D02*
X92112500Y-81975000D01*
D29*
X90866000Y-93384000D02*
X91884000Y-93384000D01*
D30*
%TO.N,/DTR*%
X80150000Y-75635000D02*
X82865000Y-75635000D01*
X84850000Y-73150000D02*
X89000000Y-73150000D01*
X88250000Y-75000000D02*
X88250000Y-76175000D01*
X83600000Y-73150000D02*
X84850000Y-73150000D01*
X83000000Y-73750000D02*
X83600000Y-73150000D01*
X82865000Y-75635000D02*
X83000000Y-75500000D01*
X89000000Y-73150000D02*
X89000000Y-74250000D01*
X83000000Y-75600000D02*
X83000000Y-73750000D01*
X89000000Y-74250000D02*
X88250000Y-75000000D01*
%TO.N,+5V*%
X88224000Y-94334000D02*
X87904000Y-94654000D01*
X101500000Y-83325000D02*
X101075000Y-83325000D01*
X89045000Y-94334000D02*
X88224000Y-94334000D01*
D31*
X92000000Y-90725000D02*
X92000000Y-91225500D01*
D30*
X94125000Y-94334000D02*
X93416000Y-94334000D01*
D29*
X98100000Y-88100000D02*
X98500000Y-88500000D01*
X98100000Y-86250000D02*
X98100000Y-88100000D01*
D30*
X99205000Y-94334000D02*
X98416000Y-94334000D01*
X98416000Y-94334000D02*
X98096000Y-94654000D01*
X100250000Y-82500000D02*
X99900000Y-82500000D01*
X99900000Y-82500000D02*
X99300000Y-81900000D01*
X93416000Y-94334000D02*
X93096000Y-94654000D01*
D29*
X98100000Y-86250000D02*
X98100000Y-84250000D01*
D30*
X101075000Y-83325000D02*
X100250000Y-82500000D01*
%TO.N,/RESET*%
X82250000Y-79000000D02*
X83075000Y-79000000D01*
X83075000Y-79000000D02*
X84250000Y-77825000D01*
%TO.N,/ADC*%
X101500000Y-80750000D02*
X102500000Y-80750000D01*
X101500000Y-81675000D02*
X101500000Y-80750000D01*
X101500000Y-80750000D02*
X101500000Y-79825000D01*
%TO.N,/EN*%
X90250000Y-76175000D02*
X90250000Y-75500000D01*
X90250000Y-75500000D02*
X90500000Y-75250000D01*
X90500000Y-75250000D02*
X91250000Y-75250000D01*
%TO.N,/CH1*%
X80905000Y-89095000D02*
X84775000Y-85225000D01*
X80905000Y-92114000D02*
X80905000Y-89095000D01*
%TO.N,/CH2*%
X83445000Y-92114000D02*
X83445000Y-87555000D01*
X83445000Y-87555000D02*
X85125000Y-85875000D01*
X85125000Y-85875000D02*
X86387500Y-85875000D01*
%TO.N,/CH3*%
X86387500Y-86525000D02*
X85475000Y-86525000D01*
X85000000Y-91129000D02*
X85985000Y-92114000D01*
X85000000Y-87000000D02*
X85000000Y-91129000D01*
X85475000Y-86525000D02*
X85000000Y-87000000D01*
%TO.N,/CH5*%
X88161396Y-87175000D02*
X86387500Y-87175000D01*
X90545000Y-92434000D02*
X90545000Y-89558604D01*
X90545000Y-89558604D02*
X88161396Y-87175000D01*
%TO.N,/CH4*%
X90045000Y-89695000D02*
X88175000Y-87825000D01*
X88175000Y-87825000D02*
X86387500Y-87825000D01*
X90045000Y-92434000D02*
X90045000Y-89695000D01*
%TO.N,Net-(D1-Pad2)*%
X101500000Y-74675000D02*
X101500000Y-72787500D01*
%TO.N,/CH6*%
X95125000Y-92434000D02*
X95125000Y-90625000D01*
X95125000Y-90625000D02*
X92975000Y-88475000D01*
X92975000Y-88475000D02*
X92112500Y-88475000D01*
%TO.N,/MTDI*%
X86250000Y-77825000D02*
X85902208Y-77825000D01*
X85902208Y-77825000D02*
X83227208Y-80500000D01*
X83227208Y-80500000D02*
X82250000Y-80500000D01*
%TO.N,/LED1*%
X101500000Y-76325000D02*
X100075000Y-77750000D01*
X100075000Y-77750000D02*
X98500000Y-77750000D01*
%TO.N,+3V3*%
X89045000Y-92434000D02*
X89045000Y-92295000D01*
X92250000Y-77775000D02*
X90300000Y-77775000D01*
X90250000Y-77825000D02*
X88250000Y-77825000D01*
D29*
X97000000Y-75600000D02*
X97000000Y-77750000D01*
D30*
X87825000Y-77825000D02*
X87000000Y-77000000D01*
D29*
X96150000Y-84250000D02*
X96150000Y-84100000D01*
X96150000Y-84100000D02*
X97000000Y-83250000D01*
D30*
X80150000Y-76905000D02*
X80150000Y-78650000D01*
D29*
X97000000Y-83250000D02*
X97000000Y-81900000D01*
X97000000Y-77750000D02*
X97000000Y-81900000D01*
D30*
X82825000Y-83500000D02*
X81000000Y-83500000D01*
X89045000Y-92295000D02*
X88000000Y-91250000D01*
X84675000Y-76175000D02*
X84250000Y-76175000D01*
X99205000Y-92295000D02*
X98160000Y-91250000D01*
D31*
X97000000Y-90700000D02*
X97610000Y-90700000D01*
X101750000Y-89200000D02*
X101750000Y-88000000D01*
X96975000Y-77775000D02*
X97000000Y-77750000D01*
D30*
X85500000Y-77000000D02*
X87000000Y-77000000D01*
X85500000Y-77000000D02*
X84675000Y-76175000D01*
D29*
X96150000Y-86250000D02*
X96150000Y-84250000D01*
D30*
X99205000Y-92434000D02*
X99205000Y-92295000D01*
X94125000Y-92295000D02*
X93080000Y-91250000D01*
D31*
X92250000Y-77775000D02*
X96975000Y-77775000D01*
D30*
X88250000Y-77825000D02*
X87825000Y-77825000D01*
D31*
X92250000Y-79887500D02*
X92112500Y-80025000D01*
D30*
X90300000Y-77775000D02*
X90250000Y-77825000D01*
X94125000Y-92434000D02*
X94125000Y-92295000D01*
X92250000Y-77775000D02*
X92975000Y-77775000D01*
X92975000Y-77775000D02*
X93000000Y-77750000D01*
X80150000Y-78650000D02*
X80250000Y-78750000D01*
D31*
X92250000Y-77775000D02*
X92250000Y-79887500D01*
X97610000Y-90700000D02*
X98160000Y-91250000D01*
D30*
%TO.N,/SCL*%
X83500000Y-85500000D02*
X85200000Y-83800000D01*
X89925000Y-81325000D02*
X89300000Y-80700000D01*
X89250000Y-80700000D02*
X88025000Y-79475000D01*
X82825000Y-85500000D02*
X83500000Y-85500000D01*
X85200000Y-79800000D02*
X85200000Y-83800000D01*
X85525000Y-79475000D02*
X85250000Y-79750000D01*
X85250000Y-79750000D02*
X85200000Y-79800000D01*
X88025000Y-79475000D02*
X85525000Y-79475000D01*
X89300000Y-80700000D02*
X89250000Y-80700000D01*
X92112500Y-81325000D02*
X89925000Y-81325000D01*
%TO.N,/SDA*%
X88500000Y-78750000D02*
X87250000Y-78750000D01*
X90425000Y-80675000D02*
X88500000Y-78750000D01*
X84750000Y-79613604D02*
X84750000Y-83613604D01*
X83863604Y-84500000D02*
X82825000Y-84500000D01*
X84750000Y-83613604D02*
X83863604Y-84500000D01*
X85413604Y-78950000D02*
X84750000Y-79613604D01*
X85613604Y-78750000D02*
X85413604Y-78950000D01*
X92112500Y-80675000D02*
X90425000Y-80675000D01*
X87250000Y-78750000D02*
X85613604Y-78750000D01*
%TO.N,/SLEEP*%
X89424695Y-82750000D02*
X90400000Y-83725305D01*
X87225000Y-83275000D02*
X87750000Y-82750000D01*
X90400000Y-88400000D02*
X91500000Y-89500000D01*
X99705000Y-91474500D02*
X99480500Y-91250000D01*
X101500000Y-85175000D02*
X102325000Y-85175000D01*
X99705000Y-92434000D02*
X99705000Y-91474500D01*
X92500000Y-89500000D02*
X94250000Y-91250000D01*
X90400000Y-83725305D02*
X90400000Y-88400000D01*
X89545000Y-92434000D02*
X89545000Y-91545000D01*
X94625000Y-91625000D02*
X94250000Y-91250000D01*
X86387500Y-83275000D02*
X87225000Y-83275000D01*
X102325000Y-85175000D02*
X102500000Y-85000000D01*
X102500000Y-85000000D02*
X102500000Y-84250000D01*
X91500000Y-89500000D02*
X92500000Y-89500000D01*
X89545000Y-91545000D02*
X89250000Y-91250000D01*
X94625000Y-92434000D02*
X94625000Y-91625000D01*
X87750000Y-82750000D02*
X89424695Y-82750000D01*
%TO.N,/CH7*%
X92961396Y-87825000D02*
X92112500Y-87825000D01*
X95625000Y-90488604D02*
X92961396Y-87825000D01*
X95625000Y-92434000D02*
X95625000Y-90488604D01*
%TO.N,/M1A*%
X89545000Y-94334000D02*
X89545000Y-96174000D01*
X89545000Y-96174000D02*
X88525000Y-97194000D01*
D31*
X89520000Y-96199000D02*
X89520000Y-95055000D01*
X88525000Y-97194000D02*
X89520000Y-96199000D01*
%TO.N,/M2A*%
X93605000Y-97194000D02*
X94600000Y-96199000D01*
D30*
X94625000Y-94334000D02*
X94625000Y-96174000D01*
D31*
X94600000Y-96199000D02*
X94600000Y-95025000D01*
D30*
X94625000Y-96174000D02*
X93605000Y-97194000D01*
%TO.N,/M2B*%
X95125000Y-96174000D02*
X96145000Y-97194000D01*
X95125000Y-94334000D02*
X95125000Y-96174000D01*
D31*
X96145000Y-97194000D02*
X95200000Y-96249000D01*
X95200000Y-96249000D02*
X95200000Y-95075000D01*
%TO.N,/M1B*%
X90120000Y-96249000D02*
X90120000Y-95045000D01*
D30*
X90045000Y-96174000D02*
X91065000Y-97194000D01*
X90045000Y-94334000D02*
X90045000Y-96174000D01*
D31*
X91065000Y-97194000D02*
X90120000Y-96249000D01*
D30*
%TO.N,/CH8*%
X100205000Y-90718604D02*
X100205000Y-92434000D01*
X92112500Y-87175000D02*
X93175000Y-87175000D01*
X93175000Y-87175000D02*
X95756802Y-89756802D01*
X99243198Y-89756802D02*
X100205000Y-90718604D01*
X95756802Y-89756802D02*
X99243198Y-89756802D01*
%TO.N,/CH9*%
X99429594Y-89306802D02*
X100705000Y-90582208D01*
X100705000Y-90582208D02*
X100705000Y-92434000D01*
X92112500Y-86525000D02*
X93161396Y-86525000D01*
X95943198Y-89306802D02*
X99429594Y-89306802D01*
X93161396Y-86525000D02*
X95943198Y-89306802D01*
D31*
%TO.N,/M3A*%
X98685000Y-97194000D02*
X99680000Y-96199000D01*
D30*
X99705000Y-96174000D02*
X98685000Y-97194000D01*
D31*
X99680000Y-96199000D02*
X99680000Y-95095000D01*
X98685000Y-97194000D02*
X99479000Y-96400000D01*
D30*
X99705000Y-94334000D02*
X99705000Y-96174000D01*
D31*
%TO.N,/M3B*%
X101225000Y-97194000D02*
X100280000Y-96249000D01*
D30*
X100205000Y-94334000D02*
X100205000Y-96174000D01*
X100205000Y-96174000D02*
X101225000Y-97194000D01*
D31*
X100280000Y-96249000D02*
X100280000Y-95005000D01*
D30*
%TO.N,/ENABLE*%
X92112500Y-83275000D02*
X90975000Y-83275000D01*
X90975000Y-83275000D02*
X90500000Y-82800000D01*
%TO.N,/FEEDBACK*%
X86387500Y-84575000D02*
X89025000Y-84575000D01*
X89025000Y-84575000D02*
X89600000Y-84000000D01*
%TD*%
M02*
