%TF.GenerationSoftware,KiCad,Pcbnew,(6.0.8)*%
%TF.CreationDate,2023-03-27T21:19:56+01:00*%
%TF.ProjectId,m-link-plus,6d2d6c69-6e6b-42d7-906c-75732e6b6963,rev?*%
%TF.SameCoordinates,Original*%
%TF.FileFunction,Copper,L3,Inr*%
%TF.FilePolarity,Positive*%
%FSLAX46Y46*%
G04 Gerber Fmt 4.6, Leading zero omitted, Abs format (unit mm)*
G04 Created by KiCad (PCBNEW (6.0.8)) date 2023-03-27 21:19:56*
%MOMM*%
%LPD*%
G01*
G04 APERTURE LIST*
%TA.AperFunction,ComponentPad*%
%ADD10O,1.700000X1.700000*%
%TD*%
%TA.AperFunction,ComponentPad*%
%ADD11R,1.700000X1.700000*%
%TD*%
%TA.AperFunction,ViaPad*%
%ADD12C,0.800000*%
%TD*%
G04 APERTURE END LIST*
D10*
%TO.N,/CH1*%
%TO.C,J3*%
X80905000Y-92114000D03*
%TO.N,+5V*%
X80905000Y-94654000D03*
D11*
%TO.N,GND*%
X80905000Y-97194000D03*
D10*
%TO.N,/CH2*%
X83445000Y-92114000D03*
%TO.N,+5V*%
X83445000Y-94654000D03*
D11*
%TO.N,GND*%
X83445000Y-97194000D03*
D10*
%TO.N,/CH3*%
X85985000Y-92114000D03*
%TO.N,+5V*%
X85985000Y-94654000D03*
D11*
%TO.N,GND*%
X85985000Y-97194000D03*
%TO.N,/M1A*%
X88525000Y-97194000D03*
%TO.N,/M1B*%
X91065000Y-97194000D03*
%TO.N,/M2A*%
X93605000Y-97194000D03*
%TO.N,/M2B*%
X96145000Y-97194000D03*
%TO.N,/M3A*%
X98685000Y-97194000D03*
%TO.N,/M3B*%
X101225000Y-97194000D03*
%TD*%
D12*
%TO.N,GND*%
X94750000Y-80250000D03*
X87000000Y-76250000D03*
X91500000Y-76250000D03*
X99750000Y-87250000D03*
X88200000Y-83500000D03*
X79987701Y-70787701D03*
X81000000Y-82500000D03*
X88000000Y-88750000D03*
X97634000Y-93384000D03*
X92366000Y-93384000D03*
X88000000Y-93400000D03*
X88200000Y-82000000D03*
X101800000Y-93400000D03*
X102500000Y-72000000D03*
X94600000Y-83400000D03*
X101762299Y-92012299D03*
X102500000Y-78250000D03*
X87000000Y-72250000D03*
%TO.N,/DTR*%
X83000000Y-75600000D03*
%TO.N,+5V*%
X98500000Y-88500000D03*
X98096000Y-94654000D03*
X87904000Y-94654000D03*
X93096000Y-94654000D03*
X92000000Y-91225500D03*
%TO.N,/RESET*%
X82250000Y-79000000D03*
%TO.N,/ADC*%
X102500000Y-80750000D03*
%TO.N,/EN*%
X91250000Y-75250000D03*
%TO.N,/MTDI*%
X82250000Y-80500000D03*
%TO.N,/LED1*%
X98500000Y-77750000D03*
%TO.N,+3V3*%
X97000000Y-78750000D03*
X88000000Y-91250000D03*
X97000000Y-80250000D03*
X97000000Y-77250000D03*
X98160000Y-91250000D03*
X80250000Y-78750000D03*
X101750000Y-88000000D03*
X81000000Y-83500000D03*
X97000000Y-83250000D03*
X93080000Y-91250000D03*
X93000000Y-77750000D03*
%TO.N,/SCL*%
X89300000Y-80700000D03*
%TO.N,/SDA*%
X87250000Y-78750000D03*
%TO.N,/SLEEP*%
X99480500Y-91250000D03*
X94250000Y-91250000D03*
X89250000Y-91250000D03*
X102500000Y-84250000D03*
%TO.N,/ENABLE*%
X90500000Y-82800000D03*
%TO.N,/FEEDBACK*%
X89600000Y-84000000D03*
%TD*%
%TA.AperFunction,Conductor*%
%TO.N,+3V3*%
G36*
X83942121Y-69030502D02*
G01*
X83988614Y-69084158D01*
X84000000Y-69136500D01*
X84000000Y-71000000D01*
X101000000Y-71000000D01*
X101000000Y-69136500D01*
X101020002Y-69068379D01*
X101073658Y-69021886D01*
X101126000Y-69010500D01*
X101994491Y-69010500D01*
X101998315Y-69010667D01*
X102000000Y-69011365D01*
X102001365Y-69010800D01*
X102005472Y-69010979D01*
X102043305Y-69014289D01*
X102160847Y-69024573D01*
X102182470Y-69028385D01*
X102251244Y-69046813D01*
X102327781Y-69067321D01*
X102348420Y-69074833D01*
X102484760Y-69138410D01*
X102503780Y-69149392D01*
X102627011Y-69235679D01*
X102643836Y-69249797D01*
X102750203Y-69356164D01*
X102764321Y-69372989D01*
X102850608Y-69496220D01*
X102861590Y-69515240D01*
X102925167Y-69651580D01*
X102932679Y-69672219D01*
X102971614Y-69817526D01*
X102975428Y-69839156D01*
X102989021Y-69994528D01*
X102989200Y-69998635D01*
X102988635Y-70000000D01*
X102989333Y-70001685D01*
X102989500Y-70005509D01*
X102989500Y-71366238D01*
X102969498Y-71434359D01*
X102915842Y-71480852D01*
X102845568Y-71490956D01*
X102804509Y-71476744D01*
X102802841Y-71475464D01*
X102795213Y-71472304D01*
X102664391Y-71418116D01*
X102656762Y-71414956D01*
X102500000Y-71394318D01*
X102343238Y-71414956D01*
X102197159Y-71475464D01*
X102071718Y-71571718D01*
X101975464Y-71697159D01*
X101914956Y-71843238D01*
X101894318Y-72000000D01*
X101914956Y-72156762D01*
X101975464Y-72302841D01*
X102071718Y-72428282D01*
X102197159Y-72524536D01*
X102343238Y-72585044D01*
X102500000Y-72605682D01*
X102508188Y-72604604D01*
X102648574Y-72586122D01*
X102656762Y-72585044D01*
X102664391Y-72581884D01*
X102795215Y-72527695D01*
X102795216Y-72527694D01*
X102802841Y-72524536D01*
X102803718Y-72523863D01*
X102869494Y-72507905D01*
X102936586Y-72531125D01*
X102980474Y-72586931D01*
X102989500Y-72633762D01*
X102989500Y-77616238D01*
X102969498Y-77684359D01*
X102915842Y-77730852D01*
X102845568Y-77740956D01*
X102804509Y-77726744D01*
X102802841Y-77725464D01*
X102795213Y-77722304D01*
X102664391Y-77668116D01*
X102656762Y-77664956D01*
X102500000Y-77644318D01*
X102343238Y-77664956D01*
X102197159Y-77725464D01*
X102071718Y-77821718D01*
X101975464Y-77947159D01*
X101914956Y-78093238D01*
X101894318Y-78250000D01*
X101914956Y-78406762D01*
X101975464Y-78552841D01*
X102071718Y-78678282D01*
X102197159Y-78774536D01*
X102343238Y-78835044D01*
X102500000Y-78855682D01*
X102508188Y-78854604D01*
X102648574Y-78836122D01*
X102656762Y-78835044D01*
X102786934Y-78781125D01*
X102795215Y-78777695D01*
X102795216Y-78777694D01*
X102802841Y-78774536D01*
X102803718Y-78773863D01*
X102869494Y-78757905D01*
X102936586Y-78781125D01*
X102980474Y-78836931D01*
X102989500Y-78883762D01*
X102989500Y-80116238D01*
X102969498Y-80184359D01*
X102915842Y-80230852D01*
X102845568Y-80240956D01*
X102804509Y-80226744D01*
X102802841Y-80225464D01*
X102795213Y-80222304D01*
X102664391Y-80168116D01*
X102656762Y-80164956D01*
X102500000Y-80144318D01*
X102343238Y-80164956D01*
X102197159Y-80225464D01*
X102071718Y-80321718D01*
X101975464Y-80447159D01*
X101914956Y-80593238D01*
X101894318Y-80750000D01*
X101914956Y-80906762D01*
X101975464Y-81052841D01*
X102071718Y-81178282D01*
X102197159Y-81274536D01*
X102343238Y-81335044D01*
X102500000Y-81355682D01*
X102508188Y-81354604D01*
X102648574Y-81336122D01*
X102656762Y-81335044D01*
X102774870Y-81286122D01*
X102795215Y-81277695D01*
X102795216Y-81277694D01*
X102802841Y-81274536D01*
X102803718Y-81273863D01*
X102869494Y-81257905D01*
X102936586Y-81281125D01*
X102980474Y-81336931D01*
X102989500Y-81383762D01*
X102989500Y-83616238D01*
X102969498Y-83684359D01*
X102915842Y-83730852D01*
X102845568Y-83740956D01*
X102804509Y-83726744D01*
X102802841Y-83725464D01*
X102795213Y-83722304D01*
X102664391Y-83668116D01*
X102656762Y-83664956D01*
X102500000Y-83644318D01*
X102343238Y-83664956D01*
X102197159Y-83725464D01*
X102071718Y-83821718D01*
X101975464Y-83947159D01*
X101914956Y-84093238D01*
X101894318Y-84250000D01*
X101914956Y-84406762D01*
X101975464Y-84552841D01*
X102071718Y-84678282D01*
X102197159Y-84774536D01*
X102343238Y-84835044D01*
X102500000Y-84855682D01*
X102508188Y-84854604D01*
X102648574Y-84836122D01*
X102656762Y-84835044D01*
X102786934Y-84781125D01*
X102795215Y-84777695D01*
X102795216Y-84777694D01*
X102802841Y-84774536D01*
X102803718Y-84773863D01*
X102869494Y-84757905D01*
X102936586Y-84781125D01*
X102980474Y-84836931D01*
X102989500Y-84883762D01*
X102989500Y-97994491D01*
X102989333Y-97998315D01*
X102988635Y-98000000D01*
X102989200Y-98001365D01*
X102989021Y-98005472D01*
X102977904Y-98132547D01*
X102975428Y-98160844D01*
X102971615Y-98182470D01*
X102954994Y-98244500D01*
X102932679Y-98327781D01*
X102925167Y-98348420D01*
X102861590Y-98484760D01*
X102850608Y-98503780D01*
X102764321Y-98627011D01*
X102750203Y-98643836D01*
X102643836Y-98750203D01*
X102627011Y-98764321D01*
X102503780Y-98850608D01*
X102484760Y-98861590D01*
X102348420Y-98925167D01*
X102327780Y-98932679D01*
X102182470Y-98971615D01*
X102160847Y-98975427D01*
X102043305Y-98985711D01*
X102005472Y-98989021D01*
X102001365Y-98989200D01*
X102000000Y-98988635D01*
X101998315Y-98989333D01*
X101994491Y-98989500D01*
X80005509Y-98989500D01*
X80001685Y-98989333D01*
X80000000Y-98988635D01*
X79998635Y-98989200D01*
X79994528Y-98989021D01*
X79956695Y-98985711D01*
X79839153Y-98975427D01*
X79817530Y-98971615D01*
X79672220Y-98932679D01*
X79651580Y-98925167D01*
X79515240Y-98861590D01*
X79496220Y-98850608D01*
X79372989Y-98764321D01*
X79356164Y-98750203D01*
X79249797Y-98643836D01*
X79235679Y-98627011D01*
X79149392Y-98503780D01*
X79138410Y-98484760D01*
X79074833Y-98348420D01*
X79067321Y-98327781D01*
X79045006Y-98244500D01*
X79028385Y-98182470D01*
X79024572Y-98160844D01*
X79022097Y-98132547D01*
X79016078Y-98063748D01*
X79854500Y-98063748D01*
X79866133Y-98122231D01*
X79910448Y-98188552D01*
X79976769Y-98232867D01*
X79988938Y-98235288D01*
X79988939Y-98235288D01*
X80029184Y-98243293D01*
X80035252Y-98244500D01*
X81774748Y-98244500D01*
X81780816Y-98243293D01*
X81821061Y-98235288D01*
X81821062Y-98235288D01*
X81833231Y-98232867D01*
X81899552Y-98188552D01*
X81943867Y-98122231D01*
X81955500Y-98063748D01*
X82394500Y-98063748D01*
X82406133Y-98122231D01*
X82450448Y-98188552D01*
X82516769Y-98232867D01*
X82528938Y-98235288D01*
X82528939Y-98235288D01*
X82569184Y-98243293D01*
X82575252Y-98244500D01*
X84314748Y-98244500D01*
X84320816Y-98243293D01*
X84361061Y-98235288D01*
X84361062Y-98235288D01*
X84373231Y-98232867D01*
X84439552Y-98188552D01*
X84483867Y-98122231D01*
X84495500Y-98063748D01*
X84934500Y-98063748D01*
X84946133Y-98122231D01*
X84990448Y-98188552D01*
X85056769Y-98232867D01*
X85068938Y-98235288D01*
X85068939Y-98235288D01*
X85109184Y-98243293D01*
X85115252Y-98244500D01*
X86854748Y-98244500D01*
X86860816Y-98243293D01*
X86901061Y-98235288D01*
X86901062Y-98235288D01*
X86913231Y-98232867D01*
X86979552Y-98188552D01*
X87023867Y-98122231D01*
X87035500Y-98063748D01*
X87474500Y-98063748D01*
X87486133Y-98122231D01*
X87530448Y-98188552D01*
X87596769Y-98232867D01*
X87608938Y-98235288D01*
X87608939Y-98235288D01*
X87649184Y-98243293D01*
X87655252Y-98244500D01*
X89394748Y-98244500D01*
X89400816Y-98243293D01*
X89441061Y-98235288D01*
X89441062Y-98235288D01*
X89453231Y-98232867D01*
X89519552Y-98188552D01*
X89563867Y-98122231D01*
X89575500Y-98063748D01*
X90014500Y-98063748D01*
X90026133Y-98122231D01*
X90070448Y-98188552D01*
X90136769Y-98232867D01*
X90148938Y-98235288D01*
X90148939Y-98235288D01*
X90189184Y-98243293D01*
X90195252Y-98244500D01*
X91934748Y-98244500D01*
X91940816Y-98243293D01*
X91981061Y-98235288D01*
X91981062Y-98235288D01*
X91993231Y-98232867D01*
X92059552Y-98188552D01*
X92103867Y-98122231D01*
X92115500Y-98063748D01*
X92554500Y-98063748D01*
X92566133Y-98122231D01*
X92610448Y-98188552D01*
X92676769Y-98232867D01*
X92688938Y-98235288D01*
X92688939Y-98235288D01*
X92729184Y-98243293D01*
X92735252Y-98244500D01*
X94474748Y-98244500D01*
X94480816Y-98243293D01*
X94521061Y-98235288D01*
X94521062Y-98235288D01*
X94533231Y-98232867D01*
X94599552Y-98188552D01*
X94643867Y-98122231D01*
X94655500Y-98063748D01*
X95094500Y-98063748D01*
X95106133Y-98122231D01*
X95150448Y-98188552D01*
X95216769Y-98232867D01*
X95228938Y-98235288D01*
X95228939Y-98235288D01*
X95269184Y-98243293D01*
X95275252Y-98244500D01*
X97014748Y-98244500D01*
X97020816Y-98243293D01*
X97061061Y-98235288D01*
X97061062Y-98235288D01*
X97073231Y-98232867D01*
X97139552Y-98188552D01*
X97183867Y-98122231D01*
X97195500Y-98063748D01*
X97634500Y-98063748D01*
X97646133Y-98122231D01*
X97690448Y-98188552D01*
X97756769Y-98232867D01*
X97768938Y-98235288D01*
X97768939Y-98235288D01*
X97809184Y-98243293D01*
X97815252Y-98244500D01*
X99554748Y-98244500D01*
X99560816Y-98243293D01*
X99601061Y-98235288D01*
X99601062Y-98235288D01*
X99613231Y-98232867D01*
X99679552Y-98188552D01*
X99723867Y-98122231D01*
X99735500Y-98063748D01*
X100174500Y-98063748D01*
X100186133Y-98122231D01*
X100230448Y-98188552D01*
X100296769Y-98232867D01*
X100308938Y-98235288D01*
X100308939Y-98235288D01*
X100349184Y-98243293D01*
X100355252Y-98244500D01*
X102094748Y-98244500D01*
X102100816Y-98243293D01*
X102141061Y-98235288D01*
X102141062Y-98235288D01*
X102153231Y-98232867D01*
X102219552Y-98188552D01*
X102263867Y-98122231D01*
X102275500Y-98063748D01*
X102275500Y-96324252D01*
X102263867Y-96265769D01*
X102219552Y-96199448D01*
X102153231Y-96155133D01*
X102141062Y-96152712D01*
X102141061Y-96152712D01*
X102100816Y-96144707D01*
X102094748Y-96143500D01*
X100355252Y-96143500D01*
X100349184Y-96144707D01*
X100308939Y-96152712D01*
X100308938Y-96152712D01*
X100296769Y-96155133D01*
X100230448Y-96199448D01*
X100186133Y-96265769D01*
X100174500Y-96324252D01*
X100174500Y-98063748D01*
X99735500Y-98063748D01*
X99735500Y-96324252D01*
X99723867Y-96265769D01*
X99679552Y-96199448D01*
X99613231Y-96155133D01*
X99601062Y-96152712D01*
X99601061Y-96152712D01*
X99560816Y-96144707D01*
X99554748Y-96143500D01*
X97815252Y-96143500D01*
X97809184Y-96144707D01*
X97768939Y-96152712D01*
X97768938Y-96152712D01*
X97756769Y-96155133D01*
X97690448Y-96199448D01*
X97646133Y-96265769D01*
X97634500Y-96324252D01*
X97634500Y-98063748D01*
X97195500Y-98063748D01*
X97195500Y-96324252D01*
X97183867Y-96265769D01*
X97139552Y-96199448D01*
X97073231Y-96155133D01*
X97061062Y-96152712D01*
X97061061Y-96152712D01*
X97020816Y-96144707D01*
X97014748Y-96143500D01*
X95275252Y-96143500D01*
X95269184Y-96144707D01*
X95228939Y-96152712D01*
X95228938Y-96152712D01*
X95216769Y-96155133D01*
X95150448Y-96199448D01*
X95106133Y-96265769D01*
X95094500Y-96324252D01*
X95094500Y-98063748D01*
X94655500Y-98063748D01*
X94655500Y-96324252D01*
X94643867Y-96265769D01*
X94599552Y-96199448D01*
X94533231Y-96155133D01*
X94521062Y-96152712D01*
X94521061Y-96152712D01*
X94480816Y-96144707D01*
X94474748Y-96143500D01*
X92735252Y-96143500D01*
X92729184Y-96144707D01*
X92688939Y-96152712D01*
X92688938Y-96152712D01*
X92676769Y-96155133D01*
X92610448Y-96199448D01*
X92566133Y-96265769D01*
X92554500Y-96324252D01*
X92554500Y-98063748D01*
X92115500Y-98063748D01*
X92115500Y-96324252D01*
X92103867Y-96265769D01*
X92059552Y-96199448D01*
X91993231Y-96155133D01*
X91981062Y-96152712D01*
X91981061Y-96152712D01*
X91940816Y-96144707D01*
X91934748Y-96143500D01*
X90195252Y-96143500D01*
X90189184Y-96144707D01*
X90148939Y-96152712D01*
X90148938Y-96152712D01*
X90136769Y-96155133D01*
X90070448Y-96199448D01*
X90026133Y-96265769D01*
X90014500Y-96324252D01*
X90014500Y-98063748D01*
X89575500Y-98063748D01*
X89575500Y-96324252D01*
X89563867Y-96265769D01*
X89519552Y-96199448D01*
X89453231Y-96155133D01*
X89441062Y-96152712D01*
X89441061Y-96152712D01*
X89400816Y-96144707D01*
X89394748Y-96143500D01*
X87655252Y-96143500D01*
X87649184Y-96144707D01*
X87608939Y-96152712D01*
X87608938Y-96152712D01*
X87596769Y-96155133D01*
X87530448Y-96199448D01*
X87486133Y-96265769D01*
X87474500Y-96324252D01*
X87474500Y-98063748D01*
X87035500Y-98063748D01*
X87035500Y-96324252D01*
X87023867Y-96265769D01*
X86979552Y-96199448D01*
X86913231Y-96155133D01*
X86901062Y-96152712D01*
X86901061Y-96152712D01*
X86860816Y-96144707D01*
X86854748Y-96143500D01*
X85115252Y-96143500D01*
X85109184Y-96144707D01*
X85068939Y-96152712D01*
X85068938Y-96152712D01*
X85056769Y-96155133D01*
X84990448Y-96199448D01*
X84946133Y-96265769D01*
X84934500Y-96324252D01*
X84934500Y-98063748D01*
X84495500Y-98063748D01*
X84495500Y-96324252D01*
X84483867Y-96265769D01*
X84439552Y-96199448D01*
X84373231Y-96155133D01*
X84361062Y-96152712D01*
X84361061Y-96152712D01*
X84320816Y-96144707D01*
X84314748Y-96143500D01*
X82575252Y-96143500D01*
X82569184Y-96144707D01*
X82528939Y-96152712D01*
X82528938Y-96152712D01*
X82516769Y-96155133D01*
X82450448Y-96199448D01*
X82406133Y-96265769D01*
X82394500Y-96324252D01*
X82394500Y-98063748D01*
X81955500Y-98063748D01*
X81955500Y-96324252D01*
X81943867Y-96265769D01*
X81899552Y-96199448D01*
X81833231Y-96155133D01*
X81821062Y-96152712D01*
X81821061Y-96152712D01*
X81780816Y-96144707D01*
X81774748Y-96143500D01*
X80035252Y-96143500D01*
X80029184Y-96144707D01*
X79988939Y-96152712D01*
X79988938Y-96152712D01*
X79976769Y-96155133D01*
X79910448Y-96199448D01*
X79866133Y-96265769D01*
X79854500Y-96324252D01*
X79854500Y-98063748D01*
X79016078Y-98063748D01*
X79010979Y-98005472D01*
X79010800Y-98001365D01*
X79011365Y-98000000D01*
X79010667Y-97998315D01*
X79010500Y-97994491D01*
X79010500Y-94639262D01*
X79849520Y-94639262D01*
X79866759Y-94844553D01*
X79868458Y-94850478D01*
X79900836Y-94963392D01*
X79923544Y-95042586D01*
X79926359Y-95048063D01*
X79926360Y-95048066D01*
X79946526Y-95087305D01*
X80017712Y-95225818D01*
X80145677Y-95387270D01*
X80302564Y-95520791D01*
X80482398Y-95621297D01*
X80577238Y-95652113D01*
X80672471Y-95683056D01*
X80672475Y-95683057D01*
X80678329Y-95684959D01*
X80882894Y-95709351D01*
X80889029Y-95708879D01*
X80889031Y-95708879D01*
X80945039Y-95704569D01*
X81088300Y-95693546D01*
X81094230Y-95691890D01*
X81094232Y-95691890D01*
X81280797Y-95639800D01*
X81280796Y-95639800D01*
X81286725Y-95638145D01*
X81292214Y-95635372D01*
X81292220Y-95635370D01*
X81465116Y-95548033D01*
X81470610Y-95545258D01*
X81632951Y-95418424D01*
X81767564Y-95262472D01*
X81788387Y-95225818D01*
X81866276Y-95088707D01*
X81869323Y-95083344D01*
X81934351Y-94887863D01*
X81960171Y-94683474D01*
X81960583Y-94654000D01*
X81959138Y-94639262D01*
X82389520Y-94639262D01*
X82406759Y-94844553D01*
X82408458Y-94850478D01*
X82440836Y-94963392D01*
X82463544Y-95042586D01*
X82466359Y-95048063D01*
X82466360Y-95048066D01*
X82486526Y-95087305D01*
X82557712Y-95225818D01*
X82685677Y-95387270D01*
X82842564Y-95520791D01*
X83022398Y-95621297D01*
X83117238Y-95652113D01*
X83212471Y-95683056D01*
X83212475Y-95683057D01*
X83218329Y-95684959D01*
X83422894Y-95709351D01*
X83429029Y-95708879D01*
X83429031Y-95708879D01*
X83485039Y-95704569D01*
X83628300Y-95693546D01*
X83634230Y-95691890D01*
X83634232Y-95691890D01*
X83820797Y-95639800D01*
X83820796Y-95639800D01*
X83826725Y-95638145D01*
X83832214Y-95635372D01*
X83832220Y-95635370D01*
X84005116Y-95548033D01*
X84010610Y-95545258D01*
X84172951Y-95418424D01*
X84307564Y-95262472D01*
X84328387Y-95225818D01*
X84406276Y-95088707D01*
X84409323Y-95083344D01*
X84474351Y-94887863D01*
X84500171Y-94683474D01*
X84500583Y-94654000D01*
X84499138Y-94639262D01*
X84929520Y-94639262D01*
X84946759Y-94844553D01*
X84948458Y-94850478D01*
X84980836Y-94963392D01*
X85003544Y-95042586D01*
X85006359Y-95048063D01*
X85006360Y-95048066D01*
X85026526Y-95087305D01*
X85097712Y-95225818D01*
X85225677Y-95387270D01*
X85382564Y-95520791D01*
X85562398Y-95621297D01*
X85657238Y-95652113D01*
X85752471Y-95683056D01*
X85752475Y-95683057D01*
X85758329Y-95684959D01*
X85962894Y-95709351D01*
X85969029Y-95708879D01*
X85969031Y-95708879D01*
X86025039Y-95704569D01*
X86168300Y-95693546D01*
X86174230Y-95691890D01*
X86174232Y-95691890D01*
X86360797Y-95639800D01*
X86360796Y-95639800D01*
X86366725Y-95638145D01*
X86372214Y-95635372D01*
X86372220Y-95635370D01*
X86545116Y-95548033D01*
X86550610Y-95545258D01*
X86712951Y-95418424D01*
X86847564Y-95262472D01*
X86868387Y-95225818D01*
X86946276Y-95088707D01*
X86949323Y-95083344D01*
X87014351Y-94887863D01*
X87040171Y-94683474D01*
X87040583Y-94654000D01*
X87298318Y-94654000D01*
X87318956Y-94810762D01*
X87379464Y-94956841D01*
X87475718Y-95082282D01*
X87601159Y-95178536D01*
X87747238Y-95239044D01*
X87904000Y-95259682D01*
X87912188Y-95258604D01*
X88052574Y-95240122D01*
X88060762Y-95239044D01*
X88206841Y-95178536D01*
X88332282Y-95082282D01*
X88428536Y-94956841D01*
X88489044Y-94810762D01*
X88509682Y-94654000D01*
X92490318Y-94654000D01*
X92510956Y-94810762D01*
X92571464Y-94956841D01*
X92667718Y-95082282D01*
X92793159Y-95178536D01*
X92939238Y-95239044D01*
X93096000Y-95259682D01*
X93104188Y-95258604D01*
X93244574Y-95240122D01*
X93252762Y-95239044D01*
X93398841Y-95178536D01*
X93524282Y-95082282D01*
X93620536Y-94956841D01*
X93681044Y-94810762D01*
X93701682Y-94654000D01*
X93681044Y-94497238D01*
X93620536Y-94351159D01*
X93524282Y-94225718D01*
X93398841Y-94129464D01*
X93252762Y-94068956D01*
X93096000Y-94048318D01*
X92939238Y-94068956D01*
X92793159Y-94129464D01*
X92667718Y-94225718D01*
X92571464Y-94351159D01*
X92510956Y-94497238D01*
X92490318Y-94654000D01*
X88509682Y-94654000D01*
X88489044Y-94497238D01*
X88428536Y-94351159D01*
X88332282Y-94225718D01*
X88325735Y-94220694D01*
X88325732Y-94220691D01*
X88240195Y-94155056D01*
X88198328Y-94097718D01*
X88194106Y-94026847D01*
X88228870Y-93964945D01*
X88268682Y-93938685D01*
X88302841Y-93924536D01*
X88428282Y-93828282D01*
X88524536Y-93702841D01*
X88585044Y-93556762D01*
X88605682Y-93400000D01*
X88603576Y-93384000D01*
X91760318Y-93384000D01*
X91780956Y-93540762D01*
X91841464Y-93686841D01*
X91937718Y-93812282D01*
X92063159Y-93908536D01*
X92209238Y-93969044D01*
X92366000Y-93989682D01*
X92374188Y-93988604D01*
X92376247Y-93988333D01*
X92522762Y-93969044D01*
X92668841Y-93908536D01*
X92794282Y-93812282D01*
X92890536Y-93686841D01*
X92951044Y-93540762D01*
X92971682Y-93384000D01*
X97028318Y-93384000D01*
X97048956Y-93540762D01*
X97109464Y-93686841D01*
X97205718Y-93812282D01*
X97331159Y-93908536D01*
X97477238Y-93969044D01*
X97519180Y-93974566D01*
X97623751Y-93988333D01*
X97688679Y-94017056D01*
X97727770Y-94076321D01*
X97728615Y-94147312D01*
X97690945Y-94207491D01*
X97684007Y-94213219D01*
X97667718Y-94225718D01*
X97571464Y-94351159D01*
X97510956Y-94497238D01*
X97490318Y-94654000D01*
X97510956Y-94810762D01*
X97571464Y-94956841D01*
X97667718Y-95082282D01*
X97793159Y-95178536D01*
X97939238Y-95239044D01*
X98096000Y-95259682D01*
X98104188Y-95258604D01*
X98244574Y-95240122D01*
X98252762Y-95239044D01*
X98398841Y-95178536D01*
X98524282Y-95082282D01*
X98620536Y-94956841D01*
X98681044Y-94810762D01*
X98701682Y-94654000D01*
X98681044Y-94497238D01*
X98620536Y-94351159D01*
X98524282Y-94225718D01*
X98398841Y-94129464D01*
X98252762Y-94068956D01*
X98207772Y-94063033D01*
X98106249Y-94049667D01*
X98041321Y-94020944D01*
X98002230Y-93961679D01*
X98001385Y-93890688D01*
X98039055Y-93830509D01*
X98045993Y-93824781D01*
X98055735Y-93817306D01*
X98055736Y-93817305D01*
X98062282Y-93812282D01*
X98158536Y-93686841D01*
X98219044Y-93540762D01*
X98239682Y-93384000D01*
X98219044Y-93227238D01*
X98158536Y-93081159D01*
X98090059Y-92991918D01*
X98067305Y-92962264D01*
X98062282Y-92955718D01*
X97936841Y-92859464D01*
X97790762Y-92798956D01*
X97634000Y-92778318D01*
X97477238Y-92798956D01*
X97331159Y-92859464D01*
X97205718Y-92955718D01*
X97200695Y-92962264D01*
X97177941Y-92991918D01*
X97109464Y-93081159D01*
X97048956Y-93227238D01*
X97028318Y-93384000D01*
X92971682Y-93384000D01*
X92951044Y-93227238D01*
X92890536Y-93081159D01*
X92822059Y-92991918D01*
X92799305Y-92962264D01*
X92794282Y-92955718D01*
X92668841Y-92859464D01*
X92522762Y-92798956D01*
X92366000Y-92778318D01*
X92209238Y-92798956D01*
X92063159Y-92859464D01*
X91937718Y-92955718D01*
X91932695Y-92962264D01*
X91909941Y-92991918D01*
X91841464Y-93081159D01*
X91780956Y-93227238D01*
X91760318Y-93384000D01*
X88603576Y-93384000D01*
X88585044Y-93243238D01*
X88524536Y-93097159D01*
X88428282Y-92971718D01*
X88302841Y-92875464D01*
X88156762Y-92814956D01*
X88000000Y-92794318D01*
X87843238Y-92814956D01*
X87697159Y-92875464D01*
X87571718Y-92971718D01*
X87475464Y-93097159D01*
X87414956Y-93243238D01*
X87394318Y-93400000D01*
X87414956Y-93556762D01*
X87475464Y-93702841D01*
X87571718Y-93828282D01*
X87578264Y-93833305D01*
X87578268Y-93833309D01*
X87663805Y-93898944D01*
X87705672Y-93956282D01*
X87709894Y-94027153D01*
X87675130Y-94089055D01*
X87635319Y-94115315D01*
X87601159Y-94129464D01*
X87475718Y-94225718D01*
X87379464Y-94351159D01*
X87318956Y-94497238D01*
X87298318Y-94654000D01*
X87040583Y-94654000D01*
X87020480Y-94448970D01*
X86960935Y-94251749D01*
X86864218Y-94069849D01*
X86778660Y-93964945D01*
X86737906Y-93914975D01*
X86737903Y-93914972D01*
X86734011Y-93910200D01*
X86641066Y-93833309D01*
X86580025Y-93782811D01*
X86580021Y-93782809D01*
X86575275Y-93778882D01*
X86394055Y-93680897D01*
X86197254Y-93619977D01*
X86191129Y-93619333D01*
X86191128Y-93619333D01*
X85998498Y-93599087D01*
X85998496Y-93599087D01*
X85992369Y-93598443D01*
X85905529Y-93606346D01*
X85793342Y-93616555D01*
X85793339Y-93616556D01*
X85787203Y-93617114D01*
X85589572Y-93675280D01*
X85407002Y-93770726D01*
X85402201Y-93774586D01*
X85402198Y-93774588D01*
X85329169Y-93833305D01*
X85246447Y-93899815D01*
X85114024Y-94057630D01*
X85111056Y-94063028D01*
X85111053Y-94063033D01*
X85021617Y-94225718D01*
X85014776Y-94238162D01*
X84952484Y-94434532D01*
X84951798Y-94440649D01*
X84951797Y-94440653D01*
X84946306Y-94489609D01*
X84929520Y-94639262D01*
X84499138Y-94639262D01*
X84480480Y-94448970D01*
X84420935Y-94251749D01*
X84324218Y-94069849D01*
X84238660Y-93964945D01*
X84197906Y-93914975D01*
X84197903Y-93914972D01*
X84194011Y-93910200D01*
X84101066Y-93833309D01*
X84040025Y-93782811D01*
X84040021Y-93782809D01*
X84035275Y-93778882D01*
X83854055Y-93680897D01*
X83657254Y-93619977D01*
X83651129Y-93619333D01*
X83651128Y-93619333D01*
X83458498Y-93599087D01*
X83458496Y-93599087D01*
X83452369Y-93598443D01*
X83365529Y-93606346D01*
X83253342Y-93616555D01*
X83253339Y-93616556D01*
X83247203Y-93617114D01*
X83049572Y-93675280D01*
X82867002Y-93770726D01*
X82862201Y-93774586D01*
X82862198Y-93774588D01*
X82789169Y-93833305D01*
X82706447Y-93899815D01*
X82574024Y-94057630D01*
X82571056Y-94063028D01*
X82571053Y-94063033D01*
X82481617Y-94225718D01*
X82474776Y-94238162D01*
X82412484Y-94434532D01*
X82411798Y-94440649D01*
X82411797Y-94440653D01*
X82406306Y-94489609D01*
X82389520Y-94639262D01*
X81959138Y-94639262D01*
X81940480Y-94448970D01*
X81880935Y-94251749D01*
X81784218Y-94069849D01*
X81698660Y-93964945D01*
X81657906Y-93914975D01*
X81657903Y-93914972D01*
X81654011Y-93910200D01*
X81561066Y-93833309D01*
X81500025Y-93782811D01*
X81500021Y-93782809D01*
X81495275Y-93778882D01*
X81314055Y-93680897D01*
X81117254Y-93619977D01*
X81111129Y-93619333D01*
X81111128Y-93619333D01*
X80918498Y-93599087D01*
X80918496Y-93599087D01*
X80912369Y-93598443D01*
X80825529Y-93606346D01*
X80713342Y-93616555D01*
X80713339Y-93616556D01*
X80707203Y-93617114D01*
X80509572Y-93675280D01*
X80327002Y-93770726D01*
X80322201Y-93774586D01*
X80322198Y-93774588D01*
X80249169Y-93833305D01*
X80166447Y-93899815D01*
X80034024Y-94057630D01*
X80031056Y-94063028D01*
X80031053Y-94063033D01*
X79941617Y-94225718D01*
X79934776Y-94238162D01*
X79872484Y-94434532D01*
X79871798Y-94440649D01*
X79871797Y-94440653D01*
X79866306Y-94489609D01*
X79849520Y-94639262D01*
X79010500Y-94639262D01*
X79010500Y-92099262D01*
X79849520Y-92099262D01*
X79866759Y-92304553D01*
X79868458Y-92310478D01*
X79907205Y-92445604D01*
X79923544Y-92502586D01*
X79926359Y-92508063D01*
X79926360Y-92508066D01*
X80014897Y-92680341D01*
X80017712Y-92685818D01*
X80145677Y-92847270D01*
X80150370Y-92851264D01*
X80150371Y-92851265D01*
X80184712Y-92880491D01*
X80302564Y-92980791D01*
X80482398Y-93081297D01*
X80554699Y-93104789D01*
X80672471Y-93143056D01*
X80672475Y-93143057D01*
X80678329Y-93144959D01*
X80882894Y-93169351D01*
X80889029Y-93168879D01*
X80889031Y-93168879D01*
X80945039Y-93164569D01*
X81088300Y-93153546D01*
X81094230Y-93151890D01*
X81094232Y-93151890D01*
X81218104Y-93117304D01*
X81286725Y-93098145D01*
X81292214Y-93095372D01*
X81292220Y-93095370D01*
X81465116Y-93008033D01*
X81470610Y-93005258D01*
X81513540Y-92971718D01*
X81628101Y-92882213D01*
X81632951Y-92878424D01*
X81652045Y-92856304D01*
X81763540Y-92727134D01*
X81763540Y-92727133D01*
X81767564Y-92722472D01*
X81788387Y-92685818D01*
X81809467Y-92648709D01*
X81869323Y-92543344D01*
X81934351Y-92347863D01*
X81960171Y-92143474D01*
X81960583Y-92114000D01*
X81959138Y-92099262D01*
X82389520Y-92099262D01*
X82406759Y-92304553D01*
X82408458Y-92310478D01*
X82447205Y-92445604D01*
X82463544Y-92502586D01*
X82466359Y-92508063D01*
X82466360Y-92508066D01*
X82554897Y-92680341D01*
X82557712Y-92685818D01*
X82685677Y-92847270D01*
X82690370Y-92851264D01*
X82690371Y-92851265D01*
X82724712Y-92880491D01*
X82842564Y-92980791D01*
X83022398Y-93081297D01*
X83094699Y-93104789D01*
X83212471Y-93143056D01*
X83212475Y-93143057D01*
X83218329Y-93144959D01*
X83422894Y-93169351D01*
X83429029Y-93168879D01*
X83429031Y-93168879D01*
X83485039Y-93164569D01*
X83628300Y-93153546D01*
X83634230Y-93151890D01*
X83634232Y-93151890D01*
X83758104Y-93117304D01*
X83826725Y-93098145D01*
X83832214Y-93095372D01*
X83832220Y-93095370D01*
X84005116Y-93008033D01*
X84010610Y-93005258D01*
X84053540Y-92971718D01*
X84168101Y-92882213D01*
X84172951Y-92878424D01*
X84192045Y-92856304D01*
X84303540Y-92727134D01*
X84303540Y-92727133D01*
X84307564Y-92722472D01*
X84328387Y-92685818D01*
X84349467Y-92648709D01*
X84409323Y-92543344D01*
X84474351Y-92347863D01*
X84500171Y-92143474D01*
X84500583Y-92114000D01*
X84499138Y-92099262D01*
X84929520Y-92099262D01*
X84946759Y-92304553D01*
X84948458Y-92310478D01*
X84987205Y-92445604D01*
X85003544Y-92502586D01*
X85006359Y-92508063D01*
X85006360Y-92508066D01*
X85094897Y-92680341D01*
X85097712Y-92685818D01*
X85225677Y-92847270D01*
X85230370Y-92851264D01*
X85230371Y-92851265D01*
X85264712Y-92880491D01*
X85382564Y-92980791D01*
X85562398Y-93081297D01*
X85634699Y-93104789D01*
X85752471Y-93143056D01*
X85752475Y-93143057D01*
X85758329Y-93144959D01*
X85962894Y-93169351D01*
X85969029Y-93168879D01*
X85969031Y-93168879D01*
X86025039Y-93164569D01*
X86168300Y-93153546D01*
X86174230Y-93151890D01*
X86174232Y-93151890D01*
X86298104Y-93117304D01*
X86366725Y-93098145D01*
X86372214Y-93095372D01*
X86372220Y-93095370D01*
X86545116Y-93008033D01*
X86550610Y-93005258D01*
X86593540Y-92971718D01*
X86708101Y-92882213D01*
X86712951Y-92878424D01*
X86732045Y-92856304D01*
X86843540Y-92727134D01*
X86843540Y-92727133D01*
X86847564Y-92722472D01*
X86868387Y-92685818D01*
X86889467Y-92648709D01*
X86949323Y-92543344D01*
X87014351Y-92347863D01*
X87040171Y-92143474D01*
X87040583Y-92114000D01*
X87030611Y-92012299D01*
X101156617Y-92012299D01*
X101177255Y-92169061D01*
X101237763Y-92315140D01*
X101334017Y-92440581D01*
X101459458Y-92536835D01*
X101568438Y-92581976D01*
X101605537Y-92597343D01*
X101604216Y-92600532D01*
X101651212Y-92629220D01*
X101682191Y-92693101D01*
X101673716Y-92763590D01*
X101628477Y-92818307D01*
X101606144Y-92830321D01*
X101497159Y-92875464D01*
X101371718Y-92971718D01*
X101275464Y-93097159D01*
X101214956Y-93243238D01*
X101194318Y-93400000D01*
X101214956Y-93556762D01*
X101275464Y-93702841D01*
X101371718Y-93828282D01*
X101497159Y-93924536D01*
X101643238Y-93985044D01*
X101651426Y-93986122D01*
X101670279Y-93988604D01*
X101800000Y-94005682D01*
X101808188Y-94004604D01*
X101948574Y-93986122D01*
X101956762Y-93985044D01*
X102102841Y-93924536D01*
X102228282Y-93828282D01*
X102324536Y-93702841D01*
X102385044Y-93556762D01*
X102405682Y-93400000D01*
X102385044Y-93243238D01*
X102324536Y-93097159D01*
X102228282Y-92971718D01*
X102102841Y-92875464D01*
X101956762Y-92814956D01*
X101958083Y-92811767D01*
X101911087Y-92783079D01*
X101880108Y-92719198D01*
X101888583Y-92648709D01*
X101933822Y-92593992D01*
X101956155Y-92581978D01*
X102065140Y-92536835D01*
X102190581Y-92440581D01*
X102286835Y-92315140D01*
X102347343Y-92169061D01*
X102367981Y-92012299D01*
X102347343Y-91855537D01*
X102286835Y-91709458D01*
X102190581Y-91584017D01*
X102065140Y-91487763D01*
X101919061Y-91427255D01*
X101762299Y-91406617D01*
X101605537Y-91427255D01*
X101459458Y-91487763D01*
X101334017Y-91584017D01*
X101237763Y-91709458D01*
X101177255Y-91855537D01*
X101156617Y-92012299D01*
X87030611Y-92012299D01*
X87020480Y-91908970D01*
X86960935Y-91711749D01*
X86864218Y-91529849D01*
X86779665Y-91426177D01*
X86737906Y-91374975D01*
X86737903Y-91374972D01*
X86734011Y-91370200D01*
X86716786Y-91355950D01*
X86588715Y-91250000D01*
X88644318Y-91250000D01*
X88645396Y-91258188D01*
X88658267Y-91355950D01*
X88664956Y-91406762D01*
X88725464Y-91552841D01*
X88821718Y-91678282D01*
X88947159Y-91774536D01*
X89093238Y-91835044D01*
X89250000Y-91855682D01*
X89258188Y-91854604D01*
X89398574Y-91836122D01*
X89406762Y-91835044D01*
X89552841Y-91774536D01*
X89678282Y-91678282D01*
X89774536Y-91552841D01*
X89835044Y-91406762D01*
X89841734Y-91355950D01*
X89854604Y-91258188D01*
X89855682Y-91250000D01*
X89852457Y-91225500D01*
X91394318Y-91225500D01*
X91414956Y-91382262D01*
X91475464Y-91528341D01*
X91571718Y-91653782D01*
X91697159Y-91750036D01*
X91843238Y-91810544D01*
X92000000Y-91831182D01*
X92008188Y-91830104D01*
X92148574Y-91811622D01*
X92156762Y-91810544D01*
X92302841Y-91750036D01*
X92428282Y-91653782D01*
X92524536Y-91528341D01*
X92585044Y-91382262D01*
X92602457Y-91250000D01*
X93644318Y-91250000D01*
X93645396Y-91258188D01*
X93658267Y-91355950D01*
X93664956Y-91406762D01*
X93725464Y-91552841D01*
X93821718Y-91678282D01*
X93947159Y-91774536D01*
X94093238Y-91835044D01*
X94250000Y-91855682D01*
X94258188Y-91854604D01*
X94398574Y-91836122D01*
X94406762Y-91835044D01*
X94552841Y-91774536D01*
X94678282Y-91678282D01*
X94774536Y-91552841D01*
X94835044Y-91406762D01*
X94841734Y-91355950D01*
X94854604Y-91258188D01*
X94855682Y-91250000D01*
X98874818Y-91250000D01*
X98875896Y-91258188D01*
X98888767Y-91355950D01*
X98895456Y-91406762D01*
X98955964Y-91552841D01*
X99052218Y-91678282D01*
X99177659Y-91774536D01*
X99323738Y-91835044D01*
X99480500Y-91855682D01*
X99488688Y-91854604D01*
X99629074Y-91836122D01*
X99637262Y-91835044D01*
X99783341Y-91774536D01*
X99908782Y-91678282D01*
X100005036Y-91552841D01*
X100065544Y-91406762D01*
X100072234Y-91355950D01*
X100085104Y-91258188D01*
X100086182Y-91250000D01*
X100065544Y-91093238D01*
X100005036Y-90947159D01*
X99908782Y-90821718D01*
X99783341Y-90725464D01*
X99637262Y-90664956D01*
X99480500Y-90644318D01*
X99323738Y-90664956D01*
X99177659Y-90725464D01*
X99052218Y-90821718D01*
X98955964Y-90947159D01*
X98895456Y-91093238D01*
X98874818Y-91250000D01*
X94855682Y-91250000D01*
X94835044Y-91093238D01*
X94774536Y-90947159D01*
X94678282Y-90821718D01*
X94552841Y-90725464D01*
X94406762Y-90664956D01*
X94250000Y-90644318D01*
X94093238Y-90664956D01*
X93947159Y-90725464D01*
X93821718Y-90821718D01*
X93725464Y-90947159D01*
X93664956Y-91093238D01*
X93644318Y-91250000D01*
X92602457Y-91250000D01*
X92605682Y-91225500D01*
X92585044Y-91068738D01*
X92524536Y-90922659D01*
X92428282Y-90797218D01*
X92302841Y-90700964D01*
X92156762Y-90640456D01*
X92000000Y-90619818D01*
X91843238Y-90640456D01*
X91697159Y-90700964D01*
X91571718Y-90797218D01*
X91475464Y-90922659D01*
X91414956Y-91068738D01*
X91394318Y-91225500D01*
X89852457Y-91225500D01*
X89835044Y-91093238D01*
X89774536Y-90947159D01*
X89678282Y-90821718D01*
X89552841Y-90725464D01*
X89406762Y-90664956D01*
X89250000Y-90644318D01*
X89093238Y-90664956D01*
X88947159Y-90725464D01*
X88821718Y-90821718D01*
X88725464Y-90947159D01*
X88664956Y-91093238D01*
X88644318Y-91250000D01*
X86588715Y-91250000D01*
X86580025Y-91242811D01*
X86580021Y-91242809D01*
X86575275Y-91238882D01*
X86394055Y-91140897D01*
X86197254Y-91079977D01*
X86191129Y-91079333D01*
X86191128Y-91079333D01*
X85998498Y-91059087D01*
X85998496Y-91059087D01*
X85992369Y-91058443D01*
X85905529Y-91066346D01*
X85793342Y-91076555D01*
X85793339Y-91076556D01*
X85787203Y-91077114D01*
X85589572Y-91135280D01*
X85407002Y-91230726D01*
X85402201Y-91234586D01*
X85402198Y-91234588D01*
X85251254Y-91355950D01*
X85246447Y-91359815D01*
X85114024Y-91517630D01*
X85111056Y-91523028D01*
X85111053Y-91523033D01*
X85029304Y-91671736D01*
X85014776Y-91698162D01*
X85012913Y-91704035D01*
X84978785Y-91811622D01*
X84952484Y-91894532D01*
X84951798Y-91900649D01*
X84951797Y-91900653D01*
X84940193Y-92004111D01*
X84929520Y-92099262D01*
X84499138Y-92099262D01*
X84480480Y-91908970D01*
X84420935Y-91711749D01*
X84324218Y-91529849D01*
X84239665Y-91426177D01*
X84197906Y-91374975D01*
X84197903Y-91374972D01*
X84194011Y-91370200D01*
X84176786Y-91355950D01*
X84040025Y-91242811D01*
X84040021Y-91242809D01*
X84035275Y-91238882D01*
X83854055Y-91140897D01*
X83657254Y-91079977D01*
X83651129Y-91079333D01*
X83651128Y-91079333D01*
X83458498Y-91059087D01*
X83458496Y-91059087D01*
X83452369Y-91058443D01*
X83365529Y-91066346D01*
X83253342Y-91076555D01*
X83253339Y-91076556D01*
X83247203Y-91077114D01*
X83049572Y-91135280D01*
X82867002Y-91230726D01*
X82862201Y-91234586D01*
X82862198Y-91234588D01*
X82711254Y-91355950D01*
X82706447Y-91359815D01*
X82574024Y-91517630D01*
X82571056Y-91523028D01*
X82571053Y-91523033D01*
X82489304Y-91671736D01*
X82474776Y-91698162D01*
X82472913Y-91704035D01*
X82438785Y-91811622D01*
X82412484Y-91894532D01*
X82411798Y-91900649D01*
X82411797Y-91900653D01*
X82400193Y-92004111D01*
X82389520Y-92099262D01*
X81959138Y-92099262D01*
X81940480Y-91908970D01*
X81880935Y-91711749D01*
X81784218Y-91529849D01*
X81699665Y-91426177D01*
X81657906Y-91374975D01*
X81657903Y-91374972D01*
X81654011Y-91370200D01*
X81636786Y-91355950D01*
X81500025Y-91242811D01*
X81500021Y-91242809D01*
X81495275Y-91238882D01*
X81314055Y-91140897D01*
X81117254Y-91079977D01*
X81111129Y-91079333D01*
X81111128Y-91079333D01*
X80918498Y-91059087D01*
X80918496Y-91059087D01*
X80912369Y-91058443D01*
X80825529Y-91066346D01*
X80713342Y-91076555D01*
X80713339Y-91076556D01*
X80707203Y-91077114D01*
X80509572Y-91135280D01*
X80327002Y-91230726D01*
X80322201Y-91234586D01*
X80322198Y-91234588D01*
X80171254Y-91355950D01*
X80166447Y-91359815D01*
X80034024Y-91517630D01*
X80031056Y-91523028D01*
X80031053Y-91523033D01*
X79949304Y-91671736D01*
X79934776Y-91698162D01*
X79932913Y-91704035D01*
X79898785Y-91811622D01*
X79872484Y-91894532D01*
X79871798Y-91900649D01*
X79871797Y-91900653D01*
X79860193Y-92004111D01*
X79849520Y-92099262D01*
X79010500Y-92099262D01*
X79010500Y-88750000D01*
X87394318Y-88750000D01*
X87414956Y-88906762D01*
X87475464Y-89052841D01*
X87571718Y-89178282D01*
X87697159Y-89274536D01*
X87843238Y-89335044D01*
X88000000Y-89355682D01*
X88008188Y-89354604D01*
X88148574Y-89336122D01*
X88156762Y-89335044D01*
X88302841Y-89274536D01*
X88428282Y-89178282D01*
X88524536Y-89052841D01*
X88585044Y-88906762D01*
X88605682Y-88750000D01*
X88585044Y-88593238D01*
X88546423Y-88500000D01*
X97894318Y-88500000D01*
X97914956Y-88656762D01*
X97975464Y-88802841D01*
X98071718Y-88928282D01*
X98197159Y-89024536D01*
X98343238Y-89085044D01*
X98500000Y-89105682D01*
X98508188Y-89104604D01*
X98648574Y-89086122D01*
X98656762Y-89085044D01*
X98802841Y-89024536D01*
X98928282Y-88928282D01*
X99024536Y-88802841D01*
X99085044Y-88656762D01*
X99105682Y-88500000D01*
X99085044Y-88343238D01*
X99024536Y-88197159D01*
X98928282Y-88071718D01*
X98802841Y-87975464D01*
X98656762Y-87914956D01*
X98500000Y-87894318D01*
X98343238Y-87914956D01*
X98197159Y-87975464D01*
X98071718Y-88071718D01*
X97975464Y-88197159D01*
X97914956Y-88343238D01*
X97894318Y-88500000D01*
X88546423Y-88500000D01*
X88524536Y-88447159D01*
X88428282Y-88321718D01*
X88302841Y-88225464D01*
X88156762Y-88164956D01*
X88000000Y-88144318D01*
X87843238Y-88164956D01*
X87697159Y-88225464D01*
X87571718Y-88321718D01*
X87475464Y-88447159D01*
X87414956Y-88593238D01*
X87394318Y-88750000D01*
X79010500Y-88750000D01*
X79010500Y-87250000D01*
X99144318Y-87250000D01*
X99164956Y-87406762D01*
X99225464Y-87552841D01*
X99321718Y-87678282D01*
X99447159Y-87774536D01*
X99593238Y-87835044D01*
X99750000Y-87855682D01*
X99758188Y-87854604D01*
X99898574Y-87836122D01*
X99906762Y-87835044D01*
X100052841Y-87774536D01*
X100178282Y-87678282D01*
X100274536Y-87552841D01*
X100335044Y-87406762D01*
X100355682Y-87250000D01*
X100335044Y-87093238D01*
X100274536Y-86947159D01*
X100178282Y-86821718D01*
X100052841Y-86725464D01*
X99906762Y-86664956D01*
X99750000Y-86644318D01*
X99593238Y-86664956D01*
X99447159Y-86725464D01*
X99321718Y-86821718D01*
X99225464Y-86947159D01*
X99164956Y-87093238D01*
X99144318Y-87250000D01*
X79010500Y-87250000D01*
X79010500Y-83500000D01*
X87594318Y-83500000D01*
X87614956Y-83656762D01*
X87675464Y-83802841D01*
X87771718Y-83928282D01*
X87897159Y-84024536D01*
X88043238Y-84085044D01*
X88200000Y-84105682D01*
X88208188Y-84104604D01*
X88348574Y-84086122D01*
X88356762Y-84085044D01*
X88502841Y-84024536D01*
X88534817Y-84000000D01*
X88994318Y-84000000D01*
X89014956Y-84156762D01*
X89075464Y-84302841D01*
X89171718Y-84428282D01*
X89297159Y-84524536D01*
X89443238Y-84585044D01*
X89600000Y-84605682D01*
X89608188Y-84604604D01*
X89748574Y-84586122D01*
X89756762Y-84585044D01*
X89902841Y-84524536D01*
X90028282Y-84428282D01*
X90124536Y-84302841D01*
X90185044Y-84156762D01*
X90205682Y-84000000D01*
X90185044Y-83843238D01*
X90124536Y-83697159D01*
X90028282Y-83571718D01*
X89902841Y-83475464D01*
X89756762Y-83414956D01*
X89600000Y-83394318D01*
X89443238Y-83414956D01*
X89297159Y-83475464D01*
X89171718Y-83571718D01*
X89075464Y-83697159D01*
X89014956Y-83843238D01*
X88994318Y-84000000D01*
X88534817Y-84000000D01*
X88628282Y-83928282D01*
X88724536Y-83802841D01*
X88785044Y-83656762D01*
X88805682Y-83500000D01*
X88785044Y-83343238D01*
X88724536Y-83197159D01*
X88628282Y-83071718D01*
X88502841Y-82975464D01*
X88356762Y-82914956D01*
X88200000Y-82894318D01*
X88043238Y-82914956D01*
X87897159Y-82975464D01*
X87771718Y-83071718D01*
X87675464Y-83197159D01*
X87614956Y-83343238D01*
X87594318Y-83500000D01*
X79010500Y-83500000D01*
X79010500Y-82500000D01*
X80394318Y-82500000D01*
X80414956Y-82656762D01*
X80475464Y-82802841D01*
X80571718Y-82928282D01*
X80697159Y-83024536D01*
X80843238Y-83085044D01*
X81000000Y-83105682D01*
X81008188Y-83104604D01*
X81021580Y-83102841D01*
X81156762Y-83085044D01*
X81302841Y-83024536D01*
X81428282Y-82928282D01*
X81524536Y-82802841D01*
X81525713Y-82800000D01*
X89894318Y-82800000D01*
X89914956Y-82956762D01*
X89975464Y-83102841D01*
X90071718Y-83228282D01*
X90197159Y-83324536D01*
X90343238Y-83385044D01*
X90500000Y-83405682D01*
X90508188Y-83404604D01*
X90543159Y-83400000D01*
X93994318Y-83400000D01*
X94014956Y-83556762D01*
X94075464Y-83702841D01*
X94171718Y-83828282D01*
X94297159Y-83924536D01*
X94443238Y-83985044D01*
X94600000Y-84005682D01*
X94608188Y-84004604D01*
X94748574Y-83986122D01*
X94756762Y-83985044D01*
X94902841Y-83924536D01*
X95028282Y-83828282D01*
X95124536Y-83702841D01*
X95185044Y-83556762D01*
X95205682Y-83400000D01*
X95185044Y-83243238D01*
X95124536Y-83097159D01*
X95028282Y-82971718D01*
X94902841Y-82875464D01*
X94756762Y-82814956D01*
X94600000Y-82794318D01*
X94443238Y-82814956D01*
X94297159Y-82875464D01*
X94171718Y-82971718D01*
X94075464Y-83097159D01*
X94014956Y-83243238D01*
X93994318Y-83400000D01*
X90543159Y-83400000D01*
X90648574Y-83386122D01*
X90656762Y-83385044D01*
X90802841Y-83324536D01*
X90928282Y-83228282D01*
X91024536Y-83102841D01*
X91085044Y-82956762D01*
X91105682Y-82800000D01*
X91085044Y-82643238D01*
X91024536Y-82497159D01*
X90928282Y-82371718D01*
X90802841Y-82275464D01*
X90656762Y-82214956D01*
X90500000Y-82194318D01*
X90343238Y-82214956D01*
X90197159Y-82275464D01*
X90071718Y-82371718D01*
X89975464Y-82497159D01*
X89914956Y-82643238D01*
X89894318Y-82800000D01*
X81525713Y-82800000D01*
X81585044Y-82656762D01*
X81605682Y-82500000D01*
X81585044Y-82343238D01*
X81524536Y-82197159D01*
X81428282Y-82071718D01*
X81334817Y-82000000D01*
X87594318Y-82000000D01*
X87614956Y-82156762D01*
X87675464Y-82302841D01*
X87771718Y-82428282D01*
X87897159Y-82524536D01*
X88043238Y-82585044D01*
X88200000Y-82605682D01*
X88208188Y-82604604D01*
X88348574Y-82586122D01*
X88356762Y-82585044D01*
X88502841Y-82524536D01*
X88628282Y-82428282D01*
X88724536Y-82302841D01*
X88785044Y-82156762D01*
X88805682Y-82000000D01*
X88785044Y-81843238D01*
X88724536Y-81697159D01*
X88628282Y-81571718D01*
X88502841Y-81475464D01*
X88356762Y-81414956D01*
X88200000Y-81394318D01*
X88043238Y-81414956D01*
X87897159Y-81475464D01*
X87771718Y-81571718D01*
X87675464Y-81697159D01*
X87614956Y-81843238D01*
X87594318Y-82000000D01*
X81334817Y-82000000D01*
X81302841Y-81975464D01*
X81156762Y-81914956D01*
X81000000Y-81894318D01*
X80843238Y-81914956D01*
X80697159Y-81975464D01*
X80571718Y-82071718D01*
X80475464Y-82197159D01*
X80414956Y-82343238D01*
X80394318Y-82500000D01*
X79010500Y-82500000D01*
X79010500Y-80500000D01*
X81644318Y-80500000D01*
X81664956Y-80656762D01*
X81725464Y-80802841D01*
X81821718Y-80928282D01*
X81947159Y-81024536D01*
X82093238Y-81085044D01*
X82250000Y-81105682D01*
X82258188Y-81104604D01*
X82398574Y-81086122D01*
X82406762Y-81085044D01*
X82552841Y-81024536D01*
X82678282Y-80928282D01*
X82774536Y-80802841D01*
X82817134Y-80700000D01*
X88694318Y-80700000D01*
X88714956Y-80856762D01*
X88775464Y-81002841D01*
X88871718Y-81128282D01*
X88997159Y-81224536D01*
X89143238Y-81285044D01*
X89300000Y-81305682D01*
X89308188Y-81304604D01*
X89448574Y-81286122D01*
X89456762Y-81285044D01*
X89602841Y-81224536D01*
X89728282Y-81128282D01*
X89824536Y-81002841D01*
X89885044Y-80856762D01*
X89905682Y-80700000D01*
X89885044Y-80543238D01*
X89824536Y-80397159D01*
X89728282Y-80271718D01*
X89699979Y-80250000D01*
X94144318Y-80250000D01*
X94164956Y-80406762D01*
X94225464Y-80552841D01*
X94321718Y-80678282D01*
X94328264Y-80683305D01*
X94357918Y-80706059D01*
X94447159Y-80774536D01*
X94593238Y-80835044D01*
X94750000Y-80855682D01*
X94758188Y-80854604D01*
X94898574Y-80836122D01*
X94906762Y-80835044D01*
X95052841Y-80774536D01*
X95142082Y-80706059D01*
X95171736Y-80683305D01*
X95178282Y-80678282D01*
X95274536Y-80552841D01*
X95335044Y-80406762D01*
X95355682Y-80250000D01*
X95335044Y-80093238D01*
X95274536Y-79947159D01*
X95178282Y-79821718D01*
X95052841Y-79725464D01*
X94906762Y-79664956D01*
X94750000Y-79644318D01*
X94593238Y-79664956D01*
X94447159Y-79725464D01*
X94321718Y-79821718D01*
X94225464Y-79947159D01*
X94164956Y-80093238D01*
X94144318Y-80250000D01*
X89699979Y-80250000D01*
X89667862Y-80225356D01*
X89602841Y-80175464D01*
X89456762Y-80114956D01*
X89300000Y-80094318D01*
X89143238Y-80114956D01*
X88997159Y-80175464D01*
X88932138Y-80225356D01*
X88900022Y-80250000D01*
X88871718Y-80271718D01*
X88775464Y-80397159D01*
X88714956Y-80543238D01*
X88694318Y-80700000D01*
X82817134Y-80700000D01*
X82835044Y-80656762D01*
X82855682Y-80500000D01*
X82835044Y-80343238D01*
X82774536Y-80197159D01*
X82678282Y-80071718D01*
X82552841Y-79975464D01*
X82406762Y-79914956D01*
X82250000Y-79894318D01*
X82093238Y-79914956D01*
X81947159Y-79975464D01*
X81821718Y-80071718D01*
X81725464Y-80197159D01*
X81664956Y-80343238D01*
X81644318Y-80500000D01*
X79010500Y-80500000D01*
X79010500Y-79000000D01*
X81644318Y-79000000D01*
X81664956Y-79156762D01*
X81725464Y-79302841D01*
X81821718Y-79428282D01*
X81947159Y-79524536D01*
X82093238Y-79585044D01*
X82250000Y-79605682D01*
X82258188Y-79604604D01*
X82398574Y-79586122D01*
X82406762Y-79585044D01*
X82552841Y-79524536D01*
X82678282Y-79428282D01*
X82774536Y-79302841D01*
X82835044Y-79156762D01*
X82855682Y-79000000D01*
X82835044Y-78843238D01*
X82796423Y-78750000D01*
X86644318Y-78750000D01*
X86664956Y-78906762D01*
X86725464Y-79052841D01*
X86821718Y-79178282D01*
X86947159Y-79274536D01*
X87093238Y-79335044D01*
X87250000Y-79355682D01*
X87258188Y-79354604D01*
X87398574Y-79336122D01*
X87406762Y-79335044D01*
X87552841Y-79274536D01*
X87678282Y-79178282D01*
X87774536Y-79052841D01*
X87835044Y-78906762D01*
X87855682Y-78750000D01*
X87835044Y-78593238D01*
X87774536Y-78447159D01*
X87678282Y-78321718D01*
X87552841Y-78225464D01*
X87406762Y-78164956D01*
X87250000Y-78144318D01*
X87093238Y-78164956D01*
X86947159Y-78225464D01*
X86821718Y-78321718D01*
X86725464Y-78447159D01*
X86664956Y-78593238D01*
X86644318Y-78750000D01*
X82796423Y-78750000D01*
X82774536Y-78697159D01*
X82678282Y-78571718D01*
X82552841Y-78475464D01*
X82406762Y-78414956D01*
X82250000Y-78394318D01*
X82093238Y-78414956D01*
X81947159Y-78475464D01*
X81821718Y-78571718D01*
X81725464Y-78697159D01*
X81664956Y-78843238D01*
X81644318Y-79000000D01*
X79010500Y-79000000D01*
X79010500Y-77540000D01*
X80699318Y-77540000D01*
X80719956Y-77696762D01*
X80780464Y-77842841D01*
X80876718Y-77968282D01*
X81002159Y-78064536D01*
X81148238Y-78125044D01*
X81265639Y-78140500D01*
X81344361Y-78140500D01*
X81461762Y-78125044D01*
X81607841Y-78064536D01*
X81733282Y-77968282D01*
X81829536Y-77842841D01*
X81867992Y-77750000D01*
X97894318Y-77750000D01*
X97914956Y-77906762D01*
X97975464Y-78052841D01*
X98071718Y-78178282D01*
X98197159Y-78274536D01*
X98343238Y-78335044D01*
X98500000Y-78355682D01*
X98508188Y-78354604D01*
X98648574Y-78336122D01*
X98656762Y-78335044D01*
X98802841Y-78274536D01*
X98928282Y-78178282D01*
X99024536Y-78052841D01*
X99085044Y-77906762D01*
X99105682Y-77750000D01*
X99085044Y-77593238D01*
X99024536Y-77447159D01*
X98928282Y-77321718D01*
X98802841Y-77225464D01*
X98656762Y-77164956D01*
X98500000Y-77144318D01*
X98343238Y-77164956D01*
X98197159Y-77225464D01*
X98071718Y-77321718D01*
X97975464Y-77447159D01*
X97914956Y-77593238D01*
X97894318Y-77750000D01*
X81867992Y-77750000D01*
X81890044Y-77696762D01*
X81910682Y-77540000D01*
X81890044Y-77383238D01*
X81829536Y-77237159D01*
X81733282Y-77111718D01*
X81607841Y-77015464D01*
X81602550Y-77013272D01*
X81554364Y-76962738D01*
X81540926Y-76893025D01*
X81567312Y-76827114D01*
X81602224Y-76796863D01*
X81607841Y-76794536D01*
X81733282Y-76698282D01*
X81748629Y-76678282D01*
X81824509Y-76579392D01*
X81829536Y-76572841D01*
X81890044Y-76426762D01*
X81910682Y-76270000D01*
X81908049Y-76250000D01*
X86394318Y-76250000D01*
X86414956Y-76406762D01*
X86475464Y-76552841D01*
X86571718Y-76678282D01*
X86697159Y-76774536D01*
X86843238Y-76835044D01*
X87000000Y-76855682D01*
X87008188Y-76854604D01*
X87148574Y-76836122D01*
X87156762Y-76835044D01*
X87302841Y-76774536D01*
X87428282Y-76678282D01*
X87524536Y-76552841D01*
X87585044Y-76406762D01*
X87605682Y-76250000D01*
X87585044Y-76093238D01*
X87524536Y-75947159D01*
X87448651Y-75848264D01*
X87433305Y-75828264D01*
X87428282Y-75821718D01*
X87302841Y-75725464D01*
X87156762Y-75664956D01*
X87000000Y-75644318D01*
X86843238Y-75664956D01*
X86697159Y-75725464D01*
X86571718Y-75821718D01*
X86566695Y-75828264D01*
X86551349Y-75848264D01*
X86475464Y-75947159D01*
X86414956Y-76093238D01*
X86394318Y-76250000D01*
X81908049Y-76250000D01*
X81890044Y-76113238D01*
X81829536Y-75967159D01*
X81733282Y-75841718D01*
X81607841Y-75745464D01*
X81602550Y-75743272D01*
X81554364Y-75692738D01*
X81540926Y-75623025D01*
X81550144Y-75600000D01*
X82394318Y-75600000D01*
X82414956Y-75756762D01*
X82475464Y-75902841D01*
X82571718Y-76028282D01*
X82697159Y-76124536D01*
X82843238Y-76185044D01*
X83000000Y-76205682D01*
X83008188Y-76204604D01*
X83148574Y-76186122D01*
X83156762Y-76185044D01*
X83302841Y-76124536D01*
X83428282Y-76028282D01*
X83524536Y-75902841D01*
X83585044Y-75756762D01*
X83605682Y-75600000D01*
X83585044Y-75443238D01*
X83524536Y-75297159D01*
X83488350Y-75250000D01*
X90644318Y-75250000D01*
X90664956Y-75406762D01*
X90725464Y-75552841D01*
X90821718Y-75678282D01*
X90828264Y-75683305D01*
X90947159Y-75774536D01*
X90945350Y-75776894D01*
X90984487Y-75817947D01*
X90997916Y-75887661D01*
X90981609Y-75938670D01*
X90980488Y-75940611D01*
X90975464Y-75947159D01*
X90972305Y-75954785D01*
X90972304Y-75954787D01*
X90964019Y-75974789D01*
X90914956Y-76093238D01*
X90894318Y-76250000D01*
X90914956Y-76406762D01*
X90975464Y-76552841D01*
X91071718Y-76678282D01*
X91197159Y-76774536D01*
X91343238Y-76835044D01*
X91500000Y-76855682D01*
X91508188Y-76854604D01*
X91648574Y-76836122D01*
X91656762Y-76835044D01*
X91802841Y-76774536D01*
X91928282Y-76678282D01*
X92024536Y-76552841D01*
X92085044Y-76406762D01*
X92105682Y-76250000D01*
X92085044Y-76093238D01*
X92024536Y-75947159D01*
X91948651Y-75848264D01*
X91933305Y-75828264D01*
X91928282Y-75821718D01*
X91843630Y-75756762D01*
X91802841Y-75725464D01*
X91804650Y-75723106D01*
X91765513Y-75682053D01*
X91752084Y-75612339D01*
X91768391Y-75561330D01*
X91769512Y-75559389D01*
X91774536Y-75552841D01*
X91777697Y-75545211D01*
X91831884Y-75414391D01*
X91835044Y-75406762D01*
X91855682Y-75250000D01*
X91835044Y-75093238D01*
X91774536Y-74947159D01*
X91678282Y-74821718D01*
X91552841Y-74725464D01*
X91406762Y-74664956D01*
X91250000Y-74644318D01*
X91093238Y-74664956D01*
X90947159Y-74725464D01*
X90821718Y-74821718D01*
X90725464Y-74947159D01*
X90664956Y-75093238D01*
X90644318Y-75250000D01*
X83488350Y-75250000D01*
X83428282Y-75171718D01*
X83302841Y-75075464D01*
X83156762Y-75014956D01*
X83000000Y-74994318D01*
X82843238Y-75014956D01*
X82697159Y-75075464D01*
X82571718Y-75171718D01*
X82475464Y-75297159D01*
X82414956Y-75443238D01*
X82394318Y-75600000D01*
X81550144Y-75600000D01*
X81567312Y-75557114D01*
X81602224Y-75526863D01*
X81607841Y-75524536D01*
X81733282Y-75428282D01*
X81829536Y-75302841D01*
X81890044Y-75156762D01*
X81910682Y-75000000D01*
X81890044Y-74843238D01*
X81829536Y-74697159D01*
X81733282Y-74571718D01*
X81607841Y-74475464D01*
X81602550Y-74473272D01*
X81554364Y-74422738D01*
X81540926Y-74353025D01*
X81567312Y-74287114D01*
X81602224Y-74256863D01*
X81607841Y-74254536D01*
X81733282Y-74158282D01*
X81829536Y-74032841D01*
X81890044Y-73886762D01*
X81910682Y-73730000D01*
X81890044Y-73573238D01*
X81829536Y-73427159D01*
X81733282Y-73301718D01*
X81607841Y-73205464D01*
X81602550Y-73203272D01*
X81554364Y-73152738D01*
X81540926Y-73083025D01*
X81567312Y-73017114D01*
X81602224Y-72986863D01*
X81607841Y-72984536D01*
X81733282Y-72888282D01*
X81829536Y-72762841D01*
X81890044Y-72616762D01*
X81910682Y-72460000D01*
X81890044Y-72303238D01*
X81867992Y-72250000D01*
X86394318Y-72250000D01*
X86414956Y-72406762D01*
X86475464Y-72552841D01*
X86571718Y-72678282D01*
X86697159Y-72774536D01*
X86843238Y-72835044D01*
X87000000Y-72855682D01*
X87008188Y-72854604D01*
X87148574Y-72836122D01*
X87156762Y-72835044D01*
X87302841Y-72774536D01*
X87428282Y-72678282D01*
X87524536Y-72552841D01*
X87585044Y-72406762D01*
X87605682Y-72250000D01*
X87585044Y-72093238D01*
X87524536Y-71947159D01*
X87428282Y-71821718D01*
X87302841Y-71725464D01*
X87156762Y-71664956D01*
X87000000Y-71644318D01*
X86843238Y-71664956D01*
X86697159Y-71725464D01*
X86571718Y-71821718D01*
X86475464Y-71947159D01*
X86414956Y-72093238D01*
X86394318Y-72250000D01*
X81867992Y-72250000D01*
X81829536Y-72157159D01*
X81733282Y-72031718D01*
X81607841Y-71935464D01*
X81461762Y-71874956D01*
X81344361Y-71859500D01*
X81265639Y-71859500D01*
X81148238Y-71874956D01*
X81002159Y-71935464D01*
X80876718Y-72031718D01*
X80780464Y-72157159D01*
X80719956Y-72303238D01*
X80699318Y-72460000D01*
X80719956Y-72616762D01*
X80780464Y-72762841D01*
X80876718Y-72888282D01*
X81002159Y-72984536D01*
X81007450Y-72986728D01*
X81055636Y-73037262D01*
X81069074Y-73106975D01*
X81042688Y-73172886D01*
X81007776Y-73203137D01*
X81002159Y-73205464D01*
X80876718Y-73301718D01*
X80780464Y-73427159D01*
X80719956Y-73573238D01*
X80699318Y-73730000D01*
X80719956Y-73886762D01*
X80780464Y-74032841D01*
X80876718Y-74158282D01*
X81002159Y-74254536D01*
X81007450Y-74256728D01*
X81055636Y-74307262D01*
X81069074Y-74376975D01*
X81042688Y-74442886D01*
X81007776Y-74473137D01*
X81002159Y-74475464D01*
X80876718Y-74571718D01*
X80780464Y-74697159D01*
X80719956Y-74843238D01*
X80699318Y-75000000D01*
X80719956Y-75156762D01*
X80780464Y-75302841D01*
X80876718Y-75428282D01*
X81002159Y-75524536D01*
X81007450Y-75526728D01*
X81055636Y-75577262D01*
X81069074Y-75646975D01*
X81042688Y-75712886D01*
X81007776Y-75743137D01*
X81002159Y-75745464D01*
X80876718Y-75841718D01*
X80780464Y-75967159D01*
X80719956Y-76113238D01*
X80699318Y-76270000D01*
X80719956Y-76426762D01*
X80780464Y-76572841D01*
X80785491Y-76579392D01*
X80861372Y-76678282D01*
X80876718Y-76698282D01*
X81002159Y-76794536D01*
X81007450Y-76796728D01*
X81055636Y-76847262D01*
X81069074Y-76916975D01*
X81042688Y-76982886D01*
X81007776Y-77013137D01*
X81002159Y-77015464D01*
X80876718Y-77111718D01*
X80780464Y-77237159D01*
X80719956Y-77383238D01*
X80699318Y-77540000D01*
X79010500Y-77540000D01*
X79010500Y-70787701D01*
X79382019Y-70787701D01*
X79402657Y-70944463D01*
X79463165Y-71090542D01*
X79559419Y-71215983D01*
X79684860Y-71312237D01*
X79830939Y-71372745D01*
X79987701Y-71393383D01*
X79995889Y-71392305D01*
X80136275Y-71373823D01*
X80144463Y-71372745D01*
X80290542Y-71312237D01*
X80415983Y-71215983D01*
X80512237Y-71090542D01*
X80572745Y-70944463D01*
X80593383Y-70787701D01*
X80572745Y-70630939D01*
X80512237Y-70484860D01*
X80415983Y-70359419D01*
X80290542Y-70263165D01*
X80144463Y-70202657D01*
X79987701Y-70182019D01*
X79830939Y-70202657D01*
X79684860Y-70263165D01*
X79559419Y-70359419D01*
X79463165Y-70484860D01*
X79402657Y-70630939D01*
X79382019Y-70787701D01*
X79010500Y-70787701D01*
X79010500Y-70005509D01*
X79010667Y-70001685D01*
X79011365Y-70000000D01*
X79010800Y-69998635D01*
X79010979Y-69994528D01*
X79024572Y-69839156D01*
X79028386Y-69817526D01*
X79067321Y-69672219D01*
X79074833Y-69651580D01*
X79138410Y-69515240D01*
X79149392Y-69496220D01*
X79235679Y-69372989D01*
X79249797Y-69356164D01*
X79356164Y-69249797D01*
X79372989Y-69235679D01*
X79496220Y-69149392D01*
X79515240Y-69138410D01*
X79651580Y-69074833D01*
X79672219Y-69067321D01*
X79748756Y-69046813D01*
X79817530Y-69028385D01*
X79839153Y-69024573D01*
X79956695Y-69014289D01*
X79994528Y-69010979D01*
X79998635Y-69010800D01*
X80000000Y-69011365D01*
X80001685Y-69010667D01*
X80005509Y-69010500D01*
X83874000Y-69010500D01*
X83942121Y-69030502D01*
G37*
%TD.AperFunction*%
%TD*%
M02*
