%TF.GenerationSoftware,KiCad,Pcbnew,(6.0.8)*%
%TF.CreationDate,2023-03-27T21:19:56+01:00*%
%TF.ProjectId,m-link-plus,6d2d6c69-6e6b-42d7-906c-75732e6b6963,rev?*%
%TF.SameCoordinates,Original*%
%TF.FileFunction,Soldermask,Bot*%
%TF.FilePolarity,Negative*%
%FSLAX46Y46*%
G04 Gerber Fmt 4.6, Leading zero omitted, Abs format (unit mm)*
G04 Created by KiCad (PCBNEW (6.0.8)) date 2023-03-27 21:19:56*
%MOMM*%
%LPD*%
G01*
G04 APERTURE LIST*
%ADD10O,1.700000X1.700000*%
%ADD11R,1.700000X1.700000*%
%ADD12C,0.700000*%
%ADD13O,1.500000X0.800000*%
%ADD14R,2.500000X1.000000*%
G04 APERTURE END LIST*
D10*
%TO.C,J3*%
X80905000Y-92114000D03*
X80905000Y-94654000D03*
D11*
X80905000Y-97194000D03*
D10*
X83445000Y-92114000D03*
X83445000Y-94654000D03*
D11*
X83445000Y-97194000D03*
D10*
X85985000Y-92114000D03*
X85985000Y-94654000D03*
D11*
X85985000Y-97194000D03*
X88525000Y-97194000D03*
X91065000Y-97194000D03*
X93605000Y-97194000D03*
X96145000Y-97194000D03*
X98685000Y-97194000D03*
X101225000Y-97194000D03*
%TD*%
D12*
%TO.C,J4*%
X81305000Y-72460000D03*
X81305000Y-73730000D03*
X81305000Y-75000000D03*
X81305000Y-76270000D03*
X81305000Y-77540000D03*
D13*
X80150000Y-73095000D03*
X80150000Y-74365000D03*
X80150000Y-75635000D03*
X80150000Y-76905000D03*
%TD*%
D14*
%TO.C,U4*%
X100100000Y-71250000D03*
X100100000Y-73250000D03*
X100100000Y-75250000D03*
X100100000Y-77250000D03*
X100100000Y-79250000D03*
X100100000Y-81250000D03*
X100100000Y-83250000D03*
X100100000Y-85250000D03*
X84900000Y-85250000D03*
X84900000Y-83250000D03*
X84900000Y-81250000D03*
X84900000Y-79250000D03*
X84900000Y-77250000D03*
X84900000Y-75250000D03*
X84900000Y-73250000D03*
X84900000Y-71250000D03*
%TD*%
M02*
