%TF.GenerationSoftware,KiCad,Pcbnew,(6.0.8)*%
%TF.CreationDate,2023-03-28T19:59:17+01:00*%
%TF.ProjectId,m-link-plus,6d2d6c69-6e6b-42d7-906c-75732e6b6963,rev?*%
%TF.SameCoordinates,Original*%
%TF.FileFunction,Paste,Top*%
%TF.FilePolarity,Positive*%
%FSLAX46Y46*%
G04 Gerber Fmt 4.6, Leading zero omitted, Abs format (unit mm)*
G04 Created by KiCad (PCBNEW (6.0.8)) date 2023-03-28 19:59:17*
%MOMM*%
%LPD*%
G01*
G04 APERTURE LIST*
G04 Aperture macros list*
%AMRoundRect*
0 Rectangle with rounded corners*
0 $1 Rounding radius*
0 $2 $3 $4 $5 $6 $7 $8 $9 X,Y pos of 4 corners*
0 Add a 4 corners polygon primitive as box body*
4,1,4,$2,$3,$4,$5,$6,$7,$8,$9,$2,$3,0*
0 Add four circle primitives for the rounded corners*
1,1,$1+$1,$2,$3*
1,1,$1+$1,$4,$5*
1,1,$1+$1,$6,$7*
1,1,$1+$1,$8,$9*
0 Add four rect primitives between the rounded corners*
20,1,$1+$1,$2,$3,$4,$5,0*
20,1,$1+$1,$4,$5,$6,$7,0*
20,1,$1+$1,$6,$7,$8,$9,0*
20,1,$1+$1,$8,$9,$2,$3,0*%
G04 Aperture macros list end*
%ADD10RoundRect,0.225000X0.250000X-0.225000X0.250000X0.225000X-0.250000X0.225000X-0.250000X-0.225000X0*%
%ADD11RoundRect,0.200000X0.275000X-0.200000X0.275000X0.200000X-0.275000X0.200000X-0.275000X-0.200000X0*%
%ADD12R,0.650000X0.750000*%
%ADD13R,0.250000X0.500000*%
%ADD14R,1.500000X2.000000*%
%ADD15R,3.800000X2.000000*%
%ADD16RoundRect,0.218750X-0.256250X0.218750X-0.256250X-0.218750X0.256250X-0.218750X0.256250X0.218750X0*%
%ADD17R,1.050000X0.650000*%
%ADD18RoundRect,0.225000X-0.225000X-0.250000X0.225000X-0.250000X0.225000X0.250000X-0.225000X0.250000X0*%
%ADD19RoundRect,0.225000X-0.250000X0.225000X-0.250000X-0.225000X0.250000X-0.225000X0.250000X0.225000X0*%
%ADD20RoundRect,0.225000X0.225000X0.250000X-0.225000X0.250000X-0.225000X-0.250000X0.225000X-0.250000X0*%
%ADD21RoundRect,0.100000X-0.637500X-0.100000X0.637500X-0.100000X0.637500X0.100000X-0.637500X0.100000X0*%
%ADD22RoundRect,0.200000X-0.275000X0.200000X-0.275000X-0.200000X0.275000X-0.200000X0.275000X0.200000X0*%
%ADD23RoundRect,0.150000X0.625000X-0.150000X0.625000X0.150000X-0.625000X0.150000X-0.625000X-0.150000X0*%
%ADD24RoundRect,0.250000X0.650000X-0.350000X0.650000X0.350000X-0.650000X0.350000X-0.650000X-0.350000X0*%
G04 APERTURE END LIST*
D10*
%TO.C,C10*%
X92250000Y-77775000D03*
X92250000Y-76225000D03*
%TD*%
D11*
%TO.C,R1*%
X101500000Y-83325000D03*
X101500000Y-81675000D03*
%TD*%
D12*
%TO.C,U3*%
X94475000Y-93384000D03*
X95275000Y-93384000D03*
D13*
X94125000Y-94334000D03*
X94625000Y-94334000D03*
X95125000Y-94334000D03*
X95625000Y-94334000D03*
X95625000Y-92434000D03*
X95125000Y-92434000D03*
X94625000Y-92434000D03*
X94125000Y-92434000D03*
%TD*%
D14*
%TO.C,U1*%
X94700000Y-81900000D03*
X97000000Y-81900000D03*
D15*
X97000000Y-75600000D03*
D14*
X99300000Y-81900000D03*
%TD*%
D16*
%TO.C,D1*%
X101500000Y-71212500D03*
X101500000Y-72787500D03*
%TD*%
D17*
%TO.C,SW1*%
X84850000Y-71000000D03*
X89000000Y-71000000D03*
X89000000Y-73150000D03*
X84850000Y-73150000D03*
%TD*%
D12*
%TO.C,U6*%
X99555000Y-93384000D03*
X100355000Y-93384000D03*
D13*
X99205000Y-94334000D03*
X99705000Y-94334000D03*
X100205000Y-94334000D03*
X100705000Y-94334000D03*
X100705000Y-92434000D03*
X100205000Y-92434000D03*
X99705000Y-92434000D03*
X99205000Y-92434000D03*
%TD*%
D18*
%TO.C,C1*%
X98100000Y-86250000D03*
X99650000Y-86250000D03*
%TD*%
%TO.C,C3*%
X98100000Y-84250000D03*
X99650000Y-84250000D03*
%TD*%
D19*
%TO.C,C7*%
X101500000Y-88825000D03*
X101500000Y-90375000D03*
%TD*%
D12*
%TO.C,U2*%
X89395000Y-93384000D03*
X90195000Y-93384000D03*
D13*
X89045000Y-94334000D03*
X89545000Y-94334000D03*
X90045000Y-94334000D03*
X90545000Y-94334000D03*
X90545000Y-92434000D03*
X90045000Y-92434000D03*
X89545000Y-92434000D03*
X89045000Y-92434000D03*
%TD*%
D20*
%TO.C,C4*%
X96150000Y-86250000D03*
X94600000Y-86250000D03*
%TD*%
D21*
%TO.C,U5*%
X86387500Y-80025000D03*
X86387500Y-80675000D03*
X86387500Y-81325000D03*
X86387500Y-81975000D03*
X86387500Y-82625000D03*
X86387500Y-83275000D03*
X86387500Y-83925000D03*
X86387500Y-84575000D03*
X86387500Y-85225000D03*
X86387500Y-85875000D03*
X86387500Y-86525000D03*
X86387500Y-87175000D03*
X86387500Y-87825000D03*
X86387500Y-88475000D03*
X92112500Y-88475000D03*
X92112500Y-87825000D03*
X92112500Y-87175000D03*
X92112500Y-86525000D03*
X92112500Y-85875000D03*
X92112500Y-85225000D03*
X92112500Y-84575000D03*
X92112500Y-83925000D03*
X92112500Y-83275000D03*
X92112500Y-82625000D03*
X92112500Y-81975000D03*
X92112500Y-81325000D03*
X92112500Y-80675000D03*
X92112500Y-80025000D03*
%TD*%
D11*
%TO.C,R10*%
X101500000Y-76325000D03*
X101500000Y-74675000D03*
%TD*%
D22*
%TO.C,R4*%
X84250000Y-76175000D03*
X84250000Y-77825000D03*
%TD*%
D11*
%TO.C,R3*%
X90250000Y-77825000D03*
X90250000Y-76175000D03*
%TD*%
D19*
%TO.C,C5*%
X97000000Y-90700000D03*
X97000000Y-92250000D03*
%TD*%
D23*
%TO.C,J5*%
X82825000Y-85500000D03*
X82825000Y-84500000D03*
X82825000Y-83500000D03*
X82825000Y-82500000D03*
D24*
X80300000Y-86800000D03*
X80300000Y-81200000D03*
%TD*%
D20*
%TO.C,C2*%
X96150000Y-84250000D03*
X94600000Y-84250000D03*
%TD*%
D19*
%TO.C,C6*%
X92000000Y-90725000D03*
X92000000Y-92275000D03*
%TD*%
D11*
%TO.C,R11*%
X101500000Y-86825000D03*
X101500000Y-85175000D03*
%TD*%
%TO.C,R2*%
X101500000Y-79825000D03*
X101500000Y-78175000D03*
%TD*%
%TO.C,R6*%
X86250000Y-77825000D03*
X86250000Y-76175000D03*
%TD*%
%TO.C,R5*%
X88250000Y-77825000D03*
X88250000Y-76175000D03*
%TD*%
M02*
